<svg
  width="60"
  height="27"
  viewBox="0 0 60 27"
  fill="none"
  xmlns="http://www.w3.org/2000/svg"
>
  <path
    d="M6.00225 1.7019V3.28506L5.37909 2.93138C4.62119 2.47664 2.98749 2.42611 2.17907 2.84717C0.141164 3.92507 -0.128311 7.05771 1.69065 8.64088C2.66749 9.49983 4.52013 9.61773 5.51382 8.87667C6.00225 8.52299 6.00225 8.52299 6.00225 8.85983C6.00225 9.14615 6.1033 9.19667 6.67594 9.19667H7.34962V4.64928V0.101888H6.67594H6.00225V1.7019ZM4.90751 4.04296C5.61488 4.34612 6.00225 5.07034 6.00225 6.06402C6.00225 6.68719 5.90119 6.92298 5.42961 7.4114C4.94119 7.95035 4.77277 8.01772 4.04855 8.01772C3.10539 8.01772 2.58328 7.7314 2.21275 7.00719C1.70749 6.03034 2.02749 4.64928 2.8696 4.12717C3.49276 3.7398 4.11592 3.72296 4.90751 4.04296Z"
    fill="#FFC107"
  />
  <path
    d="M35.1392 4.64902V9.19641H35.8128H36.4865V4.64902V0.101626H35.8128H35.1392V4.64902Z"
    fill="#FFC107"
  />
  <path
    d="M13.8335 2.71007C12.9746 2.92902 12.2167 3.61955 11.8799 4.44481C11.6609 4.98376 11.6946 6.78588 11.9135 7.22378C12.1999 7.76273 12.9241 8.52063 13.4462 8.7901C14.1367 9.14379 15.7367 9.09326 16.4104 8.68905L16.9494 8.3522V8.95852C16.9494 10.1206 16.2251 10.7101 14.8272 10.7101C14.1199 10.7101 13.9683 10.6427 13.3788 10.0196L12.7388 9.34589L12.2335 9.69958C11.9472 9.90169 11.7283 10.1206 11.7283 10.2048C11.7283 10.5417 12.6883 11.4512 13.3788 11.7375C14.4399 12.1922 15.6525 12.1417 16.7809 11.5859C18.2967 10.828 18.3641 10.6091 18.4315 6.36482L18.4988 2.79428H17.7241C17.303 2.79428 16.9494 2.87849 16.9494 2.9627C16.9494 3.06375 16.7641 3.04691 16.4946 2.89533C15.7536 2.5248 14.743 2.45743 13.8335 2.71007ZM16.2251 4.14165C17.3704 4.83218 17.303 6.66798 16.1241 7.45957C15.4167 7.93115 14.8441 7.94799 14.1367 7.51009C13.1093 6.88693 12.823 5.77535 13.4293 4.74797C13.9851 3.80481 15.2483 3.53534 16.2251 4.14165Z"
    fill="#FFC107"
  />
  <path
    d="M29.8843 2.60988C29.0254 2.79514 28.419 3.23304 28.1327 3.88988C27.8127 4.64778 27.8127 4.63094 28.4864 4.91726C29.2106 5.22042 29.2443 5.22042 29.2443 4.84989C29.2443 4.32778 29.7327 3.82252 30.3391 3.70462C31.4338 3.50251 32.377 4.22673 31.8717 4.88357C31.7706 5.01831 31.198 5.22042 30.6085 5.32147C28.7222 5.65831 27.7285 6.41621 27.7285 7.5278C27.7285 8.11727 28.3685 8.97623 28.9412 9.17833C29.9517 9.53202 31.9391 9.21202 31.9391 8.70675C31.9391 8.38675 32.2254 8.50464 32.3264 8.85833C32.3938 9.11096 32.5622 9.19517 32.9833 9.19517H33.5559L33.4885 6.61832C33.4043 3.82251 33.2696 3.30041 32.478 2.89619C31.8717 2.59303 30.6591 2.4583 29.8843 2.60988ZM32.1075 6.28148C32.1075 6.78674 31.7033 7.71306 31.3833 7.93201C30.8275 8.31938 29.6317 8.26885 29.4127 7.8478C29.0254 7.12358 29.5306 6.61832 30.9285 6.34884C31.9559 6.14674 32.1075 6.14674 32.1075 6.28148Z"
    fill="#FFC107"
  />
  <path
    d="M9.03394 5.99639V9.19641H9.79183H10.5497V5.99639V2.79638H9.79183H9.03394V5.99639Z"
    fill="#FFC107"
  />
  <path
    d="M19.9812 5.99639V9.19641H20.6549H21.3286V5.99639V2.79638H20.6549H19.9812V5.99639Z"
    fill="#BEEB1A"
  />
  <path
    d="M22.5076 3.38355C22.5076 3.9225 22.5413 3.97303 23.0128 3.97303H23.5181V5.64041C23.5181 7.67831 23.6023 8.16674 24.1076 8.7899C24.4613 9.22779 24.5792 9.27832 25.556 9.27832H26.6339L26.6844 8.63832C26.735 8.01516 26.735 8.01516 26.095 8.01516C25.7244 8.01516 25.3539 7.93094 25.236 7.81305C25.1013 7.67831 25.0339 6.98778 25.0339 5.79199V3.97303H25.876H26.7181V3.38355V2.79408H24.6128H22.5076V3.38355Z"
    fill="#FFC107"
  />
  <path
    d="M24.798 11.6368C24.3938 12.0073 24.3601 12.0241 24.3601 11.721C24.3601 11.4347 24.2422 11.3841 23.6864 11.3841H23.0127V14.5842V17.7842H23.6864H24.3601V16.0494C24.3601 15.1063 24.4443 14.0284 24.5285 13.6578C24.798 12.4789 25.7411 12.0578 26.6169 12.7484C27.0548 13.0852 27.0548 13.1021 27.0548 15.4431V17.7842H27.7285H28.4022V16.0494C28.419 13.9947 28.5875 13.0852 29.0927 12.681C29.6317 12.2431 30.3896 12.3778 30.8275 12.9505C31.1306 13.3715 31.1812 13.7084 31.2317 15.6115L31.2991 17.7842H31.9559H32.6127V15.6115C32.6127 12.8999 32.5285 12.5126 31.838 11.7715C31.2822 11.182 31.2654 11.182 30.0696 11.2494C29.0759 11.2999 28.8064 11.3841 28.5706 11.6873C28.1832 12.142 28.1664 12.142 27.6611 11.6368C27.3075 11.2831 27.0885 11.2157 26.2464 11.2157C25.4211 11.2157 25.1685 11.2831 24.798 11.6368Z"
    fill="#FFC107"
  />
  <path
    d="M36.3184 11.4004C36.0826 11.4846 35.7963 11.6867 35.6952 11.8383C35.4931 12.0909 35.4763 12.0909 35.4763 11.7541C35.4763 11.4341 35.3752 11.3835 34.8026 11.3835H34.1289V15.173V18.9625H34.8026H35.4763V18.1036V17.2446L35.931 17.5309C36.1668 17.6994 36.8405 17.8678 37.4131 17.9183C38.7942 18.0194 39.7542 17.6151 40.4447 16.6046C40.8995 15.9478 40.95 15.7457 40.95 14.5667C40.95 13.3878 40.8995 13.2025 40.4447 12.5288C40.1584 12.1414 39.67 11.6699 39.35 11.5183C38.6931 11.1814 37.0258 11.1309 36.3184 11.4004ZM38.2552 12.5625C39.03 12.8657 39.67 13.9436 39.5521 14.752C39.4342 15.4762 38.9289 16.2509 38.4574 16.453C37.3794 16.9078 36.3521 16.6215 35.8131 15.712C35.3752 15.0046 35.3921 14.1962 35.8468 13.3878C36.3352 12.4951 37.2616 12.192 38.2552 12.5625Z"
    fill="#FFC107"
  />
  <path
    d="M43.4764 11.3833C42.9712 11.5854 42.2469 12.4107 42.129 12.916C42.028 13.2865 42.0785 13.3707 42.4322 13.4718C42.668 13.5223 42.9712 13.6065 43.1059 13.6739C43.2743 13.7244 43.3754 13.6065 43.4427 13.236C43.5943 12.5118 44.5375 12.1075 45.4301 12.377C46.1375 12.596 46.4406 13.1349 46.0701 13.5054C45.9354 13.6233 45.4638 13.8086 44.9922 13.9265C44.5375 14.0444 43.8638 14.196 43.4933 14.2802C42.3312 14.5665 41.7754 15.5434 42.0785 16.7391C42.3817 17.8844 44.4533 18.3728 45.7333 17.5981C46.2554 17.2949 46.3228 17.2781 46.4575 17.5139C46.5417 17.6655 46.828 17.7834 47.148 17.7834H47.687L47.6364 15.2907C47.6028 13.9265 47.5017 12.6128 47.4007 12.3602C47.1143 11.5854 46.3059 11.2149 44.9754 11.2318C44.3354 11.2318 43.6617 11.2991 43.4764 11.3833ZM46.2049 15.3749C46.0701 16.217 45.4301 16.7728 44.588 16.7728C43.7291 16.7728 43.308 16.4528 43.4596 15.8802C43.5438 15.5434 43.7291 15.3918 44.2848 15.257C44.6722 15.156 45.1775 15.0044 45.4133 14.9202C46.2217 14.6507 46.3059 14.7012 46.2049 15.3749Z"
    fill="#FFC107"
  />
  <path
    d="M50.3644 11.6389C49.5055 12.1441 48.7812 13.4578 48.7812 14.5021C48.7812 15.361 49.236 16.5063 49.8423 17.1463C51.0044 18.3758 54.0865 18.1568 54.9118 16.7589C55.2318 16.22 55.1308 16.0179 54.3729 15.6136C54.0529 15.4452 53.9855 15.4621 53.8171 15.8326C53.4971 16.54 52.2507 16.8263 51.2234 16.4389C50.3476 16.1021 50.0107 14.3336 50.6339 13.3063C51.2907 12.2452 53.1265 12.1441 53.6655 13.1547C53.935 13.6431 54.0192 13.6599 54.676 13.3231C55.2823 13.0031 55.2992 12.801 54.7771 12.1947C54.1371 11.4705 53.4634 11.2178 52.2002 11.2178C51.2907 11.2178 50.9202 11.302 50.3644 11.6389Z"
    fill="#FFC107"
  />
  <path
    d="M55.3499 11.8907C55.3499 12.5475 55.3667 12.5644 55.9393 12.5644H56.5288V14.6191C56.5288 15.9496 56.613 16.8423 56.7478 17.1117C57.0172 17.6339 58.1625 18.0381 58.9709 17.8865C59.5099 17.7854 59.5604 17.7181 59.5604 17.196C59.5604 16.6233 59.5436 16.6065 58.9204 16.6065C58.5667 16.6065 58.1962 16.5223 58.0783 16.4044C57.9436 16.2696 57.8762 15.5791 57.8762 14.3833V12.5644H58.8025H59.7288V11.8907V11.217H57.5393H55.3499V11.8907Z"
    fill="#FFC107"
  />
  <path
    d="M19.9812 14.5842V17.7842H20.6549H21.3286V14.5842V11.3841H20.6549H19.9812V14.5842Z"
    fill="#BEEB1A"
  />
  <path
    d="M13.7495 21.9942V26.5416H14.5074H15.2653V21.9942V17.4468H14.5074H13.7495V21.9942Z"
    fill="#FFC107"
  />
  <path
    d="M16.95 21.9942V26.5416H17.6236H18.2973V21.9942V17.4468H17.6236H16.95V21.9942Z"
    fill="#FFC107"
  />
  <path
    d="M8.05712 20.0916C7.38343 20.4116 6.67606 21.2368 6.67606 21.6747C6.67606 21.8937 6.86132 22.0958 7.21501 22.2305C7.73711 22.4495 7.7708 22.4495 7.97291 22.0116C8.32659 21.3211 8.8487 20.9842 9.53923 20.9842C10.2634 20.9842 10.7687 21.4389 10.6845 22.0116C10.634 22.4158 10.5161 22.4663 8.64659 22.8368C6.67606 23.2242 5.86763 24.8074 6.99606 26.0706C7.46764 26.6095 7.53501 26.6263 8.74765 26.6263C9.85923 26.6263 10.0782 26.5758 10.4656 26.2053L10.9034 25.8011L11.0045 26.1716C11.0719 26.4748 11.2066 26.5421 11.7624 26.5421C12.4361 26.5421 12.4361 26.5421 12.3182 26.0032C12.2508 25.7 12.1498 24.4705 12.0992 23.2579C12.0319 22.0453 11.914 20.9505 11.8129 20.7989C11.274 19.9231 9.18554 19.5358 8.05712 20.0916ZM10.7182 24.0832C10.7182 24.7232 10.0613 25.5148 9.47186 25.5653C8.78133 25.6158 8.44449 25.5148 8.24238 25.2453C7.63606 24.4369 8.49501 23.8137 10.6003 23.5274C10.6677 23.5105 10.7182 23.7632 10.7182 24.0832Z"
    fill="#FFC107"
  />
  <path
    d="M24.2258 20.1589C23.5016 20.5295 23.1479 20.9168 22.9458 21.5905C22.8616 21.8768 22.9458 22.0116 23.4174 22.2305C24.1416 22.5674 24.1921 22.5674 24.1921 22.1632C24.1921 21.9611 24.3774 21.6242 24.6132 21.4053C25.3711 20.6474 27.0553 21.0347 27.0553 21.9779C27.0553 22.3484 26.6679 22.5 24.8321 22.8368C23.4342 23.1063 22.8447 23.6958 22.8447 24.8242C22.8447 25.5148 22.9289 25.7842 23.2826 26.1548C23.6868 26.5927 23.8216 26.6263 24.9332 26.6263C25.9437 26.6263 26.2132 26.559 26.6342 26.239C27.1226 25.8516 27.1226 25.8516 27.2574 26.1884C27.3416 26.4579 27.5269 26.5421 27.9479 26.5421H28.5205L28.4532 24.5548C28.3353 21.0347 28.3353 21.0347 27.7458 20.4958C26.87 19.7042 25.4216 19.5695 24.2258 20.1589ZM27.0553 23.999C27.0553 25.1948 25.0847 26.1042 24.4111 25.2284C23.9226 24.5716 24.3437 24.0495 25.6405 23.7632C27.0553 23.46 27.0553 23.46 27.0553 23.999Z"
    fill="#FFC107"
  />
  <path
    d="M32.4448 19.9226C32.31 19.9732 32.0237 20.1753 31.8216 20.3605L31.4343 20.6974V20.3437C31.4343 20.0237 31.35 19.9732 30.6764 19.9732H29.9185V23.2574V26.5416H30.6595H31.4006L31.4679 24.2679C31.5185 21.6742 31.67 21.3711 32.9164 21.2027C33.5058 21.1184 33.6574 21.169 34.028 21.5732C34.449 22.0279 34.4658 22.1121 34.4658 24.2848V26.5416H35.1395H35.8132V24.049C35.8132 21.2195 35.6448 20.6469 34.6343 20.1079C34.0785 19.8216 32.9837 19.7205 32.4448 19.9226Z"
    fill="#FFC107"
  />
  <path
    d="M39.4342 19.9238C39.249 19.9575 38.7942 20.1933 38.4405 20.4459C36.7732 21.5912 36.4869 24.1006 37.8342 25.5996C38.5248 26.3575 39.2995 26.7112 40.2427 26.7112C41.489 26.7112 41.9942 26.5428 42.7353 25.8522C43.4595 25.1785 43.51 24.9259 42.9543 24.6227C42.7858 24.5217 42.5837 24.3533 42.5164 24.2691C42.4321 24.168 42.23 24.2859 42.0111 24.5554C40.8827 25.9028 39.03 25.5322 38.5248 23.848C38.1374 22.5512 39.1648 21.1533 40.4785 21.1533C41.0679 21.1533 42.0448 21.7259 42.0448 22.0796C42.0448 22.4164 42.23 22.3996 42.87 22.0291C43.5269 21.6754 43.5269 21.4059 42.8869 20.8164C41.9437 19.9406 40.7985 19.6375 39.4342 19.9238Z"
    fill="#FFC107"
  />
  <path
    d="M46.4568 19.9231C45.8842 20.041 44.5874 21.3547 44.4021 22.0116C43.9305 23.6453 44.3684 25.279 45.5305 26.1548C46.0863 26.5758 46.2716 26.6263 47.5179 26.6263C48.7305 26.6263 48.9663 26.5758 49.6063 26.1548C50.5495 25.5316 50.6337 25.2621 50.0274 24.7569C49.5726 24.3863 49.5221 24.3863 49.2863 24.6558C48.3937 25.6663 47.2484 25.8011 46.3389 25.0095C46.0189 24.7232 45.7495 24.3526 45.7495 24.1674C45.7495 23.8811 45.9347 23.8474 48.1579 23.8137L50.5495 23.7632L50.499 22.8368C50.4148 21.1695 49.3032 19.9905 47.7368 19.8895C47.2484 19.8558 46.6758 19.8726 46.4568 19.9231ZM48.0232 21.22C48.4947 21.4221 49.1179 22.1968 49.1179 22.5842C49.1179 22.6347 48.36 22.6684 47.4337 22.6684C46.3895 22.6684 45.7495 22.6011 45.7495 22.5C45.7495 22.18 46.3053 21.4726 46.7432 21.2368C47.2989 20.9337 47.3326 20.9337 48.0232 21.22Z"
    fill="#FFC107"
  />
  <path
    d="M19.9812 23.2574V26.5416H20.6549H21.3286V23.2574V19.9732H20.6549H19.9812V23.2574Z"
    fill="#BEEB1A"
  />
</svg>
