<svg width="87" height="58" viewBox="0 0 87 58" fill="none" xmlns="http://www.w3.org/2000/svg">
<path d="M86.2343 42.3036V15.5846H84.0233V40.0853H68.5436V42.3117H86.2343V42.3036ZM75.7441 26.719L73.291 23.022L75.7441 19.3168H73.6434L71.6799 22.2798H70.4076V15.6035H68.5678V26.7083H70.4076V23.7533H71.6799L73.6434 26.719H75.7441ZM62.5643 23.022C62.5596 22.5672 62.6938 22.1219 62.9486 21.7464C63.2033 21.3708 63.5666 21.0831 63.989 20.9221C64.4115 20.7611 64.8728 20.7346 65.3107 20.8462C65.7486 20.9577 66.1419 21.202 66.4375 21.5459L67.6802 20.449C67.1623 19.8532 66.4762 19.4307 65.7135 19.2377C64.951 19.0448 64.148 19.0908 63.4119 19.3693C62.6759 19.6479 62.0418 20.1458 61.5941 20.7968C61.1465 21.4478 60.9067 22.2207 60.9067 23.0126C60.9067 23.8043 61.1465 24.5773 61.5941 25.2282C62.0418 25.8792 62.6759 26.3772 63.4119 26.6558C64.148 26.9344 64.951 26.9802 65.7135 26.7873C66.4762 26.5944 67.1623 26.1719 67.6802 25.5761L66.4375 24.4792C66.143 24.8219 65.7514 25.0655 65.3153 25.1776C64.8792 25.2897 64.4195 25.2648 63.9979 25.1062C63.5763 24.9476 63.213 24.6628 62.9567 24.2903C62.7004 23.9178 62.5635 23.4752 62.5643 23.022ZM58.0992 26.719H59.939V19.3087H58.0992V20.1212C57.7883 19.8003 57.4162 19.5459 57.0053 19.3733C56.5944 19.2007 56.1532 19.1132 55.7079 19.1164C53.7148 19.1164 52.2112 20.7848 52.2112 23.0085C52.2112 25.2321 53.7148 26.8978 55.7079 26.8978C56.1532 26.901 56.5944 26.8136 57.0053 26.6409C57.4162 26.4682 57.7883 26.2139 58.0992 25.893V26.7055V26.719ZM58.2821 23.0139C58.2821 23.4538 58.1525 23.8838 57.9098 24.2496C57.6669 24.6153 57.3219 24.9003 56.9182 25.0685C56.5146 25.2368 56.0704 25.2806 55.642 25.1946C55.2136 25.1086 54.8201 24.8965 54.5114 24.5853C54.2026 24.274 53.9925 23.8775 53.9076 23.446C53.8227 23.0145 53.8668 22.5673 54.0344 22.161C54.2019 21.7548 54.4854 21.4077 54.8489 21.1636C55.2124 20.9197 55.6396 20.7897 56.0765 20.7902C56.3663 20.7902 56.6534 20.8477 56.9212 20.9595C57.1889 21.0713 57.4322 21.2351 57.637 21.4417C57.8419 21.6482 58.0043 21.8933 58.115 22.1631C58.2256 22.4329 58.2825 22.722 58.2821 23.0139ZM48.3945 26.719H51.5227V25.2348H50.2343V20.7902H51.4312V19.3087H50.2343V18.0737H48.3945V26.719ZM40.4839 18.6587C40.4839 17.6565 41.3123 17.085 42.7836 17.085C44.2549 17.085 45.0834 17.7188 45.0834 18.8456H47.1061C47.1061 16.6381 45.5568 15.4166 42.7836 15.4166C40.0105 15.4166 38.4639 16.5758 38.4639 18.6587C38.4639 23.3822 45.1882 20.6033 45.1882 23.6612C45.1882 24.6796 44.3302 25.2348 42.797 25.2348C41.2639 25.2348 40.4058 24.6038 40.4058 23.477H38.3805C38.3805 25.6844 39.9593 26.9032 42.797 26.9032C45.6347 26.9032 47.2109 25.744 47.2109 23.6531C47.2109 18.9295 40.4866 21.7084 40.4866 18.6505L40.4839 18.6587ZM34.0472 27.0847L37.6811 19.306H35.7498L34.0472 22.9488L32.3446 19.306H30.4133L34.0472 27.0847ZM30.4886 23.022C30.4902 22.2523 30.265 21.4994 29.8414 20.8587C29.4179 20.2179 28.815 19.7182 28.1092 19.4226C27.4034 19.1271 26.6264 19.0491 25.8765 19.1984C25.1267 19.3479 24.4377 19.7179 23.8968 20.2618C23.3559 20.8057 22.9875 21.4989 22.8381 22.2538C22.6887 23.0086 22.7651 23.7911 23.0576 24.5023C23.3501 25.2134 23.8456 25.8211 24.4813 26.2485C25.117 26.6759 25.8644 26.9038 26.6288 26.9032C27.6509 26.9011 28.6306 26.4916 29.3539 25.7645C30.0771 25.0372 30.4851 24.0512 30.4886 23.022ZM28.8344 23.022C28.8344 23.4618 28.7049 23.8917 28.4622 24.2574C28.2196 24.6231 27.8747 24.9081 27.4712 25.0764C27.0676 25.2447 26.6236 25.2888 26.1953 25.2029C25.7669 25.1171 25.3734 24.9053 25.0646 24.5944C24.7558 24.2834 24.5455 23.8871 24.4603 23.4558C24.375 23.0245 24.4188 22.5774 24.5859 22.1711C24.753 21.7647 25.0361 21.4175 25.3993 21.1731C25.7624 20.9288 26.1893 20.7984 26.6261 20.7984C27.2117 20.7984 27.7735 21.0327 28.1877 21.4497C28.6018 21.8666 28.8344 22.4322 28.8344 23.022ZM21.997 21.1694C21.9971 20.942 21.9818 20.7149 21.9513 20.4896H16.3861V22.1553H20.0334C19.8462 22.9687 19.3948 23.6961 18.7507 24.2219C18.1066 24.7479 17.3067 25.0424 16.4776 25.0588C15.8309 25.0611 15.194 24.8999 14.6252 24.5901C14.0564 24.2804 13.5738 23.8318 13.2218 23.2855C12.8697 22.7393 12.6594 22.1129 12.61 21.4636C12.5607 20.8143 12.6739 20.1629 12.9394 19.5692C13.2048 18.9754 13.614 18.4582 14.1294 18.0649C14.6447 17.6715 15.2499 17.4147 15.8894 17.3179C16.529 17.2211 17.1824 17.2874 17.7898 17.5108C18.3972 17.7341 18.9393 18.1074 19.3664 18.5963L20.7624 17.3775C20.1345 16.6543 19.3365 16.1012 18.4414 15.7688C17.5463 15.4364 16.5828 15.3353 15.6388 15.4748C14.695 15.6143 13.8009 15.9899 13.0384 16.5673C12.276 17.1446 11.6695 17.9053 11.2744 18.7798C10.8794 19.6542 10.7084 20.6144 10.7771 21.5725C10.8459 22.5306 11.1521 23.4561 11.6678 24.2642C12.1836 25.0724 12.8924 25.7374 13.7294 26.1985C14.5663 26.6595 15.5047 26.9018 16.4588 26.9032C19.509 26.9032 21.9782 24.3411 21.9782 21.1613L21.997 21.1694ZM2.21099 2.23449H17.6879V0H0V26.719H2.21099V2.22636V2.23449Z" fill="#FFFFFF"/>
<path d="M15.1747 57.7624C14.5328 57.7624 14.0098 57.6442 13.6059 57.4078C13.202 57.1713 13 56.8341 13 56.3961C13 56.1805 13.0685 55.9719 13.2056 55.7703C13.3426 55.5756 13.5302 55.4017 13.7682 55.2488V55.2071C13.6383 55.1306 13.5265 55.0228 13.4328 54.8837C13.3462 54.7447 13.3029 54.5778 13.3029 54.3831C13.3029 54.1675 13.3643 53.9798 13.4869 53.8199C13.6095 53.66 13.7393 53.5348 13.8764 53.4444V53.4027C13.7033 53.2636 13.5446 53.0759 13.4003 52.8395C13.2633 52.6031 13.1948 52.3354 13.1948 52.0364C13.1948 51.6678 13.2849 51.348 13.4652 51.0768C13.6456 50.8056 13.8872 50.597 14.1901 50.451C14.4931 50.305 14.8213 50.232 15.1747 50.232C15.319 50.232 15.456 50.2459 15.5858 50.2737C15.7157 50.2946 15.8275 50.3224 15.9213 50.3572H17.7497V51.0142H16.6678C16.7904 51.1255 16.8914 51.275 16.9707 51.4627C17.0573 51.6435 17.1006 51.8417 17.1006 52.0572C17.1006 52.4188 17.014 52.7317 16.8409 52.9959C16.6678 53.2601 16.437 53.4653 16.1485 53.6113C15.8599 53.7503 15.5354 53.8199 15.1747 53.8199C14.8934 53.8199 14.6301 53.7608 14.3849 53.6426C14.2911 53.7191 14.2118 53.806 14.1469 53.9033C14.0819 53.9937 14.0495 54.1084 14.0495 54.2475C14.0495 54.4074 14.1144 54.5395 14.2442 54.6438C14.3813 54.7481 14.6265 54.8003 14.98 54.8003H15.997C16.6101 54.8003 17.0681 54.8976 17.3711 55.0923C17.6812 55.2801 17.8363 55.586 17.8363 56.0102C17.8363 56.323 17.7281 56.6116 17.5117 56.8758C17.2953 57.1401 16.9888 57.3521 16.5921 57.5121C16.1953 57.6789 15.7229 57.7624 15.1747 57.7624ZM15.1747 53.2462C15.4777 53.2462 15.7373 53.1385 15.9537 52.9229C16.1773 52.7004 16.2891 52.4049 16.2891 52.0364C16.2891 51.6678 16.1809 51.3793 15.9645 51.1707C15.7481 50.9621 15.4849 50.8578 15.1747 50.8578C14.8646 50.8578 14.6013 50.9621 14.3849 51.1707C14.1685 51.3793 14.0603 51.6678 14.0603 52.0364C14.0603 52.4049 14.1685 52.7004 14.3849 52.9229C14.6085 53.1385 14.8718 53.2462 15.1747 53.2462ZM15.3045 57.1679C15.8095 57.1679 16.2134 57.0601 16.5163 56.8445C16.8193 56.6359 16.9707 56.3995 16.9707 56.1353C16.9707 55.8989 16.877 55.7355 16.6894 55.6451C16.5091 55.5547 16.2494 55.5095 15.9104 55.5095H15.0016C14.9006 55.5095 14.7888 55.5026 14.6662 55.4887C14.5508 55.4748 14.4354 55.4539 14.32 55.4261C14.1324 55.5582 13.9954 55.6973 13.9088 55.8433C13.8223 55.9893 13.779 56.1353 13.779 56.2813C13.779 56.5525 13.9124 56.7681 14.1793 56.928C14.4534 57.0879 14.8285 57.1679 15.3045 57.1679Z" fill="#FFFFFF"/>
<path d="M20.9657 55.5512C20.5401 55.5512 20.1398 55.4469 19.7647 55.2383C19.3968 55.0297 19.0975 54.7273 18.8667 54.3309C18.6431 53.9346 18.5313 53.4583 18.5313 52.902C18.5313 52.3319 18.6431 51.8486 18.8667 51.4523C19.0975 51.056 19.3968 50.7535 19.7647 50.5449C20.1398 50.3363 20.5401 50.232 20.9657 50.232C21.3984 50.232 21.7988 50.3363 22.1666 50.5449C22.5345 50.7535 22.8302 51.056 23.0538 51.4523C23.2846 51.8486 23.4 52.3319 23.4 52.902C23.4 53.4583 23.2846 53.9346 23.0538 54.3309C22.8302 54.7273 22.5345 55.0297 22.1666 55.2383C21.7988 55.4469 21.3984 55.5512 20.9657 55.5512ZM20.9657 54.842C21.4201 54.842 21.7843 54.6647 22.0584 54.3101C22.3397 53.9485 22.4804 53.4792 22.4804 52.902C22.4804 52.318 22.3397 51.8452 22.0584 51.4836C21.7843 51.122 21.4201 50.9412 20.9657 50.9412C20.5184 50.9412 20.1542 51.122 19.8729 51.4836C19.5916 51.8452 19.4509 52.318 19.4509 52.902C19.4509 53.4792 19.5916 53.9485 19.8729 54.3101C20.1542 54.6647 20.5184 54.842 20.9657 54.842Z" fill="#FFFFFF"/>
<path d="M26.095 55.4261L24.2016 50.3572H25.1213L26.1166 53.2358C26.196 53.4861 26.2753 53.7364 26.3547 53.9868C26.4412 54.2371 26.5242 54.4839 26.6035 54.7273H26.6468C26.7261 54.4839 26.8055 54.2371 26.8848 53.9868C26.9714 53.7364 27.0507 53.4861 27.1229 53.2358L28.1182 50.3572H28.9946L27.1337 55.4261H26.095Z" fill="#FFFFFF"/>
<path d="M32.315 55.5512C31.8462 55.5512 31.4206 55.4469 31.0383 55.2383C30.656 55.0228 30.3531 54.7168 30.1295 54.3205C29.9059 53.9242 29.7941 53.4514 29.7941 52.902C29.7941 52.3458 29.9059 51.8695 30.1295 51.4732C30.3603 51.0768 30.656 50.7709 31.0167 50.5553C31.3773 50.3398 31.756 50.232 32.1527 50.232C32.8235 50.232 33.3392 50.4475 33.6999 50.8786C34.0678 51.3098 34.2517 51.8869 34.2517 52.61C34.2517 52.7004 34.2481 52.7908 34.2409 52.8812C34.2409 52.9646 34.2337 53.0376 34.2192 53.1002H30.6704C30.7065 53.6356 30.8796 54.0632 31.1898 54.3831C31.5072 54.7029 31.9183 54.8629 32.4232 54.8629C32.6757 54.8629 32.9065 54.8281 33.1156 54.7586C33.332 54.6821 33.5376 54.5847 33.7324 54.4665L34.0461 55.0297C33.8225 55.1688 33.5665 55.2905 33.2779 55.3948C32.9966 55.4991 32.6757 55.5512 32.315 55.5512ZM30.6596 52.4849H33.4727C33.4727 51.9703 33.3573 51.5809 33.1265 51.3167C32.9029 51.0455 32.5855 50.9099 32.1744 50.9099C31.8065 50.9099 31.4747 51.049 31.179 51.3271C30.8904 51.5983 30.7173 51.9842 30.6596 52.4849Z" fill="#FFFFFF"/>
<path d="M34.9577 55.4261L36.678 52.7769L35.0876 50.3572H36.0505L36.7538 51.4732C36.8331 51.6053 36.9161 51.7443 37.0026 51.8903C37.0892 52.0364 37.1793 52.1789 37.2731 52.318H37.3164C37.3957 52.1789 37.4751 52.0364 37.5544 51.8903C37.6338 51.7443 37.7131 51.6053 37.7924 51.4732L38.4308 50.3572H39.3613L37.7708 52.8708L39.4803 55.4261H38.5173L37.7492 54.2475C37.6554 54.0945 37.5616 53.9416 37.4679 53.7886C37.3741 53.6356 37.2767 53.4861 37.1757 53.3401H37.1325C37.0387 53.4861 36.9485 53.6356 36.862 53.7886C36.7754 53.9346 36.6889 54.0876 36.6023 54.2475L35.8882 55.4261H34.9577Z" fill="#FFFFFF"/>
<path d="M42.6362 55.5512C42.1745 55.5512 41.7562 55.4469 41.3811 55.2383C41.006 55.0297 40.7103 54.7273 40.4939 54.3309C40.2775 53.9346 40.1693 53.4583 40.1693 52.902C40.1693 52.3319 40.2847 51.8486 40.5156 51.4523C40.7536 51.056 41.0637 50.7535 41.446 50.5449C41.8355 50.3363 42.2539 50.232 42.7011 50.232C43.0473 50.232 43.343 50.2911 43.5883 50.4093C43.8407 50.5275 44.0571 50.6666 44.2374 50.8265L43.783 51.3897C43.6316 51.2576 43.4693 51.1498 43.2962 51.0664C43.1303 50.9829 42.9427 50.9412 42.7335 50.9412C42.4162 50.9412 42.1313 51.0247 41.8788 51.1915C41.6336 51.3515 41.4388 51.5809 41.2946 51.8799C41.1575 52.172 41.089 52.5127 41.089 52.902C41.089 53.4792 41.2369 53.9485 41.5326 54.3101C41.8355 54.6647 42.2286 54.842 42.7119 54.842C42.9571 54.842 43.1844 54.7933 43.3935 54.696C43.6027 54.5917 43.7866 54.47 43.9453 54.3309L44.3348 54.9046C44.0968 55.1062 43.8335 55.2662 43.545 55.3844C43.2565 55.4956 42.9535 55.5512 42.6362 55.5512Z" fill="#FFFFFF"/>
<path d="M45.7095 55.4261V48H46.5967V50.0234L46.5642 51.0664C46.8167 50.8369 47.0799 50.6422 47.354 50.4823C47.6353 50.3154 47.9563 50.232 48.317 50.232C48.8724 50.232 49.2763 50.4024 49.5288 50.7431C49.7884 51.0768 49.9183 51.567 49.9183 52.2137V55.4261H49.0311V52.3284C49.0311 51.8556 48.9517 51.5114 48.793 51.2958C48.6343 51.0803 48.3819 50.9725 48.0357 50.9725C47.7688 50.9725 47.5272 51.0386 47.3108 51.1707C47.1016 51.3028 46.8636 51.4975 46.5967 51.7548V55.4261H45.7095Z" fill="#FFFFFF"/>
<path d="M53.0228 55.5512C52.5828 55.5512 52.215 55.4261 51.9193 55.1758C51.6307 54.9185 51.4865 54.5639 51.4865 54.1119C51.4865 53.5557 51.7425 53.1315 52.2547 52.8395C52.774 52.5405 53.5927 52.3319 54.7107 52.2137C54.7107 51.9981 54.6782 51.793 54.6133 51.5983C54.5556 51.4036 54.4474 51.2472 54.2887 51.129C54.1372 51.0038 53.9172 50.9412 53.6287 50.9412C53.3258 50.9412 53.0409 50.9969 52.774 51.1081C52.5071 51.2194 52.2691 51.3445 52.0599 51.4836L51.7137 50.8891C51.9589 50.7361 52.2583 50.5901 52.6117 50.451C52.9724 50.305 53.3618 50.232 53.7802 50.232C54.4222 50.232 54.8874 50.4232 55.1759 50.8056C55.4644 51.1811 55.6087 51.6852 55.6087 52.318V55.4261H54.873L54.7972 54.8211H54.7648C54.5195 55.0158 54.249 55.1862 53.9533 55.3322C53.6648 55.4782 53.3546 55.5512 53.0228 55.5512ZM53.2825 54.8629C53.535 54.8629 53.773 54.8038 53.9966 54.6856C54.2202 54.5674 54.4582 54.4005 54.7107 54.1849V52.7769C53.8379 52.8812 53.2248 53.0376 52.8714 53.2462C52.5251 53.4548 52.352 53.7225 52.352 54.0493C52.352 54.3344 52.4422 54.543 52.6225 54.6751C52.8028 54.8003 53.0228 54.8629 53.2825 54.8629Z" fill="#FFFFFF"/>
<path d="M57.4794 55.4261V50.3572H58.2152L58.2909 51.0872H58.3234C58.5758 50.8439 58.8427 50.6422 59.124 50.4823C59.4053 50.3154 59.7263 50.232 60.0869 50.232C60.6423 50.232 61.0463 50.4024 61.2987 50.7431C61.5584 51.0768 61.6882 51.567 61.6882 52.2137V55.4261H60.801V52.3284C60.801 51.8556 60.7217 51.5114 60.563 51.2958C60.4043 51.0803 60.1518 50.9725 59.8056 50.9725C59.5387 50.9725 59.2971 51.0386 59.0807 51.1707C58.8715 51.3028 58.6335 51.4975 58.3666 51.7548V55.4261H57.4794Z" fill="#FFFFFF"/>
<path d="M65.3871 57.7624C64.7452 57.7624 64.2222 57.6442 63.8183 57.4078C63.4144 57.1713 63.2124 56.8341 63.2124 56.3961C63.2124 56.1805 63.2809 55.9719 63.418 55.7703C63.555 55.5756 63.7426 55.4017 63.9806 55.2488V55.2071C63.8507 55.1306 63.7389 55.0228 63.6452 54.8837C63.5586 54.7447 63.5153 54.5778 63.5153 54.3831C63.5153 54.1675 63.5767 53.9798 63.6993 53.8199C63.8219 53.66 63.9517 53.5348 64.0888 53.4444V53.4027C63.9157 53.2636 63.757 53.0759 63.6127 52.8395C63.4757 52.6031 63.4072 52.3354 63.4072 52.0364C63.4072 51.6678 63.4973 51.348 63.6776 51.0768C63.858 50.8056 64.0996 50.597 64.4025 50.451C64.7055 50.305 65.0337 50.232 65.3871 50.232C65.5314 50.232 65.6684 50.2459 65.7982 50.2737C65.9281 50.2946 66.0399 50.3224 66.1337 50.3572H67.9621V51.0142H66.8802C67.0028 51.1255 67.1038 51.275 67.1831 51.4627C67.2697 51.6435 67.313 51.8417 67.313 52.0572C67.313 52.4188 67.2264 52.7317 67.0533 52.9959C66.8802 53.2601 66.6494 53.4653 66.3609 53.6113C66.0723 53.7503 65.7478 53.8199 65.3871 53.8199C65.1058 53.8199 64.8425 53.7608 64.5973 53.6426C64.5035 53.7191 64.4242 53.806 64.3593 53.9033C64.2943 53.9937 64.2619 54.1084 64.2619 54.2475C64.2619 54.4074 64.3268 54.5395 64.4566 54.6438C64.5937 54.7481 64.8389 54.8003 65.1924 54.8003H66.2094C66.8225 54.8003 67.2805 54.8976 67.5835 55.0923C67.8936 55.2801 68.0487 55.586 68.0487 56.0102C68.0487 56.323 67.9405 56.6116 67.7241 56.8758C67.5077 57.1401 67.2012 57.3521 66.8045 57.5121C66.4077 57.6789 65.9353 57.7624 65.3871 57.7624ZM65.3871 53.2462C65.6901 53.2462 65.9497 53.1385 66.1661 52.9229C66.3897 52.7004 66.5015 52.4049 66.5015 52.0364C66.5015 51.6678 66.3933 51.3793 66.1769 51.1707C65.9605 50.9621 65.6973 50.8578 65.3871 50.8578C65.077 50.8578 64.8137 50.9621 64.5973 51.1707C64.3809 51.3793 64.2727 51.6678 64.2727 52.0364C64.2727 52.4049 64.3809 52.7004 64.5973 52.9229C64.8209 53.1385 65.0842 53.2462 65.3871 53.2462ZM65.5169 57.1679C66.0218 57.1679 66.4258 57.0601 66.7287 56.8445C67.0317 56.6359 67.1831 56.3995 67.1831 56.1353C67.1831 55.8989 67.0894 55.7355 66.9018 55.6451C66.7215 55.5547 66.4618 55.5095 66.1228 55.5095H65.214C65.113 55.5095 65.0012 55.5026 64.8786 55.4887C64.7632 55.4748 64.6478 55.4539 64.5324 55.4261C64.3448 55.5582 64.2078 55.6973 64.1212 55.8433C64.0347 55.9893 63.9914 56.1353 63.9914 56.2813C63.9914 56.5525 64.1248 56.7681 64.3917 56.928C64.6658 57.0879 65.0409 57.1679 65.5169 57.1679Z" fill="#FFFFFF"/>
<path d="M71.2646 55.5512C70.7958 55.5512 70.3702 55.4469 69.9879 55.2383C69.6056 55.0228 69.3027 54.7168 69.0791 54.3205C68.8555 53.9242 68.7437 53.4514 68.7437 52.902C68.7437 52.3458 68.8555 51.8695 69.0791 51.4732C69.3099 51.0768 69.6056 50.7709 69.9663 50.5553C70.3269 50.3398 70.7056 50.232 71.1023 50.232C71.7731 50.232 72.2889 50.4475 72.6495 50.8786C73.0174 51.3098 73.2013 51.8869 73.2013 52.61C73.2013 52.7004 73.1977 52.7908 73.1905 52.8812C73.1905 52.9646 73.1833 53.0376 73.1688 53.1002H69.6201C69.6561 53.6356 69.8292 54.0632 70.1394 54.3831C70.4568 54.7029 70.8679 54.8629 71.3728 54.8629C71.6253 54.8629 71.8561 54.8281 72.0653 54.7586C72.2816 54.6821 72.4872 54.5847 72.682 54.4665L72.9957 55.0297C72.7721 55.1688 72.5161 55.2905 72.2275 55.3948C71.9462 55.4991 71.6253 55.5512 71.2646 55.5512ZM69.6092 52.4849H72.4223C72.4223 51.9703 72.3069 51.5809 72.0761 51.3167C71.8525 51.0455 71.5351 50.9099 71.124 50.9099C70.7561 50.9099 70.4243 51.049 70.1286 51.3271C69.84 51.5983 69.6669 51.9842 69.6092 52.4849Z" fill="#FFFFFF"/>
</svg>
