<svg
  width="36"
  height="36"
  viewBox="0 0 36 36"
  fill="none"
  xmlns="http://www.w3.org/2000/svg"
>
  <path
    fill-rule="evenodd"
    clip-rule="evenodd"
    d="M35.2083 1.58333C35.6456 1.58333 36 1.22889 36 0.791667C36 0.354441 35.6456 0 35.2083 0L0.791668 0C0.354443 0 0 0.354441 0 0.791667C0 1.22889 0.354443 1.58333 0.791668 1.58333L2.97297 1.58333L2.66327 2.53648H1.57345L2.45513 3.17706L2.11836 4.21354L3.00004 3.57296L3.88172 4.21354L3.54495 3.17706L4.42662 2.53648L3.33681 2.53648L3.02711 1.58333L10.4729 1.58333L10.1632 2.53648L9.07342 2.53648L9.95509 3.17706L9.61832 4.21354L10.5 3.57296L11.3817 4.21354L11.0449 3.17706L11.9266 2.53648H10.8368L10.5271 1.58333L17.9729 1.58333L17.6632 2.53648H16.5734L17.4551 3.17706L17.1183 4.21354L18 3.57296L18.8816 4.21354L18.5449 3.17706L19.4265 2.53648H18.3367L18.027 1.58333L25.473 1.58333L25.1633 2.53648H24.0735L24.9551 3.17706L24.6184 4.21354L25.5 3.57296L26.3817 4.21354L26.0449 3.17706L26.9266 2.53648L25.8368 2.53648L25.5271 1.58333L32.9729 1.58333L32.6632 2.53648L31.5734 2.53648L32.4551 3.17706L32.1183 4.21354L33 3.57296L33.8817 4.21354L33.5449 3.17706L34.4266 2.53648H33.3368L33.0271 1.58333L35.2083 1.58333ZM35.2083 10.5833C35.6456 10.5833 36 10.2289 36 9.79167C36 9.35444 35.6456 9 35.2083 9H30.7916L5.29167 9H0.791668C0.354443 9 0 9.35444 0 9.79167C0 10.2289 0.354443 10.5833 0.791668 10.5833H4.5L4.5 32.2083C4.5 32.6456 4.85444 33 5.29167 33C5.72889 33 6.08333 32.6456 6.08333 32.2083L6.08333 10.5833H9V13.6667L9 32.8333V36H15.3333V32.8333L15.3333 13.6667V10.5833L21 10.5833L21 13.6667L21 32.8333L21 36L27.3333 36L27.3333 32.8333V13.6667L27.3333 10.5833L30 10.5833L30 32.2083C30 32.6456 30.3544 33 30.7916 33C31.2289 33 31.5833 32.6456 31.5833 32.2083L31.5833 10.5833H35.2083ZM36 6.08333C36 6.95778 35.2911 7.66667 34.4167 7.66667L1.58333 7.66667C0.708881 7.66667 0 6.95778 0 6.08333C0 5.20888 0.708881 4.5 1.58333 4.5L34.4167 4.5C35.2911 4.5 36 5.20888 36 6.08333Z"
    fill="black"
  />
</svg>
