<svg
  width="40"
  height="40"
  viewBox="0 0 40 40"
  fill="none"
  xmlns="http://www.w3.org/2000/svg"
>
  <path d="M20 1H1V20M39 20V39H20" stroke="black" stroke-width="2" />
  <path
    fill-rule="evenodd"
    clip-rule="evenodd"
    d="M31.5 9C31.7761 9 32 8.77614 32 8.5C32 8.22386 31.7761 8 31.5 8H8.5C8.22386 8 8 8.22386 8 8.5C8 8.77614 8.22386 9 8.5 9H10L9.77549 9.69098H9.04894L9.63673 10.118L9.41221 10.809L10 10.382L10.5878 10.809L10.3633 10.118L10.9511 9.69098H10.2245L10 9H15L14.7755 9.69098H14.0489L14.6367 10.118L14.4122 10.809L15 10.382L15.5878 10.809L15.3633 10.118L15.9511 9.69098H15.2245L15 9H20L19.7755 9.69098H19.0489L19.6367 10.118L19.4122 10.809L20 10.382L20.5878 10.809L20.3633 10.118L20.9511 9.69098H20.2245L20 9H25L24.7755 9.69098H24.0489L24.6367 10.118L24.4122 10.809L25 10.382L25.5878 10.809L25.3633 10.118L25.9511 9.69098H25.2245L25 9H30L29.7755 9.69098H29.0489L29.6367 10.118L29.4122 10.809L30 10.382L30.5878 10.809L30.3633 10.118L30.9511 9.69098H30.2245L30 9H31.5ZM31.5 15C31.7761 15 32 14.7761 32 14.5C32 14.2239 31.7761 14 31.5 14H28.5H11.5H8.5C8.22386 14 8 14.2239 8 14.5C8 14.7761 8.22386 15 8.5 15H11L11 29.5C11 29.7761 11.2239 30 11.5 30C11.7761 30 12 29.7761 12 29.5L12 15H14V17L14 30L14 32H18V30L18 17V15H22V17L22 30V32H26V30V17V15H28V29.5C28 29.7761 28.2239 30 28.5 30C28.7761 30 29 29.7761 29 29.5V15H31.5ZM32 12C32 12.5523 31.5523 13 31 13H9C8.44772 13 8 12.5523 8 12C8 11.4477 8.44772 11 9 11H31C31.5523 11 32 11.4477 32 12Z"
    fill="black"
  />
</svg>
