<svg width="99" height="137" viewBox="0 0 99 137" fill="none" xmlns="http://www.w3.org/2000/svg">
<path id="Arrow 1" d="M3.18116 0.0165468C2.63802 -0.0835065 2.1166 0.275691 2.01655 0.818838L0.386085 9.66992C0.286031 10.2131 0.645229 10.7345 1.18838 10.8345C1.73152 10.9346 2.25294 10.5754 2.35299 10.0322L3.80229 2.16462L11.6699 3.61392C12.2131 3.71397 12.7345 3.35477 12.8345 2.81162C12.9346 2.26848 12.5754 1.74706 12.0322 1.64701L3.18116 0.0165468ZM95.8188 136.983C96.362 137.084 96.8834 136.724 96.9835 136.181L98.6139 127.33C98.714 126.787 98.3548 126.266 97.8116 126.165C97.2685 126.065 96.7471 126.425 96.647 126.968L95.1977 134.835L87.3301 133.386C86.7869 133.286 86.2655 133.645 86.1655 134.188C86.0654 134.732 86.4246 135.253 86.9678 135.353L95.8188 136.983ZM2.17649 1.56731L95.1765 136.567L96.8235 135.433L3.82351 0.432695L2.17649 1.56731Z" fill="#F8F9FA"/>
</svg>
