<svg
    width="32"
    height="32"
    viewBox="0 0 32 32"
    fill="none"
    xmlns="http://www.w3.org/2000/svg"
>
    <path
        d="M27.7358 15.3055C27.7357 15.2415 27.7337 15.1774 27.7273 15.1139C27.6989 14.8318 27.6711 14.5496 27.6377 14.2679C27.6164 14.0875 27.5935 13.9065 27.5575 13.7286C27.5011 13.45 27.4398 13.1718 27.368 12.8967C27.2925 12.6082 27.2133 12.3197 27.1155 12.0382C27.0087 11.7308 26.881 11.4305 26.758 11.1288C26.5578 10.6373 26.3059 10.1718 26.032 9.71849C25.6428 9.07425 25.1942 8.47296 24.6896 7.91475C24.1224 7.28729 23.4958 6.72538 22.8096 6.23101C22.3137 5.87356 21.7954 5.55109 21.2467 5.28136C20.944 5.1325 20.6355 4.99458 20.3238 4.86561C20.0582 4.75571 19.7858 4.66201 19.5139 4.56817C19.352 4.51229 19.1858 4.46807 19.0204 4.42229C18.8624 4.3785 18.7036 4.33712 18.5441 4.2993C18.4205 4.27001 18.2956 4.24698 18.171 4.22266C18.0116 4.19153 17.8528 4.15498 17.6921 4.13308C17.4535 4.10052 17.2141 4.06996 16.9741 4.05404C16.5824 4.02802 16.1895 3.99417 15.7977 4.00086C15.3279 4.00896 14.8585 4.05446 14.3893 4.0873C14.274 4.09541 14.159 4.11332 14.0451 4.1338C13.8368 4.17119 13.6285 4.20958 13.4219 4.25508C13.1651 4.31167 12.9075 4.36769 12.6546 4.43935C12.3887 4.51485 12.1241 4.59817 11.866 4.69685C11.4946 4.83889 11.1201 4.97851 10.7645 5.15454C10.3284 5.37023 9.90017 5.60597 9.48684 5.86247C8.82753 6.27182 8.22425 6.75766 7.66333 7.29469C7.32693 7.61687 7.01085 7.95868 6.71426 8.31798C6.1114 9.04852 5.59982 9.83878 5.19033 10.6926C5.03564 11.0152 4.89942 11.3473 4.77061 11.6812C4.65942 11.9695 4.56614 12.2651 4.47387 12.5603C4.41714 12.7417 4.37534 12.9281 4.33026 13.1131C4.28747 13.2889 4.24467 13.4647 4.21026 13.6423C4.17756 13.8111 4.14926 13.9814 4.13049 14.1523C4.08827 14.5399 4.04049 14.9277 4.0176 15.3167C3.97935 15.9702 4.00395 16.6231 4.08642 17.273C4.11229 17.4766 4.13263 17.6813 4.16917 17.8831C4.21538 18.1376 4.27182 18.3904 4.3314 18.6421C4.38159 18.8545 4.43662 19.0662 4.5006 19.2748C4.5879 19.5593 4.67036 19.8468 4.78283 20.1215C4.94506 20.5179 5.12393 20.9081 5.31119 21.2934C5.58304 21.8523 5.9176 22.3737 6.2833 22.8765C6.64217 23.3698 7.03715 23.8312 7.46669 24.2635C8.04538 24.8457 8.67867 25.3615 9.36499 25.8124C9.94211 26.1913 10.5464 26.5192 11.1807 26.7913C11.6576 26.9958 12.1433 27.1759 12.6459 27.3075C12.8934 27.3722 13.1394 27.4452 13.3898 27.4964C13.7177 27.5634 14.0482 27.6183 14.3795 27.6669C14.578 27.6959 14.7798 27.7023 14.98 27.7208C15.0263 27.7251 15.0721 27.7366 15.1182 27.7447H16.6387C16.6893 27.7363 16.7398 27.7255 16.7907 27.7199C17.0513 27.6924 17.3135 27.6757 17.5724 27.6368C17.8585 27.5938 18.1427 27.5351 18.4259 27.475C18.674 27.4224 18.9226 27.3682 19.1656 27.2964C19.4617 27.2091 19.7546 27.1088 20.0448 27.0028C20.4715 26.8468 20.8873 26.6635 21.2892 26.4514C21.5288 26.325 21.7647 26.1908 21.9987 26.054C22.5167 25.7513 23.0057 25.4046 23.4608 25.0152C23.8029 24.7223 24.1276 24.4081 24.4481 24.0911C24.7912 23.7517 25.0972 23.3782 25.3853 22.9906C25.8074 22.4226 26.1873 21.828 26.4931 21.1884C26.6281 20.9061 26.7654 20.6238 26.8812 20.3334C27.0145 19.9987 27.1303 19.6566 27.2439 19.3143C27.3059 19.1274 27.3487 18.934 27.3974 18.7429C27.4247 18.6357 27.4475 18.5273 27.4702 18.4191C27.5112 18.2235 27.5565 18.0284 27.5892 17.8312C27.6232 17.6265 27.649 17.42 27.67 17.2134C27.6966 16.9546 27.7262 16.6953 27.7336 16.4355C27.7442 16.0592 27.7365 15.6821 27.7358 15.3055ZM15.8744 25.4463C10.5966 25.4436 6.30875 21.173 6.30448 15.8696C6.31188 10.6078 10.542 6.30523 15.8712 6.29769C21.1421 6.29044 25.4394 10.5608 25.4438 15.8691C25.4481 21.159 21.1503 25.449 15.8744 25.4463Z"
        fill="currentColor"
    />
    <path
        d="M22.6739 13.2194C22.6079 13.3119 22.5314 13.398 22.4508 13.4785C21.9823 13.9468 21.5118 14.4132 21.0412 14.8794C20.6068 15.3098 20.1708 15.7384 19.7368 16.1692C19.366 16.5373 18.9977 16.908 18.6274 17.2765C18.2534 17.6486 17.8782 18.0194 17.5037 18.3909C17.0761 18.8149 16.6486 19.2392 16.2213 19.6635C15.8407 20.0414 15.4609 20.4202 15.0799 20.7977C14.8254 21.0499 14.5701 21.3014 14.3135 21.5514C14.0898 21.7694 13.7448 21.7712 13.5211 21.5521C13.2757 21.3118 13.0354 21.0664 12.7931 20.8229C12.4247 20.4525 12.0558 20.0825 11.6884 19.711C11.342 19.3611 10.9979 19.0089 10.6518 18.6587C10.3234 18.3265 9.99339 17.9958 9.6641 17.6642C9.49433 17.4932 9.32229 17.3244 9.15593 17.15C8.93356 16.9169 8.94251 16.565 9.16986 16.3394C9.52134 15.9906 9.87253 15.6415 10.2226 15.2915C10.3388 15.1753 10.477 15.1 10.6396 15.0953C10.8154 15.0903 10.9672 15.1598 11.0932 15.2875C11.61 15.8113 12.1291 16.3328 12.6468 16.8558C13.0557 17.2688 13.4644 17.682 13.8716 18.0968C13.9152 18.1411 13.9411 18.1441 13.9879 18.0973C14.5556 17.5314 15.1262 16.9684 15.695 16.4035C16.2425 15.8595 16.7881 15.3135 17.336 14.77C17.8006 14.309 18.2683 13.851 18.7329 13.3901C19.3835 12.7444 20.0331 12.0979 20.6821 11.4507C20.9206 11.2127 21.2849 11.2111 21.5252 11.4578C21.8626 11.804 22.2064 12.144 22.5488 12.4855C22.5828 12.5193 22.5836 12.5432 22.5501 12.5763C22.332 12.7909 22.1147 13.0063 21.8976 13.2217C21.8771 13.2421 21.8586 13.2644 21.8363 13.289C22.0125 13.2128 22.1781 13.1364 22.3477 13.0701C22.4161 13.0434 22.4928 13.0353 22.5666 13.0254C22.6153 13.0188 22.6769 13.0198 22.6911 13.0767C22.7022 13.121 22.6989 13.1845 22.6739 13.2194Z"
        fill="currentColor"
    />
</svg>