<svg width="40" height="40" viewBox="0 0 40 40" fill="none" xmlns="http://www.w3.org/2000/svg">
<g id="credit-card">
<path id="Vector" d="M33.3333 8.3335H6.66659C4.82564 8.3335 3.33325 9.82588 3.33325 11.6668V28.3335C3.33325 30.1744 4.82564 31.6668 6.66659 31.6668H33.3333C35.1742 31.6668 36.6666 30.1744 36.6666 28.3335V11.6668C36.6666 9.82588 35.1742 8.3335 33.3333 8.3335Z" stroke="currentColor" stroke-width="2" stroke-linecap="round" stroke-linejoin="round"/>
<path id="Vector_2" d="M3.33325 16.6665H36.6666" stroke="currentColor" stroke-width="2" stroke-linecap="round" stroke-linejoin="round"/>
<g id="ATM">
<path d="M10.6514 26.9998H9.24512L11.8055 19.7271H13.4319L15.9958 26.9998H14.5896L12.6471 21.2185H12.5903L10.6514 26.9998ZM10.6975 24.1482H14.5328V25.2065H10.6975V24.1482Z" fill="currentColor"/>
<path d="M15.7552 20.8315V19.7271H21.5578V20.8315H19.3099V26.9998H18.0031V20.8315H15.7552Z" fill="currentColor"/>
<path d="M22.6764 19.7271H24.2886L26.4477 24.9969H26.5329L28.692 19.7271H30.3042V26.9998H29.04V22.0033H28.9726L26.9626 26.9785H26.018L24.0081 21.9927H23.9406V26.9998H22.6764V19.7271Z" fill="currentColor"/>
</g>
</g>
</svg>
