<svg width="32" height="32" viewBox="0 0 32 32" fill="none" xmlns="http://www.w3.org/2000/svg">
<path d="M28.0001 7.81622V9.96075C27.9841 9.99988 27.9664 10.0386 27.9524 10.0785C27.8598 10.34 27.5838 10.543 27.3007 10.556C27.2646 10.5576 27.2283 10.5577 27.1922 10.5577C21.7314 10.5577 16.2708 10.5574 10.81 10.5589C10.5595 10.559 10.346 10.4857 10.1806 10.2977C10.0682 10.17 10.0026 10.0198 10.0022 9.84804C10.001 9.20699 9.99643 8.56569 10.0041 7.92464C10.0077 7.63093 10.1663 7.42066 10.4284 7.28965C10.5442 7.23184 10.671 7.21354 10.802 7.21354C16.2691 7.21442 21.7363 7.21417 27.2034 7.21455C27.5408 7.21455 27.7922 7.35679 27.9393 7.66274C27.9632 7.71222 27.9801 7.76498 28.0001 7.81622Z" fill="#F8F9FA"/>
<path d="M28.0001 22.6417V24.7863C27.9841 24.8255 27.9664 24.8641 27.9524 24.904C27.8598 25.1655 27.5838 25.3685 27.3007 25.3815C27.2646 25.3833 27.2283 25.3833 27.1922 25.3833C21.7314 25.3833 16.2706 25.3829 10.81 25.3844C10.5595 25.3845 10.3459 25.3112 10.1806 25.1233C10.0682 24.9957 10.0026 24.8453 10.0022 24.6736C10.001 24.0325 9.99643 23.3912 10.0041 22.7502C10.0077 22.4565 10.1663 22.2462 10.4284 22.1153C10.5442 22.0574 10.671 22.0391 10.8021 22.0391C16.2691 22.0399 21.7363 22.0397 27.2034 22.0401C27.5408 22.0401 27.7922 22.1823 27.9393 22.4883C27.9632 22.5377 27.9801 22.5905 28.0001 22.6417Z" fill="#F8F9FA"/>
<path d="M27.9996 15.2351V17.3669C27.984 17.4069 27.9684 17.4469 27.9527 17.4869C27.8618 17.7174 27.6984 17.8731 27.4555 17.9352C27.3651 17.9583 27.2679 17.9634 27.1738 17.9634C23.6656 17.9647 20.1574 17.9645 16.6493 17.9645C14.7006 17.9645 12.7518 17.9634 10.8031 17.9661C10.588 17.9664 10.3977 17.9175 10.2397 17.7704C10.089 17.6301 10.002 17.4589 10.0016 17.2516C10.0004 16.6189 10.002 15.9861 10.0007 15.3532C10.0001 14.9842 10.3135 14.66 10.6673 14.6372C10.7331 14.633 10.799 14.6284 10.8648 14.6284C16.2982 14.628 21.7318 14.6281 27.1652 14.6276C27.362 14.6276 27.5477 14.6575 27.7072 14.7825C27.8435 14.8892 27.9384 15.0218 27.9769 15.1914C27.9804 15.2068 27.9919 15.2206 27.9996 15.2351Z" fill="#F8F9FA"/>
<path d="M8.5077 17.7536C8.50719 18.1048 8.31344 18.3749 7.98137 18.4898C7.92032 18.5109 7.85288 18.5244 7.78851 18.5245C6.76522 18.5267 5.74194 18.5298 4.71865 18.5238C4.39731 18.5219 4.09436 18.2779 4.0282 17.9629C4.01376 17.8941 4.00534 17.8229 4.00496 17.7527C4.00304 17.2672 4.00394 16.7815 4.00394 16.296C4.00394 15.8104 4.0093 15.3204 4.00228 14.8327C3.99704 14.4702 4.24417 14.1825 4.55338 14.0989C4.62222 14.0804 4.69591 14.072 4.76743 14.0719C5.75879 14.0701 6.75015 14.0698 7.74151 14.0712C8.10398 14.0718 8.39798 14.2997 8.48624 14.6461C8.5022 14.7085 8.50719 14.7751 8.50732 14.8398C8.50859 15.811 8.50911 16.7824 8.5077 17.7536Z" fill="#F8F9FA"/>
<path d="M8.50364 10.3468C8.50275 10.6383 8.37976 10.8689 8.11819 11.0173C8.02278 11.0714 7.92099 11.108 7.80937 11.1096C7.669 11.1114 7.52863 11.1123 7.38839 11.1123C6.52271 11.1126 5.65704 11.1108 4.79149 11.1137C4.5819 11.1144 4.39606 11.0596 4.24242 10.9185C4.08762 10.7765 4.00064 10.6007 4.00064 10.3881C4.00064 9.38759 4.00166 8.38721 4 7.38682C3.99949 7.08681 4.21687 6.80901 4.47295 6.71586C4.57666 6.67813 4.68037 6.66676 4.78778 6.66676C5.2749 6.66664 5.76189 6.66676 6.24901 6.66676V6.66803C6.75937 6.66803 7.26988 6.66412 7.78024 6.66954C8.06978 6.67257 8.2786 6.81633 8.41704 7.0651C8.48014 7.17844 8.50402 7.301 8.50415 7.42759C8.5053 8.40071 8.50671 9.37371 8.50364 10.3468Z" fill="#F8F9FA"/>
<path d="M8.51312 25.1709C8.51236 25.5005 8.3352 25.7725 8.00147 25.8969C7.94719 25.9171 7.88577 25.9272 7.82765 25.9273C6.78125 25.9291 5.73484 25.9312 4.68856 25.9267C4.4298 25.9257 4.1653 25.7332 4.05993 25.467C4.02277 25.373 4.0082 25.2757 4.00846 25.1737C4.01025 24.1964 4.01255 23.2191 4.00782 22.2418C4.00616 21.896 4.2183 21.6268 4.51371 21.5241C4.60069 21.4939 4.70006 21.4896 4.79393 21.489C5.2831 21.4857 5.77225 21.4875 6.26142 21.4875V21.4888C6.77179 21.4888 7.28229 21.4847 7.79265 21.4904C8.07977 21.4936 8.2868 21.6382 8.42512 21.8831C8.48872 21.9957 8.51299 22.1187 8.51312 22.2454C8.51414 23.2205 8.51491 24.1958 8.51312 25.1709Z" fill="#F8F9FA"/>
</svg>
