<svg xmlns="http://www.w3.org/2000/svg" width="24" height="24" fill="none" viewBox="0 0 24 24">
  <path stroke="#fff" stroke-linecap="round" stroke-linejoin="round" stroke-width="2" d="M4 22a2 2 0 0 1-2-2v-9c0-1.1.9-2 2-2h2M4 22h16a2 2 0 0 0 2-2V4a2 2 0 0 0-2-2H8a2 2 0 0 0-2 2v16a2 2 0 0 1-2 2Z"/>
  <path stroke="#000" stroke-linecap="round" stroke-linejoin="round" stroke-opacity=".04" stroke-width="2" d="M4 22a2 2 0 0 1-2-2v-9c0-1.1.9-2 2-2h2M4 22h16a2 2 0 0 0 2-2V4a2 2 0 0 0-2-2H8a2 2 0 0 0-2 2v16a2 2 0 0 1-2 2Z"/>
  <path stroke="#fff" stroke-linecap="round" stroke-linejoin="round" stroke-width="2" d="M18 14h-8"/>
  <path stroke="#000" stroke-linecap="round" stroke-linejoin="round" stroke-opacity=".04" stroke-width="2" d="M18 14h-8"/>
  <path stroke="#fff" stroke-linecap="round" stroke-linejoin="round" stroke-width="2" d="M15 18h-5"/>
  <path stroke="#000" stroke-linecap="round" stroke-linejoin="round" stroke-opacity=".04" stroke-width="2" d="M15 18h-5"/>
  <path stroke="#fff" stroke-linecap="round" stroke-linejoin="round" stroke-width="2" d="M10 6h8v4h-8V6Z"/>
  <path stroke="#000" stroke-linecap="round" stroke-linejoin="round" stroke-opacity=".04" stroke-width="2" d="M10 6h8v4h-8V6Z"/>
</svg>
