<svg width="48" height="48" viewBox="0 0 48 48" fill="none" xmlns="http://www.w3.org/2000/svg">
<g id="Item/Cash" clip-path="url(#clip0_1180_514)">
<g id="Group 16673">
<g id="Group 16672">
<path id="Vector" d="M16.8311 30.2179L20.2123 26.8367C20.571 26.478 20.7726 25.9915 20.7726 25.4843C20.7726 24.977 20.571 24.4905 20.2123 24.1318V24.1318C19.8536 23.7731 19.3671 23.5716 18.8599 23.5716C18.3526 23.5716 17.8661 23.7731 17.5074 24.1318V24.1318" stroke="currentColor" stroke-width="2" stroke-linecap="round" stroke-linejoin="round"/>
<path id="Vector_2" d="M14.8016 26.8375L18.8591 22.7801C19.2178 22.4214 19.4193 21.9349 19.4193 21.4276C19.4193 20.9203 19.2178 20.4338 18.8591 20.0751C18.5004 19.7164 18.0139 19.5149 17.5066 19.5149C16.9993 19.5149 16.5128 19.7164 16.1541 20.0751L14.8016 21.4276" stroke="currentColor" stroke-width="2" stroke-linecap="round" stroke-linejoin="round"/>
<path id="Vector_3" d="M11.7591 24.4726L14.8022 21.4295C15.1609 21.0708 15.3624 20.5843 15.3624 20.077C15.3624 19.5697 15.1609 19.0832 14.8022 18.7245V18.7245C14.4435 18.3658 13.957 18.1643 13.4497 18.1643C12.9424 18.1643 12.4559 18.3658 12.0972 18.7245L6.68733 24.1345" stroke="currentColor" stroke-width="2" stroke-linecap="round" stroke-linejoin="round"/>
<path id="Vector_4" d="M18.8586 28.1924C19.2173 27.8337 19.7038 27.6322 20.211 27.6322C20.7183 27.6322 21.2048 27.8337 21.5635 28.1924C21.9222 28.5511 22.1237 29.0376 22.1237 29.5449C22.1237 30.0522 21.9222 30.5387 21.5635 30.8974L17.5061 34.9548C16.0713 36.3896 14.1253 37.1957 12.0962 37.1957C10.0671 37.1957 8.12106 36.3896 6.68626 34.9548L5.33379 33.6023C3.44032 31.7089 2.87228 29.9777 2.86552 27.9693L2.86552 23.1003C2.89053 22.61 3.10316 22.148 3.45938 21.8101C3.8156 21.4722 4.28812 21.2842 4.77911 21.2851C5.2701 21.286 5.74195 21.4756 6.09697 21.8148C6.45199 22.154 6.66298 22.6167 6.68626 23.1071V25.4875" stroke="currentColor" stroke-width="2" stroke-linecap="round" stroke-linejoin="round"/>
</g>
<path id="Vector_5" d="M27.9761 26.2142H42.3213C43.9058 26.2142 45.1904 24.9297 45.1904 23.3452V11.869C45.1904 10.2845 43.9058 9 42.3213 9H19.369C17.7845 9 16.5 10.2845 16.5 11.869L16.5 14.7381" stroke="currentColor" stroke-width="2" stroke-linecap="round" stroke-linejoin="round"/>
<path id="Vector_6" d="M30.8446 20.4744C32.4291 20.4744 33.7137 19.1899 33.7137 17.6054C33.7137 16.0208 32.4291 14.7363 30.8446 14.7363C29.2601 14.7363 27.9756 16.0208 27.9756 17.6054C27.9756 19.1899 29.2601 20.4744 30.8446 20.4744Z" stroke="currentColor" stroke-width="2" stroke-linecap="round" stroke-linejoin="round"/>
<path id="Vector_7" d="M22.2393 17.6074H22.2536M39.4535 17.6074H39.4678" stroke="currentColor" stroke-width="2" stroke-linecap="round" stroke-linejoin="round"/>
</g>
</g>
<defs>
<clipPath id="clip0_1180_514">
<rect width="48" height="48" fill="white"/>
</clipPath>
</defs>
</svg>
