<svg width="30" height="30" viewBox="0 0 30 30" fill="none" xmlns="http://www.w3.org/2000/svg">
<path d="M25.5251 5.72507C24.898 5.09579 24.1529 4.59649 23.3324 4.2558C22.5119 3.91512 21.6323 3.73975 20.7439 3.73975C19.8555 3.73975 18.9758 3.91512 18.1553 4.2558C17.3349 4.59649 16.5897 5.09579 15.9626 5.72507L15.0001 6.70007L14.0376 5.72507C13.4105 5.09579 12.6654 4.59649 11.8449 4.2558C11.0244 3.91512 10.1448 3.73975 9.25636 3.73975C8.36796 3.73975 7.48831 3.91512 6.66783 4.2558C5.84736 4.59649 5.10221 5.09579 4.47511 5.72507C1.82511 8.37507 1.66261 12.8501 5.00011 16.2501L15.0001 26.2501L25.0001 16.2501C28.3376 12.8501 28.1751 8.37507 25.5251 5.72507Z" stroke="currentColor" stroke-width="2" stroke-linecap="round" stroke-linejoin="round"/>
<path d="M15.0001 6.7002L11.0876 10.6252C10.593 11.1239 10.3154 11.7978 10.3154 12.5002C10.3154 13.2026 10.593 13.8765 11.0876 14.3752V14.3752C11.5863 14.8698 12.2602 15.1474 12.9626 15.1474C13.665 15.1474 14.3389 14.8698 14.8376 14.3752L17.6626 11.6127C18.3647 10.918 19.3125 10.5284 20.3001 10.5284C21.2878 10.5284 22.2355 10.918 22.9376 11.6127L25.9376 14.6127" stroke="currentColor" stroke-width="2" stroke-linecap="round" stroke-linejoin="round"/>
<path d="M22.5 18.75L20 16.25" stroke="currentColor" stroke-width="2" stroke-linecap="round" stroke-linejoin="round"/>
<path d="M18.75 22.5L16.25 20" stroke="currentColor" stroke-width="2" stroke-linecap="round" stroke-linejoin="round"/>
</svg>
