<svg width="32" height="32" viewBox="0 0 32 32" fill="none" xmlns="http://www.w3.org/2000/svg">
<path d="M27.9635 15.4249C27.8552 15.1472 27.662 15.0075 27.3926 14.992C27.3629 14.9903 27.333 14.9913 27.3032 14.9913H17.0224C16.8907 14.9913 16.9068 15.0005 16.9066 14.8612C16.9061 14.386 16.9064 13.911 16.9064 13.4359V13.3316H16.9904C17.8714 13.3316 18.7523 13.3332 19.6332 13.3308C19.964 13.3299 20.2394 13.1818 20.4692 12.9213C20.6183 12.7522 20.7166 12.5513 20.7705 12.3242C20.7886 12.2479 20.8 12.1672 20.8 12.0883C20.8017 10.2519 20.8045 8.41534 20.7986 6.57893C20.7974 6.21835 20.6453 5.91904 20.4076 5.67704C20.2433 5.5098 20.0533 5.39376 19.829 5.35972C19.7416 5.34639 19.653 5.33475 19.5649 5.33475C17.1796 5.33334 14.7943 5.33405 12.4088 5.33334C11.9824 5.33319 11.6522 5.53604 11.4073 5.91606C11.3112 6.06515 11.2428 6.23083 11.2236 6.41637C11.2146 6.5046 11.202 6.59326 11.2019 6.68163C11.2006 8.45903 11.1994 10.2363 11.2022 12.0138C11.2029 12.4977 11.4029 12.8651 11.765 13.1286C11.9597 13.2704 12.1728 13.3326 12.4047 13.3322C13.2728 13.3305 14.141 13.3315 15.0091 13.3315H15.0907C15.0922 13.3674 15.0948 13.3972 15.0948 13.4271C15.095 13.9141 15.095 14.4009 15.095 14.8879C15.095 14.991 15.0948 14.9912 14.999 14.9912C11.5541 14.9912 8.10911 14.9914 4.66396 14.9904C4.43954 14.9903 4.2483 15.0648 4.11477 15.2727C4.07417 15.3359 4.05324 15.4146 4.02247 15.4856C4.01749 15.497 4.00766 15.5058 4 15.5157V16.483C4.01213 16.5134 4.02464 16.5436 4.03638 16.5741C4.14438 16.852 4.33741 16.9913 4.60702 17.0052C4.63473 17.0066 4.66243 17.0056 4.69 17.0056H8.39596C8.45902 17.0056 8.49059 17.0403 8.49068 17.1097C8.49068 17.5961 8.49068 18.0825 8.49042 18.5689C8.49042 18.5989 8.488 18.6288 8.48647 18.6654H8.39954C7.73341 18.6654 7.06702 18.6665 6.4009 18.665C5.97426 18.664 5.64375 18.8655 5.398 19.2457C5.30136 19.3951 5.23256 19.56 5.2129 19.7453C5.20243 19.8452 5.19068 19.9459 5.19056 20.046C5.18928 21.8192 5.18685 23.5922 5.19158 25.3652C5.19286 25.8398 5.3957 26.2007 5.75149 26.4603C5.95038 26.6052 6.16728 26.6661 6.40345 26.666C8.40438 26.6645 10.4053 26.6665 12.4061 26.664C12.8423 26.6634 13.1726 26.4401 13.4103 26.0384C13.5369 25.8244 13.5936 25.5902 13.5935 25.3351C13.5927 23.5549 13.594 21.7748 13.5925 19.9947C13.5921 19.5047 13.3931 19.1334 13.0271 18.8667C12.902 18.7756 12.7678 18.7116 12.6189 18.6912C12.5333 18.6796 12.447 18.667 12.3609 18.6667C11.7011 18.6647 11.0412 18.6655 10.3813 18.6655H10.3006C10.2991 18.6336 10.2968 18.6085 10.2968 18.5834C10.2967 18.0868 10.298 17.5904 10.2953 17.094C10.2949 17.0218 10.3138 17.0026 10.3781 17.0026C14.1224 17.0043 17.8665 17.0042 21.6108 17.0029C21.6701 17.0029 21.6923 17.0188 21.6921 17.0891C21.6897 17.588 21.6908 18.0868 21.6907 18.5857C21.6907 18.6088 21.6886 18.6319 21.6871 18.6655H21.61C20.9417 18.6655 20.2733 18.6664 19.6049 18.6652C19.1811 18.6645 18.8518 18.8643 18.6068 19.2422C18.5086 19.3935 18.4387 19.5599 18.4186 19.7477C18.4089 19.8382 18.3968 19.9294 18.3967 20.0202C18.3954 21.7979 18.3937 23.5757 18.3972 25.3534C18.3981 25.8344 18.5994 26.1994 18.9593 26.4617C19.1542 26.6037 19.367 26.666 19.599 26.6658C21.602 26.6648 23.6051 26.6631 25.608 26.6667C26.1369 26.6675 26.5924 26.2645 26.7423 25.748C26.7779 25.6252 26.7965 25.4904 26.7967 25.3612C26.8001 23.5645 26.8015 21.7678 26.7974 19.9711C26.7963 19.4932 26.594 19.1305 26.2363 18.8697C26.0394 18.7262 25.8244 18.6641 25.5906 18.6648C24.9243 18.6668 24.258 18.6655 23.5918 18.6655H23.5069C23.5054 18.6329 23.5031 18.6034 23.5029 18.5739C23.5028 18.0845 23.5028 17.5953 23.5028 17.1059C23.5028 17.0382 23.5328 17.0043 23.5927 17.0042C24.8466 17.004 26.1002 17.0037 27.354 17.0045C27.5721 17.0045 27.7563 16.925 27.8854 16.724C27.9258 16.6609 27.9468 16.5822 27.9775 16.511C27.9825 16.4996 27.9923 16.4908 28 16.4809V15.5163C27.9879 15.4861 27.9755 15.4559 27.9636 15.4254L27.9635 15.4249ZM11.1999 21.3321V23.9847H7.61264V21.3321H11.1999ZM13.6126 10.6648V8.0122H18.3999V10.6648H13.6126ZM24.3999 21.3321V23.9847H20.8126V21.3321H24.3999Z" fill="#F8F9FA"/>
</svg>
