<svg xmlns="http://www.w3.org/2000/svg" width="24" height="24" fill="none" viewBox="0 0 24 24">
  <path stroke="#fff" stroke-linecap="round" stroke-linejoin="round" stroke-width="2" d="M19 11H5a2 2 0 0 0-2 2v7a2 2 0 0 0 2 2h14a2 2 0 0 0 2-2v-7a2 2 0 0 0-2-2Z"/>
  <path stroke="#000" stroke-linecap="round" stroke-linejoin="round" stroke-opacity=".04" stroke-width="2" d="M19 11H5a2 2 0 0 0-2 2v7a2 2 0 0 0 2 2h14a2 2 0 0 0 2-2v-7a2 2 0 0 0-2-2Z"/>
  <path stroke="#fff" stroke-linecap="round" stroke-linejoin="round" stroke-width="2" d="M7 11V7a5 5 0 1 1 10 0v4"/>
  <path stroke="#000" stroke-linecap="round" stroke-linejoin="round" stroke-opacity=".04" stroke-width="2" d="M7 11V7a5 5 0 1 1 10 0v4"/>
</svg>
