<svg width="32" height="32" viewBox="0 0 32 32" fill="none" xmlns="http://www.w3.org/2000/svg">
<path d="M28.2667 11.2C28.9334 11.7066 29.3334 12.4933 29.3334 13.3333V26.6666C29.3334 27.3739 29.0525 28.0521 28.5524 28.5522C28.0523 29.0523 27.374 29.3333 26.6667 29.3333H5.33341C4.62617 29.3333 3.94789 29.0523 3.4478 28.5522C2.9477 28.0521 2.66675 27.3739 2.66675 26.6666V13.3333C2.66675 12.9193 2.76313 12.511 2.94828 12.1407C3.13342 11.7704 3.40223 11.4484 3.73341 11.2L14.4001 3.19996C14.8617 2.85377 15.4231 2.66663 16.0001 2.66663C16.5771 2.66663 17.1385 2.85377 17.6001 3.19996L28.2667 11.2V11.2Z" stroke="currentColor" stroke-width="2" stroke-linecap="round" stroke-linejoin="round"/>
<path d="M29.3334 13.3334L17.3734 20.9334C16.9618 21.1913 16.4858 21.3281 16.0001 21.3281C15.5143 21.3281 15.0384 21.1913 14.6267 20.9334L2.66675 13.3334" stroke="currentColor" stroke-width="2" stroke-linecap="round" stroke-linejoin="round"/>
</svg>
