<svg width="32" height="32" viewBox="0 0 32 32" fill="none" xmlns="http://www.w3.org/2000/svg">
<path d="M28.2089 14.4402C28.187 14.3348 28.2049 14.2269 28.1734 14.1169C28.14 13.9998 28.1496 13.8696 28.1171 13.7468C28.0876 13.6353 28.0761 13.5191 28.0565 13.405C28.0556 13.4004 28.0533 13.396 28.052 13.3913C28.0248 13.291 27.9974 13.1906 27.9701 13.0901C27.9494 13.0134 27.929 12.9366 27.908 12.8598C27.8947 12.8114 27.8836 12.7621 27.8656 12.7154C27.8411 12.6516 27.8098 12.5908 27.7837 12.5276C27.7636 12.4788 27.7462 12.4287 27.7295 12.3787C27.7086 12.3158 27.6923 12.2512 27.6691 12.1894C27.6438 12.1217 27.6135 12.056 27.5841 11.9899C27.5608 11.9379 27.5358 11.8866 27.5104 11.8354C27.4737 11.7614 27.4337 11.689 27.3988 11.614C27.3609 11.5324 27.3293 11.4479 27.291 11.3666C27.2735 11.3293 27.2456 11.2971 27.2242 11.2615C27.1856 11.1969 27.1477 11.132 27.1109 11.0664C27.0849 11.0201 27.063 10.9715 27.0363 10.9258C26.9984 10.8609 26.9575 10.7979 26.9185 10.7336C26.8809 10.6713 26.8482 10.6057 26.8062 10.5466C26.7529 10.471 26.6894 10.4028 26.6359 10.3273C26.5787 10.2467 26.534 10.1567 26.4733 10.079C26.3891 9.97113 26.2946 9.87121 26.2052 9.76725C26.1091 9.65564 26.0155 9.54145 25.9173 9.43157C25.815 9.31723 25.7102 9.20519 25.6034 9.09517C25.5043 8.99323 25.4024 8.89402 25.2996 8.79583C25.1904 8.69144 25.0794 8.58935 24.9684 8.48712C24.9156 8.43839 24.8614 8.39123 24.8067 8.34452C24.7521 8.2978 24.6976 8.2505 24.6403 8.20696C24.5431 8.13328 24.4429 8.06363 24.3459 7.9898C24.2548 7.92045 24.1688 7.84388 24.0757 7.7777C23.9952 7.72046 23.9055 7.67648 23.8238 7.62096C23.7152 7.54743 23.6122 7.46553 23.5028 7.39315C23.4395 7.35119 23.3664 7.32437 23.3012 7.285C23.2085 7.2292 23.1193 7.16763 23.028 7.10952C22.9977 7.0902 22.966 7.07333 22.9344 7.05632C22.8562 7.01421 22.778 6.97225 22.6994 6.93087C22.6283 6.89352 22.5578 6.85488 22.4851 6.8207C22.4052 6.78322 22.3217 6.75323 22.2424 6.71473C22.1563 6.67306 22.075 6.62144 21.9882 6.58135C21.9024 6.54185 21.8126 6.51128 21.7245 6.4771C21.6792 6.45951 21.6324 6.44538 21.5884 6.42505C21.5343 6.39996 21.4847 6.36405 21.4293 6.34329C21.3265 6.30494 21.2204 6.27524 21.1166 6.23948C21.0644 6.2216 21.0142 6.19853 20.963 6.17791C20.9002 6.15267 20.8379 6.12542 20.7738 6.10293C20.7042 6.07856 20.6325 6.0601 20.5625 6.03646C20.4911 6.01238 20.4217 5.98108 20.3493 5.96032C20.2725 5.93811 20.1933 5.92471 20.1152 5.90726C20.1083 5.90568 20.1016 5.90323 20.095 5.90092C20.0124 5.87266 19.931 5.83949 19.8468 5.81728C19.7527 5.79248 19.6558 5.77763 19.5603 5.75816C19.551 5.75629 19.5422 5.75182 19.5329 5.74923C19.4415 5.72327 19.3514 5.69184 19.2585 5.67309C19.1415 5.64959 19.0222 5.63647 18.9038 5.61873C18.8992 5.61801 18.8949 5.61556 18.8901 5.61441C18.7738 5.58615 18.6583 5.55284 18.5406 5.53135C18.4532 5.51549 18.3653 5.51722 18.2762 5.49127C18.1624 5.45796 18.0384 5.47642 17.9179 5.44383C17.7768 5.40576 17.626 5.40143 17.4788 5.38932C17.2562 5.37115 17.0302 5.39682 16.8103 5.34059C16.2248 5.35616 15.6381 5.29647 15.0532 5.37476C14.855 5.40129 14.6535 5.37087 14.4534 5.41975C14.2866 5.46056 14.1101 5.46113 13.9379 5.4806C13.795 5.49675 13.6523 5.51434 13.5095 5.53164C13.5003 5.53279 13.4916 5.53871 13.4823 5.54087C13.3591 5.5687 13.2363 5.59884 13.1124 5.62306C13.0044 5.64411 12.895 5.6581 12.7862 5.67569C12.7793 5.67684 12.7733 5.68189 12.7664 5.68377C12.6648 5.71116 12.5636 5.73985 12.4617 5.76508C12.3763 5.78628 12.2898 5.80229 12.2043 5.82276C12.1453 5.83675 12.0866 5.85232 12.029 5.87107C11.9489 5.89702 11.8709 5.92961 11.7903 5.95383C11.7161 5.97618 11.6372 5.98469 11.5648 6.01136C11.4704 6.04611 11.3823 6.09903 11.278 6.1035C11.2712 6.10379 11.2646 6.1074 11.2583 6.11014C11.1911 6.1384 11.1249 6.16954 11.0564 6.19434C10.9937 6.21698 10.9281 6.23155 10.8645 6.25216C10.8212 6.2663 10.7785 6.28258 10.7372 6.30162C10.6472 6.343 10.5597 6.3903 10.4684 6.42851C10.3749 6.46759 10.2776 6.49743 10.183 6.53405C10.1422 6.54992 10.1039 6.57227 10.0648 6.59231C10.012 6.61913 9.96068 6.64897 9.90676 6.6732C9.82327 6.71098 9.7356 6.74011 9.65428 6.78178C9.5545 6.83282 9.46063 6.8954 9.36186 6.9486C9.2256 7.022 9.084 7.08602 8.95048 7.16388C8.80572 7.24809 8.66773 7.34354 8.52656 7.43395C8.50061 7.45053 8.47422 7.4664 8.44784 7.48226C8.38252 7.52162 8.31489 7.55767 8.25231 7.60107C8.17748 7.65283 8.10884 7.71354 8.03401 7.7653C7.95124 7.8224 7.8604 7.8684 7.78038 7.92881C7.67108 8.01143 7.56943 8.10386 7.46316 8.19052C7.3468 8.28568 7.22596 8.37566 7.11234 8.474C7.00492 8.56715 6.90399 8.66794 6.80075 8.76599C6.67876 8.88177 6.55447 8.9954 6.43666 9.11522C6.33429 9.21932 6.23883 9.33021 6.14179 9.43936C6.03293 9.56178 5.92478 9.68463 5.81866 9.8095C5.77828 9.85708 5.75204 9.91865 5.70648 9.95931C5.61059 10.0448 5.55306 10.1574 5.47736 10.2569C5.45544 10.2856 5.43886 10.3183 5.41723 10.347C5.36287 10.4193 5.3026 10.4873 5.253 10.5626C5.20945 10.6285 5.17932 10.7032 5.13938 10.7717C5.09554 10.8469 5.04609 10.919 5.0011 10.9936C4.98192 11.0255 4.96981 11.0614 4.95077 11.0932C4.87565 11.2192 4.79317 11.3414 4.72454 11.4709C4.66585 11.5813 4.62216 11.7 4.57184 11.815C4.55281 11.8587 4.53421 11.9027 4.51488 11.9463C4.48648 12.0097 4.45606 12.0723 4.42952 12.1364C4.40833 12.1879 4.39319 12.2419 4.37228 12.2935C4.34748 12.3546 4.31576 12.413 4.29384 12.475C4.27048 12.5403 4.25664 12.6088 4.23602 12.6751C4.20661 12.7702 4.17474 12.8645 4.14403 12.9591C4.13956 12.9726 4.13711 12.9869 4.13235 13.0004C4.10668 13.0745 4.07381 13.1469 4.05607 13.2229C4.0317 13.3275 4.01872 13.4347 4.00056 13.5407C3.9994 13.5478 3.99666 13.5546 3.99479 13.5615C3.96725 13.6699 3.93337 13.777 3.9139 13.8869C3.8966 13.9837 3.89155 14.0819 3.8741 14.1798C3.83531 14.3976 3.82291 14.6214 3.81556 14.8433C3.80647 15.1193 3.81224 15.3957 3.81383 15.6719C3.81426 15.751 3.81816 15.8305 3.82753 15.9091C3.85247 16.1177 3.8803 16.3261 3.90871 16.5343C3.92543 16.6561 3.94548 16.7774 3.96408 16.8988C3.96523 16.9058 3.96812 16.9126 3.96985 16.9197C3.99739 17.0267 4.02536 17.1335 4.05218 17.2407C4.07265 17.322 4.09068 17.4039 4.11159 17.4851C4.12543 17.5394 4.14028 17.5936 4.15859 17.6466C4.18368 17.7192 4.21468 17.7899 4.23905 17.8627C4.26198 17.9309 4.27841 18.0013 4.30004 18.0699C4.31533 18.1181 4.33277 18.1658 4.35253 18.2125C4.3769 18.2699 4.40674 18.325 4.43039 18.3826C4.45274 18.4374 4.46889 18.4945 4.49023 18.5498C4.50364 18.5845 4.52065 18.6183 4.53796 18.6514C4.5655 18.704 4.59693 18.7548 4.62245 18.8084C4.66181 18.8914 4.69411 18.9777 4.73564 19.0595C4.79231 19.1709 4.85417 19.2798 4.9153 19.3888C4.93866 19.4306 4.96721 19.4696 4.99129 19.5109C5.03109 19.5793 5.06786 19.6495 5.10838 19.7174C5.14298 19.7754 5.1796 19.8322 5.2181 19.8877C5.27217 19.9657 5.32985 20.0413 5.38392 20.1193C5.44016 20.2007 5.49034 20.2863 5.54931 20.3656C5.61838 20.4587 5.69379 20.547 5.76675 20.6371C5.81116 20.692 5.855 20.7472 5.90085 20.8009C5.94944 20.8578 6.00149 20.912 6.0498 20.9693C6.14439 21.0816 6.23753 21.1951 6.3278 21.304C6.31136 21.345 6.29478 21.3892 6.27632 21.4324C6.25224 21.489 6.22542 21.5443 6.20192 21.6011C6.18058 21.6529 6.1653 21.7073 6.14165 21.7577C6.1007 21.8457 6.05412 21.9309 6.01231 22.0184C5.9741 22.0986 5.94194 22.1818 5.90185 22.261C5.85975 22.3441 5.81087 22.4237 5.76603 22.5055C5.74685 22.5404 5.73272 22.5782 5.71196 22.6119C5.65342 22.7074 5.59315 22.802 5.53244 22.896C5.48919 22.963 5.44405 23.0289 5.39993 23.0952C5.35032 23.1701 5.29943 23.2442 5.2517 23.3202C5.21118 23.3849 5.17874 23.4551 5.13462 23.5173C5.08155 23.5921 5.01739 23.6592 4.96289 23.7331C4.89022 23.8316 4.82662 23.9369 4.75136 24.0331C4.65158 24.1602 4.54402 24.2811 4.4402 24.4051C4.31691 24.5524 4.19248 24.6989 4.07222 24.8486C4.02637 24.9056 3.98859 24.9693 3.9511 25.0323C3.9299 25.0676 3.91419 25.1068 3.90006 25.1459C3.86978 25.23 3.82839 25.3133 3.817 25.4003C3.80258 25.5113 3.81181 25.6256 3.81412 25.7384C3.81484 25.7736 3.8222 25.8101 3.83373 25.8435C3.85507 25.9059 3.88189 25.9664 3.9064 26.0278C3.9263 26.0777 3.93538 26.1365 3.96782 26.176C4.05448 26.2814 4.14922 26.3803 4.24482 26.478C4.28158 26.5154 4.32643 26.5472 4.37243 26.5725C4.42347 26.6008 4.47898 26.623 4.53478 26.6406C4.62951 26.6704 4.72541 26.7153 4.82173 26.7176C5.18638 26.7267 5.55191 26.7362 5.91484 26.6787C5.99962 26.6653 6.08786 26.6748 6.17308 26.663C6.35 26.6384 6.52591 26.6056 6.7024 26.5782C6.82323 26.5593 6.9445 26.5438 7.06548 26.5265C7.07254 26.5255 7.07918 26.5221 7.0861 26.5203C7.199 26.4918 7.31175 26.4622 7.42509 26.4353C7.51261 26.4145 7.60115 26.3974 7.6891 26.3782C7.69602 26.3767 7.70222 26.372 7.709 26.3697C7.78326 26.344 7.85651 26.3146 7.93221 26.2938C8.01209 26.2719 8.09428 26.2583 8.17532 26.241C8.17993 26.24 8.18469 26.2387 8.18901 26.237C8.25851 26.2085 8.32686 26.1763 8.39809 26.1524C8.46687 26.1293 8.53853 26.1149 8.6089 26.0964C8.61351 26.0953 8.61784 26.0934 8.62202 26.0914C8.68128 26.0633 8.73896 26.0311 8.79995 26.0079C8.85921 25.9853 8.92352 25.9756 8.98264 25.9528C9.03022 25.9345 9.07233 25.9025 9.1189 25.8811C9.17297 25.8563 9.22992 25.8379 9.28457 25.8144C9.34311 25.7893 9.40051 25.7616 9.45833 25.7352C9.5049 25.7142 9.55119 25.6928 9.59805 25.6726C9.68514 25.6352 9.77395 25.6016 9.85932 25.5606C9.93776 25.5231 10.0119 25.4768 10.089 25.4365C10.1611 25.3987 10.2362 25.3664 10.307 25.3264C10.3771 25.2869 10.4416 25.2375 10.5118 25.1985C10.6114 25.1433 10.7165 25.0976 10.815 25.0407C10.9108 24.9854 11.0006 24.92 11.0942 24.861C11.1771 24.8087 11.263 24.7611 11.3452 24.7076C11.4101 24.6653 11.4777 24.6237 11.5316 24.5694C11.5648 24.536 11.5958 24.5223 11.635 24.5302C11.6757 24.5384 11.7135 24.5605 11.7538 24.571C11.8342 24.5918 11.9156 24.6087 11.9964 24.6274C12.0033 24.629 12.0098 24.6322 12.0166 24.6345C12.1022 24.662 12.1868 24.694 12.2741 24.7161C12.3665 24.7394 12.4614 24.7534 12.5551 24.7717C12.5597 24.7726 12.5638 24.7759 12.5684 24.7772C12.6673 24.8048 12.7651 24.8368 12.8653 24.8583C12.9728 24.8813 13.0826 24.8946 13.1914 24.9122C13.1939 24.9126 13.1963 24.9125 13.1986 24.913C13.3213 24.9427 13.4432 24.9765 13.5669 25.001C13.6515 25.0177 13.7368 25.0147 13.8238 25.0395C13.9455 25.0741 14.0785 25.0522 14.2072 25.0894C14.3359 25.1266 14.4756 25.1272 14.611 25.1393C14.824 25.1585 15.0374 25.1879 15.2508 25.1883C15.8917 25.1895 16.5335 25.2269 17.1733 25.1515C17.2873 25.138 17.4038 25.1452 17.5177 25.1316C17.698 25.11 17.8768 25.0773 18.0567 25.0525C18.1473 25.0399 18.2372 25.0408 18.3295 25.0193C18.4472 24.9918 18.5721 24.9876 18.693 24.9601C18.8146 24.9322 18.94 24.9216 19.0639 24.9034C19.0685 24.9027 19.0734 24.9025 19.078 24.9012C19.1759 24.8737 19.273 24.8427 19.3719 24.8195C19.4743 24.7955 19.5786 24.7792 19.682 24.7595C19.6868 24.7586 19.6917 24.7585 19.6962 24.7569C19.7759 24.7296 19.8545 24.6983 19.9355 24.676C20.0239 24.6516 20.1146 24.6356 20.2043 24.616C20.2112 24.6144 20.2181 24.6124 20.2248 24.61C20.296 24.5834 20.3664 24.5539 20.4387 24.5311C20.5163 24.5067 20.5962 24.4901 20.6744 24.4679C20.7204 24.4548 20.7656 24.4388 20.8102 24.4215C20.8807 24.3943 20.9496 24.3625 21.0208 24.3371C21.0827 24.3151 21.1472 24.3005 21.2096 24.2796C21.2501 24.2661 21.2893 24.2482 21.3281 24.2303C21.3878 24.2028 21.4456 24.1709 21.5062 24.146C21.5623 24.1227 21.6233 24.1109 21.6782 24.0858C21.7618 24.0476 21.8403 23.9983 21.9241 23.9608C22.0148 23.9202 22.1093 23.8887 22.2015 23.8514C22.2449 23.8336 22.2873 23.8132 22.3285 23.791C22.3723 23.7675 22.413 23.7382 22.4571 23.7154C22.537 23.6743 22.6192 23.638 22.6988 23.5963C22.8061 23.5404 22.9122 23.4818 23.0182 23.4231C23.0596 23.4002 23.0995 23.3747 23.1396 23.3494C23.1978 23.313 23.2551 23.2749 23.3138 23.239C23.3843 23.1957 23.4561 23.1545 23.5267 23.1112C23.5587 23.0918 23.5889 23.0691 23.6206 23.0491C23.6851 23.0081 23.7515 22.9701 23.8143 22.9267C23.8892 22.8748 23.9599 22.8165 24.0347 22.7643C24.1005 22.7185 24.1713 22.6798 24.2366 22.6332C24.3306 22.5662 24.4224 22.4961 24.5136 22.4252C24.5681 22.3828 24.6197 22.3366 24.6726 22.2921C24.7325 22.2418 24.7919 22.1907 24.8523 22.1408C24.9353 22.0722 25.0221 22.0076 25.1017 21.9351C25.178 21.8656 25.2462 21.7873 25.3195 21.7146C25.4407 21.5942 25.565 21.4767 25.6847 21.3547C25.7682 21.2698 25.8471 21.1802 25.9265 21.0914C26.0346 20.9703 26.1426 20.849 26.248 20.7256C26.2903 20.6761 26.3245 20.6201 26.3644 20.5686C26.4355 20.4772 26.5106 20.3888 26.5793 20.2956C26.6392 20.2143 26.693 20.1284 26.749 20.044C26.8068 19.9568 26.8639 19.869 26.9217 19.7817C26.9493 19.7401 26.979 19.6997 27.0053 19.6574C27.0271 19.6224 27.0466 19.5856 27.065 19.5487C27.0846 19.5094 27.0981 19.4664 27.1208 19.429C27.1766 19.3376 27.2417 19.2514 27.2929 19.1575C27.3357 19.0789 27.3634 18.9923 27.3994 18.9098C27.4163 18.8715 27.4379 18.8353 27.4561 18.7973C27.4995 18.7074 27.5435 18.6174 27.5848 18.5264C27.6091 18.4729 27.6281 18.4168 27.6512 18.3627C27.6751 18.3064 27.7035 18.2519 27.7259 18.1951C27.7561 18.1179 27.7835 18.0396 27.8105 17.9613C27.8323 17.8983 27.8532 17.835 27.8712 17.7708C27.8934 17.6923 27.9094 17.6119 27.9331 17.5339C27.9566 17.4562 27.9925 17.382 28.0114 17.3034C28.036 17.2011 28.049 17.0962 28.0672 16.9925C28.0689 16.9831 28.0712 16.9738 28.0737 16.9644C28.1012 16.8554 28.1358 16.7475 28.1547 16.6369C28.1721 16.5351 28.1786 16.4317 28.1948 16.3291C28.2331 16.0868 28.2517 15.8396 28.2533 15.594C28.2558 15.2093 28.2888 14.8226 28.2089 14.4402ZM25.9546 15.5307C25.949 15.7158 25.9412 15.9037 25.9034 16.0838C25.8834 16.1793 25.8818 16.2747 25.8623 16.3682C25.8429 16.4617 25.8096 16.5524 25.7825 16.6443C25.7791 16.6557 25.7763 16.6671 25.774 16.6786C25.7558 16.7697 25.7424 16.862 25.7184 16.9514C25.6918 17.0515 25.6587 17.1502 25.6224 17.2474C25.5848 17.3481 25.5391 17.4455 25.4988 17.5452C25.4758 17.6023 25.4602 17.6626 25.435 17.7186C25.4001 17.7962 25.3598 17.8713 25.3208 17.9469C25.2993 17.9883 25.2752 18.0282 25.2526 18.0689C25.2208 18.126 25.1891 18.1829 25.1581 18.2403C25.1229 18.3054 25.0916 18.3728 25.053 18.4359C24.9958 18.5291 24.9333 18.6191 24.8735 18.7108C24.8239 18.7867 24.7782 18.8654 24.725 18.9385C24.6416 19.0533 24.5553 19.1659 24.4669 19.2768C24.3956 19.366 24.3202 19.4518 24.2454 19.5382C24.1987 19.5921 24.1511 19.6455 24.1016 19.6969C23.9899 19.8136 23.8787 19.9308 23.7638 20.044C23.6813 20.1252 23.5934 20.2008 23.5071 20.2777C23.4513 20.3276 23.3945 20.3762 23.3374 20.4244C23.2828 20.4707 23.2278 20.5165 23.1717 20.5611C23.078 20.6352 22.9856 20.7116 22.8884 20.7808C22.7612 20.8715 22.6297 20.9565 22.5 21.0437C22.3911 21.1171 22.284 21.1932 22.1724 21.2624C22.1 21.3074 22.0197 21.3396 21.9457 21.3823C21.8814 21.4193 21.8215 21.4641 21.7585 21.5035C21.7249 21.5246 21.6897 21.5433 21.6538 21.5599C21.5744 21.5968 21.4926 21.629 21.4143 21.668C21.3349 21.7077 21.2598 21.756 21.1805 21.7956C21.1323 21.8197 21.0787 21.8326 21.0292 21.8543C20.9695 21.8806 20.9126 21.9129 20.8527 21.9388C20.8012 21.961 20.7473 21.9778 20.6945 21.9972C20.6537 22.0124 20.6126 22.0269 20.5726 22.0439C20.5093 22.071 20.4468 22.1005 20.3835 22.1279C20.3427 22.1456 20.3018 22.164 20.2594 22.1776C20.1913 22.1994 20.1209 22.2144 20.0533 22.2376C19.9827 22.262 19.915 22.2945 19.8447 22.3198C19.7949 22.3377 19.743 22.3498 19.692 22.3635C19.6105 22.3855 19.5285 22.4056 19.4473 22.4286C19.3592 22.4537 19.2718 22.4813 19.184 22.5078C19.1774 22.5098 19.171 22.5137 19.1642 22.515C19.0626 22.5342 18.9601 22.5499 18.8593 22.573C18.7583 22.5962 18.659 22.6265 18.5591 22.6536C18.5545 22.6549 18.5498 22.6562 18.5451 22.6569C18.4188 22.6764 18.2919 22.6924 18.1663 22.7159C18.0388 22.7399 17.9068 22.7454 17.7832 22.773C17.6791 22.7962 17.5779 22.7991 17.4752 22.8074C17.2226 22.8279 16.9671 22.8286 16.7179 22.8687C16.3048 22.9352 15.8917 22.8862 15.479 22.899C15.2702 22.8308 15.0522 22.8707 14.8398 22.8451C14.7144 22.8299 14.5833 22.8341 14.4649 22.797C14.3402 22.7578 14.2159 22.7743 14.0933 22.7545C13.9781 22.7361 13.8657 22.7017 13.752 22.6742C13.7473 22.673 13.743 22.6707 13.7382 22.67C13.6194 22.6517 13.4997 22.638 13.382 22.6141C13.2873 22.5947 13.1952 22.5633 13.102 22.5372C13.0974 22.5359 13.0931 22.5335 13.0885 22.5326C12.993 22.5123 12.8967 22.4955 12.8025 22.4706C12.7267 22.4506 12.6537 22.4204 12.5795 22.3948C12.5681 22.3909 12.5571 22.3855 12.5454 22.3829C12.4614 22.3638 12.3759 22.3495 12.2934 22.3253C12.2269 22.3056 12.1651 22.2713 12.0993 22.2488C12.0285 22.2246 11.9551 22.2079 11.8836 22.1854C11.7998 22.159 11.7169 22.1297 11.6336 22.1021C11.5851 22.0859 11.5374 22.0667 11.4881 22.055C11.3941 22.0327 11.2996 22.0062 11.204 21.9991C11.1635 21.9961 11.1167 22.0334 11.0777 22.0598C10.9694 22.133 10.8633 22.2095 10.7575 22.2862C10.6838 22.3395 10.6133 22.3972 10.5392 22.4498C10.4564 22.5084 10.3712 22.5633 10.2871 22.6198C10.2329 22.6562 10.1783 22.6919 10.1246 22.729C10.0646 22.7704 10.006 22.8138 9.94583 22.8552C9.85686 22.9164 9.76877 22.9795 9.67706 23.0366C9.61376 23.0761 9.54426 23.1056 9.47894 23.1421C9.38262 23.1959 9.28847 23.2538 9.19157 23.3066C9.11256 23.3494 9.02979 23.3856 8.95034 23.4277C8.90348 23.4525 8.86065 23.4851 8.81393 23.5105C8.7763 23.531 8.73622 23.5471 8.69628 23.5631C8.60457 23.5999 8.51114 23.6323 8.42087 23.6721C8.32816 23.7128 8.23991 23.7633 8.14705 23.8035C8.09125 23.8277 8.02954 23.8381 7.97201 23.8587C7.90698 23.8822 7.8444 23.9124 7.77951 23.9359C7.7165 23.9586 7.65176 23.9767 7.58774 23.9967C7.58197 23.9921 7.57634 23.9875 7.57057 23.9829C7.59956 23.9266 7.62667 23.8694 7.65796 23.8145C7.69328 23.7526 7.73308 23.6933 7.7697 23.6322C7.80171 23.5789 7.83459 23.5259 7.86256 23.4704C7.90106 23.394 7.93351 23.3143 7.9723 23.2377C8.00935 23.1646 8.05232 23.0942 8.09039 23.0216C8.11476 22.9751 8.13422 22.9262 8.15686 22.8789C8.18411 22.8223 8.21425 22.7668 8.24006 22.7094C8.26313 22.6581 8.28086 22.6044 8.30307 22.5526C8.32715 22.4964 8.35354 22.441 8.37906 22.3855C8.3991 22.3423 8.42274 22.3005 8.43875 22.2558C8.47653 22.1502 8.51027 22.0432 8.54646 21.9371C8.57588 21.8507 8.60298 21.7632 8.63773 21.6789C8.67811 21.5808 8.72901 21.4872 8.76909 21.3892C8.79389 21.3282 8.80428 21.2616 8.82634 21.1993C8.84782 21.1384 8.87882 21.081 8.90059 21.0203C8.92828 20.9432 8.96115 20.8658 8.97154 20.7859C8.97629 20.7484 8.94154 20.6973 8.91126 20.6652C8.77716 20.5223 8.63615 20.3859 8.50147 20.2436C8.38223 20.1176 8.27062 19.9845 8.15094 19.8587C8.05044 19.7529 7.93971 19.6566 7.84021 19.5497C7.76725 19.4717 7.70309 19.3851 7.63892 19.2994C7.55342 19.1856 7.47181 19.069 7.38846 18.9536C7.31046 18.8458 7.22812 18.7407 7.15545 18.6294C7.08436 18.5206 7.02438 18.4049 6.95705 18.2937C6.90081 18.2008 6.83621 18.1129 6.78416 18.0178C6.74148 17.9401 6.71293 17.8548 6.67645 17.7734C6.63435 17.68 6.58821 17.5883 6.54812 17.494C6.52303 17.435 6.50732 17.3724 6.4854 17.3122C6.46146 17.2466 6.43522 17.1818 6.41013 17.1167C6.38951 17.063 6.36456 17.0107 6.35 16.9556C6.32837 16.8737 6.31626 16.7892 6.29651 16.7067C6.27099 16.5999 6.242 16.4937 6.21417 16.3873C6.21115 16.3758 6.20451 16.3648 6.20336 16.3532C6.18577 16.1868 6.17769 16.0186 6.14958 15.854C6.10142 15.5711 6.10315 15.2869 6.11353 15.0027C6.12031 14.8172 6.12694 14.6291 6.16443 14.4485C6.18418 14.3532 6.18707 14.2578 6.20567 14.1642C6.22441 14.0705 6.25816 13.9798 6.28526 13.8878C6.28858 13.8765 6.29218 13.8651 6.29449 13.8536C6.31179 13.7623 6.32362 13.6696 6.34741 13.5802C6.36601 13.5101 6.40162 13.4447 6.42527 13.3758C6.44892 13.3071 6.46564 13.236 6.48843 13.1671C6.50775 13.1089 6.53024 13.0518 6.5536 12.9951C6.5784 12.9345 6.60508 12.8748 6.63233 12.8153C6.66708 12.7393 6.70154 12.663 6.73961 12.5888C6.75979 12.5493 6.79094 12.5154 6.81055 12.4756C6.84977 12.3961 6.88163 12.3131 6.92172 12.2341C6.95099 12.1764 6.98877 12.1232 7.02222 12.0677C7.05178 12.0184 7.07917 11.9677 7.11003 11.9194C7.14795 11.8602 7.18761 11.8021 7.22798 11.7444C7.28292 11.666 7.33771 11.5874 7.39538 11.5109C7.46099 11.4241 7.52833 11.3386 7.5974 11.2544C7.6519 11.1881 7.7103 11.1249 7.76668 11.0601C7.83387 10.9831 7.89818 10.9032 7.96854 10.8291C8.09745 10.6935 8.22679 10.5581 8.36175 10.4288C8.48734 10.3085 8.61784 10.193 8.75121 10.0814C8.85878 9.99117 8.97399 9.91 9.08544 9.8242C9.1623 9.76494 9.23612 9.70164 9.31528 9.6457C9.3757 9.60302 9.44347 9.57071 9.5062 9.5312C9.57916 9.48521 9.64995 9.43619 9.72219 9.38918C9.79198 9.3439 9.86235 9.29964 9.93243 9.25494C9.99933 9.21211 10.0657 9.16842 10.1333 9.12675C10.1666 9.10642 10.2016 9.08883 10.2368 9.07167C10.3138 9.03404 10.3928 9.00001 10.4685 8.96007C10.5468 8.91868 10.6204 8.86807 10.6995 8.829C10.7818 8.78834 10.8694 8.75907 10.9529 8.72057C11.0413 8.6799 11.1256 8.6303 11.215 8.59209C11.3071 8.55258 11.4039 8.52418 11.4972 8.48726C11.5624 8.46131 11.6245 8.428 11.689 8.40017C11.7322 8.38157 11.7765 8.36485 11.8215 8.35115C11.8907 8.32981 11.9619 8.31524 12.0303 8.29174C12.0957 8.2691 12.1584 8.23882 12.2225 8.21186C12.2268 8.21013 12.2311 8.20782 12.2357 8.20725C12.3508 8.19441 12.4556 8.14914 12.5635 8.11021C12.6451 8.08079 12.7359 8.07834 12.8204 8.05556C12.9077 8.03205 12.9922 7.99875 13.0778 7.96962C13.0823 7.96803 13.0866 7.96573 13.0911 7.96486C13.1926 7.94813 13.2944 7.934 13.3952 7.9141C13.5196 7.88959 13.6429 7.86032 13.7667 7.83293C13.7714 7.83192 13.7758 7.8299 13.7806 7.82889C13.8698 7.81101 13.9584 7.78679 14.0486 7.77669C14.2494 7.7542 14.4547 7.75694 14.6512 7.71613C14.8822 7.66812 15.1164 7.69897 15.3438 7.66264C15.7497 7.59775 16.1567 7.6227 16.5607 7.64087C16.7899 7.65125 17.0217 7.66047 17.2514 7.68369C17.3983 7.6984 17.5484 7.70128 17.6908 7.73603C17.7989 7.76241 17.9088 7.75391 18.0129 7.77843C18.1855 7.81909 18.3611 7.84057 18.5328 7.87849C18.6137 7.89637 18.6948 7.90545 18.7751 7.9216C18.9067 7.94813 19.0363 7.98418 19.1667 8.01735C19.2829 8.04691 19.3998 8.07459 19.5146 8.10978C19.5872 8.13198 19.6548 8.17047 19.7272 8.19412C19.797 8.2169 19.8708 8.22787 19.9414 8.24834C20.0076 8.26752 20.0721 8.29232 20.1371 8.31496C20.2099 8.34048 20.2835 8.36456 20.3553 8.39267C20.4138 8.41574 20.4702 8.44401 20.5277 8.46953C20.5449 8.47703 20.5632 8.48207 20.5805 8.48942C20.6439 8.51668 20.7069 8.54466 20.7704 8.57176C20.8149 8.59065 20.8604 8.60738 20.9043 8.62713C21.0057 8.6727 21.1062 8.72013 21.2076 8.76541C21.2882 8.80146 21.3715 8.83174 21.4501 8.87125C21.5271 8.91018 21.5993 8.95848 21.6746 9.00087C21.7124 9.02207 21.753 9.03807 21.7915 9.05797C21.8887 9.10815 21.9875 9.1553 22.0817 9.21053C22.2109 9.28651 22.3382 9.36596 22.4627 9.44931C22.5402 9.50107 22.609 9.56595 22.6854 9.61945C22.7657 9.67554 22.8541 9.72024 22.9324 9.77864C23.0241 9.84698 23.1082 9.92542 23.1965 9.99824C23.2611 10.0516 23.3286 10.1015 23.3925 10.1554C23.4714 10.2219 23.5494 10.2895 23.6249 10.3596C23.7403 10.4666 23.8551 10.5741 23.9665 10.6852C24.0463 10.7645 24.1209 10.849 24.1962 10.9327C24.247 10.9893 24.2951 11.0484 24.3439 11.1068C24.3917 11.164 24.4409 11.2204 24.4859 11.2798C24.5839 11.4097 24.6811 11.5402 24.7756 11.6724C24.841 11.764 24.9013 11.8592 24.964 11.9526C25.0231 12.0408 25.0867 12.1264 25.1401 12.2181C25.1832 12.292 25.2123 12.3739 25.2505 12.4509C25.2896 12.5295 25.332 12.6065 25.3731 12.6841C25.3927 12.7211 25.4168 12.7563 25.4319 12.795C25.4687 12.8893 25.4996 12.9859 25.5363 13.0802C25.5617 13.1455 25.5962 13.2076 25.6202 13.2734C25.6435 13.3368 25.657 13.4037 25.6773 13.4682C25.7036 13.5507 25.7324 13.6321 25.76 13.7142C25.7623 13.721 25.7644 13.7279 25.7657 13.7349C25.7842 13.8372 25.7872 13.9453 25.8247 14.0399C25.868 14.1489 25.8429 14.2664 25.8804 14.3666C25.9229 14.4806 25.8954 14.593 25.9181 14.7025C25.9752 14.9771 25.9633 15.2543 25.9546 15.5307Z" fill="#F8F9FA"/>
<path d="M12.2209 15.2656C12.2244 15.4262 12.1977 15.5818 12.1523 15.728C12.0635 16.0138 11.9005 16.266 11.6638 16.4506C11.3812 16.6709 11.0606 16.8115 10.6901 16.7916C10.3727 16.8089 10.085 16.7128 9.83155 16.5359C9.39264 16.2295 9.16063 15.8055 9.15631 15.2624C9.15371 14.9475 9.23835 14.6583 9.41859 14.4042C9.72788 13.9682 10.1483 13.7378 10.6927 13.7349C11.0057 13.7332 11.2911 13.8155 11.5418 13.9901C11.9816 14.2966 12.2094 14.723 12.2209 15.2656Z" fill="#F8F9FA"/>
<path d="M17.5654 15.269C17.5673 15.5838 17.4789 15.8713 17.3 16.127C16.9936 16.565 16.5688 16.7867 16.0347 16.7952C15.717 16.808 15.4317 16.7117 15.1772 16.5343C14.7387 16.2289 14.5109 15.8065 14.5031 15.2672C14.4985 14.9514 14.5827 14.6594 14.7624 14.4065C15.0724 13.9706 15.4946 13.7363 16.0425 13.7349C16.3535 13.734 16.6383 13.8155 16.8859 13.9878C17.3269 14.2945 17.562 14.7229 17.5654 15.269Z" fill="#F8F9FA"/>
<path d="M22.9144 15.2646C22.9174 15.4252 22.8916 15.581 22.8461 15.727C22.7572 16.0128 22.5947 16.2657 22.3582 16.4503C22.0759 16.6709 21.7551 16.8113 21.3864 16.7919C21.0673 16.8087 20.7789 16.7137 20.5255 16.5369C20.0868 16.231 19.8543 15.8068 19.8494 15.2639C19.8467 14.9487 19.9309 14.6586 20.111 14.4048C20.42 13.9695 20.8403 13.7381 21.3848 13.7349C21.698 13.733 21.9842 13.8151 22.2342 13.9897C22.673 14.2958 22.904 14.7212 22.9144 15.2646Z" fill="#F8F9FA"/>
</svg>
