<svg width="48" height="48" viewBox="0 0 48 48" fill="none" xmlns="http://www.w3.org/2000/svg">
<g id="Item/Mobile payment">
<path id="Vector" d="M34 4H14C11.7909 4 10 5.79086 10 8V40C10 42.2091 11.7909 44 14 44H34C36.2091 44 38 42.2091 38 40V8C38 5.79086 36.2091 4 34 4Z" stroke="currentColor" stroke-width="2" stroke-linecap="round" stroke-linejoin="round"/>
<line id="Line 146" x1="10.5" y1="11" x2="37.5" y2="11" stroke="currentColor" stroke-width="2"/>
<line id="Line 147" x1="10.5" y1="38" x2="37.5" y2="38" stroke="currentColor" stroke-width="2"/>
<g id="Group 16670">
<path id="Vector_2" d="M23.9995 15V32" stroke="currentColor" stroke-width="2" stroke-linecap="round" stroke-linejoin="round"/>
<path id="Vector_3" d="M28.2494 17.5498H21.8744C21.0854 17.5498 20.3287 17.8632 19.7708 18.4212C19.2129 18.9791 18.8994 19.7358 18.8994 20.5248C18.8994 21.3138 19.2129 22.0705 19.7708 22.6284C20.3287 23.1864 21.0854 23.4998 21.8744 23.4998H26.1244C26.9134 23.4998 27.6701 23.8132 28.2281 24.3712C28.786 24.9291 29.0994 25.6858 29.0994 26.4748C29.0994 27.2638 28.786 28.0205 28.2281 28.5784C27.6701 29.1364 26.9134 29.4498 26.1244 29.4498H18.8994" stroke="currentColor" stroke-width="2" stroke-linecap="round" stroke-linejoin="round"/>
</g>
</g>
</svg>
