<svg width="32" height="32" viewBox="0 0 32 32" fill="none" xmlns="http://www.w3.org/2000/svg">
<path d="M27.9775 8.38243C27.8914 7.789 27.5918 7.33126 27.0978 6.99811C26.8499 6.83094 26.5777 6.72473 26.2798 6.69154C26.1602 6.67804 26.0393 6.66892 25.9189 6.66892C19.3178 6.66786 12.7167 6.66826 6.1156 6.66667C5.86768 6.66654 5.62413 6.68453 5.3885 6.76375C4.89875 6.92827 4.5208 7.23035 4.26219 7.68161C4.15567 7.86717 4.08259 8.06383 4.03832 8.27173C4.02061 8.35492 4.01097 8.44023 4.0037 8.52514C3.99802 8.59087 4.00172 8.65727 4.00172 8.7234C4.00172 13.5826 4.00264 18.442 4 23.3014C3.99974 23.721 4.10057 24.1059 4.33156 24.4542C4.53891 24.7669 4.80849 25.013 5.15645 25.1602C5.31556 25.2275 5.48405 25.2734 5.64963 25.3249C5.68611 25.3361 5.72827 25.3308 5.76778 25.3308C8.73707 25.3311 11.7064 25.3311 14.6757 25.3311C18.4924 25.3311 22.3091 25.3302 26.1258 25.3333C26.3687 25.3333 26.5938 25.2763 26.8113 25.1826C27.0468 25.081 27.2552 24.9349 27.433 24.7492C27.6334 24.5397 27.7946 24.3035 27.8813 24.0239C27.9207 23.897 27.9452 23.7656 27.9775 23.6365C27.9808 23.6235 27.9923 23.6127 28 23.6008V8.42674C27.9922 8.41193 27.9798 8.39791 27.9775 8.38243ZM11.3629 10.6773C12.8237 10.6919 14.0078 11.893 13.9967 13.3473C13.9957 14.8425 12.78 16.0169 11.3218 16.0075C9.84462 15.998 8.67047 14.7979 8.67483 13.3315C8.67919 11.8551 9.89339 10.6628 11.3629 10.6773ZM15.4006 21.2911C15.2829 21.329 15.1625 21.3434 15.0381 21.3433C13.8033 21.3416 12.5685 21.3422 11.3337 21.3422C10.0989 21.3422 8.85534 21.3414 7.61617 21.343C7.39732 21.3433 7.19593 21.2891 7.01713 21.1645C6.79723 21.0115 6.67486 20.8003 6.67169 20.5289C6.66865 20.2711 6.66799 20.0133 6.67182 19.7557C6.67882 19.2716 6.82696 18.8355 7.12034 18.4486C7.42944 18.041 7.82973 17.7595 8.30097 17.5694C8.73535 17.394 9.18717 17.337 9.65063 17.3531C9.7138 17.3554 9.77617 17.3879 9.83868 17.4072C9.99012 17.4539 10.1396 17.5092 10.2934 17.5458C10.4865 17.5918 10.6819 17.6364 10.8788 17.6561C11.0897 17.6773 11.3038 17.6769 11.5161 17.6709C11.6934 17.666 11.8723 17.6519 12.0464 17.6194C12.2602 17.5793 12.4703 17.519 12.6804 17.4614C12.7767 17.4351 12.8686 17.394 12.9631 17.3611C12.9835 17.354 13.0062 17.3515 13.028 17.351C13.2947 17.3443 13.5619 17.3507 13.8229 17.406C14.5043 17.5501 15.0898 17.8606 15.5295 18.4174C15.7128 18.6496 15.8507 18.9069 15.9232 19.1912C15.9702 19.3765 15.9874 19.5719 15.9972 19.7636C16.0093 20.0031 15.9937 20.2439 16.0015 20.4838C16.0147 20.8881 15.7461 21.1797 15.4006 21.2911ZM25.3331 18.3494C25.3306 18.5362 25.184 18.675 24.9934 18.6752C24.6197 18.6752 24.2459 18.6752 23.872 18.6752C23.4982 18.6753 23.1243 18.6753 22.7505 18.6753C22.5012 18.6752 22.252 18.6752 22.0029 18.6752H20.5142C20.2531 18.6752 19.9918 18.6752 19.7307 18.6753C19.4956 18.6754 19.2606 18.6756 19.0255 18.6758C18.8803 18.6761 18.7707 18.6196 18.7081 18.4881C18.6855 18.4407 18.6702 18.3853 18.6691 18.3331C18.6648 18.1195 18.6636 17.9058 18.6685 17.6924C18.6726 17.5067 18.8063 17.3556 18.9949 17.353C19.019 17.3526 19.0432 17.3522 19.0674 17.3522C21.026 17.3522 22.9845 17.3522 24.943 17.3521C25.0273 17.3521 25.1105 17.354 25.1835 17.4046C25.278 17.4702 25.3306 17.5621 25.3325 17.6754C25.3366 17.9 25.3361 18.1247 25.3331 18.3493V18.3494ZM18.667 15.0378C18.6662 14.8463 18.8029 14.6763 19.022 14.6786C19.6535 14.6858 20.2852 14.6811 20.9169 14.6811H22.0062C22.9944 14.6811 23.9825 14.6823 24.9706 14.6798C25.1129 14.6794 25.226 14.7217 25.2903 14.8518C25.3156 14.9032 25.3307 14.9646 25.332 15.0218C25.3369 15.2288 25.3345 15.4359 25.3339 15.6429C25.3333 15.8617 25.1909 16.0053 24.9732 16.0054C24.0466 16.0057 23.1201 16.0056 22.1936 16.0056C21.1417 16.0056 20.0896 16.0057 19.0377 16.0054C18.8913 16.0054 18.7726 15.9521 18.7088 15.8138C18.6858 15.7642 18.6703 15.7067 18.6691 15.6523C18.6645 15.4476 18.6679 15.2427 18.667 15.0378ZM25.3328 13.0176C25.3298 13.2023 25.1753 13.345 24.9839 13.3451C24.1498 13.3456 23.3158 13.3454 22.4817 13.3454H21.9997C21.0116 13.3454 20.0235 13.3456 19.0354 13.345C18.8889 13.345 18.7711 13.2888 18.7076 13.1507C18.6855 13.1028 18.6702 13.0473 18.6691 12.9949C18.6648 12.7835 18.6657 12.5721 18.6678 12.3606C18.6695 12.1847 18.8006 12.022 18.9764 12.0186C19.0115 12.0179 19.0467 12.0146 19.0818 12.0146C21.0295 12.0143 22.9771 12.0143 24.9246 12.0146C25.0182 12.0146 25.1111 12.0145 25.1926 12.0752C25.2814 12.1414 25.3303 12.2296 25.3323 12.3372C25.3366 12.564 25.3365 12.7909 25.3328 13.0176Z" fill="#F8F9FA"/>
</svg>
