<svg width="32" height="32" viewBox="0 0 32 32" fill="none" xmlns="http://www.w3.org/2000/svg">
<path d="M27.9995 9.18255C27.9995 9.14065 28.001 9.09862 27.9988 9.05684C27.989 8.87562 27.9317 8.70774 27.8316 8.55459C27.7642 8.45127 27.6921 8.34884 27.5865 8.27635C27.4979 8.21557 27.4082 8.15365 27.3109 8.10797C27.2166 8.06368 27.112 8.03875 27.0115 8.00666C26.9953 8.0015 26.9766 8.00289 26.959 8.00264C26.882 8.00188 26.8049 8.00113 26.7279 8.00113H5.27147C5.23182 8.00113 5.19217 8.00314 5.15266 8.00088C5.02909 7.9937 4.91636 8.03196 4.80046 8.06568C4.5906 8.12672 4.42501 8.24829 4.28321 8.39855C4.21238 8.47342 4.15911 8.56642 4.1122 8.65779C4.07533 8.72952 4.06145 8.81182 4.03463 8.88858C4.02908 8.90469 4.01189 8.91728 4 8.9315V23.0681C4.01216 23.0845 4.03264 23.0997 4.03502 23.1171C4.05709 23.2818 4.14418 23.4152 4.24369 23.5467C4.36211 23.7029 4.51541 23.812 4.6954 23.8934C4.86166 23.9688 5.03451 24.0001 5.21953 24C12.4069 23.9984 19.5942 23.9986 26.7816 23.9986C26.8147 23.9986 26.8477 23.9975 26.8806 23.9986C26.9906 24.002 27.0931 23.9732 27.1923 23.9325C27.2758 23.8983 27.3602 23.8645 27.4396 23.8227C27.5758 23.7511 27.6906 23.6527 27.7724 23.527C27.8411 23.4215 27.9066 23.3114 27.9521 23.1957C27.9857 23.111 27.9972 23.0141 27.9973 22.9226C28 21.3296 27.9995 19.7365 27.9995 18.1434V9.18268V9.18255ZM12.1807 16.9449C12.1561 17.0695 12.1943 17.1997 12.1344 17.3204C12.1112 17.3672 12.1089 17.4232 12.0886 17.4718C12.0407 17.5865 11.9981 17.705 11.9336 17.8111C11.8744 17.9086 11.7928 17.9946 11.7151 18.0808C11.6274 18.178 11.5212 18.2562 11.4052 18.3206C11.3189 18.3686 11.2341 18.4218 11.1418 18.456C11.043 18.4927 10.9367 18.5127 10.8324 18.5346C10.7566 18.5504 10.6786 18.5576 10.5947 18.5696V18.6403C10.5947 18.7975 10.5943 18.9546 10.5947 19.1119C10.5951 19.2992 10.466 19.4252 10.2712 19.424C10.083 19.4229 9.89454 19.4258 9.70635 19.4227C9.60313 19.421 9.51327 19.3815 9.45988 19.2944C9.4316 19.2485 9.40979 19.192 9.4078 19.1394C9.40133 18.9657 9.40318 18.7915 9.40662 18.6176C9.40754 18.5677 9.38296 18.5498 9.34027 18.5443C9.30129 18.5392 9.26072 18.5429 9.22253 18.5353C9.11958 18.5151 9.01676 18.4938 8.9154 18.4676C8.82791 18.4448 8.74029 18.4194 8.65637 18.3867C8.58672 18.3596 8.52039 18.3234 8.45603 18.2858C8.38083 18.2419 8.30933 18.1921 8.23651 18.1446C8.08361 18.0448 8.10224 17.8243 8.22171 17.7139C8.35743 17.5886 8.49223 17.4621 8.63271 17.3421C8.76262 17.2312 8.87482 17.2162 9.03407 17.3056C9.10425 17.345 9.18446 17.3699 9.26243 17.3943C9.47745 17.4617 9.69987 17.4212 9.91886 17.428C10.1222 17.4343 10.3259 17.4293 10.5295 17.4294C10.7177 17.4295 10.8542 17.3514 10.9368 17.1874C10.9801 17.1018 11.0202 17.0131 11.0027 16.9185C10.9853 16.8248 10.9626 16.7282 10.8943 16.6529C10.8295 16.5815 10.7572 16.5213 10.6554 16.4961C10.5492 16.4701 10.4475 16.4284 10.3425 16.3975C10.2424 16.368 10.1401 16.3455 10.0399 16.3163C9.93656 16.2862 9.83467 16.251 9.73185 16.2194C9.68348 16.2046 9.63432 16.1922 9.58503 16.1801C9.52291 16.1648 9.45921 16.1538 9.39789 16.1355C9.30248 16.107 9.20865 16.0733 9.11363 16.043C9.0679 16.0283 9.02191 16.0139 8.97513 16.0032C8.81112 15.9657 8.67183 15.8844 8.53254 15.7961C8.34303 15.6756 8.19568 15.5177 8.07555 15.3392C8.00233 15.2301 7.96335 15.1001 7.90732 14.9802C7.84573 14.8483 7.84731 14.7059 7.82524 14.5668C7.80304 14.4274 7.8374 14.2931 7.84824 14.1576C7.85604 14.0609 7.91392 13.9687 7.94088 13.8723C7.9907 13.6945 8.10713 13.5531 8.2188 13.4118C8.28647 13.326 8.38241 13.2595 8.47029 13.1896C8.59809 13.0875 8.74518 13.0178 8.90073 12.9618C9.01081 12.9222 9.12037 12.8903 9.23944 12.8868C9.29217 12.8853 9.34437 12.8634 9.40529 12.8485V12.7932C9.40529 12.6338 9.40662 12.4745 9.4049 12.3152C9.40371 12.2043 9.44428 12.1131 9.54287 12.054C9.58595 12.028 9.63869 12.0036 9.68785 12.0024C9.8956 11.9967 10.1039 11.9958 10.3116 12.0017C10.4082 12.0046 10.5418 12.0751 10.5643 12.1858C10.5769 12.2478 10.5913 12.3104 10.5931 12.3731C10.5975 12.5156 10.5943 12.6581 10.5946 12.8007C10.5946 12.8678 10.6123 12.8849 10.683 12.8888C10.7069 12.8902 10.7311 12.8911 10.7551 12.8911C10.8726 12.8908 10.9832 12.9213 11.0921 12.9599C11.1997 12.9979 11.3118 13.0267 11.4141 13.0747C11.5726 13.1491 11.7341 13.2238 11.8441 13.3656C11.8736 13.4035 11.8804 13.5777 11.8479 13.6125C11.7497 13.7179 11.6502 13.8224 11.5464 13.9229C11.4743 13.9925 11.3965 14.057 11.3172 14.1193C11.2205 14.1952 11.0746 14.1926 10.9686 14.1325C10.8956 14.0913 10.8118 14.0677 10.7341 14.034C10.5877 13.9706 10.4335 14.0042 10.2831 14.0013C9.99643 13.9959 9.70965 13.9977 9.42274 14.0006C9.25966 14.0024 9.14759 14.0918 9.06923 14.2187C9.01504 14.3063 8.98821 14.4049 8.99839 14.5083C9.01398 14.6672 9.09407 14.7965 9.22821 14.885C9.29428 14.9286 9.38349 14.9415 9.46305 14.9652C9.56137 14.9944 9.66075 15.0204 9.7596 15.048C9.82806 15.0673 9.89665 15.0862 9.96471 15.1069C10.027 15.1259 10.0883 15.1478 10.1504 15.1673C10.1945 15.1813 10.2391 15.1942 10.2837 15.2061C10.385 15.2333 10.4869 15.2578 10.5874 15.2868C10.647 15.3039 10.7039 15.3289 10.7631 15.3479C10.813 15.364 10.8647 15.375 10.9148 15.3907C11.0271 15.4263 11.1443 15.4533 11.2498 15.5027C11.3956 15.5711 11.5352 15.6525 11.6448 15.7729C11.7069 15.8411 11.7837 15.8984 11.8384 15.9712C11.9058 16.061 11.9603 16.1601 12.0142 16.2583C12.0541 16.3312 12.0903 16.407 12.1167 16.4851C12.1405 16.5552 12.1525 16.6295 12.163 16.7028C12.1744 16.7832 12.1962 16.8679 12.1808 16.9449H12.1807ZM19.5987 18.0051C19.5977 18.0989 19.5172 18.2332 19.4033 18.2537C19.3364 18.2658 19.269 18.2834 19.2017 18.2836C18.5347 18.2859 17.8679 18.285 17.2009 18.285C16.5339 18.285 15.8274 18.2831 15.1407 18.2862C14.9488 18.287 14.7939 18.1471 14.8013 17.9637C14.8081 17.8005 14.8057 17.6368 14.802 17.4733C14.7982 17.3067 14.8805 17.2078 15.0297 17.151C15.0645 17.1378 15.1078 17.1434 15.1472 17.1434C16.1904 17.1431 17.2338 17.1431 18.2772 17.1431C18.6094 17.1431 18.9418 17.1436 19.2741 17.1429C19.391 17.1426 19.4856 17.1849 19.5463 17.279C19.5741 17.3223 19.5958 17.3768 19.5973 17.4268C19.6031 17.6194 19.6011 17.8123 19.5987 18.0051ZM25.5987 17.4533C25.593 17.6291 25.5949 17.8053 25.5986 17.9812C25.6004 18.0662 25.5671 18.1408 25.511 18.1947C25.4548 18.2485 25.377 18.2853 25.2888 18.285C25.0864 18.2845 24.8839 18.285 24.6814 18.285C23.9045 18.285 23.1277 18.2848 22.3509 18.2851C22.1705 18.2853 22.0698 18.2101 22.0084 18.0621C22 18.0418 22.0028 18.0167 22.0028 17.9937C22.0024 17.8072 22.0016 17.6207 22.0028 17.4342C22.0038 17.2775 22.1427 17.1435 22.3082 17.1434C22.8077 17.1431 23.3073 17.1434 23.8068 17.1434C24.2953 17.1432 24.7838 17.1461 25.2724 17.1417C25.4527 17.1402 25.6043 17.2857 25.5987 17.4534V17.4533ZM25.5929 14.5961C25.5871 14.6978 25.5255 14.7785 25.4153 14.8249C25.3511 14.852 25.2903 14.8551 25.2256 14.8551C23.5483 14.8554 21.8711 14.8554 20.1938 14.8554C18.5165 14.8554 16.8393 14.8544 15.162 14.8568C14.9887 14.857 14.8736 14.7902 14.8118 14.6387C14.8033 14.6182 14.8036 14.5936 14.8035 14.571C14.8029 14.3803 14.8029 14.1895 14.8035 13.9988C14.8035 13.9034 14.8787 13.7705 14.9961 13.7447C15.0543 13.7318 15.1136 13.7149 15.1724 13.7149C18.5248 13.7133 21.8772 13.714 25.2296 13.7118C25.332 13.7117 25.427 13.7317 25.4971 13.7929C25.5466 13.8363 25.5887 13.9112 25.5922 13.9741C25.604 14.181 25.6049 14.3894 25.593 14.5961H25.5929Z" fill="#F8F9FA"/>
</svg>
