<svg width="31" height="31" viewBox="0 0 31 31" fill="none" xmlns="http://www.w3.org/2000/svg">
<g id="People person" clip-path="url(#clip0_549_140861)">
<path id="Vector" d="M25.6678 13.0487C25.6678 14.4556 24.5231 15.6074 23.084 15.6074C21.6396 15.6074 20.4858 14.4504 20.4858 13.0487C20.4858 11.647 21.6396 10.49 23.084 10.49C24.5231 10.49 25.6678 11.6418 25.6678 13.0487ZM15.5928 10.9135C15.5928 12.7181 14.1324 14.1839 12.2894 14.1839C10.442 14.1839 8.9715 12.7138 8.9715 10.9135C8.9715 9.11319 10.442 7.64307 12.2894 7.64307C14.1324 7.64307 15.5928 9.10885 15.5928 10.9135ZM16.1679 23.3688C16.1679 23.0895 16.3015 22.768 16.7082 22.3971C17.1212 22.0205 17.7417 21.6672 18.5063 21.3645C20.0367 20.7588 21.8906 20.4543 23.084 20.4543C24.2774 20.4543 26.1313 20.7588 27.6617 21.3645C28.4263 21.6672 29.0468 22.0205 29.4598 22.3971C29.8665 22.768 30.0001 23.0895 30.0001 23.3688V25.5716H16.1679V23.3688ZM3.21436 23.013C3.21436 22.5555 3.43811 22.0783 3.99087 21.5741C4.55001 21.0641 5.37283 20.5996 6.36228 20.208C8.34234 19.4243 10.736 19.0308 12.2894 19.0308C12.5542 19.0308 12.845 19.0432 13.1558 19.0674C12.6685 19.5539 12.2966 20.0598 12.0178 20.5664C11.4343 21.6265 11.2894 22.633 11.2894 23.3688V25.5716H3.21436V23.013Z" stroke="currentColor" stroke-width="2"/>
</g>
<defs>
<clipPath id="clip0_549_140861">
<rect width="31" height="31" fill="currentColor"/>
</clipPath>
</defs>
</svg>
