<svg width="32" height="32" viewBox="0 0 32 32" fill="none" xmlns="http://www.w3.org/2000/svg">
<path d="M28.2799 21.1866C27.4316 23.1926 26.1049 24.9603 24.4157 26.3351C22.7265 27.7098 20.7262 28.6499 18.5898 29.073C16.4534 29.4962 14.2458 29.3895 12.1601 28.7624C10.0744 28.1352 8.17405 27.0067 6.62525 25.4755C5.07644 23.9443 3.92631 22.057 3.2754 19.9786C2.62449 17.9002 2.49264 15.694 2.89135 13.5528C3.29007 11.4117 4.20721 9.40082 5.56261 7.69602C6.91801 5.99122 8.6704 4.64441 10.6666 3.77332" stroke="currentColor" stroke-width="2" stroke-linecap="round" stroke-linejoin="round"/>
<path d="M29.3333 16C29.3333 14.2491 28.9885 12.5152 28.3184 10.8976C27.6483 9.2799 26.6662 7.81004 25.4281 6.57193C24.19 5.33382 22.7201 4.35169 21.1024 3.68163C19.4848 3.01156 17.751 2.66669 16 2.66669V16H29.3333Z" stroke="currentColor" stroke-width="2" stroke-linecap="round" stroke-linejoin="round"/>
</svg>
