<svg width="32" height="32" viewBox="0 0 32 32" fill="none" xmlns="http://www.w3.org/2000/svg">
<path d="M25.3124 8.14633C25.2609 7.65637 25.0678 7.23383 24.7703 6.86485C24.4141 6.42326 23.9647 6.14759 23.429 6.0421C23.2854 6.01396 23.1369 6.00545 22.9905 6.00509C21.7475 6.00225 20.5045 6.00343 19.2616 6.00343H19.1232C19.0968 4.90124 18.6874 4.00647 17.8766 3.34007C17.2571 2.83084 16.5449 2.61773 15.7661 2.67603C14.2802 2.7872 12.9078 4.12024 12.8828 6.00343H12.755C11.5157 6.00343 10.2764 6.00485 9.03713 6.00296C8.21958 6.00166 7.57265 6.36212 7.09402 7.06353C6.81826 7.46775 6.68 7.92932 6.66785 8.43181C6.6673 8.45547 6.66741 8.47912 6.66741 8.50277C6.66741 14.6122 6.66763 20.7217 6.66675 26.831C6.66664 27.2247 6.74438 27.5989 6.91202 27.9468C7.26862 28.6869 7.8335 29.138 8.5965 29.2974C8.7288 29.3251 8.86684 29.33 9.00223 29.3304C10.0577 29.3329 11.1131 29.3318 12.1685 29.3318C15.7725 29.3318 19.3764 29.3305 22.9803 29.3333C23.4664 29.3338 23.9101 29.1993 24.3102 28.9069C24.8458 28.5153 25.1764 27.9763 25.3019 27.294C25.3132 27.2329 25.3229 27.1714 25.3334 27.11V8.22486C25.3262 8.1986 25.3153 8.17294 25.3124 8.14633ZM11.3386 12.2468C11.9654 12.2363 12.4986 12.8025 12.5037 13.4796C12.5091 14.1855 11.9619 14.7385 11.3511 14.7395C10.7061 14.7406 10.1835 14.1865 10.1805 13.4988C10.1773 12.7746 10.7354 12.2399 11.3386 12.2468ZM11.3388 24.7381C10.6981 24.7343 10.1785 24.1745 10.1808 23.4838C10.1832 22.7645 10.7407 22.2443 11.3398 22.243C11.9673 22.2416 12.5154 22.8046 12.5008 23.4907C12.5135 24.1891 11.9554 24.7417 11.3388 24.7381ZM11.3469 19.7362C10.708 19.7396 10.1849 19.1872 10.1807 18.5047C10.1764 17.8125 10.6942 17.2478 11.3319 17.2424C11.9557 17.2371 12.4994 17.7911 12.5038 18.4827C12.5081 19.1716 11.9727 19.7415 11.3469 19.7362ZM14.846 5.98912C14.8572 5.26146 15.3879 4.74218 16.0161 4.74691C16.6641 4.75164 17.1715 5.30439 17.1725 6.00379C17.1605 6.70993 16.6361 7.2434 15.9969 7.24139C15.3623 7.23938 14.8355 6.66593 14.846 5.98912ZM14.4627 13.0389C14.4681 12.8367 14.6305 12.6767 14.8235 12.6599C14.8527 12.6574 14.8823 12.6585 14.9116 12.6585C17.198 12.6584 19.4842 12.6582 21.7705 12.6591C21.8251 12.6591 21.8814 12.6619 21.9339 12.6762C22.1047 12.7229 22.2225 12.8711 22.2262 13.0586C22.232 13.3458 22.2314 13.6334 22.2265 13.9208C22.2223 14.1693 22.0164 14.3288 21.8514 14.3189C21.8111 14.3165 21.7705 14.3193 21.7301 14.3193C20.6017 14.3193 19.4733 14.3193 18.3447 14.3193C17.2162 14.3193 16.0806 14.3193 14.9484 14.3193C14.9043 14.3193 14.8602 14.3199 14.8161 14.3172C14.6291 14.3055 14.4688 14.1488 14.463 13.9481C14.4543 13.6452 14.4545 13.3417 14.4627 13.0389ZM22.2264 23.9255C22.2219 24.1707 22.0179 24.3318 21.8495 24.3218C21.8092 24.3193 21.7687 24.3221 21.7283 24.3221H14.9576C14.9172 24.3221 14.8766 24.3199 14.8363 24.3217C14.6287 24.3304 14.4542 24.1166 14.4583 23.9135C14.4609 23.7798 14.4584 23.6458 14.4583 23.5119C14.4583 23.3702 14.4561 23.2284 14.4591 23.0868C14.4643 22.8396 14.6271 22.6676 14.8583 22.6614C14.884 22.6607 14.9098 22.6611 14.9355 22.6611C17.2071 22.6611 19.4787 22.661 21.7503 22.6619C21.8122 22.6619 21.8761 22.6639 21.9355 22.6799C22.1063 22.726 22.2228 22.8754 22.2263 23.0634C22.2317 23.3506 22.2317 23.6382 22.2263 23.9255H22.2264ZM22.2261 18.9225C22.221 19.1443 22.0569 19.3112 21.8494 19.3233C21.82 19.3251 21.7905 19.324 21.7612 19.324C19.4822 19.3242 17.2033 19.3243 14.9243 19.3231C14.8591 19.3231 14.7914 19.318 14.729 19.2994C14.5804 19.2552 14.4661 19.1102 14.4626 18.9458C14.4559 18.643 14.4544 18.3395 14.4627 18.0366C14.4682 17.8357 14.6283 17.6775 14.8144 17.6657C14.8622 17.6627 14.91 17.6634 14.9578 17.6634C16.0899 17.6633 17.222 17.6633 18.3541 17.6633C19.4862 17.6633 20.6257 17.6631 21.7615 17.664C21.8272 17.6641 21.8957 17.6631 21.958 17.6815C22.1117 17.727 22.2232 17.8828 22.2263 18.0604C22.2313 18.3477 22.2327 18.6353 22.2261 18.9225Z" fill="#F8F9FA"/>
</svg>
