<svg width="32" height="32" viewBox="0 0 32 32" fill="none" xmlns="http://www.w3.org/2000/svg">
<path d="M26.6643 9.13377C26.6643 9.04649 26.6574 8.95772 26.6404 8.8723C26.6149 8.74503 26.5862 8.61714 26.5437 8.4947C26.3915 8.05558 26.1173 7.70385 25.739 7.43037C25.5281 7.27785 25.2972 7.16717 25.0457 7.094C24.8353 7.03272 24.6227 6.9988 24.4035 6.99905C23.6703 7.00016 22.2039 6.99211 22.2039 6.99211H22.1178V6.90904C22.1222 6.13974 22.1224 5.37055 22.1217 4.60124C22.1217 4.54999 22.122 4.49725 22.1111 4.44761C22.0563 4.20013 21.831 3.99585 21.5155 4.00006C20.8973 4.00823 20.2789 4.00192 19.6606 4.00353C19.6058 4.00353 19.5504 4.01529 19.4962 4.02594C19.2751 4.06976 19.0814 4.30721 19.0821 4.5511C19.0844 5.34096 19.0829 6.13082 19.083 6.92068V6.99211H13.0008V6.91672C13.0049 6.13726 13.0054 5.35768 13.0039 4.5781C13.0038 4.51743 12.9969 4.45466 12.9801 4.39647C12.9158 4.17251 12.7008 4.00513 12.4712 4.0039C11.8153 4.00055 11.1594 4.0018 10.5036 4.00452C10.4435 4.00477 10.3797 4.01987 10.3244 4.04339C10.0887 4.14343 9.96783 4.32269 9.96758 4.5771C9.96708 5.35458 9.96732 6.13206 9.96594 6.90966V6.99211H9.88493C9.16848 6.99942 8.45203 7.0014 7.73559 6.99843C7.44502 6.99732 7.16587 7.04325 6.89323 7.1434C6.63577 7.23799 6.40503 7.37244 6.1976 7.5491C6.04912 7.67551 5.92233 7.81985 5.80897 7.9777C5.59954 8.26938 5.48265 8.59684 5.42622 8.94597C5.4054 9.07546 5.40278 9.20892 5.40278 9.34052C5.40165 14.7501 5.40165 20.1595 5.40228 25.5689C5.40228 25.8331 5.41819 26.0953 5.49306 26.3526C5.54887 26.5441 5.62349 26.7256 5.72633 26.8961C5.8802 27.1515 6.07759 27.3686 6.31799 27.5482C6.57783 27.7424 6.86689 27.8751 7.18342 27.9471C7.37052 27.9897 7.56127 28 7.75377 28C13.2809 27.9986 18.808 27.999 24.3352 27.9979C24.4594 27.9979 24.5855 27.9936 24.7077 27.9734C24.8668 27.9471 25.0283 27.9183 25.1789 27.8641C25.7138 27.6716 26.1226 27.3256 26.3977 26.8333C26.5689 26.527 26.6667 26.2003 26.6666 25.8446C26.6648 20.2744 26.6655 14.7041 26.6643 9.13377ZM24.397 25.4145C24.397 25.5309 24.3732 25.6348 24.2643 25.698C24.2267 25.7199 24.182 25.7318 24.1393 25.743C24.1158 25.7492 24.0895 25.7447 24.0644 25.7447C18.7168 25.7447 13.3692 25.7446 8.02177 25.7456C7.92445 25.7456 7.83892 25.7298 7.76945 25.6556C7.71816 25.6008 7.69885 25.536 7.69195 25.4655C7.68932 25.4389 7.69119 25.4119 7.69119 25.385C7.69107 20.7964 7.69106 16.2077 7.69131 11.619C7.69131 11.4998 7.67439 11.511 7.80231 11.511C10.5492 11.5108 13.2961 11.5109 16.043 11.5109H24.2899C24.3108 11.5109 24.3342 11.5052 24.3518 11.5126C24.3696 11.5202 24.3849 11.539 24.3951 11.5563C24.4015 11.5671 24.3965 11.5846 24.3965 11.5989C24.3965 16.2041 24.3965 20.8093 24.397 25.4145Z" fill="#F8F9FA"/>
<path d="M17.5704 16.8957C17.5677 17.1821 17.4361 17.3816 17.1495 17.4802C17.0862 17.502 17.0135 17.4964 16.9452 17.5033C16.941 17.5037 16.9368 17.5033 16.9326 17.5033H16.043C15.7403 17.5033 15.4374 17.5037 15.1347 17.5032C14.9886 17.503 14.8529 17.4691 14.7369 17.3762C14.5896 17.2583 14.5202 17.1017 14.5194 16.9186C14.5168 16.3043 14.5158 15.6899 14.5197 15.0756C14.5213 14.8036 14.675 14.602 14.9383 14.5155C14.9982 14.4958 15.0661 14.4937 15.1303 14.4936C15.738 14.492 16.3456 14.4917 16.9533 14.493C17.2071 14.4935 17.4055 14.5947 17.5106 14.8297C17.548 14.9132 17.5688 15.0107 17.5697 15.1021C17.5747 15.6999 17.5763 16.2979 17.5704 16.8957Z" fill="#F8F9FA"/>
<path d="M22.1213 16.9521C22.1206 17.2099 21.9351 17.4138 21.6961 17.4834C21.6353 17.5012 21.5679 17.5023 21.5036 17.5024C20.902 17.5038 20.3003 17.5034 19.6987 17.5032C19.46 17.5032 19.2696 17.4147 19.1501 17.2031C19.1074 17.1277 19.082 17.0472 19.0825 16.9585C19.0841 16.6388 19.0831 16.3191 19.0831 15.9995C19.0831 15.6881 19.0869 15.3766 19.0819 15.0653C19.0775 14.7899 19.2687 14.5834 19.5032 14.5131C19.5619 14.4954 19.6271 14.4935 19.6895 14.4934C20.2973 14.4921 20.9052 14.4936 21.513 14.4922C21.8019 14.4916 22.0028 14.6513 22.0818 14.8547C22.1052 14.915 22.1201 14.9824 22.1203 15.0466C22.1231 15.6818 22.1232 16.317 22.1213 16.9521Z" fill="#F8F9FA"/>
<path d="M17.5743 21.394C17.5726 21.6574 17.4617 21.8614 17.2056 21.9677C17.1532 21.9893 17.0931 22.0032 17.0364 22.0034C16.3766 22.0058 15.7169 22.0063 15.0571 22.0042C14.8435 22.0036 14.6237 21.8385 14.562 21.6338C14.5392 21.5581 14.5235 21.4772 14.5231 21.3985C14.52 20.8028 14.5204 20.2071 14.5219 19.6113C14.5226 19.3492 14.6347 19.152 14.8851 19.0469C14.9425 19.0229 15.0087 19.0092 15.071 19.0084C15.3967 19.0047 15.7224 19.0067 16.0481 19.0067C16.3592 19.0066 16.6704 19.0108 16.9814 19.0053C17.263 19.0002 17.4756 19.1815 17.5488 19.4178C17.5685 19.4816 17.5741 19.5518 17.5744 19.6191C17.5763 20.2108 17.578 20.8024 17.5743 21.394Z" fill="#F8F9FA"/>
<path d="M13.0048 16.9496C13.0061 17.2032 12.8241 17.4114 12.5837 17.4833C12.523 17.5014 12.4557 17.5025 12.3912 17.5027C11.7877 17.504 11.1841 17.5024 10.5805 17.5039C10.291 17.5046 10.0925 17.354 10.0076 17.1462C9.98405 17.0887 9.96925 17.0232 9.969 16.9613C9.96624 16.3179 9.96637 15.6746 9.96775 15.0312C9.96825 14.8155 10.1314 14.5965 10.3406 14.5336C10.4168 14.5107 10.4987 14.495 10.5781 14.4945C11.1838 14.4914 11.7894 14.4919 12.3951 14.4931C12.6614 14.4938 12.8594 14.6069 12.966 14.8532C12.9898 14.9081 13.002 14.972 13.0027 15.0319C13.0061 15.3536 13.0043 15.6753 13.0043 15.997C13.0045 16.3145 13.0032 16.6321 13.0048 16.9496Z" fill="#F8F9FA"/>
<path d="M22.1235 21.4286C22.1251 21.6931 21.9493 21.9298 21.6736 21.9954C21.6417 22.0031 21.6074 22.0038 21.5742 22.0038C20.9268 22.0043 20.2795 22.0051 19.6323 22.0037C19.3847 22.0032 19.1683 21.8343 19.1054 21.5955C19.0926 21.5469 19.0844 21.4955 19.084 21.4453C19.0821 21.132 19.083 20.8187 19.083 20.5053C19.083 20.192 19.0869 19.8826 19.0819 19.5715C19.0778 19.325 19.2406 19.117 19.4489 19.0396C19.5039 19.0192 19.5654 19.0072 19.6241 19.0071C20.2756 19.0048 20.9271 19.0047 21.5786 19.0062C21.811 19.0067 22.0274 19.1758 22.0931 19.3916C22.1114 19.4516 22.1208 19.5166 22.1211 19.5794C22.1231 20.1958 22.1197 20.8122 22.1235 21.4286Z" fill="#F8F9FA"/>
<path d="M13.0065 21.4411C13.0141 21.7514 12.7308 22.0104 12.4331 22.0068C11.8026 21.9992 11.1719 21.9996 10.5413 22.0066C10.244 22.0101 9.96259 21.7569 9.9656 21.436C9.97149 20.8134 9.96899 20.1908 9.96648 19.5682C9.96548 19.3308 10.116 19.1223 10.3342 19.0402C10.389 19.0197 10.4505 19.0074 10.509 19.0072C11.1605 19.0049 11.812 19.0046 12.4636 19.0063C12.701 19.007 12.9206 19.1812 12.981 19.4039C12.9954 19.4567 13.0034 19.5126 13.0038 19.5671C13.006 19.8805 13.0048 20.1939 13.0048 20.5073C13.0048 20.8206 12.9989 21.13 13.0065 21.4411Z" fill="#F8F9FA"/>
</svg>
