<svg width="32" height="32" viewBox="0 0 32 32" fill="none" xmlns="http://www.w3.org/2000/svg">
<path d="M24.6558 28H7.36039C7.34166 27.9926 7.32335 27.9824 7.30392 27.9781C7.17848 27.9514 7.04902 27.9372 6.92788 27.898C6.52256 27.7667 6.17385 27.5448 5.8948 27.2254C5.51807 26.7941 5.33407 26.2897 5.33393 25.7221C5.33296 22.741 5.33297 19.76 5.33435 16.7788C5.33449 16.4896 5.37903 16.2063 5.48893 15.9352C5.62339 15.6032 5.82168 15.3147 6.0917 15.0751C6.43805 14.7679 6.84435 14.5812 7.30392 14.5154C7.47682 14.4907 7.65415 14.4922 7.82955 14.4898C8.11151 14.486 8.39361 14.4888 8.67557 14.4888H8.7634C8.7634 14.4512 8.7634 14.4221 8.7634 14.3931C8.7634 13.2849 8.76077 12.1767 8.76577 11.0685C8.76688 10.8183 8.79365 10.5679 8.81419 10.3182C8.84264 9.97188 8.90785 9.62926 9.01137 9.29701C9.10045 9.01108 9.19426 8.7261 9.29985 8.44577C9.4536 8.03784 9.6648 7.65724 9.90249 7.29097C10.301 6.67676 10.7847 6.13618 11.3514 5.66704C11.8848 5.22551 12.4697 4.86785 13.1081 4.59094C13.4883 4.42604 13.8802 4.29913 14.2802 4.19598C14.4831 4.14366 14.6892 4.10391 14.8966 4.07399C15.1331 4.03997 15.3719 4.00814 15.6103 4.00254C15.9308 3.99489 16.2522 4.00568 16.5727 4.01948C16.9413 4.03519 17.3044 4.0938 17.6617 4.18492C17.8322 4.22836 18.006 4.26306 18.1724 4.3188C18.4316 4.40569 18.6908 4.49585 18.9411 4.60473C19.4699 4.83465 19.9636 5.12578 20.4212 5.4751C20.9931 5.91158 21.491 6.41774 21.9099 6.99862C22.2897 7.52527 22.5922 8.09112 22.816 8.69892C22.9468 9.05425 23.0477 9.41709 23.1226 9.78636C23.1686 10.0127 23.2005 10.2429 23.22 10.473C23.2413 10.7242 23.2481 10.9774 23.2488 11.2297C23.2517 12.2856 23.25 13.3415 23.25 14.3974V14.4888C23.286 14.4888 23.3111 14.4888 23.3361 14.4888C23.5672 14.4888 23.7985 14.4829 24.0294 14.4903C24.2895 14.4986 24.5501 14.511 24.8089 14.5366C25.0078 14.5562 25.195 14.6284 25.3747 14.715C25.8394 14.9388 26.1926 15.2744 26.4275 15.73C26.5763 16.0184 26.6652 16.3201 26.6651 16.6462C26.6642 19.6795 26.6634 22.713 26.6666 25.7464C26.6669 26.0337 26.6238 26.3076 26.5173 26.5747C26.373 26.9365 26.1485 27.2415 25.8455 27.4866C25.5139 27.7551 25.1352 27.9273 24.7046 27.9788C24.6877 27.9809 24.672 27.9926 24.6558 27.9999V28ZM16.0064 14.5025C17.1111 14.5025 18.2158 14.5025 19.3205 14.5025C19.3939 14.5025 19.4307 14.4672 19.4308 14.3964C19.4308 13.3406 19.4317 12.285 19.4302 11.2293C19.4298 10.9525 19.4087 10.6778 19.3472 10.4056C19.2659 10.0455 19.1301 9.70808 18.9355 9.39483C18.5541 8.78075 18.0278 8.32842 17.3569 8.03893C17.0435 7.90369 16.7161 7.81489 16.3779 7.78333C16.0406 7.75191 15.7017 7.75874 15.3652 7.82363C15.0685 7.88074 14.784 7.97063 14.5141 8.10068C13.9693 8.36298 13.5243 8.74154 13.1789 9.23403C12.8868 9.65057 12.7034 10.1108 12.6203 10.6074C12.5882 10.7989 12.5835 10.9965 12.5828 11.1913C12.5795 12.2629 12.5811 13.3345 12.5811 14.4062C12.5811 14.4705 12.6135 14.5027 12.6783 14.5028C13.7875 14.5028 14.8969 14.5028 16.0062 14.5028L16.0064 14.5025Z" fill="#F8F9FA"/>
</svg>
