<svg xmlns="http://www.w3.org/2000/svg" width="24" height="24" fill="none" viewBox="0 0 24 24">
  <path stroke="#fff" stroke-linecap="round" stroke-linejoin="round" stroke-width="2" d="M16 3.5a1.5 1.5 0 0 0-3 0v5a1.5 1.5 0 0 0 3 0v-5Z"/>
  <path stroke="#000" stroke-linecap="round" stroke-linejoin="round" stroke-opacity=".04" stroke-width="2" d="M16 3.5a1.5 1.5 0 0 0-3 0v5a1.5 1.5 0 0 0 3 0v-5Z"/>
  <path stroke="#fff" stroke-linecap="round" stroke-linejoin="round" stroke-width="2" d="M19 8.5V10h1.5A1.5 1.5 0 1 0 19 8.5Z"/>
  <path stroke="#000" stroke-linecap="round" stroke-linejoin="round" stroke-opacity=".04" stroke-width="2" d="M19 8.5V10h1.5A1.5 1.5 0 1 0 19 8.5Z"/>
  <path stroke="#fff" stroke-linecap="round" stroke-linejoin="round" stroke-width="2" d="M11 15.5a1.5 1.5 0 0 0-3 0v5a1.5 1.5 0 0 0 3 0v-5Z"/>
  <path stroke="#000" stroke-linecap="round" stroke-linejoin="round" stroke-opacity=".04" stroke-width="2" d="M11 15.5a1.5 1.5 0 0 0-3 0v5a1.5 1.5 0 0 0 3 0v-5Z"/>
  <path stroke="#fff" stroke-linecap="round" stroke-linejoin="round" stroke-width="2" d="M5 15.5V14H3.5A1.5 1.5 0 1 0 5 15.5Z"/>
  <path stroke="#000" stroke-linecap="round" stroke-linejoin="round" stroke-opacity=".04" stroke-width="2" d="M5 15.5V14H3.5A1.5 1.5 0 1 0 5 15.5Z"/>
  <path stroke="#fff" stroke-linecap="round" stroke-linejoin="round" stroke-width="2" d="M20.5 13h-5a1.5 1.5 0 0 0 0 3h5a1.5 1.5 0 0 0 0-3Z"/>
  <path stroke="#000" stroke-linecap="round" stroke-linejoin="round" stroke-opacity=".04" stroke-width="2" d="M20.5 13h-5a1.5 1.5 0 0 0 0 3h5a1.5 1.5 0 0 0 0-3Z"/>
  <path stroke="#fff" stroke-linecap="round" stroke-linejoin="round" stroke-width="2" d="M15.5 19H14v1.5a1.5 1.5 0 1 0 1.5-1.5"/>
  <path stroke="#000" stroke-linecap="round" stroke-linejoin="round" stroke-opacity=".04" stroke-width="2" d="M15.5 19H14v1.5a1.5 1.5 0 1 0 1.5-1.5"/>
  <path stroke="#fff" stroke-linecap="round" stroke-linejoin="round" stroke-width="2" d="M8.5 8h-5a1.5 1.5 0 1 0 0 3h5a1.5 1.5 0 0 0 0-3Z"/>
  <path stroke="#000" stroke-linecap="round" stroke-linejoin="round" stroke-opacity=".04" stroke-width="2" d="M8.5 8h-5a1.5 1.5 0 1 0 0 3h5a1.5 1.5 0 0 0 0-3Z"/>
  <path stroke="#fff" stroke-linecap="round" stroke-linejoin="round" stroke-width="2" d="M8.5 5H10V3.5A1.5 1.5 0 1 0 8.5 5Z"/>
  <path stroke="#000" stroke-linecap="round" stroke-linejoin="round" stroke-opacity=".04" stroke-width="2" d="M8.5 5H10V3.5A1.5 1.5 0 1 0 8.5 5Z"/>
</svg>
