<svg width="32" height="32" viewBox="0 0 32 32" fill="none" xmlns="http://www.w3.org/2000/svg">
<path d="M25.3055 10.3332C25.2869 10.1662 25.2575 9.99914 25.2173 9.83564C25.1498 9.56037 25.0439 9.29768 24.9094 9.04573C24.72 8.69062 24.4791 8.37197 24.1855 8.09063C23.8638 7.78243 23.4998 7.52991 23.0858 7.35356C22.8503 7.25323 22.6035 7.17296 22.3552 7.10641C22.1786 7.05893 21.9911 7.05045 21.8085 7.02304C21.5087 6.97796 21.209 7.00029 20.9117 7.0359C20.5911 7.07448 20.2792 7.15643 19.9803 7.27485C19.5429 7.44795 19.1459 7.68761 18.8012 8.00005C18.2822 8.47046 17.9152 9.03245 17.713 9.6949C17.6169 10.0102 17.5602 10.3312 17.5549 10.6564C17.551 10.9037 17.5775 11.1542 17.62 11.3987C17.6599 11.6276 17.7226 11.8559 17.8034 12.0747C17.9623 12.5043 18.207 12.8899 18.521 13.2307C18.9786 13.7274 19.5306 14.0917 20.1867 14.3034C20.2941 14.3381 20.3428 14.41 20.3328 14.5192C20.3324 14.5238 20.3322 14.5286 20.3319 14.5333C20.3199 14.856 20.2591 15.1702 20.1517 15.4761C20.0072 15.8872 19.7539 16.2184 19.3801 16.4626C19.1141 16.6363 18.8256 16.7633 18.5181 16.8499C18.3184 16.9062 18.1182 16.9627 17.9155 17.0075C17.7479 17.0444 17.5765 17.066 17.4062 17.0913C17.1971 17.1222 16.988 17.1544 16.7779 17.1776C16.4925 17.2091 16.2062 17.2324 15.9201 17.2593C15.6075 17.2885 15.2949 17.3174 14.9824 17.3473C14.803 17.3646 14.6235 17.3802 14.4449 17.403C14.2403 17.429 14.0365 17.4606 13.8327 17.4922C13.6695 17.5173 13.5055 17.5395 13.3445 17.574C13.1247 17.621 12.9056 17.6725 12.6897 17.7331C12.4807 17.7917 12.2748 17.8614 12.0697 17.9319C11.9575 17.9705 11.8493 18.0207 11.7287 18.07V17.967C11.7287 15.7922 11.7287 13.6175 11.7289 11.4427C11.7289 11.4239 11.7303 11.405 11.7286 11.3864C11.7248 11.3471 11.7426 11.3297 11.7816 11.316C11.8974 11.2753 12.012 11.2309 12.1252 11.1842C12.714 10.9415 13.2026 10.5723 13.6015 10.0914C13.9366 9.68741 14.1823 9.23833 14.3098 8.73442C14.3621 8.52825 14.4081 8.31884 14.4321 8.10815C14.4711 7.76604 14.4506 7.42421 14.3867 7.08408C14.3365 6.8163 14.2588 6.55686 14.1505 6.30688C14.0425 6.05762 13.9057 5.82276 13.7438 5.60077C13.2712 4.95343 12.646 4.4987 11.8802 4.22273C11.5557 4.10587 11.2168 4.03832 10.8718 4.01288C10.4938 3.98505 10.1144 3.99932 9.74547 4.08537C9.4977 4.14317 9.25329 4.22273 9.01709 4.31557C8.42893 4.5466 7.94275 4.91457 7.5417 5.38711C7.25627 5.72342 7.04058 6.09733 6.89024 6.50839C6.79866 6.75907 6.73331 7.01498 6.69888 7.27683C6.65272 7.62755 6.65507 7.97843 6.7169 8.33C6.75749 8.56147 6.81478 8.78629 6.89346 9.008C7.04234 9.42698 7.26725 9.80484 7.55928 10.1438C8.02246 10.6818 8.59861 11.068 9.28406 11.2976C9.36421 11.3245 9.38985 11.3558 9.38985 11.4385C9.38721 14.4795 9.38766 17.5203 9.38766 20.5612C9.38766 20.5754 9.38633 20.5895 9.3878 20.6035C9.39293 20.6498 9.37637 20.6725 9.32611 20.689C9.19599 20.7317 9.06632 20.7779 8.94206 20.8341C8.41076 21.0745 7.95125 21.4073 7.57555 21.8436C7.19824 22.2817 6.93303 22.7744 6.78899 23.3289C6.7273 23.5667 6.68672 23.8068 6.67265 24.05C6.64833 24.4674 6.69961 24.8779 6.81874 25.2811C6.92893 25.654 7.09421 26.0012 7.31649 26.3234C7.57848 26.7033 7.90158 27.0257 8.28533 27.294C8.58044 27.5005 8.89855 27.6635 9.23952 27.7824C9.5295 27.8834 9.82855 27.9562 10.1385 27.9778C10.1667 27.9798 10.1943 27.9924 10.2221 28H10.8957C10.9237 27.9924 10.9512 27.9802 10.9797 27.9778C11.3058 27.9503 11.6187 27.8717 11.9255 27.7626C12.4324 27.5824 12.8775 27.3092 13.2633 26.9475C13.7124 26.5267 14.0409 26.0321 14.242 25.4569C14.3371 25.1844 14.4015 24.9073 14.4319 24.6239C14.4623 24.3384 14.4553 24.0523 14.4159 23.7655C14.3793 23.4976 14.3155 23.2378 14.2233 22.9844C14.1092 22.6704 13.9526 22.3751 13.7526 22.1042C13.3455 21.5532 12.8294 21.1258 12.1863 20.8471C12.1151 20.8163 12.0448 20.7837 11.9514 20.7417C12.0606 20.6233 12.1516 20.5121 12.2561 20.4141C12.46 20.2228 12.7105 20.1017 12.9748 20.0091C13.138 19.9521 13.3059 19.9067 13.4733 19.8615C13.5851 19.8312 13.6992 19.8079 13.8132 19.7862C13.9798 19.7542 14.1464 19.721 14.3145 19.6979C14.5504 19.6655 14.7875 19.6409 15.0243 19.6146C15.2155 19.5933 15.4069 19.5734 15.5984 19.555C15.7462 19.5407 15.8945 19.5308 16.0423 19.517C16.2434 19.4982 16.4443 19.4778 16.6452 19.4571C16.8967 19.4311 17.1492 19.4116 17.3993 19.3755C17.7136 19.3303 18.0269 19.2755 18.3389 19.2164C18.5625 19.1742 18.788 19.1322 19.0041 19.0651C19.3162 18.9683 19.6236 18.8558 19.9275 18.7371C20.3009 18.5913 20.6407 18.3869 20.9566 18.1466C21.3458 17.8502 21.671 17.4997 21.9348 17.093C22.1593 16.7466 22.3292 16.3782 22.4444 15.9876C22.5172 15.7406 22.5766 15.488 22.6157 15.234C22.658 14.9605 22.6742 14.6827 22.6913 14.406C22.6959 14.3338 22.7172 14.296 22.7851 14.2761C22.8266 14.2638 22.8673 14.2484 22.9076 14.2327C23.4988 14.0024 23.9973 13.6477 24.4104 13.1815C24.8379 12.699 25.119 12.1435 25.2539 11.5237C25.3013 11.3067 25.3197 11.0823 25.3309 10.8603C25.3395 10.6852 25.325 10.5078 25.3055 10.3332ZM10.5547 25.0016C10.1201 24.9989 9.77976 24.6733 9.77962 24.2511C9.77947 23.8468 10.1286 23.5108 10.5572 23.5099C10.971 23.5092 11.3419 23.8573 11.3217 24.2565C11.3391 24.6534 10.9838 25.0041 10.5547 25.0016ZM10.5511 8.50508C10.1259 8.50126 9.78035 8.16877 9.77976 7.76562C9.77888 7.34141 10.1197 7.01724 10.5533 7.01399C10.9842 7.0106 11.3385 7.36147 11.3217 7.75784C11.342 8.16043 10.9688 8.50889 10.5511 8.50508ZM21.4385 11.5001C21.0168 11.5165 20.6621 11.1475 20.667 10.7533C20.6722 10.3521 21.0177 10.0112 21.4451 10.0119C21.8668 10.0126 22.2132 10.3534 22.2135 10.7619C22.2138 11.1639 21.8582 11.5148 21.4385 11.5001Z" fill="#F8F9FA"/>
</svg>
