<svg width="83" height="40" viewBox="0 0 83 40" fill="none" xmlns="http://www.w3.org/2000/svg">
<path d="M82.069 39.9922V14.7331H79.9647V37.8951H65.2329V40H82.069V39.9922ZM72.0857 25.2592L69.7508 21.7641L72.0857 18.2612H70.0865L68.2178 21.0625H67.0069V14.751H65.2559V25.249H67.0069V22.4555H68.2178L70.0865 25.2596H72.0857V25.2592ZM59.5423 21.7563C59.5418 21.3297 59.6714 20.913 59.914 20.5612C60.1562 20.2104 60.5002 19.9415 60.9001 19.7902C61.2996 19.6391 61.736 19.6136 62.1505 19.717C62.565 19.8205 62.9376 20.0479 63.2181 20.3686L64.4007 19.3445C63.9089 18.7819 63.2558 18.3824 62.5292 18.1996C61.8035 18.0171 61.0389 18.0604 60.3387 18.3237C59.6373 18.5878 59.0337 19.0587 58.6087 19.6735C58.1822 20.2896 57.9539 21.0201 57.9539 21.7682C57.9539 22.5162 58.1822 23.2467 58.6087 23.8629C59.0338 24.4774 59.6374 24.9482 60.3387 25.2122C61.0389 25.4756 61.8034 25.5191 62.5292 25.3367C63.2559 25.1538 63.9089 24.7542 64.4007 24.1914L63.2181 23.1673C62.9367 23.489 62.5626 23.7168 62.1466 23.8197C61.7306 23.9227 61.2929 23.8958 60.8927 23.7429C60.4922 23.5898 60.1484 23.3184 59.9075 22.9653C59.6659 22.6111 59.5386 22.1921 59.5423 21.7641V21.7563ZM55.2927 25.2592H57.0437V18.2539H55.2927V19.022C54.9972 18.7188 54.6431 18.4782 54.2517 18.3147C53.861 18.1515 53.4411 18.0689 53.0174 18.0718C51.1203 18.0718 49.6895 19.6494 49.6895 21.7514C49.6895 23.8535 51.1203 25.4282 53.0174 25.4282C53.4411 25.4311 53.861 25.3485 54.2517 25.1853C54.6427 25.022 54.9969 24.7816 55.2927 24.4784V25.2592ZM55.4671 21.7563C55.4671 22.1719 55.3438 22.5783 55.1126 22.9245C54.8821 23.2699 54.5536 23.5394 54.1688 23.6988C53.7847 23.8581 53.3615 23.8997 52.9534 23.8183C52.5453 23.7369 52.171 23.5363 51.8783 23.242C51.5843 22.9468 51.3844 22.5719 51.3037 22.1642C51.223 21.7566 51.265 21.3343 51.4244 20.9502C51.5835 20.5667 51.8532 20.2386 52.1996 20.0073C52.6036 19.7375 53.0895 19.6162 53.5737 19.6642C54.058 19.7121 54.5103 19.9264 54.8528 20.2702C55.0481 20.4656 55.2027 20.6974 55.3079 20.9522C55.4132 21.2074 55.4673 21.4805 55.4671 21.7563ZM46.0571 25.2592H49.0342V23.8559H47.808V19.6543H48.9472V18.2539H47.808V17.0865H46.0571V25.2592ZM38.5285 17.6392C38.5285 16.6918 39.3168 16.1514 40.7173 16.1514C42.1174 16.1514 42.9057 16.7506 42.9057 17.8159H44.8306C44.8306 15.729 43.3562 14.5743 40.7169 14.5743C38.0779 14.5743 36.606 15.6702 36.606 17.6396C36.606 22.1049 43.0058 19.4776 43.0058 22.3686C43.0058 23.331 42.1888 23.8559 40.73 23.8559C39.2708 23.8559 38.4542 23.2596 38.4542 22.1947H36.5264C36.5264 24.2812 38.0291 25.4335 40.73 25.4335C43.4305 25.4335 44.9307 24.3376 44.9307 22.3608C44.9307 17.8955 38.531 20.5224 38.531 17.6314L38.5285 17.6392ZM32.4029 25.6049L35.8609 18.251H34.0229L32.4029 21.6951L30.782 18.251H28.9445L32.4029 25.6049ZM29.0159 21.7641C29.0177 21.037 28.8035 20.3257 28.4004 19.7192C27.9981 19.1142 27.4243 18.6417 26.7516 18.3616C26.0804 18.0822 25.3406 18.0083 24.6268 18.1494C23.9123 18.291 23.2564 18.641 22.7425 19.1547C22.2272 19.6698 21.8765 20.3251 21.7347 21.038C21.5926 21.7516 21.6654 22.491 21.944 23.1637C22.2217 23.835 22.6932 24.4094 23.299 24.8143C23.9031 25.2181 24.6146 25.4337 25.3425 25.4335C25.8247 25.4322 26.3019 25.3365 26.7469 25.1517C27.1918 24.967 27.5959 24.6968 27.9359 24.3567C28.6249 23.6676 29.0129 22.736 29.0159 21.7641ZM27.4418 21.7641C27.4418 22.18 27.3187 22.5865 27.0873 22.9322C26.8569 23.2775 26.5287 23.547 26.1443 23.7065C25.7602 23.8659 25.3371 23.9077 24.929 23.8264C24.521 23.7452 24.1466 23.5447 23.8538 23.2506C23.5599 22.9555 23.36 22.5808 23.279 22.1734C23.198 21.7659 23.2395 21.3437 23.3983 20.9596C23.557 20.576 23.8265 20.2478 24.1726 20.0163C24.5765 19.7464 25.0622 19.6248 25.5464 19.6725C26.0307 19.7202 26.483 19.9341 26.8259 20.2776C27.2209 20.6724 27.4426 21.207 27.4418 21.7641ZM20.9346 20.0131C20.9346 19.798 20.9198 19.5833 20.8911 19.3702H15.5947V20.9449H19.0659C18.8883 21.7129 18.4588 22.4004 17.8451 22.8988C17.2331 23.3956 16.4715 23.6741 15.6817 23.6898C15.066 23.6918 14.4597 23.5393 13.9189 23.2465C13.3769 22.9532 12.9177 22.5292 12.5832 22.0135C12.2477 21.4965 12.0473 20.9043 12.0004 20.2907C11.9535 19.6771 12.0614 19.0615 12.3144 18.5C12.5666 17.9393 12.956 17.4504 13.447 17.078C13.9365 16.7061 14.5124 16.4632 15.1214 16.3716C15.7304 16.2801 16.3527 16.3429 16.9308 16.5543C17.5094 16.7659 18.0253 17.1187 18.431 17.5804L19.7597 16.4282C19.163 15.7451 18.4034 15.2222 17.5504 14.9073C16.6987 14.5929 15.7811 14.4973 14.8823 14.6293C13.9836 14.7613 13.1328 15.1166 12.4088 15.6624C11.6823 16.2092 11.105 16.9282 10.7297 17.7539C10.3538 18.5809 10.1911 19.4882 10.2565 20.3935C10.322 21.2989 10.6134 22.1737 11.1043 22.9388C11.5942 23.7019 12.2688 24.3307 13.0662 24.7673C13.862 25.2029 14.7553 25.432 15.6637 25.4335C18.5665 25.4335 20.9165 23.011 20.9165 20.0049L20.9346 20.0131ZM2.10384 2.11184H16.8336V0H0V25.2592H2.10425V2.1049V2.11225L2.10384 2.11184Z" fill="black"/>
<path d="M13.5418 31.8597C13.5129 31.6169 13.3961 31.4285 13.1913 31.2943C12.9865 31.1601 12.7353 31.093 12.4377 31.093C12.2201 31.093 12.0297 31.1282 11.8665 31.1984C11.7049 31.2687 11.5785 31.3654 11.4873 31.4884C11.3977 31.6113 11.3529 31.7511 11.3529 31.9076C11.3529 32.0386 11.3841 32.1512 11.4465 32.2455C11.5105 32.3381 11.5921 32.4156 11.6913 32.4779C11.7905 32.5386 11.8945 32.5889 12.0033 32.6288C12.1121 32.6672 12.2121 32.6983 12.3033 32.7223L12.8025 32.8564C12.9305 32.89 13.0729 32.9363 13.2297 32.9954C13.3881 33.0545 13.5394 33.1352 13.6834 33.2374C13.829 33.338 13.949 33.4674 14.0434 33.6255C14.1378 33.7837 14.185 33.9777 14.185 34.2078C14.185 34.4729 14.1154 34.7125 13.9762 34.9265C13.8386 35.1406 13.637 35.3107 13.3713 35.4369C13.1073 35.5631 12.7865 35.6262 12.4089 35.6262C12.0569 35.6262 11.7521 35.5695 11.4945 35.456C11.2385 35.3426 11.0369 35.1845 10.8897 34.9816C10.7441 34.7788 10.6617 34.5432 10.6425 34.2748H11.2569C11.2729 34.4601 11.3353 34.6135 11.4441 34.7349C11.5545 34.8547 11.6937 34.9441 11.8617 35.0032C12.0313 35.0607 12.2137 35.0895 12.4089 35.0895C12.6361 35.0895 12.8401 35.0527 13.0209 34.9793C13.2017 34.9042 13.3449 34.8004 13.4505 34.6678C13.5562 34.5336 13.609 34.3771 13.609 34.1982C13.609 34.0352 13.5634 33.9027 13.4721 33.8004C13.3809 33.6982 13.2609 33.6152 13.1121 33.5513C12.9633 33.4874 12.8025 33.4315 12.6297 33.3836L12.0249 33.211C11.6409 33.1008 11.3369 32.9435 11.1129 32.739C10.8889 32.5346 10.7769 32.267 10.7769 31.9364C10.7769 31.6617 10.8513 31.4221 11.0001 31.2176C11.1505 31.0116 11.3521 30.8518 11.6049 30.7384C11.8593 30.6234 12.1433 30.5659 12.4569 30.5659C12.7737 30.5659 13.0553 30.6226 13.3017 30.736C13.5482 30.8478 13.7434 31.0012 13.8874 31.1961C14.033 31.3909 14.1098 31.6121 14.1178 31.8597H13.5418Z" fill="black"/>
<path d="M15.3652 35.5399H14.7412L16.546 30.633H17.1605L18.9653 35.5399H18.3413L16.8725 31.4093H16.8341L15.3652 35.5399ZM15.5956 33.6231H18.1109V34.1503H15.5956V33.6231Z" fill="black"/>
<path d="M23.6287 30.633V35.5399H23.0527L20.3742 31.6872H20.3262V35.5399H19.731V30.633H20.307L22.9951 34.4953H23.0431V30.633H23.6287Z" fill="black"/>
<path d="M26.3366 35.5399H24.8197V30.633H26.4038C26.8806 30.633 27.2886 30.7312 27.6278 30.9277C27.967 31.1226 28.227 31.4029 28.4078 31.7687C28.5886 32.1329 28.679 32.5689 28.679 33.0769C28.679 33.588 28.5878 34.0281 28.4054 34.397C28.223 34.7644 27.9574 35.0471 27.6086 35.2452C27.2598 35.4417 26.8358 35.5399 26.3366 35.5399ZM25.4149 35.0128H26.2982C26.7046 35.0128 27.0414 34.9345 27.3086 34.778C27.5758 34.6215 27.775 34.3986 27.9062 34.1095C28.0374 33.8204 28.103 33.4762 28.103 33.0769C28.103 32.6807 28.0382 32.3397 27.9086 32.0538C27.779 31.7663 27.5854 31.5459 27.3278 31.3925C27.0702 31.2376 26.7494 31.1601 26.3654 31.1601H25.4149V35.0128Z" fill="black"/>
<path d="M29.6775 35.5399V30.633H31.3959C31.7383 30.633 32.0208 30.6921 32.2432 30.8103C32.4656 30.9269 32.6312 31.0842 32.74 31.2823C32.8488 31.4788 32.9032 31.6968 32.9032 31.9364C32.9032 32.1472 32.8656 32.3213 32.7904 32.4587C32.7168 32.5961 32.6192 32.7047 32.4976 32.7846C32.3776 32.8644 32.2472 32.9235 32.1064 32.9619V33.0098C32.2568 33.0194 32.408 33.0721 32.56 33.1679C32.712 33.2638 32.8392 33.4011 32.9416 33.58C33.044 33.7589 33.0952 33.9777 33.0952 34.2365C33.0952 34.4825 33.0392 34.7037 32.9272 34.9002C32.8152 35.0967 32.6384 35.2524 32.3968 35.3674C32.1552 35.4824 31.8407 35.5399 31.4535 35.5399H29.6775ZM30.2727 35.0128H31.4535C31.8423 35.0128 32.1184 34.9377 32.2816 34.7876C32.4464 34.6358 32.5288 34.4521 32.5288 34.2365C32.5288 34.0704 32.4864 33.917 32.4016 33.7765C32.3168 33.6343 32.196 33.5209 32.0392 33.4363C31.8823 33.35 31.6967 33.3069 31.4823 33.3069H30.2727V35.0128ZM30.2727 32.7894H31.3767C31.5559 32.7894 31.7175 32.7542 31.8615 32.6839C32.0072 32.6137 32.1224 32.5146 32.2072 32.3868C32.2936 32.2591 32.3368 32.1089 32.3368 31.9364C32.3368 31.7208 32.2616 31.5379 32.1112 31.3877C31.9607 31.236 31.7223 31.1601 31.3959 31.1601H30.2727V32.7894Z" fill="black"/>
<path d="M38.2206 33.0865C38.2206 33.604 38.127 34.0512 37.9397 34.4282C37.7525 34.8051 37.4957 35.0959 37.1693 35.3003C36.8429 35.5048 36.4701 35.607 36.0509 35.607C35.6317 35.607 35.2589 35.5048 34.9324 35.3003C34.606 35.0959 34.3492 34.8051 34.162 34.4282C33.9748 34.0512 33.8812 33.604 33.8812 33.0865C33.8812 32.5689 33.9748 32.1217 34.162 31.7447C34.3492 31.3678 34.606 31.0771 34.9324 30.8726C35.2589 30.6681 35.6317 30.5659 36.0509 30.5659C36.4701 30.5659 36.8429 30.6681 37.1693 30.8726C37.4957 31.0771 37.7525 31.3678 37.9397 31.7447C38.127 32.1217 38.2206 32.5689 38.2206 33.0865ZM37.6445 33.0865C37.6445 32.6616 37.5733 32.303 37.4309 32.0107C37.2901 31.7184 37.0989 31.4971 36.8573 31.347C36.6173 31.1969 36.3485 31.1218 36.0509 31.1218C35.7533 31.1218 35.4837 31.1969 35.2421 31.347C35.002 31.4971 34.8108 31.7184 34.6684 32.0107C34.5276 32.303 34.4572 32.6616 34.4572 33.0865C34.4572 33.5113 34.5276 33.8699 34.6684 34.1622C34.8108 34.4545 35.002 34.6758 35.2421 34.8259C35.4837 34.9761 35.7533 35.0511 36.0509 35.0511C36.3485 35.0511 36.6173 34.9761 36.8573 34.8259C37.0989 34.6758 37.2901 34.4545 37.4309 34.1622C37.5733 33.8699 37.6445 33.5113 37.6445 33.0865Z" fill="black"/>
<path d="M39.4302 30.633L40.6974 32.6744H40.7358L42.0031 30.633H42.7039L41.1582 33.0865L42.7039 35.5399H42.0031L40.7358 33.5369H40.6974L39.4302 35.5399H38.7294L40.3134 33.0865L38.7294 30.633H39.4302Z" fill="black"/>
</svg>
