<svg width="100" height="49" viewBox="0 0 100 49" fill="none" xmlns="http://www.w3.org/2000/svg">
<g clip-path="url(#clip0_46_4)">
<mask id="mask0_46_4" style="mask-type:luminance" maskUnits="userSpaceOnUse" x="0" y="0" width="100" height="49">
<path d="M100 0H0V49H100V0Z" fill="white"/>
</mask>
<g mask="url(#mask0_46_4)">
<path d="M100 49V18.0515H97.4361V46.4306H79.4853V49.0094H100V49ZM87.8353 30.9485L84.9906 26.6662L87.8353 22.3745H85.3992L83.1223 25.8066H81.6469V18.0734H79.5134V30.936H81.6469V27.5133H83.1223L85.3992 30.9485H87.8353ZM72.5515 26.6662C72.5461 26.1394 72.7017 25.6237 72.9972 25.1887C73.2926 24.7537 73.7138 24.4204 74.2037 24.2339C74.6936 24.0475 75.2286 24.0168 75.7364 24.146C76.2442 24.2752 76.7003 24.5581 77.043 24.9565L78.4841 23.6859C77.8835 22.9958 77.0879 22.5064 76.2035 22.2829C75.3192 22.0595 74.3881 22.1127 73.5345 22.4353C72.681 22.758 71.9456 23.3348 71.4265 24.0888C70.9074 24.8428 70.6293 25.7381 70.6293 26.6553C70.6293 27.5724 70.9074 28.4677 71.4265 29.2217C71.9456 29.9757 72.681 30.5525 73.5345 30.8752C74.3881 31.1979 75.3192 31.251 76.2035 31.0276C77.0879 30.8041 77.8835 30.3147 78.4841 29.6246L77.043 28.3541C76.7015 28.751 76.2474 29.0332 75.7417 29.1631C75.236 29.2929 74.7029 29.264 74.214 29.0803C73.7251 28.8966 73.3038 28.5668 73.0066 28.1353C72.7094 27.7038 72.5506 27.1912 72.5515 26.6662ZM67.3737 30.9485H69.5072V22.3651H67.3737V23.3063C67.0131 22.9346 66.5817 22.6399 66.1052 22.44C65.6287 22.24 65.117 22.1387 64.6007 22.1424C62.2894 22.1424 60.5458 24.0749 60.5458 26.6506C60.5458 29.2262 62.2894 31.1556 64.6007 31.1556C65.117 31.1592 65.6287 31.058 66.1052 30.858C66.5817 30.658 67.0131 30.3634 67.3737 29.9917V30.9328V30.9485ZM67.5858 26.6568C67.5858 27.1664 67.4355 27.6645 67.154 28.0881C66.8724 28.5117 66.4723 28.8419 66.0042 29.0367C65.5361 29.2316 65.021 29.2824 64.5242 29.1828C64.0274 29.0831 63.5711 28.8375 63.2131 28.477C62.8551 28.1164 62.6114 27.6572 62.513 27.1574C62.4145 26.6576 62.4656 26.1396 62.66 25.669C62.8543 25.1984 63.183 24.7964 63.6045 24.5137C64.026 24.2311 64.5214 24.0806 65.0281 24.0812C65.3642 24.0812 65.6971 24.1478 66.0076 24.2773C66.3181 24.4068 66.6002 24.5965 66.8377 24.8358C67.0753 25.075 67.2636 25.3589 67.392 25.6714C67.5203 25.9839 67.5862 26.3187 67.5858 26.6568ZM56.1198 30.9485H59.7473V29.2293H58.2533V24.0812H59.6413V22.3651H58.2533V20.9346H56.1198V30.9485ZM46.9464 21.6122C46.9464 20.4514 47.907 19.7895 49.6132 19.7895C51.3194 19.7895 52.2801 20.5236 52.2801 21.8287H54.6257C54.6257 19.2718 52.8291 17.857 49.6132 17.857C46.3974 17.857 44.6039 19.1997 44.6039 21.6122C44.6039 27.0835 52.4017 23.8647 52.4017 27.4066C52.4017 28.5862 51.4067 29.2293 49.6288 29.2293C47.8509 29.2293 46.8559 28.4984 46.8559 27.1933H44.5072C44.5072 29.7501 46.3381 31.1618 49.6288 31.1618C52.9195 31.1618 54.7473 29.8191 54.7473 27.3972C54.7473 21.9259 46.9495 25.1447 46.9495 21.6028L46.9464 21.6122ZM39.4822 31.372L43.6962 22.362H41.4566L39.4822 26.5815L37.5078 22.362H35.2682L39.4822 31.372ZM35.3556 26.6662C35.3574 25.7747 35.0962 24.9026 34.605 24.1605C34.1139 23.4183 33.4148 22.8395 32.5963 22.4971C31.7779 22.1548 30.8768 22.0644 30.0072 22.2374C29.1377 22.4105 28.3387 22.8391 27.7115 23.4691C27.0843 24.0991 26.657 24.902 26.4838 25.7764C26.3105 26.6507 26.3991 27.5571 26.7383 28.3808C27.0775 29.2045 27.6521 29.9084 28.3893 30.4035C29.1265 30.8985 29.9932 31.1625 30.8796 31.1618C32.0649 31.1594 33.201 30.6851 34.0397 29.8428C34.8784 29.0004 35.3515 27.8584 35.3556 26.6662ZM33.4373 26.6662C33.4373 27.1757 33.2871 27.6736 33.0057 28.0972C32.7243 28.5208 32.3244 28.8509 31.8565 29.0458C31.3885 29.2408 30.8736 29.2918 30.3769 29.1924C29.8801 29.093 29.4238 28.8477 29.0657 28.4875C28.7076 28.1273 28.4637 27.6683 28.3649 27.1687C28.266 26.6691 28.3168 26.1512 28.5106 25.6806C28.7044 25.2099 29.0326 24.8077 29.4538 24.5247C29.8749 24.2417 30.37 24.0906 30.8765 24.0906C31.5556 24.0906 32.207 24.362 32.6873 24.845C33.1675 25.328 33.4373 25.9831 33.4373 26.6662ZM25.5084 24.5204C25.5085 24.257 25.4908 23.9939 25.4554 23.733H19.0019V25.6623H23.2314C23.0143 26.6045 22.4908 27.447 21.7439 28.0561C20.997 28.6653 20.0694 29.0064 19.1079 29.0254C18.358 29.0281 17.6194 28.8414 16.9598 28.4826C16.3002 28.1238 15.7406 27.6042 15.3324 26.9715C14.9241 26.3388 14.6802 25.6132 14.623 24.8612C14.5658 24.1091 14.6971 23.3546 15.0049 22.6669C15.3127 21.9791 15.7872 21.38 16.3849 20.9244C16.9825 20.4688 17.6843 20.1713 18.4259 20.0592C19.1675 19.9471 19.9252 20.0239 20.6296 20.2826C21.334 20.5413 21.9626 20.9737 22.4579 21.54L24.0767 20.1283C23.3486 19.2906 22.4232 18.6499 21.3852 18.2649C20.3473 17.8799 19.2299 17.7628 18.1353 17.9244C17.0408 18.0859 16.004 18.521 15.1198 19.1898C14.2356 19.8585 13.5323 20.7396 13.0742 21.7525C12.6161 22.7653 12.4178 23.8775 12.4975 24.9873C12.5772 26.0971 12.9323 27.1691 13.5304 28.1051C14.1285 29.0412 14.9504 29.8115 15.921 30.3455C16.8916 30.8795 17.9798 31.1602 19.0861 31.1618C22.6232 31.1618 25.4866 28.1941 25.4866 24.511L25.5084 24.5204ZM2.56393 2.58819H20.5115V0H0V30.9485H2.56393V2.57878V2.58819Z" fill="#000000"/>
</g>
</g>
<defs>
<clipPath id="clip0_46_4">
<rect width="100" height="49" fill="white"/>
</clipPath>
</defs>
</svg>
