<svg width="320" height="79" viewBox="0 0 320 79" fill="none" xmlns="http://www.w3.org/2000/svg">
<g clip-path="url(#clip0_1663_1934)">
<path d="M62.8956 38.1022C62.8956 39.0656 62.1116 39.8574 61.121 39.8574C60.1251 39.8574 59.3353 39.0604 59.3353 38.1022C59.3353 37.1441 60.1251 36.3471 61.121 36.3471C62.1116 36.3471 62.8956 37.1389 62.8956 38.1022ZM55.0956 36.4492C55.0956 37.7202 54.0674 38.7553 52.7639 38.7553C51.456 38.7553 50.421 37.7159 50.421 36.4492C50.421 35.1825 51.456 34.1431 52.7639 34.1431C54.0674 34.1431 55.0956 35.1781 55.0956 36.4492ZM55.9924 46.092C55.9924 45.9598 56.0515 45.767 56.3371 45.5066C56.629 45.2405 57.0817 44.9792 57.6601 44.7503C58.8179 44.292 60.225 44.0614 61.121 44.0614C62.017 44.0614 63.4241 44.292 64.5819 44.7503C65.1603 44.9792 65.6131 45.2405 65.9049 45.5066C66.1905 45.767 66.2496 45.9598 66.2496 46.092V47.5716H55.9924V46.092ZM45.9639 45.8165C45.9639 45.5463 46.0928 45.233 46.4914 44.8694C46.8964 44.5 47.5059 44.1527 48.2583 43.8549C49.7642 43.2589 51.5892 42.9594 52.7639 42.9594C52.8221 42.9594 52.8821 42.9602 52.9438 42.9618C52.708 43.2409 52.5138 43.5264 52.3558 43.8135C51.882 44.6744 51.7639 45.4928 51.7639 46.092V47.5716H45.9639V45.8165Z" stroke="#F8F9FA" stroke-width="2"/>
</g>
<circle cx="161.25" cy="40" r="9" stroke="#F8F9FA" stroke-width="2"/>
<circle cx="268.75" cy="40" r="9" stroke="#F8F9FA" stroke-width="2"/>
<path d="M167.979 20.6765C167.919 20.5203 167.81 20.4417 167.658 20.433C167.642 20.432 167.625 20.4326 167.608 20.4326H161.825C161.751 20.4326 161.76 20.4378 161.76 20.3594C161.76 20.0921 161.76 19.8249 161.76 19.5577V19.499H161.807C162.303 19.499 162.798 19.4999 163.294 19.4986C163.48 19.4981 163.635 19.4148 163.764 19.2682C163.848 19.1731 163.903 19.0601 163.933 18.9324C163.944 18.8894 163.95 18.844 163.95 18.7997C163.951 17.7667 163.953 16.7336 163.949 15.7006C163.949 15.4978 163.863 15.3295 163.729 15.1933C163.637 15.0993 163.53 15.034 163.404 15.0148C163.355 15.0073 163.305 15.0008 163.255 15.0008C161.914 15 160.572 15.0004 159.23 15C158.99 14.9999 158.804 15.114 158.667 15.3278C158.613 15.4116 158.574 15.5048 158.563 15.6092C158.558 15.6588 158.551 15.7087 158.551 15.7584C158.55 16.7582 158.55 17.7579 158.551 18.7578C158.552 19.0299 158.664 19.2366 158.868 19.3849C158.977 19.4646 159.097 19.4996 159.228 19.4994C159.716 19.4984 160.204 19.499 160.693 19.499H160.739C160.739 19.5191 160.741 19.5359 160.741 19.5527C160.741 19.8267 160.741 20.1005 160.741 20.3744C160.741 20.4324 160.741 20.4325 160.687 20.4325C158.749 20.4325 156.811 20.4327 154.873 20.4321C154.747 20.432 154.64 20.4739 154.565 20.5909C154.542 20.6264 154.53 20.6707 154.513 20.7107C154.51 20.7171 154.504 20.722 154.5 20.7276V21.2717C154.507 21.2888 154.514 21.3058 154.52 21.3229C154.581 21.4792 154.69 21.5576 154.841 21.5654C154.857 21.5662 154.873 21.5656 154.888 21.5656H156.973C157.008 21.5656 157.026 21.5852 157.026 21.6242C157.026 21.8978 157.026 22.1714 157.026 22.445C157.026 22.4619 157.024 22.4787 157.024 22.4993H156.975C156.6 22.4993 156.225 22.4999 155.851 22.499C155.611 22.4985 155.425 22.6119 155.286 22.8257C155.232 22.9097 155.193 23.0025 155.182 23.1067C155.176 23.1629 155.17 23.2196 155.17 23.2759C155.169 24.2733 155.168 25.2706 155.17 26.2679C155.171 26.5349 155.285 26.7379 155.485 26.8839C155.597 26.9654 155.719 26.9997 155.852 26.9996C156.977 26.9988 158.103 26.9999 159.228 26.9985C159.474 26.9982 159.66 26.8726 159.793 26.6466C159.865 26.5262 159.896 26.3945 159.896 26.251C159.896 25.2496 159.897 24.2483 159.896 23.247C159.896 22.9714 159.784 22.7625 159.578 22.6125C159.507 22.5613 159.432 22.5253 159.348 22.5138C159.3 22.5073 159.251 22.5002 159.203 22.5C158.832 22.4989 158.461 22.4994 158.089 22.4994H158.044C158.043 22.4814 158.042 22.4673 158.042 22.4532C158.042 22.1738 158.043 21.8946 158.041 21.6154C158.041 21.5747 158.052 21.564 158.088 21.564C160.194 21.5649 162.3 21.5648 164.406 21.5641C164.439 21.5641 164.452 21.5731 164.452 21.6126C164.45 21.8933 164.451 22.1738 164.451 22.4544C164.451 22.4674 164.45 22.4805 164.449 22.4994H164.406C164.03 22.4994 163.654 22.4998 163.278 22.4992C163.039 22.4988 162.854 22.6111 162.716 22.8237C162.661 22.9089 162.622 23.0024 162.61 23.1081C162.605 23.159 162.598 23.2103 162.598 23.2614C162.597 24.2613 162.596 25.2613 162.598 26.2613C162.599 26.5319 162.712 26.7372 162.915 26.8847C163.024 26.9646 163.144 26.9996 163.274 26.9995C164.401 26.999 165.528 26.998 166.655 27C166.952 27.0005 167.208 26.7738 167.293 26.4833C167.313 26.4142 167.323 26.3384 167.323 26.2657C167.325 25.255 167.326 24.2444 167.324 23.2338C167.323 22.9649 167.209 22.7609 167.008 22.6142C166.897 22.5335 166.776 22.4986 166.645 22.499C166.27 22.5001 165.895 22.4994 165.52 22.4994H165.473C165.472 22.481 165.47 22.4644 165.47 22.4478C165.47 22.1725 165.47 21.8973 165.47 21.6221C165.47 21.584 165.487 21.5649 165.521 21.5648C166.226 21.5648 166.931 21.5646 167.637 21.565C167.759 21.565 167.863 21.5203 167.936 21.4073C167.958 21.3717 167.97 21.3275 167.987 21.2874C167.99 21.281 167.996 21.2761 168 21.2705V20.7279C167.993 20.7109 167.986 20.6939 167.98 20.6768L167.979 20.6765ZM158.55 23.9993V25.4914H156.532V23.9993H158.55ZM159.907 17.999V16.5069H162.6V17.999H159.907ZM165.975 23.9993V25.4914H163.957V23.9993H165.975Z" fill="#F8F9FA"/>
<path d="M165.037 44.25H157.47C157.462 44.2468 157.454 44.2423 157.445 44.2404C157.39 44.2287 157.334 44.2225 157.281 44.2054C157.103 44.1479 156.951 44.0509 156.829 43.9111C156.664 43.7224 156.583 43.5018 156.583 43.2534C156.583 41.9492 156.583 40.645 156.583 39.3407C156.584 39.2142 156.603 39.0902 156.651 38.9717C156.71 38.8264 156.797 38.7002 156.915 38.5954C157.066 38.4609 157.244 38.3793 157.445 38.3505C157.521 38.3397 157.598 38.3403 157.675 38.3393C157.798 38.3376 157.922 38.3388 158.045 38.3388H158.084C158.084 38.3224 158.084 38.3097 158.084 38.297C158.084 37.8121 158.083 37.3273 158.085 36.8425C158.085 36.733 158.097 36.6235 158.106 36.5142C158.118 36.3627 158.147 36.2128 158.192 36.0674C158.231 35.9423 158.272 35.8177 158.318 35.695C158.386 35.5166 158.478 35.35 158.582 35.1898C158.756 34.9211 158.968 34.6846 159.216 34.4793C159.449 34.2862 159.705 34.1297 159.985 34.0085C160.151 33.9364 160.322 33.8809 160.497 33.8357C160.586 33.8129 160.676 33.7955 160.767 33.7824C160.87 33.7675 160.975 33.7536 161.079 33.7511C161.219 33.7478 161.36 33.7525 161.5 33.7585C161.662 33.7654 161.82 33.791 161.977 33.8309C162.051 33.8499 162.127 33.8651 162.2 33.8895C162.314 33.9275 162.427 33.9669 162.536 34.0146C162.768 34.1152 162.984 34.2425 163.184 34.3954C163.434 34.5863 163.652 34.8078 163.835 35.0619C164.001 35.2923 164.134 35.5399 164.232 35.8058C164.289 35.9612 164.333 36.12 164.366 36.2815C164.386 36.3806 164.4 36.4813 164.408 36.5819C164.418 36.6918 164.421 36.8026 164.421 36.913C164.422 37.3749 164.422 37.8369 164.422 38.2988V38.3388C164.437 38.3388 164.448 38.3388 164.459 38.3388C164.56 38.3388 164.662 38.3363 164.763 38.3395C164.876 38.3431 164.99 38.3486 165.104 38.3597C165.191 38.3684 165.273 38.3999 165.351 38.4378C165.554 38.5357 165.709 38.6826 165.812 38.8819C165.877 39.0081 165.916 39.14 165.916 39.2827C165.915 40.6098 165.915 41.937 165.916 43.2641C165.916 43.3898 165.898 43.5096 165.851 43.6264C165.788 43.7847 165.69 43.9182 165.557 44.0254C165.412 44.1428 165.246 44.2182 165.058 44.2407C165.051 44.2416 165.044 44.2468 165.037 44.2499V44.25ZM161.253 38.3449C161.736 38.3449 162.219 38.3449 162.702 38.3449C162.735 38.3449 162.751 38.3294 162.751 38.2984C162.751 37.8365 162.751 37.3747 162.75 36.9128C162.75 36.7917 162.741 36.6715 162.714 36.5525C162.679 36.3949 162.619 36.2473 162.534 36.1102C162.367 35.8416 162.137 35.6437 161.843 35.517C161.706 35.4579 161.563 35.419 161.415 35.4052C161.267 35.3915 161.119 35.3944 160.972 35.4228C160.842 35.4478 160.718 35.4871 160.6 35.544C160.361 35.6588 160.167 35.8244 160.015 36.0399C159.888 36.2221 159.807 36.4235 159.771 36.6407C159.757 36.7245 159.755 36.811 159.755 36.8962C159.753 37.365 159.754 37.8338 159.754 38.3027C159.754 38.3309 159.768 38.3449 159.796 38.345C160.282 38.345 160.767 38.345 161.252 38.345L161.253 38.3449Z" fill="#F8F9FA"/>
<path d="M111.987 24.7151C111.939 24.3813 111.77 24.1238 111.493 23.9364C111.353 23.8424 111.2 23.7827 111.032 23.764C110.965 23.7564 110.897 23.7513 110.829 23.7513C107.116 23.7507 103.403 23.7509 99.69 23.75C99.5506 23.7499 99.4136 23.76 99.281 23.8046C99.0055 23.8972 98.793 24.0671 98.6475 24.3209C98.5876 24.4253 98.5465 24.5359 98.5216 24.6528C98.5116 24.6996 98.5062 24.7476 98.5021 24.7954C98.4989 24.8324 98.501 24.8697 98.501 24.9069C98.501 27.6402 98.5015 30.3736 98.5 33.107C98.4999 33.3431 98.5566 33.5595 98.6865 33.7555C98.8031 33.9314 98.9548 34.0698 99.1505 34.1526C99.24 34.1905 99.3348 34.2163 99.4279 34.2452C99.4484 34.2516 99.4722 34.2486 99.4944 34.2486C101.165 34.2487 102.835 34.2487 104.505 34.2487C106.652 34.2487 108.799 34.2482 110.946 34.25C111.082 34.25 111.209 34.2179 111.331 34.1652C111.464 34.1081 111.581 34.0259 111.681 33.9214C111.794 33.8036 111.884 33.6707 111.933 33.5134C111.955 33.4421 111.969 33.3681 111.987 33.2955C111.989 33.2882 111.996 33.2821 112 33.2754V24.74C111.996 24.7317 111.989 24.7238 111.987 24.7151ZM102.642 26.006C103.463 26.0142 104.129 26.6898 104.123 27.5079C104.123 28.3489 103.439 29.0095 102.619 29.0042C101.788 28.9989 101.127 28.3238 101.13 27.499C101.132 26.6685 101.815 25.9978 102.642 26.006ZM104.913 31.9762C104.847 31.9976 104.779 32.0057 104.709 32.0056C104.014 32.0046 103.32 32.005 102.625 32.005C101.931 32.005 101.231 32.0046 100.534 32.0055C100.411 32.0056 100.298 31.9751 100.197 31.905C100.073 31.8189 100.005 31.7001 100.003 31.5475C100.001 31.4025 100.001 31.2575 100.003 31.1126C100.007 30.8403 100.09 30.5949 100.255 30.3773C100.429 30.1481 100.654 29.9897 100.919 29.8828C101.164 29.7841 101.418 29.7521 101.678 29.7611C101.714 29.7624 101.749 29.7807 101.784 29.7916C101.869 29.8178 101.954 29.8489 102.04 29.8695C102.149 29.8954 102.259 29.9205 102.369 29.9316C102.488 29.9435 102.608 29.9432 102.728 29.9399C102.828 29.9371 102.928 29.9292 103.026 29.9109C103.146 29.8883 103.265 29.8544 103.383 29.8221C103.437 29.8073 103.489 29.7841 103.542 29.7656C103.553 29.7616 103.566 29.7602 103.578 29.7599C103.728 29.7561 103.879 29.7598 104.025 29.7909C104.409 29.8719 104.738 30.0466 104.985 30.3598C105.088 30.4904 105.166 30.6351 105.207 30.7951C105.233 30.8993 105.243 31.0092 105.248 31.117C105.255 31.2518 105.246 31.3872 105.251 31.5221C105.258 31.7495 105.107 31.9136 104.913 31.9762ZM110.5 30.3215C110.498 30.4266 110.416 30.5047 110.309 30.5048C110.099 30.5048 109.888 30.5048 109.678 30.5048C109.468 30.5048 109.257 30.5048 109.047 30.5048C108.907 30.5048 108.767 30.5048 108.627 30.5048H107.789C107.642 30.5048 107.495 30.5048 107.349 30.5048C107.216 30.5049 107.084 30.505 106.952 30.5051C106.87 30.5053 106.809 30.4735 106.773 30.3996C106.761 30.3729 106.752 30.3417 106.751 30.3124C106.749 30.1922 106.748 30.072 106.751 29.952C106.753 29.8475 106.829 29.7625 106.935 29.7611C106.948 29.7608 106.962 29.7606 106.975 29.7606C108.077 29.7606 109.179 29.7606 110.28 29.7605C110.328 29.7605 110.375 29.7616 110.416 29.7901C110.469 29.827 110.498 29.8787 110.5 29.9424C110.502 30.0687 110.502 30.1951 110.5 30.3215V30.3215ZM106.75 28.4588C106.75 28.3511 106.827 28.2554 106.95 28.2567C107.305 28.2607 107.66 28.2581 108.016 28.2581H108.628C109.184 28.2581 109.74 28.2588 110.296 28.2574C110.376 28.2572 110.44 28.281 110.476 28.3541C110.49 28.383 110.499 28.4176 110.499 28.4498C110.502 28.5662 110.501 28.6827 110.5 28.7991C110.5 28.9222 110.42 29.003 110.297 29.003C109.776 29.0032 109.255 29.0031 108.734 29.0031C108.142 29.0031 107.55 29.0032 106.959 29.003C106.876 29.003 106.81 28.9731 106.774 28.8953C106.761 28.8674 106.752 28.835 106.751 28.8044C106.749 28.6893 106.751 28.574 106.75 28.4588ZM110.5 27.3224C110.498 27.4263 110.411 27.5065 110.303 27.5066C109.834 27.5069 109.365 27.5068 108.896 27.5068H108.625C108.069 27.5068 107.513 27.5069 106.957 27.5065C106.875 27.5065 106.809 27.4749 106.773 27.3973C106.761 27.3703 106.752 27.3391 106.751 27.3096C106.749 27.1907 106.749 27.0718 106.751 26.9528C106.752 26.8539 106.825 26.7624 106.924 26.7604C106.944 26.7601 106.964 26.7582 106.984 26.7582C108.079 26.7581 109.175 26.7581 110.27 26.7582C110.323 26.7582 110.375 26.7581 110.421 26.7923C110.471 26.8295 110.498 26.8792 110.499 26.9397C110.502 27.0672 110.502 27.1949 110.5 27.3224Z" fill="#F8F9FA"/>
<line x1="71.25" y1="40" x2="147.25" y2="40" stroke="#F8F9FA" stroke-width="2" stroke-linecap="round" stroke-dasharray="4 4"/>
<path d="M34.429 61H33.5057L36.1761 53.7273H37.0852L39.7557 61H38.8324L36.6591 54.8778H36.6023L34.429 61ZM34.7699 58.1591H38.4915V58.9403H34.7699V58.1591ZM40.7749 63.0455V55.5455H41.5845V56.4119H41.6839C41.7455 56.3172 41.8307 56.1965 41.9396 56.0497C42.0509 55.9006 42.2095 55.768 42.4155 55.652C42.6238 55.5336 42.9055 55.4744 43.2607 55.4744C43.7199 55.4744 44.1248 55.5893 44.4751 55.8189C44.8255 56.0485 45.099 56.3741 45.2955 56.7955C45.492 57.2169 45.5902 57.714 45.5902 58.2869C45.5902 58.8646 45.492 59.3653 45.2955 59.7891C45.099 60.2105 44.8267 60.5372 44.4787 60.7692C44.1307 60.9988 43.7294 61.1136 43.2749 61.1136C42.9245 61.1136 42.6439 61.0556 42.4332 60.9396C42.2225 60.8213 42.0604 60.6875 41.9467 60.5384C41.8331 60.3868 41.7455 60.2614 41.6839 60.1619H41.6129V63.0455H40.7749ZM41.5987 58.2727C41.5987 58.6847 41.6591 59.0481 41.7798 59.3629C41.9006 59.6754 42.0769 59.9205 42.3089 60.098C42.541 60.2732 42.825 60.3608 43.1612 60.3608C43.5116 60.3608 43.804 60.2685 44.0384 60.0838C44.2751 59.8968 44.4527 59.6458 44.571 59.331C44.6918 59.0137 44.7521 58.661 44.7521 58.2727C44.7521 57.8892 44.6929 57.5436 44.5746 57.2358C44.4586 56.9257 44.2822 56.6806 44.0455 56.5007C43.8111 56.3184 43.5163 56.2273 43.1612 56.2273C42.8203 56.2273 42.5339 56.3137 42.3018 56.4865C42.0698 56.657 41.8946 56.8961 41.7763 57.2038C41.6579 57.5092 41.5987 57.8655 41.5987 58.2727ZM46.8686 63.0455V55.5455H47.6783V56.4119H47.7777C47.8393 56.3172 47.9245 56.1965 48.0334 56.0497C48.1446 55.9006 48.3033 55.768 48.5092 55.652C48.7176 55.5336 48.9993 55.4744 49.3544 55.4744C49.8137 55.4744 50.2185 55.5893 50.5689 55.8189C50.9193 56.0485 51.1927 56.3741 51.3892 56.7955C51.5857 57.2169 51.6839 57.714 51.6839 58.2869C51.6839 58.8646 51.5857 59.3653 51.3892 59.7891C51.1927 60.2105 50.9205 60.5372 50.5724 60.7692C50.2244 60.9988 49.8232 61.1136 49.3686 61.1136C49.0182 61.1136 48.7377 61.0556 48.527 60.9396C48.3163 60.8213 48.1541 60.6875 48.0405 60.5384C47.9268 60.3868 47.8393 60.2614 47.7777 60.1619H47.7067V63.0455H46.8686ZM47.6925 58.2727C47.6925 58.6847 47.7528 59.0481 47.8736 59.3629C47.9943 59.6754 48.1707 59.9205 48.4027 60.098C48.6347 60.2732 48.9188 60.3608 49.255 60.3608C49.6054 60.3608 49.8977 60.2685 50.1321 60.0838C50.3688 59.8968 50.5464 59.6458 50.6648 59.331C50.7855 59.0137 50.8459 58.661 50.8459 58.2727C50.8459 57.8892 50.7867 57.5436 50.6683 57.2358C50.5523 56.9257 50.3759 56.6806 50.1392 56.5007C49.9048 56.3184 49.6101 56.2273 49.255 56.2273C48.9141 56.2273 48.6276 56.3137 48.3956 56.4865C48.1636 56.657 47.9884 56.8961 47.87 57.2038C47.7517 57.5092 47.6925 57.8655 47.6925 58.2727ZM53.8004 53.7273V61H52.9624V53.7273H53.8004ZM55.3354 61V55.5455H56.1735V61H55.3354ZM55.7615 54.6364C55.5982 54.6364 55.4573 54.5807 55.339 54.4695C55.223 54.3582 55.165 54.2244 55.165 54.0682C55.165 53.9119 55.223 53.7782 55.339 53.6669C55.4573 53.5556 55.5982 53.5 55.7615 53.5C55.9249 53.5 56.0646 53.5556 56.1806 53.6669C56.2989 53.7782 56.3581 53.9119 56.3581 54.0682C56.3581 54.2244 56.2989 54.3582 56.1806 54.4695C56.0646 54.5807 55.9249 54.6364 55.7615 54.6364ZM59.9244 61.1136C59.413 61.1136 58.9727 60.9929 58.6033 60.7514C58.234 60.5099 57.9499 60.1773 57.7511 59.7536C57.5522 59.3298 57.4528 58.8456 57.4528 58.3011C57.4528 57.7472 57.5546 57.2583 57.7582 56.8345C57.9641 56.4084 58.2506 56.0758 58.6175 55.8366C58.9869 55.5952 59.4177 55.4744 59.9102 55.4744C60.2937 55.4744 60.6393 55.5455 60.9471 55.6875C61.2549 55.8295 61.507 56.0284 61.7035 56.2841C61.9 56.5398 62.0219 56.8381 62.0692 57.179H61.2312C61.1673 56.9304 61.0252 56.7102 60.805 56.5185C60.5872 56.3243 60.2937 56.2273 59.9244 56.2273C59.5977 56.2273 59.3112 56.3125 59.065 56.483C58.8211 56.651 58.6306 56.889 58.4933 57.1967C58.3583 57.5021 58.2908 57.8608 58.2908 58.2727C58.2908 58.6941 58.3571 59.0611 58.4897 59.3736C58.6246 59.6861 58.814 59.9287 59.0579 60.1016C59.3041 60.2744 59.5929 60.3608 59.9244 60.3608C60.1422 60.3608 60.3398 60.3229 60.5174 60.2472C60.695 60.1714 60.8453 60.0625 60.9684 59.9205C61.0915 59.7784 61.1791 59.608 61.2312 59.4091H62.0692C62.0219 59.7311 61.9047 60.0211 61.7177 60.2791C61.533 60.5348 61.288 60.7384 60.9826 60.8899C60.6796 61.0391 60.3268 61.1136 59.9244 61.1136ZM64.8995 61.1278C64.5539 61.1278 64.2402 61.0627 63.9585 60.9325C63.6767 60.8 63.453 60.6094 63.2873 60.3608C63.1216 60.1098 63.0387 59.8068 63.0387 59.4517C63.0387 59.1392 63.1003 58.8859 63.2234 58.6918C63.3465 58.4953 63.511 58.3414 63.717 58.2301C63.9229 58.1188 64.1502 58.036 64.3988 57.9815C64.6497 57.9247 64.9019 57.8797 65.1552 57.8466C65.4866 57.804 65.7553 57.772 65.9613 57.7507C66.1696 57.727 66.3211 57.688 66.4158 57.6335C66.5129 57.5791 66.5614 57.4844 66.5614 57.3494V57.321C66.5614 56.9706 66.4656 56.6984 66.2738 56.5043C66.0844 56.3101 65.7968 56.2131 65.4109 56.2131C65.0108 56.2131 64.6971 56.3007 64.4698 56.4759C64.2425 56.651 64.0827 56.8381 63.9904 57.0369L63.195 56.7528C63.337 56.4214 63.5264 56.1634 63.7631 55.9787C64.0022 55.7917 64.2627 55.6615 64.5444 55.5881C64.8285 55.5123 65.1078 55.4744 65.3825 55.4744C65.5576 55.4744 65.7589 55.4957 65.9862 55.5384C66.2158 55.5786 66.4371 55.6626 66.6502 55.7905C66.8656 55.9183 67.0444 56.1113 67.1864 56.3693C67.3285 56.6274 67.3995 56.973 67.3995 57.4062V61H66.5614V60.2614H66.5188C66.462 60.3797 66.3673 60.5064 66.2347 60.6413C66.1022 60.7763 65.9258 60.8911 65.7056 60.9858C65.4854 61.0805 65.2167 61.1278 64.8995 61.1278ZM65.0273 60.375C65.3588 60.375 65.6381 60.3099 65.8654 60.1797C66.0951 60.0495 66.2679 59.8814 66.3839 59.6754C66.5022 59.4695 66.5614 59.2528 66.5614 59.0256V58.2585C66.5259 58.3011 66.4478 58.3402 66.3271 58.3757C66.2087 58.4089 66.0714 58.4384 65.9151 58.4645C65.7612 58.4882 65.6109 58.5095 65.4641 58.5284C65.3197 58.545 65.2025 58.5592 65.1126 58.571C64.8948 58.5994 64.6912 58.6456 64.5018 58.7095C64.3147 58.7711 64.1632 58.8646 64.0472 58.9901C63.9336 59.1132 63.8768 59.2812 63.8768 59.4943C63.8768 59.7855 63.9845 60.0057 64.1999 60.1548C64.4177 60.3016 64.6935 60.375 65.0273 60.375ZM69.7672 57.7188V61H68.9292V55.5455H69.7388V56.3977H69.8098C69.9377 56.1207 70.1318 55.8982 70.3922 55.7301C70.6526 55.5597 70.9888 55.4744 71.4007 55.4744C71.7701 55.4744 72.0932 55.5502 72.3702 55.7017C72.6472 55.8509 72.8626 56.0781 73.0165 56.3835C73.1704 56.6866 73.2473 57.0701 73.2473 57.5341V61H72.4093V57.5909C72.4093 57.1624 72.298 56.8286 72.0755 56.5895C71.8529 56.348 71.5475 56.2273 71.1593 56.2273C70.8917 56.2273 70.6526 56.2853 70.4419 56.4013C70.2336 56.5173 70.0691 56.6866 69.9483 56.9091C69.8276 57.1316 69.7672 57.4015 69.7672 57.7188ZM77.1509 55.5455V56.2557H74.3242V55.5455H77.1509ZM75.1481 54.2386H75.9862V59.4375C75.9862 59.6742 76.0205 59.8518 76.0891 59.9702C76.1602 60.0862 76.2501 60.1643 76.359 60.2045C76.4703 60.2424 76.5875 60.2614 76.7106 60.2614C76.8029 60.2614 76.8787 60.2566 76.9379 60.2472C76.997 60.2353 77.0444 60.2259 77.0799 60.2188L77.2504 60.9716C77.1935 60.9929 77.1142 61.0142 77.0124 61.0355C76.9106 61.0592 76.7816 61.071 76.6254 61.071C76.3886 61.071 76.1566 61.0201 75.9293 60.9183C75.7044 60.8165 75.5174 60.6615 75.3683 60.4531C75.2215 60.2448 75.1481 59.982 75.1481 59.6648V54.2386Z" fill="#F8F9FA"/>
<path d="M255.608 55.5455C255.565 55.1856 255.393 54.9062 255.089 54.7074C254.786 54.5085 254.415 54.4091 253.974 54.4091C253.652 54.4091 253.371 54.4612 253.129 54.5653C252.89 54.6695 252.703 54.8127 252.568 54.995C252.436 55.1773 252.369 55.3845 252.369 55.6165C252.369 55.8106 252.415 55.9775 252.508 56.1172C252.603 56.2545 252.723 56.3693 252.87 56.4616C253.017 56.5516 253.171 56.6262 253.332 56.6854C253.493 56.7422 253.641 56.7884 253.776 56.8239L254.514 57.0227C254.704 57.0724 254.914 57.1411 255.146 57.2287C255.381 57.3163 255.604 57.4358 255.817 57.5874C256.033 57.7365 256.21 57.9283 256.35 58.1626C256.49 58.397 256.56 58.6847 256.56 59.0256C256.56 59.4186 256.457 59.7737 256.251 60.0909C256.047 60.4081 255.749 60.6603 255.356 60.8473C254.965 61.0343 254.491 61.1278 253.932 61.1278C253.411 61.1278 252.96 61.0438 252.579 60.8757C252.2 60.7076 251.902 60.4732 251.684 60.1726C251.469 59.8719 251.347 59.5227 251.318 59.125H252.227C252.251 59.3996 252.343 59.6269 252.504 59.8068C252.668 59.9844 252.874 60.117 253.122 60.2045C253.373 60.2898 253.643 60.3324 253.932 60.3324C254.268 60.3324 254.57 60.2779 254.837 60.169C255.105 60.0578 255.317 59.9039 255.473 59.7074C255.629 59.5085 255.707 59.2765 255.707 59.0114C255.707 58.7699 255.64 58.5734 255.505 58.4219C255.37 58.2704 255.192 58.1473 254.972 58.0526C254.752 57.9579 254.514 57.875 254.259 57.804L253.364 57.5483C252.795 57.3849 252.346 57.1518 252.014 56.8487C251.683 56.5457 251.517 56.1491 251.517 55.6591C251.517 55.2519 251.627 54.8968 251.847 54.5938C252.07 54.2884 252.368 54.0516 252.742 53.8835C253.119 53.7131 253.539 53.6278 254.003 53.6278C254.472 53.6278 254.888 53.7119 255.253 53.88C255.617 54.0457 255.906 54.273 256.119 54.5618C256.335 54.8506 256.448 55.1785 256.46 55.5455H255.608ZM260.181 61.1136C259.655 61.1136 259.202 60.9976 258.821 60.7656C258.442 60.5312 258.15 60.2045 257.944 59.7855C257.74 59.3641 257.638 58.8741 257.638 58.3153C257.638 57.7566 257.74 57.2642 257.944 56.8381C258.15 56.4096 258.436 56.0758 258.803 55.8366C259.172 55.5952 259.603 55.4744 260.096 55.4744C260.38 55.4744 260.66 55.5218 260.937 55.6165C261.214 55.7112 261.466 55.8651 261.694 56.0781C261.921 56.2888 262.102 56.5682 262.237 56.9162C262.372 57.2642 262.439 57.6927 262.439 58.2017V58.5568H258.235V57.8324H261.587C261.587 57.5246 261.526 57.25 261.403 57.0085C261.282 56.767 261.109 56.5765 260.884 56.4368C260.662 56.2971 260.399 56.2273 260.096 56.2273C259.762 56.2273 259.473 56.3101 259.229 56.4759C258.988 56.6392 258.802 56.8523 258.672 57.1151C258.541 57.3778 258.476 57.6596 258.476 57.9602V58.4432C258.476 58.8551 258.547 59.2043 258.689 59.4908C258.834 59.7749 259.034 59.9915 259.29 60.1406C259.545 60.2874 259.842 60.3608 260.181 60.3608C260.401 60.3608 260.6 60.33 260.778 60.2685C260.957 60.2045 261.113 60.1098 261.243 59.9844C261.373 59.8565 261.474 59.6979 261.545 59.5085L262.354 59.7358C262.269 60.0104 262.126 60.2519 261.925 60.4602C261.723 60.6662 261.475 60.8272 261.179 60.9432C260.883 61.0568 260.55 61.1136 260.181 61.1136ZM263.714 61V55.5455H264.524V56.3693H264.581C264.68 56.0994 264.86 55.8804 265.121 55.7124C265.381 55.5443 265.675 55.4602 266.001 55.4602C266.063 55.4602 266.14 55.4614 266.232 55.4638C266.324 55.4661 266.394 55.4697 266.442 55.4744V56.3267C266.413 56.3196 266.348 56.3089 266.246 56.2947C266.147 56.2782 266.041 56.2699 265.93 56.2699C265.665 56.2699 265.428 56.3255 265.22 56.4368C265.014 56.5457 264.851 56.6972 264.73 56.8913C264.612 57.0831 264.552 57.3021 264.552 57.5483V61H263.714ZM272.061 55.5455L270.044 61H269.192L267.175 55.5455H268.084L269.59 59.892H269.646L271.152 55.5455H272.061ZM273.167 61V55.5455H274.006V61H273.167ZM273.594 54.6364C273.43 54.6364 273.289 54.5807 273.171 54.4695C273.055 54.3582 272.997 54.2244 272.997 54.0682C272.997 53.9119 273.055 53.7782 273.171 53.6669C273.289 53.5556 273.43 53.5 273.594 53.5C273.757 53.5 273.897 53.5556 274.013 53.6669C274.131 53.7782 274.19 53.9119 274.19 54.0682C274.19 54.2244 274.131 54.3582 274.013 54.4695C273.897 54.5807 273.757 54.6364 273.594 54.6364ZM277.756 61.1136C277.245 61.1136 276.805 60.9929 276.435 60.7514C276.066 60.5099 275.782 60.1773 275.583 59.7536C275.384 59.3298 275.285 58.8456 275.285 58.3011C275.285 57.7472 275.387 57.2583 275.59 56.8345C275.796 56.4084 276.083 56.0758 276.45 55.8366C276.819 55.5952 277.25 55.4744 277.742 55.4744C278.126 55.4744 278.471 55.5455 278.779 55.6875C279.087 55.8295 279.339 56.0284 279.536 56.2841C279.732 56.5398 279.854 56.8381 279.901 57.179H279.063C278.999 56.9304 278.857 56.7102 278.637 56.5185C278.419 56.3243 278.126 56.2273 277.756 56.2273C277.43 56.2273 277.143 56.3125 276.897 56.483C276.653 56.651 276.463 56.889 276.325 57.1967C276.19 57.5021 276.123 57.8608 276.123 58.2727C276.123 58.6941 276.189 59.0611 276.322 59.3736C276.457 59.6861 276.646 59.9287 276.89 60.1016C277.136 60.2744 277.425 60.3608 277.756 60.3608C277.974 60.3608 278.172 60.3229 278.349 60.2472C278.527 60.1714 278.677 60.0625 278.8 59.9205C278.924 59.7784 279.011 59.608 279.063 59.4091H279.901C279.854 59.7311 279.737 60.0211 279.55 60.2791C279.365 60.5348 279.12 60.7384 278.815 60.8899C278.512 61.0391 278.159 61.1136 277.756 61.1136ZM283.413 61.1136C282.888 61.1136 282.434 60.9976 282.053 60.7656C281.674 60.5312 281.382 60.2045 281.176 59.7855C280.973 59.3641 280.871 58.8741 280.871 58.3153C280.871 57.7566 280.973 57.2642 281.176 56.8381C281.382 56.4096 281.669 56.0758 282.036 55.8366C282.405 55.5952 282.836 55.4744 283.328 55.4744C283.612 55.4744 283.893 55.5218 284.17 55.6165C284.447 55.7112 284.699 55.8651 284.926 56.0781C285.153 56.2888 285.335 56.5682 285.469 56.9162C285.604 57.2642 285.672 57.6927 285.672 58.2017V58.5568H281.467V57.8324H284.82C284.82 57.5246 284.758 57.25 284.635 57.0085C284.514 56.767 284.341 56.5765 284.116 56.4368C283.894 56.2971 283.631 56.2273 283.328 56.2273C282.994 56.2273 282.705 56.3101 282.462 56.4759C282.22 56.6392 282.034 56.8523 281.904 57.1151C281.774 57.3778 281.709 57.6596 281.709 57.9602V58.4432C281.709 58.8551 281.78 59.2043 281.922 59.4908C282.066 59.7749 282.266 59.9915 282.522 60.1406C282.778 60.2874 283.075 60.3608 283.413 60.3608C283.634 60.3608 283.832 60.33 284.01 60.2685C284.19 60.2045 284.345 60.1098 284.475 59.9844C284.605 59.8565 284.706 59.6979 284.777 59.5085L285.587 59.7358C285.501 60.0104 285.358 60.2519 285.157 60.4602C284.956 60.6662 284.707 60.8272 284.411 60.9432C284.115 61.0568 283.783 61.1136 283.413 61.1136Z" fill="#F8F9FA"/>
<path d="M272.291 44.375V43.2917C272.291 42.717 272.063 42.1659 271.657 41.7596C271.25 41.3533 270.699 41.125 270.125 41.125H266.875C266.3 41.125 265.749 41.3533 265.343 41.7596C264.936 42.1659 264.708 42.717 264.708 43.2917V44.375" stroke="#F8F9FA" stroke-linecap="round" stroke-linejoin="round"/>
<path d="M267.416 41.125L267.416 41.9376C267.416 42.5122 268.364 44.1042 268.5 44.375C268.635 44.1042 269.583 42.5122 269.583 41.9376L269.583 41.125" stroke="#F8F9FA" stroke-linecap="round" stroke-linejoin="round"/>
<path d="M268.5 38.9583C269.696 38.9583 270.666 37.9883 270.666 36.7917C270.666 35.595 269.696 34.625 268.5 34.625C267.303 34.625 266.333 35.595 266.333 36.7917C266.333 37.9883 267.303 38.9583 268.5 38.9583Z" stroke="#F8F9FA" stroke-linecap="round" stroke-linejoin="round"/>
<line x1="262.542" y1="44.9585" x2="274.459" y2="45.5002" stroke="#F8F9FA"/>
<line x1="174.75" y1="40" x2="250.75" y2="40" stroke="#F8F9FA" stroke-width="2" stroke-linecap="round" stroke-dasharray="4 4"/>
<defs>
<clipPath id="clip0_1663_1934">
<rect width="24" height="24" fill="white" transform="translate(43.25 28)"/>
</clipPath>
</defs>
</svg>
