<svg width="320" height="92" viewBox="0 0 320 92" fill="none" xmlns="http://www.w3.org/2000/svg">
<path d="M95.7502 66.3966V67.6029C95.7412 67.6249 95.7312 67.6467 95.7233 67.6692C95.6713 67.8163 95.516 67.9304 95.3568 67.9377C95.3365 67.9387 95.3161 67.9387 95.2957 67.9387C92.224 67.9387 89.1524 67.9385 86.0808 67.9394C85.9399 67.9394 85.8198 67.8982 85.7267 67.7925C85.6635 67.7206 85.6266 67.6361 85.6264 67.5395C85.6257 67.1789 85.6231 66.8182 85.6274 66.4576C85.6295 66.2924 85.7187 66.1741 85.8661 66.1004C85.9313 66.0679 86.0026 66.0576 86.0762 66.0576C89.1515 66.0581 92.2268 66.058 95.3021 66.0582C95.4919 66.0582 95.6332 66.1382 95.716 66.3103C95.7294 66.3381 95.7389 66.3678 95.7502 66.3966Z" fill="#F8F9FA"/>
<path d="M95.7502 74.736V75.9423C95.7412 75.9644 95.7312 75.9861 95.7233 76.0085C95.6713 76.1556 95.516 76.2698 95.3568 76.2771C95.3365 76.2781 95.3161 76.2781 95.2957 76.2781C92.224 76.2781 89.1524 76.2779 86.0808 76.2787C85.9399 76.2788 85.8197 76.2376 85.7267 76.1318C85.6635 76.0601 85.6266 75.9755 85.6264 75.8789C85.6257 75.5183 85.6231 75.1576 85.6274 74.797C85.6295 74.6318 85.7187 74.5135 85.8661 74.4399C85.9313 74.4073 86.0026 74.397 86.0763 74.397C89.1515 74.3975 92.2268 74.3973 95.3021 74.3975C95.4919 74.3975 95.6332 74.4776 95.716 74.6496C95.7294 74.6775 95.7389 74.7072 95.7502 74.736Z" fill="#F8F9FA"/>
<path d="M95.7494 70.5697V71.7689C95.7406 71.7914 95.7318 71.8139 95.723 71.8364C95.6718 71.966 95.5799 72.0536 95.4433 72.0886C95.3924 72.1015 95.3378 72.1044 95.2848 72.1044C93.3115 72.1052 91.3381 72.105 89.3648 72.105C88.2687 72.105 87.1725 72.1044 86.0763 72.1059C85.9553 72.1061 85.8483 72.0786 85.7594 71.9958C85.6746 71.917 85.6257 71.8206 85.6255 71.704C85.6248 71.3481 85.6257 70.9922 85.625 70.6362C85.6246 70.4286 85.8009 70.2463 85.9999 70.2334C86.0369 70.2311 86.074 70.2285 86.111 70.2285C89.1673 70.2282 92.2237 70.2283 95.28 70.228C95.3907 70.228 95.4952 70.2449 95.5849 70.3151C95.6616 70.3752 95.7149 70.4497 95.7366 70.5452C95.7386 70.5538 95.745 70.5616 95.7494 70.5697Z" fill="#F8F9FA"/>
<path d="M84.7853 71.9864C84.785 72.1839 84.6761 72.3359 84.4893 72.4005C84.4549 72.4124 84.417 72.42 84.3808 72.4201C83.8052 72.4213 83.2296 72.423 82.654 72.4196C82.4732 72.4186 82.3028 72.2813 82.2656 72.1041C82.2575 72.0654 82.2527 72.0254 82.2525 71.9859C82.2515 71.7128 82.252 71.4396 82.252 71.1665C82.252 70.8934 82.255 70.6177 82.251 70.3434C82.2481 70.1395 82.3871 69.9776 82.561 69.9306C82.5997 69.9202 82.6412 69.9155 82.6814 69.9155C83.2391 69.9145 83.7967 69.9142 84.3543 69.915C84.5582 69.9154 84.7236 70.0436 84.7732 70.2384C84.7822 70.2736 84.785 70.311 84.7851 70.3474C84.7858 70.8937 84.7861 71.4401 84.7853 71.9864Z" fill="#F8F9FA"/>
<path d="M84.7833 67.8201C84.7828 67.984 84.7136 68.1137 84.5665 68.1972C84.5128 68.2277 84.4556 68.2483 84.3928 68.2491C84.3138 68.2502 84.2349 68.2507 84.156 68.2507C83.669 68.2508 83.1821 68.2498 82.6952 68.2515C82.5773 68.2518 82.4728 68.221 82.3864 68.1416C82.2993 68.0618 82.2504 67.9629 82.2504 67.8433C82.2504 67.2805 82.2509 66.7178 82.25 66.1551C82.2497 65.9863 82.372 65.8301 82.516 65.7777C82.5744 65.7564 82.6327 65.7501 82.6931 65.7501C82.9671 65.75 83.2411 65.7501 83.5151 65.7501V65.7508C83.8021 65.7508 84.0893 65.7486 84.3764 65.7516C84.5393 65.7533 84.6567 65.8342 84.7346 65.9741C84.7701 66.0379 84.7835 66.1068 84.7836 66.178C84.7842 66.7254 84.785 67.2727 84.7833 67.8201Z" fill="#F8F9FA"/>
<path d="M84.7881 76.1586C84.7877 76.344 84.6881 76.497 84.5003 76.567C84.4698 76.5784 84.4353 76.5841 84.4026 76.5841C83.814 76.5851 83.2254 76.5863 82.6368 76.5838C82.4913 76.5832 82.3425 76.4749 82.2832 76.3252C82.2623 76.2723 82.2541 76.2176 82.2543 76.1602C82.2553 75.6105 82.2566 75.0608 82.2539 74.511C82.253 74.3165 82.3723 74.1651 82.5385 74.1073C82.5874 74.0903 82.6433 74.0879 82.6961 74.0875C82.9713 74.0857 83.2464 74.0867 83.5216 74.0867V74.0875C83.8086 74.0875 84.0958 74.0851 84.3829 74.0883C84.5444 74.0902 84.6608 74.1715 84.7386 74.3093C84.7744 74.3726 84.7881 74.4417 84.7881 74.513C84.7887 75.0615 84.7891 75.6101 84.7881 76.1586Z" fill="#F8F9FA"/>
<path d="M95.7502 16.3966V17.6029C95.7412 17.6249 95.7312 17.6467 95.7233 17.6692C95.6713 17.8163 95.516 17.9304 95.3568 17.9377C95.3365 17.9387 95.3161 17.9387 95.2957 17.9387C92.224 17.9387 89.1524 17.9385 86.0808 17.9394C85.9399 17.9394 85.8198 17.8982 85.7267 17.7925C85.6635 17.7206 85.6266 17.6361 85.6264 17.5395C85.6257 17.1789 85.6231 16.8182 85.6274 16.4576C85.6295 16.2924 85.7187 16.1741 85.8661 16.1004C85.9313 16.0679 86.0026 16.0576 86.0762 16.0576C89.1515 16.0581 92.2268 16.058 95.3021 16.0582C95.4919 16.0582 95.6332 16.1382 95.716 16.3103C95.7294 16.3381 95.7389 16.3678 95.7502 16.3966Z" fill="#F8F9FA"/>
<path d="M95.7502 24.736V25.9423C95.7412 25.9644 95.7312 25.9861 95.7233 26.0085C95.6713 26.1556 95.516 26.2698 95.3568 26.2771C95.3365 26.2781 95.3161 26.2781 95.2957 26.2781C92.224 26.2781 89.1524 26.2779 86.0808 26.2787C85.9399 26.2788 85.8197 26.2376 85.7267 26.1318C85.6635 26.0601 85.6266 25.9755 85.6264 25.8789C85.6257 25.5183 85.6231 25.1576 85.6274 24.797C85.6295 24.6318 85.7187 24.5135 85.8661 24.4399C85.9313 24.4073 86.0026 24.397 86.0763 24.397C89.1515 24.3975 92.2268 24.3973 95.3021 24.3975C95.4919 24.3975 95.6332 24.4776 95.716 24.6496C95.7294 24.6775 95.7389 24.7072 95.7502 24.736Z" fill="#F8F9FA"/>
<path d="M95.7494 20.5697V21.7689C95.7406 21.7914 95.7318 21.8139 95.723 21.8364C95.6718 21.966 95.5799 22.0536 95.4433 22.0886C95.3924 22.1015 95.3378 22.1044 95.2848 22.1044C93.3115 22.1052 91.3381 22.105 89.3648 22.105C88.2687 22.105 87.1725 22.1044 86.0763 22.1059C85.9553 22.1061 85.8483 22.0786 85.7594 21.9958C85.6746 21.917 85.6257 21.8206 85.6255 21.704C85.6248 21.3481 85.6257 20.9922 85.625 20.6362C85.6246 20.4286 85.8009 20.2463 85.9999 20.2334C86.0369 20.2311 86.074 20.2285 86.111 20.2285C89.1673 20.2282 92.2237 20.2283 95.28 20.228C95.3907 20.228 95.4952 20.2449 95.5849 20.3151C95.6616 20.3752 95.7149 20.4497 95.7366 20.5452C95.7386 20.5538 95.745 20.5616 95.7494 20.5697Z" fill="#F8F9FA"/>
<path d="M84.7853 21.9864C84.785 22.1839 84.6761 22.3359 84.4893 22.4005C84.4549 22.4124 84.417 22.42 84.3808 22.4201C83.8052 22.4213 83.2296 22.423 82.654 22.4196C82.4732 22.4186 82.3028 22.2813 82.2656 22.1041C82.2575 22.0654 82.2527 22.0254 82.2525 21.9859C82.2515 21.7128 82.252 21.4396 82.252 21.1665C82.252 20.8934 82.255 20.6177 82.251 20.3434C82.2481 20.1395 82.3871 19.9776 82.561 19.9306C82.5997 19.9202 82.6412 19.9155 82.6814 19.9155C83.2391 19.9145 83.7967 19.9142 84.3543 19.915C84.5582 19.9154 84.7236 20.0436 84.7732 20.2384C84.7822 20.2736 84.785 20.311 84.7851 20.3474C84.7858 20.8937 84.7861 21.4401 84.7853 21.9864Z" fill="#F8F9FA"/>
<path d="M84.7833 17.8201C84.7828 17.984 84.7136 18.1137 84.5665 18.1972C84.5128 18.2277 84.4556 18.2483 84.3928 18.2491C84.3138 18.2502 84.2349 18.2507 84.156 18.2507C83.669 18.2508 83.1821 18.2498 82.6952 18.2515C82.5773 18.2518 82.4728 18.221 82.3864 18.1416C82.2993 18.0618 82.2504 17.9629 82.2504 17.8433C82.2504 17.2805 82.2509 16.7178 82.25 16.1551C82.2497 15.9863 82.372 15.8301 82.516 15.7777C82.5744 15.7564 82.6327 15.7501 82.6931 15.7501C82.9671 15.75 83.2411 15.7501 83.5151 15.7501V15.7508C83.8021 15.7508 84.0893 15.7486 84.3764 15.7516C84.5393 15.7533 84.6567 15.8342 84.7346 15.9741C84.7701 16.0379 84.7835 16.1068 84.7836 16.178C84.7842 16.7254 84.785 17.2727 84.7833 17.8201Z" fill="#F8F9FA"/>
<path d="M84.7881 26.1586C84.7877 26.344 84.6881 26.497 84.5003 26.567C84.4698 26.5784 84.4353 26.5841 84.4026 26.5841C83.814 26.5851 83.2254 26.5863 82.6368 26.5838C82.4913 26.5832 82.3425 26.4749 82.2832 26.3252C82.2623 26.2723 82.2541 26.2176 82.2543 26.1602C82.2553 25.6105 82.2566 25.0608 82.2539 24.511C82.253 24.3165 82.3723 24.1651 82.5385 24.1073C82.5874 24.0903 82.6433 24.0879 82.6961 24.0875C82.9713 24.0857 83.2464 24.0867 83.5216 24.0867V24.0875C83.8086 24.0875 84.0958 24.0851 84.3829 24.0883C84.5444 24.0902 84.6608 24.1715 84.7386 24.3093C84.7744 24.3726 84.7881 24.4417 84.7881 24.513C84.7887 25.0615 84.7891 25.6101 84.7881 26.1586Z" fill="#F8F9FA"/>
<path d="M95.7502 41.3966V42.6029C95.7412 42.6249 95.7312 42.6467 95.7233 42.6692C95.6713 42.8163 95.516 42.9304 95.3568 42.9377C95.3365 42.9387 95.3161 42.9387 95.2957 42.9387C92.224 42.9387 89.1524 42.9385 86.0808 42.9394C85.9399 42.9394 85.8198 42.8982 85.7267 42.7925C85.6635 42.7206 85.6266 42.6361 85.6264 42.5395C85.6257 42.1789 85.6231 41.8182 85.6274 41.4576C85.6295 41.2924 85.7187 41.1741 85.8661 41.1004C85.9313 41.0679 86.0026 41.0576 86.0762 41.0576C89.1515 41.0581 92.2268 41.058 95.3021 41.0582C95.4919 41.0582 95.6332 41.1382 95.716 41.3103C95.7294 41.3381 95.7389 41.3678 95.7502 41.3966Z" fill="#F8F9FA"/>
<path d="M95.7502 49.736V50.9423C95.7412 50.9644 95.7312 50.9861 95.7233 51.0085C95.6713 51.1556 95.516 51.2698 95.3568 51.2771C95.3365 51.2781 95.3161 51.2781 95.2957 51.2781C92.224 51.2781 89.1524 51.2779 86.0808 51.2787C85.9399 51.2788 85.8197 51.2376 85.7267 51.1318C85.6635 51.0601 85.6266 50.9755 85.6264 50.8789C85.6257 50.5183 85.6231 50.1576 85.6274 49.797C85.6295 49.6318 85.7187 49.5135 85.8661 49.4399C85.9313 49.4073 86.0026 49.397 86.0763 49.397C89.1515 49.3975 92.2268 49.3973 95.3021 49.3975C95.4919 49.3975 95.6332 49.4776 95.716 49.6496C95.7294 49.6775 95.7389 49.7072 95.7502 49.736Z" fill="#F8F9FA"/>
<path d="M95.7494 45.5697V46.7689C95.7406 46.7914 95.7318 46.8139 95.723 46.8364C95.6718 46.966 95.5799 47.0536 95.4433 47.0886C95.3924 47.1015 95.3378 47.1044 95.2848 47.1044C93.3115 47.1052 91.3381 47.105 89.3648 47.105C88.2687 47.105 87.1725 47.1044 86.0763 47.1059C85.9553 47.1061 85.8483 47.0786 85.7594 46.9958C85.6746 46.917 85.6257 46.8206 85.6255 46.704C85.6248 46.3481 85.6257 45.9922 85.625 45.6362C85.6246 45.4286 85.8009 45.2463 85.9999 45.2334C86.0369 45.2311 86.074 45.2285 86.111 45.2285C89.1673 45.2282 92.2237 45.2283 95.28 45.228C95.3907 45.228 95.4952 45.2449 95.5849 45.3151C95.6616 45.3752 95.7149 45.4497 95.7366 45.5452C95.7386 45.5538 95.745 45.5616 95.7494 45.5697Z" fill="#F8F9FA"/>
<path d="M84.7853 46.9864C84.785 47.1839 84.6761 47.3359 84.4893 47.4005C84.4549 47.4124 84.417 47.42 84.3808 47.4201C83.8052 47.4213 83.2296 47.423 82.654 47.4196C82.4732 47.4186 82.3028 47.2813 82.2656 47.1041C82.2575 47.0654 82.2527 47.0254 82.2525 46.9859C82.2515 46.7128 82.252 46.4396 82.252 46.1665C82.252 45.8934 82.255 45.6177 82.251 45.3434C82.2481 45.1395 82.3871 44.9776 82.561 44.9306C82.5997 44.9202 82.6412 44.9155 82.6814 44.9155C83.2391 44.9145 83.7967 44.9142 84.3543 44.915C84.5582 44.9154 84.7236 45.0436 84.7732 45.2384C84.7822 45.2736 84.785 45.311 84.7851 45.3474C84.7858 45.8937 84.7861 46.4401 84.7853 46.9864Z" fill="#F8F9FA"/>
<path d="M84.7833 42.8201C84.7828 42.984 84.7136 43.1137 84.5665 43.1972C84.5128 43.2277 84.4556 43.2483 84.3928 43.2491C84.3138 43.2502 84.2349 43.2507 84.156 43.2507C83.669 43.2508 83.1821 43.2498 82.6952 43.2515C82.5773 43.2518 82.4728 43.221 82.3864 43.1416C82.2993 43.0618 82.2504 42.9629 82.2504 42.8433C82.2504 42.2805 82.2509 41.7178 82.25 41.1551C82.2497 40.9863 82.372 40.8301 82.516 40.7777C82.5744 40.7564 82.6327 40.7501 82.6931 40.7501C82.9671 40.75 83.2411 40.7501 83.5151 40.7501V40.7508C83.8021 40.7508 84.0893 40.7486 84.3764 40.7516C84.5393 40.7533 84.6567 40.8342 84.7346 40.9741C84.7701 41.0379 84.7835 41.1068 84.7836 41.178C84.7842 41.7254 84.785 42.2727 84.7833 42.8201Z" fill="#F8F9FA"/>
<path d="M84.7881 51.1586C84.7877 51.344 84.6881 51.497 84.5003 51.567C84.4698 51.5784 84.4353 51.5841 84.4026 51.5841C83.814 51.5851 83.2254 51.5863 82.6368 51.5838C82.4913 51.5832 82.3425 51.4749 82.2832 51.3252C82.2623 51.2723 82.2541 51.2176 82.2543 51.1602C82.2553 50.6105 82.2566 50.0608 82.2539 49.511C82.253 49.3165 82.3723 49.1651 82.5385 49.1073C82.5874 49.0903 82.6433 49.0879 82.6961 49.0875C82.9713 49.0857 83.2464 49.0867 83.5216 49.0867V49.0875C83.8086 49.0875 84.0958 49.0851 84.3829 49.0883C84.5444 49.0902 84.6608 49.1715 84.7386 49.3093C84.7744 49.3726 84.7881 49.4417 84.7881 49.513C84.7887 50.0615 84.7891 50.6101 84.7881 51.1586Z" fill="#F8F9FA"/>
<path d="M53.2343 40.8124C53.2238 40.7185 53.2073 40.6245 53.1847 40.5325C53.1467 40.3777 53.0872 40.2299 53.0115 40.0882C52.9049 39.8885 52.7694 39.7092 52.6043 39.551C52.4234 39.3776 52.2186 39.2356 51.9857 39.1364C51.8532 39.0799 51.7144 39.0348 51.5747 38.9974C51.4754 38.9706 51.3699 38.9659 51.2672 38.9505C51.0986 38.9251 50.93 38.9377 50.7628 38.9577C50.5825 38.9794 50.407 39.0255 50.2389 39.0921C49.9928 39.1895 49.7695 39.3243 49.5756 39.5C49.2837 39.7646 49.0773 40.0808 48.9635 40.4534C48.9095 40.6307 48.8776 40.8113 48.8746 40.9942C48.8724 41.1333 48.8873 41.2742 48.9112 41.4117C48.9336 41.5405 48.9689 41.669 49.0144 41.792C49.1037 42.0336 49.2414 42.2506 49.418 42.4423C49.6754 42.7217 49.9859 42.9266 50.355 43.0457C50.4154 43.0652 50.4428 43.1056 50.4372 43.167C50.4369 43.1697 50.4368 43.1724 50.4367 43.175C50.4299 43.3565 50.3957 43.5332 50.3353 43.7053C50.254 43.9365 50.1115 44.1229 49.9013 44.2602C49.7517 44.3579 49.5894 44.4294 49.4164 44.4781C49.304 44.5097 49.1914 44.5415 49.0774 44.5667C48.9832 44.5874 48.8867 44.5996 48.791 44.6138C48.6733 44.6312 48.5557 44.6494 48.4375 44.6624C48.277 44.6801 48.1159 44.6932 47.955 44.7083C47.7791 44.7248 47.6033 44.741 47.4275 44.7579C47.3267 44.7676 47.2257 44.7764 47.1252 44.7892C47.0101 44.8038 46.8955 44.8216 46.7809 44.8393C46.689 44.8535 46.5968 44.866 46.5062 44.8854C46.3826 44.9118 46.2594 44.9408 46.1379 44.9749C46.0203 45.0078 45.9045 45.047 45.7892 45.0867C45.726 45.1084 45.6652 45.1366 45.5974 45.1644V45.1064C45.5974 43.8831 45.5974 42.6598 45.5974 41.4365C45.5974 41.426 45.5983 41.4153 45.5973 41.4048C45.5951 41.3827 45.6052 41.373 45.6271 41.3652C45.6922 41.3424 45.7567 41.3174 45.8204 41.2911C46.1516 41.1546 46.4264 40.9469 46.6508 40.6764C46.8393 40.4492 46.9775 40.1966 47.0492 39.9131C47.0786 39.7971 47.1045 39.6793 47.118 39.5608C47.14 39.3684 47.1284 39.1761 47.0925 38.9848C47.0642 38.8342 47.0205 38.6882 46.9596 38.5476C46.8989 38.4074 46.8219 38.2753 46.7308 38.1504C46.465 37.7863 46.1133 37.5305 45.6826 37.3753C45.5 37.3095 45.3094 37.2716 45.1154 37.2572C44.9027 37.2416 44.6893 37.2496 44.4818 37.298C44.3424 37.3305 44.2049 37.3753 44.0721 37.4275C43.7412 37.5575 43.4678 37.7644 43.2422 38.0302C43.0816 38.2194 42.9603 38.4297 42.8757 38.661C42.8242 38.802 42.7874 38.9459 42.7681 39.0932C42.7421 39.2905 42.7434 39.4879 42.7782 39.6856C42.801 39.8158 42.8333 39.9423 42.8775 40.067C42.9613 40.3027 43.0878 40.5152 43.2521 40.7059C43.5126 41.0085 43.8367 41.2257 44.2222 41.3549C44.2673 41.37 44.2817 41.3877 44.2817 41.4342C44.2803 43.1447 44.2805 44.8552 44.2805 46.5657C44.2805 46.5736 44.2798 46.5816 44.2806 46.5895C44.2835 46.6155 44.2742 46.6283 44.2459 46.6376C44.1727 46.6616 44.0998 46.6875 44.0299 46.7192C43.731 46.8544 43.4725 47.0416 43.2612 47.287C43.049 47.5334 42.8998 47.8106 42.8188 48.1225C42.7841 48.2563 42.7612 48.3913 42.7533 48.5281C42.7396 48.7629 42.7685 48.9938 42.8355 49.2206C42.8975 49.4304 42.9904 49.6257 43.1155 49.8069C43.2628 50.0206 43.4446 50.2019 43.6605 50.3529C43.8264 50.469 44.0054 50.5607 44.1972 50.6276C44.3603 50.6844 44.5285 50.7254 44.7028 50.7375C44.7187 50.7386 44.7342 50.7457 44.7499 50.75H45.1288C45.1445 50.7457 45.16 50.7389 45.176 50.7375C45.3595 50.722 45.5355 50.6778 45.7081 50.6165C45.9932 50.5151 46.2435 50.3614 46.4606 50.158C46.7132 49.9213 46.898 49.6431 47.0111 49.3195C47.0645 49.1662 47.1008 49.0104 47.1179 48.8509C47.135 48.6904 47.1311 48.5294 47.1089 48.3681C47.0883 48.2174 47.0524 48.0712 47.0006 47.9287C46.9364 47.7521 46.8483 47.586 46.7358 47.4336C46.5068 47.1237 46.2165 46.8832 45.8548 46.7265C45.8147 46.7092 45.7751 46.6908 45.7226 46.6672C45.784 46.6006 45.8352 46.538 45.894 46.483C46.0087 46.3753 46.1496 46.3072 46.2983 46.2551C46.3901 46.223 46.4845 46.1975 46.5787 46.1721C46.6416 46.1551 46.7058 46.142 46.7699 46.1297C46.8636 46.1118 46.9573 46.0931 47.0519 46.08C47.1846 46.0618 47.3179 46.048 47.4511 46.0332C47.5587 46.0212 47.6663 46.01 47.774 45.9997C47.8572 45.9916 47.9406 45.9861 48.0238 45.9783C48.1369 45.9677 48.2499 45.9563 48.3629 45.9446C48.5044 45.93 48.6464 45.919 48.7871 45.8987C48.9639 45.8733 49.1401 45.8425 49.3156 45.8092C49.4413 45.7855 49.5682 45.7619 49.6898 45.7241C49.8653 45.6697 50.0382 45.6064 50.2092 45.5396C50.4192 45.4576 50.6103 45.3426 50.788 45.2074C51.0069 45.0408 51.1899 44.8436 51.3383 44.6148C51.4645 44.42 51.5602 44.2128 51.6249 43.9931C51.6659 43.8541 51.6993 43.712 51.7213 43.5692C51.7451 43.4153 51.7542 43.259 51.7638 43.1034C51.7664 43.0627 51.7784 43.0415 51.8166 43.0303C51.8399 43.0234 51.8628 43.0147 51.8855 43.0059C52.218 42.8764 52.4984 42.6768 52.7308 42.4146C52.9713 42.1432 53.1294 41.8307 53.2053 41.4821C53.2319 41.36 53.2423 41.2338 53.2486 41.1089C53.2534 41.0104 53.2453 40.9107 53.2343 40.8124ZM44.937 49.0634C44.6925 49.0619 44.5011 48.8787 44.501 48.6412C44.5009 48.4138 44.6973 48.2248 44.9384 48.2243C45.1712 48.2239 45.3798 48.4197 45.3684 48.6443C45.3782 48.8675 45.1783 49.0648 44.937 49.0634ZM44.9349 39.7841C44.6957 39.782 44.5014 39.5949 44.5011 39.3682C44.5006 39.1295 44.6923 38.9472 44.9362 38.9454C45.1786 38.9435 45.3779 39.1408 45.3684 39.3638C45.3798 39.5902 45.1699 39.7863 44.9349 39.7841ZM51.0591 41.4688C50.8219 41.478 50.6224 41.2705 50.6252 41.0487C50.6281 40.8231 50.8224 40.6313 51.0628 40.6317C51.3 40.6321 51.4949 40.8238 51.495 41.0536C51.4952 41.2797 51.2952 41.4771 51.0591 41.4688Z" fill="#F8F9FA"/>
<path d="M135.234 40.8124C135.224 40.7185 135.207 40.6245 135.185 40.5325C135.147 40.3777 135.087 40.2299 135.012 40.0882C134.905 39.8885 134.769 39.7092 134.604 39.551C134.423 39.3776 134.219 39.2356 133.986 39.1364C133.853 39.0799 133.714 39.0348 133.575 38.9974C133.475 38.9706 133.37 38.9659 133.267 38.9505C133.099 38.9251 132.93 38.9377 132.763 38.9577C132.582 38.9794 132.407 39.0255 132.239 39.0921C131.993 39.1895 131.77 39.3243 131.576 39.5C131.284 39.7646 131.077 40.0808 130.964 40.4534C130.909 40.6307 130.878 40.8113 130.875 40.9942C130.872 41.1333 130.887 41.2742 130.911 41.4117C130.934 41.5405 130.969 41.669 131.014 41.792C131.104 42.0336 131.241 42.2506 131.418 42.4423C131.675 42.7217 131.986 42.9266 132.355 43.0457C132.415 43.0652 132.443 43.1056 132.437 43.167C132.437 43.1697 132.437 43.1724 132.437 43.175C132.43 43.3565 132.396 43.5332 132.335 43.7053C132.254 43.9365 132.112 44.1229 131.901 44.2602C131.752 44.3579 131.589 44.4294 131.416 44.4781C131.304 44.5097 131.191 44.5415 131.077 44.5667C130.983 44.5874 130.887 44.5996 130.791 44.6138C130.673 44.6312 130.556 44.6494 130.438 44.6624C130.277 44.6801 130.116 44.6932 129.955 44.7083C129.779 44.7248 129.603 44.741 129.428 44.7579C129.327 44.7676 129.226 44.7764 129.125 44.7892C129.01 44.8038 128.896 44.8216 128.781 44.8393C128.689 44.8535 128.597 44.866 128.506 44.8854C128.383 44.9118 128.259 44.9408 128.138 44.9749C128.02 45.0078 127.905 45.047 127.789 45.0867C127.726 45.1084 127.665 45.1366 127.597 45.1644V45.1064C127.597 43.8831 127.597 42.6598 127.597 41.4365C127.597 41.426 127.598 41.4153 127.597 41.4048C127.595 41.3827 127.605 41.373 127.627 41.3652C127.692 41.3424 127.757 41.3174 127.82 41.2911C128.152 41.1546 128.426 40.9469 128.651 40.6764C128.839 40.4492 128.978 40.1966 129.049 39.9131C129.079 39.7971 129.105 39.6793 129.118 39.5608C129.14 39.3684 129.128 39.1761 129.092 38.9848C129.064 38.8342 129.021 38.6882 128.96 38.5476C128.899 38.4074 128.822 38.2753 128.731 38.1504C128.465 37.7863 128.113 37.5305 127.683 37.3753C127.5 37.3095 127.309 37.2716 127.115 37.2572C126.903 37.2416 126.689 37.2496 126.482 37.298C126.342 37.3305 126.205 37.3753 126.072 37.4275C125.741 37.5575 125.468 37.7644 125.242 38.0302C125.082 38.2194 124.96 38.4297 124.876 38.661C124.824 38.802 124.787 38.9459 124.768 39.0932C124.742 39.2905 124.743 39.4879 124.778 39.6856C124.801 39.8158 124.833 39.9423 124.878 40.067C124.961 40.3027 125.088 40.5152 125.252 40.7059C125.513 41.0085 125.837 41.2257 126.222 41.3549C126.267 41.37 126.282 41.3877 126.282 41.4342C126.28 43.1447 126.281 44.8552 126.281 46.5657C126.281 46.5736 126.28 46.5816 126.281 46.5895C126.283 46.6155 126.274 46.6283 126.246 46.6376C126.173 46.6616 126.1 46.6875 126.03 46.7192C125.731 46.8544 125.473 47.0416 125.261 47.287C125.049 47.5334 124.9 47.8106 124.819 48.1225C124.784 48.2563 124.761 48.3913 124.753 48.5281C124.74 48.7629 124.768 48.9938 124.835 49.2206C124.897 49.4304 124.99 49.6257 125.115 49.8069C125.263 50.0206 125.445 50.2019 125.66 50.3529C125.826 50.469 126.005 50.5607 126.197 50.6276C126.36 50.6844 126.529 50.7254 126.703 50.7375C126.719 50.7386 126.734 50.7457 126.75 50.75H127.129C127.145 50.7457 127.16 50.7389 127.176 50.7375C127.359 50.722 127.535 50.6778 127.708 50.6165C127.993 50.5151 128.244 50.3614 128.461 50.158C128.713 49.9213 128.898 49.6431 129.011 49.3195C129.065 49.1662 129.101 49.0104 129.118 48.8509C129.135 48.6904 129.131 48.5294 129.109 48.3681C129.088 48.2174 129.052 48.0712 129.001 47.9287C128.936 47.7521 128.848 47.586 128.736 47.4336C128.507 47.1237 128.217 46.8832 127.855 46.7265C127.815 46.7092 127.775 46.6908 127.723 46.6672C127.784 46.6006 127.835 46.538 127.894 46.483C128.009 46.3753 128.15 46.3072 128.298 46.2551C128.39 46.223 128.485 46.1975 128.579 46.1721C128.642 46.1551 128.706 46.142 128.77 46.1297C128.864 46.1118 128.957 46.0931 129.052 46.08C129.185 46.0618 129.318 46.048 129.451 46.0332C129.559 46.0212 129.666 46.01 129.774 45.9997C129.857 45.9916 129.941 45.9861 130.024 45.9783C130.137 45.9677 130.25 45.9563 130.363 45.9446C130.504 45.93 130.646 45.919 130.787 45.8987C130.964 45.8733 131.14 45.8425 131.316 45.8092C131.441 45.7855 131.568 45.7619 131.69 45.7241C131.865 45.6697 132.038 45.6064 132.209 45.5396C132.419 45.4576 132.61 45.3426 132.788 45.2074C133.007 45.0408 133.19 44.8436 133.338 44.6148C133.465 44.42 133.56 44.2128 133.625 43.9931C133.666 43.8541 133.699 43.712 133.721 43.5692C133.745 43.4153 133.754 43.259 133.764 43.1034C133.766 43.0627 133.778 43.0415 133.817 43.0303C133.84 43.0234 133.863 43.0147 133.885 43.0059C134.218 42.8764 134.498 42.6768 134.731 42.4146C134.971 42.1432 135.129 41.8307 135.205 41.4821C135.232 41.36 135.242 41.2338 135.249 41.1089C135.253 41.0104 135.245 40.9107 135.234 40.8124ZM126.937 49.0634C126.693 49.0619 126.501 48.8787 126.501 48.6412C126.501 48.4138 126.697 48.2248 126.938 48.2243C127.171 48.2239 127.38 48.4197 127.368 48.6443C127.378 48.8675 127.178 49.0648 126.937 49.0634ZM126.935 39.7841C126.696 39.782 126.501 39.5949 126.501 39.3682C126.501 39.1295 126.692 38.9472 126.936 38.9454C127.179 38.9435 127.378 39.1408 127.368 39.3638C127.38 39.5902 127.17 39.7863 126.935 39.7841ZM133.059 41.4688C132.822 41.478 132.622 41.2705 132.625 41.0487C132.628 40.8231 132.822 40.6313 133.063 40.6317C133.3 40.6321 133.495 40.8238 133.495 41.0536C133.495 41.2797 133.295 41.4771 133.059 41.4688Z" fill="#F8F9FA"/>
<line x1="1" y1="-1" x2="27.75" y2="-1" transform="matrix(0.750501 0.660869 -0.155695 0.987805 99 24)" stroke="#F8F9FA" stroke-width="2" stroke-linecap="round" stroke-dasharray="4 4"/>
<line x1="1" y1="-1" x2="27.1205" y2="-1" transform="matrix(0.737211 -0.675663 0.161886 0.986809 100.27 70)" stroke="#F8F9FA" stroke-width="2" stroke-linecap="round" stroke-dasharray="4 4"/>
<line x1="100" y1="46" x2="120" y2="46" stroke="#F8F9FA" stroke-width="2" stroke-linecap="round" stroke-dasharray="4 4"/>
<line x1="140" y1="46" x2="160" y2="46" stroke="#F8F9FA" stroke-width="2" stroke-linecap="round" stroke-dasharray="4 4"/>
<line x1="192" y1="46" x2="241" y2="46" stroke="#F8F9FA" stroke-width="2" stroke-linecap="round" stroke-dasharray="4 4"/>
<line x1="1" y1="-1" x2="27.75" y2="-1" transform="matrix(-0.750501 0.660869 0.155695 0.987805 80 24)" stroke="#F8F9FA" stroke-width="2" stroke-linecap="round" stroke-dasharray="4 4"/>
<line x1="1" y1="-1" x2="27.1205" y2="-1" transform="matrix(-0.737211 -0.675663 -0.161886 0.986809 78.7305 70)" stroke="#F8F9FA" stroke-width="2" stroke-linecap="round" stroke-dasharray="4 4"/>
<line x1="1" y1="-1" x2="21" y2="-1" transform="matrix(-1 2.00023e-06 3.82093e-09 1 80 47)" stroke="#F8F9FA" stroke-width="2" stroke-linecap="round" stroke-dasharray="4 4"/>
<circle cx="177" cy="51" r="9" stroke="#F8F9FA" stroke-width="2"/>
<path d="M183.729 32.6765C183.669 32.5203 183.56 32.4417 183.408 32.433C183.392 32.432 183.375 32.4326 183.358 32.4326H177.575C177.501 32.4326 177.51 32.4378 177.51 32.3594C177.51 32.0921 177.51 31.8249 177.51 31.5577V31.499H177.557C178.053 31.499 178.548 31.4999 179.044 31.4986C179.23 31.4981 179.385 31.4148 179.514 31.2682C179.598 31.1731 179.653 31.0601 179.683 30.9324C179.694 30.8894 179.7 30.844 179.7 30.7997C179.701 29.7667 179.703 28.7336 179.699 27.7006C179.699 27.4978 179.613 27.3295 179.479 27.1933C179.387 27.0993 179.28 27.034 179.154 27.0148C179.105 27.0073 179.055 27.0008 179.005 27.0008C177.664 27 176.322 27.0004 174.98 27C174.74 26.9999 174.554 27.114 174.417 27.3278C174.363 27.4116 174.324 27.5048 174.313 27.6092C174.308 27.6588 174.301 27.7087 174.301 27.7584C174.3 28.7582 174.3 29.7579 174.301 30.7578C174.302 31.0299 174.414 31.2366 174.618 31.3849C174.727 31.4646 174.847 31.4996 174.978 31.4994C175.466 31.4984 175.954 31.499 176.443 31.499H176.489C176.489 31.5191 176.491 31.5359 176.491 31.5527C176.491 31.8267 176.491 32.1005 176.491 32.3744C176.491 32.4324 176.491 32.4325 176.437 32.4325C174.499 32.4325 172.561 32.4327 170.623 32.4321C170.497 32.432 170.39 32.4739 170.315 32.5909C170.292 32.6264 170.28 32.6707 170.263 32.7107C170.26 32.7171 170.254 32.722 170.25 32.7276V33.2717C170.257 33.2888 170.264 33.3058 170.27 33.3229C170.331 33.4792 170.44 33.5576 170.591 33.5654C170.607 33.5662 170.623 33.5656 170.638 33.5656H172.723C172.758 33.5656 172.776 33.5852 172.776 33.6242C172.776 33.8978 172.776 34.1714 172.776 34.445C172.776 34.4619 172.774 34.4787 172.774 34.4993H172.725C172.35 34.4993 171.975 34.4999 171.601 34.499C171.361 34.4985 171.175 34.6119 171.036 34.8257C170.982 34.9097 170.943 35.0025 170.932 35.1067C170.926 35.1629 170.92 35.2196 170.92 35.2759C170.919 36.2733 170.918 37.2706 170.92 38.2679C170.921 38.5349 171.035 38.7379 171.235 38.8839C171.347 38.9654 171.469 38.9997 171.602 38.9996C172.727 38.9988 173.853 38.9999 174.978 38.9985C175.224 38.9982 175.41 38.8726 175.543 38.6466C175.615 38.5262 175.646 38.3945 175.646 38.251C175.646 37.2496 175.647 36.2483 175.646 35.247C175.646 34.9714 175.534 34.7625 175.328 34.6125C175.257 34.5613 175.182 34.5253 175.098 34.5138C175.05 34.5073 175.001 34.5002 174.953 34.5C174.582 34.4989 174.211 34.4994 173.839 34.4994H173.794C173.793 34.4814 173.792 34.4673 173.792 34.4532C173.792 34.1738 173.793 33.8946 173.791 33.6154C173.791 33.5747 173.802 33.564 173.838 33.564C175.944 33.5649 178.05 33.5648 180.156 33.5641C180.189 33.5641 180.202 33.5731 180.202 33.6126C180.2 33.8933 180.201 34.1738 180.201 34.4544C180.201 34.4674 180.2 34.4805 180.199 34.4994H180.156C179.78 34.4994 179.404 34.4998 179.028 34.4992C178.789 34.4988 178.604 34.6111 178.466 34.8237C178.411 34.9089 178.372 35.0024 178.36 35.1081C178.355 35.159 178.348 35.2103 178.348 35.2614C178.347 36.2613 178.346 37.2613 178.348 38.2613C178.349 38.5319 178.462 38.7372 178.665 38.8847C178.774 38.9646 178.894 38.9996 179.024 38.9995C180.151 38.999 181.278 38.998 182.405 39C182.702 39.0005 182.958 38.7738 183.043 38.4833C183.063 38.4142 183.073 38.3384 183.073 38.2657C183.075 37.255 183.076 36.2444 183.074 35.2338C183.073 34.9649 182.959 34.7609 182.758 34.6142C182.647 34.5335 182.526 34.4986 182.395 34.499C182.02 34.5001 181.645 34.4994 181.27 34.4994H181.223C181.222 34.481 181.22 34.4644 181.22 34.4478C181.22 34.1725 181.22 33.8973 181.22 33.6221C181.22 33.584 181.237 33.5649 181.271 33.5648C181.976 33.5648 182.681 33.5646 183.387 33.565C183.509 33.565 183.613 33.5203 183.686 33.4073C183.708 33.3717 183.72 33.3275 183.737 33.2874C183.74 33.281 183.746 33.2761 183.75 33.2705V32.7279C183.743 32.7109 183.736 32.6939 183.73 32.6768L183.729 32.6765ZM174.3 35.9993V37.4914H172.282V35.9993H174.3ZM175.657 29.999V28.5069H178.35V29.999H175.657ZM181.725 35.9993V37.4914H179.707V35.9993H181.725Z" fill="#F8F9FA"/>
<path d="M180.787 55.25H173.22C173.212 55.2468 173.204 55.2423 173.195 55.2404C173.14 55.2287 173.084 55.2225 173.031 55.2054C172.853 55.1479 172.701 55.0509 172.579 54.9111C172.414 54.7224 172.333 54.5018 172.333 54.2534C172.333 52.9492 172.333 51.645 172.333 50.3407C172.334 50.2142 172.353 50.0902 172.401 49.9717C172.46 49.8264 172.547 49.7002 172.665 49.5954C172.816 49.4609 172.994 49.3793 173.195 49.3505C173.271 49.3397 173.348 49.3403 173.425 49.3393C173.548 49.3376 173.672 49.3388 173.795 49.3388H173.834C173.834 49.3224 173.834 49.3097 173.834 49.297C173.834 48.8121 173.833 48.3273 173.835 47.8425C173.835 47.733 173.847 47.6235 173.856 47.5142C173.868 47.3627 173.897 47.2128 173.942 47.0674C173.981 46.9423 174.022 46.8177 174.068 46.695C174.136 46.5166 174.228 46.35 174.332 46.1898C174.506 45.9211 174.718 45.6846 174.966 45.4793C175.199 45.2862 175.455 45.1297 175.735 45.0085C175.901 44.9364 176.072 44.8809 176.247 44.8357C176.336 44.8129 176.426 44.7955 176.517 44.7824C176.62 44.7675 176.725 44.7536 176.829 44.7511C176.969 44.7478 177.11 44.7525 177.25 44.7585C177.412 44.7654 177.57 44.791 177.727 44.8309C177.801 44.8499 177.877 44.8651 177.95 44.8895C178.064 44.9275 178.177 44.9669 178.286 45.0146C178.518 45.1152 178.734 45.2425 178.934 45.3954C179.184 45.5863 179.402 45.8078 179.585 46.0619C179.751 46.2923 179.884 46.5399 179.982 46.8058C180.039 46.9612 180.083 47.12 180.116 47.2815C180.136 47.3806 180.15 47.4813 180.158 47.5819C180.168 47.6918 180.171 47.8026 180.171 47.913C180.172 48.3749 180.172 48.8369 180.172 49.2988V49.3388C180.187 49.3388 180.198 49.3388 180.209 49.3388C180.31 49.3388 180.412 49.3363 180.513 49.3395C180.626 49.3431 180.74 49.3486 180.854 49.3597C180.941 49.3684 181.023 49.3999 181.101 49.4378C181.304 49.5357 181.459 49.6826 181.562 49.8819C181.627 50.0081 181.666 50.14 181.666 50.2827C181.665 51.6098 181.665 52.937 181.666 54.2641C181.666 54.3898 181.648 54.5096 181.601 54.6264C181.538 54.7847 181.44 54.9182 181.307 55.0254C181.162 55.1428 180.996 55.2182 180.808 55.2407C180.801 55.2416 180.794 55.2468 180.787 55.2499V55.25ZM177.003 49.3449C177.486 49.3449 177.969 49.3449 178.452 49.3449C178.485 49.3449 178.501 49.3294 178.501 49.2984C178.501 48.8365 178.501 48.3747 178.5 47.9128C178.5 47.7917 178.491 47.6715 178.464 47.5525C178.429 47.3949 178.369 47.2473 178.284 47.1102C178.117 46.8416 177.887 46.6437 177.593 46.517C177.456 46.4579 177.313 46.419 177.165 46.4052C177.017 46.3915 176.869 46.3944 176.722 46.4228C176.592 46.4478 176.468 46.4871 176.35 46.544C176.111 46.6588 175.917 46.8244 175.765 47.0399C175.638 47.2221 175.557 47.4235 175.521 47.6407C175.507 47.7245 175.505 47.811 175.505 47.8962C175.503 48.365 175.504 48.8338 175.504 49.3027C175.504 49.3309 175.518 49.3449 175.546 49.345C176.032 49.345 176.517 49.345 177.002 49.345L177.003 49.3449Z" fill="#F8F9FA"/>
<g clip-path="url(#clip0_1667_3571)">
<path d="M264.646 39.1022C264.646 40.0656 263.862 40.8574 262.871 40.8574C261.875 40.8574 261.085 40.0604 261.085 39.1022C261.085 38.1441 261.875 37.3471 262.871 37.3471C263.862 37.3471 264.646 38.1389 264.646 39.1022ZM256.846 37.4492C256.846 38.7202 255.817 39.7553 254.514 39.7553C253.206 39.7553 252.171 38.7159 252.171 37.4492C252.171 36.1825 253.206 35.1431 254.514 35.1431C255.817 35.1431 256.846 36.1781 256.846 37.4492ZM257.742 47.092C257.742 46.9598 257.802 46.767 258.087 46.5066C258.379 46.2405 258.832 45.9792 259.41 45.7503C260.568 45.292 261.975 45.0614 262.871 45.0614C263.767 45.0614 265.174 45.292 266.332 45.7503C266.91 45.9792 267.363 46.2405 267.655 46.5066C267.941 46.767 268 46.9598 268 47.092V48.5716H257.742V47.092ZM247.714 46.8165C247.714 46.5463 247.843 46.233 248.241 45.8694C248.646 45.5 249.256 45.1527 250.008 44.8549C251.514 44.2589 253.339 43.9594 254.514 43.9594C254.572 43.9594 254.632 43.9602 254.694 43.9618C254.458 44.2409 254.264 44.5264 254.106 44.8135C253.632 45.6744 253.514 46.4928 253.514 47.092V48.5716H247.714V46.8165Z" stroke="#F8F9FA" stroke-width="2"/>
</g>
<path d="M237.482 61H236.558L239.229 53.7273H240.138L242.808 61H241.885L239.712 54.8778H239.655L237.482 61ZM237.823 58.1591H241.544V58.9403H237.823V58.1591ZM243.828 63.0455V55.5455H244.637V56.4119H244.737C244.798 56.3172 244.883 56.1965 244.992 56.0497C245.104 55.9006 245.262 55.768 245.468 55.652C245.677 55.5336 245.958 55.4744 246.313 55.4744C246.773 55.4744 247.177 55.5893 247.528 55.8189C247.878 56.0485 248.152 56.3741 248.348 56.7955C248.545 57.2169 248.643 57.714 248.643 58.2869C248.643 58.8646 248.545 59.3653 248.348 59.7891C248.152 60.2105 247.879 60.5372 247.531 60.7692C247.183 60.9988 246.782 61.1136 246.328 61.1136C245.977 61.1136 245.697 61.0556 245.486 60.9396C245.275 60.8213 245.113 60.6875 244.999 60.5384C244.886 60.3868 244.798 60.2614 244.737 60.1619H244.666V63.0455H243.828ZM244.651 58.2727C244.651 58.6847 244.712 59.0481 244.833 59.3629C244.953 59.6754 245.13 59.9205 245.362 60.098C245.594 60.2732 245.878 60.3608 246.214 60.3608C246.564 60.3608 246.857 60.2685 247.091 60.0838C247.328 59.8968 247.505 59.6458 247.624 59.331C247.744 59.0137 247.805 58.661 247.805 58.2727C247.805 57.8892 247.746 57.5436 247.627 57.2358C247.511 56.9257 247.335 56.6806 247.098 56.5007C246.864 56.3184 246.569 56.2273 246.214 56.2273C245.873 56.2273 245.587 56.3137 245.355 56.4865C245.123 56.657 244.947 56.8961 244.829 57.2038C244.711 57.5092 244.651 57.8655 244.651 58.2727ZM249.921 63.0455V55.5455H250.731V56.4119H250.83C250.892 56.3172 250.977 56.1965 251.086 56.0497C251.197 55.9006 251.356 55.768 251.562 55.652C251.77 55.5336 252.052 55.4744 252.407 55.4744C252.866 55.4744 253.271 55.5893 253.622 55.8189C253.972 56.0485 254.245 56.3741 254.442 56.7955C254.638 57.2169 254.737 57.714 254.737 58.2869C254.737 58.8646 254.638 59.3653 254.442 59.7891C254.245 60.2105 253.973 60.5372 253.625 60.7692C253.277 60.9988 252.876 61.1136 252.421 61.1136C252.071 61.1136 251.79 61.0556 251.58 60.9396C251.369 60.8213 251.207 60.6875 251.093 60.5384C250.98 60.3868 250.892 60.2614 250.83 60.1619H250.759V63.0455H249.921ZM250.745 58.2727C250.745 58.6847 250.806 59.0481 250.926 59.3629C251.047 59.6754 251.223 59.9205 251.455 60.098C251.687 60.2732 251.972 60.3608 252.308 60.3608C252.658 60.3608 252.95 60.2685 253.185 60.0838C253.422 59.8968 253.599 59.6458 253.718 59.331C253.838 59.0137 253.899 58.661 253.899 58.2727C253.899 57.8892 253.839 57.5436 253.721 57.2358C253.605 56.9257 253.429 56.6806 253.192 56.5007C252.958 56.3184 252.663 56.2273 252.308 56.2273C251.967 56.2273 251.68 56.3137 251.448 56.4865C251.216 56.657 251.041 56.8961 250.923 57.2038C250.804 57.5092 250.745 57.8655 250.745 58.2727ZM256.853 53.7273V61H256.015V53.7273H256.853ZM258.388 61V55.5455H259.226V61H258.388ZM258.814 54.6364C258.651 54.6364 258.51 54.5807 258.392 54.4695C258.276 54.3582 258.218 54.2244 258.218 54.0682C258.218 53.9119 258.276 53.7782 258.392 53.6669C258.51 53.5556 258.651 53.5 258.814 53.5C258.978 53.5 259.117 53.5556 259.233 53.6669C259.352 53.7782 259.411 53.9119 259.411 54.0682C259.411 54.2244 259.352 54.3582 259.233 54.4695C259.117 54.5807 258.978 54.6364 258.814 54.6364ZM262.977 61.1136C262.466 61.1136 262.025 60.9929 261.656 60.7514C261.287 60.5099 261.003 60.1773 260.804 59.7536C260.605 59.3298 260.506 58.8456 260.506 58.3011C260.506 57.7472 260.607 57.2583 260.811 56.8345C261.017 56.4084 261.303 56.0758 261.67 55.8366C262.04 55.5952 262.47 55.4744 262.963 55.4744C263.346 55.4744 263.692 55.5455 264 55.6875C264.308 55.8295 264.56 56.0284 264.756 56.2841C264.953 56.5398 265.075 56.8381 265.122 57.179H264.284C264.22 56.9304 264.078 56.7102 263.858 56.5185C263.64 56.3243 263.346 56.2273 262.977 56.2273C262.65 56.2273 262.364 56.3125 262.118 56.483C261.874 56.651 261.683 56.889 261.546 57.1967C261.411 57.5021 261.344 57.8608 261.344 58.2727C261.344 58.6941 261.41 59.0611 261.542 59.3736C261.677 59.6861 261.867 59.9287 262.111 60.1016C262.357 60.2744 262.646 60.3608 262.977 60.3608C263.195 60.3608 263.393 60.3229 263.57 60.2472C263.748 60.1714 263.898 60.0625 264.021 59.9205C264.144 59.7784 264.232 59.608 264.284 59.4091H265.122C265.075 59.7311 264.957 60.0211 264.77 60.2791C264.586 60.5348 264.341 60.7384 264.035 60.8899C263.732 61.0391 263.38 61.1136 262.977 61.1136ZM267.952 61.1278C267.607 61.1278 267.293 61.0627 267.011 60.9325C266.729 60.8 266.506 60.6094 266.34 60.3608C266.174 60.1098 266.091 59.8068 266.091 59.4517C266.091 59.1392 266.153 58.8859 266.276 58.6918C266.399 58.4953 266.564 58.3414 266.77 58.2301C266.976 58.1188 267.203 58.036 267.452 57.9815C267.702 57.9247 267.955 57.8797 268.208 57.8466C268.539 57.804 268.808 57.772 269.014 57.7507C269.222 57.727 269.374 57.688 269.469 57.6335C269.566 57.5791 269.614 57.4844 269.614 57.3494V57.321C269.614 56.9706 269.518 56.6984 269.327 56.5043C269.137 56.3101 268.849 56.2131 268.464 56.2131C268.064 56.2131 267.75 56.3007 267.523 56.4759C267.295 56.651 267.135 56.8381 267.043 57.0369L266.248 56.7528C266.39 56.4214 266.579 56.1634 266.816 55.9787C267.055 55.7917 267.315 55.6615 267.597 55.5881C267.881 55.5123 268.161 55.4744 268.435 55.4744C268.61 55.4744 268.812 55.4957 269.039 55.5384C269.269 55.5786 269.49 55.6626 269.703 55.7905C269.918 55.9183 270.097 56.1113 270.239 56.3693C270.381 56.6274 270.452 56.973 270.452 57.4062V61H269.614V60.2614H269.572C269.515 60.3797 269.42 60.5064 269.287 60.6413C269.155 60.7763 268.979 60.8911 268.758 60.9858C268.538 61.0805 268.269 61.1278 267.952 61.1278ZM268.08 60.375C268.412 60.375 268.691 60.3099 268.918 60.1797C269.148 60.0495 269.321 59.8814 269.437 59.6754C269.555 59.4695 269.614 59.2528 269.614 59.0256V58.2585C269.579 58.3011 269.501 58.3402 269.38 58.3757C269.261 58.4089 269.124 58.4384 268.968 58.4645C268.814 58.4882 268.664 58.5095 268.517 58.5284C268.372 58.545 268.255 58.5592 268.165 58.571C267.948 58.5994 267.744 58.6456 267.555 58.7095C267.367 58.7711 267.216 58.8646 267.1 58.9901C266.986 59.1132 266.93 59.2812 266.93 59.4943C266.93 59.7855 267.037 60.0057 267.253 60.1548C267.47 60.3016 267.746 60.375 268.08 60.375ZM272.82 57.7188V61H271.982V55.5455H272.792V56.3977H272.863C272.99 56.1207 273.185 55.8982 273.445 55.7301C273.705 55.5597 274.042 55.4744 274.453 55.4744C274.823 55.4744 275.146 55.5502 275.423 55.7017C275.7 55.8509 275.915 56.0781 276.069 56.3835C276.223 56.6866 276.3 57.0701 276.3 57.5341V61H275.462V57.5909C275.462 57.1624 275.351 56.8286 275.128 56.5895C274.906 56.348 274.6 56.2273 274.212 56.2273C273.944 56.2273 273.705 56.2853 273.495 56.4013C273.286 56.5173 273.122 56.6866 273.001 56.9091C272.88 57.1316 272.82 57.4015 272.82 57.7188ZM280.204 55.5455V56.2557H277.377V55.5455H280.204ZM278.201 54.2386H279.039V59.4375C279.039 59.6742 279.073 59.8518 279.142 59.9702C279.213 60.0862 279.303 60.1643 279.412 60.2045C279.523 60.2424 279.64 60.2614 279.763 60.2614C279.856 60.2614 279.931 60.2566 279.991 60.2472C280.05 60.2353 280.097 60.2259 280.133 60.2188L280.303 60.9716C280.246 60.9929 280.167 61.0142 280.065 61.0355C279.963 61.0592 279.834 61.071 279.678 61.071C279.441 61.071 279.209 61.0201 278.982 60.9183C278.757 60.8165 278.57 60.6615 278.421 60.4531C278.274 60.2448 278.201 59.982 278.201 59.6648V54.2386Z" fill="#F8F9FA"/>
<defs>
<clipPath id="clip0_1667_3571">
<rect width="24" height="24" fill="white" transform="translate(245 29)"/>
</clipPath>
</defs>
</svg>
