<svg width="320" height="80" viewBox="0 0 320 80" fill="none" xmlns="http://www.w3.org/2000/svg">
<line x1="179.125" y1="39" x2="264.125" y2="39" stroke="#F8F9FA" stroke-width="2" stroke-linecap="round" stroke-dasharray="4 4"/>
<line x1="35" y1="41" x2="68" y2="41" stroke="#F8F9FA" stroke-width="2" stroke-linecap="round" stroke-dasharray="4 4"/>
<line x1="106" y1="40" x2="131" y2="40" stroke="#F8F9FA" stroke-width="2" stroke-linecap="round" stroke-dasharray="4 4"/>
<circle cx="159.125" cy="40" r="9" stroke="#F8F9FA" stroke-width="2"/>
<path d="M30.3593 39.8124C30.3488 39.7185 30.3323 39.6245 30.3097 39.5325C30.2717 39.3777 30.2122 39.2299 30.1365 39.0882C30.0299 38.8885 29.8944 38.7092 29.7293 38.551C29.5484 38.3776 29.3436 38.2356 29.1107 38.1364C28.9782 38.0799 28.8394 38.0348 28.6997 37.9974C28.6004 37.9706 28.4949 37.9659 28.3922 37.9505C28.2236 37.9251 28.055 37.9377 27.8878 37.9577C27.7075 37.9794 27.532 38.0255 27.3639 38.0921C27.1178 38.1895 26.8945 38.3243 26.7006 38.5C26.4087 38.7646 26.2023 39.0808 26.0885 39.4534C26.0345 39.6307 26.0026 39.8113 25.9996 39.9942C25.9974 40.1333 26.0123 40.2742 26.0362 40.4117C26.0586 40.5405 26.0939 40.669 26.1394 40.792C26.2287 41.0336 26.3664 41.2506 26.543 41.4423C26.8004 41.7217 27.1109 41.9266 27.48 42.0457C27.5404 42.0652 27.5678 42.1056 27.5622 42.167C27.5619 42.1697 27.5618 42.1724 27.5617 42.175C27.5549 42.3565 27.5207 42.5332 27.4603 42.7053C27.379 42.9365 27.2365 43.1229 27.0263 43.2602C26.8767 43.3579 26.7144 43.4294 26.5414 43.4781C26.429 43.5097 26.3164 43.5415 26.2024 43.5667C26.1082 43.5874 26.0117 43.5996 25.916 43.6138C25.7983 43.6312 25.6807 43.6494 25.5625 43.6624C25.402 43.6801 25.2409 43.6932 25.08 43.7083C24.9041 43.7248 24.7283 43.741 24.5525 43.7579C24.4517 43.7676 24.3507 43.7764 24.2502 43.7892C24.1351 43.8038 24.0205 43.8216 23.9059 43.8393C23.814 43.8535 23.7218 43.866 23.6312 43.8854C23.5076 43.9118 23.3844 43.9408 23.2629 43.9749C23.1453 44.0078 23.0295 44.047 22.9142 44.0867C22.851 44.1084 22.7902 44.1366 22.7224 44.1644V44.1064C22.7224 42.8831 22.7224 41.6598 22.7224 40.4365C22.7224 40.426 22.7233 40.4153 22.7223 40.4048C22.7201 40.3827 22.7302 40.373 22.7521 40.3652C22.8172 40.3424 22.8817 40.3174 22.9454 40.2911C23.2766 40.1546 23.5514 39.9469 23.7758 39.6764C23.9643 39.4492 24.1025 39.1966 24.1742 38.9131C24.2036 38.7971 24.2295 38.6793 24.243 38.5608C24.265 38.3684 24.2534 38.1761 24.2175 37.9848C24.1892 37.8342 24.1455 37.6882 24.0846 37.5476C24.0239 37.4074 23.9469 37.2753 23.8558 37.1504C23.59 36.7863 23.2383 36.5305 22.8076 36.3753C22.625 36.3095 22.4344 36.2716 22.2404 36.2572C22.0277 36.2416 21.8143 36.2496 21.6068 36.298C21.4674 36.3305 21.3299 36.3753 21.1971 36.4275C20.8662 36.5575 20.5928 36.7644 20.3672 37.0302C20.2066 37.2194 20.0853 37.4297 20.0007 37.661C19.9492 37.802 19.9124 37.9459 19.8931 38.0932C19.8671 38.2905 19.8684 38.4879 19.9032 38.6856C19.926 38.8158 19.9583 38.9423 20.0025 39.067C20.0863 39.3027 20.2128 39.5152 20.3771 39.7059C20.6376 40.0085 20.9617 40.2257 21.3472 40.3549C21.3923 40.37 21.4067 40.3877 21.4067 40.4342C21.4053 42.1447 21.4055 43.8552 21.4055 45.5657C21.4055 45.5736 21.4048 45.5816 21.4056 45.5895C21.4085 45.6155 21.3992 45.6283 21.3709 45.6376C21.2977 45.6616 21.2248 45.6875 21.1549 45.7192C20.856 45.8544 20.5975 46.0416 20.3862 46.287C20.174 46.5334 20.0248 46.8106 19.9438 47.1225C19.9091 47.2563 19.8862 47.3913 19.8783 47.5281C19.8646 47.7629 19.8935 47.9938 19.9605 48.2206C20.0225 48.4304 20.1154 48.6257 20.2405 48.8069C20.3878 49.0206 20.5696 49.2019 20.7855 49.3529C20.9514 49.469 21.1304 49.5607 21.3222 49.6276C21.4853 49.6844 21.6535 49.7254 21.8278 49.7375C21.8437 49.7386 21.8592 49.7457 21.8749 49.75H22.2538C22.2695 49.7457 22.285 49.7389 22.301 49.7375C22.4845 49.722 22.6605 49.6778 22.8331 49.6165C23.1182 49.5151 23.3685 49.3614 23.5856 49.158C23.8382 48.9213 24.023 48.6431 24.1361 48.3195C24.1895 48.1662 24.2258 48.0104 24.2429 47.8509C24.26 47.6904 24.2561 47.5294 24.2339 47.3681C24.2133 47.2174 24.1774 47.0712 24.1256 46.9287C24.0614 46.7521 23.9733 46.586 23.8608 46.4336C23.6318 46.1237 23.3415 45.8832 22.9798 45.7265C22.9397 45.7092 22.9001 45.6908 22.8476 45.6672C22.909 45.6006 22.9602 45.538 23.019 45.483C23.1337 45.3753 23.2746 45.3072 23.4233 45.2551C23.5151 45.223 23.6095 45.1975 23.7037 45.1721C23.7666 45.1551 23.8308 45.142 23.8949 45.1297C23.9886 45.1118 24.0823 45.0931 24.1769 45.08C24.3096 45.0618 24.4429 45.048 24.5761 45.0332C24.6837 45.0212 24.7913 45.01 24.899 44.9997C24.9822 44.9916 25.0656 44.9861 25.1488 44.9783C25.2619 44.9677 25.3749 44.9563 25.4879 44.9446C25.6294 44.93 25.7714 44.919 25.9121 44.8987C26.0889 44.8733 26.2651 44.8425 26.4406 44.8092C26.5663 44.7855 26.6932 44.7619 26.8148 44.7241C26.9903 44.6697 27.1632 44.6064 27.3342 44.5396C27.5442 44.4576 27.7353 44.3426 27.913 44.2074C28.1319 44.0408 28.3149 43.8436 28.4633 43.6148C28.5895 43.42 28.6852 43.2128 28.7499 42.9931C28.7909 42.8541 28.8243 42.712 28.8463 42.5692C28.8701 42.4153 28.8792 42.259 28.8888 42.1034C28.8914 42.0627 28.9034 42.0415 28.9416 42.0303C28.9649 42.0234 28.9878 42.0147 29.0105 42.0059C29.343 41.8764 29.6234 41.6768 29.8558 41.4146C30.0963 41.1432 30.2544 40.8307 30.3303 40.4821C30.3569 40.36 30.3673 40.2338 30.3736 40.1089C30.3784 40.0104 30.3703 39.9107 30.3593 39.8124ZM22.062 48.0634C21.8175 48.0619 21.6261 47.8787 21.626 47.6412C21.6259 47.4138 21.8223 47.2248 22.0634 47.2243C22.2962 47.2239 22.5048 47.4197 22.4934 47.6443C22.5032 47.8675 22.3033 48.0648 22.062 48.0634ZM22.0599 38.7841C21.8207 38.782 21.6264 38.5949 21.6261 38.3682C21.6256 38.1295 21.8173 37.9472 22.0612 37.9454C22.3036 37.9435 22.5029 38.1408 22.4934 38.3638C22.5048 38.5902 22.2949 38.7863 22.0599 38.7841ZM28.1841 40.4688C27.9469 40.478 27.7474 40.2705 27.7502 40.0487C27.7531 39.8231 27.9474 39.6313 28.1878 39.6317C28.425 39.6321 28.6199 39.8238 28.62 40.0536C28.6202 40.2797 28.4202 40.4771 28.1841 40.4688Z" fill="#F8F9FA"/>
<path d="M146.859 35.8124C146.849 35.7185 146.832 35.6245 146.81 35.5325C146.772 35.3777 146.712 35.2299 146.637 35.0882C146.53 34.8885 146.394 34.7092 146.229 34.551C146.048 34.3776 145.844 34.2356 145.611 34.1364C145.478 34.0799 145.339 34.0348 145.2 33.9974C145.1 33.9706 144.995 33.9659 144.892 33.9505C144.724 33.9251 144.555 33.9377 144.388 33.9577C144.207 33.9794 144.032 34.0255 143.864 34.0921C143.618 34.1895 143.395 34.3243 143.201 34.5C142.909 34.7646 142.702 35.0808 142.589 35.4534C142.534 35.6307 142.503 35.8113 142.5 35.9942C142.497 36.1333 142.512 36.2742 142.536 36.4117C142.559 36.5405 142.594 36.669 142.639 36.792C142.729 37.0336 142.866 37.2506 143.043 37.4423C143.3 37.7217 143.611 37.9266 143.98 38.0457C144.04 38.0652 144.068 38.1056 144.062 38.167C144.062 38.1697 144.062 38.1724 144.062 38.175C144.055 38.3565 144.021 38.5332 143.96 38.7053C143.879 38.9365 143.737 39.1229 143.526 39.2602C143.377 39.3579 143.214 39.4294 143.041 39.4781C142.929 39.5097 142.816 39.5415 142.702 39.5667C142.608 39.5874 142.512 39.5996 142.416 39.6138C142.298 39.6312 142.181 39.6494 142.063 39.6624C141.902 39.6801 141.741 39.6932 141.58 39.7083C141.404 39.7248 141.228 39.741 141.053 39.7579C140.952 39.7676 140.851 39.7764 140.75 39.7892C140.635 39.8038 140.521 39.8216 140.406 39.8393C140.314 39.8535 140.222 39.866 140.131 39.8854C140.008 39.9118 139.884 39.9408 139.763 39.9749C139.645 40.0078 139.53 40.047 139.414 40.0867C139.351 40.1084 139.29 40.1366 139.222 40.1644V40.1064C139.222 38.8831 139.222 37.6598 139.222 36.4365C139.222 36.426 139.223 36.4153 139.222 36.4048C139.22 36.3827 139.23 36.373 139.252 36.3652C139.317 36.3424 139.382 36.3174 139.445 36.2911C139.777 36.1546 140.051 35.9469 140.276 35.6764C140.464 35.4492 140.603 35.1966 140.674 34.9131C140.704 34.7971 140.73 34.6793 140.743 34.5608C140.765 34.3684 140.753 34.1761 140.717 33.9848C140.689 33.8342 140.646 33.6882 140.585 33.5476C140.524 33.4074 140.447 33.2753 140.356 33.1504C140.09 32.7863 139.738 32.5305 139.308 32.3753C139.125 32.3095 138.934 32.2716 138.74 32.2572C138.528 32.2416 138.314 32.2496 138.107 32.298C137.967 32.3305 137.83 32.3753 137.697 32.4275C137.366 32.5575 137.093 32.7644 136.867 33.0302C136.707 33.2194 136.585 33.4297 136.501 33.661C136.449 33.802 136.412 33.9459 136.393 34.0932C136.367 34.2905 136.368 34.4879 136.403 34.6856C136.426 34.8158 136.458 34.9423 136.503 35.067C136.586 35.3027 136.713 35.5152 136.877 35.7059C137.138 36.0085 137.462 36.2257 137.847 36.3549C137.892 36.37 137.907 36.3877 137.907 36.4342C137.905 38.1447 137.906 39.8552 137.906 41.5657C137.906 41.5736 137.905 41.5816 137.906 41.5895C137.908 41.6155 137.899 41.6283 137.871 41.6376C137.798 41.6616 137.725 41.6875 137.655 41.7192C137.356 41.8544 137.098 42.0416 136.886 42.287C136.674 42.5334 136.525 42.8106 136.444 43.1225C136.409 43.2563 136.386 43.3913 136.378 43.5281C136.365 43.7629 136.393 43.9938 136.46 44.2206C136.522 44.4304 136.615 44.6257 136.74 44.8069C136.888 45.0206 137.07 45.2019 137.285 45.3529C137.451 45.469 137.63 45.5607 137.822 45.6276C137.985 45.6844 138.154 45.7254 138.328 45.7375C138.344 45.7386 138.359 45.7457 138.375 45.75H138.754C138.77 45.7457 138.785 45.7389 138.801 45.7375C138.984 45.722 139.16 45.6778 139.333 45.6165C139.618 45.5151 139.869 45.3614 140.086 45.158C140.338 44.9213 140.523 44.6431 140.636 44.3195C140.69 44.1662 140.726 44.0104 140.743 43.8509C140.76 43.6904 140.756 43.5294 140.734 43.3681C140.713 43.2174 140.677 43.0712 140.626 42.9287C140.561 42.7521 140.473 42.586 140.361 42.4336C140.132 42.1237 139.842 41.8832 139.48 41.7265C139.44 41.7092 139.4 41.6908 139.348 41.6672C139.409 41.6006 139.46 41.538 139.519 41.483C139.634 41.3753 139.775 41.3072 139.923 41.2551C140.015 41.223 140.11 41.1975 140.204 41.1721C140.267 41.1551 140.331 41.142 140.395 41.1297C140.489 41.1118 140.582 41.0931 140.677 41.08C140.81 41.0618 140.943 41.048 141.076 41.0332C141.184 41.0212 141.291 41.01 141.399 40.9997C141.482 40.9916 141.566 40.9861 141.649 40.9783C141.762 40.9677 141.875 40.9563 141.988 40.9446C142.129 40.93 142.271 40.919 142.412 40.8987C142.589 40.8733 142.765 40.8425 142.941 40.8092C143.066 40.7855 143.193 40.7619 143.315 40.7241C143.49 40.6697 143.663 40.6064 143.834 40.5396C144.044 40.4576 144.235 40.3426 144.413 40.2074C144.632 40.0408 144.815 39.8436 144.963 39.6148C145.09 39.42 145.185 39.2128 145.25 38.9931C145.291 38.8541 145.324 38.712 145.346 38.5692C145.37 38.4153 145.379 38.259 145.389 38.1034C145.391 38.0627 145.403 38.0415 145.442 38.0303C145.465 38.0234 145.488 38.0147 145.51 38.0059C145.843 37.8764 146.123 37.6768 146.356 37.4146C146.596 37.1432 146.754 36.8307 146.83 36.4821C146.857 36.36 146.867 36.2338 146.874 36.1089C146.878 36.0104 146.87 35.9107 146.859 35.8124ZM138.562 44.0634C138.318 44.0619 138.126 43.8787 138.126 43.6412C138.126 43.4138 138.322 43.2248 138.563 43.2243C138.796 43.2239 139.005 43.4197 138.993 43.6443C139.003 43.8675 138.803 44.0648 138.562 44.0634ZM138.56 34.7841C138.321 34.782 138.126 34.5949 138.126 34.3682C138.126 34.1295 138.317 33.9472 138.561 33.9454C138.804 33.9435 139.003 34.1408 138.993 34.3638C139.005 34.5902 138.795 34.7863 138.56 34.7841ZM144.684 36.4688C144.447 36.478 144.247 36.2705 144.25 36.0487C144.253 35.8231 144.447 35.6313 144.688 35.6317C144.925 35.6321 145.12 35.8238 145.12 36.0536C145.12 36.2797 144.92 36.4771 144.684 36.4688Z" fill="#F8F9FA"/>
<path d="M165.854 20.6765C165.794 20.5203 165.685 20.4417 165.533 20.433C165.517 20.432 165.5 20.4326 165.483 20.4326H159.7C159.626 20.4326 159.635 20.4378 159.635 20.3594C159.635 20.0921 159.635 19.8249 159.635 19.5577V19.499H159.682C160.178 19.499 160.673 19.4999 161.169 19.4986C161.355 19.4981 161.51 19.4148 161.639 19.2682C161.723 19.1731 161.778 19.0601 161.808 18.9324C161.819 18.8894 161.825 18.844 161.825 18.7997C161.826 17.7667 161.828 16.7336 161.824 15.7006C161.824 15.4978 161.738 15.3295 161.604 15.1933C161.512 15.0993 161.405 15.034 161.279 15.0148C161.23 15.0073 161.18 15.0008 161.13 15.0008C159.789 15 158.447 15.0004 157.105 15C156.865 14.9999 156.679 15.114 156.542 15.3278C156.488 15.4116 156.449 15.5048 156.438 15.6092C156.433 15.6588 156.426 15.7087 156.426 15.7584C156.425 16.7582 156.425 17.7579 156.426 18.7578C156.427 19.0299 156.539 19.2366 156.743 19.3849C156.852 19.4646 156.972 19.4996 157.103 19.4994C157.591 19.4984 158.079 19.499 158.568 19.499H158.614C158.614 19.5191 158.616 19.5359 158.616 19.5527C158.616 19.8267 158.616 20.1005 158.616 20.3744C158.616 20.4324 158.616 20.4325 158.562 20.4325C156.624 20.4325 154.686 20.4327 152.748 20.4321C152.622 20.432 152.515 20.4739 152.44 20.5909C152.417 20.6264 152.405 20.6707 152.388 20.7107C152.385 20.7171 152.379 20.722 152.375 20.7276V21.2717C152.382 21.2888 152.389 21.3058 152.395 21.3229C152.456 21.4792 152.565 21.5576 152.716 21.5654C152.732 21.5662 152.748 21.5656 152.763 21.5656H154.848C154.883 21.5656 154.901 21.5852 154.901 21.6242C154.901 21.8978 154.901 22.1714 154.901 22.445C154.901 22.4619 154.899 22.4787 154.899 22.4993H154.85C154.475 22.4993 154.1 22.4999 153.726 22.499C153.486 22.4985 153.3 22.6119 153.161 22.8257C153.107 22.9097 153.068 23.0025 153.057 23.1067C153.051 23.1629 153.045 23.2196 153.045 23.2759C153.044 24.2733 153.043 25.2706 153.045 26.2679C153.046 26.5349 153.16 26.7379 153.36 26.8839C153.472 26.9654 153.594 26.9997 153.727 26.9996C154.852 26.9988 155.978 26.9999 157.103 26.9985C157.349 26.9982 157.535 26.8726 157.668 26.6466C157.74 26.5262 157.771 26.3945 157.771 26.251C157.771 25.2496 157.772 24.2483 157.771 23.247C157.771 22.9714 157.659 22.7625 157.453 22.6125C157.382 22.5613 157.307 22.5253 157.223 22.5138C157.175 22.5073 157.126 22.5002 157.078 22.5C156.707 22.4989 156.336 22.4994 155.964 22.4994H155.919C155.918 22.4814 155.917 22.4673 155.917 22.4532C155.917 22.1738 155.918 21.8946 155.916 21.6154C155.916 21.5747 155.927 21.564 155.963 21.564C158.069 21.5649 160.175 21.5648 162.281 21.5641C162.314 21.5641 162.327 21.5731 162.327 21.6126C162.325 21.8933 162.326 22.1738 162.326 22.4544C162.326 22.4674 162.325 22.4805 162.324 22.4994H162.281C161.905 22.4994 161.529 22.4998 161.153 22.4992C160.914 22.4988 160.729 22.6111 160.591 22.8237C160.536 22.9089 160.497 23.0024 160.485 23.1081C160.48 23.159 160.473 23.2103 160.473 23.2614C160.472 24.2613 160.471 25.2613 160.473 26.2613C160.474 26.5319 160.587 26.7372 160.79 26.8847C160.899 26.9646 161.019 26.9996 161.149 26.9995C162.276 26.999 163.403 26.998 164.53 27C164.827 27.0005 165.083 26.7738 165.168 26.4833C165.188 26.4142 165.198 26.3384 165.198 26.2657C165.2 25.255 165.201 24.2444 165.199 23.2338C165.198 22.9649 165.084 22.7609 164.883 22.6142C164.772 22.5335 164.651 22.4986 164.52 22.499C164.145 22.5001 163.77 22.4994 163.395 22.4994H163.348C163.347 22.481 163.345 22.4644 163.345 22.4478C163.345 22.1725 163.345 21.8973 163.345 21.6221C163.345 21.584 163.362 21.5649 163.396 21.5648C164.101 21.5648 164.806 21.5646 165.512 21.565C165.634 21.565 165.738 21.5203 165.811 21.4073C165.833 21.3717 165.845 21.3275 165.862 21.2874C165.865 21.281 165.871 21.2761 165.875 21.2705V20.7279C165.868 20.7109 165.861 20.6939 165.855 20.6768L165.854 20.6765ZM156.425 23.9993V25.4914H154.407V23.9993H156.425ZM157.782 17.999V16.5069H160.475V17.999H157.782ZM163.85 23.9993V25.4914H161.832V23.9993H163.85Z" fill="#F8F9FA"/>
<path d="M124.492 24.1226C124.48 24.0633 124.49 24.0026 124.473 23.9408C124.454 23.8749 124.459 23.8017 124.441 23.7326C124.424 23.6699 124.418 23.6045 124.407 23.5403C124.406 23.5377 124.405 23.5352 124.404 23.5326C124.389 23.4762 124.373 23.4197 124.358 23.3632C124.346 23.32 124.335 23.2768 124.323 23.2337C124.316 23.2064 124.309 23.1787 124.299 23.1524C124.286 23.1165 124.268 23.0823 124.253 23.0468C124.242 23.0193 124.232 22.9912 124.223 22.963C124.211 22.9276 124.202 22.8913 124.189 22.8565C124.175 22.8185 124.158 22.7815 124.141 22.7443C124.128 22.7151 124.114 22.6862 124.1 22.6574C124.079 22.6158 124.056 22.5751 124.037 22.5329C124.015 22.487 123.998 22.4395 123.976 22.3937C123.966 22.3727 123.951 22.3546 123.939 22.3346C123.917 22.2983 123.896 22.2618 123.875 22.2249C123.86 22.1988 123.848 22.1715 123.833 22.1458C123.812 22.1093 123.789 22.0738 123.767 22.0377C123.745 22.0026 123.727 21.9657 123.703 21.9325C123.673 21.89 123.638 21.8516 123.608 21.8091C123.575 21.7638 123.55 21.7131 123.516 21.6694C123.469 21.6088 123.416 21.5526 123.365 21.4941C123.311 21.4313 123.259 21.3671 123.203 21.3053C123.146 21.2409 123.087 21.1779 123.027 21.116C122.971 21.0587 122.914 21.0029 122.856 20.9477C122.795 20.8889 122.732 20.8315 122.67 20.774C122.64 20.7466 122.609 20.7201 122.579 20.6938C122.548 20.6675 122.517 20.6409 122.485 20.6164C122.43 20.575 122.374 20.5358 122.32 20.4943C122.268 20.4553 122.22 20.4122 122.168 20.375C122.122 20.3428 122.072 20.318 122.026 20.2868C121.965 20.2454 121.907 20.1994 121.845 20.1586C121.81 20.135 121.769 20.12 121.732 20.0978C121.68 20.0664 121.63 20.0318 121.578 19.9991C121.561 19.9882 121.543 19.9787 121.526 19.9692C121.482 19.9455 121.438 19.9219 121.393 19.8986C121.353 19.8776 121.314 19.8559 121.273 19.8366C121.228 19.8156 121.181 19.7987 121.136 19.777C121.088 19.7536 121.042 19.7246 120.993 19.702C120.945 19.6798 120.895 19.6626 120.845 19.6434C120.82 19.6335 120.793 19.6255 120.768 19.6141C120.738 19.6 120.71 19.5798 120.679 19.5681C120.621 19.5465 120.561 19.5298 120.503 19.5097C120.474 19.4996 120.445 19.4867 120.417 19.4751C120.381 19.4609 120.346 19.4455 120.31 19.4329C120.271 19.4192 120.231 19.4088 120.191 19.3955C120.151 19.382 120.112 19.3644 120.071 19.3527C120.028 19.3402 119.984 19.3326 119.94 19.3228C119.936 19.3219 119.932 19.3206 119.928 19.3193C119.882 19.3034 119.836 19.2847 119.789 19.2722C119.736 19.2583 119.681 19.2499 119.628 19.239C119.622 19.2379 119.617 19.2354 119.612 19.2339C119.561 19.2193 119.51 19.2017 119.458 19.1911C119.392 19.1779 119.325 19.1705 119.258 19.1605C119.256 19.1601 119.253 19.1588 119.251 19.1581C119.185 19.1422 119.12 19.1235 119.054 19.1114C119.005 19.1025 118.955 19.1034 118.905 19.0888C118.841 19.0701 118.772 19.0805 118.704 19.0622C118.624 19.0407 118.54 19.0383 118.457 19.0315C118.332 19.0213 118.204 19.0357 118.081 19.0041C117.751 19.0128 117.421 18.9793 117.092 19.0233C116.981 19.0382 116.868 19.0211 116.755 19.0486C116.661 19.0716 116.562 19.0719 116.465 19.0828C116.385 19.0919 116.304 19.1018 116.224 19.1115C116.219 19.1122 116.214 19.1155 116.209 19.1167C116.139 19.1324 116.07 19.1493 116.001 19.163C115.94 19.1748 115.878 19.1827 115.817 19.1926C115.813 19.1932 115.81 19.1961 115.806 19.1971C115.749 19.2125 115.692 19.2287 115.635 19.2429C115.587 19.2548 115.538 19.2638 115.49 19.2753C115.457 19.2832 115.424 19.2919 115.391 19.3025C115.346 19.3171 115.302 19.3354 115.257 19.349C115.215 19.3616 115.171 19.3664 115.13 19.3814C115.077 19.4009 115.027 19.4307 114.969 19.4332C114.965 19.4334 114.961 19.4354 114.958 19.437C114.92 19.4528 114.883 19.4704 114.844 19.4843C114.809 19.4971 114.772 19.5052 114.736 19.5168C114.712 19.5248 114.688 19.534 114.665 19.5447C114.614 19.5679 114.565 19.5945 114.513 19.616C114.461 19.638 114.406 19.6548 114.353 19.6754C114.33 19.6843 114.308 19.6969 114.286 19.7082C114.257 19.7233 114.228 19.74 114.198 19.7537C114.151 19.7749 114.101 19.7913 114.056 19.8147C113.999 19.8435 113.947 19.8787 113.891 19.9086C113.814 19.9499 113.735 19.9859 113.66 20.0297C113.578 20.0771 113.501 20.1307 113.421 20.1816C113.407 20.1909 113.392 20.1998 113.377 20.2088C113.34 20.2309 113.302 20.2512 113.267 20.2756C113.225 20.3047 113.186 20.3389 113.144 20.368C113.098 20.4001 113.046 20.426 113.001 20.46C112.94 20.5064 112.883 20.5584 112.823 20.6072C112.758 20.6607 112.69 20.7113 112.626 20.7666C112.565 20.819 112.508 20.8757 112.45 20.9309C112.382 20.996 112.312 21.0599 112.246 21.1273C112.188 21.1859 112.134 21.2482 112.08 21.3096C112.018 21.3785 111.958 21.4476 111.898 21.5178C111.875 21.5446 111.86 21.5792 111.835 21.6021C111.781 21.6502 111.749 21.7136 111.706 21.7695C111.694 21.7857 111.684 21.8041 111.672 21.8202C111.642 21.8608 111.608 21.8991 111.58 21.9415C111.555 21.9785 111.538 22.0205 111.516 22.0591C111.491 22.1014 111.463 22.142 111.438 22.1839C111.427 22.2018 111.42 22.222 111.41 22.2399C111.368 22.3108 111.321 22.3795 111.283 22.4524C111.25 22.5145 111.225 22.5812 111.197 22.646C111.186 22.6705 111.175 22.6953 111.165 22.7198C111.149 22.7555 111.132 22.7907 111.117 22.8268C111.105 22.8557 111.096 22.886 111.084 22.9151C111.07 22.9495 111.053 22.9823 111.04 23.0172C111.027 23.0539 111.019 23.0925 111.008 23.1298C110.991 23.1832 110.973 23.2363 110.956 23.2895C110.953 23.2971 110.952 23.3051 110.949 23.3127C110.935 23.3544 110.916 23.3952 110.907 23.4379C110.893 23.4967 110.886 23.557 110.875 23.6167C110.875 23.6206 110.873 23.6244 110.872 23.6283C110.857 23.6893 110.837 23.7496 110.827 23.8114C110.817 23.8658 110.814 23.921 110.804 23.9761C110.782 24.0987 110.775 24.2246 110.771 24.3494C110.766 24.5046 110.769 24.6601 110.77 24.8154C110.77 24.8599 110.773 24.9046 110.778 24.9488C110.792 25.0662 110.808 25.1834 110.824 25.3005C110.833 25.3691 110.844 25.4373 110.855 25.5056C110.855 25.5095 110.857 25.5133 110.858 25.5173C110.873 25.5775 110.889 25.6376 110.904 25.6979C110.916 25.7436 110.926 25.7897 110.938 25.8353C110.946 25.8659 110.954 25.8964 110.964 25.9262C110.978 25.9671 110.996 26.0068 111.009 26.0478C111.022 26.0861 111.032 26.1257 111.044 26.1643C111.052 26.1914 111.062 26.2183 111.073 26.2445C111.087 26.2768 111.104 26.3078 111.117 26.3402C111.13 26.3711 111.139 26.4032 111.151 26.4342C111.158 26.4538 111.168 26.4728 111.178 26.4914C111.193 26.521 111.211 26.5496 111.225 26.5798C111.247 26.6264 111.265 26.675 111.289 26.721C111.321 26.7837 111.355 26.8449 111.39 26.9062C111.403 26.9297 111.419 26.9516 111.433 26.9749C111.455 27.0133 111.476 27.0528 111.498 27.0911C111.518 27.1237 111.538 27.1556 111.56 27.1868C111.591 27.2307 111.623 27.2732 111.653 27.3171C111.685 27.3629 111.713 27.411 111.746 27.4556C111.785 27.508 111.828 27.5577 111.869 27.6084C111.894 27.6393 111.918 27.6703 111.944 27.7005C111.972 27.7325 112.001 27.763 112.028 27.7952C112.081 27.8584 112.134 27.9222 112.184 27.9835C112.175 28.0066 112.166 28.0314 112.155 28.0557C112.142 28.0875 112.127 28.1187 112.114 28.1506C112.102 28.1798 112.093 28.2103 112.08 28.2387C112.057 28.2882 112.03 28.3361 112.007 28.3854C111.985 28.4305 111.967 28.4773 111.945 28.5218C111.921 28.5686 111.894 28.6134 111.868 28.6593C111.858 28.679 111.85 28.7002 111.838 28.7192C111.805 28.7729 111.771 28.8261 111.737 28.879C111.713 28.9167 111.687 28.9538 111.662 28.9911C111.635 29.0332 111.606 29.0749 111.579 29.1176C111.556 29.154 111.538 29.1935 111.513 29.2285C111.483 29.2706 111.447 29.3083 111.417 29.3499C111.376 29.4053 111.34 29.4645 111.298 29.5186C111.241 29.5901 111.181 29.6581 111.123 29.7278C111.053 29.8107 110.983 29.8931 110.916 29.9773C110.89 30.0094 110.869 30.0452 110.847 30.0807C110.836 30.1005 110.827 30.1226 110.819 30.1446C110.802 30.1919 110.778 30.2387 110.772 30.2877C110.764 30.3501 110.769 30.4144 110.77 30.4778C110.771 30.4976 110.775 30.5182 110.781 30.537C110.793 30.5721 110.809 30.6061 110.822 30.6406C110.834 30.6687 110.839 30.7018 110.857 30.724C110.906 30.7833 110.959 30.8389 111.013 30.8938C111.033 30.9149 111.059 30.9328 111.084 30.9471C111.113 30.963 111.144 30.9754 111.176 30.9853C111.229 31.0021 111.283 31.0274 111.337 31.0286C111.542 31.0338 111.748 31.0391 111.952 31.0067C112 30.9992 112.049 31.0046 112.097 30.9979C112.197 30.9841 112.296 30.9656 112.395 30.9502C112.463 30.9396 112.531 30.9309 112.599 30.9212C112.603 30.9206 112.607 30.9187 112.611 30.9177C112.674 30.9016 112.738 30.885 112.802 30.8698C112.851 30.8582 112.901 30.8485 112.95 30.8377C112.954 30.8369 112.957 30.8342 112.961 30.8329C113.003 30.8185 113.044 30.802 113.087 30.7903C113.132 30.7779 113.178 30.7703 113.224 30.7606C113.226 30.76 113.229 30.7593 113.231 30.7583C113.27 30.7423 113.309 30.7242 113.349 30.7107C113.388 30.6977 113.428 30.6896 113.467 30.6792C113.47 30.6786 113.473 30.6775 113.475 30.6764C113.508 30.6606 113.541 30.6425 113.575 30.6294C113.608 30.6167 113.644 30.6113 113.678 30.5985C113.704 30.5882 113.728 30.5701 113.754 30.5581C113.785 30.5442 113.817 30.5338 113.848 30.5206C113.88 30.5065 113.913 30.4909 113.945 30.4761C113.971 30.4642 113.998 30.4522 114.024 30.4409C114.073 30.4198 114.123 30.4009 114.171 30.3778C114.215 30.3568 114.257 30.3307 114.3 30.308C114.341 30.2868 114.383 30.2686 114.423 30.2461C114.462 30.2239 114.498 30.1961 114.538 30.1742C114.594 30.1431 114.653 30.1174 114.708 30.0854C114.762 30.0543 114.813 30.0175 114.865 29.9843C114.912 29.9549 114.96 29.9281 115.007 29.898C115.043 29.8742 115.081 29.8508 115.112 29.8203C115.13 29.8015 115.148 29.7938 115.17 29.7982C115.193 29.8029 115.214 29.8153 115.237 29.8212C115.282 29.8329 115.328 29.8424 115.373 29.8529C115.377 29.8538 115.38 29.8556 115.384 29.8569C115.432 29.8724 115.48 29.8904 115.529 29.9028C115.581 29.9159 115.635 29.9238 115.687 29.9341C115.69 29.9346 115.692 29.9365 115.695 29.9372C115.75 29.9527 115.805 29.9707 115.862 29.9828C115.922 29.9957 115.984 30.0032 116.045 30.0131C116.047 30.0133 116.048 30.0133 116.049 30.0136C116.118 30.0303 116.187 30.0493 116.256 30.0631C116.304 30.0725 116.352 30.0708 116.401 30.0847C116.469 30.1042 116.544 30.0919 116.617 30.1128C116.689 30.1337 116.767 30.134 116.844 30.1408C116.963 30.1516 117.083 30.1682 117.204 30.1684C117.564 30.1691 117.925 30.1902 118.285 30.1477C118.349 30.1401 118.415 30.1442 118.479 30.1365C118.58 30.1244 118.681 30.106 118.782 30.092C118.833 30.085 118.883 30.0855 118.935 30.0734C119.002 30.0579 119.072 30.0555 119.14 30.04C119.208 30.0244 119.279 30.0184 119.348 30.0082C119.351 30.0077 119.354 30.0077 119.356 30.0069C119.411 29.9914 119.466 29.974 119.522 29.961C119.579 29.9475 119.638 29.9383 119.696 29.9272C119.699 29.9267 119.702 29.9266 119.704 29.9258C119.749 29.9104 119.793 29.8928 119.839 29.8802C119.888 29.8665 119.939 29.8575 119.99 29.8465C119.994 29.8456 119.998 29.8445 120.001 29.8431C120.041 29.8282 120.081 29.8116 120.122 29.7987C120.165 29.785 120.21 29.7757 120.254 29.7632C120.28 29.7558 120.306 29.7468 120.331 29.7371C120.37 29.7218 120.409 29.7039 120.449 29.6896C120.484 29.6772 120.52 29.669 120.555 29.6573C120.578 29.6497 120.6 29.6396 120.622 29.6295C120.656 29.6141 120.688 29.5961 120.722 29.5821C120.754 29.569 120.788 29.5624 120.819 29.5483C120.866 29.5268 120.91 29.499 120.957 29.478C121.008 29.4551 121.061 29.4374 121.113 29.4164C121.138 29.4064 121.162 29.3949 121.185 29.3824C121.209 29.3692 121.232 29.3527 121.257 29.3399C121.302 29.3168 121.348 29.2964 121.393 29.2729C121.453 29.2414 121.513 29.2085 121.573 29.1755C121.596 29.1626 121.618 29.1483 121.641 29.1341C121.674 29.1135 121.706 29.0921 121.739 29.0719C121.779 29.0476 121.819 29.0244 121.859 29.0001C121.877 28.9891 121.894 28.9764 121.912 28.9651C121.948 28.9421 121.985 28.9207 122.02 28.8963C122.063 28.8671 122.102 28.8343 122.144 28.8049C122.181 28.7791 122.221 28.7574 122.258 28.7312C122.311 28.6935 122.363 28.6541 122.414 28.6142C122.445 28.5903 122.474 28.5644 122.503 28.5393C122.537 28.511 122.57 28.4823 122.604 28.4542C122.651 28.4156 122.7 28.3793 122.745 28.3385C122.788 28.2994 122.826 28.2553 122.867 28.2145C122.935 28.1467 123.005 28.0806 123.073 28.012C123.12 27.9643 123.164 27.9139 123.209 27.8639C123.269 27.7958 123.33 27.7276 123.389 27.6582C123.413 27.6303 123.432 27.5988 123.455 27.5698C123.495 27.5184 123.537 27.4687 123.576 27.4163C123.61 27.3705 123.64 27.3222 123.671 27.2748C123.704 27.2257 123.736 27.1763 123.768 27.1272C123.784 27.1038 123.801 27.0811 123.815 27.0573C123.828 27.0376 123.839 27.0169 123.849 26.9962C123.86 26.974 123.868 26.9498 123.88 26.9288C123.912 26.8774 123.948 26.8289 123.977 26.7761C124.001 26.7319 124.017 26.6832 124.037 26.6368C124.047 26.6152 124.059 26.5948 124.069 26.5735C124.093 26.5229 124.118 26.4723 124.141 26.4211C124.155 26.391 124.166 26.3595 124.179 26.329C124.192 26.2973 124.208 26.2667 124.221 26.2347C124.238 26.1913 124.253 26.1473 124.268 26.1032C124.281 26.0678 124.292 26.0322 124.303 25.9961C124.315 25.9519 124.324 25.9067 124.337 25.8628C124.351 25.8191 124.371 25.7774 124.381 25.7331C124.395 25.6756 124.403 25.6166 124.413 25.5583C124.414 25.553 124.415 25.5477 124.416 25.5425C124.432 25.4812 124.451 25.4205 124.462 25.3583C124.472 25.301 124.475 25.2429 124.485 25.1851C124.506 25.0488 124.517 24.9097 124.517 24.7716C124.519 24.5552 124.537 24.3377 124.492 24.1226ZM123.224 24.736C123.221 24.8402 123.217 24.9458 123.196 25.0471C123.184 25.1008 123.183 25.1545 123.173 25.2071C123.162 25.2597 123.143 25.3107 123.128 25.3624C123.126 25.3688 123.124 25.3752 123.123 25.3817C123.113 25.433 123.105 25.4849 123.092 25.5352C123.077 25.5915 123.058 25.647 123.038 25.7017C123.016 25.7583 122.991 25.8131 122.968 25.8692C122.955 25.9013 122.946 25.9352 122.932 25.9667C122.913 26.0104 122.89 26.0526 122.868 26.0951C122.856 26.1184 122.842 26.1409 122.83 26.1638C122.812 26.1959 122.794 26.2279 122.776 26.2602C122.757 26.2968 122.739 26.3347 122.717 26.3702C122.685 26.4226 122.65 26.4733 122.616 26.5248C122.588 26.5675 122.563 26.6118 122.533 26.6529C122.486 26.7175 122.437 26.7808 122.388 26.8432C122.348 26.8934 122.305 26.9416 122.263 26.9902C122.237 27.0206 122.21 27.0506 122.182 27.0795C122.119 27.1451 122.057 27.2111 121.992 27.2748C121.946 27.3204 121.896 27.3629 121.848 27.4062C121.816 27.4343 121.784 27.4616 121.752 27.4887C121.722 27.5148 121.691 27.5405 121.659 27.5656C121.606 27.6073 121.554 27.6503 121.5 27.6892C121.428 27.7402 121.354 27.788 121.281 27.8371C121.22 27.8784 121.16 27.9212 121.097 27.9601C121.056 27.9854 121.011 28.0035 120.969 28.0275C120.933 28.0484 120.9 28.0736 120.864 28.0957C120.845 28.1076 120.825 28.1181 120.805 28.1274C120.761 28.1482 120.715 28.1663 120.671 28.1883C120.626 28.2106 120.584 28.2377 120.539 28.26C120.512 28.2736 120.482 28.2808 120.454 28.2931C120.42 28.3078 120.388 28.326 120.355 28.3406C120.326 28.3531 120.295 28.3625 120.266 28.3734C120.243 28.382 120.22 28.3901 120.197 28.3997C120.161 28.415 120.126 28.4315 120.091 28.4469C120.068 28.4569 120.045 28.4673 120.021 28.4749C119.983 28.4871 119.943 28.4956 119.905 28.5086C119.865 28.5224 119.827 28.5407 119.788 28.5549C119.76 28.5649 119.73 28.5717 119.702 28.5794C119.656 28.5919 119.61 28.6031 119.564 28.6161C119.515 28.6302 119.465 28.6457 119.416 28.6606C119.412 28.6618 119.409 28.664 119.405 28.6647C119.348 28.6755 119.29 28.6843 119.233 28.6973C119.177 28.7104 119.121 28.7274 119.064 28.7426C119.062 28.7434 119.059 28.7441 119.057 28.7445C118.986 28.7555 118.914 28.7645 118.844 28.7777C118.772 28.7912 118.698 28.7943 118.628 28.8098C118.569 28.8229 118.513 28.8245 118.455 28.8292C118.313 28.8407 118.169 28.8411 118.029 28.8637C117.796 28.901 117.564 28.8735 117.332 28.8807C117.214 28.8423 117.092 28.8648 116.972 28.8503C116.902 28.8418 116.828 28.8442 116.761 28.8233C116.691 28.8013 116.621 28.8105 116.552 28.7994C116.488 28.789 116.424 28.7697 116.36 28.7542C116.358 28.7536 116.355 28.7523 116.353 28.7519C116.286 28.7416 116.219 28.7339 116.152 28.7204C116.099 28.7095 116.047 28.6919 115.995 28.6772C115.992 28.6765 115.99 28.6751 115.987 28.6746C115.934 28.6632 115.879 28.6537 115.826 28.6397C115.784 28.6284 115.743 28.6115 115.701 28.597C115.695 28.5949 115.688 28.5919 115.682 28.5904C115.634 28.5796 115.586 28.5716 115.54 28.558C115.503 28.5469 115.468 28.5276 115.431 28.515C115.391 28.5013 115.35 28.4919 115.31 28.4793C115.262 28.4644 115.216 28.448 115.169 28.4324C115.142 28.4233 115.115 28.4125 115.087 28.406C115.034 28.3934 114.981 28.3785 114.927 28.3745C114.904 28.3728 114.878 28.3938 114.856 28.4086C114.795 28.4498 114.736 28.4928 114.676 28.536C114.635 28.566 114.595 28.5984 114.553 28.628C114.507 28.661 114.459 28.6919 114.411 28.7237C114.381 28.7441 114.35 28.7642 114.32 28.7851C114.286 28.8083 114.253 28.8327 114.219 28.856C114.169 28.8905 114.12 28.9259 114.068 28.9581C114.033 28.9803 113.994 28.9969 113.957 29.0174C113.903 29.0477 113.85 29.0803 113.795 29.11C113.751 29.1341 113.704 29.1544 113.66 29.1781C113.633 29.1921 113.609 29.2104 113.583 29.2247C113.562 29.2362 113.539 29.2453 113.517 29.2543C113.465 29.2749 113.412 29.2932 113.362 29.3156C113.31 29.3385 113.26 29.3668 113.208 29.3895C113.176 29.4031 113.142 29.4089 113.109 29.4205C113.073 29.4338 113.037 29.4507 113.001 29.4639C112.966 29.4767 112.929 29.4869 112.893 29.4982C112.89 29.4956 112.887 29.493 112.883 29.4904C112.9 29.4587 112.915 29.4265 112.933 29.3956C112.952 29.3608 112.975 29.3275 112.995 29.2931C113.013 29.2631 113.032 29.2333 113.048 29.2021C113.069 29.1591 113.088 29.1143 113.109 29.0712C113.13 29.0301 113.154 28.9905 113.176 28.9496C113.19 28.9235 113.2 28.896 113.213 28.8694C113.229 28.8375 113.245 28.8063 113.26 28.774C113.273 28.7452 113.283 28.715 113.295 28.6859C113.309 28.6542 113.324 28.6231 113.338 28.5919C113.349 28.5675 113.363 28.544 113.372 28.5189C113.393 28.4595 113.412 28.3993 113.432 28.3396C113.449 28.291 113.464 28.2418 113.484 28.1944C113.506 28.1392 113.535 28.0866 113.558 28.0314C113.572 27.9971 113.577 27.9596 113.59 27.9246C113.602 27.8904 113.619 27.8581 113.632 27.8239C113.647 27.7805 113.666 27.737 113.671 27.6921C113.674 27.671 113.655 27.6423 113.638 27.6242C113.562 27.5438 113.483 27.4671 113.407 27.387C113.34 27.3161 113.277 27.2413 113.21 27.1705C113.153 27.111 113.091 27.0568 113.035 26.9967C112.994 26.9528 112.958 26.9041 112.922 26.8559C112.874 26.7919 112.828 26.7263 112.781 26.6614C112.737 26.6008 112.691 26.5416 112.65 26.479C112.61 26.4179 112.576 26.3527 112.538 26.2902C112.507 26.238 112.47 26.1885 112.441 26.135C112.417 26.0913 112.401 26.0433 112.38 25.9976C112.357 25.945 112.331 25.8934 112.308 25.8404C112.294 25.8072 112.285 25.772 112.273 25.7381C112.26 25.7012 112.245 25.6648 112.231 25.6281C112.219 25.5979 112.205 25.5685 112.197 25.5375C112.185 25.4915 112.178 25.4439 112.167 25.3975C112.152 25.3374 112.136 25.2777 112.12 25.2179C112.119 25.2114 112.115 25.2052 112.114 25.1987C112.104 25.1051 112.1 25.0105 112.084 24.9179C112.057 24.7587 112.058 24.5989 112.064 24.439C112.068 24.3347 112.071 24.2289 112.092 24.1273C112.104 24.0737 112.105 24.02 112.116 23.9674C112.126 23.9146 112.145 23.8636 112.16 23.8119C112.162 23.8056 112.164 23.7991 112.166 23.7927C112.175 23.7413 112.182 23.6892 112.195 23.6389C112.206 23.5995 112.226 23.5626 112.239 23.5239C112.252 23.4853 112.262 23.4453 112.275 23.4065C112.286 23.3737 112.298 23.3416 112.311 23.3097C112.325 23.2757 112.34 23.2421 112.356 23.2086C112.375 23.1659 112.395 23.123 112.416 23.0812C112.427 23.059 112.445 23.0399 112.456 23.0175C112.478 22.9728 112.496 22.9261 112.518 22.8817C112.535 22.8492 112.556 22.8193 112.575 22.7881C112.592 22.7603 112.607 22.7319 112.624 22.7047C112.646 22.6714 112.668 22.6387 112.691 22.6062C112.722 22.5621 112.752 22.5179 112.785 22.4749C112.822 22.4261 112.86 22.378 112.899 22.3306C112.929 22.2933 112.962 22.2578 112.994 22.2213C113.032 22.178 113.068 22.133 113.107 22.0914C113.18 22.0151 113.253 21.9389 113.328 21.8662C113.399 21.7986 113.473 21.7336 113.548 21.6708C113.608 21.62 113.673 21.5744 113.736 21.5261C113.779 21.4928 113.82 21.4572 113.865 21.4257C113.899 21.4017 113.937 21.3835 113.972 21.3613C114.013 21.3354 114.053 21.3079 114.094 21.2814C114.133 21.2559 114.173 21.231 114.212 21.2059C114.25 21.1818 114.287 21.1572 114.325 21.1338C114.344 21.1224 114.363 21.1125 114.383 21.1028C114.426 21.0816 114.471 21.0625 114.514 21.04C114.558 21.0168 114.599 20.9883 114.643 20.9663C114.69 20.9434 114.739 20.927 114.786 20.9053C114.836 20.8824 114.883 20.8545 114.933 20.8331C114.985 20.8108 115.04 20.7948 115.092 20.7741C115.129 20.7595 115.164 20.7407 115.2 20.7251C115.224 20.7146 115.249 20.7052 115.275 20.6975C115.313 20.6855 115.354 20.6773 115.392 20.6641C115.429 20.6514 115.464 20.6343 115.5 20.6192C115.503 20.6182 115.505 20.6169 115.508 20.6166C115.572 20.6094 115.631 20.5839 115.692 20.562C115.738 20.5454 115.789 20.5441 115.836 20.5313C115.886 20.518 115.933 20.4993 115.981 20.4829C115.984 20.482 115.986 20.4807 115.989 20.4802C116.046 20.4708 116.103 20.4629 116.16 20.4517C116.23 20.4379 116.299 20.4214 116.369 20.406C116.371 20.4055 116.374 20.4043 116.377 20.4038C116.427 20.3937 116.477 20.3801 116.527 20.3744C116.64 20.3617 116.756 20.3633 116.866 20.3403C116.996 20.3133 117.128 20.3307 117.256 20.3102C117.484 20.2737 117.713 20.2878 117.94 20.298C118.069 20.3038 118.2 20.309 118.329 20.3221C118.412 20.3303 118.496 20.332 118.576 20.3515C118.637 20.3664 118.699 20.3616 118.757 20.3754C118.854 20.3982 118.953 20.4103 119.05 20.4317C119.095 20.4417 119.141 20.4468 119.186 20.4559C119.26 20.4708 119.333 20.4911 119.406 20.5098C119.472 20.5264 119.537 20.542 119.602 20.5617C119.643 20.5742 119.681 20.5959 119.721 20.6092C119.761 20.622 119.802 20.6282 119.842 20.6397C119.879 20.6505 119.916 20.6644 119.952 20.6772C119.993 20.6915 120.034 20.7051 120.075 20.7209C120.108 20.7339 120.139 20.7498 120.172 20.7641C120.181 20.7683 120.192 20.7712 120.201 20.7753C120.237 20.7906 120.273 20.8064 120.308 20.8216C120.333 20.8322 120.359 20.8416 120.384 20.8528C120.441 20.8784 120.497 20.9051 120.554 20.9305C120.6 20.9508 120.646 20.9679 120.691 20.9901C120.734 21.012 120.775 21.0391 120.817 21.063C120.838 21.0749 120.861 21.0839 120.883 21.0951C120.937 21.1233 120.993 21.1499 121.046 21.1809C121.119 21.2237 121.19 21.2684 121.26 21.3152C121.304 21.3444 121.343 21.3808 121.385 21.4109C121.431 21.4425 121.48 21.4676 121.524 21.5005C121.576 21.5389 121.623 21.5831 121.673 21.624C121.709 21.654 121.747 21.6821 121.783 21.7124C121.828 21.7498 121.871 21.7878 121.914 21.8273C121.979 21.8874 122.043 21.948 122.106 22.0104C122.151 22.055 122.193 22.1025 122.235 22.1497C122.264 22.1815 122.291 22.2147 122.318 22.2476C122.345 22.2798 122.373 22.3115 122.398 22.3449C122.453 22.418 122.508 22.4914 122.561 22.5657C122.598 22.6172 122.632 22.6708 122.667 22.7233C122.7 22.773 122.736 22.8211 122.766 22.8727C122.791 22.9143 122.807 22.9603 122.828 23.0036C122.85 23.0478 122.874 23.0912 122.897 23.1348C122.908 23.1556 122.922 23.1754 122.93 23.1972C122.951 23.2502 122.968 23.3046 122.989 23.3576C123.003 23.3943 123.023 23.4293 123.036 23.4663C123.049 23.502 123.057 23.5396 123.068 23.5759C123.083 23.6222 123.099 23.6681 123.115 23.7142C123.116 23.718 123.117 23.7219 123.118 23.7259C123.129 23.7834 123.13 23.8442 123.151 23.8974C123.176 23.9588 123.162 24.0249 123.183 24.0812C123.207 24.1453 123.191 24.2086 123.204 24.2701C123.236 24.4246 123.229 24.5805 123.224 24.736Z" fill="#F8F9FA"/>
<path d="M115.499 24.5871C115.501 24.6775 115.486 24.765 115.461 24.8472C115.411 25.008 115.319 25.1498 115.186 25.2537C115.027 25.3776 114.847 25.4567 114.638 25.4455C114.46 25.4552 114.298 25.4012 114.155 25.3017C113.908 25.1293 113.778 24.8908 113.775 24.5853C113.774 24.4082 113.822 24.2455 113.923 24.1026C114.097 23.8573 114.333 23.7277 114.64 23.7261C114.816 23.7251 114.976 23.7714 115.117 23.8696C115.365 24.0421 115.493 24.2819 115.499 24.5871Z" fill="#F8F9FA"/>
<path d="M118.506 24.5891C118.507 24.7661 118.457 24.9278 118.357 25.0716C118.184 25.3181 117.945 25.4427 117.645 25.4475C117.466 25.4547 117.306 25.4005 117.162 25.3008C116.916 25.129 116.788 24.8913 116.783 24.588C116.781 24.4104 116.828 24.2461 116.929 24.1039C117.104 23.8587 117.341 23.7269 117.649 23.7261C117.824 23.7256 117.984 23.7714 118.124 23.8683C118.372 24.0409 118.504 24.2818 118.506 24.5891Z" fill="#F8F9FA"/>
<path d="M121.515 24.5866C121.517 24.6769 121.502 24.7645 121.477 24.8467C121.427 25.0074 121.335 25.1497 121.202 25.2535C121.043 25.3776 120.863 25.4566 120.656 25.4457C120.476 25.4551 120.314 25.4017 120.171 25.3023C119.925 25.1301 119.794 24.8915 119.791 24.5862C119.79 24.4089 119.837 24.2457 119.938 24.1029C120.112 23.8581 120.348 23.7279 120.655 23.7261C120.831 23.725 120.992 23.7712 121.132 23.8694C121.379 24.0416 121.509 24.2809 121.515 24.5866Z" fill="#F8F9FA"/>
<path d="M225.875 19.3966V20.6029C225.866 20.6249 225.856 20.6467 225.848 20.6692C225.796 20.8163 225.641 20.9304 225.482 20.9377C225.461 20.9387 225.441 20.9387 225.421 20.9387C222.349 20.9387 219.277 20.9385 216.206 20.9394C216.065 20.9394 215.945 20.8982 215.852 20.7925C215.788 20.7206 215.752 20.6361 215.751 20.5395C215.751 20.1789 215.748 19.8182 215.752 19.4576C215.754 19.2924 215.844 19.1741 215.991 19.1004C216.056 19.0679 216.128 19.0576 216.201 19.0576C219.277 19.0581 222.352 19.058 225.427 19.0582C225.617 19.0582 225.758 19.1382 225.841 19.3103C225.854 19.3381 225.864 19.3678 225.875 19.3966Z" fill="#F8F9FA"/>
<path d="M225.875 27.736V28.9423C225.866 28.9644 225.856 28.9861 225.848 29.0085C225.796 29.1556 225.641 29.2698 225.482 29.2771C225.461 29.2781 225.441 29.2781 225.421 29.2781C222.349 29.2781 219.277 29.2779 216.206 29.2787C216.065 29.2788 215.945 29.2376 215.852 29.1318C215.788 29.0601 215.752 28.9755 215.751 28.8789C215.751 28.5183 215.748 28.1576 215.752 27.797C215.754 27.6318 215.844 27.5135 215.991 27.4399C216.056 27.4073 216.128 27.397 216.201 27.397C219.277 27.3975 222.352 27.3973 225.427 27.3975C225.617 27.3975 225.758 27.4776 225.841 27.6496C225.854 27.6775 225.864 27.7072 225.875 27.736Z" fill="#F8F9FA"/>
<path d="M225.874 23.5697V24.7689C225.866 24.7914 225.857 24.8139 225.848 24.8364C225.797 24.966 225.705 25.0536 225.568 25.0886C225.517 25.1015 225.463 25.1044 225.41 25.1044C223.436 25.1052 221.463 25.105 219.49 25.105C218.394 25.105 217.297 25.1044 216.201 25.1059C216.08 25.1061 215.973 25.0786 215.884 24.9958C215.8 24.917 215.751 24.8206 215.751 24.704C215.75 24.3481 215.751 23.9922 215.75 23.6362C215.75 23.4286 215.926 23.2463 216.125 23.2334C216.162 23.2311 216.199 23.2285 216.236 23.2285C219.292 23.2282 222.349 23.2283 225.405 23.228C225.516 23.228 225.62 23.2449 225.71 23.3151C225.787 23.3752 225.84 23.4497 225.862 23.5452C225.864 23.5538 225.87 23.5616 225.874 23.5697Z" fill="#F8F9FA"/>
<path d="M214.911 24.9864C214.911 25.1839 214.802 25.3359 214.615 25.4005C214.581 25.4124 214.543 25.42 214.507 25.4201C213.931 25.4213 213.356 25.423 212.78 25.4196C212.599 25.4186 212.429 25.2813 212.392 25.1041C212.383 25.0654 212.379 25.0254 212.379 24.9859C212.377 24.7128 212.378 24.4396 212.378 24.1665C212.378 23.8934 212.381 23.6177 212.377 23.3434C212.374 23.1395 212.513 22.9776 212.687 22.9306C212.726 22.9202 212.767 22.9155 212.807 22.9155C213.365 22.9145 213.923 22.9142 214.48 22.915C214.684 22.9154 214.85 23.0436 214.899 23.2384C214.908 23.2736 214.911 23.311 214.911 23.3474C214.912 23.8937 214.912 24.4401 214.911 24.9864Z" fill="#F8F9FA"/>
<path d="M214.908 20.8201C214.908 20.984 214.839 21.1137 214.691 21.1972C214.638 21.2277 214.581 21.2483 214.518 21.2491C214.439 21.2502 214.36 21.2507 214.281 21.2507C213.794 21.2508 213.307 21.2498 212.82 21.2515C212.702 21.2518 212.598 21.221 212.511 21.1416C212.424 21.0618 212.375 20.9629 212.375 20.8433C212.375 20.2805 212.376 19.7178 212.375 19.1551C212.375 18.9863 212.497 18.8301 212.641 18.7777C212.699 18.7564 212.758 18.7501 212.818 18.7501C213.092 18.75 213.366 18.7501 213.64 18.7501V18.7508C213.927 18.7508 214.214 18.7486 214.501 18.7516C214.664 18.7533 214.782 18.8342 214.86 18.9741C214.895 19.0379 214.909 19.1068 214.909 19.178C214.909 19.7254 214.91 20.2727 214.908 20.8201Z" fill="#F8F9FA"/>
<path d="M214.913 29.1586C214.913 29.344 214.813 29.497 214.625 29.567C214.595 29.5784 214.56 29.5841 214.528 29.5841C213.939 29.5851 213.35 29.5863 212.762 29.5838C212.616 29.5832 212.467 29.4749 212.408 29.3252C212.387 29.2723 212.379 29.2176 212.379 29.1602C212.38 28.6105 212.382 28.0608 212.379 27.511C212.378 27.3165 212.497 27.1651 212.663 27.1073C212.712 27.0903 212.768 27.0879 212.821 27.0875C213.096 27.0857 213.371 27.0867 213.647 27.0867V27.0875C213.934 27.0875 214.221 27.0851 214.508 27.0883C214.669 27.0902 214.786 27.1715 214.864 27.3093C214.899 27.3726 214.913 27.4417 214.913 27.513C214.914 28.0615 214.914 28.6101 214.913 29.1586Z" fill="#F8F9FA"/>
<path d="M60.3752 20.3966V21.6029C60.3662 21.6249 60.3562 21.6467 60.3483 21.6692C60.2963 21.8163 60.141 21.9304 59.9818 21.9377C59.9615 21.9387 59.9411 21.9387 59.9207 21.9387C56.849 21.9387 53.7774 21.9385 50.7058 21.9394C50.5649 21.9394 50.4448 21.8982 50.3517 21.7925C50.2885 21.7206 50.2516 21.6361 50.2514 21.5395C50.2507 21.1789 50.2481 20.8182 50.2524 20.4576C50.2545 20.2924 50.3437 20.1741 50.4911 20.1004C50.5563 20.0679 50.6276 20.0576 50.7012 20.0576C53.7765 20.0581 56.8518 20.058 59.9271 20.0582C60.1169 20.0582 60.2582 20.1382 60.341 20.3103C60.3544 20.3381 60.3639 20.3678 60.3752 20.3966Z" fill="#F8F9FA"/>
<path d="M60.3752 28.736V29.9423C60.3662 29.9644 60.3562 29.9861 60.3483 30.0085C60.2963 30.1556 60.141 30.2698 59.9818 30.2771C59.9615 30.2781 59.9411 30.2781 59.9207 30.2781C56.849 30.2781 53.7774 30.2779 50.7058 30.2787C50.5649 30.2788 50.4447 30.2376 50.3517 30.1318C50.2885 30.0601 50.2516 29.9755 50.2514 29.8789C50.2507 29.5183 50.2481 29.1576 50.2524 28.797C50.2545 28.6318 50.3437 28.5135 50.4911 28.4399C50.5563 28.4073 50.6276 28.397 50.7013 28.397C53.7765 28.3975 56.8518 28.3973 59.9271 28.3975C60.1169 28.3975 60.2582 28.4776 60.341 28.6496C60.3544 28.6775 60.3639 28.7072 60.3752 28.736Z" fill="#F8F9FA"/>
<path d="M60.3744 24.5697V25.7689C60.3656 25.7914 60.3568 25.8139 60.348 25.8364C60.2968 25.966 60.2049 26.0536 60.0683 26.0886C60.0174 26.1015 59.9628 26.1044 59.9098 26.1044C57.9365 26.1052 55.9631 26.105 53.9898 26.105C52.8937 26.105 51.7975 26.1044 50.7013 26.1059C50.5803 26.1061 50.4733 26.0786 50.3844 25.9958C50.2996 25.917 50.2507 25.8206 50.2505 25.704C50.2498 25.3481 50.2507 24.9922 50.25 24.6362C50.2496 24.4286 50.4259 24.2463 50.6249 24.2334C50.6619 24.2311 50.699 24.2285 50.736 24.2285C53.7923 24.2282 56.8487 24.2283 59.905 24.228C60.0157 24.228 60.1202 24.2449 60.2099 24.3151C60.2866 24.3752 60.3399 24.4497 60.3616 24.5452C60.3636 24.5538 60.37 24.5616 60.3744 24.5697Z" fill="#F8F9FA"/>
<path d="M49.4113 25.9864C49.411 26.1839 49.302 26.3359 49.1152 26.4005C49.0809 26.4124 49.043 26.42 49.0068 26.4201C48.4312 26.4213 47.8556 26.423 47.28 26.4196C47.0992 26.4186 46.9288 26.2813 46.8916 26.1041C46.8835 26.0654 46.8787 26.0254 46.8785 25.9859C46.8774 25.7128 46.8779 25.4396 46.8779 25.1665C46.8779 24.8934 46.881 24.6177 46.877 24.3434C46.8741 24.1395 47.0131 23.9776 47.187 23.9306C47.2257 23.9202 47.2672 23.9155 47.3074 23.9155C47.865 23.9145 48.4227 23.9142 48.9803 23.915C49.1842 23.9154 49.3496 24.0436 49.3992 24.2384C49.4082 24.2736 49.411 24.311 49.4111 24.3474C49.4118 24.8937 49.4121 25.4401 49.4113 25.9864Z" fill="#F8F9FA"/>
<path d="M49.4083 21.8201C49.4078 21.984 49.3386 22.1137 49.1915 22.1972C49.1378 22.2277 49.0806 22.2483 49.0178 22.2491C48.9388 22.2502 48.8599 22.2507 48.781 22.2507C48.294 22.2508 47.8071 22.2498 47.3202 22.2515C47.2023 22.2518 47.0978 22.221 47.0114 22.1416C46.9243 22.0618 46.8754 21.9629 46.8754 21.8433C46.8754 21.2805 46.8759 20.7178 46.875 20.1551C46.8747 19.9863 46.997 19.8301 47.141 19.7777C47.1994 19.7564 47.2577 19.7501 47.3181 19.7501C47.5921 19.75 47.8661 19.7501 48.1401 19.7501V19.7508C48.4271 19.7508 48.7143 19.7486 49.0014 19.7516C49.1643 19.7533 49.2817 19.8342 49.3596 19.9741C49.3951 20.0379 49.4085 20.1068 49.4086 20.178C49.4092 20.7254 49.41 21.2727 49.4083 21.8201Z" fill="#F8F9FA"/>
<path d="M49.4131 30.1586C49.4127 30.344 49.3131 30.497 49.1253 30.567C49.0948 30.5784 49.0603 30.5841 49.0276 30.5841C48.439 30.5851 47.8504 30.5863 47.2618 30.5838C47.1163 30.5832 46.9675 30.4749 46.9082 30.3252C46.8873 30.2723 46.8791 30.2176 46.8793 30.1602C46.8803 29.6105 46.8816 29.0608 46.8789 28.511C46.878 28.3165 46.9973 28.1651 47.1635 28.1073C47.2124 28.0903 47.2683 28.0879 47.3211 28.0875C47.5963 28.0857 47.8714 28.0867 48.1466 28.0867V28.0875C48.4336 28.0875 48.7208 28.0851 49.0079 28.0883C49.1694 28.0902 49.2858 28.1715 49.3636 28.3093C49.3994 28.3726 49.4131 28.4417 49.4131 28.513C49.4137 29.0615 49.4141 29.6101 49.4131 30.1586Z" fill="#F8F9FA"/>
<path d="M162.913 44.25H155.346C155.338 44.2468 155.33 44.2423 155.321 44.2404C155.266 44.2287 155.21 44.2225 155.157 44.2054C154.979 44.1479 154.827 44.0509 154.705 43.9111C154.54 43.7224 154.459 43.5018 154.459 43.2534C154.459 41.9492 154.459 40.645 154.459 39.3407C154.46 39.2142 154.479 39.0902 154.527 38.9717C154.586 38.8264 154.673 38.7002 154.791 38.5954C154.942 38.4609 155.12 38.3793 155.321 38.3505C155.397 38.3397 155.474 38.3403 155.551 38.3393C155.674 38.3376 155.798 38.3388 155.921 38.3388H155.96C155.96 38.3224 155.96 38.3097 155.96 38.297C155.96 37.8121 155.959 37.3273 155.961 36.8425C155.961 36.733 155.973 36.6235 155.982 36.5142C155.994 36.3627 156.023 36.2128 156.068 36.0674C156.107 35.9423 156.148 35.8177 156.194 35.695C156.262 35.5166 156.354 35.35 156.458 35.1898C156.632 34.9211 156.844 34.6846 157.092 34.4793C157.325 34.2862 157.581 34.1297 157.86 34.0085C158.027 33.9364 158.198 33.8809 158.373 33.8357C158.462 33.8129 158.552 33.7955 158.643 33.7824C158.746 33.7675 158.851 33.7536 158.955 33.7511C159.095 33.7478 159.236 33.7525 159.376 33.7585C159.537 33.7654 159.696 33.791 159.853 33.8309C159.927 33.8499 160.003 33.8651 160.076 33.8895C160.189 33.9275 160.303 33.9669 160.412 34.0146C160.644 34.1152 160.86 34.2425 161.06 34.3954C161.31 34.5863 161.528 34.8078 161.711 35.0619C161.877 35.2923 162.01 35.5399 162.108 35.8058C162.165 35.9612 162.209 36.12 162.242 36.2815C162.262 36.3806 162.276 36.4813 162.284 36.5819C162.294 36.6918 162.297 36.8026 162.297 36.913C162.298 37.3749 162.298 37.8369 162.298 38.2988V38.3388C162.313 38.3388 162.324 38.3388 162.335 38.3388C162.436 38.3388 162.538 38.3363 162.639 38.3395C162.752 38.3431 162.866 38.3486 162.98 38.3597C163.067 38.3684 163.149 38.3999 163.227 38.4378C163.43 38.5357 163.585 38.6826 163.688 38.8819C163.753 39.0081 163.792 39.14 163.792 39.2827C163.791 40.6098 163.791 41.937 163.792 43.2641C163.792 43.3898 163.774 43.5096 163.727 43.6264C163.664 43.7847 163.566 43.9182 163.433 44.0254C163.288 44.1428 163.122 44.2182 162.934 44.2407C162.927 44.2416 162.92 44.2468 162.913 44.2499V44.25ZM159.129 38.3449C159.612 38.3449 160.095 38.3449 160.578 38.3449C160.611 38.3449 160.627 38.3294 160.627 38.2984C160.627 37.8365 160.627 37.3747 160.626 36.9128C160.626 36.7917 160.617 36.6715 160.59 36.5525C160.555 36.3949 160.495 36.2473 160.41 36.1102C160.243 35.8416 160.013 35.6437 159.719 35.517C159.582 35.4579 159.439 35.419 159.291 35.4052C159.143 35.3915 158.995 35.3944 158.848 35.4228C158.718 35.4478 158.594 35.4871 158.476 35.544C158.237 35.6588 158.043 35.8244 157.891 36.0399C157.764 36.2221 157.683 36.4235 157.647 36.6407C157.633 36.7245 157.631 36.811 157.631 36.8962C157.629 37.365 157.63 37.8338 157.63 38.3027C157.63 38.3309 157.644 38.3449 157.672 38.345C158.158 38.345 158.643 38.345 159.128 38.345L159.129 38.3449Z" fill="#F8F9FA"/>
<g clip-path="url(#clip0_1615_3075)">
<path d="M90.5216 33.1022C90.5216 34.0656 89.7376 34.8574 88.747 34.8574C87.7511 34.8574 86.9613 34.0604 86.9613 33.1022C86.9613 32.1441 87.7511 31.3471 88.747 31.3471C89.7376 31.3471 90.5216 32.1389 90.5216 33.1022ZM82.7216 31.4492C82.7216 32.7202 81.6933 33.7553 80.3898 33.7553C79.082 33.7553 78.047 32.7159 78.047 31.4492C78.047 30.1825 79.082 29.1431 80.3898 29.1431C81.6933 29.1431 82.7216 30.1781 82.7216 31.4492ZM83.6184 41.092C83.6184 40.9598 83.6775 40.767 83.963 40.5066C84.2549 40.2405 84.7077 39.9792 85.2861 39.7503C86.4439 39.292 87.851 39.0614 88.747 39.0614C89.643 39.0614 91.0501 39.292 92.2079 39.7503C92.7862 39.9792 93.239 40.2405 93.5309 40.5066C93.8165 40.767 93.8756 40.9598 93.8756 41.092V42.5716H83.6184V41.092ZM73.5898 40.8165C73.5898 40.5463 73.7187 40.233 74.1174 39.8694C74.5224 39.5 75.1318 39.1527 75.8842 38.8549C77.3902 38.2589 79.2151 37.9594 80.3898 37.9594C80.4481 37.9594 80.5081 37.9602 80.5698 37.9618C80.334 38.2409 80.1398 38.5264 79.9818 38.8135C79.508 39.6744 79.3898 40.4928 79.3898 41.092V42.5716H73.5898V40.8165Z" stroke="#F8F9FA" stroke-width="2"/>
</g>
<path d="M62.3567 59H61.4334L64.1039 51.7273H65.013L67.6834 59H66.7601L64.5868 52.8778H64.53L62.3567 59ZM62.6976 56.1591H66.4192V56.9403H62.6976V56.1591ZM68.7026 61.0455V53.5455H69.5123V54.4119H69.6117C69.6732 54.3172 69.7585 54.1965 69.8674 54.0497C69.9786 53.9006 70.1373 53.768 70.3432 53.652C70.5516 53.5336 70.8333 53.4744 71.1884 53.4744C71.6477 53.4744 72.0525 53.5893 72.4029 53.8189C72.7533 54.0485 73.0267 54.3741 73.2232 54.7955C73.4197 55.2169 73.5179 55.714 73.5179 56.2869C73.5179 56.8646 73.4197 57.3653 73.2232 57.7891C73.0267 58.2105 72.7544 58.5372 72.4064 58.7692C72.0584 58.9988 71.6571 59.1136 71.2026 59.1136C70.8522 59.1136 70.5717 59.0556 70.361 58.9396C70.1503 58.8213 69.9881 58.6875 69.8745 58.5384C69.7608 58.3868 69.6732 58.2614 69.6117 58.1619H69.5407V61.0455H68.7026ZM69.5265 56.2727C69.5265 56.6847 69.5868 57.0481 69.7076 57.3629C69.8283 57.6754 70.0047 57.9205 70.2367 58.098C70.4687 58.2732 70.7528 58.3608 71.089 58.3608C71.4393 58.3608 71.7317 58.2685 71.9661 58.0838C72.2028 57.8968 72.3804 57.6458 72.4988 57.331C72.6195 57.0137 72.6799 56.661 72.6799 56.2727C72.6799 55.8892 72.6207 55.5436 72.5023 55.2358C72.3863 54.9257 72.2099 54.6806 71.9732 54.5007C71.7388 54.3184 71.4441 54.2273 71.089 54.2273C70.748 54.2273 70.4616 54.3137 70.2296 54.4865C69.9976 54.657 69.8224 54.8961 69.704 55.2038C69.5856 55.5092 69.5265 55.8655 69.5265 56.2727ZM74.7963 61.0455V53.5455H75.606V54.4119H75.7054C75.767 54.3172 75.8522 54.1965 75.9611 54.0497C76.0724 53.9006 76.231 53.768 76.437 53.652C76.6453 53.5336 76.927 53.4744 77.2821 53.4744C77.7414 53.4744 78.1462 53.5893 78.4966 53.8189C78.847 54.0485 79.1204 54.3741 79.3169 54.7955C79.5134 55.2169 79.6117 55.714 79.6117 56.2869C79.6117 56.8646 79.5134 57.3653 79.3169 57.7891C79.1204 58.2105 78.8482 58.5372 78.5002 58.7692C78.1522 58.9988 77.7509 59.1136 77.2963 59.1136C76.946 59.1136 76.6654 59.0556 76.4547 58.9396C76.244 58.8213 76.0819 58.6875 75.9682 58.5384C75.8546 58.3868 75.767 58.2614 75.7054 58.1619H75.6344V61.0455H74.7963ZM75.6202 56.2727C75.6202 56.6847 75.6806 57.0481 75.8013 57.3629C75.9221 57.6754 76.0984 57.9205 76.3304 58.098C76.5624 58.2732 76.8465 58.3608 77.1827 58.3608C77.5331 58.3608 77.8255 58.2685 78.0598 58.0838C78.2966 57.8968 78.4741 57.6458 78.5925 57.331C78.7132 57.0137 78.7736 56.661 78.7736 56.2727C78.7736 55.8892 78.7144 55.5436 78.5961 55.2358C78.4801 54.9257 78.3037 54.6806 78.0669 54.5007C77.8326 54.3184 77.5378 54.2273 77.1827 54.2273C76.8418 54.2273 76.5553 54.3137 76.3233 54.4865C76.0913 54.657 75.9161 54.8961 75.7978 55.2038C75.6794 55.5092 75.6202 55.8655 75.6202 56.2727ZM81.7282 51.7273V59H80.8901V51.7273H81.7282ZM83.2631 59V53.5455H84.1012V59H83.2631ZM83.6893 52.6364C83.5259 52.6364 83.3851 52.5807 83.2667 52.4695C83.1507 52.3582 83.0927 52.2244 83.0927 52.0682C83.0927 51.9119 83.1507 51.7782 83.2667 51.6669C83.3851 51.5556 83.5259 51.5 83.6893 51.5C83.8526 51.5 83.9923 51.5556 84.1083 51.6669C84.2267 51.7782 84.2859 51.9119 84.2859 52.0682C84.2859 52.2244 84.2267 52.3582 84.1083 52.4695C83.9923 52.5807 83.8526 52.6364 83.6893 52.6364ZM87.8521 59.1136C87.3407 59.1136 86.9004 58.9929 86.5311 58.7514C86.1618 58.5099 85.8777 58.1773 85.6788 57.7536C85.4799 57.3298 85.3805 56.8456 85.3805 56.3011C85.3805 55.7472 85.4823 55.2583 85.6859 54.8345C85.8919 54.4084 86.1783 54.0758 86.5453 53.8366C86.9146 53.5952 87.3455 53.4744 87.8379 53.4744C88.2214 53.4744 88.5671 53.5455 88.8748 53.6875C89.1826 53.8295 89.4347 54.0284 89.6312 54.2841C89.8277 54.5398 89.9496 54.8381 89.997 55.179H89.1589C89.095 54.9304 88.9529 54.7102 88.7328 54.5185C88.515 54.3243 88.2214 54.2273 87.8521 54.2273C87.5254 54.2273 87.2389 54.3125 86.9927 54.483C86.7489 54.651 86.5583 54.889 86.421 55.1967C86.286 55.5021 86.2186 55.8608 86.2186 56.2727C86.2186 56.6941 86.2849 57.0611 86.4174 57.3736C86.5524 57.6861 86.7418 57.9287 86.9856 58.1016C87.2318 58.2744 87.5207 58.3608 87.8521 58.3608C88.0699 58.3608 88.2676 58.3229 88.4451 58.2472C88.6227 58.1714 88.773 58.0625 88.8961 57.9205C89.0192 57.7784 89.1068 57.608 89.1589 57.4091H89.997C89.9496 57.7311 89.8324 58.0211 89.6454 58.2791C89.4608 58.5348 89.2157 58.7384 88.9103 58.8899C88.6073 59.0391 88.2546 59.1136 87.8521 59.1136ZM92.8272 59.1278C92.4816 59.1278 92.1679 59.0627 91.8862 58.9325C91.6045 58.8 91.3807 58.6094 91.215 58.3608C91.0493 58.1098 90.9664 57.8068 90.9664 57.4517C90.9664 57.1392 91.028 56.8859 91.1511 56.6918C91.2742 56.4953 91.4387 56.3414 91.6447 56.2301C91.8507 56.1188 92.0779 56.036 92.3265 55.9815C92.5775 55.9247 92.8296 55.8797 93.0829 55.8466C93.4144 55.804 93.6831 55.772 93.889 55.7507C94.0974 55.727 94.2489 55.688 94.3436 55.6335C94.4406 55.5791 94.4892 55.4844 94.4892 55.3494V55.321C94.4892 54.9706 94.3933 54.6984 94.2015 54.5043C94.0121 54.3101 93.7245 54.2131 93.3386 54.2131C92.9385 54.2131 92.6248 54.3007 92.3975 54.4759C92.1703 54.651 92.0105 54.8381 91.9181 55.0369L91.1227 54.7528C91.2647 54.4214 91.4541 54.1634 91.6909 53.9787C91.93 53.7917 92.1904 53.6615 92.4721 53.5881C92.7562 53.5123 93.0356 53.4744 93.3102 53.4744C93.4854 53.4744 93.6866 53.4957 93.9139 53.5384C94.1435 53.5786 94.3649 53.6626 94.5779 53.7905C94.7934 53.9183 94.9721 54.1113 95.1142 54.3693C95.2562 54.6274 95.3272 54.973 95.3272 55.4062V59H94.4892V58.2614H94.4466C94.3897 58.3797 94.295 58.5064 94.1625 58.6413C94.0299 58.7763 93.8535 58.8911 93.6333 58.9858C93.4132 59.0805 93.1445 59.1278 92.8272 59.1278ZM92.9551 58.375C93.2865 58.375 93.5659 58.3099 93.7931 58.1797C94.0228 58.0495 94.1956 57.8814 94.3116 57.6754C94.43 57.4695 94.4892 57.2528 94.4892 57.0256V56.2585C94.4537 56.3011 94.3755 56.3402 94.2548 56.3757C94.1364 56.4089 93.9991 56.4384 93.8429 56.4645C93.689 56.4882 93.5386 56.5095 93.3919 56.5284C93.2475 56.545 93.1303 56.5592 93.0403 56.571C92.8225 56.5994 92.6189 56.6456 92.4295 56.7095C92.2425 56.7711 92.091 56.8646 91.975 56.9901C91.8613 57.1132 91.8045 57.2812 91.8045 57.4943C91.8045 57.7855 91.9122 58.0057 92.1277 58.1548C92.3455 58.3016 92.6213 58.375 92.9551 58.375ZM97.695 55.7188V59H96.8569V53.5455H97.6665V54.3977H97.7376C97.8654 54.1207 98.0595 53.8982 98.32 53.7301C98.5804 53.5597 98.9165 53.4744 99.3285 53.4744C99.6978 53.4744 100.021 53.5502 100.298 53.7017C100.575 53.8509 100.79 54.0781 100.944 54.3835C101.098 54.6866 101.175 55.0701 101.175 55.5341V59H100.337V55.5909C100.337 55.1624 100.226 54.8286 100.003 54.5895C99.7807 54.348 99.4753 54.2273 99.087 54.2273C98.8195 54.2273 98.5804 54.2853 98.3697 54.4013C98.1613 54.5173 97.9968 54.6866 97.8761 54.9091C97.7553 55.1316 97.695 55.4015 97.695 55.7188ZM105.079 53.5455V54.2557H102.252V53.5455H105.079ZM103.076 52.2386H103.914V57.4375C103.914 57.6742 103.948 57.8518 104.017 57.9702C104.088 58.0862 104.178 58.1643 104.287 58.2045C104.398 58.2424 104.515 58.2614 104.638 58.2614C104.731 58.2614 104.806 58.2566 104.866 58.2472C104.925 58.2353 104.972 58.2259 105.008 58.2188L105.178 58.9716C105.121 58.9929 105.042 59.0142 104.94 59.0355C104.838 59.0592 104.709 59.071 104.553 59.071C104.316 59.071 104.084 59.0201 103.857 58.9183C103.632 58.8165 103.445 58.6615 103.296 58.4531C103.149 58.2448 103.076 57.982 103.076 57.6648V52.2386Z" fill="#F8F9FA"/>
<path d="M250.608 57H249.727C249.675 56.7467 249.584 56.5241 249.454 56.3324C249.326 56.1406 249.17 55.9796 248.985 55.8494C248.803 55.7169 248.6 55.6174 248.378 55.5511C248.155 55.4848 247.923 55.4517 247.682 55.4517C247.241 55.4517 246.843 55.563 246.485 55.7855C246.13 56.008 245.847 56.3359 245.636 56.7692C245.428 57.2024 245.324 57.7339 245.324 58.3636C245.324 58.9934 245.428 59.5249 245.636 59.9581C245.847 60.3913 246.13 60.7192 246.485 60.9418C246.843 61.1643 247.241 61.2756 247.682 61.2756C247.923 61.2756 248.155 61.2424 248.378 61.1761C248.6 61.1098 248.803 61.0116 248.985 60.8814C249.17 60.7488 249.326 60.5866 249.454 60.3949C249.584 60.2008 249.675 59.9782 249.727 59.7273H250.608C250.542 60.099 250.421 60.4316 250.246 60.7251C250.071 61.0187 249.853 61.2685 249.592 61.4744C249.332 61.678 249.04 61.8331 248.715 61.9396C248.393 62.0462 248.049 62.0994 247.682 62.0994C247.062 62.0994 246.51 61.9479 246.027 61.6449C245.544 61.3419 245.164 60.911 244.887 60.3523C244.61 59.7936 244.472 59.1307 244.472 58.3636C244.472 57.5966 244.61 56.9337 244.887 56.375C245.164 55.8163 245.544 55.3854 246.027 55.0824C246.51 54.7794 247.062 54.6278 247.682 54.6278C248.049 54.6278 248.393 54.6811 248.715 54.7876C249.04 54.8942 249.332 55.0504 249.592 55.2564C249.853 55.46 250.071 55.7086 250.246 56.0021C250.421 56.2933 250.542 56.6259 250.608 57ZM251.917 62V56.5455H252.756V62H251.917ZM252.344 55.6364C252.18 55.6364 252.039 55.5807 251.921 55.4695C251.805 55.3582 251.747 55.2244 251.747 55.0682C251.747 54.9119 251.805 54.7782 251.921 54.6669C252.039 54.5556 252.18 54.5 252.344 54.5C252.507 54.5 252.647 54.5556 252.763 54.6669C252.881 54.7782 252.94 54.9119 252.94 55.0682C252.94 55.2244 252.881 55.3582 252.763 55.4695C252.647 55.5807 252.507 55.6364 252.344 55.6364ZM258.751 56.5455L256.734 62H255.881L253.864 56.5455H254.773L256.279 60.892H256.336L257.842 56.5455H258.751ZM259.857 62V56.5455H260.695V62H259.857ZM260.283 55.6364C260.12 55.6364 259.979 55.5807 259.86 55.4695C259.744 55.3582 259.686 55.2244 259.686 55.0682C259.686 54.9119 259.744 54.7782 259.86 54.6669C259.979 54.5556 260.12 54.5 260.283 54.5C260.446 54.5 260.586 54.5556 260.702 54.6669C260.82 54.7782 260.88 54.9119 260.88 55.0682C260.88 55.2244 260.82 55.3582 260.702 55.4695C260.586 55.5807 260.446 55.6364 260.283 55.6364ZM263.068 54.7273V62H262.23V54.7273H263.068ZM271.506 56.5455C271.464 56.1856 271.291 55.9062 270.988 55.7074C270.685 55.5085 270.313 55.4091 269.873 55.4091C269.551 55.4091 269.269 55.4612 269.028 55.5653C268.789 55.6695 268.602 55.8127 268.467 55.995C268.334 56.1773 268.268 56.3845 268.268 56.6165C268.268 56.8106 268.314 56.9775 268.406 57.1172C268.501 57.2545 268.622 57.3693 268.768 57.4616C268.915 57.5516 269.069 57.6262 269.23 57.6854C269.391 57.7422 269.539 57.7884 269.674 57.8239L270.413 58.0227C270.602 58.0724 270.813 58.1411 271.045 58.2287C271.279 58.3163 271.503 58.4358 271.716 58.5874C271.931 58.7365 272.109 58.9283 272.249 59.1626C272.388 59.397 272.458 59.6847 272.458 60.0256C272.458 60.4186 272.355 60.7737 272.149 61.0909C271.946 61.4081 271.647 61.6603 271.254 61.8473C270.864 62.0343 270.389 62.1278 269.83 62.1278C269.309 62.1278 268.858 62.0438 268.477 61.8757C268.098 61.7076 267.8 61.4732 267.582 61.1726C267.367 60.8719 267.245 60.5227 267.217 60.125H268.126C268.149 60.3996 268.242 60.6269 268.403 60.8068C268.566 60.9844 268.772 61.117 269.021 61.2045C269.272 61.2898 269.541 61.3324 269.83 61.3324C270.166 61.3324 270.468 61.2779 270.736 61.169C271.003 61.0578 271.215 60.9039 271.371 60.7074C271.528 60.5085 271.606 60.2765 271.606 60.0114C271.606 59.7699 271.538 59.5734 271.403 59.4219C271.268 59.2704 271.091 59.1473 270.871 59.0526C270.651 58.9579 270.413 58.875 270.157 58.804L269.262 58.5483C268.694 58.3849 268.244 58.1518 267.913 57.8487C267.581 57.5457 267.415 57.1491 267.415 56.6591C267.415 56.2519 267.526 55.8968 267.746 55.5938C267.968 55.2884 268.267 55.0516 268.641 54.8835C269.017 54.7131 269.437 54.6278 269.901 54.6278C270.37 54.6278 270.787 54.7119 271.151 54.88C271.516 55.0457 271.805 55.273 272.018 55.5618C272.233 55.8506 272.347 56.1785 272.359 56.5455H271.506ZM276.079 62.1136C275.554 62.1136 275.1 61.9976 274.719 61.7656C274.34 61.5312 274.048 61.2045 273.842 60.7855C273.639 60.3641 273.537 59.8741 273.537 59.3153C273.537 58.7566 273.639 58.2642 273.842 57.8381C274.048 57.4096 274.335 57.0758 274.702 56.8366C275.071 56.5952 275.502 56.4744 275.994 56.4744C276.278 56.4744 276.559 56.5218 276.836 56.6165C277.113 56.7112 277.365 56.8651 277.592 57.0781C277.819 57.2888 278.001 57.5682 278.135 57.9162C278.27 58.2642 278.338 58.6927 278.338 59.2017V59.5568H274.133V58.8324H277.486C277.486 58.5246 277.424 58.25 277.301 58.0085C277.18 57.767 277.007 57.5765 276.782 57.4368C276.56 57.2971 276.297 57.2273 275.994 57.2273C275.66 57.2273 275.372 57.3101 275.128 57.4759C274.886 57.6392 274.7 57.8523 274.57 58.1151C274.44 58.3778 274.375 58.6596 274.375 58.9602V59.4432C274.375 59.8551 274.446 60.2043 274.588 60.4908C274.732 60.7749 274.932 60.9915 275.188 61.1406C275.444 61.2874 275.741 61.3608 276.079 61.3608C276.3 61.3608 276.498 61.33 276.676 61.2685C276.856 61.2045 277.011 61.1098 277.141 60.9844C277.271 60.8565 277.372 60.6979 277.443 60.5085L278.253 60.7358C278.167 61.0104 278.024 61.2519 277.823 61.4602C277.622 61.6662 277.373 61.8272 277.077 61.9432C276.781 62.0568 276.449 62.1136 276.079 62.1136ZM279.613 62V56.5455H280.422V57.3693H280.479C280.579 57.0994 280.759 56.8804 281.019 56.7124C281.279 56.5443 281.573 56.4602 281.9 56.4602C281.961 56.4602 282.038 56.4614 282.131 56.4638C282.223 56.4661 282.293 56.4697 282.34 56.4744V57.3267C282.312 57.3196 282.247 57.3089 282.145 57.2947C282.045 57.2782 281.94 57.2699 281.829 57.2699C281.564 57.2699 281.327 57.3255 281.118 57.4368C280.912 57.5457 280.749 57.6972 280.628 57.8913C280.51 58.0831 280.451 58.3021 280.451 58.5483V62H279.613ZM287.96 56.5455L285.943 62H285.09L283.073 56.5455H283.982L285.488 60.892H285.545L287.051 56.5455H287.96ZM290.505 62.1278C290.159 62.1278 289.846 62.0627 289.564 61.9325C289.282 61.8 289.058 61.6094 288.893 61.3608C288.727 61.1098 288.644 60.8068 288.644 60.4517C288.644 60.1392 288.706 59.8859 288.829 59.6918C288.952 59.4953 289.116 59.3414 289.322 59.2301C289.528 59.1188 289.756 59.036 290.004 58.9815C290.255 58.9247 290.507 58.8797 290.761 58.8466C291.092 58.804 291.361 58.772 291.567 58.7507C291.775 58.727 291.927 58.688 292.021 58.6335C292.118 58.5791 292.167 58.4844 292.167 58.3494V58.321C292.167 57.9706 292.071 57.6984 291.879 57.5043C291.69 57.3101 291.402 57.2131 291.016 57.2131C290.616 57.2131 290.303 57.3007 290.075 57.4759C289.848 57.651 289.688 57.8381 289.596 58.0369L288.8 57.7528C288.942 57.4214 289.132 57.1634 289.369 56.9787C289.608 56.7917 289.868 56.6615 290.15 56.5881C290.434 56.5123 290.713 56.4744 290.988 56.4744C291.163 56.4744 291.364 56.4957 291.592 56.5384C291.821 56.5786 292.043 56.6626 292.256 56.7905C292.471 56.9183 292.65 57.1113 292.792 57.3693C292.934 57.6274 293.005 57.973 293.005 58.4062V62H292.167V61.2614H292.124C292.067 61.3797 291.973 61.5064 291.84 61.6413C291.708 61.7763 291.531 61.8911 291.311 61.9858C291.091 62.0805 290.822 62.1278 290.505 62.1278ZM290.633 61.375C290.964 61.375 291.244 61.3099 291.471 61.1797C291.701 61.0495 291.873 60.8814 291.989 60.6754C292.108 60.4695 292.167 60.2528 292.167 60.0256V59.2585C292.131 59.3011 292.053 59.3402 291.933 59.3757C291.814 59.4089 291.677 59.4384 291.521 59.4645C291.367 59.4882 291.216 59.5095 291.07 59.5284C290.925 59.545 290.808 59.5592 290.718 59.571C290.5 59.5994 290.297 59.6456 290.107 59.7095C289.92 59.7711 289.769 59.8646 289.653 59.9901C289.539 60.1132 289.482 60.2812 289.482 60.4943C289.482 60.7855 289.59 61.0057 289.805 61.1548C290.023 61.3016 290.299 61.375 290.633 61.375ZM295.373 58.7188V62H294.535V56.5455H295.344V57.3977H295.415C295.543 57.1207 295.737 56.8982 295.998 56.7301C296.258 56.5597 296.594 56.4744 297.006 56.4744C297.376 56.4744 297.699 56.5502 297.976 56.7017C298.253 56.8509 298.468 57.0781 298.622 57.3835C298.776 57.6866 298.853 58.0701 298.853 58.5341V62H298.015V58.5909C298.015 58.1624 297.903 57.8286 297.681 57.5895C297.458 57.348 297.153 57.2273 296.765 57.2273C296.497 57.2273 296.258 57.2853 296.047 57.4013C295.839 57.5173 295.675 57.6866 295.554 57.9091C295.433 58.1316 295.373 58.4015 295.373 58.7188ZM302.756 56.5455V57.2557H299.93V56.5455H302.756ZM300.754 55.2386H301.592V60.4375C301.592 60.6742 301.626 60.8518 301.695 60.9702C301.766 61.0862 301.856 61.1643 301.964 61.2045C302.076 61.2424 302.193 61.2614 302.316 61.2614C302.408 61.2614 302.484 61.2566 302.543 61.2472C302.603 61.2353 302.65 61.2259 302.685 61.2188L302.856 61.9716C302.799 61.9929 302.72 62.0142 302.618 62.0355C302.516 62.0592 302.387 62.071 302.231 62.071C301.994 62.071 301.762 62.0201 301.535 61.9183C301.31 61.8165 301.123 61.6615 300.974 61.4531C300.827 61.2448 300.754 60.982 300.754 60.6648V55.2386Z" fill="#F8F9FA"/>
<path d="M279.708 45.5V43.8333C279.708 42.9493 279.356 42.1014 278.731 41.4763C278.106 40.8512 277.258 40.5 276.374 40.5H271.374C270.49 40.5 269.642 40.8512 269.017 41.4763C268.392 42.1014 268.041 42.9493 268.041 43.8333V45.5" stroke="#F8F9FA" stroke-width="2" stroke-linecap="round" stroke-linejoin="round"/>
<path d="M272.208 40.5L272.208 41.7502C272.208 42.6342 273.666 45.0833 273.874 45.5C274.083 45.0833 275.541 42.6342 275.541 41.7502L275.541 40.5" stroke="#F8F9FA" stroke-width="2" stroke-linecap="round" stroke-linejoin="round"/>
<path d="M273.874 37.1667C275.715 37.1667 277.208 35.6743 277.208 33.8333C277.208 31.9924 275.715 30.5 273.874 30.5C272.033 30.5 270.541 31.9924 270.541 33.8333C270.541 35.6743 272.033 37.1667 273.874 37.1667Z" stroke="#F8F9FA" stroke-width="2" stroke-linecap="round" stroke-linejoin="round"/>
<line x1="264.709" y1="46.1665" x2="283.042" y2="46.9998" stroke="#F8F9FA" stroke-width="2"/>
<path d="M240.125 35L244.125 39L240.125 43" stroke="#F8F9FA" stroke-linecap="round"/>
<path d="M197.125 35L201.125 39L197.125 43" stroke="#F8F9FA" stroke-linecap="round"/>
<circle cx="101" cy="40" r="2.5" stroke="#F8F9FA"/>
<defs>
<clipPath id="clip0_1615_3075">
<rect width="24" height="24" fill="white" transform="translate(70.875 23)"/>
</clipPath>
</defs>
</svg>
