<svg width="320" height="78" viewBox="0 0 320 78" fill="none" xmlns="http://www.w3.org/2000/svg">
<line x1="171.062" y1="40" x2="204.062" y2="40" stroke="#F8F9FA" stroke-width="2" stroke-linecap="round" stroke-dasharray="4 4"/>
<line x1="239.312" y1="40" x2="267.312" y2="40" stroke="#F8F9FA" stroke-width="2" stroke-linecap="round" stroke-dasharray="4 4"/>
<path d="M252.312 36L256.313 40L252.312 44" stroke="#F8F9FA" stroke-linecap="round"/>
<circle cx="235.312" cy="40" r="2.5" stroke="#F8F9FA"/>
<line x1="54.5625" y1="39" x2="142.562" y2="39" stroke="#F8F9FA" stroke-width="2" stroke-linecap="round" stroke-dasharray="4 4"/>
<circle cx="155.562" cy="41" r="9" stroke="#F8F9FA" stroke-width="2"/>
<path d="M84.7968 25.8124C84.7863 25.7185 84.7698 25.6245 84.7472 25.5325C84.7092 25.3777 84.6497 25.2299 84.574 25.0882C84.4674 24.8885 84.3319 24.7092 84.1668 24.551C83.9859 24.3776 83.7811 24.2356 83.5482 24.1364C83.4157 24.0799 83.2769 24.0348 83.1372 23.9974C83.0379 23.9706 82.9324 23.9659 82.8297 23.9505C82.6611 23.9251 82.4925 23.9377 82.3253 23.9577C82.145 23.9794 81.9695 24.0255 81.8014 24.0921C81.5553 24.1895 81.332 24.3243 81.1381 24.5C80.8462 24.7646 80.6398 25.0808 80.526 25.4534C80.472 25.6307 80.4401 25.8113 80.4371 25.9942C80.4349 26.1333 80.4498 26.2742 80.4737 26.4117C80.4961 26.5405 80.5314 26.669 80.5769 26.792C80.6662 27.0336 80.8039 27.2506 80.9805 27.4423C81.2379 27.7217 81.5484 27.9266 81.9175 28.0457C81.9779 28.0652 82.0053 28.1056 81.9997 28.167C81.9994 28.1697 81.9993 28.1724 81.9992 28.175C81.9924 28.3565 81.9582 28.5332 81.8978 28.7053C81.8165 28.9365 81.674 29.1229 81.4638 29.2602C81.3142 29.3579 81.1519 29.4294 80.9789 29.4781C80.8665 29.5097 80.7539 29.5415 80.6399 29.5667C80.5457 29.5874 80.4492 29.5996 80.3535 29.6138C80.2358 29.6312 80.1182 29.6494 80 29.6624C79.8395 29.6801 79.6784 29.6932 79.5175 29.7083C79.3416 29.7248 79.1658 29.741 78.99 29.7579C78.8892 29.7676 78.7882 29.7764 78.6877 29.7892C78.5726 29.8038 78.458 29.8216 78.3434 29.8393C78.2515 29.8535 78.1593 29.866 78.0687 29.8854C77.9451 29.9118 77.8219 29.9408 77.7004 29.9749C77.5828 30.0078 77.467 30.047 77.3517 30.0867C77.2885 30.1084 77.2277 30.1366 77.1599 30.1644V30.1064C77.1599 28.8831 77.1599 27.6598 77.1599 26.4365C77.1599 26.426 77.1608 26.4153 77.1598 26.4048C77.1576 26.3827 77.1677 26.373 77.1896 26.3652C77.2547 26.3424 77.3192 26.3174 77.3829 26.2911C77.7141 26.1546 77.9889 25.9469 78.2133 25.6764C78.4018 25.4492 78.54 25.1966 78.6117 24.9131C78.6411 24.7971 78.667 24.6793 78.6805 24.5608C78.7025 24.3684 78.6909 24.1761 78.655 23.9848C78.6267 23.8342 78.583 23.6882 78.5221 23.5476C78.4614 23.4074 78.3844 23.2753 78.2933 23.1504C78.0275 22.7863 77.6758 22.5305 77.2451 22.3753C77.0625 22.3095 76.8719 22.2716 76.6779 22.2572C76.4652 22.2416 76.2518 22.2496 76.0443 22.298C75.9049 22.3305 75.7674 22.3753 75.6346 22.4275C75.3037 22.5575 75.0303 22.7644 74.8047 23.0302C74.6441 23.2194 74.5228 23.4297 74.4382 23.661C74.3867 23.802 74.3499 23.9459 74.3306 24.0932C74.3046 24.2905 74.3059 24.4879 74.3407 24.6856C74.3635 24.8158 74.3958 24.9423 74.44 25.067C74.5238 25.3027 74.6503 25.5152 74.8146 25.7059C75.0751 26.0085 75.3992 26.2257 75.7847 26.3549C75.8298 26.37 75.8442 26.3877 75.8442 26.4342C75.8428 28.1447 75.843 29.8552 75.843 31.5657C75.843 31.5736 75.8423 31.5816 75.8431 31.5895C75.846 31.6155 75.8367 31.6283 75.8084 31.6376C75.7352 31.6616 75.6623 31.6875 75.5924 31.7192C75.2935 31.8544 75.035 32.0416 74.8237 32.287C74.6115 32.5334 74.4623 32.8106 74.3813 33.1225C74.3466 33.2563 74.3237 33.3913 74.3158 33.5281C74.3021 33.7629 74.331 33.9938 74.398 34.2206C74.46 34.4304 74.5529 34.6257 74.678 34.8069C74.8253 35.0206 75.0071 35.2019 75.223 35.3529C75.3889 35.469 75.5679 35.5607 75.7597 35.6276C75.9228 35.6844 76.091 35.7254 76.2653 35.7375C76.2812 35.7386 76.2967 35.7457 76.3124 35.75H76.6913C76.707 35.7457 76.7225 35.7389 76.7385 35.7375C76.922 35.722 77.098 35.6778 77.2706 35.6165C77.5557 35.5151 77.806 35.3614 78.0231 35.158C78.2757 34.9213 78.4605 34.6431 78.5736 34.3195C78.627 34.1662 78.6633 34.0104 78.6804 33.8509C78.6975 33.6904 78.6936 33.5294 78.6714 33.3681C78.6508 33.2174 78.6149 33.0712 78.5631 32.9287C78.4989 32.7521 78.4108 32.586 78.2983 32.4336C78.0693 32.1237 77.779 31.8832 77.4173 31.7265C77.3772 31.7092 77.3376 31.6908 77.2851 31.6672C77.3465 31.6006 77.3977 31.538 77.4565 31.483C77.5712 31.3753 77.7121 31.3072 77.8608 31.2551C77.9526 31.223 78.047 31.1975 78.1412 31.1721C78.2041 31.1551 78.2683 31.142 78.3324 31.1297C78.4261 31.1118 78.5198 31.0931 78.6144 31.08C78.7471 31.0618 78.8804 31.048 79.0136 31.0332C79.1212 31.0212 79.2288 31.01 79.3365 30.9997C79.4197 30.9916 79.5031 30.9861 79.5863 30.9783C79.6994 30.9677 79.8124 30.9563 79.9254 30.9446C80.0669 30.93 80.2089 30.919 80.3496 30.8987C80.5264 30.8733 80.7026 30.8425 80.8781 30.8092C81.0038 30.7855 81.1307 30.7619 81.2523 30.7241C81.4278 30.6697 81.6007 30.6064 81.7717 30.5396C81.9817 30.4576 82.1728 30.3426 82.3505 30.2074C82.5694 30.0408 82.7524 29.8436 82.9008 29.6148C83.027 29.42 83.1227 29.2128 83.1874 28.9931C83.2284 28.8541 83.2618 28.712 83.2838 28.5692C83.3076 28.4153 83.3167 28.259 83.3263 28.1034C83.3289 28.0627 83.3409 28.0415 83.3791 28.0303C83.4024 28.0234 83.4253 28.0147 83.448 28.0059C83.7805 27.8764 84.0609 27.6768 84.2933 27.4146C84.5338 27.1432 84.6919 26.8307 84.7678 26.4821C84.7944 26.36 84.8048 26.2338 84.8111 26.1089C84.8159 26.0104 84.8078 25.9107 84.7968 25.8124ZM76.4995 34.0634C76.255 34.0619 76.0636 33.8787 76.0635 33.6412C76.0634 33.4138 76.2598 33.2248 76.5009 33.2243C76.7337 33.2239 76.9423 33.4197 76.9309 33.6443C76.9407 33.8675 76.7408 34.0648 76.4995 34.0634ZM76.4974 24.7841C76.2582 24.782 76.0639 24.5949 76.0636 24.3682C76.0631 24.1295 76.2548 23.9472 76.4987 23.9454C76.7411 23.9435 76.9404 24.1408 76.9309 24.3638C76.9423 24.5902 76.7324 24.7863 76.4974 24.7841ZM82.6216 26.4688C82.3844 26.478 82.1849 26.2705 82.1877 26.0487C82.1906 25.8231 82.3849 25.6313 82.6253 25.6317C82.8625 25.6321 83.0574 25.8238 83.0575 26.0536C83.0577 26.2797 82.8577 26.4771 82.6216 26.4688Z" fill="#F8F9FA"/>
<path d="M162.292 20.6765C162.231 20.5203 162.122 20.4417 161.971 20.433C161.954 20.432 161.937 20.4326 161.921 20.4326H156.138C156.064 20.4326 156.073 20.4378 156.072 20.3594C156.072 20.0921 156.072 19.8249 156.072 19.5577V19.499H156.12C156.615 19.499 157.111 19.4999 157.606 19.4986C157.792 19.4981 157.947 19.4148 158.076 19.2682C158.16 19.1731 158.216 19.0601 158.246 18.9324C158.256 18.8894 158.263 18.844 158.263 18.7997C158.263 17.7667 158.265 16.7336 158.262 15.7006C158.261 15.4978 158.175 15.3295 158.042 15.1933C157.949 15.0993 157.842 15.034 157.716 15.0148C157.667 15.0073 157.617 15.0008 157.568 15.0008C156.226 15 154.884 15.0004 153.542 15C153.303 14.9999 153.117 15.114 152.979 15.3278C152.925 15.4116 152.887 15.5048 152.876 15.6092C152.871 15.6588 152.864 15.7087 152.864 15.7584C152.863 16.7582 152.862 17.7579 152.864 18.7578C152.864 19.0299 152.977 19.2366 153.18 19.3849C153.29 19.4646 153.41 19.4996 153.54 19.4994C154.028 19.4984 154.517 19.499 155.005 19.499H155.051C155.052 19.5191 155.053 19.5359 155.053 19.5527C155.053 19.8267 155.053 20.1005 155.053 20.3744C155.053 20.4324 155.053 20.4325 154.999 20.4325C153.062 20.4325 151.124 20.4327 149.186 20.4321C149.06 20.432 148.952 20.4739 148.877 20.5909C148.854 20.6264 148.842 20.6707 148.825 20.7107C148.822 20.7171 148.817 20.722 148.812 20.7276V21.2717C148.819 21.2888 148.826 21.3058 148.833 21.3229C148.894 21.4792 149.002 21.5576 149.154 21.5654C149.17 21.5662 149.185 21.5656 149.201 21.5656H151.285C151.321 21.5656 151.338 21.5852 151.339 21.6242C151.339 21.8978 151.339 22.1714 151.338 22.445C151.338 22.4619 151.337 22.4787 151.336 22.4993H151.287C150.913 22.4993 150.538 22.4999 150.163 22.499C149.923 22.4985 149.737 22.6119 149.599 22.8257C149.545 22.9097 149.506 23.0025 149.495 23.1067C149.489 23.1629 149.482 23.2196 149.482 23.2759C149.481 24.2733 149.48 25.2706 149.483 26.2679C149.483 26.5349 149.598 26.7379 149.798 26.8839C149.91 26.9654 150.032 26.9997 150.164 26.9996C151.29 26.9988 152.415 26.9999 153.541 26.9985C153.786 26.9982 153.972 26.8726 154.106 26.6466C154.177 26.5262 154.209 26.3945 154.209 26.251C154.208 25.2496 154.209 24.2483 154.208 23.247C154.208 22.9714 154.096 22.7625 153.89 22.6125C153.82 22.5613 153.744 22.5253 153.661 22.5138C153.612 22.5073 153.564 22.5002 153.516 22.5C153.144 22.4989 152.773 22.4994 152.402 22.4994H152.357C152.356 22.4814 152.354 22.4673 152.354 22.4532C152.354 22.1738 152.355 21.8946 152.354 21.6154C152.353 21.5747 152.364 21.564 152.4 21.564C154.506 21.5649 156.612 21.5648 158.719 21.5641C158.752 21.5641 158.764 21.5731 158.764 21.6126C158.763 21.8933 158.764 22.1738 158.764 22.4544C158.764 22.4674 158.762 22.4805 158.761 22.4994H158.718C158.342 22.4994 157.966 22.4998 157.59 22.4992C157.352 22.4988 157.167 22.6111 157.029 22.8237C156.974 22.9089 156.934 23.0024 156.923 23.1081C156.918 23.159 156.911 23.2103 156.911 23.2614C156.91 24.2613 156.909 25.2613 156.911 26.2613C156.911 26.5319 157.025 26.7372 157.227 26.8847C157.337 26.9646 157.456 26.9996 157.587 26.9995C158.714 26.999 159.84 26.998 160.967 27C161.265 27.0005 161.521 26.7738 161.605 26.4833C161.625 26.4142 161.636 26.3384 161.636 26.2657C161.638 25.255 161.638 24.2444 161.636 23.2338C161.635 22.9649 161.522 22.7609 161.32 22.6142C161.21 22.5335 161.089 22.4986 160.957 22.499C160.582 22.5001 160.208 22.4994 159.833 22.4994H159.785C159.784 22.481 159.783 22.4644 159.783 22.4478C159.783 22.1725 159.783 21.8973 159.783 21.6221C159.783 21.584 159.8 21.5649 159.833 21.5648C160.539 21.5648 161.244 21.5646 161.949 21.565C162.072 21.565 162.175 21.5203 162.248 21.4073C162.271 21.3717 162.283 21.3275 162.3 21.2874C162.303 21.281 162.308 21.2761 162.312 21.2705V20.7279C162.306 20.7109 162.299 20.6939 162.292 20.6768L162.292 20.6765ZM152.862 23.9993V25.4914H150.845V23.9993H152.862ZM154.22 17.999V16.5069H156.912V17.999H154.22ZM160.287 23.9993V25.4914H158.27V23.9993H160.287Z" fill="#F8F9FA"/>
<path d="M118.313 23.3966V24.6029C118.304 24.6249 118.294 24.6467 118.286 24.6692C118.234 24.8163 118.078 24.9304 117.919 24.9377C117.899 24.9387 117.879 24.9387 117.858 24.9387C114.787 24.9387 111.715 24.9385 108.643 24.9394C108.502 24.9394 108.382 24.8982 108.289 24.7925C108.226 24.7206 108.189 24.6361 108.189 24.5395C108.188 24.1789 108.186 23.8182 108.19 23.4576C108.192 23.2924 108.281 23.1741 108.429 23.1004C108.494 23.0679 108.565 23.0576 108.639 23.0576C111.714 23.0581 114.789 23.058 117.865 23.0582C118.054 23.0582 118.196 23.1382 118.279 23.3103C118.292 23.3381 118.301 23.3678 118.313 23.3966Z" fill="#F8F9FA"/>
<path d="M118.313 31.736V32.9423C118.304 32.9644 118.294 32.9861 118.286 33.0085C118.234 33.1556 118.078 33.2698 117.919 33.2771C117.899 33.2781 117.879 33.2781 117.858 33.2781C114.787 33.2781 111.715 33.2779 108.643 33.2787C108.502 33.2788 108.382 33.2376 108.289 33.1318C108.226 33.0601 108.189 32.9755 108.189 32.8789C108.188 32.5183 108.186 32.1576 108.19 31.797C108.192 31.6318 108.281 31.5135 108.429 31.4399C108.494 31.4073 108.565 31.397 108.639 31.397C111.714 31.3975 114.789 31.3973 117.865 31.3975C118.054 31.3975 118.196 31.4776 118.279 31.6496C118.292 31.6775 118.301 31.7072 118.313 31.736Z" fill="#F8F9FA"/>
<path d="M118.312 27.5697V28.7689C118.303 28.7914 118.294 28.8139 118.285 28.8364C118.234 28.966 118.142 29.0536 118.006 29.0886C117.955 29.1015 117.9 29.1044 117.847 29.1044C115.874 29.1052 113.901 29.105 111.927 29.105C110.831 29.105 109.735 29.1044 108.639 29.1059C108.518 29.1061 108.411 29.0786 108.322 28.9958C108.237 28.917 108.188 28.8206 108.188 28.704C108.187 28.3481 108.188 27.9922 108.188 27.6362C108.187 27.4286 108.363 27.2463 108.562 27.2334C108.599 27.2311 108.637 27.2285 108.674 27.2285C111.73 27.2282 114.786 27.2283 117.843 27.228C117.953 27.228 118.058 27.2449 118.147 27.3151C118.224 27.3752 118.277 27.4497 118.299 27.5452C118.301 27.5538 118.308 27.5616 118.312 27.5697Z" fill="#F8F9FA"/>
<path d="M107.349 28.9864C107.349 29.1839 107.24 29.3359 107.053 29.4005C107.018 29.4124 106.98 29.42 106.944 29.4201C106.369 29.4213 105.793 29.423 105.217 29.4196C105.037 29.4186 104.866 29.2813 104.829 29.1041C104.821 29.0654 104.816 29.0254 104.816 28.9859C104.815 28.7128 104.815 28.4396 104.815 28.1665C104.815 27.8934 104.818 27.6177 104.814 27.3434C104.812 27.1395 104.951 26.9776 105.124 26.9306C105.163 26.9202 105.205 26.9155 105.245 26.9155C105.803 26.9145 106.36 26.9142 106.918 26.915C107.122 26.9154 107.287 27.0436 107.337 27.2384C107.346 27.2736 107.349 27.311 107.349 27.3474C107.349 27.8937 107.35 28.4401 107.349 28.9864Z" fill="#F8F9FA"/>
<path d="M107.346 24.8201C107.345 24.984 107.276 25.1137 107.129 25.1972C107.075 25.2277 107.018 25.2483 106.955 25.2491C106.876 25.2502 106.797 25.2507 106.718 25.2507C106.232 25.2508 105.745 25.2498 105.258 25.2515C105.14 25.2518 105.035 25.221 104.949 25.1416C104.862 25.0618 104.813 24.9629 104.813 24.8433C104.813 24.2805 104.813 23.7178 104.813 23.1551C104.812 22.9863 104.934 22.8301 105.079 22.7777C105.137 22.7564 105.195 22.7501 105.256 22.7501C105.53 22.75 105.804 22.7501 106.078 22.7501V22.7508C106.365 22.7508 106.652 22.7486 106.939 22.7516C107.102 22.7533 107.219 22.8342 107.297 22.9741C107.333 23.0379 107.346 23.1068 107.346 23.178C107.347 23.7254 107.348 24.2727 107.346 24.8201Z" fill="#F8F9FA"/>
<path d="M107.351 33.1586C107.35 33.344 107.251 33.497 107.063 33.567C107.032 33.5784 106.998 33.5841 106.965 33.5841C106.376 33.5851 105.788 33.5863 105.199 33.5838C105.054 33.5832 104.905 33.4749 104.846 33.3252C104.825 33.2723 104.817 33.2176 104.817 33.1602C104.818 32.6105 104.819 32.0608 104.816 31.511C104.815 31.3165 104.935 31.1651 105.101 31.1073C105.15 31.0903 105.206 31.0879 105.259 31.0875C105.534 31.0857 105.809 31.0867 106.084 31.0867V31.0875C106.371 31.0875 106.658 31.0851 106.945 31.0883C107.107 31.0902 107.223 31.1715 107.301 31.3093C107.337 31.3726 107.351 31.4417 107.351 31.513C107.351 32.0615 107.352 32.6101 107.351 33.1586Z" fill="#F8F9FA"/>
<path d="M286.188 35.3966V36.6029C286.179 36.6249 286.169 36.6467 286.161 36.6692C286.109 36.8163 285.953 36.9304 285.794 36.9377C285.774 36.9387 285.754 36.9387 285.733 36.9387C282.662 36.9387 279.59 36.9385 276.518 36.9394C276.377 36.9394 276.257 36.8982 276.164 36.7925C276.101 36.7206 276.064 36.6361 276.064 36.5395C276.063 36.1789 276.061 35.8182 276.065 35.4576C276.067 35.2924 276.156 35.1741 276.304 35.1004C276.369 35.0679 276.44 35.0576 276.514 35.0576C279.589 35.0581 282.664 35.058 285.74 35.0582C285.929 35.0582 286.071 35.1382 286.154 35.3103C286.167 35.3381 286.176 35.3678 286.188 35.3966Z" fill="#F8F9FA"/>
<path d="M286.188 43.736V44.9423C286.179 44.9644 286.169 44.9861 286.161 45.0085C286.109 45.1556 285.953 45.2698 285.794 45.2771C285.774 45.2781 285.754 45.2781 285.733 45.2781C282.662 45.2781 279.59 45.2779 276.518 45.2787C276.377 45.2788 276.257 45.2376 276.164 45.1318C276.101 45.0601 276.064 44.9755 276.064 44.8789C276.063 44.5183 276.061 44.1576 276.065 43.797C276.067 43.6318 276.156 43.5135 276.304 43.4399C276.369 43.4073 276.44 43.397 276.514 43.397C279.589 43.3975 282.664 43.3973 285.74 43.3975C285.929 43.3975 286.071 43.4776 286.154 43.6496C286.167 43.6775 286.176 43.7072 286.188 43.736Z" fill="#F8F9FA"/>
<path d="M286.187 39.5697V40.7689C286.178 40.7914 286.169 40.8139 286.16 40.8364C286.109 40.966 286.017 41.0536 285.881 41.0886C285.83 41.1015 285.775 41.1044 285.722 41.1044C283.749 41.1052 281.776 41.105 279.802 41.105C278.706 41.105 277.61 41.1044 276.514 41.1059C276.393 41.1061 276.286 41.0786 276.197 40.9958C276.112 40.917 276.063 40.8206 276.063 40.704C276.062 40.3481 276.063 39.9922 276.063 39.6362C276.062 39.4286 276.238 39.2463 276.437 39.2334C276.474 39.2311 276.512 39.2285 276.549 39.2285C279.605 39.2282 282.661 39.2283 285.718 39.228C285.828 39.228 285.933 39.2449 286.022 39.3151C286.099 39.3752 286.152 39.4497 286.174 39.5452C286.176 39.5538 286.183 39.5616 286.187 39.5697Z" fill="#F8F9FA"/>
<path d="M275.224 40.9864C275.224 41.1839 275.115 41.3359 274.928 41.4005C274.893 41.4124 274.855 41.42 274.819 41.4201C274.244 41.4213 273.668 41.423 273.092 41.4196C272.912 41.4186 272.741 41.2813 272.704 41.1041C272.696 41.0654 272.691 41.0254 272.691 40.9859C272.69 40.7128 272.69 40.4396 272.69 40.1665C272.69 39.8934 272.693 39.6177 272.689 39.3434C272.687 39.1395 272.826 38.9776 272.999 38.9306C273.038 38.9202 273.08 38.9155 273.12 38.9155C273.678 38.9145 274.235 38.9142 274.793 38.915C274.997 38.9154 275.162 39.0436 275.212 39.2384C275.221 39.2736 275.224 39.311 275.224 39.3474C275.224 39.8937 275.225 40.4401 275.224 40.9864Z" fill="#F8F9FA"/>
<path d="M275.221 36.8201C275.22 36.984 275.151 37.1137 275.004 37.1972C274.95 37.2277 274.893 37.2483 274.83 37.2491C274.751 37.2502 274.672 37.2507 274.593 37.2507C274.107 37.2508 273.62 37.2498 273.133 37.2515C273.015 37.2518 272.91 37.221 272.824 37.1416C272.737 37.0618 272.688 36.9629 272.688 36.8433C272.688 36.2805 272.688 35.7178 272.688 35.1551C272.687 34.9863 272.809 34.8301 272.954 34.7777C273.012 34.7564 273.07 34.7501 273.131 34.7501C273.405 34.75 273.679 34.7501 273.953 34.7501V34.7508C274.24 34.7508 274.527 34.7486 274.814 34.7516C274.977 34.7533 275.094 34.8342 275.172 34.9741C275.208 35.0379 275.221 35.1068 275.221 35.178C275.222 35.7254 275.223 36.2727 275.221 36.8201Z" fill="#F8F9FA"/>
<path d="M275.226 45.1586C275.225 45.344 275.126 45.497 274.938 45.567C274.907 45.5784 274.873 45.5841 274.84 45.5841C274.251 45.5851 273.663 45.5863 273.074 45.5838C272.929 45.5832 272.78 45.4749 272.721 45.3252C272.7 45.2723 272.692 45.2176 272.692 45.1602C272.693 44.6105 272.694 44.0608 272.691 43.511C272.69 43.3165 272.81 43.1651 272.976 43.1073C273.025 43.0903 273.081 43.0879 273.134 43.0875C273.409 43.0857 273.684 43.0867 273.959 43.0867V43.0875C274.246 43.0875 274.533 43.0851 274.82 43.0883C274.982 43.0902 275.098 43.1715 275.176 43.3093C275.212 43.3726 275.226 43.4417 275.226 43.513C275.226 44.0615 275.227 44.6101 275.226 45.1586Z" fill="#F8F9FA"/>
<path d="M266.238 20.5823C266.209 20.3067 266.101 20.069 265.933 19.8615C265.733 19.6131 265.48 19.458 265.179 19.3987C265.098 19.3829 265.014 19.3781 264.932 19.3779C264.233 19.3763 263.534 19.3769 262.835 19.3769H262.757C262.742 18.7569 262.512 18.2536 262.056 17.8788C261.707 17.5923 261.306 17.4725 260.868 17.5053C260.033 17.5678 259.261 18.3176 259.247 19.3769H259.175C258.478 19.3769 257.78 19.3777 257.083 19.3767C256.623 19.3759 256.26 19.5787 255.99 19.9732C255.835 20.2006 255.757 20.4602 255.751 20.7429C255.75 20.7562 255.75 20.7695 255.75 20.7828C255.75 24.2193 255.75 27.6559 255.75 31.0925C255.75 31.3139 255.794 31.5244 255.888 31.7201C256.089 32.1364 256.406 32.3901 256.835 32.4798C256.91 32.4953 256.988 32.4981 257.064 32.4983C257.657 32.4997 258.251 32.4991 258.845 32.4991C260.872 32.4991 262.899 32.4984 264.926 32.5C265.2 32.5003 265.449 32.4246 265.674 32.2601C265.976 32.0399 266.162 31.7367 266.232 31.3529C266.239 31.3185 266.244 31.2839 266.25 31.2494V20.6265C266.246 20.6117 266.24 20.5973 266.238 20.5823ZM258.378 22.8888C258.731 22.8829 259.03 23.2014 259.033 23.5823C259.036 23.9793 258.729 24.2904 258.385 24.291C258.022 24.2916 257.728 23.9799 257.726 23.5931C257.725 23.1857 258.039 22.885 258.378 22.8888ZM258.378 29.9152C258.018 29.913 257.725 29.5982 257.727 29.2096C257.728 28.805 258.042 28.5124 258.379 28.5117C258.732 28.5109 259.04 28.8276 259.032 29.2135C259.039 29.6064 258.725 29.9172 258.378 29.9152ZM258.383 27.1016C258.023 27.1035 257.729 26.7928 257.727 26.4089C257.724 26.0196 258.015 25.7019 258.374 25.6989C258.725 25.6959 259.031 26.0075 259.033 26.3965C259.036 26.784 258.735 27.1046 258.383 27.1016ZM260.351 19.3689C260.357 18.9596 260.656 18.6675 261.009 18.6701C261.374 18.6728 261.659 18.9837 261.659 19.3771C261.653 19.7743 261.358 20.0744 260.998 20.0733C260.641 20.0722 260.345 19.7496 260.351 19.3689ZM260.135 23.3344C260.138 23.2206 260.23 23.1306 260.338 23.1212C260.355 23.1198 260.371 23.1204 260.388 23.1204C261.674 23.1203 262.96 23.1203 264.246 23.1207C264.277 23.1207 264.308 23.1223 264.338 23.1304C264.434 23.1566 264.5 23.24 264.502 23.3454C264.505 23.507 264.505 23.6688 264.502 23.8304C264.5 23.9702 264.384 24.0599 264.291 24.0544C264.269 24.053 264.246 24.0546 264.223 24.0546C263.588 24.0546 262.954 24.0546 262.319 24.0546C261.684 24.0546 261.045 24.0546 260.408 24.0546C260.384 24.0546 260.359 24.055 260.334 24.0534C260.229 24.0468 260.139 23.9587 260.135 23.8458C260.131 23.6755 260.131 23.5047 260.135 23.3344ZM264.502 29.4581C264.5 29.596 264.385 29.6866 264.29 29.681C264.268 29.6796 264.245 29.6812 264.222 29.6812H260.414C260.391 29.6812 260.368 29.6799 260.345 29.6809C260.229 29.6859 260.13 29.5656 260.133 29.4514C260.134 29.3761 260.133 29.3008 260.133 29.2255C260.133 29.1458 260.132 29.066 260.133 28.9863C260.136 28.8473 260.228 28.7506 260.358 28.747C260.372 28.7466 260.387 28.7469 260.401 28.7469C261.679 28.7469 262.957 28.7468 264.235 28.7473C264.269 28.7473 264.305 28.7484 264.339 28.7575C264.435 28.7833 264.5 28.8674 264.502 28.9731C264.505 29.1347 264.505 29.2965 264.502 29.4581H264.502ZM264.502 26.6439C264.499 26.7687 264.407 26.8625 264.29 26.8694C264.274 26.8704 264.257 26.8698 264.241 26.8698C262.959 26.8698 261.677 26.8699 260.395 26.8692C260.358 26.8692 260.32 26.8664 260.285 26.8559C260.201 26.8311 260.137 26.7495 260.135 26.657C260.131 26.4867 260.131 26.316 260.135 26.1456C260.138 26.0326 260.228 25.9436 260.333 25.9369C260.36 25.9353 260.387 25.9357 260.414 25.9357C261.051 25.9356 261.687 25.9356 262.324 25.9356C262.961 25.9356 263.602 25.9355 264.241 25.936C264.278 25.9361 264.316 25.9355 264.351 25.9458C264.438 25.9715 264.501 26.0591 264.502 26.159C264.505 26.3206 264.506 26.4823 264.502 26.6439Z" fill="#F8F9FA"/>
<path d="M246.601 24.6093C246.601 24.5733 246.6 24.5373 246.597 24.5016C246.581 24.3429 246.565 24.1842 246.546 24.0257C246.534 23.9242 246.521 23.8224 246.501 23.7224C246.469 23.5656 246.435 23.4092 246.395 23.2544C246.352 23.0921 246.307 22.9299 246.252 22.7715C246.192 22.5986 246.121 22.4297 246.051 22.26C245.939 21.9835 245.797 21.7216 245.643 21.4666C245.424 21.1043 245.172 20.766 244.888 20.452C244.569 20.0991 244.216 19.783 243.83 19.5049C243.551 19.3039 243.26 19.1225 242.951 18.9708C242.781 18.887 242.607 18.8094 242.432 18.7369C242.283 18.6751 242.129 18.6224 241.977 18.5696C241.885 18.5382 241.792 18.5133 241.699 18.4875C241.61 18.4629 241.521 18.4396 241.431 18.4184C241.362 18.4019 241.291 18.3889 241.221 18.3752C241.132 18.3577 241.042 18.3372 240.952 18.3249C240.818 18.3065 240.683 18.2894 240.548 18.2804C240.328 18.2658 240.107 18.2467 239.886 18.2505C239.622 18.255 239.358 18.2806 239.094 18.2991C239.029 18.3037 238.964 18.3137 238.9 18.3253C238.783 18.3463 238.666 18.3679 238.55 18.3935C238.405 18.4253 238.26 18.4568 238.118 18.4971C237.969 18.5396 237.82 18.5865 237.675 18.642C237.466 18.7219 237.255 18.8004 237.055 18.8994C236.81 19.0208 236.569 19.1534 236.336 19.2976C235.965 19.5279 235.626 19.8012 235.311 20.1033C235.121 20.2845 234.944 20.4768 234.777 20.6789C234.438 21.0898 234.15 21.5343 233.92 22.0146C233.833 22.1961 233.756 22.3829 233.683 22.5707C233.621 22.7329 233.568 22.8991 233.517 23.0652C233.485 23.1672 233.461 23.2721 233.436 23.3761C233.412 23.475 233.388 23.5739 233.368 23.6738C233.35 23.7687 233.334 23.8646 233.323 23.9607C233.3 24.1787 233.273 24.3968 233.26 24.6156C233.238 24.9832 233.252 25.3505 233.299 25.7161C233.313 25.8306 233.325 25.9458 233.345 26.0592C233.371 26.2024 233.403 26.3446 233.436 26.4862C233.465 26.6057 233.496 26.7247 233.532 26.8421C233.581 27.0021 233.627 27.1638 233.69 27.3183C233.782 27.5413 233.882 27.7608 233.988 27.9775C234.14 28.2919 234.329 28.5852 234.534 28.868C234.736 29.1455 234.958 29.4051 235.2 29.6482C235.526 29.9757 235.882 30.2659 236.268 30.5195C236.592 30.7326 236.932 30.9171 237.289 31.0701C237.557 31.1851 237.831 31.2865 238.113 31.3605C238.253 31.3968 238.391 31.438 238.532 31.4667C238.716 31.5044 238.902 31.5353 239.088 31.5626C239.2 31.579 239.314 31.5826 239.426 31.5929C239.452 31.5953 239.478 31.6018 239.504 31.6064H240.359C240.388 31.6017 240.416 31.5956 240.445 31.5925C240.591 31.577 240.739 31.5676 240.884 31.5457C241.045 31.5215 241.205 31.4885 241.365 31.4547C241.504 31.4251 241.644 31.3946 241.781 31.3542C241.947 31.3051 242.112 31.2487 242.275 31.1891C242.515 31.1013 242.749 30.9982 242.975 30.8789C243.11 30.8078 243.243 30.7323 243.374 30.6554C243.666 30.4851 243.941 30.2901 244.197 30.071C244.389 29.9063 244.572 29.7295 244.752 29.5513C244.945 29.3604 245.117 29.1503 245.279 28.9322C245.517 28.6127 245.73 28.2782 245.902 27.9185C245.978 27.7597 246.056 27.6009 246.121 27.4375C246.196 27.2492 246.261 27.0568 246.325 26.8643C246.36 26.7591 246.384 26.6504 246.411 26.5429C246.426 26.4826 246.439 26.4216 246.452 26.3608C246.475 26.2507 246.501 26.141 246.519 26.0301C246.538 25.9149 246.553 25.7988 246.564 25.6826C246.579 25.537 246.596 25.3911 246.6 25.245C246.606 25.0333 246.602 24.8212 246.601 24.6093ZM239.929 30.3135C236.961 30.312 234.549 27.9098 234.546 24.9267C234.55 21.9669 236.93 19.5467 239.928 19.5425C242.892 19.5384 245.31 21.9404 245.312 24.9264C245.315 27.9019 242.897 30.3151 239.929 30.3135Z" fill="#F8F9FA"/>
<path d="M243.753 23.436C243.716 23.488 243.673 23.5364 243.628 23.5817C243.364 23.8452 243.1 24.1075 242.835 24.3697C242.591 24.6118 242.345 24.8529 242.101 25.0952C241.893 25.3023 241.686 25.5108 241.477 25.7181C241.267 25.9274 241.056 26.136 240.845 26.345C240.605 26.5835 240.364 26.8221 240.124 27.0608C239.91 27.2734 239.696 27.4864 239.482 27.6988C239.339 27.8406 239.195 27.9821 239.051 28.1227C238.925 28.2453 238.731 28.2464 238.605 28.1231C238.467 27.988 238.332 27.8499 238.196 27.7129C237.988 27.5046 237.781 27.2965 237.574 27.0875C237.379 26.8907 237.186 26.6926 236.991 26.4956C236.806 26.3087 236.621 26.1227 236.435 25.9362C236.34 25.84 236.243 25.7451 236.15 25.6469C236.025 25.5158 236.03 25.3179 236.157 25.191C236.355 24.9948 236.553 24.7984 236.75 24.6015C236.815 24.5362 236.893 24.4938 236.984 24.4911C237.083 24.4883 237.168 24.5275 237.239 24.5993C237.53 24.8939 237.822 25.1873 238.113 25.4814C238.343 25.7138 238.573 25.9462 238.802 26.1795C238.827 26.2044 238.841 26.2061 238.868 26.1798C239.187 25.8615 239.508 25.5448 239.828 25.227C240.136 24.921 240.443 24.6139 240.751 24.3082C241.012 24.0489 241.275 23.7913 241.537 23.532C241.903 23.1688 242.268 22.8051 242.633 22.4411C242.767 22.3072 242.972 22.3063 243.107 22.4451C243.297 22.6398 243.49 22.831 243.683 23.0231C243.702 23.0422 243.703 23.0556 243.684 23.0743C243.561 23.1949 243.439 23.3161 243.317 23.4373C243.305 23.4487 243.295 23.4613 243.282 23.4751C243.381 23.4322 243.475 23.3893 243.57 23.352C243.608 23.337 243.652 23.3324 243.693 23.3268C243.721 23.3231 243.755 23.3237 243.763 23.3557C243.769 23.3807 243.768 23.4163 243.753 23.436Z" fill="#F8F9FA"/>
<path d="M47.3122 36.1652C47.3122 36.1416 47.3131 36.118 47.3118 36.0945C47.3063 35.9925 47.2741 35.8981 47.2178 35.812C47.1799 35.7538 47.1393 35.6962 47.0799 35.6554C47.0301 35.6213 46.9796 35.5864 46.9249 35.5607C46.8718 35.5358 46.813 35.5218 46.7564 35.5037C46.7474 35.5008 46.7368 35.5016 46.7269 35.5015C46.6836 35.5011 46.6403 35.5006 46.5969 35.5006H34.5277C34.5054 35.5006 34.4831 35.5018 34.4609 35.5005C34.3914 35.4965 34.328 35.518 34.2628 35.5369C34.1447 35.5713 34.0516 35.6397 33.9718 35.7242C33.932 35.7663 33.902 35.8186 33.8756 35.87C33.8549 35.9104 33.8471 35.9566 33.832 35.9998C33.8289 36.0089 33.8192 36.016 33.8125 36.024V43.9758C33.8193 43.985 33.8309 43.9936 33.8322 44.0034C33.8446 44.096 33.8936 44.171 33.9496 44.245C34.0162 44.3329 34.1024 44.3942 34.2037 44.44C34.2972 44.4824 34.3944 44.5001 34.4985 44.5C38.5414 44.4991 42.5843 44.4992 46.6272 44.4992C46.6458 44.4992 46.6643 44.4986 46.6829 44.4992C46.7447 44.5011 46.8024 44.4849 46.8581 44.4621C46.9051 44.4428 46.9526 44.4238 46.9973 44.4003C47.0739 44.36 47.1385 44.3046 47.1845 44.2339C47.2231 44.1746 47.2599 44.1126 47.2856 44.0476C47.3045 44 47.3109 43.9454 47.311 43.894C47.3125 42.9979 47.3122 42.1018 47.3122 41.2057V36.1653V36.1652ZM38.4141 40.5315C38.4003 40.6016 38.4218 40.6749 38.3881 40.7427C38.375 40.7691 38.3738 40.8006 38.3623 40.8279C38.3354 40.8924 38.3114 40.9591 38.2751 41.0187C38.2418 41.0736 38.196 41.1219 38.1523 41.1704C38.1029 41.2252 38.0432 41.2691 37.9779 41.3054C37.9294 41.3323 37.8817 41.3623 37.8298 41.3815C37.7742 41.4021 37.7144 41.4134 37.6558 41.4257C37.6131 41.4346 37.5692 41.4387 37.522 41.4454V41.4852C37.522 41.5736 37.5218 41.662 37.522 41.7505C37.5222 41.8558 37.4496 41.9267 37.34 41.926C37.2342 41.9254 37.1282 41.927 37.0223 41.9252C36.9643 41.9243 36.9137 41.9021 36.8837 41.8531C36.8678 41.8273 36.8555 41.7955 36.8544 41.7659C36.8507 41.6682 36.8518 41.5702 36.8537 41.4724C36.8542 41.4443 36.8404 41.4343 36.8164 41.4311C36.7945 41.4283 36.7717 41.4304 36.7502 41.4261C36.6923 41.4147 36.6344 41.4028 36.5774 41.388C36.5282 41.3752 36.4789 41.3609 36.4317 41.3425C36.3925 41.3273 36.3552 41.3069 36.319 41.2857C36.2767 41.261 36.2365 41.2331 36.1955 41.2063C36.1095 41.1502 36.12 41.0262 36.1872 40.9641C36.2636 40.8936 36.3394 40.8224 36.4184 40.7549C36.4915 40.6925 36.5546 40.6841 36.6442 40.7344C36.6836 40.7565 36.7288 40.7706 36.7726 40.7843C36.8936 40.8222 37.0187 40.7994 37.1419 40.8033C37.2563 40.8068 37.3708 40.804 37.4854 40.804C37.5912 40.8041 37.668 40.7602 37.7145 40.6679C37.7388 40.6198 37.7614 40.5699 37.7515 40.5166C37.7418 40.464 37.729 40.4096 37.6905 40.3673C37.6541 40.3271 37.6135 40.2932 37.5561 40.2791C37.4964 40.2644 37.4392 40.241 37.3802 40.2236C37.3238 40.207 37.2663 40.1943 37.2099 40.1779C37.1518 40.161 37.0945 40.1412 37.0367 40.1234C37.0095 40.1151 36.9818 40.1081 36.9541 40.1013C36.9191 40.0927 36.8833 40.0865 36.8488 40.0762C36.7951 40.0602 36.7424 40.0412 36.6889 40.0242C36.6632 40.0159 36.6373 40.0078 36.611 40.0018C36.5188 39.9807 36.4404 39.935 36.3621 39.8853C36.2555 39.8175 36.1726 39.7287 36.105 39.6283C36.0638 39.567 36.0419 39.4938 36.0104 39.4264C35.9757 39.3522 35.9766 39.2721 35.9642 39.1938C35.9517 39.1154 35.971 39.0399 35.9771 38.9636C35.9815 38.9093 36.0141 38.8574 36.0292 38.8032C36.0573 38.7031 36.1228 38.6236 36.1856 38.5441C36.2236 38.4959 36.2776 38.4585 36.327 38.4191C36.3989 38.3617 36.4817 38.3225 36.5692 38.291C36.6311 38.2687 36.6927 38.2508 36.7597 38.2488C36.7893 38.248 36.8187 38.2357 36.853 38.2273V38.1962C36.853 38.1065 36.8537 38.0169 36.8528 37.9273C36.8521 37.8649 36.8749 37.8136 36.9304 37.7803C36.9546 37.7658 36.9843 37.752 37.0119 37.7513C37.1288 37.7481 37.2459 37.7476 37.3628 37.751C37.4171 37.7526 37.4923 37.7922 37.5049 37.8545C37.512 37.8894 37.5201 37.9246 37.5211 37.9599C37.5236 38.04 37.5218 38.1202 37.5219 38.2004C37.5219 38.2381 37.5319 38.2478 37.5717 38.25C37.5851 38.2507 37.5987 38.2512 37.6123 38.2512C37.6783 38.2511 37.7406 38.2682 37.8018 38.2899C37.8623 38.3113 37.9254 38.3275 37.9829 38.3545C38.0721 38.3963 38.163 38.4384 38.2248 38.5182C38.2414 38.5395 38.2452 38.6374 38.227 38.6571C38.1717 38.7163 38.1158 38.7751 38.0573 38.8316C38.0168 38.8708 37.973 38.9071 37.9284 38.9421C37.874 38.9848 37.7919 38.9833 37.7323 38.9495C37.6913 38.9263 37.6442 38.9131 37.6004 38.8941C37.5181 38.8584 37.4313 38.8773 37.3467 38.8757C37.1855 38.8727 37.0242 38.8737 36.8628 38.8754C36.7711 38.8764 36.708 38.9266 36.6639 38.998C36.6335 39.0473 36.6184 39.1027 36.6241 39.1609C36.6329 39.2503 36.6779 39.323 36.7534 39.3728C36.7905 39.3973 36.8407 39.4046 36.8855 39.4179C36.9408 39.4344 36.9967 39.449 37.0523 39.4645C37.0908 39.4754 37.1294 39.486 37.1676 39.4977C37.2027 39.5083 37.2372 39.5207 37.2721 39.5316C37.2969 39.5395 37.322 39.5467 37.3471 39.5534C37.404 39.5687 37.4614 39.5825 37.5179 39.5988C37.5515 39.6084 37.5834 39.6225 37.6167 39.6332C37.6448 39.6423 37.6739 39.6484 37.7021 39.6573C37.7652 39.6773 37.8312 39.6925 37.8905 39.7203C37.9725 39.7587 38.0511 39.8045 38.1127 39.8723C38.1476 39.9106 38.1908 39.9428 38.2216 39.9838C38.2595 40.0343 38.2901 40.0901 38.3205 40.1453C38.3429 40.1863 38.3633 40.229 38.3782 40.2728C38.3915 40.3123 38.3983 40.3541 38.4042 40.3953C38.4106 40.4405 38.4228 40.4882 38.4142 40.5315H38.4141ZM42.5868 41.1279C42.5862 41.1806 42.5409 41.2562 42.4768 41.2677C42.4392 41.2745 42.4013 41.2844 42.3635 41.2845C41.9883 41.2858 41.6132 41.2853 41.238 41.2853C40.8628 41.2853 40.4654 41.2843 40.0792 41.286C39.9712 41.2865 39.8841 41.2077 39.8883 41.1046C39.892 41.0128 39.8907 40.9207 39.8886 40.8287C39.8865 40.735 39.9328 40.6794 40.0167 40.6475C40.0363 40.64 40.0606 40.6431 40.0828 40.6431C40.6696 40.643 41.2565 40.643 41.8434 40.643C42.0303 40.643 42.2173 40.6433 42.4042 40.6429C42.4699 40.6427 42.5231 40.6665 42.5573 40.7194C42.573 40.7438 42.5851 40.7745 42.586 40.8026C42.5892 40.9109 42.5881 41.0194 42.5868 41.1279ZM45.9618 40.8175C45.9586 40.9164 45.9596 41.0155 45.9617 41.1144C45.9627 41.1622 45.944 41.2042 45.9124 41.2345C45.8808 41.2648 45.837 41.2855 45.7875 41.2853C45.6736 41.285 45.5597 41.2853 45.4458 41.2853C45.0088 41.2853 44.5718 41.2852 44.1349 41.2854C44.0334 41.2855 43.9767 41.2432 43.9423 41.16C43.9375 41.1485 43.9391 41.1344 43.9391 41.1214C43.9388 41.0165 43.9384 40.9116 43.9391 40.8067C43.9396 40.7186 44.0178 40.6432 44.1109 40.6431C44.3918 40.643 44.6728 40.6431 44.9538 40.6431C45.2286 40.6431 45.5034 40.6447 45.7782 40.6422C45.8796 40.6414 45.9649 40.7232 45.9618 40.8176V40.8175ZM45.9585 39.2103C45.9552 39.2675 45.9206 39.3129 45.8586 39.339C45.8225 39.3542 45.7883 39.356 45.7519 39.356C44.8084 39.3562 43.865 39.3562 42.9215 39.3562C41.978 39.3562 41.0346 39.3556 40.0911 39.3569C39.9937 39.3571 39.9289 39.3195 39.8941 39.2343C39.8894 39.2227 39.8895 39.2089 39.8894 39.1962C39.8891 39.0889 39.8891 38.9816 39.8894 38.8743C39.8894 38.8206 39.9317 38.7459 39.9978 38.7314C40.0305 38.7242 40.0639 38.7146 40.097 38.7146C41.9827 38.7138 43.8684 38.7141 45.7542 38.7129C45.8118 38.7128 45.8652 38.7241 45.9046 38.7585C45.9325 38.7829 45.9561 38.825 45.9581 38.8604C45.9648 38.9768 45.9653 39.094 45.9586 39.2103H45.9585Z" fill="#F8F9FA"/>
<path d="M159.35 45.25H151.783C151.775 45.2468 151.767 45.2423 151.759 45.2404C151.704 45.2287 151.647 45.2225 151.594 45.2054C151.417 45.1479 151.264 45.0509 151.142 44.9111C150.977 44.7224 150.897 44.5018 150.897 44.2534C150.896 42.9492 150.896 41.645 150.897 40.3407C150.897 40.2142 150.917 40.0902 150.965 39.9717C151.023 39.8264 151.11 39.7002 151.228 39.5954C151.38 39.4609 151.558 39.3793 151.759 39.3505C151.834 39.3397 151.912 39.3403 151.989 39.3393C152.112 39.3376 152.235 39.3388 152.359 39.3388H152.397C152.397 39.3224 152.397 39.3097 152.397 39.297C152.397 38.8121 152.396 38.3273 152.398 37.8425C152.399 37.733 152.41 37.6235 152.419 37.5142C152.432 37.3627 152.46 37.2128 152.506 37.0674C152.545 36.9423 152.586 36.8177 152.632 36.695C152.699 36.5166 152.792 36.35 152.896 36.1898C153.07 35.9211 153.282 35.6846 153.529 35.4793C153.763 35.2862 154.019 35.1297 154.298 35.0085C154.464 34.9364 154.636 34.8809 154.811 34.8357C154.9 34.8129 154.99 34.7955 155.08 34.7824C155.184 34.7675 155.288 34.7536 155.393 34.7511C155.533 34.7478 155.674 34.7525 155.814 34.7585C155.975 34.7654 156.134 34.791 156.29 34.8309C156.365 34.8499 156.441 34.8651 156.514 34.8895C156.627 34.9275 156.74 34.9669 156.85 35.0146C157.081 35.1152 157.297 35.2425 157.497 35.3954C157.748 35.5863 157.965 35.8078 158.149 36.0619C158.315 36.2923 158.447 36.5399 158.545 36.8058C158.602 36.9612 158.647 37.12 158.679 37.2815C158.699 37.3806 158.713 37.4813 158.722 37.5819C158.731 37.6918 158.734 37.8026 158.735 37.913C158.736 38.3749 158.735 38.8369 158.735 39.2988V39.3388C158.751 39.3388 158.762 39.3388 158.773 39.3388C158.874 39.3388 158.975 39.3363 159.076 39.3395C159.19 39.3431 159.304 39.3486 159.417 39.3597C159.504 39.3684 159.586 39.3999 159.665 39.4378C159.868 39.5357 160.022 39.6826 160.125 39.8819C160.19 40.0081 160.229 40.14 160.229 40.2827C160.229 41.6098 160.228 42.937 160.23 44.2641C160.23 44.3898 160.211 44.5096 160.164 44.6264C160.101 44.7847 160.003 44.9182 159.871 45.0254C159.726 45.1428 159.56 45.2182 159.371 45.2407C159.364 45.2416 159.357 45.2468 159.35 45.2499V45.25ZM155.566 39.3449C156.049 39.3449 156.533 39.3449 157.016 39.3449C157.048 39.3449 157.064 39.3294 157.064 39.2984C157.064 38.8365 157.065 38.3747 157.064 37.9128C157.064 37.7917 157.054 37.6715 157.028 37.5525C156.992 37.3949 156.933 37.2473 156.847 37.1102C156.681 36.8416 156.45 36.6437 156.157 36.517C156.02 36.4579 155.876 36.419 155.729 36.4052C155.581 36.3915 155.433 36.3944 155.285 36.4228C155.156 36.4478 155.031 36.4871 154.913 36.544C154.675 36.6588 154.48 36.8244 154.329 37.0399C154.201 37.2221 154.121 37.4235 154.085 37.6407C154.071 37.7245 154.068 37.811 154.068 37.8962C154.067 38.365 154.067 38.8338 154.067 39.3027C154.067 39.3309 154.082 39.3449 154.11 39.345C154.595 39.345 155.081 39.345 155.566 39.345L155.566 39.3449Z" fill="#F8F9FA"/>
<g clip-path="url(#clip0_1679_3470)">
<path d="M225.994 33.9592C225.994 34.9225 225.21 35.7143 224.22 35.7143C223.224 35.7143 222.434 34.9173 222.434 33.9592C222.434 33.001 223.224 32.2041 224.22 32.2041C225.21 32.2041 225.994 32.9958 225.994 33.9592ZM218.194 32.3061C218.194 33.5772 217.166 34.6122 215.862 34.6122C214.555 34.6122 213.52 33.5728 213.52 32.3061C213.52 31.0394 214.555 30 215.862 30C217.166 30 218.194 31.0351 218.194 32.3061ZM219.091 41.949C219.091 41.8167 219.15 41.6239 219.436 41.3635C219.728 41.0974 220.18 40.8361 220.759 40.6072C221.917 40.1489 223.324 39.9184 224.22 39.9184C225.116 39.9184 226.523 40.1489 227.681 40.6072C228.259 40.8361 228.712 41.0974 229.004 41.3635C229.289 41.6239 229.348 41.8167 229.348 41.949V43.4286H219.091V41.949ZM209.062 41.6735C209.062 41.4033 209.191 41.09 209.59 40.7263C209.995 40.3569 210.604 40.0096 211.357 39.7118C212.863 39.1158 214.688 38.8163 215.862 38.8163C215.921 38.8163 215.981 38.8171 216.042 38.8187C215.807 39.0978 215.612 39.3833 215.454 39.6705C214.981 40.5313 214.862 41.3497 214.862 41.949V43.4286H209.062V41.6735Z" stroke="#F8F9FA" stroke-width="2"/>
</g>
<path d="M199.544 60H198.621L201.291 52.7273H202.2L204.871 60H203.948L201.774 53.8778H201.718L199.544 60ZM199.885 57.1591H203.607V57.9403H199.885V57.1591ZM205.89 62.0455V54.5455H206.7V55.4119H206.799C206.861 55.3172 206.946 55.1965 207.055 55.0497C207.166 54.9006 207.325 54.768 207.531 54.652C207.739 54.5336 208.021 54.4744 208.376 54.4744C208.835 54.4744 209.24 54.5893 209.59 54.8189C209.941 55.0485 210.214 55.3741 210.411 55.7955C210.607 56.2169 210.705 56.714 210.705 57.2869C210.705 57.8646 210.607 58.3653 210.411 58.7891C210.214 59.2105 209.942 59.5372 209.594 59.7692C209.246 59.9988 208.845 60.1136 208.39 60.1136C208.04 60.1136 207.759 60.0556 207.548 59.9396C207.338 59.8213 207.176 59.6875 207.062 59.5384C206.948 59.3868 206.861 59.2614 206.799 59.1619H206.728V62.0455H205.89ZM206.714 57.2727C206.714 57.6847 206.774 58.0481 206.895 58.3629C207.016 58.6754 207.192 58.9205 207.424 59.098C207.656 59.2732 207.94 59.3608 208.276 59.3608C208.627 59.3608 208.919 59.2685 209.154 59.0838C209.39 58.8968 209.568 58.6458 209.686 58.331C209.807 58.0137 209.867 57.661 209.867 57.2727C209.867 56.8892 209.808 56.5436 209.69 56.2358C209.574 55.9257 209.397 55.6806 209.161 55.5007C208.926 55.3184 208.632 55.2273 208.276 55.2273C207.936 55.2273 207.649 55.3137 207.417 55.4865C207.185 55.657 207.01 55.8961 206.892 56.2038C206.773 56.5092 206.714 56.8655 206.714 57.2727ZM211.984 62.0455V54.5455H212.794V55.4119H212.893C212.954 55.3172 213.04 55.1965 213.149 55.0497C213.26 54.9006 213.419 54.768 213.624 54.652C213.833 54.5336 214.115 54.4744 214.47 54.4744C214.929 54.4744 215.334 54.5893 215.684 54.8189C216.035 55.0485 216.308 55.3741 216.504 55.7955C216.701 56.2169 216.799 56.714 216.799 57.2869C216.799 57.8646 216.701 58.3653 216.504 58.7891C216.308 59.2105 216.036 59.5372 215.688 59.7692C215.34 59.9988 214.938 60.1136 214.484 60.1136C214.133 60.1136 213.853 60.0556 213.642 59.9396C213.432 59.8213 213.269 59.6875 213.156 59.5384C213.042 59.3868 212.954 59.2614 212.893 59.1619H212.822V62.0455H211.984ZM212.808 57.2727C212.808 57.6847 212.868 58.0481 212.989 58.3629C213.11 58.6754 213.286 58.9205 213.518 59.098C213.75 59.2732 214.034 59.3608 214.37 59.3608C214.721 59.3608 215.013 59.2685 215.247 59.0838C215.484 58.8968 215.662 58.6458 215.78 58.331C215.901 58.0137 215.961 57.661 215.961 57.2727C215.961 56.8892 215.902 56.5436 215.784 56.2358C215.668 55.9257 215.491 55.6806 215.254 55.5007C215.02 55.3184 214.725 55.2273 214.37 55.2273C214.029 55.2273 213.743 55.3137 213.511 55.4865C213.279 55.657 213.104 55.8961 212.985 56.2038C212.867 56.5092 212.808 56.8655 212.808 57.2727ZM218.916 52.7273V60H218.078V52.7273H218.916ZM220.451 60V54.5455H221.289V60H220.451ZM220.877 53.6364C220.713 53.6364 220.573 53.5807 220.454 53.4695C220.338 53.3582 220.28 53.2244 220.28 53.0682C220.28 52.9119 220.338 52.7782 220.454 52.6669C220.573 52.5556 220.713 52.5 220.877 52.5C221.04 52.5 221.18 52.5556 221.296 52.6669C221.414 52.7782 221.473 52.9119 221.473 53.0682C221.473 53.2244 221.414 53.3582 221.296 53.4695C221.18 53.5807 221.04 53.6364 220.877 53.6364ZM225.04 60.1136C224.528 60.1136 224.088 59.9929 223.719 59.7514C223.349 59.5099 223.065 59.1773 222.866 58.7536C222.667 58.3298 222.568 57.8456 222.568 57.3011C222.568 56.7472 222.67 56.2583 222.873 55.8345C223.079 55.4084 223.366 55.0758 223.733 54.8366C224.102 54.5952 224.533 54.4744 225.025 54.4744C225.409 54.4744 225.755 54.5455 226.062 54.6875C226.37 54.8295 226.622 55.0284 226.819 55.2841C227.015 55.5398 227.137 55.8381 227.184 56.179H226.346C226.282 55.9304 226.14 55.7102 225.92 55.5185C225.702 55.3243 225.409 55.2273 225.04 55.2273C224.713 55.2273 224.426 55.3125 224.18 55.483C223.936 55.651 223.746 55.889 223.608 56.1967C223.474 56.5021 223.406 56.8608 223.406 57.2727C223.406 57.6941 223.472 58.0611 223.605 58.3736C223.74 58.6861 223.929 58.9287 224.173 59.1016C224.419 59.2744 224.708 59.3608 225.04 59.3608C225.257 59.3608 225.455 59.3229 225.633 59.2472C225.81 59.1714 225.961 59.0625 226.084 58.9205C226.207 58.7784 226.294 58.608 226.346 58.4091H227.184C227.137 58.7311 227.02 59.0211 226.833 59.2791C226.648 59.5348 226.403 59.7384 226.098 59.8899C225.795 60.0391 225.442 60.1136 225.04 60.1136ZM230.015 60.1278C229.669 60.1278 229.355 60.0627 229.074 59.9325C228.792 59.8 228.568 59.6094 228.403 59.3608C228.237 59.1098 228.154 58.8068 228.154 58.4517C228.154 58.1392 228.215 57.8859 228.339 57.6918C228.462 57.4953 228.626 57.3414 228.832 57.2301C229.038 57.1188 229.265 57.036 229.514 56.9815C229.765 56.9247 230.017 56.8797 230.27 56.8466C230.602 56.804 230.871 56.772 231.077 56.7507C231.285 56.727 231.436 56.688 231.531 56.6335C231.628 56.5791 231.677 56.4844 231.677 56.3494V56.321C231.677 55.9706 231.581 55.6984 231.389 55.5043C231.2 55.3101 230.912 55.2131 230.526 55.2131C230.126 55.2131 229.812 55.3007 229.585 55.4759C229.358 55.651 229.198 55.8381 229.106 56.0369L228.31 55.7528C228.452 55.4214 228.642 55.1634 228.878 54.9787C229.117 54.7917 229.378 54.6615 229.66 54.5881C229.944 54.5123 230.223 54.4744 230.498 54.4744C230.673 54.4744 230.874 54.4957 231.101 54.5384C231.331 54.5786 231.552 54.6626 231.765 54.7905C231.981 54.9183 232.16 55.1113 232.302 55.3693C232.444 55.6274 232.515 55.973 232.515 56.4062V60H231.677V59.2614H231.634C231.577 59.3797 231.483 59.5064 231.35 59.6413C231.217 59.7763 231.041 59.8911 230.821 59.9858C230.601 60.0805 230.332 60.1278 230.015 60.1278ZM230.143 59.375C230.474 59.375 230.753 59.3099 230.981 59.1797C231.21 59.0495 231.383 58.8814 231.499 58.6754C231.617 58.4695 231.677 58.2528 231.677 58.0256V57.2585C231.641 57.3011 231.563 57.3402 231.442 57.3757C231.324 57.4089 231.187 57.4384 231.03 57.4645C230.876 57.4882 230.726 57.5095 230.579 57.5284C230.435 57.545 230.318 57.5592 230.228 57.571C230.01 57.5994 229.806 57.6456 229.617 57.7095C229.43 57.7711 229.278 57.8646 229.162 57.9901C229.049 58.1132 228.992 58.2812 228.992 58.4943C228.992 58.7855 229.1 59.0057 229.315 59.1548C229.533 59.3016 229.809 59.375 230.143 59.375ZM234.882 56.7188V60H234.044V54.5455H234.854V55.3977H234.925C235.053 55.1207 235.247 54.8982 235.507 54.7301C235.768 54.5597 236.104 54.4744 236.516 54.4744C236.885 54.4744 237.208 54.5502 237.485 54.7017C237.762 54.8509 237.978 55.0781 238.132 55.3835C238.286 55.6866 238.363 56.0701 238.363 56.5341V60H237.525V56.5909C237.525 56.1624 237.413 55.8286 237.191 55.5895C236.968 55.348 236.663 55.2273 236.275 55.2273C236.007 55.2273 235.768 55.2853 235.557 55.4013C235.349 55.5173 235.184 55.6866 235.064 55.9091C234.943 56.1316 234.882 56.4015 234.882 56.7188ZM242.266 54.5455V55.2557H239.439V54.5455H242.266ZM240.263 53.2386H241.101V58.4375C241.101 58.6742 241.136 58.8518 241.204 58.9702C241.275 59.0862 241.365 59.1643 241.474 59.2045C241.586 59.2424 241.703 59.2614 241.826 59.2614C241.918 59.2614 241.994 59.2566 242.053 59.2472C242.112 59.2353 242.16 59.2259 242.195 59.2188L242.366 59.9716C242.309 59.9929 242.229 60.0142 242.128 60.0355C242.026 60.0592 241.897 60.071 241.741 60.071C241.504 60.071 241.272 60.0201 241.045 59.9183C240.82 59.8165 240.633 59.6615 240.483 59.4531C240.337 59.2448 240.263 58.982 240.263 58.6648V53.2386Z" fill="#F8F9FA"/>
<defs>
<clipPath id="clip0_1679_3470">
<rect width="24" height="24" fill="white" transform="translate(207.062 27)"/>
</clipPath>
</defs>
</svg>
