<svg width="320" height="79" viewBox="0 0 320 79" fill="none" xmlns="http://www.w3.org/2000/svg">
<line x1="73.25" y1="41" x2="141.25" y2="41" stroke="#F8F9FA" stroke-width="2" stroke-linecap="round" stroke-dasharray="4 4"/>
<line x1="73.25" y1="41" x2="141.25" y2="41" stroke="#F8F9FA" stroke-width="2" stroke-linecap="round" stroke-dasharray="4 4"/>
<line x1="162.25" y1="41" x2="230.25" y2="41" stroke="#F8F9FA" stroke-width="2" stroke-linecap="round" stroke-dasharray="4 4"/>
<circle cx="152.25" cy="41" r="9" stroke="#F8F9FA" stroke-width="2"/>
<path d="M69.9997 47.1652C69.9997 47.1416 70.0006 47.118 69.9993 47.0945C69.9938 46.9925 69.9616 46.8981 69.9053 46.812C69.8674 46.7538 69.8268 46.6962 69.7674 46.6554C69.7176 46.6213 69.6671 46.5864 69.6124 46.5607C69.5593 46.5358 69.5005 46.5218 69.4439 46.5037C69.4349 46.5008 69.4243 46.5016 69.4144 46.5015C69.3711 46.5011 69.3278 46.5006 69.2844 46.5006H57.2152C57.1929 46.5006 57.1706 46.5018 57.1484 46.5005C57.0789 46.4965 57.0155 46.518 56.9503 46.5369C56.8322 46.5713 56.7391 46.6397 56.6593 46.7242C56.6195 46.7663 56.5895 46.8186 56.5631 46.87C56.5424 46.9104 56.5346 46.9566 56.5195 46.9998C56.5164 47.0089 56.5067 47.016 56.5 47.024V54.9758C56.5068 54.985 56.5184 54.9936 56.5197 55.0034C56.5321 55.096 56.5811 55.171 56.6371 55.245C56.7037 55.3329 56.7899 55.3942 56.8912 55.44C56.9847 55.4824 57.0819 55.5001 57.186 55.5C61.2289 55.4991 65.2718 55.4992 69.3147 55.4992C69.3333 55.4992 69.3518 55.4986 69.3704 55.4992C69.4322 55.5011 69.4899 55.4849 69.5456 55.4621C69.5926 55.4428 69.6401 55.4238 69.6848 55.4003C69.7614 55.36 69.826 55.3046 69.872 55.2339C69.9106 55.1746 69.9474 55.1126 69.9731 55.0476C69.992 55 69.9984 54.9454 69.9985 54.894C70 53.9979 69.9997 53.1018 69.9997 52.2057V47.1653V47.1652ZM61.1016 51.5315C61.0878 51.6016 61.1093 51.6749 61.0756 51.7427C61.0625 51.7691 61.0613 51.8006 61.0498 51.8279C61.0229 51.8924 60.9989 51.9591 60.9626 52.0187C60.9293 52.0736 60.8835 52.1219 60.8398 52.1704C60.7904 52.2252 60.7307 52.2691 60.6654 52.3054C60.6169 52.3323 60.5692 52.3623 60.5173 52.3815C60.4617 52.4021 60.4019 52.4134 60.3433 52.4257C60.3006 52.4346 60.2567 52.4387 60.2095 52.4454V52.4852C60.2095 52.5736 60.2093 52.662 60.2095 52.7505C60.2097 52.8558 60.1371 52.9267 60.0275 52.926C59.9217 52.9254 59.8157 52.927 59.7098 52.9252C59.6518 52.9243 59.6012 52.9021 59.5712 52.8531C59.5553 52.8273 59.543 52.7955 59.5419 52.7659C59.5382 52.6682 59.5393 52.5702 59.5412 52.4724C59.5417 52.4443 59.5279 52.4343 59.5039 52.4311C59.482 52.4283 59.4592 52.4304 59.4377 52.4261C59.3798 52.4147 59.3219 52.4028 59.2649 52.388C59.2157 52.3752 59.1664 52.3609 59.1192 52.3425C59.08 52.3273 59.0427 52.3069 59.0065 52.2857C58.9642 52.261 58.924 52.2331 58.883 52.2063C58.797 52.1502 58.8075 52.0262 58.8747 51.9641C58.9511 51.8936 59.0269 51.8224 59.1059 51.7549C59.179 51.6925 59.2421 51.6841 59.3317 51.7344C59.3711 51.7565 59.4163 51.7706 59.4601 51.7843C59.5811 51.8222 59.7062 51.7994 59.8294 51.8033C59.9438 51.8068 60.0583 51.804 60.1729 51.804C60.2787 51.8041 60.3555 51.7602 60.402 51.6679C60.4263 51.6198 60.4489 51.5699 60.439 51.5166C60.4293 51.464 60.4165 51.4096 60.378 51.3673C60.3416 51.3271 60.301 51.2932 60.2436 51.2791C60.1839 51.2644 60.1267 51.241 60.0677 51.2236C60.0113 51.207 59.9538 51.1943 59.8974 51.1779C59.8393 51.161 59.782 51.1412 59.7242 51.1234C59.697 51.1151 59.6693 51.1081 59.6416 51.1013C59.6066 51.0927 59.5708 51.0865 59.5363 51.0762C59.4826 51.0602 59.4299 51.0412 59.3764 51.0242C59.3507 51.0159 59.3248 51.0078 59.2985 51.0018C59.2063 50.9807 59.1279 50.935 59.0496 50.8853C58.943 50.8175 58.8601 50.7287 58.7925 50.6283C58.7513 50.567 58.7294 50.4938 58.6979 50.4264C58.6632 50.3522 58.6641 50.2721 58.6517 50.1938C58.6392 50.1154 58.6585 50.0399 58.6646 49.9636C58.669 49.9093 58.7016 49.8574 58.7167 49.8032C58.7448 49.7031 58.8103 49.6236 58.8731 49.5441C58.9111 49.4959 58.9651 49.4585 59.0145 49.4191C59.0864 49.3617 59.1692 49.3225 59.2567 49.291C59.3186 49.2687 59.3802 49.2508 59.4472 49.2488C59.4768 49.248 59.5062 49.2357 59.5405 49.2273V49.1962C59.5405 49.1065 59.5412 49.0169 59.5403 48.9273C59.5396 48.8649 59.5624 48.8136 59.6179 48.7803C59.6421 48.7658 59.6718 48.752 59.6994 48.7513C59.8163 48.7481 59.9334 48.7476 60.0503 48.751C60.1046 48.7526 60.1798 48.7922 60.1924 48.8545C60.1995 48.8894 60.2076 48.9246 60.2086 48.9599C60.2111 49.04 60.2093 49.1202 60.2094 49.2004C60.2094 49.2381 60.2194 49.2478 60.2592 49.25C60.2726 49.2507 60.2862 49.2512 60.2998 49.2512C60.3658 49.2511 60.4281 49.2682 60.4893 49.2899C60.5498 49.3113 60.6129 49.3275 60.6704 49.3545C60.7596 49.3963 60.8505 49.4384 60.9123 49.5182C60.9289 49.5395 60.9327 49.6374 60.9145 49.6571C60.8592 49.7163 60.8033 49.7751 60.7448 49.8316C60.7043 49.8708 60.6605 49.9071 60.6159 49.9421C60.5615 49.9848 60.4794 49.9833 60.4198 49.9495C60.3788 49.9263 60.3317 49.9131 60.2879 49.8941C60.2056 49.8584 60.1188 49.8773 60.0342 49.8757C59.873 49.8727 59.7117 49.8737 59.5503 49.8754C59.4586 49.8764 59.3955 49.9266 59.3514 49.998C59.321 50.0473 59.3059 50.1027 59.3116 50.1609C59.3204 50.2503 59.3654 50.323 59.4409 50.3728C59.478 50.3973 59.5282 50.4046 59.573 50.4179C59.6283 50.4344 59.6842 50.449 59.7398 50.4645C59.7783 50.4754 59.8169 50.486 59.8551 50.4977C59.8902 50.5083 59.9247 50.5207 59.9596 50.5316C59.9844 50.5395 60.0095 50.5467 60.0346 50.5534C60.0915 50.5687 60.1489 50.5825 60.2054 50.5988C60.239 50.6084 60.2709 50.6225 60.3042 50.6332C60.3323 50.6423 60.3614 50.6484 60.3896 50.6573C60.4527 50.6773 60.5187 50.6925 60.578 50.7203C60.66 50.7587 60.7386 50.8045 60.8002 50.8723C60.8351 50.9106 60.8783 50.9428 60.9091 50.9838C60.947 51.0343 60.9776 51.0901 61.008 51.1453C61.0304 51.1863 61.0508 51.229 61.0657 51.2728C61.079 51.3123 61.0858 51.3541 61.0917 51.3953C61.0981 51.4405 61.1103 51.4882 61.1017 51.5315H61.1016ZM65.2743 52.1279C65.2737 52.1806 65.2284 52.2562 65.1643 52.2677C65.1267 52.2745 65.0888 52.2844 65.051 52.2845C64.6758 52.2858 64.3007 52.2853 63.9255 52.2853C63.5503 52.2853 63.1529 52.2843 62.7667 52.286C62.6587 52.2865 62.5716 52.2077 62.5758 52.1046C62.5795 52.0128 62.5782 51.9207 62.5761 51.8287C62.574 51.735 62.6203 51.6794 62.7042 51.6475C62.7238 51.64 62.7481 51.6431 62.7703 51.6431C63.3571 51.643 63.944 51.643 64.5309 51.643C64.7178 51.643 64.9048 51.6433 65.0917 51.6429C65.1574 51.6427 65.2106 51.6665 65.2448 51.7194C65.2605 51.7438 65.2726 51.7745 65.2735 51.8026C65.2767 51.9109 65.2756 52.0194 65.2743 52.1279ZM68.6493 51.8175C68.6461 51.9164 68.6471 52.0155 68.6492 52.1144C68.6502 52.1622 68.6315 52.2042 68.5999 52.2345C68.5683 52.2648 68.5245 52.2855 68.475 52.2853C68.3611 52.285 68.2472 52.2853 68.1333 52.2853C67.6963 52.2853 67.2593 52.2852 66.8224 52.2854C66.7209 52.2855 66.6642 52.2432 66.6298 52.16C66.625 52.1485 66.6266 52.1344 66.6266 52.1214C66.6263 52.0165 66.6259 51.9116 66.6266 51.8067C66.6271 51.7186 66.7053 51.6432 66.7984 51.6431C67.0793 51.643 67.3603 51.6431 67.6413 51.6431C67.9161 51.6431 68.1909 51.6447 68.4657 51.6422C68.5671 51.6414 68.6524 51.7232 68.6493 51.8176V51.8175ZM68.646 50.2103C68.6427 50.2675 68.6081 50.3129 68.5461 50.339C68.51 50.3542 68.4758 50.356 68.4394 50.356C67.4959 50.3562 66.5525 50.3562 65.609 50.3562C64.6655 50.3562 63.7221 50.3556 62.7786 50.3569C62.6812 50.3571 62.6164 50.3195 62.5816 50.2343C62.5769 50.2227 62.577 50.2089 62.5769 50.1962C62.5766 50.0889 62.5766 49.9816 62.5769 49.8743C62.5769 49.8206 62.6192 49.7459 62.6853 49.7314C62.718 49.7242 62.7514 49.7146 62.7845 49.7146C64.6702 49.7138 66.5559 49.7141 68.4417 49.7129C68.4993 49.7128 68.5527 49.7241 68.5921 49.7585C68.62 49.7829 68.6436 49.825 68.6456 49.8604C68.6523 49.9768 68.6528 50.094 68.6461 50.2103H68.646Z" fill="#F8F9FA"/>
<path d="M158.479 20.6765C158.419 20.5203 158.31 20.4417 158.158 20.433C158.142 20.432 158.125 20.4326 158.108 20.4326H152.325C152.251 20.4326 152.26 20.4378 152.26 20.3594C152.26 20.0921 152.26 19.8249 152.26 19.5577V19.499H152.307C152.803 19.499 153.298 19.4999 153.794 19.4986C153.98 19.4981 154.135 19.4148 154.264 19.2682C154.348 19.1731 154.403 19.0601 154.433 18.9324C154.444 18.8894 154.45 18.844 154.45 18.7997C154.451 17.7667 154.453 16.7336 154.449 15.7006C154.449 15.4978 154.363 15.3295 154.229 15.1933C154.137 15.0993 154.03 15.034 153.904 15.0148C153.855 15.0073 153.805 15.0008 153.755 15.0008C152.414 15 151.072 15.0004 149.73 15C149.49 14.9999 149.304 15.114 149.167 15.3278C149.113 15.4116 149.074 15.5048 149.063 15.6092C149.058 15.6588 149.051 15.7087 149.051 15.7584C149.05 16.7582 149.05 17.7579 149.051 18.7578C149.052 19.0299 149.164 19.2366 149.368 19.3849C149.477 19.4646 149.597 19.4996 149.728 19.4994C150.216 19.4984 150.704 19.499 151.193 19.499H151.239C151.239 19.5191 151.241 19.5359 151.241 19.5527C151.241 19.8267 151.241 20.1005 151.241 20.3744C151.241 20.4324 151.241 20.4325 151.187 20.4325C149.249 20.4325 147.311 20.4327 145.373 20.4321C145.247 20.432 145.14 20.4739 145.065 20.5909C145.042 20.6264 145.03 20.6707 145.013 20.7107C145.01 20.7171 145.004 20.722 145 20.7276V21.2717C145.007 21.2888 145.014 21.3058 145.02 21.3229C145.081 21.4792 145.19 21.5576 145.341 21.5654C145.357 21.5662 145.373 21.5656 145.388 21.5656H147.473C147.508 21.5656 147.526 21.5852 147.526 21.6242C147.526 21.8978 147.526 22.1714 147.526 22.445C147.526 22.4619 147.524 22.4787 147.524 22.4993H147.475C147.1 22.4993 146.725 22.4999 146.351 22.499C146.111 22.4985 145.925 22.6119 145.786 22.8257C145.732 22.9097 145.693 23.0025 145.682 23.1067C145.676 23.1629 145.67 23.2196 145.67 23.2759C145.669 24.2733 145.668 25.2706 145.67 26.2679C145.671 26.5349 145.785 26.7379 145.985 26.8839C146.097 26.9654 146.219 26.9997 146.352 26.9996C147.477 26.9988 148.603 26.9999 149.728 26.9985C149.974 26.9982 150.16 26.8726 150.293 26.6466C150.365 26.5262 150.396 26.3945 150.396 26.251C150.396 25.2496 150.397 24.2483 150.396 23.247C150.396 22.9714 150.284 22.7625 150.078 22.6125C150.007 22.5613 149.932 22.5253 149.848 22.5138C149.8 22.5073 149.751 22.5002 149.703 22.5C149.332 22.4989 148.961 22.4994 148.589 22.4994H148.544C148.543 22.4814 148.542 22.4673 148.542 22.4532C148.542 22.1738 148.543 21.8946 148.541 21.6154C148.541 21.5747 148.552 21.564 148.588 21.564C150.694 21.5649 152.8 21.5648 154.906 21.5641C154.939 21.5641 154.952 21.5731 154.952 21.6126C154.95 21.8933 154.951 22.1738 154.951 22.4544C154.951 22.4674 154.95 22.4805 154.949 22.4994H154.906C154.53 22.4994 154.154 22.4998 153.778 22.4992C153.539 22.4988 153.354 22.6111 153.216 22.8237C153.161 22.9089 153.122 23.0024 153.11 23.1081C153.105 23.159 153.098 23.2103 153.098 23.2614C153.097 24.2613 153.096 25.2613 153.098 26.2613C153.099 26.5319 153.212 26.7372 153.415 26.8847C153.524 26.9646 153.644 26.9996 153.774 26.9995C154.901 26.999 156.028 26.998 157.155 27C157.452 27.0005 157.708 26.7738 157.793 26.4833C157.813 26.4142 157.823 26.3384 157.823 26.2657C157.825 25.255 157.826 24.2444 157.824 23.2338C157.823 22.9649 157.709 22.7609 157.508 22.6142C157.397 22.5335 157.276 22.4986 157.145 22.499C156.77 22.5001 156.395 22.4994 156.02 22.4994H155.973C155.972 22.481 155.97 22.4644 155.97 22.4478C155.97 22.1725 155.97 21.8973 155.97 21.6221C155.97 21.584 155.987 21.5649 156.021 21.5648C156.726 21.5648 157.431 21.5646 158.137 21.565C158.259 21.565 158.363 21.5203 158.436 21.4073C158.458 21.3717 158.47 21.3275 158.487 21.2874C158.49 21.281 158.496 21.2761 158.5 21.2705V20.7279C158.493 20.7109 158.486 20.6939 158.48 20.6768L158.479 20.6765ZM149.05 23.9993V25.4914H147.032V23.9993H149.05ZM150.407 17.999V16.5069H153.1V17.999H150.407ZM156.475 23.9993V25.4914H154.457V23.9993H156.475Z" fill="#F8F9FA"/>
<path d="M113.984 27.8124C113.974 27.7185 113.957 27.6245 113.935 27.5325C113.897 27.3777 113.837 27.2299 113.762 27.0882C113.655 26.8885 113.519 26.7092 113.354 26.551C113.173 26.3776 112.969 26.2356 112.736 26.1364C112.603 26.0799 112.464 26.0348 112.325 25.9974C112.225 25.9706 112.12 25.9659 112.017 25.9505C111.849 25.9251 111.68 25.9377 111.513 25.9577C111.332 25.9794 111.157 26.0255 110.989 26.0921C110.743 26.1895 110.52 26.3243 110.326 26.5C110.034 26.7646 109.827 27.0808 109.714 27.4534C109.659 27.6307 109.628 27.8113 109.625 27.9942C109.622 28.1333 109.637 28.2742 109.661 28.4117C109.684 28.5405 109.719 28.669 109.764 28.792C109.854 29.0336 109.991 29.2506 110.168 29.4423C110.425 29.7217 110.736 29.9266 111.105 30.0457C111.165 30.0652 111.193 30.1056 111.187 30.167C111.187 30.1697 111.187 30.1724 111.187 30.175C111.18 30.3565 111.146 30.5332 111.085 30.7053C111.004 30.9365 110.862 31.1229 110.651 31.2602C110.502 31.3579 110.339 31.4294 110.166 31.4781C110.054 31.5097 109.941 31.5415 109.827 31.5667C109.733 31.5874 109.637 31.5996 109.541 31.6138C109.423 31.6312 109.306 31.6494 109.188 31.6624C109.027 31.6801 108.866 31.6932 108.705 31.7083C108.529 31.7248 108.353 31.741 108.178 31.7579C108.077 31.7676 107.976 31.7764 107.875 31.7892C107.76 31.8038 107.646 31.8216 107.531 31.8393C107.439 31.8535 107.347 31.866 107.256 31.8854C107.133 31.9118 107.009 31.9408 106.888 31.9749C106.77 32.0078 106.655 32.047 106.539 32.0867C106.476 32.1084 106.415 32.1366 106.347 32.1644V32.1064C106.347 30.8831 106.347 29.6598 106.347 28.4365C106.347 28.426 106.348 28.4153 106.347 28.4048C106.345 28.3827 106.355 28.373 106.377 28.3652C106.442 28.3424 106.507 28.3174 106.57 28.2911C106.902 28.1546 107.176 27.9469 107.401 27.6764C107.589 27.4492 107.728 27.1966 107.799 26.9131C107.829 26.7971 107.855 26.6793 107.868 26.5608C107.89 26.3684 107.878 26.1761 107.842 25.9848C107.814 25.8342 107.771 25.6882 107.71 25.5476C107.649 25.4074 107.572 25.2753 107.481 25.1504C107.215 24.7863 106.863 24.5305 106.433 24.3753C106.25 24.3095 106.059 24.2716 105.865 24.2572C105.653 24.2416 105.439 24.2496 105.232 24.298C105.092 24.3305 104.955 24.3753 104.822 24.4275C104.491 24.5575 104.218 24.7644 103.992 25.0302C103.832 25.2194 103.71 25.4297 103.626 25.661C103.574 25.802 103.537 25.9459 103.518 26.0932C103.492 26.2905 103.493 26.4879 103.528 26.6856C103.551 26.8158 103.583 26.9423 103.628 27.067C103.711 27.3027 103.838 27.5152 104.002 27.7059C104.263 28.0085 104.587 28.2257 104.972 28.3549C105.017 28.37 105.032 28.3877 105.032 28.4342C105.03 30.1447 105.031 31.8552 105.031 33.5657C105.031 33.5736 105.03 33.5816 105.031 33.5895C105.033 33.6155 105.024 33.6283 104.996 33.6376C104.923 33.6616 104.85 33.6875 104.78 33.7192C104.481 33.8544 104.223 34.0416 104.011 34.287C103.799 34.5334 103.65 34.8106 103.569 35.1225C103.534 35.2563 103.511 35.3913 103.503 35.5281C103.49 35.7629 103.518 35.9938 103.585 36.2206C103.647 36.4304 103.74 36.6257 103.865 36.8069C104.013 37.0206 104.195 37.2019 104.41 37.3529C104.576 37.469 104.755 37.5607 104.947 37.6276C105.11 37.6844 105.279 37.7254 105.453 37.7375C105.469 37.7386 105.484 37.7457 105.5 37.75H105.879C105.895 37.7457 105.91 37.7389 105.926 37.7375C106.109 37.722 106.285 37.6778 106.458 37.6165C106.743 37.5151 106.994 37.3614 107.211 37.158C107.463 36.9213 107.648 36.6431 107.761 36.3195C107.815 36.1662 107.851 36.0104 107.868 35.8509C107.885 35.6904 107.881 35.5294 107.859 35.3681C107.838 35.2174 107.802 35.0712 107.751 34.9287C107.686 34.7521 107.598 34.586 107.486 34.4336C107.257 34.1237 106.967 33.8832 106.605 33.7265C106.565 33.7092 106.525 33.6908 106.473 33.6672C106.534 33.6006 106.585 33.538 106.644 33.483C106.759 33.3753 106.9 33.3072 107.048 33.2551C107.14 33.223 107.235 33.1975 107.329 33.1721C107.392 33.1551 107.456 33.142 107.52 33.1297C107.614 33.1118 107.707 33.0931 107.802 33.08C107.935 33.0618 108.068 33.048 108.201 33.0332C108.309 33.0212 108.416 33.01 108.524 32.9997C108.607 32.9916 108.691 32.9861 108.774 32.9783C108.887 32.9677 109 32.9563 109.113 32.9446C109.254 32.93 109.396 32.919 109.537 32.8987C109.714 32.8733 109.89 32.8425 110.066 32.8092C110.191 32.7855 110.318 32.7619 110.44 32.7241C110.615 32.6697 110.788 32.6064 110.959 32.5396C111.169 32.4576 111.36 32.3426 111.538 32.2074C111.757 32.0408 111.94 31.8436 112.088 31.6148C112.215 31.42 112.31 31.2128 112.375 30.9931C112.416 30.8541 112.449 30.712 112.471 30.5692C112.495 30.4153 112.504 30.259 112.514 30.1034C112.516 30.0627 112.528 30.0415 112.567 30.0303C112.59 30.0234 112.613 30.0147 112.635 30.0059C112.968 29.8764 113.248 29.6768 113.481 29.4146C113.721 29.1432 113.879 28.8307 113.955 28.4821C113.982 28.36 113.992 28.2338 113.999 28.1089C114.003 28.0104 113.995 27.9107 113.984 27.8124ZM105.687 36.0634C105.443 36.0619 105.251 35.8787 105.251 35.6412C105.251 35.4138 105.447 35.2248 105.688 35.2243C105.921 35.2239 106.13 35.4197 106.118 35.6443C106.128 35.8675 105.928 36.0648 105.687 36.0634ZM105.685 26.7841C105.446 26.782 105.251 26.5949 105.251 26.3682C105.251 26.1295 105.442 25.9472 105.686 25.9454C105.929 25.9435 106.128 26.1408 106.118 26.3638C106.13 26.5902 105.92 26.7863 105.685 26.7841ZM111.809 28.4688C111.572 28.478 111.372 28.2705 111.375 28.0487C111.378 27.8231 111.572 27.6313 111.813 27.6317C112.05 27.6321 112.245 27.8238 112.245 28.0536C112.245 28.2797 112.045 28.4771 111.809 28.4688Z" fill="#F8F9FA"/>
<path d="M70.5002 26.3966V27.6029C70.4912 27.6249 70.4812 27.6467 70.4733 27.6692C70.4213 27.8163 70.266 27.9304 70.1068 27.9377C70.0865 27.9387 70.0661 27.9387 70.0457 27.9387C66.974 27.9387 63.9024 27.9385 60.8308 27.9394C60.6899 27.9394 60.5698 27.8982 60.4767 27.7925C60.4135 27.7206 60.3766 27.6361 60.3764 27.5395C60.3757 27.1789 60.3731 26.8182 60.3774 26.4576C60.3795 26.2924 60.4687 26.1741 60.6161 26.1004C60.6813 26.0679 60.7526 26.0576 60.8262 26.0576C63.9015 26.0581 66.9768 26.058 70.0521 26.0582C70.2419 26.0582 70.3832 26.1382 70.466 26.3103C70.4794 26.3381 70.4889 26.3678 70.5002 26.3966Z" fill="#F8F9FA"/>
<path d="M70.5002 34.736V35.9423C70.4912 35.9644 70.4812 35.9861 70.4733 36.0085C70.4213 36.1556 70.266 36.2698 70.1068 36.2771C70.0865 36.2781 70.0661 36.2781 70.0457 36.2781C66.974 36.2781 63.9024 36.2779 60.8308 36.2787C60.6899 36.2788 60.5697 36.2376 60.4767 36.1318C60.4135 36.0601 60.3766 35.9755 60.3764 35.8789C60.3757 35.5183 60.3731 35.1576 60.3774 34.797C60.3795 34.6318 60.4687 34.5135 60.6161 34.4399C60.6813 34.4073 60.7526 34.397 60.8263 34.397C63.9015 34.3975 66.9768 34.3973 70.0521 34.3975C70.2419 34.3975 70.3832 34.4776 70.466 34.6496C70.4794 34.6775 70.4889 34.7072 70.5002 34.736Z" fill="#F8F9FA"/>
<path d="M70.4994 30.5697V31.7689C70.4906 31.7914 70.4818 31.8139 70.473 31.8364C70.4218 31.966 70.3299 32.0536 70.1933 32.0886C70.1424 32.1015 70.0878 32.1044 70.0348 32.1044C68.0615 32.1052 66.0881 32.105 64.1148 32.105C63.0187 32.105 61.9225 32.1044 60.8263 32.1059C60.7053 32.1061 60.5983 32.0786 60.5094 31.9958C60.4246 31.917 60.3757 31.8206 60.3755 31.704C60.3748 31.3481 60.3757 30.9922 60.375 30.6362C60.3746 30.4286 60.5509 30.2463 60.7499 30.2334C60.7869 30.2311 60.824 30.2285 60.861 30.2285C63.9173 30.2282 66.9737 30.2283 70.03 30.228C70.1407 30.228 70.2452 30.2449 70.3349 30.3151C70.4116 30.3752 70.4649 30.4497 70.4866 30.5452C70.4886 30.5538 70.495 30.5616 70.4994 30.5697Z" fill="#F8F9FA"/>
<path d="M59.5363 31.9864C59.536 32.1839 59.427 32.3359 59.2402 32.4005C59.2059 32.4124 59.168 32.42 59.1318 32.4201C58.5562 32.4213 57.9806 32.423 57.405 32.4196C57.2242 32.4186 57.0538 32.2813 57.0166 32.1041C57.0085 32.0654 57.0037 32.0254 57.0035 31.9859C57.0024 31.7128 57.0029 31.4396 57.0029 31.1665C57.0029 30.8934 57.006 30.6177 57.002 30.3434C56.9991 30.1395 57.1381 29.9776 57.312 29.9306C57.3507 29.9202 57.3922 29.9155 57.4324 29.9155C57.99 29.9145 58.5477 29.9142 59.1053 29.915C59.3092 29.9154 59.4746 30.0436 59.5242 30.2384C59.5332 30.2736 59.536 30.311 59.5361 30.3474C59.5368 30.8937 59.5371 31.4401 59.5363 31.9864Z" fill="#F8F9FA"/>
<path d="M59.5333 27.8201C59.5328 27.984 59.4636 28.1137 59.3165 28.1972C59.2628 28.2277 59.2056 28.2483 59.1428 28.2491C59.0638 28.2502 58.9849 28.2507 58.906 28.2507C58.419 28.2508 57.9321 28.2498 57.4452 28.2515C57.3273 28.2518 57.2228 28.221 57.1364 28.1416C57.0493 28.0618 57.0004 27.9629 57.0004 27.8433C57.0004 27.2805 57.0009 26.7178 57 26.1551C56.9997 25.9863 57.122 25.8301 57.266 25.7777C57.3244 25.7564 57.3827 25.7501 57.4431 25.7501C57.7171 25.75 57.9911 25.7501 58.2651 25.7501V25.7508C58.5521 25.7508 58.8393 25.7486 59.1264 25.7516C59.2893 25.7533 59.4067 25.8342 59.4846 25.9741C59.5201 26.0379 59.5335 26.1068 59.5336 26.178C59.5342 26.7254 59.535 27.2727 59.5333 27.8201Z" fill="#F8F9FA"/>
<path d="M59.5381 36.1586C59.5377 36.344 59.4381 36.497 59.2503 36.567C59.2198 36.5784 59.1853 36.5841 59.1526 36.5841C58.564 36.5851 57.9754 36.5863 57.3868 36.5838C57.2413 36.5832 57.0925 36.4749 57.0332 36.3252C57.0123 36.2723 57.0041 36.2176 57.0043 36.1602C57.0053 35.6105 57.0066 35.0608 57.0039 34.511C57.003 34.3165 57.1223 34.1651 57.2885 34.1073C57.3374 34.0903 57.3933 34.0879 57.4461 34.0875C57.7213 34.0857 57.9964 34.0867 58.2716 34.0867V34.0875C58.5586 34.0875 58.8458 34.0851 59.1329 34.0883C59.2944 34.0902 59.4108 34.1715 59.4886 34.3093C59.5244 34.3726 59.5381 34.4417 59.5381 34.513C59.5387 35.0615 59.5391 35.6101 59.5381 36.1586Z" fill="#F8F9FA"/>
<path d="M156.038 45.25H148.471C148.463 45.2468 148.455 45.2423 148.446 45.2404C148.391 45.2287 148.335 45.2225 148.282 45.2054C148.104 45.1479 147.952 45.0509 147.83 44.9111C147.665 44.7224 147.584 44.5018 147.584 44.2534C147.584 42.9492 147.584 41.645 147.584 40.3407C147.585 40.2142 147.604 40.0902 147.652 39.9717C147.711 39.8264 147.798 39.7002 147.916 39.5954C148.067 39.4609 148.245 39.3793 148.446 39.3505C148.522 39.3397 148.599 39.3403 148.676 39.3393C148.799 39.3376 148.923 39.3388 149.046 39.3388H149.085C149.085 39.3224 149.085 39.3097 149.085 39.297C149.085 38.8121 149.084 38.3273 149.086 37.8425C149.086 37.733 149.098 37.6235 149.107 37.5142C149.119 37.3627 149.148 37.2128 149.193 37.0674C149.232 36.9423 149.273 36.8177 149.319 36.695C149.387 36.5166 149.479 36.35 149.583 36.1898C149.757 35.9211 149.969 35.6846 150.217 35.4793C150.45 35.2862 150.706 35.1297 150.985 35.0085C151.152 34.9364 151.323 34.8809 151.498 34.8357C151.587 34.8129 151.677 34.7955 151.768 34.7824C151.871 34.7675 151.976 34.7536 152.08 34.7511C152.22 34.7478 152.361 34.7525 152.501 34.7585C152.662 34.7654 152.821 34.791 152.978 34.8309C153.052 34.8499 153.128 34.8651 153.201 34.8895C153.314 34.9275 153.428 34.9669 153.537 35.0146C153.769 35.1152 153.985 35.2425 154.185 35.3954C154.435 35.5863 154.653 35.8078 154.836 36.0619C155.002 36.2923 155.135 36.5399 155.233 36.8058C155.29 36.9612 155.334 37.12 155.367 37.2815C155.387 37.3806 155.401 37.4813 155.409 37.5819C155.419 37.6918 155.422 37.8026 155.422 37.913C155.423 38.3749 155.423 38.8369 155.423 39.2988V39.3388C155.438 39.3388 155.449 39.3388 155.46 39.3388C155.561 39.3388 155.663 39.3363 155.764 39.3395C155.877 39.3431 155.991 39.3486 156.105 39.3597C156.192 39.3684 156.274 39.3999 156.352 39.4378C156.555 39.5357 156.71 39.6826 156.813 39.8819C156.878 40.0081 156.917 40.14 156.917 40.2827C156.916 41.6098 156.916 42.937 156.917 44.2641C156.917 44.3898 156.899 44.5096 156.852 44.6264C156.789 44.7847 156.691 44.9182 156.558 45.0254C156.413 45.1428 156.247 45.2182 156.059 45.2407C156.052 45.2416 156.045 45.2468 156.038 45.2499V45.25ZM152.254 39.3449C152.737 39.3449 153.22 39.3449 153.703 39.3449C153.736 39.3449 153.752 39.3294 153.752 39.2984C153.752 38.8365 153.752 38.3747 153.751 37.9128C153.751 37.7917 153.742 37.6715 153.715 37.5525C153.68 37.3949 153.62 37.2473 153.535 37.1102C153.368 36.8416 153.138 36.6437 152.844 36.517C152.707 36.4579 152.564 36.419 152.416 36.4052C152.268 36.3915 152.12 36.3944 151.973 36.4228C151.843 36.4478 151.719 36.4871 151.601 36.544C151.362 36.6588 151.168 36.8244 151.016 37.0399C150.889 37.2221 150.808 37.4235 150.772 37.6407C150.758 37.7245 150.756 37.811 150.756 37.8962C150.754 38.365 150.755 38.8338 150.755 39.3027C150.755 39.3309 150.769 39.3449 150.797 39.345C151.283 39.345 151.768 39.345 152.253 39.345L152.254 39.3449Z" fill="#F8F9FA"/>
<path d="M222.232 61H221.308L223.979 53.7273H224.888L227.558 61H226.635L224.462 54.8778H224.405L222.232 61ZM222.573 58.1591H226.294V58.9403H222.573V58.1591ZM228.578 63.0455V55.5455H229.387V56.4119H229.487C229.548 56.3172 229.633 56.1965 229.742 56.0497C229.854 55.9006 230.012 55.768 230.218 55.652C230.427 55.5336 230.708 55.4744 231.063 55.4744C231.523 55.4744 231.927 55.5893 232.278 55.8189C232.628 56.0485 232.902 56.3741 233.098 56.7955C233.295 57.2169 233.393 57.714 233.393 58.2869C233.393 58.8646 233.295 59.3653 233.098 59.7891C232.902 60.2105 232.629 60.5372 232.281 60.7692C231.933 60.9988 231.532 61.1136 231.078 61.1136C230.727 61.1136 230.447 61.0556 230.236 60.9396C230.025 60.8213 229.863 60.6875 229.749 60.5384C229.636 60.3868 229.548 60.2614 229.487 60.1619H229.416V63.0455H228.578ZM229.401 58.2727C229.401 58.6847 229.462 59.0481 229.583 59.3629C229.703 59.6754 229.88 59.9205 230.112 60.098C230.344 60.2732 230.628 60.3608 230.964 60.3608C231.314 60.3608 231.607 60.2685 231.841 60.0838C232.078 59.8968 232.255 59.6458 232.374 59.331C232.494 59.0137 232.555 58.661 232.555 58.2727C232.555 57.8892 232.496 57.5436 232.377 57.2358C232.261 56.9257 232.085 56.6806 231.848 56.5007C231.614 56.3184 231.319 56.2273 230.964 56.2273C230.623 56.2273 230.337 56.3137 230.105 56.4865C229.873 56.657 229.697 56.8961 229.579 57.2038C229.461 57.5092 229.401 57.8655 229.401 58.2727ZM234.671 63.0455V55.5455H235.481V56.4119H235.58C235.642 56.3172 235.727 56.1965 235.836 56.0497C235.947 55.9006 236.106 55.768 236.312 55.652C236.52 55.5336 236.802 55.4744 237.157 55.4744C237.616 55.4744 238.021 55.5893 238.372 55.8189C238.722 56.0485 238.995 56.3741 239.192 56.7955C239.388 57.2169 239.487 57.714 239.487 58.2869C239.487 58.8646 239.388 59.3653 239.192 59.7891C238.995 60.2105 238.723 60.5372 238.375 60.7692C238.027 60.9988 237.626 61.1136 237.171 61.1136C236.821 61.1136 236.54 61.0556 236.33 60.9396C236.119 60.8213 235.957 60.6875 235.843 60.5384C235.73 60.3868 235.642 60.2614 235.58 60.1619H235.509V63.0455H234.671ZM235.495 58.2727C235.495 58.6847 235.556 59.0481 235.676 59.3629C235.797 59.6754 235.973 59.9205 236.205 60.098C236.437 60.2732 236.722 60.3608 237.058 60.3608C237.408 60.3608 237.7 60.2685 237.935 60.0838C238.172 59.8968 238.349 59.6458 238.468 59.331C238.588 59.0137 238.649 58.661 238.649 58.2727C238.649 57.8892 238.589 57.5436 238.471 57.2358C238.355 56.9257 238.179 56.6806 237.942 56.5007C237.708 56.3184 237.413 56.2273 237.058 56.2273C236.717 56.2273 236.43 56.3137 236.198 56.4865C235.966 56.657 235.791 56.8961 235.673 57.2038C235.554 57.5092 235.495 57.8655 235.495 58.2727ZM241.603 53.7273V61H240.765V53.7273H241.603ZM243.138 61V55.5455H243.976V61H243.138ZM243.564 54.6364C243.401 54.6364 243.26 54.5807 243.142 54.4695C243.026 54.3582 242.968 54.2244 242.968 54.0682C242.968 53.9119 243.026 53.7782 243.142 53.6669C243.26 53.5556 243.401 53.5 243.564 53.5C243.728 53.5 243.867 53.5556 243.983 53.6669C244.102 53.7782 244.161 53.9119 244.161 54.0682C244.161 54.2244 244.102 54.3582 243.983 54.4695C243.867 54.5807 243.728 54.6364 243.564 54.6364ZM247.727 61.1136C247.216 61.1136 246.775 60.9929 246.406 60.7514C246.037 60.5099 245.753 60.1773 245.554 59.7536C245.355 59.3298 245.256 58.8456 245.256 58.3011C245.256 57.7472 245.357 57.2583 245.561 56.8345C245.767 56.4084 246.053 56.0758 246.42 55.8366C246.79 55.5952 247.22 55.4744 247.713 55.4744C248.096 55.4744 248.442 55.5455 248.75 55.6875C249.058 55.8295 249.31 56.0284 249.506 56.2841C249.703 56.5398 249.825 56.8381 249.872 57.179H249.034C248.97 56.9304 248.828 56.7102 248.608 56.5185C248.39 56.3243 248.096 56.2273 247.727 56.2273C247.4 56.2273 247.114 56.3125 246.868 56.483C246.624 56.651 246.433 56.889 246.296 57.1967C246.161 57.5021 246.094 57.8608 246.094 58.2727C246.094 58.6941 246.16 59.0611 246.292 59.3736C246.427 59.6861 246.617 59.9287 246.861 60.1016C247.107 60.2744 247.396 60.3608 247.727 60.3608C247.945 60.3608 248.143 60.3229 248.32 60.2472C248.498 60.1714 248.648 60.0625 248.771 59.9205C248.894 59.7784 248.982 59.608 249.034 59.4091H249.872C249.825 59.7311 249.707 60.0211 249.52 60.2791C249.336 60.5348 249.091 60.7384 248.785 60.8899C248.482 61.0391 248.13 61.1136 247.727 61.1136ZM252.702 61.1278C252.357 61.1278 252.043 61.0627 251.761 60.9325C251.479 60.8 251.256 60.6094 251.09 60.3608C250.924 60.1098 250.841 59.8068 250.841 59.4517C250.841 59.1392 250.903 58.8859 251.026 58.6918C251.149 58.4953 251.314 58.3414 251.52 58.2301C251.726 58.1188 251.953 58.036 252.202 57.9815C252.452 57.9247 252.705 57.8797 252.958 57.8466C253.289 57.804 253.558 57.772 253.764 57.7507C253.972 57.727 254.124 57.688 254.219 57.6335C254.316 57.5791 254.364 57.4844 254.364 57.3494V57.321C254.364 56.9706 254.268 56.6984 254.077 56.5043C253.887 56.3101 253.599 56.2131 253.214 56.2131C252.814 56.2131 252.5 56.3007 252.273 56.4759C252.045 56.651 251.885 56.8381 251.793 57.0369L250.998 56.7528C251.14 56.4214 251.329 56.1634 251.566 55.9787C251.805 55.7917 252.065 55.6615 252.347 55.5881C252.631 55.5123 252.911 55.4744 253.185 55.4744C253.36 55.4744 253.562 55.4957 253.789 55.5384C254.019 55.5786 254.24 55.6626 254.453 55.7905C254.668 55.9183 254.847 56.1113 254.989 56.3693C255.131 56.6274 255.202 56.973 255.202 57.4062V61H254.364V60.2614H254.322C254.265 60.3797 254.17 60.5064 254.037 60.6413C253.905 60.7763 253.729 60.8911 253.508 60.9858C253.288 61.0805 253.019 61.1278 252.702 61.1278ZM252.83 60.375C253.162 60.375 253.441 60.3099 253.668 60.1797C253.898 60.0495 254.071 59.8814 254.187 59.6754C254.305 59.4695 254.364 59.2528 254.364 59.0256V58.2585C254.329 58.3011 254.251 58.3402 254.13 58.3757C254.011 58.4089 253.874 58.4384 253.718 58.4645C253.564 58.4882 253.414 58.5095 253.267 58.5284C253.122 58.545 253.005 58.5592 252.915 58.571C252.698 58.5994 252.494 58.6456 252.305 58.7095C252.117 58.7711 251.966 58.8646 251.85 58.9901C251.736 59.1132 251.68 59.2812 251.68 59.4943C251.68 59.7855 251.787 60.0057 252.003 60.1548C252.22 60.3016 252.496 60.375 252.83 60.375ZM257.57 57.7188V61H256.732V55.5455H257.542V56.3977H257.613C257.74 56.1207 257.935 55.8982 258.195 55.7301C258.455 55.5597 258.792 55.4744 259.203 55.4744C259.573 55.4744 259.896 55.5502 260.173 55.7017C260.45 55.8509 260.665 56.0781 260.819 56.3835C260.973 56.6866 261.05 57.0701 261.05 57.5341V61H260.212V57.5909C260.212 57.1624 260.101 56.8286 259.878 56.5895C259.656 56.348 259.35 56.2273 258.962 56.2273C258.694 56.2273 258.455 56.2853 258.245 56.4013C258.036 56.5173 257.872 56.6866 257.751 56.9091C257.63 57.1316 257.57 57.4015 257.57 57.7188ZM264.954 55.5455V56.2557H262.127V55.5455H264.954ZM262.951 54.2386H263.789V59.4375C263.789 59.6742 263.823 59.8518 263.892 59.9702C263.963 60.0862 264.053 60.1643 264.162 60.2045C264.273 60.2424 264.39 60.2614 264.513 60.2614C264.606 60.2614 264.681 60.2566 264.741 60.2472C264.8 60.2353 264.847 60.2259 264.883 60.2188L265.053 60.9716C264.996 60.9929 264.917 61.0142 264.815 61.0355C264.713 61.0592 264.584 61.071 264.428 61.071C264.191 61.071 263.959 61.0201 263.732 60.9183C263.507 60.8165 263.32 60.6615 263.171 60.4531C263.024 60.2448 262.951 59.982 262.951 59.6648V54.2386Z" fill="#F8F9FA"/>
<g clip-path="url(#clip0_1693_7258)">
<path d="M250.397 37.1022C250.397 38.0656 249.613 38.8574 248.622 38.8574C247.626 38.8574 246.836 38.0604 246.836 37.1022C246.836 36.1441 247.626 35.3471 248.622 35.3471C249.613 35.3471 250.397 36.1389 250.397 37.1022ZM242.597 35.4492C242.597 36.7202 241.568 37.7553 240.265 37.7553C238.957 37.7553 237.922 36.7159 237.922 35.4492C237.922 34.1825 238.957 33.1431 240.265 33.1431C241.568 33.1431 242.597 34.1781 242.597 35.4492ZM243.493 45.092C243.493 44.9598 243.552 44.767 243.838 44.5066C244.13 44.2405 244.583 43.9792 245.161 43.7503C246.319 43.292 247.726 43.0614 248.622 43.0614C249.518 43.0614 250.925 43.292 252.083 43.7503C252.661 43.9792 253.114 44.2405 253.406 44.5066C253.691 44.767 253.751 44.9598 253.751 45.092V46.5716H243.493V45.092ZM233.465 44.8165C233.465 44.5463 233.594 44.233 233.992 43.8694C234.397 43.5 235.007 43.1527 235.759 42.8549C237.265 42.2589 239.09 41.9594 240.265 41.9594C240.323 41.9594 240.383 41.9602 240.445 41.9618C240.209 42.2409 240.015 42.5264 239.857 42.8135C239.383 43.6744 239.265 44.4928 239.265 45.092V46.5716H233.465V44.8165Z" stroke="#F8F9FA" stroke-width="2"/>
</g>
<defs>
<clipPath id="clip0_1693_7258">
<rect width="24" height="24" fill="white" transform="translate(230.75 27)"/>
</clipPath>
</defs>
</svg>
