<svg width="320" height="81" viewBox="0 0 320 81" fill="none" xmlns="http://www.w3.org/2000/svg">
<line x1="73.75" y1="39" x2="141.75" y2="39" stroke="#F8F9FA" stroke-width="2" stroke-linecap="round" stroke-dasharray="4 4"/>
<line x1="74.977" y1="20.2969" x2="143.047" y2="38.773" stroke="#F8F9FA" stroke-width="2" stroke-linecap="round" stroke-dasharray="4 4"/>
<line x1="74.4042" y1="59.7462" x2="142.496" y2="38.3458" stroke="#F8F9FA" stroke-width="2" stroke-linecap="round" stroke-dasharray="4 4"/>
<line x1="73.75" y1="39" x2="141.75" y2="39" stroke="#F8F9FA" stroke-width="2" stroke-linecap="round" stroke-dasharray="4 4"/>
<line x1="162.75" y1="39" x2="230.75" y2="39" stroke="#F8F9FA" stroke-width="2" stroke-linecap="round" stroke-dasharray="4 4"/>
<circle cx="152.75" cy="39" r="9" stroke="#F8F9FA" stroke-width="2"/>
<path d="M159.479 20.6765C159.419 20.5203 159.31 20.4417 159.158 20.433C159.142 20.432 159.125 20.4326 159.108 20.4326H153.325C153.251 20.4326 153.26 20.4378 153.26 20.3594C153.26 20.0921 153.26 19.8249 153.26 19.5577V19.499H153.307C153.803 19.499 154.298 19.4999 154.794 19.4986C154.98 19.4981 155.135 19.4148 155.264 19.2682C155.348 19.1731 155.403 19.0601 155.433 18.9324C155.444 18.8894 155.45 18.844 155.45 18.7997C155.451 17.7667 155.453 16.7336 155.449 15.7006C155.449 15.4978 155.363 15.3295 155.229 15.1933C155.137 15.0993 155.03 15.034 154.904 15.0148C154.855 15.0073 154.805 15.0008 154.755 15.0008C153.414 15 152.072 15.0004 150.73 15C150.49 14.9999 150.304 15.114 150.167 15.3278C150.113 15.4116 150.074 15.5048 150.063 15.6092C150.058 15.6588 150.051 15.7087 150.051 15.7584C150.05 16.7582 150.05 17.7579 150.051 18.7578C150.052 19.0299 150.164 19.2366 150.368 19.3849C150.477 19.4646 150.597 19.4996 150.728 19.4994C151.216 19.4984 151.704 19.499 152.193 19.499H152.239C152.239 19.5191 152.241 19.5359 152.241 19.5527C152.241 19.8267 152.241 20.1005 152.241 20.3744C152.241 20.4324 152.241 20.4325 152.187 20.4325C150.249 20.4325 148.311 20.4327 146.373 20.4321C146.247 20.432 146.14 20.4739 146.065 20.5909C146.042 20.6264 146.03 20.6707 146.013 20.7107C146.01 20.7171 146.004 20.722 146 20.7276V21.2717C146.007 21.2888 146.014 21.3058 146.02 21.3229C146.081 21.4792 146.19 21.5576 146.341 21.5654C146.357 21.5662 146.373 21.5656 146.388 21.5656H148.473C148.508 21.5656 148.526 21.5852 148.526 21.6242C148.526 21.8978 148.526 22.1714 148.526 22.445C148.526 22.4619 148.524 22.4787 148.524 22.4993H148.475C148.1 22.4993 147.725 22.4999 147.351 22.499C147.111 22.4985 146.925 22.6119 146.786 22.8257C146.732 22.9097 146.693 23.0025 146.682 23.1067C146.676 23.1629 146.67 23.2196 146.67 23.2759C146.669 24.2733 146.668 25.2706 146.67 26.2679C146.671 26.5349 146.785 26.7379 146.985 26.8839C147.097 26.9654 147.219 26.9997 147.352 26.9996C148.477 26.9988 149.603 26.9999 150.728 26.9985C150.974 26.9982 151.16 26.8726 151.293 26.6466C151.365 26.5262 151.396 26.3945 151.396 26.251C151.396 25.2496 151.397 24.2483 151.396 23.247C151.396 22.9714 151.284 22.7625 151.078 22.6125C151.007 22.5613 150.932 22.5253 150.848 22.5138C150.8 22.5073 150.751 22.5002 150.703 22.5C150.332 22.4989 149.961 22.4994 149.589 22.4994H149.544C149.543 22.4814 149.542 22.4673 149.542 22.4532C149.542 22.1738 149.543 21.8946 149.541 21.6154C149.541 21.5747 149.552 21.564 149.588 21.564C151.694 21.5649 153.8 21.5648 155.906 21.5641C155.939 21.5641 155.952 21.5731 155.952 21.6126C155.95 21.8933 155.951 22.1738 155.951 22.4544C155.951 22.4674 155.95 22.4805 155.949 22.4994H155.906C155.53 22.4994 155.154 22.4998 154.778 22.4992C154.539 22.4988 154.354 22.6111 154.216 22.8237C154.161 22.9089 154.122 23.0024 154.11 23.1081C154.105 23.159 154.098 23.2103 154.098 23.2614C154.097 24.2613 154.096 25.2613 154.098 26.2613C154.099 26.5319 154.212 26.7372 154.415 26.8847C154.524 26.9646 154.644 26.9996 154.774 26.9995C155.901 26.999 157.028 26.998 158.155 27C158.452 27.0005 158.708 26.7738 158.793 26.4833C158.813 26.4142 158.823 26.3384 158.823 26.2657C158.825 25.255 158.826 24.2444 158.824 23.2338C158.823 22.9649 158.709 22.7609 158.508 22.6142C158.397 22.5335 158.276 22.4986 158.145 22.499C157.77 22.5001 157.395 22.4994 157.02 22.4994H156.973C156.972 22.481 156.97 22.4644 156.97 22.4478C156.97 22.1725 156.97 21.8973 156.97 21.6221C156.97 21.584 156.987 21.5649 157.021 21.5648C157.726 21.5648 158.431 21.5646 159.137 21.565C159.259 21.565 159.363 21.5203 159.436 21.4073C159.458 21.3717 159.47 21.3275 159.487 21.2874C159.49 21.281 159.496 21.2761 159.5 21.2705V20.7279C159.493 20.7109 159.486 20.6939 159.48 20.6768L159.479 20.6765ZM150.05 23.9993V25.4914H148.032V23.9993H150.05ZM151.407 17.999V16.5069H154.1V17.999H151.407ZM157.475 23.9993V25.4914H155.457V23.9993H157.475Z" fill="#F8F9FA"/>
<path d="M135.984 17.8124C135.974 17.7185 135.957 17.6245 135.935 17.5325C135.897 17.3777 135.837 17.2299 135.762 17.0882C135.655 16.8885 135.519 16.7092 135.354 16.551C135.173 16.3776 134.969 16.2356 134.736 16.1364C134.603 16.0799 134.464 16.0348 134.325 15.9974C134.225 15.9706 134.12 15.9659 134.017 15.9505C133.849 15.9251 133.68 15.9377 133.513 15.9577C133.332 15.9794 133.157 16.0255 132.989 16.0921C132.743 16.1895 132.52 16.3243 132.326 16.5C132.034 16.7646 131.827 17.0808 131.714 17.4534C131.659 17.6307 131.628 17.8113 131.625 17.9942C131.622 18.1333 131.637 18.2742 131.661 18.4117C131.684 18.5405 131.719 18.669 131.764 18.792C131.854 19.0336 131.991 19.2506 132.168 19.4423C132.425 19.7217 132.736 19.9266 133.105 20.0457C133.165 20.0652 133.193 20.1056 133.187 20.167C133.187 20.1697 133.187 20.1724 133.187 20.175C133.18 20.3565 133.146 20.5332 133.085 20.7053C133.004 20.9365 132.862 21.1229 132.651 21.2602C132.502 21.3579 132.339 21.4294 132.166 21.4781C132.054 21.5097 131.941 21.5415 131.827 21.5667C131.733 21.5874 131.637 21.5996 131.541 21.6138C131.423 21.6312 131.306 21.6494 131.188 21.6624C131.027 21.6801 130.866 21.6932 130.705 21.7083C130.529 21.7248 130.353 21.741 130.178 21.7579C130.077 21.7676 129.976 21.7764 129.875 21.7892C129.76 21.8038 129.646 21.8216 129.531 21.8393C129.439 21.8535 129.347 21.866 129.256 21.8854C129.133 21.9118 129.009 21.9408 128.888 21.9749C128.77 22.0078 128.655 22.047 128.539 22.0867C128.476 22.1084 128.415 22.1366 128.347 22.1644V22.1064C128.347 20.8831 128.347 19.6598 128.347 18.4365C128.347 18.426 128.348 18.4153 128.347 18.4048C128.345 18.3827 128.355 18.373 128.377 18.3652C128.442 18.3424 128.507 18.3174 128.57 18.2911C128.902 18.1546 129.176 17.9469 129.401 17.6764C129.589 17.4492 129.728 17.1966 129.799 16.9131C129.829 16.7971 129.855 16.6793 129.868 16.5608C129.89 16.3684 129.878 16.1761 129.842 15.9848C129.814 15.8342 129.771 15.6882 129.71 15.5476C129.649 15.4074 129.572 15.2753 129.481 15.1504C129.215 14.7863 128.863 14.5305 128.433 14.3753C128.25 14.3095 128.059 14.2716 127.865 14.2572C127.653 14.2416 127.439 14.2496 127.232 14.298C127.092 14.3305 126.955 14.3753 126.822 14.4275C126.491 14.5575 126.218 14.7644 125.992 15.0302C125.832 15.2194 125.71 15.4297 125.626 15.661C125.574 15.802 125.537 15.9459 125.518 16.0932C125.492 16.2905 125.493 16.4879 125.528 16.6856C125.551 16.8158 125.583 16.9423 125.628 17.067C125.711 17.3027 125.838 17.5152 126.002 17.7059C126.263 18.0085 126.587 18.2257 126.972 18.3549C127.017 18.37 127.032 18.3877 127.032 18.4342C127.03 20.1447 127.031 21.8552 127.031 23.5657C127.031 23.5736 127.03 23.5816 127.031 23.5895C127.033 23.6155 127.024 23.6283 126.996 23.6376C126.923 23.6616 126.85 23.6875 126.78 23.7192C126.481 23.8544 126.223 24.0416 126.011 24.287C125.799 24.5334 125.65 24.8106 125.569 25.1225C125.534 25.2563 125.511 25.3913 125.503 25.5281C125.49 25.7629 125.518 25.9938 125.585 26.2206C125.647 26.4304 125.74 26.6257 125.865 26.8069C126.013 27.0206 126.195 27.2019 126.41 27.3529C126.576 27.469 126.755 27.5607 126.947 27.6276C127.11 27.6844 127.279 27.7254 127.453 27.7375C127.469 27.7386 127.484 27.7457 127.5 27.75H127.879C127.895 27.7457 127.91 27.7389 127.926 27.7375C128.109 27.722 128.285 27.6778 128.458 27.6165C128.743 27.5151 128.994 27.3614 129.211 27.158C129.463 26.9213 129.648 26.6431 129.761 26.3195C129.815 26.1662 129.851 26.0104 129.868 25.8509C129.885 25.6904 129.881 25.5294 129.859 25.3681C129.838 25.2174 129.802 25.0712 129.751 24.9287C129.686 24.7521 129.598 24.586 129.486 24.4336C129.257 24.1237 128.967 23.8832 128.605 23.7265C128.565 23.7092 128.525 23.6908 128.473 23.6672C128.534 23.6006 128.585 23.538 128.644 23.483C128.759 23.3753 128.9 23.3072 129.048 23.2551C129.14 23.223 129.235 23.1975 129.329 23.1721C129.392 23.1551 129.456 23.142 129.52 23.1297C129.614 23.1118 129.707 23.0931 129.802 23.08C129.935 23.0618 130.068 23.048 130.201 23.0332C130.309 23.0212 130.416 23.01 130.524 22.9997C130.607 22.9916 130.691 22.9861 130.774 22.9783C130.887 22.9677 131 22.9563 131.113 22.9446C131.254 22.93 131.396 22.919 131.537 22.8987C131.714 22.8733 131.89 22.8425 132.066 22.8092C132.191 22.7855 132.318 22.7619 132.44 22.7241C132.615 22.6697 132.788 22.6064 132.959 22.5396C133.169 22.4576 133.36 22.3426 133.538 22.2074C133.757 22.0408 133.94 21.8436 134.088 21.6148C134.215 21.42 134.31 21.2128 134.375 20.9931C134.416 20.8541 134.449 20.712 134.471 20.5692C134.495 20.4153 134.504 20.259 134.514 20.1034C134.516 20.0627 134.528 20.0415 134.567 20.0303C134.59 20.0234 134.613 20.0147 134.635 20.0059C134.968 19.8764 135.248 19.6768 135.481 19.4146C135.721 19.1432 135.879 18.8307 135.955 18.4821C135.982 18.36 135.992 18.2338 135.999 18.1089C136.003 18.0104 135.995 17.9107 135.984 17.8124ZM127.687 26.0634C127.443 26.0619 127.251 25.8787 127.251 25.6412C127.251 25.4138 127.447 25.2248 127.688 25.2243C127.921 25.2239 128.13 25.4197 128.118 25.6443C128.128 25.8675 127.928 26.0648 127.687 26.0634ZM127.685 16.7841C127.446 16.782 127.251 16.5949 127.251 16.3682C127.251 16.1295 127.442 15.9472 127.686 15.9454C127.929 15.9435 128.128 16.1408 128.118 16.3638C128.13 16.5902 127.92 16.7863 127.685 16.7841ZM133.809 18.4688C133.572 18.478 133.372 18.2705 133.375 18.0487C133.378 17.8231 133.572 17.6313 133.813 17.6317C134.05 17.6321 134.245 17.8238 134.245 18.0536C134.245 18.2797 134.045 18.4771 133.809 18.4688Z" fill="#F8F9FA"/>
<path d="M70.5002 55.3966V56.6029C70.4912 56.6249 70.4812 56.6467 70.4733 56.6692C70.4213 56.8163 70.266 56.9304 70.1068 56.9377C70.0865 56.9387 70.0661 56.9387 70.0457 56.9387C66.974 56.9387 63.9024 56.9385 60.8308 56.9394C60.6899 56.9394 60.5698 56.8982 60.4767 56.7925C60.4135 56.7206 60.3766 56.6361 60.3764 56.5395C60.3757 56.1789 60.3731 55.8182 60.3774 55.4576C60.3795 55.2924 60.4687 55.1741 60.6161 55.1004C60.6813 55.0679 60.7526 55.0576 60.8262 55.0576C63.9015 55.0581 66.9768 55.058 70.0521 55.0582C70.2419 55.0582 70.3832 55.1382 70.466 55.3103C70.4794 55.3381 70.4889 55.3678 70.5002 55.3966Z" fill="#F8F9FA"/>
<path d="M70.5002 63.736V64.9423C70.4912 64.9644 70.4812 64.9861 70.4733 65.0085C70.4213 65.1556 70.266 65.2698 70.1068 65.2771C70.0865 65.2781 70.0661 65.2781 70.0457 65.2781C66.974 65.2781 63.9024 65.2779 60.8308 65.2787C60.6899 65.2788 60.5697 65.2376 60.4767 65.1318C60.4135 65.0601 60.3766 64.9755 60.3764 64.8789C60.3757 64.5183 60.3731 64.1576 60.3774 63.797C60.3795 63.6318 60.4687 63.5135 60.6161 63.4399C60.6813 63.4073 60.7526 63.397 60.8263 63.397C63.9015 63.3975 66.9768 63.3973 70.0521 63.3975C70.2419 63.3975 70.3832 63.4776 70.466 63.6496C70.4794 63.6775 70.4889 63.7072 70.5002 63.736Z" fill="#F8F9FA"/>
<path d="M70.4994 59.5697V60.7689C70.4906 60.7914 70.4818 60.8139 70.473 60.8364C70.4218 60.966 70.3299 61.0536 70.1933 61.0886C70.1424 61.1015 70.0878 61.1044 70.0348 61.1044C68.0615 61.1052 66.0881 61.105 64.1148 61.105C63.0187 61.105 61.9225 61.1044 60.8263 61.1059C60.7053 61.1061 60.5983 61.0786 60.5094 60.9958C60.4246 60.917 60.3757 60.8206 60.3755 60.704C60.3748 60.3481 60.3757 59.9922 60.375 59.6362C60.3746 59.4286 60.5509 59.2463 60.7499 59.2334C60.7869 59.2311 60.824 59.2285 60.861 59.2285C63.9173 59.2282 66.9737 59.2283 70.03 59.228C70.1407 59.228 70.2452 59.2449 70.3349 59.3151C70.4116 59.3752 70.4649 59.4497 70.4866 59.5452C70.4886 59.5538 70.495 59.5616 70.4994 59.5697Z" fill="#F8F9FA"/>
<path d="M59.5353 60.9864C59.535 61.1839 59.4261 61.3359 59.2393 61.4005C59.2049 61.4124 59.167 61.42 59.1308 61.4201C58.5552 61.4213 57.9796 61.423 57.404 61.4196C57.2232 61.4186 57.0528 61.2813 57.0156 61.1041C57.0075 61.0654 57.0027 61.0254 57.0025 60.9859C57.0015 60.7128 57.002 60.4396 57.002 60.1665C57.002 59.8934 57.005 59.6177 57.001 59.3434C56.9981 59.1395 57.1371 58.9776 57.311 58.9306C57.3497 58.9202 57.3912 58.9155 57.4314 58.9155C57.9891 58.9145 58.5467 58.9142 59.1043 58.915C59.3082 58.9154 59.4736 59.0436 59.5232 59.2384C59.5322 59.2736 59.535 59.311 59.5351 59.3474C59.5358 59.8937 59.5361 60.4401 59.5353 60.9864Z" fill="#F8F9FA"/>
<path d="M59.5333 56.8201C59.5328 56.984 59.4636 57.1137 59.3165 57.1972C59.2628 57.2277 59.2056 57.2483 59.1428 57.2491C59.0638 57.2502 58.9849 57.2507 58.906 57.2507C58.419 57.2508 57.9321 57.2498 57.4452 57.2515C57.3273 57.2518 57.2228 57.221 57.1364 57.1416C57.0493 57.0618 57.0004 56.9629 57.0004 56.8433C57.0004 56.2805 57.0009 55.7178 57 55.1551C56.9997 54.9863 57.122 54.8301 57.266 54.7777C57.3244 54.7564 57.3827 54.7501 57.4431 54.7501C57.7171 54.75 57.9911 54.7501 58.2651 54.7501V54.7508C58.5521 54.7508 58.8393 54.7486 59.1264 54.7516C59.2893 54.7533 59.4067 54.8342 59.4846 54.9741C59.5201 55.0379 59.5335 55.1068 59.5336 55.178C59.5342 55.7254 59.535 56.2727 59.5333 56.8201Z" fill="#F8F9FA"/>
<path d="M59.5381 65.1586C59.5377 65.344 59.4381 65.497 59.2503 65.567C59.2198 65.5784 59.1853 65.5841 59.1526 65.5841C58.564 65.5851 57.9754 65.5863 57.3868 65.5838C57.2413 65.5832 57.0925 65.4749 57.0332 65.3252C57.0123 65.2723 57.0041 65.2176 57.0043 65.1602C57.0053 64.6105 57.0066 64.0608 57.0039 63.511C57.003 63.3165 57.1223 63.1651 57.2885 63.1073C57.3374 63.0903 57.3933 63.0879 57.4461 63.0875C57.7213 63.0857 57.9964 63.0867 58.2716 63.0867V63.0875C58.5586 63.0875 58.8458 63.0851 59.1329 63.0883C59.2944 63.0902 59.4108 63.1715 59.4886 63.3093C59.5244 63.3726 59.5381 63.4417 59.5381 63.513C59.5387 64.0615 59.5391 64.6101 59.5381 65.1586Z" fill="#F8F9FA"/>
<path d="M70.5002 34.3966V35.6029C70.4912 35.6249 70.4812 35.6467 70.4733 35.6692C70.4213 35.8163 70.266 35.9304 70.1068 35.9377C70.0865 35.9387 70.0661 35.9387 70.0457 35.9387C66.974 35.9387 63.9024 35.9385 60.8308 35.9394C60.6899 35.9394 60.5698 35.8982 60.4767 35.7925C60.4135 35.7206 60.3766 35.6361 60.3764 35.5395C60.3757 35.1789 60.3731 34.8182 60.3774 34.4576C60.3795 34.2924 60.4687 34.1741 60.6161 34.1004C60.6813 34.0679 60.7526 34.0576 60.8262 34.0576C63.9015 34.0581 66.9768 34.058 70.0521 34.0582C70.2419 34.0582 70.3832 34.1382 70.466 34.3103C70.4794 34.3381 70.4889 34.3678 70.5002 34.3966Z" fill="#F8F9FA"/>
<path d="M70.5002 42.736V43.9423C70.4912 43.9644 70.4812 43.9861 70.4733 44.0085C70.4213 44.1556 70.266 44.2698 70.1068 44.2771C70.0865 44.2781 70.0661 44.2781 70.0457 44.2781C66.974 44.2781 63.9024 44.2779 60.8308 44.2787C60.6899 44.2788 60.5697 44.2376 60.4767 44.1318C60.4135 44.0601 60.3766 43.9755 60.3764 43.8789C60.3757 43.5183 60.3731 43.1576 60.3774 42.797C60.3795 42.6318 60.4687 42.5135 60.6161 42.4399C60.6813 42.4073 60.7526 42.397 60.8263 42.397C63.9015 42.3975 66.9768 42.3973 70.0521 42.3975C70.2419 42.3975 70.3832 42.4776 70.466 42.6496C70.4794 42.6775 70.4889 42.7072 70.5002 42.736Z" fill="#F8F9FA"/>
<path d="M70.4994 38.5697V39.7689C70.4906 39.7914 70.4818 39.8139 70.473 39.8364C70.4218 39.966 70.3299 40.0536 70.1933 40.0886C70.1424 40.1015 70.0878 40.1044 70.0348 40.1044C68.0615 40.1052 66.0881 40.105 64.1148 40.105C63.0187 40.105 61.9225 40.1044 60.8263 40.1059C60.7053 40.1061 60.5983 40.0786 60.5094 39.9958C60.4246 39.917 60.3757 39.8206 60.3755 39.704C60.3748 39.3481 60.3757 38.9922 60.375 38.6362C60.3746 38.4286 60.5509 38.2463 60.7499 38.2334C60.7869 38.2311 60.824 38.2285 60.861 38.2285C63.9173 38.2282 66.9737 38.2283 70.03 38.228C70.1407 38.228 70.2452 38.2449 70.3349 38.3151C70.4116 38.3752 70.4649 38.4497 70.4866 38.5452C70.4886 38.5538 70.495 38.5616 70.4994 38.5697Z" fill="#F8F9FA"/>
<path d="M59.5353 39.9864C59.535 40.1839 59.4261 40.3359 59.2393 40.4005C59.2049 40.4124 59.167 40.42 59.1308 40.4201C58.5552 40.4213 57.9796 40.423 57.404 40.4196C57.2232 40.4186 57.0528 40.2813 57.0156 40.1041C57.0075 40.0654 57.0027 40.0254 57.0025 39.9859C57.0015 39.7128 57.002 39.4396 57.002 39.1665C57.002 38.8934 57.005 38.6177 57.001 38.3434C56.9981 38.1395 57.1371 37.9776 57.311 37.9306C57.3497 37.9202 57.3912 37.9155 57.4314 37.9155C57.9891 37.9145 58.5467 37.9142 59.1043 37.915C59.3082 37.9154 59.4736 38.0436 59.5232 38.2384C59.5322 38.2736 59.535 38.311 59.5351 38.3474C59.5358 38.8937 59.5361 39.4401 59.5353 39.9864Z" fill="#F8F9FA"/>
<path d="M59.5333 35.8201C59.5328 35.984 59.4636 36.1137 59.3165 36.1972C59.2628 36.2277 59.2056 36.2483 59.1428 36.2491C59.0638 36.2502 58.9849 36.2507 58.906 36.2507C58.419 36.2508 57.9321 36.2498 57.4452 36.2515C57.3273 36.2518 57.2228 36.221 57.1364 36.1416C57.0493 36.0618 57.0004 35.9629 57.0004 35.8433C57.0004 35.2805 57.0009 34.7178 57 34.1551C56.9997 33.9863 57.122 33.8301 57.266 33.7777C57.3244 33.7564 57.3827 33.7501 57.4431 33.7501C57.7171 33.75 57.9911 33.7501 58.2651 33.7501V33.7508C58.5521 33.7508 58.8393 33.7486 59.1264 33.7516C59.2893 33.7533 59.4067 33.8342 59.4846 33.9741C59.5201 34.0379 59.5335 34.1068 59.5336 34.178C59.5342 34.7254 59.535 35.2727 59.5333 35.8201Z" fill="#F8F9FA"/>
<path d="M59.5381 44.1586C59.5377 44.344 59.4381 44.497 59.2503 44.567C59.2198 44.5784 59.1853 44.5841 59.1526 44.5841C58.564 44.5851 57.9754 44.5863 57.3868 44.5838C57.2413 44.5832 57.0925 44.4749 57.0332 44.3252C57.0123 44.2723 57.0041 44.2176 57.0043 44.1602C57.0053 43.6105 57.0066 43.0608 57.0039 42.511C57.003 42.3165 57.1223 42.1651 57.2885 42.1073C57.3374 42.0903 57.3933 42.0879 57.4461 42.0875C57.7213 42.0857 57.9964 42.0867 58.2716 42.0867V42.0875C58.5586 42.0875 58.8458 42.0851 59.1329 42.0883C59.2944 42.0902 59.4108 42.1715 59.4886 42.3093C59.5244 42.3726 59.5381 42.4417 59.5381 42.513C59.5387 43.0615 59.5391 43.6101 59.5381 44.1586Z" fill="#F8F9FA"/>
<path d="M70.5002 16.3966V17.6029C70.4912 17.6249 70.4812 17.6467 70.4733 17.6692C70.4213 17.8163 70.266 17.9304 70.1068 17.9377C70.0865 17.9387 70.0661 17.9387 70.0457 17.9387C66.974 17.9387 63.9024 17.9385 60.8308 17.9394C60.6899 17.9394 60.5698 17.8982 60.4767 17.7925C60.4135 17.7206 60.3766 17.6361 60.3764 17.5395C60.3757 17.1789 60.3731 16.8182 60.3774 16.4576C60.3795 16.2924 60.4687 16.1741 60.6161 16.1004C60.6813 16.0679 60.7526 16.0576 60.8262 16.0576C63.9015 16.0581 66.9768 16.058 70.0521 16.0582C70.2419 16.0582 70.3832 16.1382 70.466 16.3103C70.4794 16.3381 70.4889 16.3678 70.5002 16.3966Z" fill="#F8F9FA"/>
<path d="M70.5002 24.736V25.9423C70.4912 25.9644 70.4812 25.9861 70.4733 26.0085C70.4213 26.1556 70.266 26.2698 70.1068 26.2771C70.0865 26.2781 70.0661 26.2781 70.0457 26.2781C66.974 26.2781 63.9024 26.2779 60.8308 26.2787C60.6899 26.2788 60.5697 26.2376 60.4767 26.1318C60.4135 26.0601 60.3766 25.9755 60.3764 25.8789C60.3757 25.5183 60.3731 25.1576 60.3774 24.797C60.3795 24.6318 60.4687 24.5135 60.6161 24.4399C60.6813 24.4073 60.7526 24.397 60.8263 24.397C63.9015 24.3975 66.9768 24.3973 70.0521 24.3975C70.2419 24.3975 70.3832 24.4776 70.466 24.6496C70.4794 24.6775 70.4889 24.7072 70.5002 24.736Z" fill="#F8F9FA"/>
<path d="M70.4994 20.5697V21.7689C70.4906 21.7914 70.4818 21.8139 70.473 21.8364C70.4218 21.966 70.3299 22.0536 70.1933 22.0886C70.1424 22.1015 70.0878 22.1044 70.0348 22.1044C68.0615 22.1052 66.0881 22.105 64.1148 22.105C63.0187 22.105 61.9225 22.1044 60.8263 22.1059C60.7053 22.1061 60.5983 22.0786 60.5094 21.9958C60.4246 21.917 60.3757 21.8206 60.3755 21.704C60.3748 21.3481 60.3757 20.9922 60.375 20.6362C60.3746 20.4286 60.5509 20.2463 60.7499 20.2334C60.7869 20.2311 60.824 20.2285 60.861 20.2285C63.9173 20.2282 66.9737 20.2283 70.03 20.228C70.1407 20.228 70.2452 20.2449 70.3349 20.3151C70.4116 20.3752 70.4649 20.4497 70.4866 20.5452C70.4886 20.5538 70.495 20.5616 70.4994 20.5697Z" fill="#F8F9FA"/>
<path d="M59.5353 21.9864C59.535 22.1839 59.4261 22.3359 59.2393 22.4005C59.2049 22.4124 59.167 22.42 59.1308 22.4201C58.5552 22.4213 57.9796 22.423 57.404 22.4196C57.2232 22.4186 57.0528 22.2813 57.0156 22.1041C57.0075 22.0654 57.0027 22.0254 57.0025 21.9859C57.0015 21.7128 57.002 21.4396 57.002 21.1665C57.002 20.8934 57.005 20.6177 57.001 20.3434C56.9981 20.1395 57.1371 19.9776 57.311 19.9306C57.3497 19.9202 57.3912 19.9155 57.4314 19.9155C57.9891 19.9145 58.5467 19.9142 59.1043 19.915C59.3082 19.9154 59.4736 20.0436 59.5232 20.2384C59.5322 20.2736 59.535 20.311 59.5351 20.3474C59.5358 20.8937 59.5361 21.4401 59.5353 21.9864Z" fill="#F8F9FA"/>
<path d="M59.5333 17.8201C59.5328 17.984 59.4636 18.1137 59.3165 18.1972C59.2628 18.2277 59.2056 18.2483 59.1428 18.2491C59.0638 18.2502 58.9849 18.2507 58.906 18.2507C58.419 18.2508 57.9321 18.2498 57.4452 18.2515C57.3273 18.2518 57.2228 18.221 57.1364 18.1416C57.0493 18.0618 57.0004 17.9629 57.0004 17.8433C57.0004 17.2805 57.0009 16.7178 57 16.1551C56.9997 15.9863 57.122 15.8301 57.266 15.7777C57.3244 15.7564 57.3827 15.7501 57.4431 15.7501C57.7171 15.75 57.9911 15.7501 58.2651 15.7501V15.7508C58.5521 15.7508 58.8393 15.7486 59.1264 15.7516C59.2893 15.7533 59.4067 15.8342 59.4846 15.9741C59.5201 16.0379 59.5335 16.1068 59.5336 16.178C59.5342 16.7254 59.535 17.2727 59.5333 17.8201Z" fill="#F8F9FA"/>
<path d="M59.5381 26.1586C59.5377 26.344 59.4381 26.497 59.2503 26.567C59.2198 26.5784 59.1853 26.5841 59.1526 26.5841C58.564 26.5851 57.9754 26.5863 57.3868 26.5838C57.2413 26.5832 57.0925 26.4749 57.0332 26.3252C57.0123 26.2723 57.0041 26.2176 57.0043 26.1602C57.0053 25.6105 57.0066 25.0608 57.0039 24.511C57.003 24.3165 57.1223 24.1651 57.2885 24.1073C57.3374 24.0903 57.3933 24.0879 57.4461 24.0875C57.7213 24.0857 57.9964 24.0867 58.2716 24.0867V24.0875C58.5586 24.0875 58.8458 24.0851 59.1329 24.0883C59.2944 24.0902 59.4108 24.1715 59.4886 24.3093C59.5244 24.3726 59.5381 24.4417 59.5381 24.513C59.5387 25.0615 59.5391 25.6101 59.5381 26.1586Z" fill="#F8F9FA"/>
<path d="M156.537 43.25H148.97C148.962 43.2468 148.954 43.2423 148.945 43.2404C148.89 43.2287 148.834 43.2225 148.781 43.2054C148.603 43.1479 148.451 43.0509 148.329 42.9111C148.164 42.7224 148.083 42.5018 148.083 42.2534C148.083 40.9492 148.083 39.645 148.083 38.3407C148.084 38.2142 148.103 38.0902 148.151 37.9717C148.21 37.8264 148.297 37.7002 148.415 37.5954C148.566 37.4609 148.744 37.3793 148.945 37.3505C149.021 37.3397 149.098 37.3403 149.175 37.3393C149.298 37.3376 149.422 37.3388 149.545 37.3388H149.584C149.584 37.3224 149.584 37.3097 149.584 37.297C149.584 36.8121 149.583 36.3273 149.585 35.8425C149.585 35.733 149.597 35.6235 149.606 35.5142C149.618 35.3627 149.647 35.2128 149.692 35.0674C149.731 34.9423 149.772 34.8177 149.818 34.695C149.886 34.5166 149.978 34.35 150.082 34.1898C150.256 33.9211 150.468 33.6846 150.716 33.4793C150.949 33.2862 151.205 33.1297 151.485 33.0085C151.651 32.9364 151.822 32.8809 151.997 32.8357C152.086 32.8129 152.176 32.7955 152.267 32.7824C152.37 32.7675 152.475 32.7536 152.579 32.7511C152.719 32.7478 152.86 32.7525 153 32.7585C153.162 32.7654 153.32 32.791 153.477 32.8309C153.551 32.8499 153.627 32.8651 153.7 32.8895C153.814 32.9275 153.927 32.9669 154.036 33.0146C154.268 33.1152 154.484 33.2425 154.684 33.3954C154.934 33.5863 155.152 33.8078 155.335 34.0619C155.501 34.2923 155.634 34.5399 155.732 34.8058C155.789 34.9612 155.833 35.12 155.866 35.2815C155.886 35.3806 155.9 35.4813 155.908 35.5819C155.918 35.6918 155.921 35.8026 155.921 35.913C155.922 36.3749 155.922 36.8369 155.922 37.2988V37.3388C155.937 37.3388 155.948 37.3388 155.959 37.3388C156.06 37.3388 156.162 37.3363 156.263 37.3395C156.376 37.3431 156.49 37.3486 156.604 37.3597C156.691 37.3684 156.773 37.3999 156.851 37.4378C157.054 37.5357 157.209 37.6826 157.312 37.8819C157.377 38.0081 157.416 38.14 157.416 38.2827C157.415 39.6098 157.415 40.937 157.416 42.2641C157.416 42.3898 157.398 42.5096 157.351 42.6264C157.288 42.7847 157.19 42.9182 157.057 43.0254C156.912 43.1428 156.746 43.2182 156.558 43.2407C156.551 43.2416 156.544 43.2468 156.537 43.2499V43.25ZM152.753 37.3449C153.236 37.3449 153.719 37.3449 154.202 37.3449C154.235 37.3449 154.251 37.3294 154.251 37.2984C154.251 36.8365 154.251 36.3747 154.25 35.9128C154.25 35.7917 154.241 35.6715 154.214 35.5525C154.179 35.3949 154.119 35.2473 154.034 35.1102C153.867 34.8416 153.637 34.6437 153.343 34.517C153.206 34.4579 153.063 34.419 152.915 34.4052C152.767 34.3915 152.619 34.3944 152.472 34.4228C152.342 34.4478 152.218 34.4871 152.1 34.544C151.861 34.6588 151.667 34.8244 151.515 35.0399C151.388 35.2221 151.307 35.4235 151.271 35.6407C151.257 35.7245 151.255 35.811 151.255 35.8962C151.253 36.365 151.254 36.8338 151.254 37.3027C151.254 37.3309 151.268 37.3449 151.296 37.345C151.782 37.345 152.267 37.345 152.752 37.345L152.753 37.3449Z" fill="#F8F9FA"/>
<path d="M221.732 59H220.808L223.479 51.7273H224.388L227.058 59H226.135L223.962 52.8778H223.905L221.732 59ZM222.073 56.1591H225.794V56.9403H222.073V56.1591ZM228.078 61.0455V53.5455H228.887V54.4119H228.987C229.048 54.3172 229.133 54.1965 229.242 54.0497C229.354 53.9006 229.512 53.768 229.718 53.652C229.927 53.5336 230.208 53.4744 230.563 53.4744C231.023 53.4744 231.427 53.5893 231.778 53.8189C232.128 54.0485 232.402 54.3741 232.598 54.7955C232.795 55.2169 232.893 55.714 232.893 56.2869C232.893 56.8646 232.795 57.3653 232.598 57.7891C232.402 58.2105 232.129 58.5372 231.781 58.7692C231.433 58.9988 231.032 59.1136 230.578 59.1136C230.227 59.1136 229.947 59.0556 229.736 58.9396C229.525 58.8213 229.363 58.6875 229.249 58.5384C229.136 58.3868 229.048 58.2614 228.987 58.1619H228.916V61.0455H228.078ZM228.901 56.2727C228.901 56.6847 228.962 57.0481 229.083 57.3629C229.203 57.6754 229.38 57.9205 229.612 58.098C229.844 58.2732 230.128 58.3608 230.464 58.3608C230.814 58.3608 231.107 58.2685 231.341 58.0838C231.578 57.8968 231.755 57.6458 231.874 57.331C231.994 57.0137 232.055 56.661 232.055 56.2727C232.055 55.8892 231.996 55.5436 231.877 55.2358C231.761 54.9257 231.585 54.6806 231.348 54.5007C231.114 54.3184 230.819 54.2273 230.464 54.2273C230.123 54.2273 229.837 54.3137 229.605 54.4865C229.373 54.657 229.197 54.8961 229.079 55.2038C228.961 55.5092 228.901 55.8655 228.901 56.2727ZM234.171 61.0455V53.5455H234.981V54.4119H235.08C235.142 54.3172 235.227 54.1965 235.336 54.0497C235.447 53.9006 235.606 53.768 235.812 53.652C236.02 53.5336 236.302 53.4744 236.657 53.4744C237.116 53.4744 237.521 53.5893 237.872 53.8189C238.222 54.0485 238.495 54.3741 238.692 54.7955C238.888 55.2169 238.987 55.714 238.987 56.2869C238.987 56.8646 238.888 57.3653 238.692 57.7891C238.495 58.2105 238.223 58.5372 237.875 58.7692C237.527 58.9988 237.126 59.1136 236.671 59.1136C236.321 59.1136 236.04 59.0556 235.83 58.9396C235.619 58.8213 235.457 58.6875 235.343 58.5384C235.23 58.3868 235.142 58.2614 235.08 58.1619H235.009V61.0455H234.171ZM234.995 56.2727C234.995 56.6847 235.056 57.0481 235.176 57.3629C235.297 57.6754 235.473 57.9205 235.705 58.098C235.937 58.2732 236.222 58.3608 236.558 58.3608C236.908 58.3608 237.2 58.2685 237.435 58.0838C237.672 57.8968 237.849 57.6458 237.968 57.331C238.088 57.0137 238.149 56.661 238.149 56.2727C238.149 55.8892 238.089 55.5436 237.971 55.2358C237.855 54.9257 237.679 54.6806 237.442 54.5007C237.208 54.3184 236.913 54.2273 236.558 54.2273C236.217 54.2273 235.93 54.3137 235.698 54.4865C235.466 54.657 235.291 54.8961 235.173 55.2038C235.054 55.5092 234.995 55.8655 234.995 56.2727ZM241.103 51.7273V59H240.265V51.7273H241.103ZM242.638 59V53.5455H243.476V59H242.638ZM243.064 52.6364C242.901 52.6364 242.76 52.5807 242.642 52.4695C242.526 52.3582 242.468 52.2244 242.468 52.0682C242.468 51.9119 242.526 51.7782 242.642 51.6669C242.76 51.5556 242.901 51.5 243.064 51.5C243.228 51.5 243.367 51.5556 243.483 51.6669C243.602 51.7782 243.661 51.9119 243.661 52.0682C243.661 52.2244 243.602 52.3582 243.483 52.4695C243.367 52.5807 243.228 52.6364 243.064 52.6364ZM247.227 59.1136C246.716 59.1136 246.275 58.9929 245.906 58.7514C245.537 58.5099 245.253 58.1773 245.054 57.7536C244.855 57.3298 244.756 56.8456 244.756 56.3011C244.756 55.7472 244.857 55.2583 245.061 54.8345C245.267 54.4084 245.553 54.0758 245.92 53.8366C246.29 53.5952 246.72 53.4744 247.213 53.4744C247.596 53.4744 247.942 53.5455 248.25 53.6875C248.558 53.8295 248.81 54.0284 249.006 54.2841C249.203 54.5398 249.325 54.8381 249.372 55.179H248.534C248.47 54.9304 248.328 54.7102 248.108 54.5185C247.89 54.3243 247.596 54.2273 247.227 54.2273C246.9 54.2273 246.614 54.3125 246.368 54.483C246.124 54.651 245.933 54.889 245.796 55.1967C245.661 55.5021 245.594 55.8608 245.594 56.2727C245.594 56.6941 245.66 57.0611 245.792 57.3736C245.927 57.6861 246.117 57.9287 246.361 58.1016C246.607 58.2744 246.896 58.3608 247.227 58.3608C247.445 58.3608 247.643 58.3229 247.82 58.2472C247.998 58.1714 248.148 58.0625 248.271 57.9205C248.394 57.7784 248.482 57.608 248.534 57.4091H249.372C249.325 57.7311 249.207 58.0211 249.02 58.2791C248.836 58.5348 248.591 58.7384 248.285 58.8899C247.982 59.0391 247.63 59.1136 247.227 59.1136ZM252.202 59.1278C251.857 59.1278 251.543 59.0627 251.261 58.9325C250.979 58.8 250.756 58.6094 250.59 58.3608C250.424 58.1098 250.341 57.8068 250.341 57.4517C250.341 57.1392 250.403 56.8859 250.526 56.6918C250.649 56.4953 250.814 56.3414 251.02 56.2301C251.226 56.1188 251.453 56.036 251.702 55.9815C251.952 55.9247 252.205 55.8797 252.458 55.8466C252.789 55.804 253.058 55.772 253.264 55.7507C253.472 55.727 253.624 55.688 253.719 55.6335C253.816 55.5791 253.864 55.4844 253.864 55.3494V55.321C253.864 54.9706 253.768 54.6984 253.577 54.5043C253.387 54.3101 253.099 54.2131 252.714 54.2131C252.314 54.2131 252 54.3007 251.773 54.4759C251.545 54.651 251.385 54.8381 251.293 55.0369L250.498 54.7528C250.64 54.4214 250.829 54.1634 251.066 53.9787C251.305 53.7917 251.565 53.6615 251.847 53.5881C252.131 53.5123 252.411 53.4744 252.685 53.4744C252.86 53.4744 253.062 53.4957 253.289 53.5384C253.519 53.5786 253.74 53.6626 253.953 53.7905C254.168 53.9183 254.347 54.1113 254.489 54.3693C254.631 54.6274 254.702 54.973 254.702 55.4062V59H253.864V58.2614H253.822C253.765 58.3797 253.67 58.5064 253.537 58.6413C253.405 58.7763 253.229 58.8911 253.008 58.9858C252.788 59.0805 252.519 59.1278 252.202 59.1278ZM252.33 58.375C252.662 58.375 252.941 58.3099 253.168 58.1797C253.398 58.0495 253.571 57.8814 253.687 57.6754C253.805 57.4695 253.864 57.2528 253.864 57.0256V56.2585C253.829 56.3011 253.751 56.3402 253.63 56.3757C253.511 56.4089 253.374 56.4384 253.218 56.4645C253.064 56.4882 252.914 56.5095 252.767 56.5284C252.622 56.545 252.505 56.5592 252.415 56.571C252.198 56.5994 251.994 56.6456 251.805 56.7095C251.617 56.7711 251.466 56.8646 251.35 56.9901C251.236 57.1132 251.18 57.2812 251.18 57.4943C251.18 57.7855 251.287 58.0057 251.503 58.1548C251.72 58.3016 251.996 58.375 252.33 58.375ZM257.07 55.7188V59H256.232V53.5455H257.042V54.3977H257.113C257.24 54.1207 257.435 53.8982 257.695 53.7301C257.955 53.5597 258.292 53.4744 258.703 53.4744C259.073 53.4744 259.396 53.5502 259.673 53.7017C259.95 53.8509 260.165 54.0781 260.319 54.3835C260.473 54.6866 260.55 55.0701 260.55 55.5341V59H259.712V55.5909C259.712 55.1624 259.601 54.8286 259.378 54.5895C259.156 54.348 258.85 54.2273 258.462 54.2273C258.194 54.2273 257.955 54.2853 257.745 54.4013C257.536 54.5173 257.372 54.6866 257.251 54.9091C257.13 55.1316 257.07 55.4015 257.07 55.7188ZM264.454 53.5455V54.2557H261.627V53.5455H264.454ZM262.451 52.2386H263.289V57.4375C263.289 57.6742 263.323 57.8518 263.392 57.9702C263.463 58.0862 263.553 58.1643 263.662 58.2045C263.773 58.2424 263.89 58.2614 264.013 58.2614C264.106 58.2614 264.181 58.2566 264.241 58.2472C264.3 58.2353 264.347 58.2259 264.383 58.2188L264.553 58.9716C264.496 58.9929 264.417 59.0142 264.315 59.0355C264.213 59.0592 264.084 59.071 263.928 59.071C263.691 59.071 263.459 59.0201 263.232 58.9183C263.007 58.8165 262.82 58.6615 262.671 58.4531C262.524 58.2448 262.451 57.982 262.451 57.6648V52.2386Z" fill="#F8F9FA"/>
<g clip-path="url(#clip0_1401_1573)">
<path d="M250.896 34.1022C250.896 35.0656 250.112 35.8574 249.121 35.8574C248.125 35.8574 247.335 35.0604 247.335 34.1022C247.335 33.1441 248.125 32.3471 249.121 32.3471C250.112 32.3471 250.896 33.1389 250.896 34.1022ZM243.096 32.4492C243.096 33.7202 242.067 34.7553 240.764 34.7553C239.456 34.7553 238.421 33.7159 238.421 32.4492C238.421 31.1825 239.456 30.1431 240.764 30.1431C242.067 30.1431 243.096 31.1781 243.096 32.4492ZM243.992 42.092C243.992 41.9598 244.052 41.767 244.337 41.5066C244.629 41.2405 245.082 40.9792 245.66 40.7503C246.818 40.292 248.225 40.0614 249.121 40.0614C250.017 40.0614 251.424 40.292 252.582 40.7503C253.16 40.9792 253.613 41.2405 253.905 41.5066C254.191 41.767 254.25 41.9598 254.25 42.092V43.5716H243.992V42.092ZM233.964 41.8165C233.964 41.5463 234.093 41.233 234.491 40.8694C234.896 40.5 235.506 40.1527 236.258 39.8549C237.764 39.2589 239.589 38.9594 240.764 38.9594C240.822 38.9594 240.882 38.9602 240.944 38.9618C240.708 39.2409 240.514 39.5264 240.356 39.8135C239.882 40.6744 239.764 41.4928 239.764 42.092V43.5716H233.964V41.8165Z" stroke="#F8F9FA" stroke-width="2"/>
</g>
<defs>
<clipPath id="clip0_1401_1573">
<rect width="24" height="24" fill="white" transform="translate(231.25 24)"/>
</clipPath>
</defs>
</svg>
