<svg width="254" height="71" viewBox="0 0 254 71" fill="none" xmlns="http://www.w3.org/2000/svg">
<line x1="138.25" y1="34" x2="209.25" y2="34" stroke="#F8F9FA" stroke-width="2" stroke-linecap="round" stroke-dasharray="4 4"/>
<line x1="19.1994" y1="9.2507" x2="112.501" y2="30.8006" stroke="#F8F9FA" stroke-width="2" stroke-linecap="round" stroke-dasharray="4 4"/>
<line x1="21.2607" y1="33.0108" x2="113.261" y2="34.0001" stroke="#F8F9FA" stroke-width="2" stroke-linecap="round" stroke-dasharray="4 4"/>
<line x1="18.9776" y1="60.7873" x2="113.037" y2="37.2724" stroke="#F8F9FA" stroke-width="2" stroke-linecap="round" stroke-dasharray="4 4"/>
<circle cx="124.25" cy="33" r="9" stroke="#F8F9FA" stroke-width="2"/>
<path d="M115.484 9.81242C115.474 9.71847 115.457 9.62451 115.435 9.53255C115.397 9.37771 115.337 9.22995 115.262 9.08822C115.155 8.88847 115.019 8.70923 114.854 8.55098C114.673 8.37762 114.469 8.23558 114.236 8.13638C114.103 8.07994 113.964 8.03479 113.825 7.99735C113.725 7.97065 113.62 7.96588 113.517 7.95046C113.349 7.9251 113.18 7.93766 113.013 7.95769C112.832 7.97939 112.657 8.02549 112.489 8.0921C112.243 8.18947 112.02 8.32428 111.826 8.50003C111.534 8.76464 111.327 9.08075 111.214 9.45338C111.159 9.63071 111.128 9.81131 111.125 9.9942C111.122 10.1333 111.137 10.2742 111.161 10.4117C111.184 10.5405 111.219 10.669 111.264 10.792C111.354 11.0336 111.491 11.2506 111.668 11.4423C111.925 11.7217 112.236 11.9266 112.605 12.0457C112.665 12.0652 112.693 12.1056 112.687 12.167C112.687 12.1697 112.687 12.1724 112.687 12.175C112.68 12.3565 112.646 12.5332 112.585 12.7053C112.504 12.9365 112.362 13.1229 112.151 13.2602C112.002 13.3579 111.839 13.4294 111.666 13.4781C111.554 13.5097 111.441 13.5415 111.327 13.5667C111.233 13.5874 111.137 13.5996 111.041 13.6138C110.923 13.6312 110.806 13.6494 110.688 13.6624C110.527 13.6801 110.366 13.6932 110.205 13.7083C110.029 13.7248 109.853 13.741 109.678 13.7579C109.577 13.7676 109.476 13.7764 109.375 13.7892C109.26 13.8038 109.146 13.8216 109.031 13.8393C108.939 13.8535 108.847 13.866 108.756 13.8854C108.633 13.9118 108.509 13.9408 108.388 13.9749C108.27 14.0078 108.155 14.047 108.039 14.0867C107.976 14.1084 107.915 14.1366 107.847 14.1644V14.1064C107.847 12.8831 107.847 11.6598 107.847 10.4365C107.847 10.426 107.848 10.4153 107.847 10.4048C107.845 10.3827 107.855 10.373 107.877 10.3652C107.942 10.3424 108.007 10.3174 108.07 10.2911C108.402 10.1546 108.676 9.94691 108.901 9.67642C109.089 9.44917 109.228 9.19656 109.299 8.91311C109.329 8.79714 109.355 8.67935 109.368 8.56083C109.39 8.3684 109.378 8.17612 109.342 7.98479C109.314 7.83417 109.271 7.68823 109.21 7.54762C109.149 7.40741 109.072 7.2753 108.981 7.15043C108.715 6.78631 108.363 6.53052 107.933 6.37528C107.75 6.30955 107.559 6.27155 107.365 6.25725C107.153 6.24159 106.939 6.24962 106.732 6.29802C106.592 6.33053 106.455 6.37528 106.322 6.42751C105.991 6.55747 105.718 6.76445 105.492 7.03025C105.332 7.21943 105.21 7.42975 105.126 7.66097C105.074 7.80198 105.037 7.94593 105.018 8.09321C104.992 8.2905 104.993 8.48787 105.028 8.68563C105.051 8.81582 105.083 8.94229 105.128 9.067C105.211 9.30268 105.338 9.51522 105.502 9.70591C105.763 10.0085 106.087 10.2257 106.472 10.3549C106.517 10.37 106.532 10.3877 106.532 10.4342C106.53 12.1447 106.531 13.8552 106.531 15.5657C106.531 15.5736 106.53 15.5816 106.531 15.5895C106.533 15.6155 106.524 15.6283 106.496 15.6376C106.423 15.6616 106.35 15.6875 106.28 15.7192C105.981 15.8544 105.723 16.0416 105.511 16.287C105.299 16.5334 105.15 16.8106 105.069 17.1225C105.034 17.2563 105.011 17.3913 105.003 17.5281C104.99 17.7629 105.018 17.9938 105.085 18.2206C105.147 18.4304 105.24 18.6257 105.365 18.8069C105.513 19.0206 105.695 19.2019 105.91 19.3529C106.076 19.469 106.255 19.5607 106.447 19.6276C106.61 19.6844 106.779 19.7254 106.953 19.7375C106.969 19.7386 106.984 19.7457 107 19.75H107.379C107.395 19.7457 107.41 19.7389 107.426 19.7375C107.609 19.722 107.785 19.6778 107.958 19.6165C108.243 19.5151 108.494 19.3614 108.711 19.158C108.963 18.9213 109.148 18.6431 109.261 18.3195C109.315 18.1662 109.351 18.0104 109.368 17.8509C109.385 17.6904 109.381 17.5294 109.359 17.3681C109.338 17.2174 109.302 17.0712 109.251 16.9287C109.186 16.7521 109.098 16.586 108.986 16.4336C108.757 16.1237 108.467 15.8832 108.105 15.7265C108.065 15.7092 108.025 15.6908 107.973 15.6672C108.034 15.6006 108.085 15.538 108.144 15.483C108.259 15.3753 108.4 15.3072 108.548 15.2551C108.64 15.223 108.735 15.1975 108.829 15.1721C108.892 15.1551 108.956 15.142 109.02 15.1297C109.114 15.1118 109.207 15.0931 109.302 15.08C109.435 15.0618 109.568 15.048 109.701 15.0332C109.809 15.0212 109.916 15.01 110.024 14.9997C110.107 14.9916 110.191 14.9861 110.274 14.9783C110.387 14.9677 110.5 14.9563 110.613 14.9446C110.754 14.93 110.896 14.919 111.037 14.8987C111.214 14.8733 111.39 14.8425 111.566 14.8092C111.691 14.7855 111.818 14.7619 111.94 14.7241C112.115 14.6697 112.288 14.6064 112.459 14.5396C112.669 14.4576 112.86 14.3426 113.038 14.2074C113.257 14.0408 113.44 13.8436 113.588 13.6148C113.715 13.42 113.81 13.2128 113.875 12.9931C113.916 12.8541 113.949 12.712 113.971 12.5692C113.995 12.4153 114.004 12.259 114.014 12.1034C114.016 12.0627 114.028 12.0415 114.067 12.0303C114.09 12.0234 114.113 12.0147 114.135 12.0059C114.468 11.8764 114.748 11.6768 114.981 11.4146C115.221 11.1432 115.379 10.8307 115.455 10.4821C115.482 10.36 115.492 10.2338 115.499 10.1089C115.503 10.0104 115.495 9.91066 115.484 9.81242ZM107.187 18.0634C106.943 18.0619 106.751 17.8787 106.751 17.6412C106.751 17.4138 106.947 17.2248 107.188 17.2243C107.421 17.2239 107.63 17.4197 107.618 17.6443C107.628 17.8675 107.428 18.0648 107.187 18.0634ZM107.185 8.78411C106.946 8.78196 106.751 8.59493 106.751 8.36816C106.751 8.12954 106.942 7.9472 107.186 7.94537C107.429 7.94346 107.628 8.14083 107.618 8.36379C107.63 8.59024 107.42 8.78625 107.185 8.78411ZM113.309 10.4688C113.072 10.478 112.872 10.2705 112.875 10.0487C112.878 9.82307 113.072 9.63127 113.313 9.63167C113.55 9.63207 113.745 9.82378 113.745 10.0536C113.745 10.2797 113.545 10.4771 113.309 10.4688Z" fill="#F8F9FA"/>
<path d="M143.979 12.6765C143.919 12.5203 143.81 12.4417 143.658 12.433C143.642 12.432 143.625 12.4326 143.608 12.4326H137.825C137.751 12.4326 137.76 12.4378 137.76 12.3594C137.76 12.0921 137.76 11.8249 137.76 11.5577V11.499H137.807C138.303 11.499 138.798 11.4999 139.294 11.4986C139.48 11.4981 139.635 11.4148 139.764 11.2682C139.848 11.1731 139.903 11.0601 139.933 10.9324C139.944 10.8894 139.95 10.844 139.95 10.7997C139.951 9.76669 139.953 8.73363 139.949 7.70065C139.949 7.49782 139.863 7.32946 139.729 7.19333C139.637 7.09926 139.53 7.03399 139.404 7.01484C139.355 7.00734 139.305 7.0008 139.255 7.0008C137.914 7 136.572 7.0004 135.23 7C134.99 6.99992 134.804 7.11402 134.667 7.32778C134.613 7.41164 134.574 7.50484 134.563 7.60921C134.558 7.65884 134.551 7.70871 134.551 7.75842C134.55 8.75821 134.55 9.75791 134.551 10.7578C134.552 11.0299 134.664 11.2366 134.868 11.3849C134.977 11.4646 135.097 11.4996 135.228 11.4994C135.716 11.4984 136.204 11.499 136.693 11.499H136.739C136.739 11.5191 136.741 11.5359 136.741 11.5527C136.741 11.8267 136.741 12.1005 136.741 12.3744C136.741 12.4324 136.741 12.4325 136.687 12.4325C134.749 12.4325 132.811 12.4327 130.873 12.4321C130.747 12.432 130.64 12.4739 130.565 12.5909C130.542 12.6264 130.53 12.6707 130.513 12.7107C130.51 12.7171 130.504 12.722 130.5 12.7276V13.2717C130.507 13.2888 130.514 13.3058 130.52 13.3229C130.581 13.4792 130.69 13.5576 130.841 13.5654C130.857 13.5662 130.873 13.5656 130.888 13.5656H132.973C133.008 13.5656 133.026 13.5852 133.026 13.6242C133.026 13.8978 133.026 14.1714 133.026 14.445C133.026 14.4619 133.024 14.4787 133.024 14.4993H132.975C132.6 14.4993 132.225 14.4999 131.851 14.499C131.611 14.4985 131.425 14.6119 131.286 14.8257C131.232 14.9097 131.193 15.0025 131.182 15.1067C131.176 15.1629 131.17 15.2196 131.17 15.2759C131.169 16.2733 131.168 17.2706 131.17 18.2679C131.171 18.5349 131.285 18.7379 131.485 18.8839C131.597 18.9654 131.719 18.9997 131.852 18.9996C132.977 18.9988 134.103 18.9999 135.228 18.9985C135.474 18.9982 135.66 18.8726 135.793 18.6466C135.865 18.5262 135.896 18.3945 135.896 18.251C135.896 17.2496 135.897 16.2483 135.896 15.247C135.896 14.9714 135.784 14.7625 135.578 14.6125C135.507 14.5613 135.432 14.5253 135.348 14.5138C135.3 14.5073 135.251 14.5002 135.203 14.5C134.832 14.4989 134.461 14.4994 134.089 14.4994H134.044C134.043 14.4814 134.042 14.4673 134.042 14.4532C134.042 14.1738 134.043 13.8946 134.041 13.6154C134.041 13.5747 134.052 13.564 134.088 13.564C136.194 13.5649 138.3 13.5648 140.406 13.5641C140.439 13.5641 140.452 13.5731 140.452 13.6126C140.45 13.8933 140.451 14.1738 140.451 14.4544C140.451 14.4674 140.45 14.4805 140.449 14.4994H140.406C140.03 14.4994 139.654 14.4998 139.278 14.4992C139.039 14.4988 138.854 14.6111 138.716 14.8237C138.661 14.9089 138.622 15.0024 138.61 15.1081C138.605 15.159 138.598 15.2103 138.598 15.2614C138.597 16.2613 138.596 17.2613 138.598 18.2613C138.599 18.5319 138.712 18.7372 138.915 18.8847C139.024 18.9646 139.144 18.9996 139.274 18.9995C140.401 18.999 141.528 18.998 142.655 19C142.952 19.0005 143.208 18.7738 143.293 18.4833C143.313 18.4142 143.323 18.3384 143.323 18.2657C143.325 17.255 143.326 16.2444 143.324 15.2338C143.323 14.9649 143.209 14.7609 143.008 14.6142C142.897 14.5335 142.776 14.4986 142.645 14.499C142.27 14.5001 141.895 14.4994 141.52 14.4994H141.473C141.472 14.481 141.47 14.4644 141.47 14.4478C141.47 14.1725 141.47 13.8973 141.47 13.6221C141.47 13.584 141.487 13.5649 141.521 13.5648C142.226 13.5648 142.931 13.5646 143.637 13.565C143.759 13.565 143.863 13.5203 143.936 13.4073C143.958 13.3717 143.97 13.3275 143.987 13.2874C143.99 13.281 143.996 13.2761 144 13.2705V12.7279C143.993 12.7109 143.986 12.6939 143.98 12.6768L143.979 12.6765ZM134.55 15.9993V17.4914H132.532V15.9993H134.55ZM135.907 9.99896V8.50686H138.6V9.99896H135.907ZM141.975 15.9993V17.4914H139.957V15.9993H141.975Z" fill="#F8F9FA"/>
<path d="M16 57.3966V58.6029C15.991 58.6249 15.981 58.6467 15.9731 58.6692C15.921 58.8163 15.7658 58.9304 15.6066 58.9377C15.5862 58.9387 15.5658 58.9387 15.5455 58.9387C12.4738 58.9387 9.4022 58.9385 6.33052 58.9394C6.18963 58.9394 6.06951 58.8982 5.97648 58.7925C5.91325 58.7206 5.87633 58.6361 5.87611 58.5395C5.87547 58.1789 5.87288 57.8182 5.87719 57.4576C5.87921 57.2924 5.96843 57.1741 6.11585 57.1004C6.18101 57.0679 6.25235 57.0576 6.32599 57.0576C9.40126 57.0581 12.4765 57.058 15.5518 57.0582C15.7416 57.0582 15.883 57.1382 15.9658 57.3103C15.9792 57.3381 15.9887 57.3678 16 57.3966Z" fill="#F8F9FA"/>
<path d="M16 65.736V66.9423C15.991 66.9644 15.981 66.9861 15.9731 67.0085C15.921 67.1556 15.7658 67.2698 15.6066 67.2771C15.5862 67.2781 15.5658 67.2781 15.5455 67.2781C12.4738 67.2781 9.40212 67.2779 6.33052 67.2787C6.18963 67.2788 6.06944 67.2376 5.97648 67.1318C5.91325 67.0601 5.87633 66.9755 5.87611 66.8789C5.87547 66.5183 5.87288 66.1576 5.87719 65.797C5.87921 65.6318 5.96843 65.5135 6.11585 65.4399C6.18101 65.4073 6.25235 65.397 6.32606 65.397C9.40126 65.3975 12.4765 65.3973 15.5518 65.3975C15.7416 65.3975 15.883 65.4776 15.9658 65.6496C15.9792 65.6775 15.9887 65.7072 16 65.736Z" fill="#F8F9FA"/>
<path d="M15.9998 61.5697V62.7689C15.9911 62.7914 15.9823 62.8139 15.9735 62.8364C15.9223 62.966 15.8304 63.0536 15.6938 63.0886C15.6429 63.1015 15.5883 63.1044 15.5353 63.1044C13.562 63.1052 11.5886 63.105 9.61531 63.105C8.51914 63.105 7.42297 63.1044 6.3268 63.1059C6.20582 63.1061 6.09877 63.0786 6.00991 62.9958C5.92513 62.917 5.87621 62.8206 5.87599 62.704C5.87528 62.3481 5.87621 61.9922 5.87549 61.6362C5.87513 61.4286 6.05143 61.2463 6.25044 61.2334C6.28743 61.2311 6.3245 61.2285 6.3615 61.2285C9.41781 61.2282 12.4742 61.2283 15.5305 61.228C15.6412 61.228 15.7457 61.2449 15.8354 61.3151C15.9121 61.3752 15.9654 61.4497 15.9871 61.5452C15.9891 61.5538 15.9955 61.5616 15.9998 61.5697Z" fill="#F8F9FA"/>
<path d="M5.03557 62.9864C5.03528 63.1839 4.9263 63.3359 4.73951 63.4005C4.70517 63.4124 4.66723 63.42 4.63102 63.4201C4.05542 63.4213 3.47983 63.423 2.90423 63.4196C2.72347 63.4186 2.55306 63.2813 2.51585 63.1041C2.50773 63.0654 2.50299 63.0254 2.50278 62.9859C2.5017 62.7128 2.5022 62.4396 2.5022 62.1665C2.5022 61.8934 2.50522 61.6177 2.50127 61.3434C2.49832 61.1395 2.63733 60.9776 2.81126 60.9306C2.84998 60.9202 2.89144 60.9155 2.93167 60.9155C3.48931 60.9145 4.04695 60.9142 4.60458 60.915C4.80847 60.9154 4.97385 61.0436 5.02349 61.2384C5.03247 61.2736 5.03528 61.311 5.03535 61.3474C5.03607 61.8937 5.03636 62.4401 5.03557 62.9864Z" fill="#F8F9FA"/>
<path d="M5.0333 58.8201C5.0328 58.984 4.96361 59.1137 4.81648 59.1972C4.76281 59.2277 4.70556 59.2483 4.64277 59.2491C4.56381 59.2502 4.48485 59.2507 4.40597 59.2507C3.91902 59.2508 3.43209 59.2498 2.94521 59.2515C2.82732 59.2518 2.72279 59.221 2.63636 59.1416C2.54929 59.0618 2.50036 58.9629 2.50036 58.8433C2.50036 58.2805 2.50093 57.7178 2.5 57.1551C2.49971 56.9863 2.62199 56.8301 2.76603 56.7777C2.82437 56.7564 2.88271 56.7501 2.94313 56.7501C3.21713 56.75 3.49106 56.7501 3.76507 56.7501V56.7508C4.05215 56.7508 4.33931 56.7486 4.62639 56.7516C4.78925 56.7533 4.90671 56.8342 4.98459 56.9741C5.02008 57.0379 5.03351 57.1068 5.03359 57.178C5.03423 57.7254 5.03502 58.2727 5.0333 58.8201Z" fill="#F8F9FA"/>
<path d="M5.03863 67.1586C5.0382 67.344 4.93855 67.497 4.75083 67.567C4.72029 67.5784 4.68574 67.5841 4.65305 67.5841C4.06445 67.5851 3.47585 67.5863 2.88732 67.5838C2.74176 67.5832 2.59298 67.4749 2.53371 67.3252C2.51281 67.2723 2.50461 67.2176 2.50476 67.1602C2.50576 66.6105 2.50706 66.0608 2.5044 65.511C2.50347 65.3165 2.62279 65.1651 2.78896 65.1073C2.83789 65.0903 2.89378 65.0879 2.94659 65.0875C3.22174 65.0857 3.49689 65.0867 3.77205 65.0867V65.0875C4.05913 65.0875 4.34629 65.0851 4.63337 65.0883C4.79487 65.0902 4.91132 65.1715 4.98913 65.3093C5.0249 65.3726 5.03856 65.4417 5.03863 65.513C5.03921 66.0615 5.03964 66.6101 5.03863 67.1586Z" fill="#F8F9FA"/>
<path d="M16 4.39662V5.60292C15.991 5.62493 15.981 5.64673 15.9731 5.66916C15.921 5.81627 15.7658 5.93043 15.6066 5.93774C15.5862 5.93866 15.5658 5.93874 15.5455 5.93874C12.4738 5.93874 9.4022 5.93852 6.33052 5.93937C6.18963 5.93944 6.06951 5.8982 5.97648 5.79248C5.91325 5.72063 5.87633 5.63615 5.87611 5.53952C5.87547 5.17893 5.87288 4.8182 5.87719 4.45761C5.87921 4.2924 5.96843 4.17412 6.11585 4.10043C6.18101 4.06791 6.25235 4.05762 6.32599 4.05762C9.40126 4.05811 12.4765 4.05797 15.5518 4.05819C15.7416 4.05819 15.883 4.1382 15.9658 4.31029C15.9792 4.33812 15.9887 4.3678 16 4.39662Z" fill="#F8F9FA"/>
<path d="M16 12.736V13.9423C15.991 13.9644 15.981 13.9861 15.9731 14.0085C15.921 14.1556 15.7658 14.2698 15.6066 14.2771C15.5862 14.2781 15.5658 14.2781 15.5455 14.2781C12.4738 14.2781 9.40212 14.2779 6.33052 14.2787C6.18963 14.2788 6.06944 14.2376 5.97648 14.1318C5.91325 14.0601 5.87633 13.9755 5.87611 13.8789C5.87547 13.5183 5.87288 13.1576 5.87719 12.797C5.87921 12.6318 5.96843 12.5135 6.11585 12.4399C6.18101 12.4073 6.25235 12.397 6.32606 12.397C9.40126 12.3975 12.4765 12.3973 15.5518 12.3975C15.7416 12.3975 15.883 12.4776 15.9658 12.6496C15.9792 12.6775 15.9887 12.7072 16 12.736Z" fill="#F8F9FA"/>
<path d="M15.9998 8.56973V9.76886C15.9911 9.79136 15.9823 9.81387 15.9735 9.83638C15.9223 9.96602 15.8304 10.0536 15.6938 10.0886C15.6429 10.1015 15.5883 10.1044 15.5353 10.1044C13.562 10.1052 11.5886 10.105 9.61531 10.105C8.51914 10.105 7.42297 10.1044 6.3268 10.1059C6.20582 10.1061 6.09877 10.0786 6.00991 9.99584C5.92513 9.91696 5.87621 9.82062 5.87599 9.70404C5.87528 9.34814 5.87621 8.99216 5.87549 8.63619C5.87513 8.42859 6.05143 8.24627 6.25044 8.23342C6.28743 8.23108 6.3245 8.22845 6.3615 8.22845C9.41781 8.22824 12.4742 8.22831 15.5305 8.22803C15.6412 8.22803 15.7457 8.24485 15.8354 8.31514C15.9121 8.3752 15.9654 8.44975 15.9871 8.54517C15.9891 8.55383 15.9955 8.56157 15.9998 8.56973Z" fill="#F8F9FA"/>
<path d="M5.03557 9.98641C5.03528 10.1839 4.9263 10.3359 4.73951 10.4005C4.70517 10.4124 4.66723 10.42 4.63102 10.4201C4.05542 10.4213 3.47983 10.423 2.90423 10.4196C2.72347 10.4186 2.55306 10.2813 2.51585 10.1041C2.50773 10.0654 2.50299 10.0254 2.50278 9.98592C2.5017 9.71279 2.5022 9.4396 2.5022 9.16648C2.5022 8.89335 2.50522 8.61775 2.50127 8.34342C2.49832 8.13951 2.63733 7.97764 2.81126 7.93065C2.84998 7.92021 2.89144 7.91552 2.93167 7.91545C3.48931 7.91446 4.04695 7.91424 4.60458 7.91502C4.80847 7.91538 4.97385 8.0436 5.02349 8.23841C5.03247 8.27355 5.03528 8.31097 5.03535 8.34739C5.03607 8.89371 5.03636 9.4401 5.03557 9.98641Z" fill="#F8F9FA"/>
<path d="M5.0333 5.82009C5.0328 5.98402 4.96361 6.11374 4.81648 6.19723C4.76281 6.22768 4.70556 6.24827 4.64277 6.24913C4.56381 6.25019 4.48485 6.25069 4.40597 6.25069C3.91902 6.25083 3.43209 6.24984 2.94521 6.25147C2.82732 6.25182 2.72279 6.22101 2.63636 6.14164C2.54929 6.06177 2.50036 5.96287 2.50036 5.84331C2.50036 5.28052 2.50093 4.71781 2.5 4.15509C2.49971 3.98633 2.62199 3.83007 2.76603 3.77767C2.82437 3.75645 2.88271 3.75006 2.94313 3.75006C3.21713 3.74999 3.49106 3.75006 3.76507 3.75006V3.75077C4.05215 3.75077 4.33931 3.74857 4.62639 3.75162C4.78925 3.75332 4.90671 3.83419 4.98459 3.97412C5.02008 4.03788 5.03351 4.10681 5.03359 4.17802C5.03423 4.7254 5.03502 5.27271 5.0333 5.82009Z" fill="#F8F9FA"/>
<path d="M5.03863 14.1586C5.0382 14.344 4.93855 14.497 4.75083 14.567C4.72029 14.5784 4.68574 14.5841 4.65305 14.5841C4.06445 14.5851 3.47585 14.5863 2.88732 14.5838C2.74176 14.5832 2.59298 14.4749 2.53371 14.3252C2.51281 14.2723 2.50461 14.2176 2.50476 14.1602C2.50576 13.6105 2.50706 13.0608 2.5044 12.511C2.50347 12.3165 2.62279 12.1651 2.78896 12.1073C2.83789 12.0903 2.89378 12.0879 2.94659 12.0875C3.22174 12.0857 3.49689 12.0867 3.77205 12.0867V12.0875C4.05913 12.0875 4.34629 12.0851 4.63337 12.0883C4.79487 12.0902 4.91132 12.1715 4.98913 12.3093C5.0249 12.3726 5.03856 12.4417 5.03863 12.513C5.03921 13.0615 5.03964 13.6101 5.03863 14.1586Z" fill="#F8F9FA"/>
<path d="M16 29.3966V30.6029C15.991 30.6249 15.981 30.6467 15.9731 30.6692C15.921 30.8163 15.7658 30.9304 15.6066 30.9377C15.5862 30.9387 15.5658 30.9387 15.5455 30.9387C12.4738 30.9387 9.4022 30.9385 6.33052 30.9394C6.18963 30.9394 6.06951 30.8982 5.97648 30.7925C5.91325 30.7206 5.87633 30.6361 5.87611 30.5395C5.87547 30.1789 5.87288 29.8182 5.87719 29.4576C5.87921 29.2924 5.96843 29.1741 6.11585 29.1004C6.18101 29.0679 6.25235 29.0576 6.32599 29.0576C9.40126 29.0581 12.4765 29.058 15.5518 29.0582C15.7416 29.0582 15.883 29.1382 15.9658 29.3103C15.9792 29.3381 15.9887 29.3678 16 29.3966Z" fill="#F8F9FA"/>
<path d="M16 37.736V38.9423C15.991 38.9644 15.981 38.9861 15.9731 39.0085C15.921 39.1556 15.7658 39.2698 15.6066 39.2771C15.5862 39.2781 15.5658 39.2781 15.5455 39.2781C12.4738 39.2781 9.40212 39.2779 6.33052 39.2787C6.18963 39.2788 6.06944 39.2376 5.97648 39.1318C5.91325 39.0601 5.87633 38.9755 5.87611 38.8789C5.87547 38.5183 5.87288 38.1576 5.87719 37.797C5.87921 37.6318 5.96843 37.5135 6.11585 37.4399C6.18101 37.4073 6.25235 37.397 6.32606 37.397C9.40126 37.3975 12.4765 37.3973 15.5518 37.3975C15.7416 37.3975 15.883 37.4776 15.9658 37.6496C15.9792 37.6775 15.9887 37.7072 16 37.736Z" fill="#F8F9FA"/>
<path d="M15.9998 33.5697V34.7689C15.9911 34.7914 15.9823 34.8139 15.9735 34.8364C15.9223 34.966 15.8304 35.0536 15.6938 35.0886C15.6429 35.1015 15.5883 35.1044 15.5353 35.1044C13.562 35.1052 11.5886 35.105 9.61531 35.105C8.51914 35.105 7.42297 35.1044 6.3268 35.1059C6.20582 35.1061 6.09877 35.0786 6.00991 34.9958C5.92513 34.917 5.87621 34.8206 5.87599 34.704C5.87528 34.3481 5.87621 33.9922 5.87549 33.6362C5.87513 33.4286 6.05143 33.2463 6.25044 33.2334C6.28743 33.2311 6.3245 33.2285 6.3615 33.2285C9.41781 33.2282 12.4742 33.2283 15.5305 33.228C15.6412 33.228 15.7457 33.2449 15.8354 33.3151C15.9121 33.3752 15.9654 33.4497 15.9871 33.5452C15.9891 33.5538 15.9955 33.5616 15.9998 33.5697Z" fill="#F8F9FA"/>
<path d="M5.03557 34.9864C5.03528 35.1839 4.9263 35.3359 4.73951 35.4005C4.70517 35.4124 4.66723 35.42 4.63102 35.4201C4.05542 35.4213 3.47983 35.423 2.90423 35.4196C2.72347 35.4186 2.55306 35.2813 2.51585 35.1041C2.50773 35.0654 2.50299 35.0254 2.50278 34.9859C2.5017 34.7128 2.5022 34.4396 2.5022 34.1665C2.5022 33.8934 2.50522 33.6177 2.50127 33.3434C2.49832 33.1395 2.63733 32.9776 2.81126 32.9306C2.84998 32.9202 2.89144 32.9155 2.93167 32.9155C3.48931 32.9145 4.04695 32.9142 4.60458 32.915C4.80847 32.9154 4.97385 33.0436 5.02349 33.2384C5.03247 33.2736 5.03528 33.311 5.03535 33.3474C5.03607 33.8937 5.03636 34.4401 5.03557 34.9864Z" fill="#F8F9FA"/>
<path d="M5.0333 30.8201C5.0328 30.984 4.96361 31.1137 4.81648 31.1972C4.76281 31.2277 4.70556 31.2483 4.64277 31.2491C4.56381 31.2502 4.48485 31.2507 4.40597 31.2507C3.91902 31.2508 3.43209 31.2498 2.94521 31.2515C2.82732 31.2518 2.72279 31.221 2.63636 31.1416C2.54929 31.0618 2.50036 30.9629 2.50036 30.8433C2.50036 30.2805 2.50093 29.7178 2.5 29.1551C2.49971 28.9863 2.62199 28.8301 2.76603 28.7777C2.82437 28.7564 2.88271 28.7501 2.94313 28.7501C3.21713 28.75 3.49106 28.7501 3.76507 28.7501V28.7508C4.05215 28.7508 4.33931 28.7486 4.62639 28.7516C4.78925 28.7533 4.90671 28.8342 4.98459 28.9741C5.02008 29.0379 5.03351 29.1068 5.03359 29.178C5.03423 29.7254 5.03502 30.2727 5.0333 30.8201Z" fill="#F8F9FA"/>
<path d="M5.03863 39.1586C5.0382 39.344 4.93855 39.497 4.75083 39.567C4.72029 39.5784 4.68574 39.5841 4.65305 39.5841C4.06445 39.5851 3.47585 39.5863 2.88732 39.5838C2.74176 39.5832 2.59298 39.4749 2.53371 39.3252C2.51281 39.2723 2.50461 39.2176 2.50476 39.1602C2.50576 38.6105 2.50706 38.0608 2.5044 37.511C2.50347 37.3165 2.62279 37.1651 2.78896 37.1073C2.83789 37.0903 2.89378 37.0879 2.94659 37.0875C3.22174 37.0857 3.49689 37.0867 3.77205 37.0867V37.0875C4.05913 37.0875 4.34629 37.0851 4.63337 37.0883C4.79487 37.0902 4.91132 37.1715 4.98913 37.3093C5.0249 37.3726 5.03856 37.4417 5.03863 37.513C5.03921 38.0615 5.03964 38.6101 5.03863 39.1586Z" fill="#F8F9FA"/>
<path d="M128.037 37.25H120.47C120.462 37.2468 120.454 37.2423 120.445 37.2404C120.391 37.2287 120.334 37.2225 120.281 37.2054C120.104 37.1479 119.951 37.0509 119.829 36.9111C119.664 36.7224 119.584 36.5018 119.584 36.2534C119.583 34.9492 119.583 33.645 119.584 32.3407C119.584 32.2142 119.603 32.0902 119.651 31.9717C119.71 31.8264 119.797 31.7002 119.915 31.5954C120.067 31.4609 120.244 31.3793 120.445 31.3505C120.521 31.3397 120.599 31.3403 120.675 31.3393C120.799 31.3376 120.922 31.3388 121.046 31.3388H121.084C121.084 31.3224 121.084 31.3097 121.084 31.297C121.084 30.8121 121.083 30.3273 121.085 29.8425C121.085 29.733 121.097 29.6235 121.106 29.5142C121.119 29.3627 121.147 29.2128 121.192 29.0674C121.231 28.9423 121.272 28.8177 121.319 28.695C121.386 28.5166 121.478 28.35 121.582 28.1898C121.757 27.9211 121.968 27.6846 122.216 27.4793C122.45 27.2862 122.705 27.1297 122.985 27.0085C123.151 26.9364 123.323 26.8809 123.498 26.8357C123.586 26.8129 123.676 26.7955 123.767 26.7824C123.871 26.7675 123.975 26.7536 124.079 26.7511C124.22 26.7478 124.36 26.7525 124.501 26.7585C124.662 26.7654 124.821 26.791 124.977 26.8309C125.052 26.8499 125.128 26.8651 125.2 26.8895C125.314 26.9275 125.427 26.9669 125.537 27.0146C125.768 27.1152 125.984 27.2425 126.184 27.3954C126.434 27.5863 126.652 27.8078 126.836 28.0619C127.002 28.2923 127.134 28.5399 127.232 28.8058C127.289 28.9612 127.333 29.12 127.366 29.2815C127.386 29.3806 127.4 29.4813 127.409 29.5819C127.418 29.6918 127.421 29.8026 127.421 29.913C127.423 30.3749 127.422 30.8369 127.422 31.2988V31.3388C127.438 31.3388 127.449 31.3388 127.459 31.3388C127.561 31.3388 127.662 31.3363 127.763 31.3395C127.877 31.3431 127.991 31.3486 128.104 31.3597C128.191 31.3684 128.273 31.3999 128.351 31.4378C128.555 31.5357 128.709 31.6826 128.812 31.8819C128.877 32.0081 128.916 32.14 128.916 32.2827C128.916 33.6098 128.915 34.937 128.917 36.2641C128.917 36.3898 128.898 36.5096 128.851 36.6264C128.788 36.7847 128.69 36.9182 128.557 37.0254C128.412 37.1428 128.247 37.2182 128.058 37.2407C128.051 37.2416 128.044 37.2468 128.037 37.2499V37.25ZM124.253 31.3449C124.736 31.3449 125.219 31.3449 125.703 31.3449C125.735 31.3449 125.751 31.3294 125.751 31.2984C125.751 30.8365 125.751 30.3747 125.751 29.9128C125.75 29.7917 125.741 29.6715 125.714 29.5525C125.679 29.3949 125.619 29.2473 125.534 29.1102C125.367 28.8416 125.137 28.6437 124.844 28.517C124.707 28.4579 124.563 28.419 124.415 28.4052C124.268 28.3915 124.119 28.3944 123.972 28.4228C123.842 28.4478 123.718 28.4871 123.6 28.544C123.362 28.6588 123.167 28.8244 123.016 29.0399C122.888 29.2221 122.808 29.4235 122.771 29.6407C122.757 29.7245 122.755 29.811 122.755 29.8962C122.753 30.365 122.754 30.8338 122.754 31.3027C122.754 31.3309 122.768 31.3449 122.797 31.345C123.282 31.345 123.767 31.345 124.253 31.345L124.253 31.3449Z" fill="#F8F9FA"/>
<path d="M200.483 49H199.602C199.55 48.7467 199.459 48.5241 199.329 48.3324C199.201 48.1406 199.045 47.9796 198.86 47.8494C198.678 47.7169 198.475 47.6174 198.253 47.5511C198.03 47.4848 197.798 47.4517 197.557 47.4517C197.116 47.4517 196.718 47.563 196.36 47.7855C196.005 48.008 195.722 48.3359 195.511 48.7692C195.303 49.2024 195.199 49.7339 195.199 50.3636C195.199 50.9934 195.303 51.5249 195.511 51.9581C195.722 52.3913 196.005 52.7192 196.36 52.9418C196.718 53.1643 197.116 53.2756 197.557 53.2756C197.798 53.2756 198.03 53.2424 198.253 53.1761C198.475 53.1098 198.678 53.0116 198.86 52.8814C199.045 52.7488 199.201 52.5866 199.329 52.3949C199.459 52.2008 199.55 51.9782 199.602 51.7273H200.483C200.417 52.099 200.296 52.4316 200.121 52.7251C199.946 53.0187 199.728 53.2685 199.467 53.4744C199.207 53.678 198.915 53.8331 198.59 53.9396C198.268 54.0462 197.924 54.0994 197.557 54.0994C196.937 54.0994 196.385 53.9479 195.902 53.6449C195.419 53.3419 195.039 52.911 194.762 52.3523C194.485 51.7936 194.347 51.1307 194.347 50.3636C194.347 49.5966 194.485 48.9337 194.762 48.375C195.039 47.8163 195.419 47.3854 195.902 47.0824C196.385 46.7794 196.937 46.6278 197.557 46.6278C197.924 46.6278 198.268 46.6811 198.59 46.7876C198.915 46.8942 199.207 47.0504 199.467 47.2564C199.728 47.46 199.946 47.7086 200.121 48.0021C200.296 48.2933 200.417 48.6259 200.483 49ZM201.792 54V48.5455H202.631V54H201.792ZM202.219 47.6364C202.055 47.6364 201.914 47.5807 201.796 47.4695C201.68 47.3582 201.622 47.2244 201.622 47.0682C201.622 46.9119 201.68 46.7782 201.796 46.6669C201.914 46.5556 202.055 46.5 202.219 46.5C202.382 46.5 202.522 46.5556 202.638 46.6669C202.756 46.7782 202.815 46.9119 202.815 47.0682C202.815 47.2244 202.756 47.3582 202.638 47.4695C202.522 47.5807 202.382 47.6364 202.219 47.6364ZM208.626 48.5455L206.609 54H205.756L203.739 48.5455H204.648L206.154 52.892H206.211L207.717 48.5455H208.626ZM209.732 54V48.5455H210.57V54H209.732ZM210.158 47.6364C209.995 47.6364 209.854 47.5807 209.735 47.4695C209.619 47.3582 209.561 47.2244 209.561 47.0682C209.561 46.9119 209.619 46.7782 209.735 46.6669C209.854 46.5556 209.995 46.5 210.158 46.5C210.321 46.5 210.461 46.5556 210.577 46.6669C210.695 46.7782 210.755 46.9119 210.755 47.0682C210.755 47.2244 210.695 47.3582 210.577 47.4695C210.461 47.5807 210.321 47.6364 210.158 47.6364ZM212.943 46.7273V54H212.105V46.7273H212.943ZM221.381 48.5455C221.339 48.1856 221.166 47.9062 220.863 47.7074C220.56 47.5085 220.188 47.4091 219.748 47.4091C219.426 47.4091 219.144 47.4612 218.903 47.5653C218.664 47.6695 218.477 47.8127 218.342 47.995C218.209 48.1773 218.143 48.3845 218.143 48.6165C218.143 48.8106 218.189 48.9775 218.281 49.1172C218.376 49.2545 218.497 49.3693 218.643 49.4616C218.79 49.5516 218.944 49.6262 219.105 49.6854C219.266 49.7422 219.414 49.7884 219.549 49.8239L220.288 50.0227C220.477 50.0724 220.688 50.1411 220.92 50.2287C221.154 50.3163 221.378 50.4358 221.591 50.5874C221.806 50.7365 221.984 50.9283 222.124 51.1626C222.263 51.397 222.333 51.6847 222.333 52.0256C222.333 52.4186 222.23 52.7737 222.024 53.0909C221.821 53.4081 221.522 53.6603 221.129 53.8473C220.739 54.0343 220.264 54.1278 219.705 54.1278C219.184 54.1278 218.733 54.0438 218.352 53.8757C217.973 53.7076 217.675 53.4732 217.457 53.1726C217.242 52.8719 217.12 52.5227 217.092 52.125H218.001C218.024 52.3996 218.117 52.6269 218.278 52.8068C218.441 52.9844 218.647 53.117 218.896 53.2045C219.147 53.2898 219.416 53.3324 219.705 53.3324C220.041 53.3324 220.343 53.2779 220.611 53.169C220.878 53.0578 221.09 52.9039 221.246 52.7074C221.403 52.5085 221.481 52.2765 221.481 52.0114C221.481 51.7699 221.413 51.5734 221.278 51.4219C221.143 51.2704 220.966 51.1473 220.746 51.0526C220.526 50.9579 220.288 50.875 220.032 50.804L219.137 50.5483C218.569 50.3849 218.119 50.1518 217.788 49.8487C217.456 49.5457 217.29 49.1491 217.29 48.6591C217.29 48.2519 217.401 47.8968 217.621 47.5938C217.843 47.2884 218.142 47.0516 218.516 46.8835C218.892 46.7131 219.312 46.6278 219.776 46.6278C220.245 46.6278 220.662 46.7119 221.026 46.88C221.391 47.0457 221.68 47.273 221.893 47.5618C222.108 47.8506 222.222 48.1785 222.234 48.5455H221.381ZM225.954 54.1136C225.429 54.1136 224.975 53.9976 224.594 53.7656C224.215 53.5312 223.923 53.2045 223.717 52.7855C223.514 52.3641 223.412 51.8741 223.412 51.3153C223.412 50.7566 223.514 50.2642 223.717 49.8381C223.923 49.4096 224.21 49.0758 224.577 48.8366C224.946 48.5952 225.377 48.4744 225.869 48.4744C226.153 48.4744 226.434 48.5218 226.711 48.6165C226.988 48.7112 227.24 48.8651 227.467 49.0781C227.694 49.2888 227.876 49.5682 228.01 49.9162C228.145 50.2642 228.213 50.6927 228.213 51.2017V51.5568H224.008V50.8324H227.361C227.361 50.5246 227.299 50.25 227.176 50.0085C227.055 49.767 226.882 49.5765 226.657 49.4368C226.435 49.2971 226.172 49.2273 225.869 49.2273C225.535 49.2273 225.247 49.3101 225.003 49.4759C224.761 49.6392 224.575 49.8523 224.445 50.1151C224.315 50.3778 224.25 50.6596 224.25 50.9602V51.4432C224.25 51.8551 224.321 52.2043 224.463 52.4908C224.607 52.7749 224.807 52.9915 225.063 53.1406C225.319 53.2874 225.616 53.3608 225.954 53.3608C226.175 53.3608 226.373 53.33 226.551 53.2685C226.731 53.2045 226.886 53.1098 227.016 52.9844C227.146 52.8565 227.247 52.6979 227.318 52.5085L228.128 52.7358C228.042 53.0104 227.899 53.2519 227.698 53.4602C227.497 53.6662 227.248 53.8272 226.952 53.9432C226.656 54.0568 226.324 54.1136 225.954 54.1136ZM229.488 54V48.5455H230.297V49.3693H230.354C230.454 49.0994 230.634 48.8804 230.894 48.7124C231.154 48.5443 231.448 48.4602 231.775 48.4602C231.836 48.4602 231.913 48.4614 232.006 48.4638C232.098 48.4661 232.168 48.4697 232.215 48.4744V49.3267C232.187 49.3196 232.122 49.3089 232.02 49.2947C231.92 49.2782 231.815 49.2699 231.704 49.2699C231.439 49.2699 231.202 49.3255 230.993 49.4368C230.787 49.5457 230.624 49.6972 230.503 49.8913C230.385 50.0831 230.326 50.3021 230.326 50.5483V54H229.488ZM237.835 48.5455L235.818 54H234.965L232.948 48.5455H233.857L235.363 52.892H235.42L236.926 48.5455H237.835ZM240.38 54.1278C240.034 54.1278 239.721 54.0627 239.439 53.9325C239.157 53.8 238.933 53.6094 238.768 53.3608C238.602 53.1098 238.519 52.8068 238.519 52.4517C238.519 52.1392 238.581 51.8859 238.704 51.6918C238.827 51.4953 238.991 51.3414 239.197 51.2301C239.403 51.1188 239.631 51.036 239.879 50.9815C240.13 50.9247 240.382 50.8797 240.636 50.8466C240.967 50.804 241.236 50.772 241.442 50.7507C241.65 50.727 241.802 50.688 241.896 50.6335C241.993 50.5791 242.042 50.4844 242.042 50.3494V50.321C242.042 49.9706 241.946 49.6984 241.754 49.5043C241.565 49.3101 241.277 49.2131 240.891 49.2131C240.491 49.2131 240.178 49.3007 239.95 49.4759C239.723 49.651 239.563 49.8381 239.471 50.0369L238.675 49.7528C238.817 49.4214 239.007 49.1634 239.244 48.9787C239.483 48.7917 239.743 48.6615 240.025 48.5881C240.309 48.5123 240.588 48.4744 240.863 48.4744C241.038 48.4744 241.239 48.4957 241.467 48.5384C241.696 48.5786 241.918 48.6626 242.131 48.7905C242.346 48.9183 242.525 49.1113 242.667 49.3693C242.809 49.6274 242.88 49.973 242.88 50.4062V54H242.042V53.2614H241.999C241.942 53.3797 241.848 53.5064 241.715 53.6413C241.583 53.7763 241.406 53.8911 241.186 53.9858C240.966 54.0805 240.697 54.1278 240.38 54.1278ZM240.508 53.375C240.839 53.375 241.119 53.3099 241.346 53.1797C241.576 53.0495 241.748 52.8814 241.864 52.6754C241.983 52.4695 242.042 52.2528 242.042 52.0256V51.2585C242.006 51.3011 241.928 51.3402 241.808 51.3757C241.689 51.4089 241.552 51.4384 241.396 51.4645C241.242 51.4882 241.091 51.5095 240.945 51.5284C240.8 51.545 240.683 51.5592 240.593 51.571C240.375 51.5994 240.172 51.6456 239.982 51.7095C239.795 51.7711 239.644 51.8646 239.528 51.9901C239.414 52.1132 239.357 52.2812 239.357 52.4943C239.357 52.7855 239.465 53.0057 239.68 53.1548C239.898 53.3016 240.174 53.375 240.508 53.375ZM245.248 50.7188V54H244.41V48.5455H245.219V49.3977H245.29C245.418 49.1207 245.612 48.8982 245.873 48.7301C246.133 48.5597 246.469 48.4744 246.881 48.4744C247.251 48.4744 247.574 48.5502 247.851 48.7017C248.128 48.8509 248.343 49.0781 248.497 49.3835C248.651 49.6866 248.728 50.0701 248.728 50.5341V54H247.89V50.5909C247.89 50.1624 247.778 49.8286 247.556 49.5895C247.333 49.348 247.028 49.2273 246.64 49.2273C246.372 49.2273 246.133 49.2853 245.922 49.4013C245.714 49.5173 245.55 49.6866 245.429 49.9091C245.308 50.1316 245.248 50.4015 245.248 50.7188ZM252.631 48.5455V49.2557H249.805V48.5455H252.631ZM250.629 47.2386H251.467V52.4375C251.467 52.6742 251.501 52.8518 251.57 52.9702C251.641 53.0862 251.731 53.1643 251.839 53.2045C251.951 53.2424 252.068 53.2614 252.191 53.2614C252.283 53.2614 252.359 53.2566 252.418 53.2472C252.478 53.2353 252.525 53.2259 252.56 53.2188L252.731 53.9716C252.674 53.9929 252.595 54.0142 252.493 54.0355C252.391 54.0592 252.262 54.071 252.106 54.071C251.869 54.071 251.637 54.0201 251.41 53.9183C251.185 53.8165 250.998 53.6615 250.849 53.4531C250.702 53.2448 250.629 52.982 250.629 52.6648V47.2386Z" fill="#F8F9FA"/>
<path d="M229.083 38.5V36.8333C229.083 35.9493 228.732 35.1014 228.107 34.4763C227.482 33.8512 226.634 33.5 225.75 33.5H220.75C219.866 33.5 219.018 33.8512 218.393 34.4763C217.768 35.1014 217.417 35.9493 217.417 36.8333V38.5" stroke="#F8F9FA" stroke-width="2" stroke-linecap="round" stroke-linejoin="round"/>
<path d="M221.583 33.5L221.583 34.7502C221.583 35.6342 223.042 38.0833 223.25 38.5C223.458 38.0833 224.917 35.6342 224.917 34.7502L224.917 33.5" stroke="#F8F9FA" stroke-width="2" stroke-linecap="round" stroke-linejoin="round"/>
<path d="M223.25 30.1667C225.091 30.1667 226.583 28.6743 226.583 26.8333C226.583 24.9924 225.091 23.5 223.25 23.5C221.409 23.5 219.917 24.9924 219.917 26.8333C219.917 28.6743 221.409 30.1667 223.25 30.1667Z" stroke="#F8F9FA" stroke-width="2" stroke-linecap="round" stroke-linejoin="round"/>
<line x1="214.083" y1="39.1665" x2="232.417" y2="39.9998" stroke="#F8F9FA" stroke-width="2"/>
</svg>
