<svg width="320" height="95" viewBox="0 0 320 95" fill="none" xmlns="http://www.w3.org/2000/svg">
<line x1="171.25" y1="46" x2="242.25" y2="46" stroke="#F8F9FA" stroke-width="2" stroke-linecap="round" stroke-dasharray="4 4"/>
<line x1="52.1994" y1="21.2507" x2="145.501" y2="42.8006" stroke="#F8F9FA" stroke-width="2" stroke-linecap="round" stroke-dasharray="4 4"/>
<line x1="54.2607" y1="45.0108" x2="146.261" y2="46.0001" stroke="#F8F9FA" stroke-width="2" stroke-linecap="round" stroke-dasharray="4 4"/>
<line x1="51.9776" y1="72.7873" x2="146.037" y2="49.2724" stroke="#F8F9FA" stroke-width="2" stroke-linecap="round" stroke-dasharray="4 4"/>
<circle cx="157.25" cy="45" r="9" stroke="#F8F9FA" stroke-width="2"/>
<path d="M148.484 21.8124C148.474 21.7185 148.457 21.6245 148.435 21.5325C148.397 21.3777 148.337 21.2299 148.262 21.0882C148.155 20.8885 148.019 20.7092 147.854 20.551C147.673 20.3776 147.469 20.2356 147.236 20.1364C147.103 20.0799 146.964 20.0348 146.825 19.9974C146.725 19.9706 146.62 19.9659 146.517 19.9505C146.349 19.9251 146.18 19.9377 146.013 19.9577C145.832 19.9794 145.657 20.0255 145.489 20.0921C145.243 20.1895 145.02 20.3243 144.826 20.5C144.534 20.7646 144.327 21.0808 144.214 21.4534C144.159 21.6307 144.128 21.8113 144.125 21.9942C144.122 22.1333 144.137 22.2742 144.161 22.4117C144.184 22.5405 144.219 22.669 144.264 22.792C144.354 23.0336 144.491 23.2506 144.668 23.4423C144.925 23.7217 145.236 23.9266 145.605 24.0457C145.665 24.0652 145.693 24.1056 145.687 24.167C145.687 24.1697 145.687 24.1724 145.687 24.175C145.68 24.3565 145.646 24.5332 145.585 24.7053C145.504 24.9365 145.362 25.1229 145.151 25.2602C145.002 25.3579 144.839 25.4294 144.666 25.4781C144.554 25.5097 144.441 25.5415 144.327 25.5667C144.233 25.5874 144.137 25.5996 144.041 25.6138C143.923 25.6312 143.806 25.6494 143.688 25.6624C143.527 25.6801 143.366 25.6932 143.205 25.7083C143.029 25.7248 142.853 25.741 142.678 25.7579C142.577 25.7676 142.476 25.7764 142.375 25.7892C142.26 25.8038 142.146 25.8216 142.031 25.8393C141.939 25.8535 141.847 25.866 141.756 25.8854C141.633 25.9118 141.509 25.9408 141.388 25.9749C141.27 26.0078 141.155 26.047 141.039 26.0867C140.976 26.1084 140.915 26.1366 140.847 26.1644V26.1064C140.847 24.8831 140.847 23.6598 140.847 22.4365C140.847 22.426 140.848 22.4153 140.847 22.4048C140.845 22.3827 140.855 22.373 140.877 22.3652C140.942 22.3424 141.007 22.3174 141.07 22.2911C141.402 22.1546 141.676 21.9469 141.901 21.6764C142.089 21.4492 142.228 21.1966 142.299 20.9131C142.329 20.7971 142.355 20.6793 142.368 20.5608C142.39 20.3684 142.378 20.1761 142.342 19.9848C142.314 19.8342 142.271 19.6882 142.21 19.5476C142.149 19.4074 142.072 19.2753 141.981 19.1504C141.715 18.7863 141.363 18.5305 140.933 18.3753C140.75 18.3095 140.559 18.2716 140.365 18.2572C140.153 18.2416 139.939 18.2496 139.732 18.298C139.592 18.3305 139.455 18.3753 139.322 18.4275C138.991 18.5575 138.718 18.7644 138.492 19.0302C138.332 19.2194 138.21 19.4297 138.126 19.661C138.074 19.802 138.037 19.9459 138.018 20.0932C137.992 20.2905 137.993 20.4879 138.028 20.6856C138.051 20.8158 138.083 20.9423 138.128 21.067C138.211 21.3027 138.338 21.5152 138.502 21.7059C138.763 22.0085 139.087 22.2257 139.472 22.3549C139.517 22.37 139.532 22.3877 139.532 22.4342C139.53 24.1447 139.531 25.8552 139.531 27.5657C139.531 27.5736 139.53 27.5816 139.531 27.5895C139.533 27.6155 139.524 27.6283 139.496 27.6376C139.423 27.6616 139.35 27.6875 139.28 27.7192C138.981 27.8544 138.723 28.0416 138.511 28.287C138.299 28.5334 138.15 28.8106 138.069 29.1225C138.034 29.2563 138.011 29.3913 138.003 29.5281C137.99 29.7629 138.018 29.9938 138.085 30.2206C138.147 30.4304 138.24 30.6257 138.365 30.8069C138.513 31.0206 138.695 31.2019 138.91 31.3529C139.076 31.469 139.255 31.5607 139.447 31.6276C139.61 31.6844 139.779 31.7254 139.953 31.7375C139.969 31.7386 139.984 31.7457 140 31.75H140.379C140.395 31.7457 140.41 31.7389 140.426 31.7375C140.609 31.722 140.785 31.6778 140.958 31.6165C141.243 31.5151 141.494 31.3614 141.711 31.158C141.963 30.9213 142.148 30.6431 142.261 30.3195C142.315 30.1662 142.351 30.0104 142.368 29.8509C142.385 29.6904 142.381 29.5294 142.359 29.3681C142.338 29.2174 142.302 29.0712 142.251 28.9287C142.186 28.7521 142.098 28.586 141.986 28.4336C141.757 28.1237 141.467 27.8832 141.105 27.7265C141.065 27.7092 141.025 27.6908 140.973 27.6672C141.034 27.6006 141.085 27.538 141.144 27.483C141.259 27.3753 141.4 27.3072 141.548 27.2551C141.64 27.223 141.735 27.1975 141.829 27.1721C141.892 27.1551 141.956 27.142 142.02 27.1297C142.114 27.1118 142.207 27.0931 142.302 27.08C142.435 27.0618 142.568 27.048 142.701 27.0332C142.809 27.0212 142.916 27.01 143.024 26.9997C143.107 26.9916 143.191 26.9861 143.274 26.9783C143.387 26.9677 143.5 26.9563 143.613 26.9446C143.754 26.93 143.896 26.919 144.037 26.8987C144.214 26.8733 144.39 26.8425 144.566 26.8092C144.691 26.7855 144.818 26.7619 144.94 26.7241C145.115 26.6697 145.288 26.6064 145.459 26.5396C145.669 26.4576 145.86 26.3426 146.038 26.2074C146.257 26.0408 146.44 25.8436 146.588 25.6148C146.715 25.42 146.81 25.2128 146.875 24.9931C146.916 24.8541 146.949 24.712 146.971 24.5692C146.995 24.4153 147.004 24.259 147.014 24.1034C147.016 24.0627 147.028 24.0415 147.067 24.0303C147.09 24.0234 147.113 24.0147 147.135 24.0059C147.468 23.8764 147.748 23.6768 147.981 23.4146C148.221 23.1432 148.379 22.8307 148.455 22.4821C148.482 22.36 148.492 22.2338 148.499 22.1089C148.503 22.0104 148.495 21.9107 148.484 21.8124V21.8124ZM140.187 30.0634C139.943 30.0619 139.751 29.8787 139.751 29.6412C139.751 29.4138 139.947 29.2248 140.188 29.2243C140.421 29.2239 140.63 29.4197 140.618 29.6443C140.628 29.8675 140.428 30.0648 140.187 30.0634V30.0634ZM140.185 20.7841C139.946 20.782 139.751 20.5949 139.751 20.3682C139.751 20.1295 139.942 19.9472 140.186 19.9454C140.429 19.9435 140.628 20.1408 140.618 20.3638C140.63 20.5902 140.42 20.7863 140.185 20.7841V20.7841ZM146.309 22.4688C146.072 22.478 145.872 22.2705 145.875 22.0487C145.878 21.8231 146.072 21.6313 146.313 21.6317C146.55 21.6321 146.745 21.8238 146.745 22.0536C146.745 22.2797 146.545 22.4771 146.309 22.4688V22.4688Z" fill="#F8F9FA"/>
<path d="M176.979 24.6765C176.919 24.5203 176.81 24.4417 176.658 24.433C176.642 24.432 176.625 24.4326 176.608 24.4326H170.825C170.751 24.4326 170.76 24.4378 170.76 24.3594C170.76 24.0921 170.76 23.8249 170.76 23.5577V23.499H170.807C171.303 23.499 171.798 23.4999 172.294 23.4986C172.48 23.4981 172.635 23.4148 172.764 23.2682C172.848 23.1731 172.903 23.0601 172.933 22.9324C172.944 22.8894 172.95 22.844 172.95 22.7997C172.951 21.7667 172.953 20.7336 172.949 19.7006C172.949 19.4978 172.863 19.3295 172.729 19.1933C172.637 19.0993 172.53 19.034 172.404 19.0148C172.355 19.0073 172.305 19.0008 172.255 19.0008C170.914 19 169.572 19.0004 168.23 19C167.99 18.9999 167.804 19.114 167.667 19.3278C167.613 19.4116 167.574 19.5048 167.563 19.6092C167.558 19.6588 167.551 19.7087 167.551 19.7584C167.55 20.7582 167.55 21.7579 167.551 22.7578C167.552 23.0299 167.664 23.2366 167.868 23.3849C167.977 23.4646 168.097 23.4996 168.228 23.4994C168.716 23.4984 169.204 23.499 169.693 23.499H169.739C169.739 23.5191 169.741 23.5359 169.741 23.5527C169.741 23.8267 169.741 24.1005 169.741 24.3744C169.741 24.4324 169.741 24.4325 169.687 24.4325C167.749 24.4325 165.811 24.4327 163.873 24.4321C163.747 24.432 163.64 24.4739 163.565 24.5909C163.542 24.6264 163.53 24.6707 163.513 24.7107C163.51 24.7171 163.504 24.722 163.5 24.7276V25.2717C163.507 25.2888 163.514 25.3058 163.52 25.3229C163.581 25.4792 163.69 25.5576 163.841 25.5654C163.857 25.5662 163.873 25.5656 163.888 25.5656H165.973C166.008 25.5656 166.026 25.5852 166.026 25.6242C166.026 25.8978 166.026 26.1714 166.026 26.445C166.026 26.4619 166.024 26.4787 166.024 26.4993H165.975C165.6 26.4993 165.225 26.4999 164.851 26.499C164.611 26.4985 164.425 26.6119 164.286 26.8257C164.232 26.9097 164.193 27.0025 164.182 27.1067C164.176 27.1629 164.17 27.2196 164.17 27.2759C164.169 28.2733 164.168 29.2706 164.17 30.2679C164.171 30.5349 164.285 30.7379 164.485 30.8839C164.597 30.9654 164.719 30.9997 164.852 30.9996C165.977 30.9988 167.103 30.9999 168.228 30.9985C168.474 30.9982 168.66 30.8726 168.793 30.6466C168.865 30.5262 168.896 30.3945 168.896 30.251C168.896 29.2496 168.897 28.2483 168.896 27.247C168.896 26.9714 168.784 26.7625 168.578 26.6125C168.507 26.5613 168.432 26.5253 168.348 26.5138C168.3 26.5073 168.251 26.5002 168.203 26.5C167.832 26.4989 167.461 26.4994 167.089 26.4994H167.044C167.043 26.4814 167.042 26.4673 167.042 26.4532C167.042 26.1738 167.043 25.8946 167.041 25.6154C167.041 25.5747 167.052 25.564 167.088 25.564C169.194 25.5649 171.3 25.5648 173.406 25.5641C173.439 25.5641 173.452 25.5731 173.452 25.6126C173.45 25.8933 173.451 26.1738 173.451 26.4544C173.451 26.4674 173.45 26.4805 173.449 26.4994H173.406C173.03 26.4994 172.654 26.4998 172.278 26.4992C172.039 26.4988 171.854 26.6111 171.716 26.8237C171.661 26.9089 171.622 27.0024 171.61 27.1081C171.605 27.159 171.598 27.2103 171.598 27.2614C171.597 28.2613 171.596 29.2613 171.598 30.2613C171.599 30.5319 171.712 30.7372 171.915 30.8847C172.024 30.9646 172.144 30.9996 172.274 30.9995C173.401 30.999 174.528 30.998 175.655 31C175.952 31.0005 176.208 30.7738 176.293 30.4833C176.313 30.4142 176.323 30.3384 176.323 30.2657C176.325 29.255 176.326 28.2444 176.324 27.2338C176.323 26.9649 176.209 26.7609 176.008 26.6142C175.897 26.5335 175.776 26.4986 175.645 26.499C175.27 26.5001 174.895 26.4994 174.52 26.4994H174.473C174.472 26.481 174.47 26.4644 174.47 26.4478C174.47 26.1725 174.47 25.8973 174.47 25.6221C174.47 25.584 174.487 25.5649 174.521 25.5648C175.226 25.5648 175.931 25.5646 176.637 25.565C176.759 25.565 176.863 25.5203 176.936 25.4073C176.958 25.3717 176.97 25.3275 176.987 25.2874C176.99 25.281 176.996 25.2761 177 25.2705V24.7279C176.993 24.7109 176.986 24.6939 176.98 24.6768L176.979 24.6765ZM167.55 27.9993V29.4914H165.532V27.9993H167.55ZM168.907 21.999V20.5069H171.6V21.999H168.907ZM174.975 27.9993V29.4914H172.957V27.9993H174.975Z" fill="#F8F9FA"/>
<path d="M49 69.3966V70.6029C48.991 70.6249 48.9811 70.6467 48.9732 70.6692C48.9211 70.8163 48.7658 70.9304 48.6066 70.9377C48.5863 70.9387 48.5659 70.9387 48.5455 70.9387C45.4739 70.9387 42.4023 70.9385 39.3306 70.9394C39.1897 70.9394 39.0696 70.8982 38.9765 70.7925C38.9133 70.7206 38.8764 70.6361 38.8762 70.5395C38.8755 70.1789 38.8729 69.8182 38.8773 69.4576C38.8793 69.2924 38.9685 69.1741 39.1159 69.1004C39.1811 69.0679 39.2524 69.0576 39.3261 69.0576C42.4013 69.0581 45.4766 69.058 48.5519 69.0582C48.7417 69.0582 48.8831 69.1382 48.9658 69.3103C48.9793 69.3381 48.9887 69.3678 49 69.3966Z" fill="#F8F9FA"/>
<path d="M49 77.736V78.9423C48.991 78.9644 48.9811 78.9861 48.9732 79.0085C48.9211 79.1556 48.7658 79.2698 48.6066 79.2771C48.5863 79.2781 48.5659 79.2781 48.5455 79.2781C45.4739 79.2781 42.4022 79.2779 39.3306 79.2787C39.1897 79.2788 39.0695 79.2376 38.9765 79.1318C38.9133 79.0601 38.8764 78.9755 38.8762 78.8789C38.8755 78.5183 38.8729 78.1576 38.8773 77.797C38.8793 77.6318 38.9685 77.5135 39.1159 77.4399C39.1811 77.4073 39.2524 77.397 39.3261 77.397C42.4013 77.3975 45.4766 77.3973 48.5519 77.3975C48.7417 77.3975 48.8831 77.4776 48.9658 77.6496C48.9793 77.6775 48.9887 77.7072 49 77.736Z" fill="#F8F9FA"/>
<path d="M48.9997 73.5697V74.7689C48.991 74.7914 48.9822 74.8139 48.9734 74.8364C48.9222 74.966 48.8303 75.0536 48.6937 75.0886C48.6428 75.1015 48.5881 75.1044 48.5352 75.1044C46.5618 75.1052 44.5885 75.105 42.6152 75.105C41.519 75.105 40.4228 75.1044 39.3267 75.1059C39.2057 75.1061 39.0987 75.0786 39.0098 74.9958C38.925 74.917 38.8761 74.8206 38.8759 74.704C38.8752 74.3481 38.8761 73.9922 38.8754 73.6362C38.875 73.4286 39.0513 73.2463 39.2503 73.2334C39.2873 73.2311 39.3244 73.2285 39.3614 73.2285C42.4177 73.2282 45.4741 73.2283 48.5304 73.228C48.6411 73.228 48.7455 73.2449 48.8353 73.3151C48.9119 73.3752 48.9653 73.4497 48.9869 73.5452C48.9889 73.5538 48.9954 73.5616 48.9997 73.5697Z" fill="#F8F9FA"/>
<path d="M38.0356 74.9864C38.0353 75.1839 37.9264 75.3359 37.7396 75.4005C37.7052 75.4124 37.6673 75.42 37.6311 75.4201C37.0555 75.4213 36.4799 75.423 35.9043 75.4196C35.7235 75.4186 35.5531 75.2813 35.5159 75.1041C35.5078 75.0654 35.5031 75.0254 35.5028 74.9859C35.5018 74.7128 35.5023 74.4396 35.5023 74.1665C35.5023 73.8934 35.5053 73.6177 35.5013 73.3434C35.4984 73.1395 35.6374 72.9776 35.8113 72.9306C35.85 72.9202 35.8915 72.9155 35.9317 72.9155C36.4894 72.9145 37.047 72.9142 37.6046 72.915C37.8085 72.9154 37.9739 73.0436 38.0236 73.2384C38.0325 73.2736 38.0353 73.311 38.0354 73.3474C38.0361 73.8937 38.0364 74.4401 38.0356 74.9864Z" fill="#F8F9FA"/>
<path d="M38.0333 70.8201C38.0328 70.984 37.9636 71.1137 37.8165 71.1972C37.7628 71.2277 37.7056 71.2483 37.6428 71.2491C37.5638 71.2502 37.4849 71.2507 37.406 71.2507C36.919 71.2508 36.4321 71.2498 35.9452 71.2515C35.8273 71.2518 35.7228 71.221 35.6364 71.1416C35.5493 71.0618 35.5004 70.9629 35.5004 70.8433C35.5004 70.2805 35.5009 69.7178 35.5 69.1551C35.4997 68.9863 35.622 68.8301 35.766 68.7777C35.8244 68.7564 35.8827 68.7501 35.9431 68.7501C36.2171 68.75 36.4911 68.7501 36.7651 68.7501V68.7508C37.0521 68.7508 37.3393 68.7486 37.6264 68.7516C37.7893 68.7533 37.9067 68.8342 37.9846 68.9741C38.0201 69.0379 38.0335 69.1068 38.0336 69.178C38.0342 69.7254 38.035 70.2727 38.0333 70.8201Z" fill="#F8F9FA"/>
<path d="M38.0386 79.1586C38.0382 79.344 37.9386 79.497 37.7508 79.567C37.7203 79.5784 37.6857 79.5841 37.6531 79.5841C37.0645 79.5851 36.4758 79.5863 35.8873 79.5838C35.7418 79.5832 35.593 79.4749 35.5337 79.3252C35.5128 79.2723 35.5046 79.2176 35.5048 79.1602C35.5058 78.6105 35.5071 78.0608 35.5044 77.511C35.5035 77.3165 35.6228 77.1651 35.789 77.1073C35.8379 77.0903 35.8938 77.0879 35.9466 77.0875C36.2217 77.0857 36.4969 77.0867 36.772 77.0867V77.0875C37.0591 77.0875 37.3463 77.0851 37.6334 77.0883C37.7949 77.0902 37.9113 77.1715 37.9891 77.3093C38.0249 77.3726 38.0386 77.4417 38.0386 77.513C38.0392 78.0615 38.0396 78.6101 38.0386 79.1586Z" fill="#F8F9FA"/>
<path d="M49 16.3966V17.6029C48.991 17.6249 48.9811 17.6467 48.9732 17.6692C48.9211 17.8163 48.7658 17.9304 48.6066 17.9377C48.5863 17.9387 48.5659 17.9387 48.5455 17.9387C45.4739 17.9387 42.4023 17.9385 39.3306 17.9394C39.1897 17.9394 39.0696 17.8982 38.9765 17.7925C38.9133 17.7206 38.8764 17.6361 38.8762 17.5395C38.8755 17.1789 38.8729 16.8182 38.8773 16.4576C38.8793 16.2924 38.9685 16.1741 39.1159 16.1004C39.1811 16.0679 39.2524 16.0576 39.3261 16.0576C42.4013 16.0581 45.4766 16.058 48.5519 16.0582C48.7417 16.0582 48.8831 16.1382 48.9658 16.3103C48.9793 16.3381 48.9887 16.3678 49 16.3966Z" fill="#F8F9FA"/>
<path d="M49 24.736V25.9423C48.991 25.9644 48.9811 25.9861 48.9732 26.0085C48.9211 26.1556 48.7658 26.2698 48.6066 26.2771C48.5863 26.2781 48.5659 26.2781 48.5455 26.2781C45.4739 26.2781 42.4022 26.2779 39.3306 26.2787C39.1897 26.2788 39.0695 26.2376 38.9765 26.1318C38.9133 26.0601 38.8764 25.9755 38.8762 25.8789C38.8755 25.5183 38.8729 25.1576 38.8773 24.797C38.8793 24.6318 38.9685 24.5135 39.1159 24.4399C39.1811 24.4073 39.2524 24.397 39.3261 24.397C42.4013 24.3975 45.4766 24.3973 48.5519 24.3975C48.7417 24.3975 48.8831 24.4776 48.9658 24.6496C48.9793 24.6775 48.9887 24.7072 49 24.736Z" fill="#F8F9FA"/>
<path d="M48.9997 20.5697V21.7689C48.991 21.7914 48.9822 21.8139 48.9734 21.8364C48.9222 21.966 48.8303 22.0536 48.6937 22.0886C48.6428 22.1015 48.5881 22.1044 48.5352 22.1044C46.5618 22.1052 44.5885 22.105 42.6152 22.105C41.519 22.105 40.4228 22.1044 39.3267 22.1059C39.2057 22.1061 39.0987 22.0786 39.0098 21.9958C38.925 21.917 38.8761 21.8206 38.8759 21.704C38.8752 21.3481 38.8761 20.9922 38.8754 20.6362C38.875 20.4286 39.0513 20.2463 39.2503 20.2334C39.2873 20.2311 39.3244 20.2285 39.3614 20.2285C42.4177 20.2282 45.4741 20.2283 48.5304 20.228C48.6411 20.228 48.7455 20.2449 48.8353 20.3151C48.9119 20.3752 48.9653 20.4497 48.9869 20.5452C48.9889 20.5538 48.9954 20.5616 48.9997 20.5697Z" fill="#F8F9FA"/>
<path d="M38.0356 21.9864C38.0353 22.1839 37.9264 22.3359 37.7396 22.4005C37.7052 22.4124 37.6673 22.42 37.6311 22.4201C37.0555 22.4213 36.4799 22.423 35.9043 22.4196C35.7235 22.4186 35.5531 22.2813 35.5159 22.1041C35.5078 22.0654 35.5031 22.0254 35.5028 21.9859C35.5018 21.7128 35.5023 21.4396 35.5023 21.1665C35.5023 20.8934 35.5053 20.6177 35.5013 20.3434C35.4984 20.1395 35.6374 19.9776 35.8113 19.9306C35.85 19.9202 35.8915 19.9155 35.9317 19.9155C36.4894 19.9145 37.047 19.9142 37.6046 19.915C37.8085 19.9154 37.9739 20.0436 38.0236 20.2384C38.0325 20.2736 38.0353 20.311 38.0354 20.3474C38.0361 20.8937 38.0364 21.4401 38.0356 21.9864Z" fill="#F8F9FA"/>
<path d="M38.0333 17.8201C38.0328 17.984 37.9636 18.1137 37.8165 18.1972C37.7628 18.2277 37.7056 18.2483 37.6428 18.2491C37.5638 18.2502 37.4849 18.2507 37.406 18.2507C36.919 18.2508 36.4321 18.2498 35.9452 18.2515C35.8273 18.2518 35.7228 18.221 35.6364 18.1416C35.5493 18.0618 35.5004 17.9629 35.5004 17.8433C35.5004 17.2805 35.5009 16.7178 35.5 16.1551C35.4997 15.9863 35.622 15.8301 35.766 15.7777C35.8244 15.7564 35.8827 15.7501 35.9431 15.7501C36.2171 15.75 36.4911 15.7501 36.7651 15.7501V15.7508C37.0521 15.7508 37.3393 15.7486 37.6264 15.7516C37.7893 15.7533 37.9067 15.8342 37.9846 15.9741C38.0201 16.0379 38.0335 16.1068 38.0336 16.178C38.0342 16.7254 38.035 17.2727 38.0333 17.8201Z" fill="#F8F9FA"/>
<path d="M38.0386 26.1586C38.0382 26.344 37.9386 26.497 37.7508 26.567C37.7203 26.5784 37.6857 26.5841 37.6531 26.5841C37.0645 26.5851 36.4758 26.5863 35.8873 26.5838C35.7418 26.5832 35.593 26.4749 35.5337 26.3252C35.5128 26.2723 35.5046 26.2176 35.5048 26.1602C35.5058 25.6105 35.5071 25.0608 35.5044 24.511C35.5035 24.3165 35.6228 24.1651 35.789 24.1073C35.8379 24.0903 35.8938 24.0879 35.9466 24.0875C36.2217 24.0857 36.4969 24.0867 36.772 24.0867V24.0875C37.0591 24.0875 37.3463 24.0851 37.6334 24.0883C37.7949 24.0902 37.9113 24.1715 37.9891 24.3093C38.0249 24.3726 38.0386 24.4417 38.0386 24.513C38.0392 25.0615 38.0396 25.6101 38.0386 26.1586Z" fill="#F8F9FA"/>
<path d="M49 41.3966V42.6029C48.991 42.6249 48.9811 42.6467 48.9732 42.6692C48.9211 42.8163 48.7658 42.9304 48.6066 42.9377C48.5863 42.9387 48.5659 42.9387 48.5455 42.9387C45.4739 42.9387 42.4023 42.9385 39.3306 42.9394C39.1897 42.9394 39.0696 42.8982 38.9765 42.7925C38.9133 42.7206 38.8764 42.6361 38.8762 42.5395C38.8755 42.1789 38.8729 41.8182 38.8773 41.4576C38.8793 41.2924 38.9685 41.1741 39.1159 41.1004C39.1811 41.0679 39.2524 41.0576 39.3261 41.0576C42.4013 41.0581 45.4766 41.058 48.5519 41.0582C48.7417 41.0582 48.8831 41.1382 48.9658 41.3103C48.9793 41.3381 48.9887 41.3678 49 41.3966Z" fill="#F8F9FA"/>
<path d="M49 49.736V50.9423C48.991 50.9644 48.9811 50.9861 48.9732 51.0085C48.9211 51.1556 48.7658 51.2698 48.6066 51.2771C48.5863 51.2781 48.5659 51.2781 48.5455 51.2781C45.4739 51.2781 42.4022 51.2779 39.3306 51.2787C39.1897 51.2788 39.0695 51.2376 38.9765 51.1318C38.9133 51.0601 38.8764 50.9755 38.8762 50.8789C38.8755 50.5183 38.8729 50.1576 38.8773 49.797C38.8793 49.6318 38.9685 49.5135 39.1159 49.4399C39.1811 49.4073 39.2524 49.397 39.3261 49.397C42.4013 49.3975 45.4766 49.3973 48.5519 49.3975C48.7417 49.3975 48.8831 49.4776 48.9658 49.6496C48.9793 49.6775 48.9887 49.7072 49 49.736Z" fill="#F8F9FA"/>
<path d="M48.9997 45.5697V46.7689C48.991 46.7914 48.9822 46.8139 48.9734 46.8364C48.9222 46.966 48.8303 47.0536 48.6937 47.0886C48.6428 47.1015 48.5881 47.1044 48.5352 47.1044C46.5618 47.1052 44.5885 47.105 42.6152 47.105C41.519 47.105 40.4228 47.1044 39.3267 47.1059C39.2057 47.1061 39.0987 47.0786 39.0098 46.9958C38.925 46.917 38.8761 46.8206 38.8759 46.704C38.8752 46.3481 38.8761 45.9922 38.8754 45.6362C38.875 45.4286 39.0513 45.2463 39.2503 45.2334C39.2873 45.2311 39.3244 45.2285 39.3614 45.2285C42.4177 45.2282 45.4741 45.2283 48.5304 45.228C48.6411 45.228 48.7455 45.2449 48.8353 45.3151C48.9119 45.3752 48.9653 45.4497 48.9869 45.5452C48.9889 45.5538 48.9954 45.5616 48.9997 45.5697Z" fill="#F8F9FA"/>
<path d="M38.0356 46.9864C38.0353 47.1839 37.9264 47.3359 37.7396 47.4005C37.7052 47.4124 37.6673 47.42 37.6311 47.4201C37.0555 47.4213 36.4799 47.423 35.9043 47.4196C35.7235 47.4186 35.5531 47.2813 35.5159 47.1041C35.5078 47.0654 35.5031 47.0254 35.5028 46.9859C35.5018 46.7128 35.5023 46.4396 35.5023 46.1665C35.5023 45.8934 35.5053 45.6177 35.5013 45.3434C35.4984 45.1395 35.6374 44.9776 35.8113 44.9306C35.85 44.9202 35.8915 44.9155 35.9317 44.9155C36.4894 44.9145 37.047 44.9142 37.6046 44.915C37.8085 44.9154 37.9739 45.0436 38.0236 45.2384C38.0325 45.2736 38.0353 45.311 38.0354 45.3474C38.0361 45.8937 38.0364 46.4401 38.0356 46.9864Z" fill="#F8F9FA"/>
<path d="M38.0333 42.8201C38.0328 42.984 37.9636 43.1137 37.8165 43.1972C37.7628 43.2277 37.7056 43.2483 37.6428 43.2491C37.5638 43.2502 37.4849 43.2507 37.406 43.2507C36.919 43.2508 36.4321 43.2498 35.9452 43.2515C35.8273 43.2518 35.7228 43.221 35.6364 43.1416C35.5493 43.0618 35.5004 42.9629 35.5004 42.8433C35.5004 42.2805 35.5009 41.7178 35.5 41.1551C35.4997 40.9863 35.622 40.8301 35.766 40.7777C35.8244 40.7564 35.8827 40.7501 35.9431 40.7501C36.2171 40.75 36.4911 40.7501 36.7651 40.7501V40.7508C37.0521 40.7508 37.3393 40.7486 37.6264 40.7516C37.7893 40.7533 37.9067 40.8342 37.9846 40.9741C38.0201 41.0379 38.0335 41.1068 38.0336 41.178C38.0342 41.7254 38.035 42.2727 38.0333 42.8201Z" fill="#F8F9FA"/>
<path d="M38.0386 51.1586C38.0382 51.344 37.9386 51.497 37.7508 51.567C37.7203 51.5784 37.6857 51.5841 37.6531 51.5841C37.0645 51.5851 36.4758 51.5863 35.8873 51.5838C35.7418 51.5832 35.593 51.4749 35.5337 51.3252C35.5128 51.2723 35.5046 51.2176 35.5048 51.1602C35.5058 50.6105 35.5071 50.0608 35.5044 49.511C35.5035 49.3165 35.6228 49.1651 35.789 49.1073C35.8379 49.0903 35.8938 49.0879 35.9466 49.0875C36.2217 49.0857 36.4969 49.0867 36.772 49.0867V49.0875C37.0591 49.0875 37.3463 49.0851 37.6334 49.0883C37.7949 49.0902 37.9113 49.1715 37.9891 49.3093C38.0249 49.3726 38.0386 49.4417 38.0386 49.513C38.0392 50.0615 38.0396 50.6101 38.0386 51.1586Z" fill="#F8F9FA"/>
<path d="M161.037 49.25H153.47C153.462 49.2468 153.454 49.2423 153.446 49.2404C153.391 49.2287 153.334 49.2225 153.281 49.2054C153.104 49.1479 152.951 49.0509 152.829 48.9111C152.664 48.7224 152.584 48.5018 152.584 48.2534C152.583 46.9492 152.583 45.645 152.584 44.3407C152.584 44.2142 152.603 44.0902 152.651 43.9717C152.71 43.8264 152.797 43.7002 152.915 43.5954C153.067 43.4609 153.244 43.3793 153.446 43.3505C153.521 43.3397 153.599 43.3403 153.675 43.3393C153.799 43.3376 153.922 43.3388 154.046 43.3388H154.084C154.084 43.3224 154.084 43.3097 154.084 43.297C154.084 42.8121 154.083 42.3273 154.085 41.8425C154.086 41.733 154.097 41.6235 154.106 41.5142C154.119 41.3627 154.147 41.2128 154.193 41.0674C154.231 40.9423 154.273 40.8177 154.319 40.695C154.386 40.5166 154.478 40.35 154.582 40.1898C154.757 39.9211 154.968 39.6846 155.216 39.4793C155.45 39.2862 155.706 39.1297 155.985 39.0085C156.151 38.9364 156.323 38.8809 156.498 38.8357C156.586 38.8129 156.677 38.7955 156.767 38.7824C156.871 38.7675 156.975 38.7536 157.08 38.7511C157.22 38.7478 157.36 38.7525 157.501 38.7585C157.662 38.7654 157.821 38.791 157.977 38.8309C158.052 38.8499 158.128 38.8651 158.2 38.8895C158.314 38.9275 158.427 38.9669 158.537 39.0146C158.768 39.1152 158.984 39.2425 159.184 39.3954C159.435 39.5863 159.652 39.8078 159.836 40.0619C160.002 40.2923 160.134 40.5399 160.232 40.8058C160.289 40.9612 160.333 41.12 160.366 41.2815C160.386 41.3806 160.4 41.4813 160.409 41.5819C160.418 41.6918 160.421 41.8026 160.421 41.913C160.423 42.3749 160.422 42.8369 160.422 43.2988V43.3388C160.438 43.3388 160.449 43.3388 160.46 43.3388C160.561 43.3388 160.662 43.3363 160.763 43.3395C160.877 43.3431 160.991 43.3486 161.104 43.3597C161.191 43.3684 161.273 43.3999 161.351 43.4378C161.555 43.5357 161.709 43.6826 161.812 43.8819C161.877 44.0081 161.916 44.14 161.916 44.2827C161.916 45.6098 161.915 46.937 161.917 48.2641C161.917 48.3898 161.898 48.5096 161.851 48.6264C161.788 48.7847 161.69 48.9182 161.557 49.0254C161.412 49.1428 161.247 49.2182 161.058 49.2407C161.051 49.2416 161.044 49.2468 161.037 49.2499V49.25ZM157.253 43.3449C157.736 43.3449 158.219 43.3449 158.703 43.3449C158.735 43.3449 158.751 43.3294 158.751 43.2984C158.751 42.8365 158.751 42.3747 158.751 41.9128C158.751 41.7917 158.741 41.6715 158.714 41.5525C158.679 41.3949 158.619 41.2473 158.534 41.1102C158.367 40.8416 158.137 40.6437 157.844 40.517C157.707 40.4579 157.563 40.419 157.415 40.4052C157.268 40.3915 157.12 40.3944 156.972 40.4228C156.843 40.4478 156.718 40.4871 156.6 40.544C156.362 40.6588 156.167 40.8244 156.016 41.0399C155.888 41.2221 155.808 41.4235 155.771 41.6407C155.757 41.7245 155.755 41.811 155.755 41.8962C155.754 42.365 155.754 42.8338 155.754 43.3027C155.754 43.3309 155.768 43.3449 155.797 43.345C156.282 43.345 156.767 43.345 157.253 43.345L157.253 43.3449Z" fill="#F8F9FA"/>
<path d="M233.483 61H232.602C232.55 60.7467 232.459 60.5241 232.329 60.3324C232.201 60.1406 232.045 59.9796 231.86 59.8494C231.678 59.7169 231.475 59.6174 231.253 59.5511C231.03 59.4848 230.798 59.4517 230.557 59.4517C230.116 59.4517 229.718 59.563 229.36 59.7855C229.005 60.008 228.722 60.3359 228.511 60.7692C228.303 61.2024 228.199 61.7339 228.199 62.3636C228.199 62.9934 228.303 63.5249 228.511 63.9581C228.722 64.3913 229.005 64.7192 229.36 64.9418C229.718 65.1643 230.116 65.2756 230.557 65.2756C230.798 65.2756 231.03 65.2424 231.253 65.1761C231.475 65.1098 231.678 65.0116 231.86 64.8814C232.045 64.7488 232.201 64.5866 232.329 64.3949C232.459 64.2008 232.55 63.9782 232.602 63.7273H233.483C233.417 64.099 233.296 64.4316 233.121 64.7251C232.946 65.0187 232.728 65.2685 232.467 65.4744C232.207 65.678 231.915 65.8331 231.59 65.9396C231.268 66.0462 230.924 66.0994 230.557 66.0994C229.937 66.0994 229.385 65.9479 228.902 65.6449C228.419 65.3419 228.039 64.911 227.762 64.3523C227.485 63.7936 227.347 63.1307 227.347 62.3636C227.347 61.5966 227.485 60.9337 227.762 60.375C228.039 59.8163 228.419 59.3854 228.902 59.0824C229.385 58.7794 229.937 58.6278 230.557 58.6278C230.924 58.6278 231.268 58.6811 231.59 58.7876C231.915 58.8942 232.207 59.0504 232.467 59.2564C232.728 59.46 232.946 59.7086 233.121 60.0021C233.296 60.2933 233.417 60.6259 233.483 61ZM234.792 66V60.5455H235.631V66H234.792ZM235.219 59.6364C235.055 59.6364 234.914 59.5807 234.796 59.4695C234.68 59.3582 234.622 59.2244 234.622 59.0682C234.622 58.9119 234.68 58.7782 234.796 58.6669C234.914 58.5556 235.055 58.5 235.219 58.5C235.382 58.5 235.522 58.5556 235.638 58.6669C235.756 58.7782 235.815 58.9119 235.815 59.0682C235.815 59.2244 235.756 59.3582 235.638 59.4695C235.522 59.5807 235.382 59.6364 235.219 59.6364ZM241.626 60.5455L239.609 66H238.756L236.739 60.5455H237.648L239.154 64.892H239.211L240.717 60.5455H241.626ZM242.732 66V60.5455H243.57V66H242.732ZM243.158 59.6364C242.995 59.6364 242.854 59.5807 242.735 59.4695C242.619 59.3582 242.561 59.2244 242.561 59.0682C242.561 58.9119 242.619 58.7782 242.735 58.6669C242.854 58.5556 242.995 58.5 243.158 58.5C243.321 58.5 243.461 58.5556 243.577 58.6669C243.695 58.7782 243.755 58.9119 243.755 59.0682C243.755 59.2244 243.695 59.3582 243.577 59.4695C243.461 59.5807 243.321 59.6364 243.158 59.6364ZM245.943 58.7273V66H245.105V58.7273H245.943ZM254.381 60.5455C254.339 60.1856 254.166 59.9062 253.863 59.7074C253.56 59.5085 253.188 59.4091 252.748 59.4091C252.426 59.4091 252.144 59.4612 251.903 59.5653C251.664 59.6695 251.477 59.8127 251.342 59.995C251.209 60.1773 251.143 60.3845 251.143 60.6165C251.143 60.8106 251.189 60.9775 251.281 61.1172C251.376 61.2545 251.497 61.3693 251.643 61.4616C251.79 61.5516 251.944 61.6262 252.105 61.6854C252.266 61.7422 252.414 61.7884 252.549 61.8239L253.288 62.0227C253.477 62.0724 253.688 62.1411 253.92 62.2287C254.154 62.3163 254.378 62.4358 254.591 62.5874C254.806 62.7365 254.984 62.9283 255.124 63.1626C255.263 63.397 255.333 63.6847 255.333 64.0256C255.333 64.4186 255.23 64.7737 255.024 65.0909C254.821 65.4081 254.522 65.6603 254.129 65.8473C253.739 66.0343 253.264 66.1278 252.705 66.1278C252.184 66.1278 251.733 66.0438 251.352 65.8757C250.973 65.7076 250.675 65.4732 250.457 65.1726C250.242 64.8719 250.12 64.5227 250.092 64.125H251.001C251.024 64.3996 251.117 64.6269 251.278 64.8068C251.441 64.9844 251.647 65.117 251.896 65.2045C252.147 65.2898 252.416 65.3324 252.705 65.3324C253.041 65.3324 253.343 65.2779 253.611 65.169C253.878 65.0578 254.09 64.9039 254.246 64.7074C254.403 64.5085 254.481 64.2765 254.481 64.0114C254.481 63.7699 254.413 63.5734 254.278 63.4219C254.143 63.2704 253.966 63.1473 253.746 63.0526C253.526 62.9579 253.288 62.875 253.032 62.804L252.137 62.5483C251.569 62.3849 251.119 62.1518 250.788 61.8487C250.456 61.5457 250.29 61.1491 250.29 60.6591C250.29 60.2519 250.401 59.8968 250.621 59.5938C250.843 59.2884 251.142 59.0516 251.516 58.8835C251.892 58.7131 252.312 58.6278 252.776 58.6278C253.245 58.6278 253.662 58.7119 254.026 58.88C254.391 59.0457 254.68 59.273 254.893 59.5618C255.108 59.8506 255.222 60.1785 255.234 60.5455H254.381ZM258.954 66.1136C258.429 66.1136 257.975 65.9976 257.594 65.7656C257.215 65.5312 256.923 65.2045 256.717 64.7855C256.514 64.3641 256.412 63.8741 256.412 63.3153C256.412 62.7566 256.514 62.2642 256.717 61.8381C256.923 61.4096 257.21 61.0758 257.577 60.8366C257.946 60.5952 258.377 60.4744 258.869 60.4744C259.153 60.4744 259.434 60.5218 259.711 60.6165C259.988 60.7112 260.24 60.8651 260.467 61.0781C260.694 61.2888 260.876 61.5682 261.01 61.9162C261.145 62.2642 261.213 62.6927 261.213 63.2017V63.5568H257.008V62.8324H260.361C260.361 62.5246 260.299 62.25 260.176 62.0085C260.055 61.767 259.882 61.5765 259.657 61.4368C259.435 61.2971 259.172 61.2273 258.869 61.2273C258.535 61.2273 258.247 61.3101 258.003 61.4759C257.761 61.6392 257.575 61.8523 257.445 62.1151C257.315 62.3778 257.25 62.6596 257.25 62.9602V63.4432C257.25 63.8551 257.321 64.2043 257.463 64.4908C257.607 64.7749 257.807 64.9915 258.063 65.1406C258.319 65.2874 258.616 65.3608 258.954 65.3608C259.175 65.3608 259.373 65.33 259.551 65.2685C259.731 65.2045 259.886 65.1098 260.016 64.9844C260.146 64.8565 260.247 64.6979 260.318 64.5085L261.128 64.7358C261.042 65.0104 260.899 65.2519 260.698 65.4602C260.497 65.6662 260.248 65.8272 259.952 65.9432C259.656 66.0568 259.324 66.1136 258.954 66.1136ZM262.488 66V60.5455H263.297V61.3693H263.354C263.454 61.0994 263.634 60.8804 263.894 60.7124C264.154 60.5443 264.448 60.4602 264.775 60.4602C264.836 60.4602 264.913 60.4614 265.006 60.4638C265.098 60.4661 265.168 60.4697 265.215 60.4744V61.3267C265.187 61.3196 265.122 61.3089 265.02 61.2947C264.92 61.2782 264.815 61.2699 264.704 61.2699C264.439 61.2699 264.202 61.3255 263.993 61.4368C263.787 61.5457 263.624 61.6972 263.503 61.8913C263.385 62.0831 263.326 62.3021 263.326 62.5483V66H262.488ZM270.835 60.5455L268.818 66H267.965L265.948 60.5455H266.857L268.363 64.892H268.42L269.926 60.5455H270.835ZM273.38 66.1278C273.034 66.1278 272.721 66.0627 272.439 65.9325C272.157 65.8 271.933 65.6094 271.768 65.3608C271.602 65.1098 271.519 64.8068 271.519 64.4517C271.519 64.1392 271.581 63.8859 271.704 63.6918C271.827 63.4953 271.991 63.3414 272.197 63.2301C272.403 63.1188 272.631 63.036 272.879 62.9815C273.13 62.9247 273.382 62.8797 273.636 62.8466C273.967 62.804 274.236 62.772 274.442 62.7507C274.65 62.727 274.802 62.688 274.896 62.6335C274.993 62.5791 275.042 62.4844 275.042 62.3494V62.321C275.042 61.9706 274.946 61.6984 274.754 61.5043C274.565 61.3101 274.277 61.2131 273.891 61.2131C273.491 61.2131 273.178 61.3007 272.95 61.4759C272.723 61.651 272.563 61.8381 272.471 62.0369L271.675 61.7528C271.817 61.4214 272.007 61.1634 272.244 60.9787C272.483 60.7917 272.743 60.6615 273.025 60.5881C273.309 60.5123 273.588 60.4744 273.863 60.4744C274.038 60.4744 274.239 60.4957 274.467 60.5384C274.696 60.5786 274.918 60.6626 275.131 60.7905C275.346 60.9183 275.525 61.1113 275.667 61.3693C275.809 61.6274 275.88 61.973 275.88 62.4062V66H275.042V65.2614H274.999C274.942 65.3797 274.848 65.5064 274.715 65.6413C274.583 65.7763 274.406 65.8911 274.186 65.9858C273.966 66.0805 273.697 66.1278 273.38 66.1278ZM273.508 65.375C273.839 65.375 274.119 65.3099 274.346 65.1797C274.576 65.0495 274.748 64.8814 274.864 64.6754C274.983 64.4695 275.042 64.2528 275.042 64.0256V63.2585C275.006 63.3011 274.928 63.3402 274.808 63.3757C274.689 63.4089 274.552 63.4384 274.396 63.4645C274.242 63.4882 274.091 63.5095 273.945 63.5284C273.8 63.545 273.683 63.5592 273.593 63.571C273.375 63.5994 273.172 63.6456 272.982 63.7095C272.795 63.7711 272.644 63.8646 272.528 63.9901C272.414 64.1132 272.357 64.2812 272.357 64.4943C272.357 64.7855 272.465 65.0057 272.68 65.1548C272.898 65.3016 273.174 65.375 273.508 65.375ZM278.248 62.7188V66H277.41V60.5455H278.219V61.3977H278.29C278.418 61.1207 278.612 60.8982 278.873 60.7301C279.133 60.5597 279.469 60.4744 279.881 60.4744C280.251 60.4744 280.574 60.5502 280.851 60.7017C281.128 60.8509 281.343 61.0781 281.497 61.3835C281.651 61.6866 281.728 62.0701 281.728 62.5341V66H280.89V62.5909C280.89 62.1624 280.778 61.8286 280.556 61.5895C280.333 61.348 280.028 61.2273 279.64 61.2273C279.372 61.2273 279.133 61.2853 278.922 61.4013C278.714 61.5173 278.55 61.6866 278.429 61.9091C278.308 62.1316 278.248 62.4015 278.248 62.7188ZM285.631 60.5455V61.2557H282.805V60.5455H285.631ZM283.629 59.2386H284.467V64.4375C284.467 64.6742 284.501 64.8518 284.57 64.9702C284.641 65.0862 284.731 65.1643 284.839 65.2045C284.951 65.2424 285.068 65.2614 285.191 65.2614C285.283 65.2614 285.359 65.2566 285.418 65.2472C285.478 65.2353 285.525 65.2259 285.56 65.2188L285.731 65.9716C285.674 65.9929 285.595 66.0142 285.493 66.0355C285.391 66.0592 285.262 66.071 285.106 66.071C284.869 66.071 284.637 66.0201 284.41 65.9183C284.185 65.8165 283.998 65.6615 283.849 65.4531C283.702 65.2448 283.629 64.982 283.629 64.6648V59.2386Z" fill="#F8F9FA"/>
<path d="M262.083 50.5V48.8333C262.083 47.9493 261.732 47.1014 261.107 46.4763C260.482 45.8512 259.634 45.5 258.75 45.5H253.75C252.866 45.5 252.018 45.8512 251.393 46.4763C250.768 47.1014 250.417 47.9493 250.417 48.8333V50.5" stroke="#F8F9FA" stroke-width="2" stroke-linecap="round" stroke-linejoin="round"/>
<path d="M254.583 45.5L254.583 46.7502C254.583 47.6342 256.042 50.0833 256.25 50.5C256.458 50.0833 257.917 47.6342 257.917 46.7502L257.917 45.5" stroke="#F8F9FA" stroke-width="2" stroke-linecap="round" stroke-linejoin="round"/>
<path d="M256.25 42.1667C258.091 42.1667 259.583 40.6743 259.583 38.8333C259.583 36.9924 258.091 35.5 256.25 35.5C254.409 35.5 252.917 36.9924 252.917 38.8333C252.917 40.6743 254.409 42.1667 256.25 42.1667Z" stroke="#F8F9FA" stroke-width="2" stroke-linecap="round" stroke-linejoin="round"/>
<line x1="247.083" y1="51.1665" x2="265.417" y2="51.9998" stroke="#F8F9FA" stroke-width="2"/>
</svg>
