<svg width="320" height="62" viewBox="0 0 320 62" fill="none" xmlns="http://www.w3.org/2000/svg">
<line x1="69.5" y1="24" x2="137.5" y2="24" stroke="#F8F9FA" stroke-width="2" stroke-linecap="round" stroke-dasharray="4 4"/>
<line x1="69.5" y1="24" x2="137.5" y2="24" stroke="#F8F9FA" stroke-width="2" stroke-linecap="round" stroke-dasharray="4 4"/>
<line x1="158.5" y1="24" x2="226.5" y2="24" stroke="#F8F9FA" stroke-width="2" stroke-linecap="round" stroke-dasharray="4 4"/>
<circle cx="148.5" cy="24" r="9" stroke="#F8F9FA" stroke-width="2"/>
<path d="M66.25 19.3966V20.6029C66.241 20.6249 66.231 20.6467 66.2231 20.6692C66.171 20.8163 66.0158 20.9304 65.8566 20.9377C65.8362 20.9387 65.8158 20.9387 65.7955 20.9387C62.7238 20.9387 59.6522 20.9385 56.5805 20.9394C56.4396 20.9394 56.3195 20.8982 56.2265 20.7925C56.1633 20.7206 56.1263 20.6361 56.1261 20.5395C56.1255 20.1789 56.1229 19.8182 56.1272 19.4576C56.1292 19.2924 56.2184 19.1741 56.3659 19.1004C56.431 19.0679 56.5024 19.0576 56.576 19.0576C59.6513 19.0581 62.7265 19.058 65.8018 19.0582C65.9916 19.0582 66.133 19.1382 66.2158 19.3103C66.2292 19.3381 66.2387 19.3678 66.25 19.3966Z" fill="#F8F9FA"/>
<path d="M66.25 27.736V28.9423C66.241 28.9644 66.231 28.9861 66.2231 29.0085C66.171 29.1556 66.0158 29.2698 65.8566 29.2771C65.8362 29.2781 65.8158 29.2781 65.7955 29.2781C62.7238 29.2781 59.6521 29.2779 56.5805 29.2787C56.4396 29.2788 56.3194 29.2376 56.2265 29.1318C56.1633 29.0601 56.1263 28.9755 56.1261 28.8789C56.1255 28.5183 56.1229 28.1576 56.1272 27.797C56.1292 27.6318 56.2184 27.5135 56.3659 27.4399C56.431 27.4073 56.5024 27.397 56.5761 27.397C59.6513 27.3975 62.7265 27.3973 65.8018 27.3975C65.9916 27.3975 66.133 27.4776 66.2158 27.6496C66.2292 27.6775 66.2387 27.7072 66.25 27.736Z" fill="#F8F9FA"/>
<path d="M66.2498 23.5697V24.7689C66.2411 24.7914 66.2323 24.8139 66.2235 24.8364C66.1723 24.966 66.0804 25.0536 65.9438 25.0886C65.8929 25.1015 65.8383 25.1044 65.7853 25.1044C63.812 25.1052 61.8386 25.105 59.8653 25.105C58.7691 25.105 57.673 25.1044 56.5768 25.1059C56.4558 25.1061 56.3488 25.0786 56.2599 24.9958C56.1751 24.917 56.1262 24.8206 56.126 24.704C56.1253 24.3481 56.1262 23.9922 56.1255 23.6362C56.1251 23.4286 56.3014 23.2463 56.5004 23.2334C56.5374 23.2311 56.5745 23.2285 56.6115 23.2285C59.6678 23.2282 62.7242 23.2283 65.7805 23.228C65.8912 23.228 65.9957 23.2449 66.0854 23.3151C66.1621 23.3752 66.2154 23.4497 66.2371 23.5452C66.2391 23.5538 66.2455 23.5616 66.2498 23.5697Z" fill="#F8F9FA"/>
<path d="M55.2856 24.9864C55.2853 25.1839 55.1763 25.3359 54.9895 25.4005C54.9552 25.4124 54.9172 25.42 54.881 25.4201C54.3054 25.4213 53.7298 25.423 53.1542 25.4196C52.9735 25.4186 52.8031 25.2813 52.7658 25.1041C52.7577 25.0654 52.753 25.0254 52.7528 24.9859C52.7517 24.7128 52.7522 24.4396 52.7522 24.1665C52.7522 23.8934 52.7552 23.6177 52.7513 23.3434C52.7483 23.1395 52.8873 22.9776 53.0613 22.9306C53.1 22.9202 53.1414 22.9155 53.1817 22.9155C53.7393 22.9145 54.2969 22.9142 54.8546 22.915C55.0585 22.9154 55.2239 23.0436 55.2735 23.2384C55.2825 23.2736 55.2853 23.311 55.2853 23.3474C55.2861 23.8937 55.2864 24.4401 55.2856 24.9864Z" fill="#F8F9FA"/>
<path d="M55.2833 20.8201C55.2828 20.984 55.2136 21.1137 55.0665 21.1972C55.0128 21.2277 54.9556 21.2483 54.8928 21.2491C54.8138 21.2502 54.7349 21.2507 54.656 21.2507C54.169 21.2508 53.6821 21.2498 53.1952 21.2515C53.0773 21.2518 52.9728 21.221 52.8864 21.1416C52.7993 21.0618 52.7504 20.9629 52.7504 20.8433C52.7504 20.2805 52.7509 19.7178 52.75 19.1551C52.7497 18.9863 52.872 18.8301 53.016 18.7777C53.0744 18.7564 53.1327 18.7501 53.1931 18.7501C53.4671 18.75 53.7411 18.7501 54.0151 18.7501V18.7508C54.3021 18.7508 54.5893 18.7486 54.8764 18.7516C55.0393 18.7533 55.1567 18.8342 55.2346 18.9741C55.2701 19.0379 55.2835 19.1068 55.2836 19.178C55.2842 19.7254 55.285 20.2727 55.2833 20.8201Z" fill="#F8F9FA"/>
<path d="M55.2886 29.1586C55.2882 29.344 55.1886 29.497 55.0008 29.567C54.9703 29.5784 54.9357 29.5841 54.9031 29.5841C54.3145 29.5851 53.7258 29.5863 53.1373 29.5838C52.9918 29.5832 52.843 29.4749 52.7837 29.3252C52.7628 29.2723 52.7546 29.2176 52.7548 29.1602C52.7558 28.6105 52.7571 28.0608 52.7544 27.511C52.7535 27.3165 52.8728 27.1651 53.039 27.1073C53.0879 27.0903 53.1438 27.0879 53.1966 27.0875C53.4717 27.0857 53.7469 27.0867 54.022 27.0867V27.0875C54.3091 27.0875 54.5963 27.0851 54.8834 27.0883C55.0449 27.0902 55.1613 27.1715 55.2391 27.3093C55.2749 27.3726 55.2886 27.4417 55.2886 27.513C55.2892 28.0615 55.2896 28.6101 55.2886 29.1586Z" fill="#F8F9FA"/>
<path d="M152.287 28.25H144.72C144.712 28.2468 144.704 28.2423 144.695 28.2404C144.641 28.2287 144.584 28.2225 144.531 28.2054C144.354 28.1479 144.201 28.0509 144.079 27.9111C143.914 27.7224 143.834 27.5018 143.834 27.2534C143.833 25.9492 143.833 24.645 143.834 23.3407C143.834 23.2142 143.853 23.0902 143.901 22.9717C143.96 22.8264 144.047 22.7002 144.165 22.5954C144.317 22.4609 144.494 22.3793 144.695 22.3505C144.771 22.3397 144.849 22.3403 144.925 22.3393C145.049 22.3376 145.172 22.3388 145.296 22.3388H145.334C145.334 22.3224 145.334 22.3097 145.334 22.297C145.334 21.8121 145.333 21.3273 145.335 20.8425C145.335 20.733 145.347 20.6235 145.356 20.5142C145.369 20.3627 145.397 20.2128 145.442 20.0674C145.481 19.9423 145.522 19.8177 145.569 19.695C145.636 19.5166 145.728 19.35 145.832 19.1898C146.007 18.9211 146.218 18.6846 146.466 18.4793C146.7 18.2862 146.955 18.1297 147.235 18.0085C147.401 17.9364 147.573 17.8809 147.748 17.8357C147.836 17.8129 147.926 17.7955 148.017 17.7824C148.121 17.7675 148.225 17.7536 148.329 17.7511C148.47 17.7478 148.61 17.7525 148.751 17.7585C148.912 17.7654 149.071 17.791 149.227 17.8309C149.302 17.8499 149.378 17.8651 149.45 17.8895C149.564 17.9275 149.677 17.9669 149.787 18.0146C150.018 18.1152 150.234 18.2425 150.434 18.3954C150.684 18.5863 150.902 18.8078 151.086 19.0619C151.252 19.2923 151.384 19.5399 151.482 19.8058C151.539 19.9612 151.583 20.12 151.616 20.2815C151.636 20.3806 151.65 20.4813 151.659 20.5819C151.668 20.6918 151.671 20.8026 151.671 20.913C151.673 21.3749 151.672 21.8369 151.672 22.2988V22.3388C151.688 22.3388 151.699 22.3388 151.709 22.3388C151.811 22.3388 151.912 22.3363 152.013 22.3395C152.127 22.3431 152.241 22.3486 152.354 22.3597C152.441 22.3684 152.523 22.3999 152.601 22.4378C152.805 22.5357 152.959 22.6826 153.062 22.8819C153.127 23.0081 153.166 23.14 153.166 23.2827C153.166 24.6098 153.165 25.937 153.167 27.2641C153.167 27.3898 153.148 27.5096 153.101 27.6264C153.038 27.7847 152.94 27.9182 152.807 28.0254C152.662 28.1428 152.497 28.2182 152.308 28.2407C152.301 28.2416 152.294 28.2468 152.287 28.2499V28.25ZM148.503 22.3449C148.986 22.3449 149.469 22.3449 149.953 22.3449C149.985 22.3449 150.001 22.3294 150.001 22.2984C150.001 21.8365 150.001 21.3747 150.001 20.9128C150 20.7917 149.991 20.6715 149.964 20.5525C149.929 20.3949 149.869 20.2473 149.784 20.1102C149.617 19.8416 149.387 19.6437 149.094 19.517C148.957 19.4579 148.813 19.419 148.665 19.4052C148.518 19.3915 148.369 19.3944 148.222 19.4228C148.092 19.4478 147.968 19.4871 147.85 19.544C147.612 19.6588 147.417 19.8244 147.266 20.0399C147.138 20.2221 147.058 20.4235 147.021 20.6407C147.007 20.7245 147.005 20.811 147.005 20.8962C147.003 21.365 147.004 21.8338 147.004 22.3027C147.004 22.3309 147.018 22.3449 147.047 22.345C147.532 22.345 148.017 22.345 148.503 22.345L148.503 22.3449Z" fill="#F8F9FA"/>
<path d="M216.233 39H215.352C215.3 38.7467 215.209 38.5241 215.079 38.3324C214.951 38.1406 214.795 37.9796 214.61 37.8494C214.428 37.7169 214.225 37.6174 214.003 37.5511C213.78 37.4848 213.548 37.4517 213.307 37.4517C212.866 37.4517 212.468 37.563 212.11 37.7855C211.755 38.008 211.472 38.3359 211.261 38.7692C211.053 39.2024 210.949 39.7339 210.949 40.3636C210.949 40.9934 211.053 41.5249 211.261 41.9581C211.472 42.3913 211.755 42.7192 212.11 42.9418C212.468 43.1643 212.866 43.2756 213.307 43.2756C213.548 43.2756 213.78 43.2424 214.003 43.1761C214.225 43.1098 214.428 43.0116 214.61 42.8814C214.795 42.7488 214.951 42.5866 215.079 42.3949C215.209 42.2008 215.3 41.9782 215.352 41.7273H216.233C216.167 42.099 216.046 42.4316 215.871 42.7251C215.696 43.0187 215.478 43.2685 215.217 43.4744C214.957 43.678 214.665 43.8331 214.34 43.9396C214.018 44.0462 213.674 44.0994 213.307 44.0994C212.687 44.0994 212.135 43.9479 211.652 43.6449C211.169 43.3419 210.789 42.911 210.512 42.3523C210.235 41.7936 210.097 41.1307 210.097 40.3636C210.097 39.5966 210.235 38.9337 210.512 38.375C210.789 37.8163 211.169 37.3854 211.652 37.0824C212.135 36.7794 212.687 36.6278 213.307 36.6278C213.674 36.6278 214.018 36.6811 214.34 36.7876C214.665 36.8942 214.957 37.0504 215.217 37.2564C215.478 37.46 215.696 37.7086 215.871 38.0021C216.046 38.2933 216.167 38.6259 216.233 39ZM217.542 44V38.5455H218.381V44H217.542ZM217.969 37.6364C217.805 37.6364 217.664 37.5807 217.546 37.4695C217.43 37.3582 217.372 37.2244 217.372 37.0682C217.372 36.9119 217.43 36.7782 217.546 36.6669C217.664 36.5556 217.805 36.5 217.969 36.5C218.132 36.5 218.272 36.5556 218.388 36.6669C218.506 36.7782 218.565 36.9119 218.565 37.0682C218.565 37.2244 218.506 37.3582 218.388 37.4695C218.272 37.5807 218.132 37.6364 217.969 37.6364ZM224.376 38.5455L222.359 44H221.506L219.489 38.5455H220.398L221.904 42.892H221.961L223.467 38.5455H224.376ZM225.482 44V38.5455H226.32V44H225.482ZM225.908 37.6364C225.745 37.6364 225.604 37.5807 225.485 37.4695C225.369 37.3582 225.311 37.2244 225.311 37.0682C225.311 36.9119 225.369 36.7782 225.485 36.6669C225.604 36.5556 225.745 36.5 225.908 36.5C226.071 36.5 226.211 36.5556 226.327 36.6669C226.445 36.7782 226.505 36.9119 226.505 37.0682C226.505 37.2244 226.445 37.3582 226.327 37.4695C226.211 37.5807 226.071 37.6364 225.908 37.6364ZM228.693 36.7273V44H227.855V36.7273H228.693ZM237.131 38.5455C237.089 38.1856 236.916 37.9062 236.613 37.7074C236.31 37.5085 235.938 37.4091 235.498 37.4091C235.176 37.4091 234.894 37.4612 234.653 37.5653C234.414 37.6695 234.227 37.8127 234.092 37.995C233.959 38.1773 233.893 38.3845 233.893 38.6165C233.893 38.8106 233.939 38.9775 234.031 39.1172C234.126 39.2545 234.247 39.3693 234.393 39.4616C234.54 39.5516 234.694 39.6262 234.855 39.6854C235.016 39.7422 235.164 39.7884 235.299 39.8239L236.038 40.0227C236.227 40.0724 236.438 40.1411 236.67 40.2287C236.904 40.3163 237.128 40.4358 237.341 40.5874C237.556 40.7365 237.734 40.9283 237.874 41.1626C238.013 41.397 238.083 41.6847 238.083 42.0256C238.083 42.4186 237.98 42.7737 237.774 43.0909C237.571 43.4081 237.272 43.6603 236.879 43.8473C236.489 44.0343 236.014 44.1278 235.455 44.1278C234.934 44.1278 234.483 44.0438 234.102 43.8757C233.723 43.7076 233.425 43.4732 233.207 43.1726C232.992 42.8719 232.87 42.5227 232.842 42.125H233.751C233.774 42.3996 233.867 42.6269 234.028 42.8068C234.191 42.9844 234.397 43.117 234.646 43.2045C234.897 43.2898 235.166 43.3324 235.455 43.3324C235.791 43.3324 236.093 43.2779 236.361 43.169C236.628 43.0578 236.84 42.9039 236.996 42.7074C237.153 42.5085 237.231 42.2765 237.231 42.0114C237.231 41.7699 237.163 41.5734 237.028 41.4219C236.893 41.2704 236.716 41.1473 236.496 41.0526C236.276 40.9579 236.038 40.875 235.782 40.804L234.887 40.5483C234.319 40.3849 233.869 40.1518 233.538 39.8487C233.206 39.5457 233.04 39.1491 233.04 38.6591C233.04 38.2519 233.151 37.8968 233.371 37.5938C233.593 37.2884 233.892 37.0516 234.266 36.8835C234.642 36.7131 235.062 36.6278 235.526 36.6278C235.995 36.6278 236.412 36.7119 236.776 36.88C237.141 37.0457 237.43 37.273 237.643 37.5618C237.858 37.8506 237.972 38.1785 237.984 38.5455H237.131ZM241.704 44.1136C241.179 44.1136 240.725 43.9976 240.344 43.7656C239.965 43.5312 239.673 43.2045 239.467 42.7855C239.264 42.3641 239.162 41.8741 239.162 41.3153C239.162 40.7566 239.264 40.2642 239.467 39.8381C239.673 39.4096 239.96 39.0758 240.327 38.8366C240.696 38.5952 241.127 38.4744 241.619 38.4744C241.903 38.4744 242.184 38.5218 242.461 38.6165C242.738 38.7112 242.99 38.8651 243.217 39.0781C243.444 39.2888 243.626 39.5682 243.76 39.9162C243.895 40.2642 243.963 40.6927 243.963 41.2017V41.5568H239.758V40.8324H243.111C243.111 40.5246 243.049 40.25 242.926 40.0085C242.805 39.767 242.632 39.5765 242.407 39.4368C242.185 39.2971 241.922 39.2273 241.619 39.2273C241.285 39.2273 240.997 39.3101 240.753 39.4759C240.511 39.6392 240.325 39.8523 240.195 40.1151C240.065 40.3778 240 40.6596 240 40.9602V41.4432C240 41.8551 240.071 42.2043 240.213 42.4908C240.357 42.7749 240.557 42.9915 240.813 43.1406C241.069 43.2874 241.366 43.3608 241.704 43.3608C241.925 43.3608 242.123 43.33 242.301 43.2685C242.481 43.2045 242.636 43.1098 242.766 42.9844C242.896 42.8565 242.997 42.6979 243.068 42.5085L243.878 42.7358C243.792 43.0104 243.649 43.2519 243.448 43.4602C243.247 43.6662 242.998 43.8272 242.702 43.9432C242.406 44.0568 242.074 44.1136 241.704 44.1136ZM245.238 44V38.5455H246.047V39.3693H246.104C246.204 39.0994 246.384 38.8804 246.644 38.7124C246.904 38.5443 247.198 38.4602 247.525 38.4602C247.586 38.4602 247.663 38.4614 247.756 38.4638C247.848 38.4661 247.918 38.4697 247.965 38.4744V39.3267C247.937 39.3196 247.872 39.3089 247.77 39.2947C247.67 39.2782 247.565 39.2699 247.454 39.2699C247.189 39.2699 246.952 39.3255 246.743 39.4368C246.537 39.5457 246.374 39.6972 246.253 39.8913C246.135 40.0831 246.076 40.3021 246.076 40.5483V44H245.238ZM253.585 38.5455L251.568 44H250.715L248.698 38.5455H249.607L251.113 42.892H251.17L252.676 38.5455H253.585ZM256.13 44.1278C255.784 44.1278 255.471 44.0627 255.189 43.9325C254.907 43.8 254.683 43.6094 254.518 43.3608C254.352 43.1098 254.269 42.8068 254.269 42.4517C254.269 42.1392 254.331 41.8859 254.454 41.6918C254.577 41.4953 254.741 41.3414 254.947 41.2301C255.153 41.1188 255.381 41.036 255.629 40.9815C255.88 40.9247 256.132 40.8797 256.386 40.8466C256.717 40.804 256.986 40.772 257.192 40.7507C257.4 40.727 257.552 40.688 257.646 40.6335C257.743 40.5791 257.792 40.4844 257.792 40.3494V40.321C257.792 39.9706 257.696 39.6984 257.504 39.5043C257.315 39.3101 257.027 39.2131 256.641 39.2131C256.241 39.2131 255.928 39.3007 255.7 39.4759C255.473 39.651 255.313 39.8381 255.221 40.0369L254.425 39.7528C254.567 39.4214 254.757 39.1634 254.994 38.9787C255.233 38.7917 255.493 38.6615 255.775 38.5881C256.059 38.5123 256.338 38.4744 256.613 38.4744C256.788 38.4744 256.989 38.4957 257.217 38.5384C257.446 38.5786 257.668 38.6626 257.881 38.7905C258.096 38.9183 258.275 39.1113 258.417 39.3693C258.559 39.6274 258.63 39.973 258.63 40.4062V44H257.792V43.2614H257.749C257.692 43.3797 257.598 43.5064 257.465 43.6413C257.333 43.7763 257.156 43.8911 256.936 43.9858C256.716 44.0805 256.447 44.1278 256.13 44.1278ZM256.258 43.375C256.589 43.375 256.869 43.3099 257.096 43.1797C257.326 43.0495 257.498 42.8814 257.614 42.6754C257.733 42.4695 257.792 42.2528 257.792 42.0256V41.2585C257.756 41.3011 257.678 41.3402 257.558 41.3757C257.439 41.4089 257.302 41.4384 257.146 41.4645C256.992 41.4882 256.841 41.5095 256.695 41.5284C256.55 41.545 256.433 41.5592 256.343 41.571C256.125 41.5994 255.922 41.6456 255.732 41.7095C255.545 41.7711 255.394 41.8646 255.278 41.9901C255.164 42.1132 255.107 42.2812 255.107 42.4943C255.107 42.7855 255.215 43.0057 255.43 43.1548C255.648 43.3016 255.924 43.375 256.258 43.375ZM260.998 40.7188V44H260.16V38.5455H260.969V39.3977H261.04C261.168 39.1207 261.362 38.8982 261.623 38.7301C261.883 38.5597 262.219 38.4744 262.631 38.4744C263.001 38.4744 263.324 38.5502 263.601 38.7017C263.878 38.8509 264.093 39.0781 264.247 39.3835C264.401 39.6866 264.478 40.0701 264.478 40.5341V44H263.64V40.5909C263.64 40.1624 263.528 39.8286 263.306 39.5895C263.083 39.348 262.778 39.2273 262.39 39.2273C262.122 39.2273 261.883 39.2853 261.672 39.4013C261.464 39.5173 261.3 39.6866 261.179 39.9091C261.058 40.1316 260.998 40.4015 260.998 40.7188ZM268.381 38.5455V39.2557H265.555V38.5455H268.381ZM266.379 37.2386H267.217V42.4375C267.217 42.6742 267.251 42.8518 267.32 42.9702C267.391 43.0862 267.481 43.1643 267.589 43.2045C267.701 43.2424 267.818 43.2614 267.941 43.2614C268.033 43.2614 268.109 43.2566 268.168 43.2472C268.228 43.2353 268.275 43.2259 268.31 43.2188L268.481 43.9716C268.424 43.9929 268.345 44.0142 268.243 44.0355C268.141 44.0592 268.012 44.071 267.856 44.071C267.619 44.071 267.387 44.0201 267.16 43.9183C266.935 43.8165 266.748 43.6615 266.599 43.4531C266.452 43.2448 266.379 42.982 266.379 42.6648V37.2386Z" fill="#F8F9FA"/>
<path d="M245.833 29.5V27.8333C245.833 26.9493 245.482 26.1014 244.857 25.4763C244.232 24.8512 243.384 24.5 242.5 24.5H237.5C236.616 24.5 235.768 24.8512 235.143 25.4763C234.518 26.1014 234.167 26.9493 234.167 27.8333V29.5" stroke="#F8F9FA" stroke-width="2" stroke-linecap="round" stroke-linejoin="round"/>
<path d="M238.333 24.5L238.333 25.7502C238.333 26.6342 239.792 29.0833 240 29.5C240.208 29.0833 241.667 26.6342 241.667 25.7502L241.667 24.5" stroke="#F8F9FA" stroke-width="2" stroke-linecap="round" stroke-linejoin="round"/>
<path d="M240 21.1667C241.841 21.1667 243.333 19.6743 243.333 17.8333C243.333 15.9924 241.841 14.5 240 14.5C238.159 14.5 236.667 15.9924 236.667 17.8333C236.667 19.6743 238.159 21.1667 240 21.1667Z" stroke="#F8F9FA" stroke-width="2" stroke-linecap="round" stroke-linejoin="round"/>
<line x1="230.833" y1="30.1665" x2="249.167" y2="30.9998" stroke="#F8F9FA" stroke-width="2"/>
</svg>
