<svg width="320" height="77" viewBox="0 0 320 77" fill="none" xmlns="http://www.w3.org/2000/svg">
<line x1="73.25" y1="39" x2="141.25" y2="39" stroke="#F8F9FA" stroke-width="2" stroke-linecap="round" stroke-dasharray="4 4"/>
<line x1="73.25" y1="39" x2="141.25" y2="39" stroke="#F8F9FA" stroke-width="2" stroke-linecap="round" stroke-dasharray="4 4"/>
<line x1="162.25" y1="39" x2="230.25" y2="39" stroke="#F8F9FA" stroke-width="2" stroke-linecap="round" stroke-dasharray="4 4"/>
<circle cx="152.25" cy="39" r="9" stroke="#F8F9FA" stroke-width="2"/>
<path d="M70.0002 34.3966V35.6029C69.9912 35.6249 69.9812 35.6467 69.9733 35.6692C69.9213 35.8163 69.766 35.9304 69.6068 35.9377C69.5865 35.9387 69.5661 35.9387 69.5457 35.9387C66.474 35.9387 63.4024 35.9385 60.3308 35.9394C60.1899 35.9394 60.0698 35.8982 59.9767 35.7925C59.9135 35.7206 59.8766 35.6361 59.8764 35.5395C59.8757 35.1789 59.8731 34.8182 59.8774 34.4576C59.8795 34.2924 59.9687 34.1741 60.1161 34.1004C60.1813 34.0679 60.2526 34.0576 60.3262 34.0576C63.4015 34.0581 66.4768 34.058 69.5521 34.0582C69.7419 34.0582 69.8832 34.1382 69.966 34.3103C69.9794 34.3381 69.9889 34.3678 70.0002 34.3966Z" fill="#F8F9FA"/>
<path d="M70.0002 42.736V43.9423C69.9912 43.9644 69.9812 43.9861 69.9733 44.0085C69.9213 44.1556 69.766 44.2698 69.6068 44.2771C69.5865 44.2781 69.5661 44.2781 69.5457 44.2781C66.474 44.2781 63.4024 44.2779 60.3308 44.2787C60.1899 44.2788 60.0697 44.2376 59.9767 44.1318C59.9135 44.0601 59.8766 43.9755 59.8764 43.8789C59.8757 43.5183 59.8731 43.1576 59.8774 42.797C59.8795 42.6318 59.9687 42.5135 60.1161 42.4399C60.1813 42.4073 60.2526 42.397 60.3263 42.397C63.4015 42.3975 66.4768 42.3973 69.5521 42.3975C69.7419 42.3975 69.8832 42.4776 69.966 42.6496C69.9794 42.6775 69.9889 42.7072 70.0002 42.736Z" fill="#F8F9FA"/>
<path d="M69.9994 38.5697V39.7689C69.9906 39.7914 69.9818 39.8139 69.973 39.8364C69.9218 39.966 69.8299 40.0536 69.6933 40.0886C69.6424 40.1015 69.5878 40.1044 69.5348 40.1044C67.5615 40.1052 65.5881 40.105 63.6148 40.105C62.5187 40.105 61.4225 40.1044 60.3263 40.1059C60.2053 40.1061 60.0983 40.0786 60.0094 39.9958C59.9246 39.917 59.8757 39.8206 59.8755 39.704C59.8748 39.3481 59.8757 38.9922 59.875 38.6362C59.8746 38.4286 60.0509 38.2463 60.2499 38.2334C60.2869 38.2311 60.324 38.2285 60.361 38.2285C63.4173 38.2282 66.4737 38.2283 69.53 38.228C69.6407 38.228 69.7452 38.2449 69.8349 38.3151C69.9116 38.3752 69.9649 38.4497 69.9866 38.5452C69.9886 38.5538 69.995 38.5616 69.9994 38.5697Z" fill="#F8F9FA"/>
<path d="M59.0353 39.9864C59.035 40.1839 58.9261 40.3359 58.7393 40.4005C58.7049 40.4124 58.667 40.42 58.6308 40.4201C58.0552 40.4213 57.4796 40.423 56.904 40.4196C56.7232 40.4186 56.5528 40.2813 56.5156 40.1041C56.5075 40.0654 56.5027 40.0254 56.5025 39.9859C56.5015 39.7128 56.502 39.4396 56.502 39.1665C56.502 38.8934 56.505 38.6177 56.501 38.3434C56.4981 38.1395 56.6371 37.9776 56.811 37.9306C56.8497 37.9202 56.8912 37.9155 56.9314 37.9155C57.4891 37.9145 58.0467 37.9142 58.6043 37.915C58.8082 37.9154 58.9736 38.0436 59.0232 38.2384C59.0322 38.2736 59.035 38.311 59.0351 38.3474C59.0358 38.8937 59.0361 39.4401 59.0353 39.9864Z" fill="#F8F9FA"/>
<path d="M59.0333 35.8201C59.0328 35.984 58.9636 36.1137 58.8165 36.1972C58.7628 36.2277 58.7056 36.2483 58.6428 36.2491C58.5638 36.2502 58.4849 36.2507 58.406 36.2507C57.919 36.2508 57.4321 36.2498 56.9452 36.2515C56.8273 36.2518 56.7228 36.221 56.6364 36.1416C56.5493 36.0618 56.5004 35.9629 56.5004 35.8433C56.5004 35.2805 56.5009 34.7178 56.5 34.1551C56.4997 33.9863 56.622 33.8301 56.766 33.7777C56.8244 33.7564 56.8827 33.7501 56.9431 33.7501C57.2171 33.75 57.4911 33.7501 57.7651 33.7501V33.7508C58.0521 33.7508 58.3393 33.7486 58.6264 33.7516C58.7893 33.7533 58.9067 33.8342 58.9846 33.9741C59.0201 34.0379 59.0335 34.1068 59.0336 34.178C59.0342 34.7254 59.035 35.2727 59.0333 35.8201Z" fill="#F8F9FA"/>
<path d="M59.0381 44.1586C59.0377 44.344 58.9381 44.497 58.7503 44.567C58.7198 44.5784 58.6853 44.5841 58.6526 44.5841C58.064 44.5851 57.4754 44.5863 56.8868 44.5838C56.7413 44.5832 56.5925 44.4749 56.5332 44.3252C56.5123 44.2723 56.5041 44.2176 56.5043 44.1602C56.5053 43.6105 56.5066 43.0608 56.5039 42.511C56.503 42.3165 56.6223 42.1651 56.7885 42.1073C56.8374 42.0903 56.8933 42.0879 56.9461 42.0875C57.2213 42.0857 57.4964 42.0867 57.7716 42.0867V42.0875C58.0586 42.0875 58.3458 42.0851 58.6329 42.0883C58.7944 42.0902 58.9108 42.1715 58.9886 42.3093C59.0244 42.3726 59.0381 42.4417 59.0381 42.513C59.0387 43.0615 59.0391 43.6101 59.0381 44.1586Z" fill="#F8F9FA"/>
<path d="M156.037 43.25H148.47C148.462 43.2468 148.454 43.2423 148.445 43.2404C148.39 43.2287 148.334 43.2225 148.281 43.2054C148.103 43.1479 147.951 43.0509 147.829 42.9111C147.664 42.7224 147.583 42.5018 147.583 42.2534C147.583 40.9492 147.583 39.645 147.583 38.3407C147.584 38.2142 147.603 38.0902 147.651 37.9717C147.71 37.8264 147.797 37.7002 147.915 37.5954C148.066 37.4609 148.244 37.3793 148.445 37.3505C148.521 37.3397 148.598 37.3403 148.675 37.3393C148.798 37.3376 148.922 37.3388 149.045 37.3388H149.084C149.084 37.3224 149.084 37.3097 149.084 37.297C149.084 36.8121 149.083 36.3273 149.085 35.8425C149.085 35.733 149.097 35.6235 149.106 35.5142C149.118 35.3627 149.147 35.2128 149.192 35.0674C149.231 34.9423 149.272 34.8177 149.318 34.695C149.386 34.5166 149.478 34.35 149.582 34.1898C149.756 33.9211 149.968 33.6846 150.216 33.4793C150.449 33.2862 150.705 33.1297 150.985 33.0085C151.151 32.9364 151.322 32.8809 151.497 32.8357C151.586 32.8129 151.676 32.7955 151.767 32.7824C151.87 32.7675 151.975 32.7536 152.079 32.7511C152.219 32.7478 152.36 32.7525 152.5 32.7585C152.662 32.7654 152.82 32.791 152.977 32.8309C153.051 32.8499 153.127 32.8651 153.2 32.8895C153.314 32.9275 153.427 32.9669 153.536 33.0146C153.768 33.1152 153.984 33.2425 154.184 33.3954C154.434 33.5863 154.652 33.8078 154.835 34.0619C155.001 34.2923 155.134 34.5399 155.232 34.8058C155.289 34.9612 155.333 35.12 155.366 35.2815C155.386 35.3806 155.4 35.4813 155.408 35.5819C155.418 35.6918 155.421 35.8026 155.421 35.913C155.422 36.3749 155.422 36.8369 155.422 37.2988V37.3388C155.437 37.3388 155.448 37.3388 155.459 37.3388C155.56 37.3388 155.662 37.3363 155.763 37.3395C155.876 37.3431 155.99 37.3486 156.104 37.3597C156.191 37.3684 156.273 37.3999 156.351 37.4378C156.554 37.5357 156.709 37.6826 156.812 37.8819C156.877 38.0081 156.916 38.14 156.916 38.2827C156.915 39.6098 156.915 40.937 156.916 42.2641C156.916 42.3898 156.898 42.5096 156.851 42.6264C156.788 42.7847 156.69 42.9182 156.557 43.0254C156.412 43.1428 156.246 43.2182 156.058 43.2407C156.051 43.2416 156.044 43.2468 156.037 43.2499V43.25ZM152.253 37.3449C152.736 37.3449 153.219 37.3449 153.702 37.3449C153.735 37.3449 153.751 37.3294 153.751 37.2984C153.751 36.8365 153.751 36.3747 153.75 35.9128C153.75 35.7917 153.741 35.6715 153.714 35.5525C153.679 35.3949 153.619 35.2473 153.534 35.1102C153.367 34.8416 153.137 34.6437 152.843 34.517C152.706 34.4579 152.563 34.419 152.415 34.4052C152.267 34.3915 152.119 34.3944 151.972 34.4228C151.842 34.4478 151.718 34.4871 151.6 34.544C151.361 34.6588 151.167 34.8244 151.015 35.0399C150.888 35.2221 150.807 35.4235 150.771 35.6407C150.757 35.7245 150.755 35.811 150.755 35.8962C150.753 36.365 150.754 36.8338 150.754 37.3027C150.754 37.3309 150.768 37.3449 150.796 37.345C151.282 37.345 151.767 37.345 152.252 37.345L152.253 37.3449Z" fill="#F8F9FA"/>
<path d="M158.979 20.6765C158.919 20.5203 158.81 20.4417 158.658 20.433C158.642 20.432 158.625 20.4326 158.608 20.4326H152.825C152.751 20.4326 152.76 20.4378 152.76 20.3594C152.76 20.0921 152.76 19.8249 152.76 19.5577V19.499H152.807C153.303 19.499 153.798 19.4999 154.294 19.4986C154.48 19.4981 154.635 19.4148 154.764 19.2682C154.848 19.1731 154.903 19.0601 154.933 18.9324C154.944 18.8894 154.95 18.844 154.95 18.7997C154.951 17.7667 154.953 16.7336 154.949 15.7006C154.949 15.4978 154.863 15.3295 154.729 15.1933C154.637 15.0993 154.53 15.034 154.404 15.0148C154.355 15.0073 154.305 15.0008 154.255 15.0008C152.914 15 151.572 15.0004 150.23 15C149.99 14.9999 149.804 15.114 149.667 15.3278C149.613 15.4116 149.574 15.5048 149.563 15.6092C149.558 15.6588 149.551 15.7087 149.551 15.7584C149.55 16.7582 149.55 17.7579 149.551 18.7578C149.552 19.0299 149.664 19.2366 149.868 19.3849C149.977 19.4646 150.097 19.4996 150.228 19.4994C150.716 19.4984 151.204 19.499 151.693 19.499H151.739C151.739 19.5191 151.741 19.5359 151.741 19.5527C151.741 19.8267 151.741 20.1005 151.741 20.3744C151.741 20.4324 151.741 20.4325 151.687 20.4325C149.749 20.4325 147.811 20.4327 145.873 20.4321C145.747 20.432 145.64 20.4739 145.565 20.5909C145.542 20.6264 145.53 20.6707 145.513 20.7107C145.51 20.7171 145.504 20.722 145.5 20.7276V21.2717C145.507 21.2888 145.514 21.3058 145.52 21.3229C145.581 21.4792 145.69 21.5576 145.841 21.5654C145.857 21.5662 145.873 21.5656 145.888 21.5656H147.973C148.008 21.5656 148.026 21.5852 148.026 21.6242C148.026 21.8978 148.026 22.1714 148.026 22.445C148.026 22.4619 148.024 22.4787 148.024 22.4993H147.975C147.6 22.4993 147.225 22.4999 146.851 22.499C146.611 22.4985 146.425 22.6119 146.286 22.8257C146.232 22.9097 146.193 23.0025 146.182 23.1067C146.176 23.1629 146.17 23.2196 146.17 23.2759C146.169 24.2733 146.168 25.2706 146.17 26.2679C146.171 26.5349 146.285 26.7379 146.485 26.8839C146.597 26.9654 146.719 26.9997 146.852 26.9996C147.977 26.9988 149.103 26.9999 150.228 26.9985C150.474 26.9982 150.66 26.8726 150.793 26.6466C150.865 26.5262 150.896 26.3945 150.896 26.251C150.896 25.2496 150.897 24.2483 150.896 23.247C150.896 22.9714 150.784 22.7625 150.578 22.6125C150.507 22.5613 150.432 22.5253 150.348 22.5138C150.3 22.5073 150.251 22.5002 150.203 22.5C149.832 22.4989 149.461 22.4994 149.089 22.4994H149.044C149.043 22.4814 149.042 22.4673 149.042 22.4532C149.042 22.1738 149.043 21.8946 149.041 21.6154C149.041 21.5747 149.052 21.564 149.088 21.564C151.194 21.5649 153.3 21.5648 155.406 21.5641C155.439 21.5641 155.452 21.5731 155.452 21.6126C155.45 21.8933 155.451 22.1738 155.451 22.4544C155.451 22.4674 155.45 22.4805 155.449 22.4994H155.406C155.03 22.4994 154.654 22.4998 154.278 22.4992C154.039 22.4988 153.854 22.6111 153.716 22.8237C153.661 22.9089 153.622 23.0024 153.61 23.1081C153.605 23.159 153.598 23.2103 153.598 23.2614C153.597 24.2613 153.596 25.2613 153.598 26.2613C153.599 26.5319 153.712 26.7372 153.915 26.8847C154.024 26.9646 154.144 26.9996 154.274 26.9995C155.401 26.999 156.528 26.998 157.655 27C157.952 27.0005 158.208 26.7738 158.293 26.4833C158.313 26.4142 158.323 26.3384 158.323 26.2657C158.325 25.255 158.326 24.2444 158.324 23.2338C158.323 22.9649 158.209 22.7609 158.008 22.6142C157.897 22.5335 157.776 22.4986 157.645 22.499C157.27 22.5001 156.895 22.4994 156.52 22.4994H156.473C156.472 22.481 156.47 22.4644 156.47 22.4478C156.47 22.1725 156.47 21.8973 156.47 21.6221C156.47 21.584 156.487 21.5649 156.521 21.5648C157.226 21.5648 157.931 21.5646 158.637 21.565C158.759 21.565 158.863 21.5203 158.936 21.4073C158.958 21.3717 158.97 21.3275 158.987 21.2874C158.99 21.281 158.996 21.2761 159 21.2705V20.7279C158.993 20.7109 158.986 20.6939 158.98 20.6768L158.979 20.6765ZM149.55 23.9993V25.4914H147.532V23.9993H149.55ZM150.907 17.999V16.5069H153.6V17.999H150.907ZM156.975 23.9993V25.4914H154.957V23.9993H156.975Z" fill="#F8F9FA"/>
<path d="M222.232 59H221.308L223.979 51.7273H224.888L227.558 59H226.635L224.462 52.8778H224.405L222.232 59ZM222.573 56.1591H226.294V56.9403H222.573V56.1591ZM228.578 61.0455V53.5455H229.387V54.4119H229.487C229.548 54.3172 229.633 54.1965 229.742 54.0497C229.854 53.9006 230.012 53.768 230.218 53.652C230.427 53.5336 230.708 53.4744 231.063 53.4744C231.523 53.4744 231.927 53.5893 232.278 53.8189C232.628 54.0485 232.902 54.3741 233.098 54.7955C233.295 55.2169 233.393 55.714 233.393 56.2869C233.393 56.8646 233.295 57.3653 233.098 57.7891C232.902 58.2105 232.629 58.5372 232.281 58.7692C231.933 58.9988 231.532 59.1136 231.078 59.1136C230.727 59.1136 230.447 59.0556 230.236 58.9396C230.025 58.8213 229.863 58.6875 229.749 58.5384C229.636 58.3868 229.548 58.2614 229.487 58.1619H229.416V61.0455H228.578ZM229.401 56.2727C229.401 56.6847 229.462 57.0481 229.583 57.3629C229.703 57.6754 229.88 57.9205 230.112 58.098C230.344 58.2732 230.628 58.3608 230.964 58.3608C231.314 58.3608 231.607 58.2685 231.841 58.0838C232.078 57.8968 232.255 57.6458 232.374 57.331C232.494 57.0137 232.555 56.661 232.555 56.2727C232.555 55.8892 232.496 55.5436 232.377 55.2358C232.261 54.9257 232.085 54.6806 231.848 54.5007C231.614 54.3184 231.319 54.2273 230.964 54.2273C230.623 54.2273 230.337 54.3137 230.105 54.4865C229.873 54.657 229.697 54.8961 229.579 55.2038C229.461 55.5092 229.401 55.8655 229.401 56.2727ZM234.671 61.0455V53.5455H235.481V54.4119H235.58C235.642 54.3172 235.727 54.1965 235.836 54.0497C235.947 53.9006 236.106 53.768 236.312 53.652C236.52 53.5336 236.802 53.4744 237.157 53.4744C237.616 53.4744 238.021 53.5893 238.372 53.8189C238.722 54.0485 238.995 54.3741 239.192 54.7955C239.388 55.2169 239.487 55.714 239.487 56.2869C239.487 56.8646 239.388 57.3653 239.192 57.7891C238.995 58.2105 238.723 58.5372 238.375 58.7692C238.027 58.9988 237.626 59.1136 237.171 59.1136C236.821 59.1136 236.54 59.0556 236.33 58.9396C236.119 58.8213 235.957 58.6875 235.843 58.5384C235.73 58.3868 235.642 58.2614 235.58 58.1619H235.509V61.0455H234.671ZM235.495 56.2727C235.495 56.6847 235.556 57.0481 235.676 57.3629C235.797 57.6754 235.973 57.9205 236.205 58.098C236.437 58.2732 236.722 58.3608 237.058 58.3608C237.408 58.3608 237.7 58.2685 237.935 58.0838C238.172 57.8968 238.349 57.6458 238.468 57.331C238.588 57.0137 238.649 56.661 238.649 56.2727C238.649 55.8892 238.589 55.5436 238.471 55.2358C238.355 54.9257 238.179 54.6806 237.942 54.5007C237.708 54.3184 237.413 54.2273 237.058 54.2273C236.717 54.2273 236.43 54.3137 236.198 54.4865C235.966 54.657 235.791 54.8961 235.673 55.2038C235.554 55.5092 235.495 55.8655 235.495 56.2727ZM241.603 51.7273V59H240.765V51.7273H241.603ZM243.138 59V53.5455H243.976V59H243.138ZM243.564 52.6364C243.401 52.6364 243.26 52.5807 243.142 52.4695C243.026 52.3582 242.968 52.2244 242.968 52.0682C242.968 51.9119 243.026 51.7782 243.142 51.6669C243.26 51.5556 243.401 51.5 243.564 51.5C243.728 51.5 243.867 51.5556 243.983 51.6669C244.102 51.7782 244.161 51.9119 244.161 52.0682C244.161 52.2244 244.102 52.3582 243.983 52.4695C243.867 52.5807 243.728 52.6364 243.564 52.6364ZM247.727 59.1136C247.216 59.1136 246.775 58.9929 246.406 58.7514C246.037 58.5099 245.753 58.1773 245.554 57.7536C245.355 57.3298 245.256 56.8456 245.256 56.3011C245.256 55.7472 245.357 55.2583 245.561 54.8345C245.767 54.4084 246.053 54.0758 246.42 53.8366C246.79 53.5952 247.22 53.4744 247.713 53.4744C248.096 53.4744 248.442 53.5455 248.75 53.6875C249.058 53.8295 249.31 54.0284 249.506 54.2841C249.703 54.5398 249.825 54.8381 249.872 55.179H249.034C248.97 54.9304 248.828 54.7102 248.608 54.5185C248.39 54.3243 248.096 54.2273 247.727 54.2273C247.4 54.2273 247.114 54.3125 246.868 54.483C246.624 54.651 246.433 54.889 246.296 55.1967C246.161 55.5021 246.094 55.8608 246.094 56.2727C246.094 56.6941 246.16 57.0611 246.292 57.3736C246.427 57.6861 246.617 57.9287 246.861 58.1016C247.107 58.2744 247.396 58.3608 247.727 58.3608C247.945 58.3608 248.143 58.3229 248.32 58.2472C248.498 58.1714 248.648 58.0625 248.771 57.9205C248.894 57.7784 248.982 57.608 249.034 57.4091H249.872C249.825 57.7311 249.707 58.0211 249.52 58.2791C249.336 58.5348 249.091 58.7384 248.785 58.8899C248.482 59.0391 248.13 59.1136 247.727 59.1136ZM252.702 59.1278C252.357 59.1278 252.043 59.0627 251.761 58.9325C251.479 58.8 251.256 58.6094 251.09 58.3608C250.924 58.1098 250.841 57.8068 250.841 57.4517C250.841 57.1392 250.903 56.8859 251.026 56.6918C251.149 56.4953 251.314 56.3414 251.52 56.2301C251.726 56.1188 251.953 56.036 252.202 55.9815C252.452 55.9247 252.705 55.8797 252.958 55.8466C253.289 55.804 253.558 55.772 253.764 55.7507C253.972 55.727 254.124 55.688 254.219 55.6335C254.316 55.5791 254.364 55.4844 254.364 55.3494V55.321C254.364 54.9706 254.268 54.6984 254.077 54.5043C253.887 54.3101 253.599 54.2131 253.214 54.2131C252.814 54.2131 252.5 54.3007 252.273 54.4759C252.045 54.651 251.885 54.8381 251.793 55.0369L250.998 54.7528C251.14 54.4214 251.329 54.1634 251.566 53.9787C251.805 53.7917 252.065 53.6615 252.347 53.5881C252.631 53.5123 252.911 53.4744 253.185 53.4744C253.36 53.4744 253.562 53.4957 253.789 53.5384C254.019 53.5786 254.24 53.6626 254.453 53.7905C254.668 53.9183 254.847 54.1113 254.989 54.3693C255.131 54.6274 255.202 54.973 255.202 55.4062V59H254.364V58.2614H254.322C254.265 58.3797 254.17 58.5064 254.037 58.6413C253.905 58.7763 253.729 58.8911 253.508 58.9858C253.288 59.0805 253.019 59.1278 252.702 59.1278ZM252.83 58.375C253.162 58.375 253.441 58.3099 253.668 58.1797C253.898 58.0495 254.071 57.8814 254.187 57.6754C254.305 57.4695 254.364 57.2528 254.364 57.0256V56.2585C254.329 56.3011 254.251 56.3402 254.13 56.3757C254.011 56.4089 253.874 56.4384 253.718 56.4645C253.564 56.4882 253.414 56.5095 253.267 56.5284C253.122 56.545 253.005 56.5592 252.915 56.571C252.698 56.5994 252.494 56.6456 252.305 56.7095C252.117 56.7711 251.966 56.8646 251.85 56.9901C251.736 57.1132 251.68 57.2812 251.68 57.4943C251.68 57.7855 251.787 58.0057 252.003 58.1548C252.22 58.3016 252.496 58.375 252.83 58.375ZM257.57 55.7188V59H256.732V53.5455H257.542V54.3977H257.613C257.74 54.1207 257.935 53.8982 258.195 53.7301C258.455 53.5597 258.792 53.4744 259.203 53.4744C259.573 53.4744 259.896 53.5502 260.173 53.7017C260.45 53.8509 260.665 54.0781 260.819 54.3835C260.973 54.6866 261.05 55.0701 261.05 55.5341V59H260.212V55.5909C260.212 55.1624 260.101 54.8286 259.878 54.5895C259.656 54.348 259.35 54.2273 258.962 54.2273C258.694 54.2273 258.455 54.2853 258.245 54.4013C258.036 54.5173 257.872 54.6866 257.751 54.9091C257.63 55.1316 257.57 55.4015 257.57 55.7188ZM264.954 53.5455V54.2557H262.127V53.5455H264.954ZM262.951 52.2386H263.789V57.4375C263.789 57.6742 263.823 57.8518 263.892 57.9702C263.963 58.0862 264.053 58.1643 264.162 58.2045C264.273 58.2424 264.39 58.2614 264.513 58.2614C264.606 58.2614 264.681 58.2566 264.741 58.2472C264.8 58.2353 264.847 58.2259 264.883 58.2188L265.053 58.9716C264.996 58.9929 264.917 59.0142 264.815 59.0355C264.713 59.0592 264.584 59.071 264.428 59.071C264.191 59.071 263.959 59.0201 263.732 58.9183C263.507 58.8165 263.32 58.6615 263.171 58.4531C263.024 58.2448 262.951 57.982 262.951 57.6648V52.2386Z" fill="#F8F9FA"/>
<g clip-path="url(#clip0_1401_7730)">
<path d="M250.396 35.1022C250.396 36.0656 249.612 36.8574 248.621 36.8574C247.625 36.8574 246.835 36.0604 246.835 35.1022C246.835 34.1441 247.625 33.3471 248.621 33.3471C249.612 33.3471 250.396 34.1389 250.396 35.1022ZM242.596 33.4492C242.596 34.7202 241.567 35.7553 240.264 35.7553C238.956 35.7553 237.921 34.7159 237.921 33.4492C237.921 32.1825 238.956 31.1431 240.264 31.1431C241.567 31.1431 242.596 32.1781 242.596 33.4492ZM243.492 43.092C243.492 42.9598 243.552 42.767 243.837 42.5066C244.129 42.2405 244.582 41.9792 245.16 41.7503C246.318 41.292 247.725 41.0614 248.621 41.0614C249.517 41.0614 250.924 41.292 252.082 41.7503C252.66 41.9792 253.113 42.2405 253.405 42.5066C253.691 42.767 253.75 42.9598 253.75 43.092V44.5716H243.492V43.092ZM233.464 42.8165C233.464 42.5463 233.593 42.233 233.991 41.8694C234.396 41.5 235.006 41.1527 235.758 40.8549C237.264 40.2589 239.089 39.9594 240.264 39.9594C240.322 39.9594 240.382 39.9602 240.444 39.9618C240.208 40.2409 240.014 40.5264 239.856 40.8135C239.382 41.6744 239.264 42.4928 239.264 43.092V44.5716H233.464V42.8165Z" stroke="#F8F9FA" stroke-width="2"/>
</g>
<defs>
<clipPath id="clip0_1401_7730">
<rect width="24" height="24" fill="white" transform="translate(230.75 25)"/>
</clipPath>
</defs>
</svg>
