<svg width="288" height="61" viewBox="0 0 288 61" fill="none" xmlns="http://www.w3.org/2000/svg">
<line x1="180" y1="31" x2="251" y2="31" stroke="#F8F9FA" stroke-width="2" stroke-linecap="round" stroke-dasharray="4 4"/>
<line x1="29.1314" y1="12.1515" x2="125.151" y2="25.8686" stroke="#F8F9FA" stroke-width="2" stroke-linecap="round" stroke-dasharray="4 4"/>
<line x1="32.7691" y1="51.8889" x2="124.813" y2="32.2309" stroke="#F8F9FA" stroke-width="2" stroke-linecap="round" stroke-dasharray="4 4"/>
<circle cx="134" cy="29" r="9" stroke="#F8F9FA" stroke-width="2"/>
<path d="M14.2343 28.8124C14.2238 28.7185 14.2073 28.6245 14.1847 28.5325C14.1467 28.3777 14.0872 28.2299 14.0115 28.0882C13.9049 27.8885 13.7694 27.7092 13.6043 27.551C13.4234 27.3776 13.2186 27.2356 12.9857 27.1364C12.8532 27.0799 12.7144 27.0348 12.5747 26.9974C12.4754 26.9706 12.3699 26.9659 12.2672 26.9505C12.0986 26.9251 11.93 26.9377 11.7628 26.9577C11.5825 26.9794 11.407 27.0255 11.2389 27.0921C10.9928 27.1895 10.7695 27.3243 10.5756 27.5C10.2837 27.7646 10.0773 28.0808 9.96354 28.4534C9.90947 28.6307 9.87757 28.8113 9.87461 28.9942C9.87238 29.1333 9.8873 29.2742 9.91121 29.4117C9.93362 29.5405 9.9689 29.669 10.0144 29.792C10.1037 30.0336 10.2414 30.2506 10.418 30.4423C10.6754 30.7217 10.9859 30.9266 11.355 31.0457C11.4154 31.0652 11.4428 31.1056 11.4372 31.167C11.4369 31.1697 11.4368 31.1724 11.4367 31.175C11.4299 31.3565 11.3957 31.5332 11.3353 31.7053C11.254 31.9365 11.1115 32.1229 10.9013 32.2602C10.7517 32.3579 10.5894 32.4294 10.4164 32.4781C10.304 32.5097 10.1914 32.5415 10.0774 32.5667C9.98316 32.5874 9.88673 32.5996 9.79095 32.6138C9.67334 32.6312 9.55572 32.6494 9.43753 32.6624C9.27697 32.6801 9.11592 32.6932 8.95503 32.7083C8.77915 32.7248 8.60334 32.741 8.42754 32.7579C8.32665 32.7676 8.22568 32.7764 8.12521 32.7892C8.01015 32.8038 7.8955 32.8216 7.78086 32.8393C7.68904 32.8535 7.59681 32.866 7.50622 32.8854C7.38259 32.9118 7.25937 32.9408 7.13788 32.9749C7.02035 33.0078 6.90455 33.047 6.78916 33.0867C6.72602 33.1084 6.66519 33.1366 6.59736 33.1644V33.1064C6.59736 31.8831 6.59736 30.6598 6.59744 29.4365C6.59744 29.426 6.59827 29.4153 6.59728 29.4048C6.59513 29.3827 6.60519 29.373 6.62711 29.3652C6.69223 29.3424 6.75668 29.3174 6.82039 29.2911C7.15156 29.1546 7.42644 28.9469 7.65079 28.6764C7.83929 28.4492 7.97751 28.1966 8.04922 27.9131C8.07864 27.7971 8.10452 27.6793 8.11804 27.5608C8.13996 27.3684 8.12842 27.1761 8.09249 26.9848C8.06422 26.8342 8.02053 26.6882 7.95962 26.5476C7.89888 26.4074 7.8219 26.2753 7.73082 26.1504C7.46501 25.7863 7.11332 25.5305 6.68258 25.3753C6.50002 25.3095 6.30938 25.2716 6.11536 25.2572C5.90271 25.2416 5.68932 25.2496 5.48178 25.298C5.34241 25.3305 5.20493 25.3753 5.07207 25.4275C4.74123 25.5575 4.46775 25.7644 4.24216 26.0302C4.08161 26.2194 3.96028 26.4297 3.87572 26.661C3.8242 26.802 3.78744 26.9459 3.76807 27.0932C3.74211 27.2905 3.74343 27.4879 3.77821 27.6856C3.80104 27.8158 3.83327 27.9423 3.87753 28.067C3.96127 28.3027 4.08778 28.5152 4.25205 28.7059C4.51259 29.0085 4.83667 29.2257 5.22224 29.3549C5.26732 29.37 5.28175 29.3877 5.28175 29.4342C5.28026 31.1447 5.28051 32.8552 5.28051 34.5657C5.28051 34.5736 5.27977 34.5816 5.28059 34.5895C5.28348 34.6155 5.27416 34.6283 5.24589 34.6376C5.1727 34.6616 5.09976 34.6875 5.02986 34.7192C4.731 34.8544 4.47253 35.0416 4.2612 35.287C4.04897 35.5334 3.89978 35.8106 3.81876 36.1225C3.78406 36.2563 3.76123 36.3913 3.75332 36.5281C3.73964 36.7629 3.76849 36.9938 3.8355 37.2206C3.89748 37.4304 3.99045 37.6257 4.11548 37.8069C4.26285 38.0206 4.44459 38.2019 4.66045 38.3529C4.82645 38.469 5.00539 38.5607 5.19718 38.6276C5.3603 38.6844 5.52851 38.7254 5.70284 38.7375C5.71874 38.7386 5.73424 38.7457 5.7499 38.75H6.12879C6.14454 38.7457 6.16003 38.7389 6.17602 38.7375C6.35949 38.722 6.53546 38.6778 6.70805 38.6165C6.99315 38.5151 7.24355 38.3614 7.46056 38.158C7.71318 37.9213 7.89797 37.6431 8.01106 37.3195C8.06455 37.1662 8.10081 37.0104 8.11788 36.8509C8.13502 36.6904 8.13106 36.5294 8.10889 36.3681C8.08829 36.2174 8.05243 36.0712 8.00059 35.9287C7.93638 35.7521 7.84827 35.586 7.73577 35.4336C7.5068 35.1237 7.21651 34.8832 6.85476 34.7265C6.81471 34.7092 6.77514 34.6908 6.72264 34.6672C6.78404 34.6006 6.83523 34.538 6.89399 34.483C7.00873 34.3753 7.14959 34.3072 7.29827 34.2551C7.39009 34.223 7.48455 34.1975 7.57867 34.1721C7.64156 34.1551 7.70577 34.142 7.76989 34.1297C7.86361 34.1118 7.95732 34.0931 8.05186 34.08C8.18456 34.0618 8.31791 34.048 8.4511 34.0332C8.55866 34.0212 8.66631 34.01 8.77404 33.9997C8.8572 33.9916 8.94061 33.9861 9.02377 33.9783C9.13686 33.9677 9.24985 33.9563 9.36285 33.9446C9.50437 33.93 9.64638 33.919 9.78707 33.8987C9.96387 33.8733 10.1401 33.8425 10.3156 33.8092C10.4413 33.7855 10.5682 33.7619 10.6898 33.7241C10.8653 33.6697 11.0382 33.6064 11.2092 33.5396C11.4192 33.4576 11.6103 33.3426 11.788 33.2074C12.0069 33.0408 12.1899 32.8436 12.3383 32.6148C12.4645 32.42 12.5602 32.2128 12.6249 31.9931C12.6659 31.8541 12.6993 31.712 12.7213 31.5692C12.7451 31.4153 12.7542 31.259 12.7638 31.1034C12.7664 31.0627 12.7784 31.0415 12.8166 31.0303C12.8399 31.0234 12.8628 31.0147 12.8855 31.0059C13.218 30.8764 13.4984 30.6768 13.7308 30.4146C13.9713 30.1432 14.1294 29.8307 14.2053 29.4821C14.2319 29.36 14.2423 29.2338 14.2486 29.1089C14.2534 29.0104 14.2453 28.9107 14.2343 28.8124ZM5.937 37.0634C5.69254 37.0619 5.50107 36.8787 5.50099 36.6412C5.50091 36.4138 5.69732 36.2248 5.9384 36.2243C6.17116 36.2239 6.37977 36.4197 6.36839 36.6443C6.3782 36.8675 6.17833 37.0648 5.937 37.0634ZM5.93494 27.7841C5.69575 27.782 5.5014 27.5949 5.50107 27.3682C5.50057 27.1295 5.69229 26.9472 5.93617 26.9454C6.17857 26.9435 6.37787 27.1408 6.36839 27.3638C6.37985 27.5902 6.16992 27.7863 5.93494 27.7841ZM12.0591 29.4688C11.8219 29.478 11.6224 29.2705 11.6252 29.0487C11.6281 28.8231 11.8224 28.6313 12.0628 28.6317C12.3 28.6321 12.4949 28.8238 12.495 29.0536C12.4952 29.2797 12.2952 29.4771 12.0591 29.4688Z" fill="#F8F9FA"/>
<path d="M140.729 8.67652C140.669 8.52029 140.56 8.4417 140.408 8.433C140.392 8.43204 140.375 8.4326 140.358 8.4326H134.575C134.501 8.4326 134.51 8.43779 134.51 8.35943C134.51 8.09213 134.51 7.82491 134.51 7.55769V7.49904H134.557C135.053 7.49904 135.548 7.49992 136.044 7.49856C136.23 7.49808 136.385 7.41478 136.514 7.26821C136.598 7.17309 136.653 7.06011 136.683 6.93236C136.694 6.88944 136.7 6.84403 136.7 6.79967C136.701 5.76669 136.703 4.73363 136.699 3.70065C136.699 3.49782 136.613 3.32946 136.479 3.19333C136.387 3.09926 136.28 3.03399 136.154 3.01484C136.105 3.00734 136.055 3.0008 136.005 3.0008C134.664 3 133.322 3.0004 131.98 3C131.74 2.99992 131.554 3.11402 131.417 3.32778C131.363 3.41164 131.324 3.50484 131.313 3.60921C131.308 3.65884 131.301 3.70871 131.301 3.75842C131.3 4.75821 131.3 5.75791 131.301 6.75778C131.302 7.02995 131.414 7.23661 131.618 7.38486C131.727 7.46457 131.847 7.4996 131.978 7.49936C132.466 7.4984 132.954 7.49896 133.443 7.49896H133.489C133.489 7.51915 133.491 7.53591 133.491 7.55274C133.491 7.82667 133.491 8.10051 133.491 8.37443C133.491 8.43244 133.491 8.43252 133.437 8.43252C131.499 8.43252 129.561 8.43268 127.623 8.43212C127.497 8.43204 127.39 8.47393 127.315 8.59091C127.292 8.62642 127.28 8.6707 127.263 8.71068C127.26 8.71706 127.254 8.72201 127.25 8.72759V9.27169C127.257 9.28876 127.264 9.30576 127.27 9.32292C127.331 9.47923 127.44 9.55758 127.591 9.5654C127.607 9.5662 127.623 9.56564 127.638 9.56564H129.723C129.758 9.56564 129.776 9.58516 129.776 9.62421C129.776 9.89781 129.776 10.1714 129.776 10.445C129.776 10.4619 129.774 10.4787 129.774 10.4993H129.725C129.35 10.4993 128.975 10.4999 128.601 10.499C128.361 10.4985 128.175 10.6119 128.036 10.8257C127.982 10.9097 127.943 11.0025 127.932 11.1067C127.926 11.1629 127.92 11.2196 127.92 11.2759C127.919 12.2733 127.918 13.2706 127.92 14.2679C127.921 14.5349 128.035 14.7379 128.235 14.8839C128.347 14.9654 128.469 14.9997 128.602 14.9996C129.727 14.9988 130.853 14.9999 131.978 14.9985C132.224 14.9982 132.41 14.8726 132.543 14.6466C132.615 14.5262 132.646 14.3945 132.646 14.251C132.646 13.2496 132.647 12.2483 132.646 11.247C132.646 10.9714 132.534 10.7625 132.328 10.6125C132.257 10.5613 132.182 10.5253 132.098 10.5138C132.05 10.5073 132.001 10.5002 131.953 10.5C131.582 10.4989 131.211 10.4994 130.839 10.4994H130.794C130.793 10.4814 130.792 10.4673 130.792 10.4532C130.792 10.1738 130.793 9.89462 130.791 9.61535C130.791 9.57474 130.802 9.56397 130.838 9.56397C132.944 9.56492 135.05 9.56484 137.156 9.56413C137.189 9.56413 137.202 9.57306 137.202 9.61264C137.2 9.89327 137.201 10.1738 137.201 10.4544C137.201 10.4674 137.2 10.4805 137.199 10.4994H137.156C136.78 10.4994 136.404 10.4998 136.028 10.4992C135.789 10.4988 135.604 10.6111 135.466 10.8237C135.411 10.9089 135.372 11.0024 135.36 11.1081C135.355 11.159 135.348 11.2103 135.348 11.2614C135.347 12.2613 135.346 13.2613 135.348 14.2613C135.349 14.5319 135.462 14.7372 135.665 14.8847C135.774 14.9646 135.894 14.9996 136.024 14.9995C137.151 14.999 138.278 14.998 139.405 15C139.702 15.0005 139.958 14.7738 140.043 14.4833C140.063 14.4142 140.073 14.3384 140.073 14.2657C140.075 13.255 140.076 12.2444 140.074 11.2338C140.073 10.9649 139.959 10.7609 139.758 10.6142C139.647 10.5335 139.526 10.4986 139.395 10.499C139.02 10.5001 138.645 10.4994 138.27 10.4994H138.223C138.222 10.481 138.22 10.4644 138.22 10.4478C138.22 10.1725 138.22 9.89733 138.22 9.62205C138.22 9.58397 138.237 9.5649 138.271 9.56484C138.976 9.56476 139.681 9.5646 140.387 9.565C140.509 9.565 140.613 9.52032 140.686 9.40725C140.708 9.37175 140.72 9.32746 140.737 9.28741C140.74 9.28103 140.746 9.27608 140.75 9.27049V8.72791C140.743 8.71092 140.736 8.69392 140.73 8.67676L140.729 8.67652ZM131.3 11.9993V13.4914H129.282V11.9993H131.3ZM132.657 5.99896V4.50686H135.35V5.99896H132.657ZM138.725 11.9993V13.4914H136.707V11.9993H138.725Z" fill="#F8F9FA"/>
<path d="M25.75 47.3966V48.6029C25.741 48.6249 25.731 48.6467 25.7231 48.6692C25.671 48.8163 25.5158 48.9304 25.3566 48.9377C25.3362 48.9387 25.3158 48.9387 25.2955 48.9387C22.2238 48.9387 19.1522 48.9385 16.0805 48.9394C15.9396 48.9394 15.8195 48.8982 15.7265 48.7925C15.6633 48.7206 15.6263 48.6361 15.6261 48.5395C15.6255 48.1789 15.6229 47.8182 15.6272 47.4576C15.6292 47.2924 15.7184 47.1741 15.8659 47.1004C15.931 47.0679 16.0024 47.0576 16.076 47.0576C19.1513 47.0581 22.2265 47.058 25.3018 47.0582C25.4916 47.0582 25.633 47.1382 25.7158 47.3103C25.7292 47.3381 25.7387 47.3678 25.75 47.3966Z" fill="#F8F9FA"/>
<path d="M25.75 55.736V56.9423C25.741 56.9644 25.731 56.9861 25.7231 57.0085C25.671 57.1556 25.5158 57.2698 25.3566 57.2771C25.3362 57.2781 25.3158 57.2781 25.2955 57.2781C22.2238 57.2781 19.1521 57.2779 16.0805 57.2787C15.9396 57.2788 15.8194 57.2376 15.7265 57.1318C15.6633 57.0601 15.6263 56.9755 15.6261 56.8789C15.6255 56.5183 15.6229 56.1576 15.6272 55.797C15.6292 55.6318 15.7184 55.5135 15.8659 55.4399C15.931 55.4073 16.0024 55.397 16.0761 55.397C19.1513 55.3975 22.2265 55.3973 25.3018 55.3975C25.4916 55.3975 25.633 55.4776 25.7158 55.6496C25.7292 55.6775 25.7387 55.7072 25.75 55.736Z" fill="#F8F9FA"/>
<path d="M25.7498 51.5697V52.7689C25.7411 52.7914 25.7323 52.8139 25.7235 52.8364C25.6723 52.966 25.5804 53.0536 25.4438 53.0886C25.3929 53.1015 25.3383 53.1044 25.2853 53.1044C23.312 53.1052 21.3386 53.105 19.3653 53.105C18.2691 53.105 17.173 53.1044 16.0768 53.1059C15.9558 53.1061 15.8488 53.0786 15.7599 52.9958C15.6751 52.917 15.6262 52.8206 15.626 52.704C15.6253 52.3481 15.6262 51.9922 15.6255 51.6362C15.6251 51.4286 15.8014 51.2463 16.0004 51.2334C16.0374 51.2311 16.0745 51.2285 16.1115 51.2285C19.1678 51.2282 22.2242 51.2283 25.2805 51.228C25.3912 51.228 25.4957 51.2449 25.5854 51.3151C25.6621 51.3752 25.7154 51.4497 25.7371 51.5452C25.7391 51.5538 25.7455 51.5616 25.7498 51.5697Z" fill="#F8F9FA"/>
<path d="M14.7856 52.9864C14.7853 53.1839 14.6763 53.3359 14.4895 53.4005C14.4552 53.4124 14.4172 53.42 14.381 53.4201C13.8054 53.4213 13.2298 53.423 12.6542 53.4196C12.4735 53.4186 12.3031 53.2813 12.2658 53.1041C12.2577 53.0654 12.253 53.0254 12.2528 52.9859C12.2517 52.7128 12.2522 52.4396 12.2522 52.1665C12.2522 51.8934 12.2552 51.6177 12.2513 51.3434C12.2483 51.1395 12.3873 50.9776 12.5613 50.9306C12.6 50.9202 12.6414 50.9155 12.6817 50.9155C13.2393 50.9145 13.7969 50.9142 14.3546 50.915C14.5585 50.9154 14.7239 51.0436 14.7735 51.2384C14.7825 51.2736 14.7853 51.311 14.7853 51.3474C14.7861 51.8937 14.7864 52.4401 14.7856 52.9864Z" fill="#F8F9FA"/>
<path d="M14.7833 48.8201C14.7828 48.984 14.7136 49.1137 14.5665 49.1972C14.5128 49.2277 14.4556 49.2483 14.3928 49.2491C14.3138 49.2502 14.2349 49.2507 14.156 49.2507C13.669 49.2508 13.1821 49.2498 12.6952 49.2515C12.5773 49.2518 12.4728 49.221 12.3864 49.1416C12.2993 49.0618 12.2504 48.9629 12.2504 48.8433C12.2504 48.2805 12.2509 47.7178 12.25 47.1551C12.2497 46.9863 12.372 46.8301 12.516 46.7777C12.5744 46.7564 12.6327 46.7501 12.6931 46.7501C12.9671 46.75 13.2411 46.7501 13.5151 46.7501V46.7508C13.8021 46.7508 14.0893 46.7486 14.3764 46.7516C14.5393 46.7533 14.6567 46.8342 14.7346 46.9741C14.7701 47.0379 14.7835 47.1068 14.7836 47.178C14.7842 47.7254 14.785 48.2727 14.7833 48.8201Z" fill="#F8F9FA"/>
<path d="M14.7886 57.1586C14.7882 57.344 14.6886 57.497 14.5008 57.567C14.4703 57.5784 14.4357 57.5841 14.4031 57.5841C13.8145 57.5851 13.2258 57.5863 12.6373 57.5838C12.4918 57.5832 12.343 57.4749 12.2837 57.3252C12.2628 57.2723 12.2546 57.2176 12.2548 57.1602C12.2558 56.6105 12.2571 56.0608 12.2544 55.511C12.2535 55.3165 12.3728 55.1651 12.539 55.1073C12.5879 55.0903 12.6438 55.0879 12.6966 55.0875C12.9717 55.0857 13.2469 55.0867 13.522 55.0867V55.0875C13.8091 55.0875 14.0963 55.0851 14.3834 55.0883C14.5449 55.0902 14.6613 55.1715 14.7391 55.3093C14.7749 55.3726 14.7886 55.4417 14.7886 55.513C14.7892 56.0615 14.7896 56.6101 14.7886 57.1586Z" fill="#F8F9FA"/>
<path d="M25.75 8.39662V9.60292C25.741 9.62493 25.731 9.64673 25.7231 9.66916C25.671 9.81627 25.5158 9.93043 25.3566 9.93774C25.3362 9.93866 25.3158 9.93874 25.2955 9.93874C22.2238 9.93874 19.1522 9.93852 16.0805 9.93937C15.9396 9.93944 15.8195 9.8982 15.7265 9.79248C15.6633 9.72063 15.6263 9.63615 15.6261 9.53952C15.6255 9.17893 15.6229 8.8182 15.6272 8.45761C15.6292 8.2924 15.7184 8.17412 15.8659 8.10043C15.931 8.06791 16.0024 8.05762 16.076 8.05762C19.1513 8.05811 22.2265 8.05797 25.3018 8.05819C25.4916 8.05819 25.633 8.1382 25.7158 8.31029C25.7292 8.33812 25.7387 8.3678 25.75 8.39662Z" fill="#F8F9FA"/>
<path d="M25.75 16.736V17.9423C25.741 17.9644 25.731 17.9861 25.7231 18.0085C25.671 18.1556 25.5158 18.2698 25.3566 18.2771C25.3362 18.2781 25.3158 18.2781 25.2955 18.2781C22.2238 18.2781 19.1521 18.2779 16.0805 18.2787C15.9396 18.2788 15.8194 18.2376 15.7265 18.1318C15.6633 18.0601 15.6263 17.9755 15.6261 17.8789C15.6255 17.5183 15.6229 17.1576 15.6272 16.797C15.6292 16.6318 15.7184 16.5135 15.8659 16.4399C15.931 16.4073 16.0024 16.397 16.0761 16.397C19.1513 16.3975 22.2265 16.3973 25.3018 16.3975C25.4916 16.3975 25.633 16.4776 25.7158 16.6496C25.7292 16.6775 25.7387 16.7072 25.75 16.736Z" fill="#F8F9FA"/>
<path d="M25.7498 12.5697V13.7689C25.7411 13.7914 25.7323 13.8139 25.7235 13.8364C25.6723 13.966 25.5804 14.0536 25.4438 14.0886C25.3929 14.1015 25.3383 14.1044 25.2853 14.1044C23.312 14.1052 21.3386 14.105 19.3653 14.105C18.2691 14.105 17.173 14.1044 16.0768 14.1059C15.9558 14.1061 15.8488 14.0786 15.7599 13.9958C15.6751 13.917 15.6262 13.8206 15.626 13.704C15.6253 13.3481 15.6262 12.9922 15.6255 12.6362C15.6251 12.4286 15.8014 12.2463 16.0004 12.2334C16.0374 12.2311 16.0745 12.2285 16.1115 12.2285C19.1678 12.2282 22.2242 12.2283 25.2805 12.228C25.3912 12.228 25.4957 12.2449 25.5854 12.3151C25.6621 12.3752 25.7154 12.4497 25.7371 12.5452C25.7391 12.5538 25.7455 12.5616 25.7498 12.5697Z" fill="#F8F9FA"/>
<path d="M14.7856 13.9864C14.7853 14.1839 14.6763 14.3359 14.4895 14.4005C14.4552 14.4124 14.4172 14.42 14.381 14.4201C13.8054 14.4213 13.2298 14.423 12.6542 14.4196C12.4735 14.4186 12.3031 14.2813 12.2658 14.1041C12.2577 14.0654 12.253 14.0254 12.2528 13.9859C12.2517 13.7128 12.2522 13.4396 12.2522 13.1665C12.2522 12.8934 12.2552 12.6177 12.2513 12.3434C12.2483 12.1395 12.3873 11.9776 12.5613 11.9306C12.6 11.9202 12.6414 11.9155 12.6817 11.9155C13.2393 11.9145 13.7969 11.9142 14.3546 11.915C14.5585 11.9154 14.7239 12.0436 14.7735 12.2384C14.7825 12.2736 14.7853 12.311 14.7853 12.3474C14.7861 12.8937 14.7864 13.4401 14.7856 13.9864Z" fill="#F8F9FA"/>
<path d="M14.7833 9.82009C14.7828 9.98402 14.7136 10.1137 14.5665 10.1972C14.5128 10.2277 14.4556 10.2483 14.3928 10.2491C14.3138 10.2502 14.2349 10.2507 14.156 10.2507C13.669 10.2508 13.1821 10.2498 12.6952 10.2515C12.5773 10.2518 12.4728 10.221 12.3864 10.1416C12.2993 10.0618 12.2504 9.96287 12.2504 9.84331C12.2504 9.28052 12.2509 8.71781 12.25 8.15509C12.2497 7.98633 12.372 7.83007 12.516 7.77767C12.5744 7.75645 12.6327 7.75006 12.6931 7.75006C12.9671 7.74999 13.2411 7.75006 13.5151 7.75006V7.75077C13.8021 7.75077 14.0893 7.74857 14.3764 7.75162C14.5393 7.75332 14.6567 7.83419 14.7346 7.97412C14.7701 8.03788 14.7835 8.10681 14.7836 8.17802C14.7842 8.7254 14.785 9.27271 14.7833 9.82009Z" fill="#F8F9FA"/>
<path d="M14.7886 18.1586C14.7882 18.344 14.6886 18.497 14.5008 18.567C14.4703 18.5784 14.4357 18.5841 14.4031 18.5841C13.8145 18.5851 13.2258 18.5863 12.6373 18.5838C12.4918 18.5832 12.343 18.4749 12.2837 18.3252C12.2628 18.2723 12.2546 18.2176 12.2548 18.1602C12.2558 17.6105 12.2571 17.0608 12.2544 16.511C12.2535 16.3165 12.3728 16.1651 12.539 16.1073C12.5879 16.0903 12.6438 16.0879 12.6966 16.0875C12.9717 16.0857 13.2469 16.0867 13.522 16.0867V16.0875C13.8091 16.0875 14.0963 16.0851 14.3834 16.0883C14.5449 16.0902 14.6613 16.1715 14.7391 16.3093C14.7749 16.3726 14.7886 16.4417 14.7886 16.513C14.7892 17.0615 14.7896 17.6101 14.7886 18.1586Z" fill="#F8F9FA"/>
<path d="M137.787 33.25H130.22C130.212 33.2468 130.204 33.2423 130.195 33.2404C130.141 33.2287 130.084 33.2225 130.031 33.2054C129.854 33.1479 129.701 33.0509 129.579 32.9111C129.414 32.7224 129.334 32.5018 129.334 32.2534C129.333 30.9492 129.333 29.645 129.334 28.3407C129.334 28.2142 129.353 28.0902 129.401 27.9717C129.46 27.8264 129.547 27.7002 129.665 27.5954C129.817 27.4609 129.994 27.3793 130.195 27.3505C130.271 27.3397 130.349 27.3403 130.425 27.3393C130.549 27.3376 130.672 27.3388 130.796 27.3388H130.834C130.834 27.3224 130.834 27.3097 130.834 27.297C130.834 26.8121 130.833 26.3273 130.835 25.8425C130.835 25.733 130.847 25.6235 130.856 25.5142C130.869 25.3627 130.897 25.2128 130.942 25.0674C130.981 24.9423 131.022 24.8177 131.069 24.695C131.136 24.5166 131.228 24.35 131.332 24.1898C131.507 23.9211 131.718 23.6846 131.966 23.4793C132.2 23.2862 132.455 23.1297 132.735 23.0085C132.901 22.9364 133.073 22.8809 133.248 22.8357C133.336 22.8129 133.426 22.7955 133.517 22.7824C133.621 22.7675 133.725 22.7536 133.829 22.7511C133.97 22.7478 134.11 22.7525 134.251 22.7585C134.412 22.7654 134.571 22.791 134.727 22.8309C134.802 22.8499 134.878 22.8651 134.95 22.8895C135.064 22.9275 135.177 22.9669 135.287 23.0146C135.518 23.1152 135.734 23.2425 135.934 23.3954C136.184 23.5863 136.402 23.8078 136.586 24.0619C136.752 24.2923 136.884 24.5399 136.982 24.8058C137.039 24.9612 137.083 25.12 137.116 25.2815C137.136 25.3806 137.15 25.4813 137.159 25.5819C137.168 25.6918 137.171 25.8026 137.171 25.913C137.173 26.3749 137.172 26.8369 137.172 27.2988V27.3388C137.188 27.3388 137.199 27.3388 137.209 27.3388C137.311 27.3388 137.412 27.3363 137.513 27.3395C137.627 27.3431 137.741 27.3486 137.854 27.3597C137.941 27.3684 138.023 27.3999 138.101 27.4378C138.305 27.5357 138.459 27.6826 138.562 27.8819C138.627 28.0081 138.666 28.14 138.666 28.2827C138.666 29.6098 138.665 30.937 138.667 32.2641C138.667 32.3898 138.648 32.5096 138.601 32.6264C138.538 32.7847 138.44 32.9182 138.307 33.0254C138.162 33.1428 137.997 33.2182 137.808 33.2407C137.801 33.2416 137.794 33.2468 137.787 33.2499V33.25ZM134.003 27.3449C134.486 27.3449 134.969 27.3449 135.453 27.3449C135.485 27.3449 135.501 27.3294 135.501 27.2984C135.501 26.8365 135.501 26.3747 135.501 25.9128C135.5 25.7917 135.491 25.6715 135.464 25.5525C135.429 25.3949 135.369 25.2473 135.284 25.1102C135.117 24.8416 134.887 24.6437 134.594 24.517C134.457 24.4579 134.313 24.419 134.165 24.4052C134.018 24.3915 133.869 24.3944 133.722 24.4228C133.592 24.4478 133.468 24.4871 133.35 24.544C133.112 24.6588 132.917 24.8244 132.766 25.0399C132.638 25.2221 132.558 25.4235 132.521 25.6407C132.507 25.7245 132.505 25.811 132.505 25.8962C132.503 26.365 132.504 26.8338 132.504 27.3027C132.504 27.3309 132.518 27.3449 132.547 27.345C133.032 27.345 133.517 27.345 134.003 27.345L134.003 27.3449Z" fill="#F8F9FA"/>
<g clip-path="url(#clip0_1288_15949)">
<path d="M272.646 25.1022C272.646 26.0656 271.862 26.8574 270.871 26.8574C269.876 26.8574 269.086 26.0604 269.086 25.1022C269.086 24.1441 269.876 23.3471 270.871 23.3471C271.862 23.3471 272.646 24.1389 272.646 25.1022ZM264.846 23.4492C264.846 24.7202 263.818 25.7553 262.514 25.7553C261.206 25.7553 260.171 24.7159 260.171 23.4492C260.171 22.1825 261.206 21.1431 262.514 21.1431C263.818 21.1431 264.846 22.1781 264.846 23.4492ZM265.743 33.092C265.743 32.9598 265.802 32.767 266.088 32.5066C266.379 32.2405 266.832 31.9792 267.411 31.7503C268.568 31.292 269.975 31.0614 270.871 31.0614C271.767 31.0614 273.175 31.292 274.332 31.7503C274.911 31.9792 275.364 32.2405 275.655 32.5066C275.941 32.767 276 32.9598 276 33.092V34.5716H265.743V33.092ZM255.714 32.8165C255.714 32.5463 255.843 32.233 256.242 31.8694C256.647 31.5 257.256 31.1527 258.009 30.8549C259.515 30.2589 261.34 29.9594 262.514 29.9594C262.573 29.9594 262.633 29.9602 262.694 29.9618C262.458 30.2409 262.264 30.5264 262.106 30.8135C261.632 31.6744 261.514 32.4928 261.514 33.092V34.5716H255.714V32.8165Z" stroke="#F8F9FA" stroke-width="2"/>
</g>
<path d="M244.482 51H243.558L246.229 43.7273H247.138L249.808 51H248.885L246.712 44.8778H246.655L244.482 51ZM244.823 48.1591H248.544V48.9403H244.823V48.1591ZM250.828 53.0455V45.5455H251.637V46.4119H251.737C251.798 46.3172 251.883 46.1965 251.992 46.0497C252.104 45.9006 252.262 45.768 252.468 45.652C252.677 45.5336 252.958 45.4744 253.313 45.4744C253.773 45.4744 254.177 45.5893 254.528 45.8189C254.878 46.0485 255.152 46.3741 255.348 46.7955C255.545 47.2169 255.643 47.714 255.643 48.2869C255.643 48.8646 255.545 49.3653 255.348 49.7891C255.152 50.2105 254.879 50.5372 254.531 50.7692C254.183 50.9988 253.782 51.1136 253.328 51.1136C252.977 51.1136 252.697 51.0556 252.486 50.9396C252.275 50.8213 252.113 50.6875 251.999 50.5384C251.886 50.3868 251.798 50.2614 251.737 50.1619H251.666V53.0455H250.828ZM251.651 48.2727C251.651 48.6847 251.712 49.0481 251.833 49.3629C251.953 49.6754 252.13 49.9205 252.362 50.098C252.594 50.2732 252.878 50.3608 253.214 50.3608C253.564 50.3608 253.857 50.2685 254.091 50.0838C254.328 49.8968 254.505 49.6458 254.624 49.331C254.744 49.0137 254.805 48.661 254.805 48.2727C254.805 47.8892 254.746 47.5436 254.627 47.2358C254.511 46.9257 254.335 46.6806 254.098 46.5007C253.864 46.3184 253.569 46.2273 253.214 46.2273C252.873 46.2273 252.587 46.3137 252.355 46.4865C252.123 46.657 251.947 46.8961 251.829 47.2038C251.711 47.5092 251.651 47.8655 251.651 48.2727ZM256.921 53.0455V45.5455H257.731V46.4119H257.83C257.892 46.3172 257.977 46.1965 258.086 46.0497C258.197 45.9006 258.356 45.768 258.562 45.652C258.77 45.5336 259.052 45.4744 259.407 45.4744C259.866 45.4744 260.271 45.5893 260.622 45.8189C260.972 46.0485 261.245 46.3741 261.442 46.7955C261.638 47.2169 261.737 47.714 261.737 48.2869C261.737 48.8646 261.638 49.3653 261.442 49.7891C261.245 50.2105 260.973 50.5372 260.625 50.7692C260.277 50.9988 259.876 51.1136 259.421 51.1136C259.071 51.1136 258.79 51.0556 258.58 50.9396C258.369 50.8213 258.207 50.6875 258.093 50.5384C257.98 50.3868 257.892 50.2614 257.83 50.1619H257.759V53.0455H256.921ZM257.745 48.2727C257.745 48.6847 257.806 49.0481 257.926 49.3629C258.047 49.6754 258.223 49.9205 258.455 50.098C258.687 50.2732 258.972 50.3608 259.308 50.3608C259.658 50.3608 259.95 50.2685 260.185 50.0838C260.422 49.8968 260.599 49.6458 260.718 49.331C260.838 49.0137 260.899 48.661 260.899 48.2727C260.899 47.8892 260.839 47.5436 260.721 47.2358C260.605 46.9257 260.429 46.6806 260.192 46.5007C259.958 46.3184 259.663 46.2273 259.308 46.2273C258.967 46.2273 258.68 46.3137 258.448 46.4865C258.216 46.657 258.041 46.8961 257.923 47.2038C257.804 47.5092 257.745 47.8655 257.745 48.2727ZM263.853 43.7273V51H263.015V43.7273H263.853ZM265.388 51V45.5455H266.226V51H265.388ZM265.814 44.6364C265.651 44.6364 265.51 44.5807 265.392 44.4695C265.276 44.3582 265.218 44.2244 265.218 44.0682C265.218 43.9119 265.276 43.7782 265.392 43.6669C265.51 43.5556 265.651 43.5 265.814 43.5C265.978 43.5 266.117 43.5556 266.233 43.6669C266.352 43.7782 266.411 43.9119 266.411 44.0682C266.411 44.2244 266.352 44.3582 266.233 44.4695C266.117 44.5807 265.978 44.6364 265.814 44.6364ZM269.977 51.1136C269.466 51.1136 269.025 50.9929 268.656 50.7514C268.287 50.5099 268.003 50.1773 267.804 49.7536C267.605 49.3298 267.506 48.8456 267.506 48.3011C267.506 47.7472 267.607 47.2583 267.811 46.8345C268.017 46.4084 268.303 46.0758 268.67 45.8366C269.04 45.5952 269.47 45.4744 269.963 45.4744C270.346 45.4744 270.692 45.5455 271 45.6875C271.308 45.8295 271.56 46.0284 271.756 46.2841C271.953 46.5398 272.075 46.8381 272.122 47.179H271.284C271.22 46.9304 271.078 46.7102 270.858 46.5185C270.64 46.3243 270.346 46.2273 269.977 46.2273C269.65 46.2273 269.364 46.3125 269.118 46.483C268.874 46.651 268.683 46.889 268.546 47.1967C268.411 47.5021 268.344 47.8608 268.344 48.2727C268.344 48.6941 268.41 49.0611 268.542 49.3736C268.677 49.6861 268.867 49.9287 269.111 50.1016C269.357 50.2744 269.646 50.3608 269.977 50.3608C270.195 50.3608 270.393 50.3229 270.57 50.2472C270.748 50.1714 270.898 50.0625 271.021 49.9205C271.144 49.7784 271.232 49.608 271.284 49.4091H272.122C272.075 49.7311 271.957 50.0211 271.77 50.2791C271.586 50.5348 271.341 50.7384 271.035 50.8899C270.732 51.0391 270.38 51.1136 269.977 51.1136ZM274.952 51.1278C274.607 51.1278 274.293 51.0627 274.011 50.9325C273.729 50.8 273.506 50.6094 273.34 50.3608C273.174 50.1098 273.091 49.8068 273.091 49.4517C273.091 49.1392 273.153 48.8859 273.276 48.6918C273.399 48.4953 273.564 48.3414 273.77 48.2301C273.976 48.1188 274.203 48.036 274.452 47.9815C274.702 47.9247 274.955 47.8797 275.208 47.8466C275.539 47.804 275.808 47.772 276.014 47.7507C276.222 47.727 276.374 47.688 276.469 47.6335C276.566 47.5791 276.614 47.4844 276.614 47.3494V47.321C276.614 46.9706 276.518 46.6984 276.327 46.5043C276.137 46.3101 275.849 46.2131 275.464 46.2131C275.064 46.2131 274.75 46.3007 274.523 46.4759C274.295 46.651 274.135 46.8381 274.043 47.0369L273.248 46.7528C273.39 46.4214 273.579 46.1634 273.816 45.9787C274.055 45.7917 274.315 45.6615 274.597 45.5881C274.881 45.5123 275.161 45.4744 275.435 45.4744C275.61 45.4744 275.812 45.4957 276.039 45.5384C276.269 45.5786 276.49 45.6626 276.703 45.7905C276.918 45.9183 277.097 46.1113 277.239 46.3693C277.381 46.6274 277.452 46.973 277.452 47.4062V51H276.614V50.2614H276.572C276.515 50.3797 276.42 50.5064 276.287 50.6413C276.155 50.7763 275.979 50.8911 275.758 50.9858C275.538 51.0805 275.269 51.1278 274.952 51.1278ZM275.08 50.375C275.412 50.375 275.691 50.3099 275.918 50.1797C276.148 50.0495 276.321 49.8814 276.437 49.6754C276.555 49.4695 276.614 49.2528 276.614 49.0256V48.2585C276.579 48.3011 276.501 48.3402 276.38 48.3757C276.261 48.4089 276.124 48.4384 275.968 48.4645C275.814 48.4882 275.664 48.5095 275.517 48.5284C275.372 48.545 275.255 48.5592 275.165 48.571C274.948 48.5994 274.744 48.6456 274.555 48.7095C274.367 48.7711 274.216 48.8646 274.1 48.9901C273.986 49.1132 273.93 49.2812 273.93 49.4943C273.93 49.7855 274.037 50.0057 274.253 50.1548C274.47 50.3016 274.746 50.375 275.08 50.375ZM279.82 47.7188V51H278.982V45.5455H279.792V46.3977H279.863C279.99 46.1207 280.185 45.8982 280.445 45.7301C280.705 45.5597 281.042 45.4744 281.453 45.4744C281.823 45.4744 282.146 45.5502 282.423 45.7017C282.7 45.8509 282.915 46.0781 283.069 46.3835C283.223 46.6866 283.3 47.0701 283.3 47.5341V51H282.462V47.5909C282.462 47.1624 282.351 46.8286 282.128 46.5895C281.906 46.348 281.6 46.2273 281.212 46.2273C280.944 46.2273 280.705 46.2853 280.495 46.4013C280.286 46.5173 280.122 46.6866 280.001 46.9091C279.88 47.1316 279.82 47.4015 279.82 47.7188ZM287.204 45.5455V46.2557H284.377V45.5455H287.204ZM285.201 44.2386H286.039V49.4375C286.039 49.6742 286.073 49.8518 286.142 49.9702C286.213 50.0862 286.303 50.1643 286.412 50.2045C286.523 50.2424 286.64 50.2614 286.763 50.2614C286.856 50.2614 286.931 50.2566 286.991 50.2472C287.05 50.2353 287.097 50.2259 287.133 50.2188L287.303 50.9716C287.246 50.9929 287.167 51.0142 287.065 51.0355C286.963 51.0592 286.834 51.071 286.678 51.071C286.441 51.071 286.209 51.0201 285.982 50.9183C285.757 50.8165 285.57 50.6615 285.421 50.4531C285.274 50.2448 285.201 49.982 285.201 49.6648V44.2386Z" fill="#F8F9FA"/>
<path d="M135.733 46H134.852C134.8 45.7467 134.709 45.5241 134.579 45.3324C134.451 45.1406 134.295 44.9796 134.11 44.8494C133.928 44.7169 133.725 44.6174 133.503 44.5511C133.28 44.4848 133.048 44.4517 132.807 44.4517C132.366 44.4517 131.968 44.563 131.61 44.7855C131.255 45.008 130.972 45.3359 130.761 45.7692C130.553 46.2024 130.449 46.7339 130.449 47.3636C130.449 47.9934 130.553 48.5249 130.761 48.9581C130.972 49.3913 131.255 49.7192 131.61 49.9418C131.968 50.1643 132.366 50.2756 132.807 50.2756C133.048 50.2756 133.28 50.2424 133.503 50.1761C133.725 50.1098 133.928 50.0116 134.11 49.8814C134.295 49.7488 134.451 49.5866 134.579 49.3949C134.709 49.2008 134.8 48.9782 134.852 48.7273H135.733C135.667 49.099 135.546 49.4316 135.371 49.7251C135.196 50.0187 134.978 50.2685 134.717 50.4744C134.457 50.678 134.165 50.8331 133.84 50.9396C133.518 51.0462 133.174 51.0994 132.807 51.0994C132.187 51.0994 131.635 50.9479 131.152 50.6449C130.669 50.3419 130.289 49.911 130.012 49.3523C129.735 48.7936 129.597 48.1307 129.597 47.3636C129.597 46.5966 129.735 45.9337 130.012 45.375C130.289 44.8163 130.669 44.3854 131.152 44.0824C131.635 43.7794 132.187 43.6278 132.807 43.6278C133.174 43.6278 133.518 43.6811 133.84 43.7876C134.165 43.8942 134.457 44.0504 134.717 44.2564C134.978 44.46 135.196 44.7086 135.371 45.0021C135.546 45.2933 135.667 45.6259 135.733 46ZM137.042 51V45.5455H137.881V51H137.042ZM137.469 44.6364C137.305 44.6364 137.164 44.5807 137.046 44.4695C136.93 44.3582 136.872 44.2244 136.872 44.0682C136.872 43.9119 136.93 43.7782 137.046 43.6669C137.164 43.5556 137.305 43.5 137.469 43.5C137.632 43.5 137.772 43.5556 137.888 43.6669C138.006 43.7782 138.065 43.9119 138.065 44.0682C138.065 44.2244 138.006 44.3582 137.888 44.4695C137.772 44.5807 137.632 44.6364 137.469 44.6364ZM143.876 45.5455L141.859 51H141.006L138.989 45.5455H139.898L141.404 49.892H141.461L142.967 45.5455H143.876ZM144.982 51V45.5455H145.82V51H144.982ZM145.408 44.6364C145.245 44.6364 145.104 44.5807 144.985 44.4695C144.869 44.3582 144.811 44.2244 144.811 44.0682C144.811 43.9119 144.869 43.7782 144.985 43.6669C145.104 43.5556 145.245 43.5 145.408 43.5C145.571 43.5 145.711 43.5556 145.827 43.6669C145.945 43.7782 146.005 43.9119 146.005 44.0682C146.005 44.2244 145.945 44.3582 145.827 44.4695C145.711 44.5807 145.571 44.6364 145.408 44.6364ZM148.193 43.7273V51H147.355V43.7273H148.193ZM156.631 45.5455C156.589 45.1856 156.416 44.9062 156.113 44.7074C155.81 44.5085 155.438 44.4091 154.998 44.4091C154.676 44.4091 154.394 44.4612 154.153 44.5653C153.914 44.6695 153.727 44.8127 153.592 44.995C153.459 45.1773 153.393 45.3845 153.393 45.6165C153.393 45.8106 153.439 45.9775 153.531 46.1172C153.626 46.2545 153.747 46.3693 153.893 46.4616C154.04 46.5516 154.194 46.6262 154.355 46.6854C154.516 46.7422 154.664 46.7884 154.799 46.8239L155.538 47.0227C155.727 47.0724 155.938 47.1411 156.17 47.2287C156.404 47.3163 156.628 47.4358 156.841 47.5874C157.056 47.7365 157.234 47.9283 157.374 48.1626C157.513 48.397 157.583 48.6847 157.583 49.0256C157.583 49.4186 157.48 49.7737 157.274 50.0909C157.071 50.4081 156.772 50.6603 156.379 50.8473C155.989 51.0343 155.514 51.1278 154.955 51.1278C154.434 51.1278 153.983 51.0438 153.602 50.8757C153.223 50.7076 152.925 50.4732 152.707 50.1726C152.492 49.8719 152.37 49.5227 152.342 49.125H153.251C153.274 49.3996 153.367 49.6269 153.528 49.8068C153.691 49.9844 153.897 50.117 154.146 50.2045C154.397 50.2898 154.666 50.3324 154.955 50.3324C155.291 50.3324 155.593 50.2779 155.861 50.169C156.128 50.0578 156.34 49.9039 156.496 49.7074C156.653 49.5085 156.731 49.2765 156.731 49.0114C156.731 48.7699 156.663 48.5734 156.528 48.4219C156.393 48.2704 156.216 48.1473 155.996 48.0526C155.776 47.9579 155.538 47.875 155.282 47.804L154.387 47.5483C153.819 47.3849 153.369 47.1518 153.038 46.8487C152.706 46.5457 152.54 46.1491 152.54 45.6591C152.54 45.2519 152.651 44.8968 152.871 44.5938C153.093 44.2884 153.392 44.0516 153.766 43.8835C154.142 43.7131 154.562 43.6278 155.026 43.6278C155.495 43.6278 155.912 43.7119 156.276 43.88C156.641 44.0457 156.93 44.273 157.143 44.5618C157.358 44.8506 157.472 45.1785 157.484 45.5455H156.631ZM161.204 51.1136C160.679 51.1136 160.225 50.9976 159.844 50.7656C159.465 50.5312 159.173 50.2045 158.967 49.7855C158.764 49.3641 158.662 48.8741 158.662 48.3153C158.662 47.7566 158.764 47.2642 158.967 46.8381C159.173 46.4096 159.46 46.0758 159.827 45.8366C160.196 45.5952 160.627 45.4744 161.119 45.4744C161.403 45.4744 161.684 45.5218 161.961 45.6165C162.238 45.7112 162.49 45.8651 162.717 46.0781C162.944 46.2888 163.126 46.5682 163.26 46.9162C163.395 47.2642 163.463 47.6927 163.463 48.2017V48.5568H159.258V47.8324H162.611C162.611 47.5246 162.549 47.25 162.426 47.0085C162.305 46.767 162.132 46.5765 161.907 46.4368C161.685 46.2971 161.422 46.2273 161.119 46.2273C160.785 46.2273 160.497 46.3101 160.253 46.4759C160.011 46.6392 159.825 46.8523 159.695 47.1151C159.565 47.3778 159.5 47.6596 159.5 47.9602V48.4432C159.5 48.8551 159.571 49.2043 159.713 49.4908C159.857 49.7749 160.057 49.9915 160.313 50.1406C160.569 50.2874 160.866 50.3608 161.204 50.3608C161.425 50.3608 161.623 50.33 161.801 50.2685C161.981 50.2045 162.136 50.1098 162.266 49.9844C162.396 49.8565 162.497 49.6979 162.568 49.5085L163.378 49.7358C163.292 50.0104 163.149 50.2519 162.948 50.4602C162.747 50.6662 162.498 50.8272 162.202 50.9432C161.906 51.0568 161.574 51.1136 161.204 51.1136ZM164.738 51V45.5455H165.547V46.3693H165.604C165.704 46.0994 165.884 45.8804 166.144 45.7124C166.404 45.5443 166.698 45.4602 167.025 45.4602C167.086 45.4602 167.163 45.4614 167.256 45.4638C167.348 45.4661 167.418 45.4697 167.465 45.4744V46.3267C167.437 46.3196 167.372 46.3089 167.27 46.2947C167.17 46.2782 167.065 46.2699 166.954 46.2699C166.689 46.2699 166.452 46.3255 166.243 46.4368C166.037 46.5457 165.874 46.6972 165.753 46.8913C165.635 47.0831 165.576 47.3021 165.576 47.5483V51H164.738ZM173.085 45.5455L171.068 51H170.215L168.198 45.5455H169.107L170.613 49.892H170.67L172.176 45.5455H173.085ZM175.63 51.1278C175.284 51.1278 174.971 51.0627 174.689 50.9325C174.407 50.8 174.183 50.6094 174.018 50.3608C173.852 50.1098 173.769 49.8068 173.769 49.4517C173.769 49.1392 173.831 48.8859 173.954 48.6918C174.077 48.4953 174.241 48.3414 174.447 48.2301C174.653 48.1188 174.881 48.036 175.129 47.9815C175.38 47.9247 175.632 47.8797 175.886 47.8466C176.217 47.804 176.486 47.772 176.692 47.7507C176.9 47.727 177.052 47.688 177.146 47.6335C177.243 47.5791 177.292 47.4844 177.292 47.3494V47.321C177.292 46.9706 177.196 46.6984 177.004 46.5043C176.815 46.3101 176.527 46.2131 176.141 46.2131C175.741 46.2131 175.428 46.3007 175.2 46.4759C174.973 46.651 174.813 46.8381 174.721 47.0369L173.925 46.7528C174.067 46.4214 174.257 46.1634 174.494 45.9787C174.733 45.7917 174.993 45.6615 175.275 45.5881C175.559 45.5123 175.838 45.4744 176.113 45.4744C176.288 45.4744 176.489 45.4957 176.717 45.5384C176.946 45.5786 177.168 45.6626 177.381 45.7905C177.596 45.9183 177.775 46.1113 177.917 46.3693C178.059 46.6274 178.13 46.973 178.13 47.4062V51H177.292V50.2614H177.249C177.192 50.3797 177.098 50.5064 176.965 50.6413C176.833 50.7763 176.656 50.8911 176.436 50.9858C176.216 51.0805 175.947 51.1278 175.63 51.1278ZM175.758 50.375C176.089 50.375 176.369 50.3099 176.596 50.1797C176.826 50.0495 176.998 49.8814 177.114 49.6754C177.233 49.4695 177.292 49.2528 177.292 49.0256V48.2585C177.256 48.3011 177.178 48.3402 177.058 48.3757C176.939 48.4089 176.802 48.4384 176.646 48.4645C176.492 48.4882 176.341 48.5095 176.195 48.5284C176.05 48.545 175.933 48.5592 175.843 48.571C175.625 48.5994 175.422 48.6456 175.232 48.7095C175.045 48.7711 174.894 48.8646 174.778 48.9901C174.664 49.1132 174.607 49.2812 174.607 49.4943C174.607 49.7855 174.715 50.0057 174.93 50.1548C175.148 50.3016 175.424 50.375 175.758 50.375ZM180.498 47.7188V51H179.66V45.5455H180.469V46.3977H180.54C180.668 46.1207 180.862 45.8982 181.123 45.7301C181.383 45.5597 181.719 45.4744 182.131 45.4744C182.501 45.4744 182.824 45.5502 183.101 45.7017C183.378 45.8509 183.593 46.0781 183.747 46.3835C183.901 46.6866 183.978 47.0701 183.978 47.5341V51H183.14V47.5909C183.14 47.1624 183.028 46.8286 182.806 46.5895C182.583 46.348 182.278 46.2273 181.89 46.2273C181.622 46.2273 181.383 46.2853 181.172 46.4013C180.964 46.5173 180.8 46.6866 180.679 46.9091C180.558 47.1316 180.498 47.4015 180.498 47.7188ZM187.881 45.5455V46.2557H185.055V45.5455H187.881ZM185.879 44.2386H186.717V49.4375C186.717 49.6742 186.751 49.8518 186.82 49.9702C186.891 50.0862 186.981 50.1643 187.089 50.2045C187.201 50.2424 187.318 50.2614 187.441 50.2614C187.533 50.2614 187.609 50.2566 187.668 50.2472C187.728 50.2353 187.775 50.2259 187.81 50.2188L187.981 50.9716C187.924 50.9929 187.845 51.0142 187.743 51.0355C187.641 51.0592 187.512 51.071 187.356 51.071C187.119 51.071 186.887 51.0201 186.66 50.9183C186.435 50.8165 186.248 50.6615 186.099 50.4531C185.952 50.2448 185.879 49.982 185.879 49.6648V44.2386Z" fill="#F8F9FA"/>
<path d="M164.833 34.5V32.8333C164.833 31.9493 164.482 31.1014 163.857 30.4763C163.232 29.8512 162.384 29.5 161.5 29.5H156.5C155.616 29.5 154.768 29.8512 154.143 30.4763C153.518 31.1014 153.167 31.9493 153.167 32.8333V34.5" stroke="#F8F9FA" stroke-width="2" stroke-linecap="round" stroke-linejoin="round"/>
<path d="M157.333 29.5L157.333 30.7502C157.333 31.6342 158.792 34.0833 159 34.5C159.208 34.0833 160.667 31.6342 160.667 30.7502L160.667 29.5" stroke="#F8F9FA" stroke-width="2" stroke-linecap="round" stroke-linejoin="round"/>
<path d="M159 26.1667C160.841 26.1667 162.333 24.6743 162.333 22.8333C162.333 20.9924 160.841 19.5 159 19.5C157.159 19.5 155.667 20.9924 155.667 22.8333C155.667 24.6743 157.159 26.1667 159 26.1667Z" stroke="#F8F9FA" stroke-width="2" stroke-linecap="round" stroke-linejoin="round"/>
<line x1="149.833" y1="35.1665" x2="168.167" y2="35.9998" stroke="#F8F9FA" stroke-width="2"/>
<path d="M225 27L229 31L225 35" stroke="#F8F9FA" stroke-linecap="round"/>
<path d="M201 27L205 31L201 35" stroke="#F8F9FA" stroke-linecap="round"/>
<circle cx="175" cy="31" r="2.5" stroke="#F8F9FA"/>
<defs>
<clipPath id="clip0_1288_15949">
<rect width="24" height="24" fill="white" transform="translate(253 15)"/>
</clipPath>
</defs>
</svg>
