<svg width="320" height="85" viewBox="0 0 320 85" fill="none" xmlns="http://www.w3.org/2000/svg">
<line x1="196" y1="43" x2="267" y2="43" stroke="#F8F9FA" stroke-width="2" stroke-linecap="round" stroke-dasharray="4 4"/>
<line x1="45.1314" y1="24.1515" x2="141.151" y2="37.8686" stroke="#F8F9FA" stroke-width="2" stroke-linecap="round" stroke-dasharray="4 4"/>
<line x1="48.7691" y1="63.8889" x2="140.813" y2="44.2309" stroke="#F8F9FA" stroke-width="2" stroke-linecap="round" stroke-dasharray="4 4"/>
<circle cx="150" cy="41" r="9" stroke="#F8F9FA" stroke-width="2"/>
<path d="M30.2343 40.8124C30.2238 40.7185 30.2073 40.6245 30.1847 40.5325C30.1467 40.3777 30.0872 40.2299 30.0115 40.0882C29.9049 39.8885 29.7694 39.7092 29.6043 39.551C29.4234 39.3776 29.2186 39.2356 28.9857 39.1364C28.8532 39.0799 28.7144 39.0348 28.5747 38.9974C28.4754 38.9706 28.3699 38.9659 28.2672 38.9505C28.0986 38.9251 27.93 38.9377 27.7628 38.9577C27.5825 38.9794 27.407 39.0255 27.2389 39.0921C26.9928 39.1895 26.7695 39.3243 26.5756 39.5C26.2837 39.7646 26.0773 40.0808 25.9635 40.4534C25.9095 40.6307 25.8776 40.8113 25.8746 40.9942C25.8724 41.1333 25.8873 41.2742 25.9112 41.4117C25.9336 41.5405 25.9689 41.669 26.0144 41.792C26.1037 42.0336 26.2414 42.2506 26.418 42.4423C26.6754 42.7217 26.9859 42.9266 27.355 43.0457C27.4154 43.0652 27.4428 43.1056 27.4372 43.167C27.4369 43.1697 27.4368 43.1724 27.4367 43.175C27.4299 43.3565 27.3957 43.5332 27.3353 43.7053C27.254 43.9365 27.1115 44.1229 26.9013 44.2602C26.7517 44.3579 26.5894 44.4294 26.4164 44.4781C26.304 44.5097 26.1914 44.5415 26.0774 44.5667C25.9832 44.5874 25.8867 44.5996 25.791 44.6138C25.6733 44.6312 25.5557 44.6494 25.4375 44.6624C25.277 44.6801 25.1159 44.6932 24.955 44.7083C24.7791 44.7248 24.6033 44.741 24.4275 44.7579C24.3267 44.7676 24.2257 44.7764 24.1252 44.7892C24.0101 44.8038 23.8955 44.8216 23.7809 44.8393C23.689 44.8535 23.5968 44.866 23.5062 44.8854C23.3826 44.9118 23.2594 44.9408 23.1379 44.9749C23.0203 45.0078 22.9045 45.047 22.7892 45.0867C22.726 45.1084 22.6652 45.1366 22.5974 45.1644V45.1064C22.5974 43.8831 22.5974 42.6598 22.5974 41.4365C22.5974 41.426 22.5983 41.4153 22.5973 41.4048C22.5951 41.3827 22.6052 41.373 22.6271 41.3652C22.6922 41.3424 22.7567 41.3174 22.8204 41.2911C23.1516 41.1546 23.4264 40.9469 23.6508 40.6764C23.8393 40.4492 23.9775 40.1966 24.0492 39.9131C24.0786 39.7971 24.1045 39.6793 24.118 39.5608C24.14 39.3684 24.1284 39.1761 24.0925 38.9848C24.0642 38.8342 24.0205 38.6882 23.9596 38.5476C23.8989 38.4074 23.8219 38.2753 23.7308 38.1504C23.465 37.7863 23.1133 37.5305 22.6826 37.3753C22.5 37.3095 22.3094 37.2716 22.1154 37.2572C21.9027 37.2416 21.6893 37.2496 21.4818 37.298C21.3424 37.3305 21.2049 37.3753 21.0721 37.4275C20.7412 37.5575 20.4678 37.7644 20.2422 38.0302C20.0816 38.2194 19.9603 38.4297 19.8757 38.661C19.8242 38.802 19.7874 38.9459 19.7681 39.0932C19.7421 39.2905 19.7434 39.4879 19.7782 39.6856C19.801 39.8158 19.8333 39.9423 19.8775 40.067C19.9613 40.3027 20.0878 40.5152 20.2521 40.7059C20.5126 41.0085 20.8367 41.2257 21.2222 41.3549C21.2673 41.37 21.2817 41.3877 21.2817 41.4342C21.2803 43.1447 21.2805 44.8552 21.2805 46.5657C21.2805 46.5736 21.2798 46.5816 21.2806 46.5895C21.2835 46.6155 21.2742 46.6283 21.2459 46.6376C21.1727 46.6616 21.0998 46.6875 21.0299 46.7192C20.731 46.8544 20.4725 47.0416 20.2612 47.287C20.049 47.5334 19.8998 47.8106 19.8188 48.1225C19.7841 48.2563 19.7612 48.3913 19.7533 48.5281C19.7396 48.7629 19.7685 48.9938 19.8355 49.2206C19.8975 49.4304 19.9904 49.6257 20.1155 49.8069C20.2628 50.0206 20.4446 50.2019 20.6605 50.3529C20.8264 50.469 21.0054 50.5607 21.1972 50.6276C21.3603 50.6844 21.5285 50.7254 21.7028 50.7375C21.7187 50.7386 21.7342 50.7457 21.7499 50.75H22.1288C22.1445 50.7457 22.16 50.7389 22.176 50.7375C22.3595 50.722 22.5355 50.6778 22.7081 50.6165C22.9932 50.5151 23.2435 50.3614 23.4606 50.158C23.7132 49.9213 23.898 49.6431 24.0111 49.3195C24.0645 49.1662 24.1008 49.0104 24.1179 48.8509C24.135 48.6904 24.1311 48.5294 24.1089 48.3681C24.0883 48.2174 24.0524 48.0712 24.0006 47.9287C23.9364 47.7521 23.8483 47.586 23.7358 47.4336C23.5068 47.1237 23.2165 46.8832 22.8548 46.7265C22.8147 46.7092 22.7751 46.6908 22.7226 46.6672C22.784 46.6006 22.8352 46.538 22.894 46.483C23.0087 46.3753 23.1496 46.3072 23.2983 46.2551C23.3901 46.223 23.4845 46.1975 23.5787 46.1721C23.6416 46.1551 23.7058 46.142 23.7699 46.1297C23.8636 46.1118 23.9573 46.0931 24.0519 46.08C24.1846 46.0618 24.3179 46.048 24.4511 46.0332C24.5587 46.0212 24.6663 46.01 24.774 45.9997C24.8572 45.9916 24.9406 45.9861 25.0238 45.9783C25.1369 45.9677 25.2499 45.9563 25.3629 45.9446C25.5044 45.93 25.6464 45.919 25.7871 45.8987C25.9639 45.8733 26.1401 45.8425 26.3156 45.8092C26.4413 45.7855 26.5682 45.7619 26.6898 45.7241C26.8653 45.6697 27.0382 45.6064 27.2092 45.5396C27.4192 45.4576 27.6103 45.3426 27.788 45.2074C28.0069 45.0408 28.1899 44.8436 28.3383 44.6148C28.4645 44.42 28.5602 44.2128 28.6249 43.9931C28.6659 43.8541 28.6993 43.712 28.7213 43.5692C28.7451 43.4153 28.7542 43.259 28.7638 43.1034C28.7664 43.0627 28.7784 43.0415 28.8166 43.0303C28.8399 43.0234 28.8628 43.0147 28.8855 43.0059C29.218 42.8764 29.4984 42.6768 29.7308 42.4146C29.9713 42.1432 30.1294 41.8307 30.2053 41.4821C30.2319 41.36 30.2423 41.2338 30.2486 41.1089C30.2534 41.0104 30.2453 40.9107 30.2343 40.8124ZM21.937 49.0634C21.6925 49.0619 21.5011 48.8787 21.501 48.6412C21.5009 48.4138 21.6973 48.2248 21.9384 48.2243C22.1712 48.2239 22.3798 48.4197 22.3684 48.6443C22.3782 48.8675 22.1783 49.0648 21.937 49.0634ZM21.9349 39.7841C21.6957 39.782 21.5014 39.5949 21.5011 39.3682C21.5006 39.1295 21.6923 38.9472 21.9362 38.9454C22.1786 38.9435 22.3779 39.1408 22.3684 39.3638C22.3798 39.5902 22.1699 39.7863 21.9349 39.7841ZM28.0591 41.4688C27.8219 41.478 27.6224 41.2705 27.6252 41.0487C27.6281 40.8231 27.8224 40.6313 28.0628 40.6317C28.3 40.6321 28.4949 40.8238 28.495 41.0536C28.4952 41.2797 28.2952 41.4771 28.0591 41.4688Z" fill="#F8F9FA"/>
<path d="M156.729 20.6765C156.669 20.5203 156.56 20.4417 156.408 20.433C156.392 20.432 156.375 20.4326 156.358 20.4326H150.575C150.501 20.4326 150.51 20.4378 150.51 20.3594C150.51 20.0921 150.51 19.8249 150.51 19.5577V19.499H150.557C151.053 19.499 151.548 19.4999 152.044 19.4986C152.23 19.4981 152.385 19.4148 152.514 19.2682C152.598 19.1731 152.653 19.0601 152.683 18.9324C152.694 18.8894 152.7 18.844 152.7 18.7997C152.701 17.7667 152.703 16.7336 152.699 15.7006C152.699 15.4978 152.613 15.3295 152.479 15.1933C152.387 15.0993 152.28 15.034 152.154 15.0148C152.105 15.0073 152.055 15.0008 152.005 15.0008C150.664 15 149.322 15.0004 147.98 15C147.74 14.9999 147.554 15.114 147.417 15.3278C147.363 15.4116 147.324 15.5048 147.313 15.6092C147.308 15.6588 147.301 15.7087 147.301 15.7584C147.3 16.7582 147.3 17.7579 147.301 18.7578C147.302 19.0299 147.414 19.2366 147.618 19.3849C147.727 19.4646 147.847 19.4996 147.978 19.4994C148.466 19.4984 148.954 19.499 149.443 19.499H149.489C149.489 19.5191 149.491 19.5359 149.491 19.5527C149.491 19.8267 149.491 20.1005 149.491 20.3744C149.491 20.4324 149.491 20.4325 149.437 20.4325C147.499 20.4325 145.561 20.4327 143.623 20.4321C143.497 20.432 143.39 20.4739 143.315 20.5909C143.292 20.6264 143.28 20.6707 143.263 20.7107C143.26 20.7171 143.254 20.722 143.25 20.7276V21.2717C143.257 21.2888 143.264 21.3058 143.27 21.3229C143.331 21.4792 143.44 21.5576 143.591 21.5654C143.607 21.5662 143.623 21.5656 143.638 21.5656H145.723C145.758 21.5656 145.776 21.5852 145.776 21.6242C145.776 21.8978 145.776 22.1714 145.776 22.445C145.776 22.4619 145.774 22.4787 145.774 22.4993H145.725C145.35 22.4993 144.975 22.4999 144.601 22.499C144.361 22.4985 144.175 22.6119 144.036 22.8257C143.982 22.9097 143.943 23.0025 143.932 23.1067C143.926 23.1629 143.92 23.2196 143.92 23.2759C143.919 24.2733 143.918 25.2706 143.92 26.2679C143.921 26.5349 144.035 26.7379 144.235 26.8839C144.347 26.9654 144.469 26.9997 144.602 26.9996C145.727 26.9988 146.853 26.9999 147.978 26.9985C148.224 26.9982 148.41 26.8726 148.543 26.6466C148.615 26.5262 148.646 26.3945 148.646 26.251C148.646 25.2496 148.647 24.2483 148.646 23.247C148.646 22.9714 148.534 22.7625 148.328 22.6125C148.257 22.5613 148.182 22.5253 148.098 22.5138C148.05 22.5073 148.001 22.5002 147.953 22.5C147.582 22.4989 147.211 22.4994 146.839 22.4994H146.794C146.793 22.4814 146.792 22.4673 146.792 22.4532C146.792 22.1738 146.793 21.8946 146.791 21.6154C146.791 21.5747 146.802 21.564 146.838 21.564C148.944 21.5649 151.05 21.5648 153.156 21.5641C153.189 21.5641 153.202 21.5731 153.202 21.6126C153.2 21.8933 153.201 22.1738 153.201 22.4544C153.201 22.4674 153.2 22.4805 153.199 22.4994H153.156C152.78 22.4994 152.404 22.4998 152.028 22.4992C151.789 22.4988 151.604 22.6111 151.466 22.8237C151.411 22.9089 151.372 23.0024 151.36 23.1081C151.355 23.159 151.348 23.2103 151.348 23.2614C151.347 24.2613 151.346 25.2613 151.348 26.2613C151.349 26.5319 151.462 26.7372 151.665 26.8847C151.774 26.9646 151.894 26.9996 152.024 26.9995C153.151 26.999 154.278 26.998 155.405 27C155.702 27.0005 155.958 26.7738 156.043 26.4833C156.063 26.4142 156.073 26.3384 156.073 26.2657C156.075 25.255 156.076 24.2444 156.074 23.2338C156.073 22.9649 155.959 22.7609 155.758 22.6142C155.647 22.5335 155.526 22.4986 155.395 22.499C155.02 22.5001 154.645 22.4994 154.27 22.4994H154.223C154.222 22.481 154.22 22.4644 154.22 22.4478C154.22 22.1725 154.22 21.8973 154.22 21.6221C154.22 21.584 154.237 21.5649 154.271 21.5648C154.976 21.5648 155.681 21.5646 156.387 21.565C156.509 21.565 156.613 21.5203 156.686 21.4073C156.708 21.3717 156.72 21.3275 156.737 21.2874C156.74 21.281 156.746 21.2761 156.75 21.2705V20.7279C156.743 20.7109 156.736 20.6939 156.73 20.6768L156.729 20.6765ZM147.3 23.9993V25.4914H145.282V23.9993H147.3ZM148.657 17.999V16.5069H151.35V17.999H148.657ZM154.725 23.9993V25.4914H152.707V23.9993H154.725Z" fill="#F8F9FA"/>
<path d="M41.75 59.3966V60.6029C41.741 60.6249 41.731 60.6467 41.7231 60.6692C41.671 60.8163 41.5158 60.9304 41.3566 60.9377C41.3362 60.9387 41.3158 60.9387 41.2955 60.9387C38.2238 60.9387 35.1522 60.9385 32.0805 60.9394C31.9396 60.9394 31.8195 60.8982 31.7265 60.7925C31.6633 60.7206 31.6263 60.6361 31.6261 60.5395C31.6255 60.1789 31.6229 59.8182 31.6272 59.4576C31.6292 59.2924 31.7184 59.1741 31.8659 59.1004C31.931 59.0679 32.0024 59.0576 32.076 59.0576C35.1513 59.0581 38.2265 59.058 41.3018 59.0582C41.4916 59.0582 41.633 59.1382 41.7158 59.3103C41.7292 59.3381 41.7387 59.3678 41.75 59.3966Z" fill="#F8F9FA"/>
<path d="M41.75 67.736V68.9423C41.741 68.9644 41.731 68.9861 41.7231 69.0085C41.671 69.1556 41.5158 69.2698 41.3566 69.2771C41.3362 69.2781 41.3158 69.2781 41.2955 69.2781C38.2238 69.2781 35.1521 69.2779 32.0805 69.2787C31.9396 69.2788 31.8194 69.2376 31.7265 69.1318C31.6633 69.0601 31.6263 68.9755 31.6261 68.8789C31.6255 68.5183 31.6229 68.1576 31.6272 67.797C31.6292 67.6318 31.7184 67.5135 31.8659 67.4399C31.931 67.4073 32.0024 67.397 32.0761 67.397C35.1513 67.3975 38.2265 67.3973 41.3018 67.3975C41.4916 67.3975 41.633 67.4776 41.7158 67.6496C41.7292 67.6775 41.7387 67.7072 41.75 67.736Z" fill="#F8F9FA"/>
<path d="M41.7498 63.5697V64.7689C41.7411 64.7914 41.7323 64.8139 41.7235 64.8364C41.6723 64.966 41.5804 65.0536 41.4438 65.0886C41.3929 65.1015 41.3383 65.1044 41.2853 65.1044C39.312 65.1052 37.3386 65.105 35.3653 65.105C34.2691 65.105 33.173 65.1044 32.0768 65.1059C31.9558 65.1061 31.8488 65.0786 31.7599 64.9958C31.6751 64.917 31.6262 64.8206 31.626 64.704C31.6253 64.3481 31.6262 63.9922 31.6255 63.6362C31.6251 63.4286 31.8014 63.2463 32.0004 63.2334C32.0374 63.2311 32.0745 63.2285 32.1115 63.2285C35.1678 63.2282 38.2242 63.2283 41.2805 63.228C41.3912 63.228 41.4957 63.2449 41.5854 63.3151C41.6621 63.3752 41.7154 63.4497 41.7371 63.5452C41.7391 63.5538 41.7455 63.5616 41.7498 63.5697Z" fill="#F8F9FA"/>
<path d="M30.7856 64.9864C30.7853 65.1839 30.6763 65.3359 30.4895 65.4005C30.4552 65.4124 30.4172 65.42 30.381 65.4201C29.8054 65.4213 29.2298 65.423 28.6542 65.4196C28.4735 65.4186 28.3031 65.2813 28.2658 65.1041C28.2577 65.0654 28.253 65.0254 28.2528 64.9859C28.2517 64.7128 28.2522 64.4396 28.2522 64.1665C28.2522 63.8934 28.2552 63.6177 28.2513 63.3434C28.2483 63.1395 28.3873 62.9776 28.5613 62.9306C28.6 62.9202 28.6414 62.9155 28.6817 62.9155C29.2393 62.9145 29.7969 62.9142 30.3546 62.915C30.5585 62.9154 30.7239 63.0436 30.7735 63.2384C30.7825 63.2736 30.7853 63.311 30.7853 63.3474C30.7861 63.8937 30.7864 64.4401 30.7856 64.9864Z" fill="#F8F9FA"/>
<path d="M30.7833 60.8201C30.7828 60.984 30.7136 61.1137 30.5665 61.1972C30.5128 61.2277 30.4556 61.2483 30.3928 61.2491C30.3138 61.2502 30.2349 61.2507 30.156 61.2507C29.669 61.2508 29.1821 61.2498 28.6952 61.2515C28.5773 61.2518 28.4728 61.221 28.3864 61.1416C28.2993 61.0618 28.2504 60.9629 28.2504 60.8433C28.2504 60.2805 28.2509 59.7178 28.25 59.1551C28.2497 58.9863 28.372 58.8301 28.516 58.7777C28.5744 58.7564 28.6327 58.7501 28.6931 58.7501C28.9671 58.75 29.2411 58.7501 29.5151 58.7501V58.7508C29.8021 58.7508 30.0893 58.7486 30.3764 58.7516C30.5393 58.7533 30.6567 58.8342 30.7346 58.9741C30.7701 59.0379 30.7835 59.1068 30.7836 59.178C30.7842 59.7254 30.785 60.2727 30.7833 60.8201Z" fill="#F8F9FA"/>
<path d="M30.7886 69.1586C30.7882 69.344 30.6886 69.497 30.5008 69.567C30.4703 69.5784 30.4357 69.5841 30.4031 69.5841C29.8145 69.5851 29.2258 69.5863 28.6373 69.5838C28.4918 69.5832 28.343 69.4749 28.2837 69.3252C28.2628 69.2723 28.2546 69.2176 28.2548 69.1602C28.2558 68.6105 28.2571 68.0608 28.2544 67.511C28.2535 67.3165 28.3728 67.1651 28.539 67.1073C28.5879 67.0903 28.6438 67.0879 28.6966 67.0875C28.9717 67.0857 29.2469 67.0867 29.522 67.0867V67.0875C29.8091 67.0875 30.0963 67.0851 30.3834 67.0883C30.5449 67.0902 30.6613 67.1715 30.7391 67.3093C30.7749 67.3726 30.7886 67.4417 30.7886 67.513C30.7892 68.0615 30.7896 68.6101 30.7886 69.1586Z" fill="#F8F9FA"/>
<path d="M41.75 20.3966V21.6029C41.741 21.6249 41.731 21.6467 41.7231 21.6692C41.671 21.8163 41.5158 21.9304 41.3566 21.9377C41.3362 21.9387 41.3158 21.9387 41.2955 21.9387C38.2238 21.9387 35.1522 21.9385 32.0805 21.9394C31.9396 21.9394 31.8195 21.8982 31.7265 21.7925C31.6633 21.7206 31.6263 21.6361 31.6261 21.5395C31.6255 21.1789 31.6229 20.8182 31.6272 20.4576C31.6292 20.2924 31.7184 20.1741 31.8659 20.1004C31.931 20.0679 32.0024 20.0576 32.076 20.0576C35.1513 20.0581 38.2265 20.058 41.3018 20.0582C41.4916 20.0582 41.633 20.1382 41.7158 20.3103C41.7292 20.3381 41.7387 20.3678 41.75 20.3966Z" fill="#F8F9FA"/>
<path d="M41.75 28.736V29.9423C41.741 29.9644 41.731 29.9861 41.7231 30.0085C41.671 30.1556 41.5158 30.2698 41.3566 30.2771C41.3362 30.2781 41.3158 30.2781 41.2955 30.2781C38.2238 30.2781 35.1521 30.2779 32.0805 30.2787C31.9396 30.2788 31.8194 30.2376 31.7265 30.1318C31.6633 30.0601 31.6263 29.9755 31.6261 29.8789C31.6255 29.5183 31.6229 29.1576 31.6272 28.797C31.6292 28.6318 31.7184 28.5135 31.8659 28.4399C31.931 28.4073 32.0024 28.397 32.0761 28.397C35.1513 28.3975 38.2265 28.3973 41.3018 28.3975C41.4916 28.3975 41.633 28.4776 41.7158 28.6496C41.7292 28.6775 41.7387 28.7072 41.75 28.736Z" fill="#F8F9FA"/>
<path d="M41.7498 24.5697V25.7689C41.7411 25.7914 41.7323 25.8139 41.7235 25.8364C41.6723 25.966 41.5804 26.0536 41.4438 26.0886C41.3929 26.1015 41.3383 26.1044 41.2853 26.1044C39.312 26.1052 37.3386 26.105 35.3653 26.105C34.2691 26.105 33.173 26.1044 32.0768 26.1059C31.9558 26.1061 31.8488 26.0786 31.7599 25.9958C31.6751 25.917 31.6262 25.8206 31.626 25.704C31.6253 25.3481 31.6262 24.9922 31.6255 24.6362C31.6251 24.4286 31.8014 24.2463 32.0004 24.2334C32.0374 24.2311 32.0745 24.2285 32.1115 24.2285C35.1678 24.2282 38.2242 24.2283 41.2805 24.228C41.3912 24.228 41.4957 24.2449 41.5854 24.3151C41.6621 24.3752 41.7154 24.4497 41.7371 24.5452C41.7391 24.5538 41.7455 24.5616 41.7498 24.5697Z" fill="#F8F9FA"/>
<path d="M30.7856 25.9864C30.7853 26.1839 30.6763 26.3359 30.4895 26.4005C30.4552 26.4124 30.4172 26.42 30.381 26.4201C29.8054 26.4213 29.2298 26.423 28.6542 26.4196C28.4735 26.4186 28.3031 26.2813 28.2658 26.1041C28.2577 26.0654 28.253 26.0254 28.2528 25.9859C28.2517 25.7128 28.2522 25.4396 28.2522 25.1665C28.2522 24.8934 28.2552 24.6177 28.2513 24.3434C28.2483 24.1395 28.3873 23.9776 28.5613 23.9306C28.6 23.9202 28.6414 23.9155 28.6817 23.9155C29.2393 23.9145 29.7969 23.9142 30.3546 23.915C30.5585 23.9154 30.7239 24.0436 30.7735 24.2384C30.7825 24.2736 30.7853 24.311 30.7853 24.3474C30.7861 24.8937 30.7864 25.4401 30.7856 25.9864Z" fill="#F8F9FA"/>
<path d="M30.7833 21.8201C30.7828 21.984 30.7136 22.1137 30.5665 22.1972C30.5128 22.2277 30.4556 22.2483 30.3928 22.2491C30.3138 22.2502 30.2349 22.2507 30.156 22.2507C29.669 22.2508 29.1821 22.2498 28.6952 22.2515C28.5773 22.2518 28.4728 22.221 28.3864 22.1416C28.2993 22.0618 28.2504 21.9629 28.2504 21.8433C28.2504 21.2805 28.2509 20.7178 28.25 20.1551C28.2497 19.9863 28.372 19.8301 28.516 19.7777C28.5744 19.7564 28.6327 19.7501 28.6931 19.7501C28.9671 19.75 29.2411 19.7501 29.5151 19.7501V19.7508C29.8021 19.7508 30.0893 19.7486 30.3764 19.7516C30.5393 19.7533 30.6567 19.8342 30.7346 19.9741C30.7701 20.0379 30.7835 20.1068 30.7836 20.178C30.7842 20.7254 30.785 21.2727 30.7833 21.8201Z" fill="#F8F9FA"/>
<path d="M30.7886 30.1586C30.7882 30.344 30.6886 30.497 30.5008 30.567C30.4703 30.5784 30.4357 30.5841 30.4031 30.5841C29.8145 30.5851 29.2258 30.5863 28.6373 30.5838C28.4918 30.5832 28.343 30.4749 28.2837 30.3252C28.2628 30.2723 28.2546 30.2176 28.2548 30.1602C28.2558 29.6105 28.2571 29.0608 28.2544 28.511C28.2535 28.3165 28.3728 28.1651 28.539 28.1073C28.5879 28.0903 28.6438 28.0879 28.6966 28.0875C28.9717 28.0857 29.2469 28.0867 29.522 28.0867V28.0875C29.8091 28.0875 30.0963 28.0851 30.3834 28.0883C30.5449 28.0902 30.6613 28.1715 30.7391 28.3093C30.7749 28.3726 30.7886 28.4417 30.7886 28.513C30.7892 29.0615 30.7896 29.6101 30.7886 30.1586Z" fill="#F8F9FA"/>
<path d="M153.787 45.25H146.22C146.212 45.2468 146.204 45.2423 146.195 45.2404C146.141 45.2287 146.084 45.2225 146.031 45.2054C145.854 45.1479 145.701 45.0509 145.579 44.9111C145.414 44.7224 145.334 44.5018 145.334 44.2534C145.333 42.9492 145.333 41.645 145.334 40.3407C145.334 40.2142 145.353 40.0902 145.401 39.9717C145.46 39.8264 145.547 39.7002 145.665 39.5954C145.817 39.4609 145.994 39.3793 146.195 39.3505C146.271 39.3397 146.349 39.3403 146.425 39.3393C146.549 39.3376 146.672 39.3388 146.796 39.3388H146.834C146.834 39.3224 146.834 39.3097 146.834 39.297C146.834 38.8121 146.833 38.3273 146.835 37.8425C146.835 37.733 146.847 37.6235 146.856 37.5142C146.869 37.3627 146.897 37.2128 146.942 37.0674C146.981 36.9423 147.022 36.8177 147.069 36.695C147.136 36.5166 147.228 36.35 147.332 36.1898C147.507 35.9211 147.718 35.6846 147.966 35.4793C148.2 35.2862 148.455 35.1297 148.735 35.0085C148.901 34.9364 149.073 34.8809 149.248 34.8357C149.336 34.8129 149.426 34.7955 149.517 34.7824C149.621 34.7675 149.725 34.7536 149.829 34.7511C149.97 34.7478 150.11 34.7525 150.251 34.7585C150.412 34.7654 150.571 34.791 150.727 34.8309C150.802 34.8499 150.878 34.8651 150.95 34.8895C151.064 34.9275 151.177 34.9669 151.287 35.0146C151.518 35.1152 151.734 35.2425 151.934 35.3954C152.184 35.5863 152.402 35.8078 152.586 36.0619C152.752 36.2923 152.884 36.5399 152.982 36.8058C153.039 36.9612 153.083 37.12 153.116 37.2815C153.136 37.3806 153.15 37.4813 153.159 37.5819C153.168 37.6918 153.171 37.8026 153.171 37.913C153.173 38.3749 153.172 38.8369 153.172 39.2988V39.3388C153.188 39.3388 153.199 39.3388 153.209 39.3388C153.311 39.3388 153.412 39.3363 153.513 39.3395C153.627 39.3431 153.741 39.3486 153.854 39.3597C153.941 39.3684 154.023 39.3999 154.101 39.4378C154.305 39.5357 154.459 39.6826 154.562 39.8819C154.627 40.0081 154.666 40.14 154.666 40.2827C154.666 41.6098 154.665 42.937 154.667 44.2641C154.667 44.3898 154.648 44.5096 154.601 44.6264C154.538 44.7847 154.44 44.9182 154.307 45.0254C154.162 45.1428 153.997 45.2182 153.808 45.2407C153.801 45.2416 153.794 45.2468 153.787 45.2499V45.25ZM150.003 39.3449C150.486 39.3449 150.969 39.3449 151.453 39.3449C151.485 39.3449 151.501 39.3294 151.501 39.2984C151.501 38.8365 151.501 38.3747 151.501 37.9128C151.5 37.7917 151.491 37.6715 151.464 37.5525C151.429 37.3949 151.369 37.2473 151.284 37.1102C151.117 36.8416 150.887 36.6437 150.594 36.517C150.457 36.4579 150.313 36.419 150.165 36.4052C150.018 36.3915 149.869 36.3944 149.722 36.4228C149.592 36.4478 149.468 36.4871 149.35 36.544C149.112 36.6588 148.917 36.8244 148.766 37.0399C148.638 37.2221 148.558 37.4235 148.521 37.6407C148.507 37.7245 148.505 37.811 148.505 37.8962C148.503 38.365 148.504 38.8338 148.504 39.3027C148.504 39.3309 148.518 39.3449 148.547 39.345C149.032 39.345 149.517 39.345 150.003 39.345L150.003 39.3449Z" fill="#F8F9FA"/>
<g clip-path="url(#clip0_1401_2389)">
<path d="M288.646 37.1022C288.646 38.0656 287.862 38.8574 286.871 38.8574C285.876 38.8574 285.086 38.0604 285.086 37.1022C285.086 36.1441 285.876 35.3471 286.871 35.3471C287.862 35.3471 288.646 36.1389 288.646 37.1022ZM280.846 35.4492C280.846 36.7202 279.818 37.7553 278.514 37.7553C277.206 37.7553 276.171 36.7159 276.171 35.4492C276.171 34.1825 277.206 33.1431 278.514 33.1431C279.818 33.1431 280.846 34.1781 280.846 35.4492ZM281.743 45.092C281.743 44.9598 281.802 44.767 282.088 44.5066C282.379 44.2405 282.832 43.9792 283.411 43.7503C284.568 43.292 285.975 43.0614 286.871 43.0614C287.767 43.0614 289.175 43.292 290.332 43.7503C290.911 43.9792 291.364 44.2405 291.655 44.5066C291.941 44.767 292 44.9598 292 45.092V46.5716H281.743V45.092ZM271.714 44.8165C271.714 44.5463 271.843 44.233 272.242 43.8694C272.647 43.5 273.256 43.1527 274.009 42.8549C275.515 42.2589 277.34 41.9594 278.514 41.9594C278.573 41.9594 278.633 41.9602 278.694 41.9618C278.458 42.2409 278.264 42.5264 278.106 42.8135C277.632 43.6744 277.514 44.4928 277.514 45.092V46.5716H271.714V44.8165Z" stroke="#F8F9FA" stroke-width="2"/>
</g>
<path d="M260.482 63H259.558L262.229 55.7273H263.138L265.808 63H264.885L262.712 56.8778H262.655L260.482 63ZM260.823 60.1591H264.544V60.9403H260.823V60.1591ZM266.828 65.0455V57.5455H267.637V58.4119H267.737C267.798 58.3172 267.883 58.1965 267.992 58.0497C268.104 57.9006 268.262 57.768 268.468 57.652C268.677 57.5336 268.958 57.4744 269.313 57.4744C269.773 57.4744 270.177 57.5893 270.528 57.8189C270.878 58.0485 271.152 58.3741 271.348 58.7955C271.545 59.2169 271.643 59.714 271.643 60.2869C271.643 60.8646 271.545 61.3653 271.348 61.7891C271.152 62.2105 270.879 62.5372 270.531 62.7692C270.183 62.9988 269.782 63.1136 269.328 63.1136C268.977 63.1136 268.697 63.0556 268.486 62.9396C268.275 62.8213 268.113 62.6875 267.999 62.5384C267.886 62.3868 267.798 62.2614 267.737 62.1619H267.666V65.0455H266.828ZM267.651 60.2727C267.651 60.6847 267.712 61.0481 267.833 61.3629C267.953 61.6754 268.13 61.9205 268.362 62.098C268.594 62.2732 268.878 62.3608 269.214 62.3608C269.564 62.3608 269.857 62.2685 270.091 62.0838C270.328 61.8968 270.505 61.6458 270.624 61.331C270.744 61.0137 270.805 60.661 270.805 60.2727C270.805 59.8892 270.746 59.5436 270.627 59.2358C270.511 58.9257 270.335 58.6806 270.098 58.5007C269.864 58.3184 269.569 58.2273 269.214 58.2273C268.873 58.2273 268.587 58.3137 268.355 58.4865C268.123 58.657 267.947 58.8961 267.829 59.2038C267.711 59.5092 267.651 59.8655 267.651 60.2727ZM272.921 65.0455V57.5455H273.731V58.4119H273.83C273.892 58.3172 273.977 58.1965 274.086 58.0497C274.197 57.9006 274.356 57.768 274.562 57.652C274.77 57.5336 275.052 57.4744 275.407 57.4744C275.866 57.4744 276.271 57.5893 276.622 57.8189C276.972 58.0485 277.245 58.3741 277.442 58.7955C277.638 59.2169 277.737 59.714 277.737 60.2869C277.737 60.8646 277.638 61.3653 277.442 61.7891C277.245 62.2105 276.973 62.5372 276.625 62.7692C276.277 62.9988 275.876 63.1136 275.421 63.1136C275.071 63.1136 274.79 63.0556 274.58 62.9396C274.369 62.8213 274.207 62.6875 274.093 62.5384C273.98 62.3868 273.892 62.2614 273.83 62.1619H273.759V65.0455H272.921ZM273.745 60.2727C273.745 60.6847 273.806 61.0481 273.926 61.3629C274.047 61.6754 274.223 61.9205 274.455 62.098C274.687 62.2732 274.972 62.3608 275.308 62.3608C275.658 62.3608 275.95 62.2685 276.185 62.0838C276.422 61.8968 276.599 61.6458 276.718 61.331C276.838 61.0137 276.899 60.661 276.899 60.2727C276.899 59.8892 276.839 59.5436 276.721 59.2358C276.605 58.9257 276.429 58.6806 276.192 58.5007C275.958 58.3184 275.663 58.2273 275.308 58.2273C274.967 58.2273 274.68 58.3137 274.448 58.4865C274.216 58.657 274.041 58.8961 273.923 59.2038C273.804 59.5092 273.745 59.8655 273.745 60.2727ZM279.853 55.7273V63H279.015V55.7273H279.853ZM281.388 63V57.5455H282.226V63H281.388ZM281.814 56.6364C281.651 56.6364 281.51 56.5807 281.392 56.4695C281.276 56.3582 281.218 56.2244 281.218 56.0682C281.218 55.9119 281.276 55.7782 281.392 55.6669C281.51 55.5556 281.651 55.5 281.814 55.5C281.978 55.5 282.117 55.5556 282.233 55.6669C282.352 55.7782 282.411 55.9119 282.411 56.0682C282.411 56.2244 282.352 56.3582 282.233 56.4695C282.117 56.5807 281.978 56.6364 281.814 56.6364ZM285.977 63.1136C285.466 63.1136 285.025 62.9929 284.656 62.7514C284.287 62.5099 284.003 62.1773 283.804 61.7536C283.605 61.3298 283.506 60.8456 283.506 60.3011C283.506 59.7472 283.607 59.2583 283.811 58.8345C284.017 58.4084 284.303 58.0758 284.67 57.8366C285.04 57.5952 285.47 57.4744 285.963 57.4744C286.346 57.4744 286.692 57.5455 287 57.6875C287.308 57.8295 287.56 58.0284 287.756 58.2841C287.953 58.5398 288.075 58.8381 288.122 59.179H287.284C287.22 58.9304 287.078 58.7102 286.858 58.5185C286.64 58.3243 286.346 58.2273 285.977 58.2273C285.65 58.2273 285.364 58.3125 285.118 58.483C284.874 58.651 284.683 58.889 284.546 59.1967C284.411 59.5021 284.344 59.8608 284.344 60.2727C284.344 60.6941 284.41 61.0611 284.542 61.3736C284.677 61.6861 284.867 61.9287 285.111 62.1016C285.357 62.2744 285.646 62.3608 285.977 62.3608C286.195 62.3608 286.393 62.3229 286.57 62.2472C286.748 62.1714 286.898 62.0625 287.021 61.9205C287.144 61.7784 287.232 61.608 287.284 61.4091H288.122C288.075 61.7311 287.957 62.0211 287.77 62.2791C287.586 62.5348 287.341 62.7384 287.035 62.8899C286.732 63.0391 286.38 63.1136 285.977 63.1136ZM290.952 63.1278C290.607 63.1278 290.293 63.0627 290.011 62.9325C289.729 62.8 289.506 62.6094 289.34 62.3608C289.174 62.1098 289.091 61.8068 289.091 61.4517C289.091 61.1392 289.153 60.8859 289.276 60.6918C289.399 60.4953 289.564 60.3414 289.77 60.2301C289.976 60.1188 290.203 60.036 290.452 59.9815C290.702 59.9247 290.955 59.8797 291.208 59.8466C291.539 59.804 291.808 59.772 292.014 59.7507C292.222 59.727 292.374 59.688 292.469 59.6335C292.566 59.5791 292.614 59.4844 292.614 59.3494V59.321C292.614 58.9706 292.518 58.6984 292.327 58.5043C292.137 58.3101 291.849 58.2131 291.464 58.2131C291.064 58.2131 290.75 58.3007 290.523 58.4759C290.295 58.651 290.135 58.8381 290.043 59.0369L289.248 58.7528C289.39 58.4214 289.579 58.1634 289.816 57.9787C290.055 57.7917 290.315 57.6615 290.597 57.5881C290.881 57.5123 291.161 57.4744 291.435 57.4744C291.61 57.4744 291.812 57.4957 292.039 57.5384C292.269 57.5786 292.49 57.6626 292.703 57.7905C292.918 57.9183 293.097 58.1113 293.239 58.3693C293.381 58.6274 293.452 58.973 293.452 59.4062V63H292.614V62.2614H292.572C292.515 62.3797 292.42 62.5064 292.287 62.6413C292.155 62.7763 291.979 62.8911 291.758 62.9858C291.538 63.0805 291.269 63.1278 290.952 63.1278ZM291.08 62.375C291.412 62.375 291.691 62.3099 291.918 62.1797C292.148 62.0495 292.321 61.8814 292.437 61.6754C292.555 61.4695 292.614 61.2528 292.614 61.0256V60.2585C292.579 60.3011 292.501 60.3402 292.38 60.3757C292.261 60.4089 292.124 60.4384 291.968 60.4645C291.814 60.4882 291.664 60.5095 291.517 60.5284C291.372 60.545 291.255 60.5592 291.165 60.571C290.948 60.5994 290.744 60.6456 290.555 60.7095C290.367 60.7711 290.216 60.8646 290.1 60.9901C289.986 61.1132 289.93 61.2812 289.93 61.4943C289.93 61.7855 290.037 62.0057 290.253 62.1548C290.47 62.3016 290.746 62.375 291.08 62.375ZM295.82 59.7188V63H294.982V57.5455H295.792V58.3977H295.863C295.99 58.1207 296.185 57.8982 296.445 57.7301C296.705 57.5597 297.042 57.4744 297.453 57.4744C297.823 57.4744 298.146 57.5502 298.423 57.7017C298.7 57.8509 298.915 58.0781 299.069 58.3835C299.223 58.6866 299.3 59.0701 299.3 59.5341V63H298.462V59.5909C298.462 59.1624 298.351 58.8286 298.128 58.5895C297.906 58.348 297.6 58.2273 297.212 58.2273C296.944 58.2273 296.705 58.2853 296.495 58.4013C296.286 58.5173 296.122 58.6866 296.001 58.9091C295.88 59.1316 295.82 59.4015 295.82 59.7188ZM303.204 57.5455V58.2557H300.377V57.5455H303.204ZM301.201 56.2386H302.039V61.4375C302.039 61.6742 302.073 61.8518 302.142 61.9702C302.213 62.0862 302.303 62.1643 302.412 62.2045C302.523 62.2424 302.64 62.2614 302.763 62.2614C302.856 62.2614 302.931 62.2566 302.991 62.2472C303.05 62.2353 303.097 62.2259 303.133 62.2188L303.303 62.9716C303.246 62.9929 303.167 63.0142 303.065 63.0355C302.963 63.0592 302.834 63.071 302.678 63.071C302.441 63.071 302.209 63.0201 301.982 62.9183C301.757 62.8165 301.57 62.6615 301.421 62.4531C301.274 62.2448 301.201 61.982 301.201 61.6648V56.2386Z" fill="#F8F9FA"/>
<path d="M151.733 58H150.852C150.8 57.7467 150.709 57.5241 150.579 57.3324C150.451 57.1406 150.295 56.9796 150.11 56.8494C149.928 56.7169 149.725 56.6174 149.503 56.5511C149.28 56.4848 149.048 56.4517 148.807 56.4517C148.366 56.4517 147.968 56.563 147.61 56.7855C147.255 57.008 146.972 57.3359 146.761 57.7692C146.553 58.2024 146.449 58.7339 146.449 59.3636C146.449 59.9934 146.553 60.5249 146.761 60.9581C146.972 61.3913 147.255 61.7192 147.61 61.9418C147.968 62.1643 148.366 62.2756 148.807 62.2756C149.048 62.2756 149.28 62.2424 149.503 62.1761C149.725 62.1098 149.928 62.0116 150.11 61.8814C150.295 61.7488 150.451 61.5866 150.579 61.3949C150.709 61.2008 150.8 60.9782 150.852 60.7273H151.733C151.667 61.099 151.546 61.4316 151.371 61.7251C151.196 62.0187 150.978 62.2685 150.717 62.4744C150.457 62.678 150.165 62.8331 149.84 62.9396C149.518 63.0462 149.174 63.0994 148.807 63.0994C148.187 63.0994 147.635 62.9479 147.152 62.6449C146.669 62.3419 146.289 61.911 146.012 61.3523C145.735 60.7936 145.597 60.1307 145.597 59.3636C145.597 58.5966 145.735 57.9337 146.012 57.375C146.289 56.8163 146.669 56.3854 147.152 56.0824C147.635 55.7794 148.187 55.6278 148.807 55.6278C149.174 55.6278 149.518 55.6811 149.84 55.7876C150.165 55.8942 150.457 56.0504 150.717 56.2564C150.978 56.46 151.196 56.7086 151.371 57.0021C151.546 57.2933 151.667 57.6259 151.733 58ZM153.042 63V57.5455H153.881V63H153.042ZM153.469 56.6364C153.305 56.6364 153.164 56.5807 153.046 56.4695C152.93 56.3582 152.872 56.2244 152.872 56.0682C152.872 55.9119 152.93 55.7782 153.046 55.6669C153.164 55.5556 153.305 55.5 153.469 55.5C153.632 55.5 153.772 55.5556 153.888 55.6669C154.006 55.7782 154.065 55.9119 154.065 56.0682C154.065 56.2244 154.006 56.3582 153.888 56.4695C153.772 56.5807 153.632 56.6364 153.469 56.6364ZM159.876 57.5455L157.859 63H157.006L154.989 57.5455H155.898L157.404 61.892H157.461L158.967 57.5455H159.876ZM160.982 63V57.5455H161.82V63H160.982ZM161.408 56.6364C161.245 56.6364 161.104 56.5807 160.985 56.4695C160.869 56.3582 160.811 56.2244 160.811 56.0682C160.811 55.9119 160.869 55.7782 160.985 55.6669C161.104 55.5556 161.245 55.5 161.408 55.5C161.571 55.5 161.711 55.5556 161.827 55.6669C161.945 55.7782 162.005 55.9119 162.005 56.0682C162.005 56.2244 161.945 56.3582 161.827 56.4695C161.711 56.5807 161.571 56.6364 161.408 56.6364ZM164.193 55.7273V63H163.355V55.7273H164.193ZM172.631 57.5455C172.589 57.1856 172.416 56.9062 172.113 56.7074C171.81 56.5085 171.438 56.4091 170.998 56.4091C170.676 56.4091 170.394 56.4612 170.153 56.5653C169.914 56.6695 169.727 56.8127 169.592 56.995C169.459 57.1773 169.393 57.3845 169.393 57.6165C169.393 57.8106 169.439 57.9775 169.531 58.1172C169.626 58.2545 169.747 58.3693 169.893 58.4616C170.04 58.5516 170.194 58.6262 170.355 58.6854C170.516 58.7422 170.664 58.7884 170.799 58.8239L171.538 59.0227C171.727 59.0724 171.938 59.1411 172.17 59.2287C172.404 59.3163 172.628 59.4358 172.841 59.5874C173.056 59.7365 173.234 59.9283 173.374 60.1626C173.513 60.397 173.583 60.6847 173.583 61.0256C173.583 61.4186 173.48 61.7737 173.274 62.0909C173.071 62.4081 172.772 62.6603 172.379 62.8473C171.989 63.0343 171.514 63.1278 170.955 63.1278C170.434 63.1278 169.983 63.0438 169.602 62.8757C169.223 62.7076 168.925 62.4732 168.707 62.1726C168.492 61.8719 168.37 61.5227 168.342 61.125H169.251C169.274 61.3996 169.367 61.6269 169.528 61.8068C169.691 61.9844 169.897 62.117 170.146 62.2045C170.397 62.2898 170.666 62.3324 170.955 62.3324C171.291 62.3324 171.593 62.2779 171.861 62.169C172.128 62.0578 172.34 61.9039 172.496 61.7074C172.653 61.5085 172.731 61.2765 172.731 61.0114C172.731 60.7699 172.663 60.5734 172.528 60.4219C172.393 60.2704 172.216 60.1473 171.996 60.0526C171.776 59.9579 171.538 59.875 171.282 59.804L170.387 59.5483C169.819 59.3849 169.369 59.1518 169.038 58.8487C168.706 58.5457 168.54 58.1491 168.54 57.6591C168.54 57.2519 168.651 56.8968 168.871 56.5938C169.093 56.2884 169.392 56.0516 169.766 55.8835C170.142 55.7131 170.562 55.6278 171.026 55.6278C171.495 55.6278 171.912 55.7119 172.276 55.88C172.641 56.0457 172.93 56.273 173.143 56.5618C173.358 56.8506 173.472 57.1785 173.484 57.5455H172.631ZM177.204 63.1136C176.679 63.1136 176.225 62.9976 175.844 62.7656C175.465 62.5312 175.173 62.2045 174.967 61.7855C174.764 61.3641 174.662 60.8741 174.662 60.3153C174.662 59.7566 174.764 59.2642 174.967 58.8381C175.173 58.4096 175.46 58.0758 175.827 57.8366C176.196 57.5952 176.627 57.4744 177.119 57.4744C177.403 57.4744 177.684 57.5218 177.961 57.6165C178.238 57.7112 178.49 57.8651 178.717 58.0781C178.944 58.2888 179.126 58.5682 179.26 58.9162C179.395 59.2642 179.463 59.6927 179.463 60.2017V60.5568H175.258V59.8324H178.611C178.611 59.5246 178.549 59.25 178.426 59.0085C178.305 58.767 178.132 58.5765 177.907 58.4368C177.685 58.2971 177.422 58.2273 177.119 58.2273C176.785 58.2273 176.497 58.3101 176.253 58.4759C176.011 58.6392 175.825 58.8523 175.695 59.1151C175.565 59.3778 175.5 59.6596 175.5 59.9602V60.4432C175.5 60.8551 175.571 61.2043 175.713 61.4908C175.857 61.7749 176.057 61.9915 176.313 62.1406C176.569 62.2874 176.866 62.3608 177.204 62.3608C177.425 62.3608 177.623 62.33 177.801 62.2685C177.981 62.2045 178.136 62.1098 178.266 61.9844C178.396 61.8565 178.497 61.6979 178.568 61.5085L179.378 61.7358C179.292 62.0104 179.149 62.2519 178.948 62.4602C178.747 62.6662 178.498 62.8272 178.202 62.9432C177.906 63.0568 177.574 63.1136 177.204 63.1136ZM180.738 63V57.5455H181.547V58.3693H181.604C181.704 58.0994 181.884 57.8804 182.144 57.7124C182.404 57.5443 182.698 57.4602 183.025 57.4602C183.086 57.4602 183.163 57.4614 183.256 57.4638C183.348 57.4661 183.418 57.4697 183.465 57.4744V58.3267C183.437 58.3196 183.372 58.3089 183.27 58.2947C183.17 58.2782 183.065 58.2699 182.954 58.2699C182.689 58.2699 182.452 58.3255 182.243 58.4368C182.037 58.5457 181.874 58.6972 181.753 58.8913C181.635 59.0831 181.576 59.3021 181.576 59.5483V63H180.738ZM189.085 57.5455L187.068 63H186.215L184.198 57.5455H185.107L186.613 61.892H186.67L188.176 57.5455H189.085ZM191.63 63.1278C191.284 63.1278 190.971 63.0627 190.689 62.9325C190.407 62.8 190.183 62.6094 190.018 62.3608C189.852 62.1098 189.769 61.8068 189.769 61.4517C189.769 61.1392 189.831 60.8859 189.954 60.6918C190.077 60.4953 190.241 60.3414 190.447 60.2301C190.653 60.1188 190.881 60.036 191.129 59.9815C191.38 59.9247 191.632 59.8797 191.886 59.8466C192.217 59.804 192.486 59.772 192.692 59.7507C192.9 59.727 193.052 59.688 193.146 59.6335C193.243 59.5791 193.292 59.4844 193.292 59.3494V59.321C193.292 58.9706 193.196 58.6984 193.004 58.5043C192.815 58.3101 192.527 58.2131 192.141 58.2131C191.741 58.2131 191.428 58.3007 191.2 58.4759C190.973 58.651 190.813 58.8381 190.721 59.0369L189.925 58.7528C190.067 58.4214 190.257 58.1634 190.494 57.9787C190.733 57.7917 190.993 57.6615 191.275 57.5881C191.559 57.5123 191.838 57.4744 192.113 57.4744C192.288 57.4744 192.489 57.4957 192.717 57.5384C192.946 57.5786 193.168 57.6626 193.381 57.7905C193.596 57.9183 193.775 58.1113 193.917 58.3693C194.059 58.6274 194.13 58.973 194.13 59.4062V63H193.292V62.2614H193.249C193.192 62.3797 193.098 62.5064 192.965 62.6413C192.833 62.7763 192.656 62.8911 192.436 62.9858C192.216 63.0805 191.947 63.1278 191.63 63.1278ZM191.758 62.375C192.089 62.375 192.369 62.3099 192.596 62.1797C192.826 62.0495 192.998 61.8814 193.114 61.6754C193.233 61.4695 193.292 61.2528 193.292 61.0256V60.2585C193.256 60.3011 193.178 60.3402 193.058 60.3757C192.939 60.4089 192.802 60.4384 192.646 60.4645C192.492 60.4882 192.341 60.5095 192.195 60.5284C192.05 60.545 191.933 60.5592 191.843 60.571C191.625 60.5994 191.422 60.6456 191.232 60.7095C191.045 60.7711 190.894 60.8646 190.778 60.9901C190.664 61.1132 190.607 61.2812 190.607 61.4943C190.607 61.7855 190.715 62.0057 190.93 62.1548C191.148 62.3016 191.424 62.375 191.758 62.375ZM196.498 59.7188V63H195.66V57.5455H196.469V58.3977H196.54C196.668 58.1207 196.862 57.8982 197.123 57.7301C197.383 57.5597 197.719 57.4744 198.131 57.4744C198.501 57.4744 198.824 57.5502 199.101 57.7017C199.378 57.8509 199.593 58.0781 199.747 58.3835C199.901 58.6866 199.978 59.0701 199.978 59.5341V63H199.14V59.5909C199.14 59.1624 199.028 58.8286 198.806 58.5895C198.583 58.348 198.278 58.2273 197.89 58.2273C197.622 58.2273 197.383 58.2853 197.172 58.4013C196.964 58.5173 196.8 58.6866 196.679 58.9091C196.558 59.1316 196.498 59.4015 196.498 59.7188ZM203.881 57.5455V58.2557H201.055V57.5455H203.881ZM201.879 56.2386H202.717V61.4375C202.717 61.6742 202.751 61.8518 202.82 61.9702C202.891 62.0862 202.981 62.1643 203.089 62.2045C203.201 62.2424 203.318 62.2614 203.441 62.2614C203.533 62.2614 203.609 62.2566 203.668 62.2472C203.728 62.2353 203.775 62.2259 203.81 62.2188L203.981 62.9716C203.924 62.9929 203.845 63.0142 203.743 63.0355C203.641 63.0592 203.512 63.071 203.356 63.071C203.119 63.071 202.887 63.0201 202.66 62.9183C202.435 62.8165 202.248 62.6615 202.099 62.4531C201.952 62.2448 201.879 61.982 201.879 61.6648V56.2386Z" fill="#F8F9FA"/>
<path d="M180.833 46.5V44.8333C180.833 43.9493 180.482 43.1014 179.857 42.4763C179.232 41.8512 178.384 41.5 177.5 41.5H172.5C171.616 41.5 170.768 41.8512 170.143 42.4763C169.518 43.1014 169.167 43.9493 169.167 44.8333V46.5" stroke="#F8F9FA" stroke-width="2" stroke-linecap="round" stroke-linejoin="round"/>
<path d="M173.333 41.5L173.333 42.7502C173.333 43.6342 174.792 46.0833 175 46.5C175.208 46.0833 176.667 43.6342 176.667 42.7502L176.667 41.5" stroke="#F8F9FA" stroke-width="2" stroke-linecap="round" stroke-linejoin="round"/>
<path d="M175 38.1667C176.841 38.1667 178.333 36.6743 178.333 34.8333C178.333 32.9924 176.841 31.5 175 31.5C173.159 31.5 171.667 32.9924 171.667 34.8333C171.667 36.6743 173.159 38.1667 175 38.1667Z" stroke="#F8F9FA" stroke-width="2" stroke-linecap="round" stroke-linejoin="round"/>
<line x1="165.833" y1="47.1665" x2="184.167" y2="47.9998" stroke="#F8F9FA" stroke-width="2"/>
<path d="M241 39L245 43L241 47" stroke="#F8F9FA" stroke-linecap="round"/>
<path d="M217 39L221 43L217 47" stroke="#F8F9FA" stroke-linecap="round"/>
<circle cx="191" cy="43" r="2.5" stroke="#F8F9FA"/>
<defs>
<clipPath id="clip0_1401_2389">
<rect width="24" height="24" fill="white" transform="translate(269 27)"/>
</clipPath>
</defs>
</svg>
