<svg width="320" height="79" viewBox="0 0 320 79" fill="none" xmlns="http://www.w3.org/2000/svg">
<line x1="73.25" y1="41" x2="141.25" y2="41" stroke="#F8F9FA" stroke-width="2" stroke-linecap="round" stroke-dasharray="4 4"/>
<line x1="73.25" y1="41" x2="141.25" y2="41" stroke="#F8F9FA" stroke-width="2" stroke-linecap="round" stroke-dasharray="4 4"/>
<line x1="162.25" y1="41" x2="230.25" y2="41" stroke="#F8F9FA" stroke-width="2" stroke-linecap="round" stroke-dasharray="4 4"/>
<circle cx="152.25" cy="41" r="9" stroke="#F8F9FA" stroke-width="2"/>
<path d="M69.9997 47.1652C69.9997 47.1416 70.0006 47.118 69.9993 47.0945C69.9938 46.9925 69.9616 46.8981 69.9053 46.812C69.8674 46.7538 69.8268 46.6962 69.7674 46.6554C69.7176 46.6213 69.6671 46.5864 69.6124 46.5607C69.5593 46.5358 69.5005 46.5218 69.4439 46.5037C69.4349 46.5008 69.4243 46.5016 69.4144 46.5015C69.3711 46.5011 69.3278 46.5006 69.2844 46.5006H57.2152C57.1929 46.5006 57.1706 46.5018 57.1484 46.5005C57.0789 46.4965 57.0155 46.518 56.9503 46.5369C56.8322 46.5713 56.7391 46.6397 56.6593 46.7242C56.6195 46.7663 56.5895 46.8186 56.5631 46.87C56.5424 46.9104 56.5346 46.9566 56.5195 46.9998C56.5164 47.0089 56.5067 47.016 56.5 47.024V54.9758C56.5068 54.985 56.5184 54.9936 56.5197 55.0034C56.5321 55.096 56.5811 55.171 56.6371 55.245C56.7037 55.3329 56.7899 55.3942 56.8912 55.44C56.9847 55.4824 57.0819 55.5001 57.186 55.5C61.2289 55.4991 65.2718 55.4992 69.3147 55.4992C69.3333 55.4992 69.3518 55.4986 69.3704 55.4992C69.4322 55.5011 69.4899 55.4849 69.5456 55.4621C69.5926 55.4428 69.6401 55.4238 69.6848 55.4003C69.7614 55.36 69.826 55.3046 69.872 55.2339C69.9106 55.1746 69.9474 55.1126 69.9731 55.0476C69.992 55 69.9984 54.9454 69.9985 54.894C70 53.9979 69.9997 53.1018 69.9997 52.2057V47.1653V47.1652ZM61.1016 51.5315C61.0878 51.6016 61.1093 51.6749 61.0756 51.7427C61.0625 51.7691 61.0613 51.8006 61.0498 51.8279C61.0229 51.8924 60.9989 51.9591 60.9626 52.0187C60.9293 52.0736 60.8835 52.1219 60.8398 52.1704C60.7904 52.2252 60.7307 52.2691 60.6654 52.3054C60.6169 52.3323 60.5692 52.3623 60.5173 52.3815C60.4617 52.4021 60.4019 52.4134 60.3433 52.4257C60.3006 52.4346 60.2567 52.4387 60.2095 52.4454V52.4852C60.2095 52.5736 60.2093 52.662 60.2095 52.7505C60.2097 52.8558 60.1371 52.9267 60.0275 52.926C59.9217 52.9254 59.8157 52.927 59.7098 52.9252C59.6518 52.9243 59.6012 52.9021 59.5712 52.8531C59.5553 52.8273 59.543 52.7955 59.5419 52.7659C59.5382 52.6682 59.5393 52.5702 59.5412 52.4724C59.5417 52.4443 59.5279 52.4343 59.5039 52.4311C59.482 52.4283 59.4592 52.4304 59.4377 52.4261C59.3798 52.4147 59.3219 52.4028 59.2649 52.388C59.2157 52.3752 59.1664 52.3609 59.1192 52.3425C59.08 52.3273 59.0427 52.3069 59.0065 52.2857C58.9642 52.261 58.924 52.2331 58.883 52.2063C58.797 52.1502 58.8075 52.0262 58.8747 51.9641C58.9511 51.8936 59.0269 51.8224 59.1059 51.7549C59.179 51.6925 59.2421 51.6841 59.3317 51.7344C59.3711 51.7565 59.4163 51.7706 59.4601 51.7843C59.5811 51.8222 59.7062 51.7994 59.8294 51.8033C59.9438 51.8068 60.0583 51.804 60.1729 51.804C60.2787 51.8041 60.3555 51.7602 60.402 51.6679C60.4263 51.6198 60.4489 51.5699 60.439 51.5166C60.4293 51.464 60.4165 51.4096 60.378 51.3673C60.3416 51.3271 60.301 51.2932 60.2436 51.2791C60.1839 51.2644 60.1267 51.241 60.0677 51.2236C60.0113 51.207 59.9538 51.1943 59.8974 51.1779C59.8393 51.161 59.782 51.1412 59.7242 51.1234C59.697 51.1151 59.6693 51.1081 59.6416 51.1013C59.6066 51.0927 59.5708 51.0865 59.5363 51.0762C59.4826 51.0602 59.4299 51.0412 59.3764 51.0242C59.3507 51.0159 59.3248 51.0078 59.2985 51.0018C59.2063 50.9807 59.1279 50.935 59.0496 50.8853C58.943 50.8175 58.8601 50.7287 58.7925 50.6283C58.7513 50.567 58.7294 50.4938 58.6979 50.4264C58.6632 50.3522 58.6641 50.2721 58.6517 50.1938C58.6392 50.1154 58.6585 50.0399 58.6646 49.9636C58.669 49.9093 58.7016 49.8574 58.7167 49.8032C58.7448 49.7031 58.8103 49.6236 58.8731 49.5441C58.9111 49.4959 58.9651 49.4585 59.0145 49.4191C59.0864 49.3617 59.1692 49.3225 59.2567 49.291C59.3186 49.2687 59.3802 49.2508 59.4472 49.2488C59.4768 49.248 59.5062 49.2357 59.5405 49.2273V49.1962C59.5405 49.1065 59.5412 49.0169 59.5403 48.9273C59.5396 48.8649 59.5624 48.8136 59.6179 48.7803C59.6421 48.7658 59.6718 48.752 59.6994 48.7513C59.8163 48.7481 59.9334 48.7476 60.0503 48.751C60.1046 48.7526 60.1798 48.7922 60.1924 48.8545C60.1995 48.8894 60.2076 48.9246 60.2086 48.9599C60.2111 49.04 60.2093 49.1202 60.2094 49.2004C60.2094 49.2381 60.2194 49.2478 60.2592 49.25C60.2726 49.2507 60.2862 49.2512 60.2998 49.2512C60.3658 49.2511 60.4281 49.2682 60.4893 49.2899C60.5498 49.3113 60.6129 49.3275 60.6704 49.3545C60.7596 49.3963 60.8505 49.4384 60.9123 49.5182C60.9289 49.5395 60.9327 49.6374 60.9145 49.6571C60.8592 49.7163 60.8033 49.7751 60.7448 49.8316C60.7043 49.8708 60.6605 49.9071 60.6159 49.9421C60.5615 49.9848 60.4794 49.9833 60.4198 49.9495C60.3788 49.9263 60.3317 49.9131 60.2879 49.8941C60.2056 49.8584 60.1188 49.8773 60.0342 49.8757C59.873 49.8727 59.7117 49.8737 59.5503 49.8754C59.4586 49.8764 59.3955 49.9266 59.3514 49.998C59.321 50.0473 59.3059 50.1027 59.3116 50.1609C59.3204 50.2503 59.3654 50.323 59.4409 50.3728C59.478 50.3973 59.5282 50.4046 59.573 50.4179C59.6283 50.4344 59.6842 50.449 59.7398 50.4645C59.7783 50.4754 59.8169 50.486 59.8551 50.4977C59.8902 50.5083 59.9247 50.5207 59.9596 50.5316C59.9844 50.5395 60.0095 50.5467 60.0346 50.5534C60.0915 50.5687 60.1489 50.5825 60.2054 50.5988C60.239 50.6084 60.2709 50.6225 60.3042 50.6332C60.3323 50.6423 60.3614 50.6484 60.3896 50.6573C60.4527 50.6773 60.5187 50.6925 60.578 50.7203C60.66 50.7587 60.7386 50.8045 60.8002 50.8723C60.8351 50.9106 60.8783 50.9428 60.9091 50.9838C60.947 51.0343 60.9776 51.0901 61.008 51.1453C61.0304 51.1863 61.0508 51.229 61.0657 51.2728C61.079 51.3123 61.0858 51.3541 61.0917 51.3953C61.0981 51.4405 61.1103 51.4882 61.1017 51.5315H61.1016ZM65.2743 52.1279C65.2737 52.1806 65.2284 52.2562 65.1643 52.2677C65.1267 52.2745 65.0888 52.2844 65.051 52.2845C64.6758 52.2858 64.3007 52.2853 63.9255 52.2853C63.5503 52.2853 63.1529 52.2843 62.7667 52.286C62.6587 52.2865 62.5716 52.2077 62.5758 52.1046C62.5795 52.0128 62.5782 51.9207 62.5761 51.8287C62.574 51.735 62.6203 51.6794 62.7042 51.6475C62.7238 51.64 62.7481 51.6431 62.7703 51.6431C63.3571 51.643 63.944 51.643 64.5309 51.643C64.7178 51.643 64.9048 51.6433 65.0917 51.6429C65.1574 51.6427 65.2106 51.6665 65.2448 51.7194C65.2605 51.7438 65.2726 51.7745 65.2735 51.8026C65.2767 51.9109 65.2756 52.0194 65.2743 52.1279ZM68.6493 51.8175C68.6461 51.9164 68.6471 52.0155 68.6492 52.1144C68.6502 52.1622 68.6315 52.2042 68.5999 52.2345C68.5683 52.2648 68.5245 52.2855 68.475 52.2853C68.3611 52.285 68.2472 52.2853 68.1333 52.2853C67.6963 52.2853 67.2593 52.2852 66.8224 52.2854C66.7209 52.2855 66.6642 52.2432 66.6298 52.16C66.625 52.1485 66.6266 52.1344 66.6266 52.1214C66.6263 52.0165 66.6259 51.9116 66.6266 51.8067C66.6271 51.7186 66.7053 51.6432 66.7984 51.6431C67.0793 51.643 67.3603 51.6431 67.6413 51.6431C67.9161 51.6431 68.1909 51.6447 68.4657 51.6422C68.5671 51.6414 68.6524 51.7232 68.6493 51.8176V51.8175ZM68.646 50.2103C68.6427 50.2675 68.6081 50.3129 68.5461 50.339C68.51 50.3542 68.4758 50.356 68.4394 50.356C67.4959 50.3562 66.5525 50.3562 65.609 50.3562C64.6655 50.3562 63.7221 50.3556 62.7786 50.3569C62.6812 50.3571 62.6164 50.3195 62.5816 50.2343C62.5769 50.2227 62.577 50.2089 62.5769 50.1962C62.5766 50.0889 62.5766 49.9816 62.5769 49.8743C62.5769 49.8206 62.6192 49.7459 62.6853 49.7314C62.718 49.7242 62.7514 49.7146 62.7845 49.7146C64.6702 49.7138 66.5559 49.7141 68.4417 49.7129C68.4993 49.7128 68.5527 49.7241 68.5921 49.7585C68.62 49.7829 68.6436 49.825 68.6456 49.8604C68.6523 49.9768 68.6528 50.094 68.6461 50.2103H68.646Z" fill="#F8F9FA"/>
<path d="M158.479 20.6765C158.419 20.5203 158.31 20.4417 158.158 20.433C158.142 20.432 158.125 20.4326 158.108 20.4326H152.325C152.251 20.4326 152.26 20.4378 152.26 20.3594C152.26 20.0921 152.26 19.8249 152.26 19.5577V19.499H152.307C152.803 19.499 153.298 19.4999 153.794 19.4986C153.98 19.4981 154.135 19.4148 154.264 19.2682C154.348 19.1731 154.403 19.0601 154.433 18.9324C154.444 18.8894 154.45 18.844 154.45 18.7997C154.451 17.7667 154.453 16.7336 154.449 15.7006C154.449 15.4978 154.363 15.3295 154.229 15.1933C154.137 15.0993 154.03 15.034 153.904 15.0148C153.855 15.0073 153.805 15.0008 153.755 15.0008C152.414 15 151.072 15.0004 149.73 15C149.49 14.9999 149.304 15.114 149.167 15.3278C149.113 15.4116 149.074 15.5048 149.063 15.6092C149.058 15.6588 149.051 15.7087 149.051 15.7584C149.05 16.7582 149.05 17.7579 149.051 18.7578C149.052 19.0299 149.164 19.2366 149.368 19.3849C149.477 19.4646 149.597 19.4996 149.728 19.4994C150.216 19.4984 150.704 19.499 151.193 19.499H151.239C151.239 19.5191 151.241 19.5359 151.241 19.5527C151.241 19.8267 151.241 20.1005 151.241 20.3744C151.241 20.4324 151.241 20.4325 151.187 20.4325C149.249 20.4325 147.311 20.4327 145.373 20.4321C145.247 20.432 145.14 20.4739 145.065 20.5909C145.042 20.6264 145.03 20.6707 145.013 20.7107C145.01 20.7171 145.004 20.722 145 20.7276V21.2717C145.007 21.2888 145.014 21.3058 145.02 21.3229C145.081 21.4792 145.19 21.5576 145.341 21.5654C145.357 21.5662 145.373 21.5656 145.388 21.5656H147.473C147.508 21.5656 147.526 21.5852 147.526 21.6242C147.526 21.8978 147.526 22.1714 147.526 22.445C147.526 22.4619 147.524 22.4787 147.524 22.4993H147.475C147.1 22.4993 146.725 22.4999 146.351 22.499C146.111 22.4985 145.925 22.6119 145.786 22.8257C145.732 22.9097 145.693 23.0025 145.682 23.1067C145.676 23.1629 145.67 23.2196 145.67 23.2759C145.669 24.2733 145.668 25.2706 145.67 26.2679C145.671 26.5349 145.785 26.7379 145.985 26.8839C146.097 26.9654 146.219 26.9997 146.352 26.9996C147.477 26.9988 148.603 26.9999 149.728 26.9985C149.974 26.9982 150.16 26.8726 150.293 26.6466C150.365 26.5262 150.396 26.3945 150.396 26.251C150.396 25.2496 150.397 24.2483 150.396 23.247C150.396 22.9714 150.284 22.7625 150.078 22.6125C150.007 22.5613 149.932 22.5253 149.848 22.5138C149.8 22.5073 149.751 22.5002 149.703 22.5C149.332 22.4989 148.961 22.4994 148.589 22.4994H148.544C148.543 22.4814 148.542 22.4673 148.542 22.4532C148.542 22.1738 148.543 21.8946 148.541 21.6154C148.541 21.5747 148.552 21.564 148.588 21.564C150.694 21.5649 152.8 21.5648 154.906 21.5641C154.939 21.5641 154.952 21.5731 154.952 21.6126C154.95 21.8933 154.951 22.1738 154.951 22.4544C154.951 22.4674 154.95 22.4805 154.949 22.4994H154.906C154.53 22.4994 154.154 22.4998 153.778 22.4992C153.539 22.4988 153.354 22.6111 153.216 22.8237C153.161 22.9089 153.122 23.0024 153.11 23.1081C153.105 23.159 153.098 23.2103 153.098 23.2614C153.097 24.2613 153.096 25.2613 153.098 26.2613C153.099 26.5319 153.212 26.7372 153.415 26.8847C153.524 26.9646 153.644 26.9996 153.774 26.9995C154.901 26.999 156.028 26.998 157.155 27C157.452 27.0005 157.708 26.7738 157.793 26.4833C157.813 26.4142 157.823 26.3384 157.823 26.2657C157.825 25.255 157.826 24.2444 157.824 23.2338C157.823 22.9649 157.709 22.7609 157.508 22.6142C157.397 22.5335 157.276 22.4986 157.145 22.499C156.77 22.5001 156.395 22.4994 156.02 22.4994H155.973C155.972 22.481 155.97 22.4644 155.97 22.4478C155.97 22.1725 155.97 21.8973 155.97 21.6221C155.97 21.584 155.987 21.5649 156.021 21.5648C156.726 21.5648 157.431 21.5646 158.137 21.565C158.259 21.565 158.363 21.5203 158.436 21.4073C158.458 21.3717 158.47 21.3275 158.487 21.2874C158.49 21.281 158.496 21.2761 158.5 21.2705V20.7279C158.493 20.7109 158.486 20.6939 158.48 20.6768L158.479 20.6765ZM149.05 23.9993V25.4914H147.032V23.9993H149.05ZM150.407 17.999V16.5069H153.1V17.999H150.407ZM156.475 23.9993V25.4914H154.457V23.9993H156.475Z" fill="#F8F9FA"/>
<path d="M68.9843 27.8124C68.9738 27.7185 68.9573 27.6245 68.9347 27.5325C68.8967 27.3777 68.8372 27.2299 68.7615 27.0882C68.6549 26.8885 68.5194 26.7092 68.3543 26.551C68.1734 26.3776 67.9686 26.2356 67.7357 26.1364C67.6032 26.0799 67.4644 26.0348 67.3247 25.9974C67.2254 25.9706 67.1199 25.9659 67.0172 25.9505C66.8486 25.9251 66.68 25.9377 66.5128 25.9577C66.3325 25.9794 66.157 26.0255 65.9889 26.0921C65.7428 26.1895 65.5195 26.3243 65.3256 26.5C65.0337 26.7646 64.8273 27.0808 64.7135 27.4534C64.6595 27.6307 64.6276 27.8113 64.6246 27.9942C64.6224 28.1333 64.6373 28.2742 64.6612 28.4117C64.6836 28.5405 64.7189 28.669 64.7644 28.792C64.8537 29.0336 64.9914 29.2506 65.168 29.4423C65.4254 29.7217 65.7359 29.9266 66.105 30.0457C66.1654 30.0652 66.1928 30.1056 66.1872 30.167C66.1869 30.1697 66.1868 30.1724 66.1867 30.175C66.1799 30.3565 66.1457 30.5332 66.0853 30.7053C66.004 30.9365 65.8615 31.1229 65.6513 31.2602C65.5017 31.3579 65.3394 31.4294 65.1664 31.4781C65.054 31.5097 64.9414 31.5415 64.8274 31.5667C64.7332 31.5874 64.6367 31.5996 64.541 31.6138C64.4233 31.6312 64.3057 31.6494 64.1875 31.6624C64.027 31.6801 63.8659 31.6932 63.705 31.7083C63.5291 31.7248 63.3533 31.741 63.1775 31.7579C63.0767 31.7676 62.9757 31.7764 62.8752 31.7892C62.7601 31.8038 62.6455 31.8216 62.5309 31.8393C62.439 31.8535 62.3468 31.866 62.2562 31.8854C62.1326 31.9118 62.0094 31.9408 61.8879 31.9749C61.7703 32.0078 61.6545 32.047 61.5392 32.0867C61.476 32.1084 61.4152 32.1366 61.3474 32.1644V32.1064C61.3474 30.8831 61.3474 29.6598 61.3474 28.4365C61.3474 28.426 61.3483 28.4153 61.3473 28.4048C61.3451 28.3827 61.3552 28.373 61.3771 28.3652C61.4422 28.3424 61.5067 28.3174 61.5704 28.2911C61.9016 28.1546 62.1764 27.9469 62.4008 27.6764C62.5893 27.4492 62.7275 27.1966 62.7992 26.9131C62.8286 26.7971 62.8545 26.6793 62.868 26.5608C62.89 26.3684 62.8784 26.1761 62.8425 25.9848C62.8142 25.8342 62.7705 25.6882 62.7096 25.5476C62.6489 25.4074 62.5719 25.2753 62.4808 25.1504C62.215 24.7863 61.8633 24.5305 61.4326 24.3753C61.25 24.3095 61.0594 24.2716 60.8654 24.2572C60.6527 24.2416 60.4393 24.2496 60.2318 24.298C60.0924 24.3305 59.9549 24.3753 59.8221 24.4275C59.4912 24.5575 59.2178 24.7644 58.9922 25.0302C58.8316 25.2194 58.7103 25.4297 58.6257 25.661C58.5742 25.802 58.5374 25.9459 58.5181 26.0932C58.4921 26.2905 58.4934 26.4879 58.5282 26.6856C58.551 26.8158 58.5833 26.9423 58.6275 27.067C58.7113 27.3027 58.8378 27.5152 59.0021 27.7059C59.2626 28.0085 59.5867 28.2257 59.9722 28.3549C60.0173 28.37 60.0317 28.3877 60.0317 28.4342C60.0303 30.1447 60.0305 31.8552 60.0305 33.5657C60.0305 33.5736 60.0298 33.5816 60.0306 33.5895C60.0335 33.6155 60.0242 33.6283 59.9959 33.6376C59.9227 33.6616 59.8498 33.6875 59.7799 33.7192C59.481 33.8544 59.2225 34.0416 59.0112 34.287C58.799 34.5334 58.6498 34.8106 58.5688 35.1225C58.5341 35.2563 58.5112 35.3913 58.5033 35.5281C58.4896 35.7629 58.5185 35.9938 58.5855 36.2206C58.6475 36.4304 58.7404 36.6257 58.8655 36.8069C59.0128 37.0206 59.1946 37.2019 59.4105 37.3529C59.5764 37.469 59.7554 37.5607 59.9472 37.6276C60.1103 37.6844 60.2785 37.7254 60.4528 37.7375C60.4687 37.7386 60.4842 37.7457 60.4999 37.75H60.8788C60.8945 37.7457 60.91 37.7389 60.926 37.7375C61.1095 37.722 61.2855 37.6778 61.4581 37.6165C61.7432 37.5151 61.9935 37.3614 62.2106 37.158C62.4632 36.9213 62.648 36.6431 62.7611 36.3195C62.8145 36.1662 62.8508 36.0104 62.8679 35.8509C62.885 35.6904 62.8811 35.5294 62.8589 35.3681C62.8383 35.2174 62.8024 35.0712 62.7506 34.9287C62.6864 34.7521 62.5983 34.586 62.4858 34.4336C62.2568 34.1237 61.9665 33.8832 61.6048 33.7265C61.5647 33.7092 61.5251 33.6908 61.4726 33.6672C61.534 33.6006 61.5852 33.538 61.644 33.483C61.7587 33.3753 61.8996 33.3072 62.0483 33.2551C62.1401 33.223 62.2345 33.1975 62.3287 33.1721C62.3916 33.1551 62.4558 33.142 62.5199 33.1297C62.6136 33.1118 62.7073 33.0931 62.8019 33.08C62.9346 33.0618 63.0679 33.048 63.2011 33.0332C63.3087 33.0212 63.4163 33.01 63.524 32.9997C63.6072 32.9916 63.6906 32.9861 63.7738 32.9783C63.8869 32.9677 63.9999 32.9563 64.1129 32.9446C64.2544 32.93 64.3964 32.919 64.5371 32.8987C64.7139 32.8733 64.8901 32.8425 65.0656 32.8092C65.1913 32.7855 65.3182 32.7619 65.4398 32.7241C65.6153 32.6697 65.7882 32.6064 65.9592 32.5396C66.1692 32.4576 66.3603 32.3426 66.538 32.2074C66.7569 32.0408 66.9399 31.8436 67.0883 31.6148C67.2145 31.42 67.3102 31.2128 67.3749 30.9931C67.4159 30.8541 67.4493 30.712 67.4713 30.5692C67.4951 30.4153 67.5042 30.259 67.5138 30.1034C67.5164 30.0627 67.5284 30.0415 67.5666 30.0303C67.5899 30.0234 67.6128 30.0147 67.6355 30.0059C67.968 29.8764 68.2484 29.6768 68.4808 29.4146C68.7213 29.1432 68.8794 28.8307 68.9553 28.4821C68.9819 28.36 68.9923 28.2338 68.9986 28.1089C69.0034 28.0104 68.9953 27.9107 68.9843 27.8124ZM60.687 36.0634C60.4425 36.0619 60.2511 35.8787 60.251 35.6412C60.2509 35.4138 60.4473 35.2248 60.6884 35.2243C60.9212 35.2239 61.1298 35.4197 61.1184 35.6443C61.1282 35.8675 60.9283 36.0648 60.687 36.0634ZM60.6849 26.7841C60.4457 26.782 60.2514 26.5949 60.2511 26.3682C60.2506 26.1295 60.4423 25.9472 60.6862 25.9454C60.9286 25.9435 61.1279 26.1408 61.1184 26.3638C61.1298 26.5902 60.9199 26.7863 60.6849 26.7841ZM66.8091 28.4688C66.5719 28.478 66.3724 28.2705 66.3752 28.0487C66.3781 27.8231 66.5724 27.6313 66.8128 27.6317C67.05 27.6321 67.2449 27.8238 67.245 28.0536C67.2452 28.2797 67.0452 28.4771 66.8091 28.4688Z" fill="#F8F9FA"/>
<path d="M156.037 45.25H148.47C148.462 45.2468 148.454 45.2423 148.445 45.2404C148.39 45.2287 148.334 45.2225 148.281 45.2054C148.103 45.1479 147.951 45.0509 147.829 44.9111C147.664 44.7224 147.583 44.5018 147.583 44.2534C147.583 42.9492 147.583 41.645 147.583 40.3407C147.584 40.2142 147.603 40.0902 147.651 39.9717C147.71 39.8264 147.797 39.7002 147.915 39.5954C148.066 39.4609 148.244 39.3793 148.445 39.3505C148.521 39.3397 148.598 39.3403 148.675 39.3393C148.798 39.3376 148.922 39.3388 149.045 39.3388H149.084C149.084 39.3224 149.084 39.3097 149.084 39.297C149.084 38.8121 149.083 38.3273 149.085 37.8425C149.085 37.733 149.097 37.6235 149.106 37.5142C149.118 37.3627 149.147 37.2128 149.192 37.0674C149.231 36.9423 149.272 36.8177 149.318 36.695C149.386 36.5166 149.478 36.35 149.582 36.1898C149.756 35.9211 149.968 35.6846 150.216 35.4793C150.449 35.2862 150.705 35.1297 150.985 35.0085C151.151 34.9364 151.322 34.8809 151.497 34.8357C151.586 34.8129 151.676 34.7955 151.767 34.7824C151.87 34.7675 151.975 34.7536 152.079 34.7511C152.219 34.7478 152.36 34.7525 152.5 34.7585C152.662 34.7654 152.82 34.791 152.977 34.8309C153.051 34.8499 153.127 34.8651 153.2 34.8895C153.314 34.9275 153.427 34.9669 153.536 35.0146C153.768 35.1152 153.984 35.2425 154.184 35.3954C154.434 35.5863 154.652 35.8078 154.835 36.0619C155.001 36.2923 155.134 36.5399 155.232 36.8058C155.289 36.9612 155.333 37.12 155.366 37.2815C155.386 37.3806 155.4 37.4813 155.408 37.5819C155.418 37.6918 155.421 37.8026 155.421 37.913C155.422 38.3749 155.422 38.8369 155.422 39.2988V39.3388C155.437 39.3388 155.448 39.3388 155.459 39.3388C155.56 39.3388 155.662 39.3363 155.763 39.3395C155.876 39.3431 155.99 39.3486 156.104 39.3597C156.191 39.3684 156.273 39.3999 156.351 39.4378C156.554 39.5357 156.709 39.6826 156.812 39.8819C156.877 40.0081 156.916 40.14 156.916 40.2827C156.915 41.6098 156.915 42.937 156.916 44.2641C156.916 44.3898 156.898 44.5096 156.851 44.6264C156.788 44.7847 156.69 44.9182 156.557 45.0254C156.412 45.1428 156.246 45.2182 156.058 45.2407C156.051 45.2416 156.044 45.2468 156.037 45.2499V45.25ZM152.253 39.3449C152.736 39.3449 153.219 39.3449 153.702 39.3449C153.735 39.3449 153.751 39.3294 153.751 39.2984C153.751 38.8365 153.751 38.3747 153.75 37.9128C153.75 37.7917 153.741 37.6715 153.714 37.5525C153.679 37.3949 153.619 37.2473 153.534 37.1102C153.367 36.8416 153.137 36.6437 152.843 36.517C152.706 36.4579 152.563 36.419 152.415 36.4052C152.267 36.3915 152.119 36.3944 151.972 36.4228C151.842 36.4478 151.718 36.4871 151.6 36.544C151.361 36.6588 151.167 36.8244 151.015 37.0399C150.888 37.2221 150.807 37.4235 150.771 37.6407C150.757 37.7245 150.755 37.811 150.755 37.8962C150.753 38.365 150.754 38.8338 150.754 39.3027C150.754 39.3309 150.768 39.3449 150.796 39.345C151.282 39.345 151.767 39.345 152.252 39.345L152.253 39.3449Z" fill="#F8F9FA"/>
<path d="M222.232 61H221.308L223.979 53.7273H224.888L227.558 61H226.635L224.462 54.8778H224.405L222.232 61ZM222.573 58.1591H226.294V58.9403H222.573V58.1591ZM228.578 63.0455V55.5455H229.387V56.4119H229.487C229.548 56.3172 229.633 56.1965 229.742 56.0497C229.854 55.9006 230.012 55.768 230.218 55.652C230.427 55.5336 230.708 55.4744 231.063 55.4744C231.523 55.4744 231.927 55.5893 232.278 55.8189C232.628 56.0485 232.902 56.3741 233.098 56.7955C233.295 57.2169 233.393 57.714 233.393 58.2869C233.393 58.8646 233.295 59.3653 233.098 59.7891C232.902 60.2105 232.629 60.5372 232.281 60.7692C231.933 60.9988 231.532 61.1136 231.078 61.1136C230.727 61.1136 230.447 61.0556 230.236 60.9396C230.025 60.8213 229.863 60.6875 229.749 60.5384C229.636 60.3868 229.548 60.2614 229.487 60.1619H229.416V63.0455H228.578ZM229.401 58.2727C229.401 58.6847 229.462 59.0481 229.583 59.3629C229.703 59.6754 229.88 59.9205 230.112 60.098C230.344 60.2732 230.628 60.3608 230.964 60.3608C231.314 60.3608 231.607 60.2685 231.841 60.0838C232.078 59.8968 232.255 59.6458 232.374 59.331C232.494 59.0137 232.555 58.661 232.555 58.2727C232.555 57.8892 232.496 57.5436 232.377 57.2358C232.261 56.9257 232.085 56.6806 231.848 56.5007C231.614 56.3184 231.319 56.2273 230.964 56.2273C230.623 56.2273 230.337 56.3137 230.105 56.4865C229.873 56.657 229.697 56.8961 229.579 57.2038C229.461 57.5092 229.401 57.8655 229.401 58.2727ZM234.671 63.0455V55.5455H235.481V56.4119H235.58C235.642 56.3172 235.727 56.1965 235.836 56.0497C235.947 55.9006 236.106 55.768 236.312 55.652C236.52 55.5336 236.802 55.4744 237.157 55.4744C237.616 55.4744 238.021 55.5893 238.372 55.8189C238.722 56.0485 238.995 56.3741 239.192 56.7955C239.388 57.2169 239.487 57.714 239.487 58.2869C239.487 58.8646 239.388 59.3653 239.192 59.7891C238.995 60.2105 238.723 60.5372 238.375 60.7692C238.027 60.9988 237.626 61.1136 237.171 61.1136C236.821 61.1136 236.54 61.0556 236.33 60.9396C236.119 60.8213 235.957 60.6875 235.843 60.5384C235.73 60.3868 235.642 60.2614 235.58 60.1619H235.509V63.0455H234.671ZM235.495 58.2727C235.495 58.6847 235.556 59.0481 235.676 59.3629C235.797 59.6754 235.973 59.9205 236.205 60.098C236.437 60.2732 236.722 60.3608 237.058 60.3608C237.408 60.3608 237.7 60.2685 237.935 60.0838C238.172 59.8968 238.349 59.6458 238.468 59.331C238.588 59.0137 238.649 58.661 238.649 58.2727C238.649 57.8892 238.589 57.5436 238.471 57.2358C238.355 56.9257 238.179 56.6806 237.942 56.5007C237.708 56.3184 237.413 56.2273 237.058 56.2273C236.717 56.2273 236.43 56.3137 236.198 56.4865C235.966 56.657 235.791 56.8961 235.673 57.2038C235.554 57.5092 235.495 57.8655 235.495 58.2727ZM241.603 53.7273V61H240.765V53.7273H241.603ZM243.138 61V55.5455H243.976V61H243.138ZM243.564 54.6364C243.401 54.6364 243.26 54.5807 243.142 54.4695C243.026 54.3582 242.968 54.2244 242.968 54.0682C242.968 53.9119 243.026 53.7782 243.142 53.6669C243.26 53.5556 243.401 53.5 243.564 53.5C243.728 53.5 243.867 53.5556 243.983 53.6669C244.102 53.7782 244.161 53.9119 244.161 54.0682C244.161 54.2244 244.102 54.3582 243.983 54.4695C243.867 54.5807 243.728 54.6364 243.564 54.6364ZM247.727 61.1136C247.216 61.1136 246.775 60.9929 246.406 60.7514C246.037 60.5099 245.753 60.1773 245.554 59.7536C245.355 59.3298 245.256 58.8456 245.256 58.3011C245.256 57.7472 245.357 57.2583 245.561 56.8345C245.767 56.4084 246.053 56.0758 246.42 55.8366C246.79 55.5952 247.22 55.4744 247.713 55.4744C248.096 55.4744 248.442 55.5455 248.75 55.6875C249.058 55.8295 249.31 56.0284 249.506 56.2841C249.703 56.5398 249.825 56.8381 249.872 57.179H249.034C248.97 56.9304 248.828 56.7102 248.608 56.5185C248.39 56.3243 248.096 56.2273 247.727 56.2273C247.4 56.2273 247.114 56.3125 246.868 56.483C246.624 56.651 246.433 56.889 246.296 57.1967C246.161 57.5021 246.094 57.8608 246.094 58.2727C246.094 58.6941 246.16 59.0611 246.292 59.3736C246.427 59.6861 246.617 59.9287 246.861 60.1016C247.107 60.2744 247.396 60.3608 247.727 60.3608C247.945 60.3608 248.143 60.3229 248.32 60.2472C248.498 60.1714 248.648 60.0625 248.771 59.9205C248.894 59.7784 248.982 59.608 249.034 59.4091H249.872C249.825 59.7311 249.707 60.0211 249.52 60.2791C249.336 60.5348 249.091 60.7384 248.785 60.8899C248.482 61.0391 248.13 61.1136 247.727 61.1136ZM252.702 61.1278C252.357 61.1278 252.043 61.0627 251.761 60.9325C251.479 60.8 251.256 60.6094 251.09 60.3608C250.924 60.1098 250.841 59.8068 250.841 59.4517C250.841 59.1392 250.903 58.8859 251.026 58.6918C251.149 58.4953 251.314 58.3414 251.52 58.2301C251.726 58.1188 251.953 58.036 252.202 57.9815C252.452 57.9247 252.705 57.8797 252.958 57.8466C253.289 57.804 253.558 57.772 253.764 57.7507C253.972 57.727 254.124 57.688 254.219 57.6335C254.316 57.5791 254.364 57.4844 254.364 57.3494V57.321C254.364 56.9706 254.268 56.6984 254.077 56.5043C253.887 56.3101 253.599 56.2131 253.214 56.2131C252.814 56.2131 252.5 56.3007 252.273 56.4759C252.045 56.651 251.885 56.8381 251.793 57.0369L250.998 56.7528C251.14 56.4214 251.329 56.1634 251.566 55.9787C251.805 55.7917 252.065 55.6615 252.347 55.5881C252.631 55.5123 252.911 55.4744 253.185 55.4744C253.36 55.4744 253.562 55.4957 253.789 55.5384C254.019 55.5786 254.24 55.6626 254.453 55.7905C254.668 55.9183 254.847 56.1113 254.989 56.3693C255.131 56.6274 255.202 56.973 255.202 57.4062V61H254.364V60.2614H254.322C254.265 60.3797 254.17 60.5064 254.037 60.6413C253.905 60.7763 253.729 60.8911 253.508 60.9858C253.288 61.0805 253.019 61.1278 252.702 61.1278ZM252.83 60.375C253.162 60.375 253.441 60.3099 253.668 60.1797C253.898 60.0495 254.071 59.8814 254.187 59.6754C254.305 59.4695 254.364 59.2528 254.364 59.0256V58.2585C254.329 58.3011 254.251 58.3402 254.13 58.3757C254.011 58.4089 253.874 58.4384 253.718 58.4645C253.564 58.4882 253.414 58.5095 253.267 58.5284C253.122 58.545 253.005 58.5592 252.915 58.571C252.698 58.5994 252.494 58.6456 252.305 58.7095C252.117 58.7711 251.966 58.8646 251.85 58.9901C251.736 59.1132 251.68 59.2812 251.68 59.4943C251.68 59.7855 251.787 60.0057 252.003 60.1548C252.22 60.3016 252.496 60.375 252.83 60.375ZM257.57 57.7188V61H256.732V55.5455H257.542V56.3977H257.613C257.74 56.1207 257.935 55.8982 258.195 55.7301C258.455 55.5597 258.792 55.4744 259.203 55.4744C259.573 55.4744 259.896 55.5502 260.173 55.7017C260.45 55.8509 260.665 56.0781 260.819 56.3835C260.973 56.6866 261.05 57.0701 261.05 57.5341V61H260.212V57.5909C260.212 57.1624 260.101 56.8286 259.878 56.5895C259.656 56.348 259.35 56.2273 258.962 56.2273C258.694 56.2273 258.455 56.2853 258.245 56.4013C258.036 56.5173 257.872 56.6866 257.751 56.9091C257.63 57.1316 257.57 57.4015 257.57 57.7188ZM264.954 55.5455V56.2557H262.127V55.5455H264.954ZM262.951 54.2386H263.789V59.4375C263.789 59.6742 263.823 59.8518 263.892 59.9702C263.963 60.0862 264.053 60.1643 264.162 60.2045C264.273 60.2424 264.39 60.2614 264.513 60.2614C264.606 60.2614 264.681 60.2566 264.741 60.2472C264.8 60.2353 264.847 60.2259 264.883 60.2188L265.053 60.9716C264.996 60.9929 264.917 61.0142 264.815 61.0355C264.713 61.0592 264.584 61.071 264.428 61.071C264.191 61.071 263.959 61.0201 263.732 60.9183C263.507 60.8165 263.32 60.6615 263.171 60.4531C263.024 60.2448 262.951 59.982 262.951 59.6648V54.2386Z" fill="#F8F9FA"/>
<g clip-path="url(#clip0_1670_3364)">
<path d="M250.396 37.1022C250.396 38.0656 249.612 38.8574 248.621 38.8574C247.625 38.8574 246.835 38.0604 246.835 37.1022C246.835 36.1441 247.625 35.3471 248.621 35.3471C249.612 35.3471 250.396 36.1389 250.396 37.1022ZM242.596 35.4492C242.596 36.7202 241.567 37.7553 240.264 37.7553C238.956 37.7553 237.921 36.7159 237.921 35.4492C237.921 34.1825 238.956 33.1431 240.264 33.1431C241.567 33.1431 242.596 34.1781 242.596 35.4492ZM243.492 45.092C243.492 44.9598 243.552 44.767 243.837 44.5066C244.129 44.2405 244.582 43.9792 245.16 43.7503C246.318 43.292 247.725 43.0614 248.621 43.0614C249.517 43.0614 250.924 43.292 252.082 43.7503C252.66 43.9792 253.113 44.2405 253.405 44.5066C253.691 44.767 253.75 44.9598 253.75 45.092V46.5716H243.492V45.092ZM233.464 44.8165C233.464 44.5463 233.593 44.233 233.991 43.8694C234.396 43.5 235.006 43.1527 235.758 42.8549C237.264 42.2589 239.089 41.9594 240.264 41.9594C240.322 41.9594 240.382 41.9602 240.444 41.9618C240.208 42.2409 240.014 42.5264 239.856 42.8135C239.382 43.6744 239.264 44.4928 239.264 45.092V46.5716H233.464V44.8165Z" stroke="#F8F9FA" stroke-width="2"/>
</g>
<defs>
<clipPath id="clip0_1670_3364">
<rect width="24" height="24" fill="white" transform="translate(230.75 27)"/>
</clipPath>
</defs>
</svg>
